<svg xmlns="http://www.w3.org/2000/svg" viewBox="0 0 730 148" height="100%">
  <!-- Hat -->
  <g>
    <path fill="#EE0000" d="M129,85c12.5,0,30.6-2.6,30.6-17.5c0-1.2,0-2.3-0.3-3.4l-7.4-32.4c-1.7-7.1-3.2-10.3-15.7-16.6
      C126.4,10.2,105.3,2,99,2c-5.8,0-7.5,7.5-14.4,7.5c-6.7,0-11.6-5.6-17.9-5.6c-6,0-9.9,4.1-12.9,12.5c0,0-8.4,23.7-9.5,27.2
      C44,44.3,44,45,44,45.5C44,54.8,80.3,85,129,85 M161.5,73.6c1.7,8.2,1.7,9.1,1.7,10.1c0,14-15.7,21.8-36.4,21.8
      C80,105.5,39.1,78.1,39.1,60c0-2.8,0.6-5.4,1.5-7.3C23.8,53.5,2,56.5,2,75.7C2,107.2,76.6,146,135.7,146
      c45.3,0,56.7-20.5,56.7-36.6C192.3,96.6,181.4,82.2,161.5,73.6"/>
    <path d="M161.5,73.6c1.7,8.2,1.7,9.1,1.7,10.1c0,14-15.7,21.8-36.4,21.8C80,105.5,39.1,78.1,39.1,60c0-2.8,0.6-5.4,1.5-7.3
      l3.7-9.1C44,44.3,44,45,44,45.5C44,54.8,80.3,85,129,85c12.5,0,30.6-2.6,30.6-17.5c0-1.2,0-2.3-0.3-3.4L161.5,73.6z"/>
  </g>
  <!-- "Red Hat" text paths (from official RHOAI logo) -->
  <path fill="#151515" d="M581.2,94.3c0,11.9,7.2,17.7,20.2,17.7c3.2,0,8.6-0.7,11.9-1.7V96.5c-2.8,0.8-4.9,1.2-7.7,1.2
    c-5.4,0-7.4-1.7-7.4-6.7V69.8h15.6V55.6h-15.6v-18l-17,3.7v14.3H570v14.2h11.3V94.3z M528.3,94.6c0-3.7,3.7-5.5,9.3-5.5
    c3.7,0,7,0.5,10.1,1.3v7.2c-3.2,1.8-6.8,2.6-10.6,2.6C531.6,100.2,528.3,98.1,528.3,94.6 M533.5,112.2c6,0,10.8-1.3,15.4-4.3v3.4
    h16.8V75.6c0-13.6-9.1-21-24.4-21c-8.5,0-16.9,2-26,6.1l6.1,12.5c6.5-2.7,12-4.4,16.8-4.4c7,0,10.6,2.7,10.6,8.3v2.7
    c-4-1.1-8.2-1.6-12.6-1.6c-14.3,0-22.9,6-22.9,16.7C513.3,104.7,521.1,112.2,533.5,112.2 M441.1,111.2h18.1V82.4h30.3v28.8h18.1
    V37.6h-18.1v28.3h-30.3V37.6h-18.1V111.2z M372.1,83.4c0-8,6.3-14.1,14.6-14.1c4.6,0,8.8,1.6,11.8,4.3V93c-3,2.9-7,4.4-11.8,4.4
    C378.5,97.5,372.1,91.4,372.1,83.4 M398.7,111.2h16.8V33.9l-17,3.7v20.9c-4.2-2.4-9-3.7-14.2-3.7c-16.2,0-28.9,12.5-28.9,28.5
    c0,16,12.5,28.6,28.4,28.6c5.5,0,10.6-1.7,14.9-4.8V111.2z M321.5,68.5c5.4,0,9.9,3.5,11.7,8.8H310
    C311.7,71.8,315.9,68.5,321.5,68.5 M292.8,83.5c0,16.2,13.3,28.8,30.3,28.8c9.4,0,16.2-2.5,23.2-8.4l-11.3-10
    c-2.6,2.7-6.5,4.2-11.1,4.2c-6.3,0-11.5-3.5-13.7-8.8h39.6V85c0-17.7-11.9-30.4-28.1-30.4C305.6,54.7,292.8,67.3,292.8,83.5
     M263.5,53.1c6,0,9.4,3.8,9.4,8.3s-3.4,8.3-9.4,8.3h-17.9V53.1H263.5z M227.5,111.2h18.1V84.4h13.8l13.9,26.8h20.2l-16.2-29.4
    c8.7-3.8,13.9-11.7,13.9-20.7c0-13.3-10.4-23.5-26-23.5h-37.7V111.2z"/>
  <!-- "AI" text paths (from official RHOAI logo, translated to sit inline) -->
  <g transform="translate(-109,-108.3)">
    <path fill="#151515" d="M737,219.5l30.2-72.8h12.8l29.7,72.8h-11.9l-8.4-21.3h-32.6l-8.5,21.3H737z M760.5,189.2h25.4l-12.7-31.9L760.5,189.2z"/>
    <path fill="#151515" d="M817.2,219.5v-72.8h10.9v72.8H817.2z"/>
  </g>
</svg>
