<?xml version="1.0" encoding="UTF-8" standalone="no"?>
<!-- Created with Inkscape (http://www.inkscape.org/) -->

<svg
   xmlns:dc="http://purl.org/dc/elements/1.1/"
   xmlns:cc="http://creativecommons.org/ns#"
   xmlns:rdf="http://www.w3.org/1999/02/22-rdf-syntax-ns#"
   xmlns:svg="http://www.w3.org/2000/svg"
   xmlns="http://www.w3.org/2000/svg"
   xmlns:sodipodi="http://sodipodi.sourceforge.net/DTD/sodipodi-0.dtd"
   xmlns:inkscape="http://www.inkscape.org/namespaces/inkscape"
   version="1.1"
   id="svg869"
   width="975"
   height="291"
   viewBox="0 0 975 291"
   sodipodi:docname="Apache_kafka_wordtype.svg"
   inkscape:version="0.92.2 2405546, 2018-03-11">
  <metadata
     id="metadata875">
    <rdf:RDF>
      <cc:Work
         rdf:about="">
        <dc:format>image/svg+xml</dc:format>
        <dc:type
           rdf:resource="http://purl.org/dc/dcmitype/StillImage" />
        <dc:title></dc:title>
      </cc:Work>
    </rdf:RDF>
  </metadata>
  <defs
     id="defs873" />
  <sodipodi:namedview
     pagecolor="#ffffff"
     bordercolor="#666666"
     borderopacity="1"
     objecttolerance="10"
     gridtolerance="10"
     guidetolerance="10"
     inkscape:pageopacity="0"
     inkscape:pageshadow="2"
     inkscape:window-width="1920"
     inkscape:window-height="1020"
     id="namedview871"
     showgrid="false"
     inkscape:zoom="1.12"
     inkscape:cx="487.5"
     inkscape:cy="252.64286"
     inkscape:window-x="0"
     inkscape:window-y="0"
     inkscape:window-maximized="1"
     inkscape:current-layer="svg869" />
  <g
     id="g916">
    <path
       inkscape:connector-curvature="0"
       id="path879"
       d="M 38.299837,286.19492 C 28.111172,282.56269 19.839879,274.97838 15.185096,265 11.837594,257.82401 11.039688,245.81518 13.376338,237.77738 16.511163,226.99397 26.750517,215.9467 36.976986,212.31458 L 42,210.53056 v -8.08266 -8.08266 l -5.429103,-1.71137 C 25.727174,189.23569 14.3822,179.63021 8.5649423,168.94199 c -7.3615369,-13.52557 -7.3615369,-33.35841 0,-46.88398 C 14.3822,111.36979 25.727174,101.76431 36.570897,98.346129 L 42,96.634759 v -8.08266 -8.08266 l -5.023014,-1.78402 C 26.750517,75.053299 16.511163,64.006039 13.376338,53.222619 11.019604,45.115729 11.8367,33.208049 15.26274,25.731749 18.661711,18.314529 27.232935,9.7170186 34.731752,6.2030286 39.8523,3.8035186 41.679015,3.4999986 51,3.4999986 c 9.320985,0 11.1477,0.30352 16.268248,2.70303 7.498817,3.51399 16.070041,12.1115004 19.469012,19.5287204 3.42604,7.4763 4.243136,19.38398 1.886402,27.49087 -3.139451,10.79933 -13.374869,21.83093 -23.637089,25.47575 l -5.059455,1.79696 0.286441,7.891 0.286441,7.89101 5.249326,1.34066 c 7.017249,1.79219 12.033895,4.454311 18.838721,9.996921 l 5.662775,4.61239 4.124589,-2.28868 c 2.268523,-1.25877 5.627299,-3.22561 7.463949,-4.37075 l 3.33935,-2.08207 0.16065,-10.492901 c 0.13953,-9.11435 0.51576,-11.25074 2.86367,-16.26116 3.48151,-7.42951 12.09921,-16.04721 19.52872,-19.52872 5.12055,-2.39951 6.94726,-2.70303 16.26825,-2.70303 9.32099,0 11.1477,0.30352 16.26825,2.70303 7.42951,3.48151 16.04721,12.09921 19.52872,19.52872 2.39951,5.12055 2.70303,6.94727 2.70303,16.26825 0,9.320991 -0.30352,11.147701 -2.70303,16.268251 -3.48151,7.42951 -12.09921,16.04721 -19.52872,19.52872 C 155.1477,131.19648 153.32099,131.5 144,131.5 c -11.8427,0 -16.76846,-1.61107 -24.63555,-8.05756 l -4.29487,-3.51932 -7.56033,4.28844 -7.560326,4.28844 0.775536,4 c 1.00569,5.18703 0.99884,20.9486 -0.0112,25.70408 l -0.786696,3.70409 7.679816,4.49559 7.67982,4.49559 4.18654,-3.43056 C 127.22774,161.11418 132.19605,159.5 144,159.5 c 9.32099,0 11.1477,0.30352 16.26825,2.70303 7.42951,3.48151 16.04721,12.09921 19.52872,19.52872 2.39951,5.12055 2.70303,6.94726 2.70303,16.26825 0,9.32099 -0.30352,11.1477 -2.70303,16.26825 -3.48151,7.42951 -12.09921,16.04721 -19.52872,19.52872 C 155.1477,236.19648 153.32099,236.5 144,236.5 c -9.32099,0 -11.1477,-0.30352 -16.26825,-2.70303 -7.42951,-3.48151 -16.04721,-12.09921 -19.52872,-19.52872 -2.40924,-5.1413 -2.70303,-6.93051 -2.70303,-16.46153 v -10.69327 l -7.130106,-4.05673 C 94.448342,180.82553 90.954485,179 90.60577,179 c -0.348714,0 -3.119482,2.02443 -6.157261,4.49874 -6.668724,5.43175 -11.717241,8.10009 -18.699183,9.88326 L 60.5,194.72266 l -0.286441,7.89101 -0.286441,7.89101 5.059455,1.79696 c 10.26222,3.64481 20.497638,14.67641 23.637089,25.47574 2.356734,8.10689 1.539638,20.01457 -1.886402,27.49087 -3.423901,7.47163 -11.980753,16.03385 -19.469012,19.48122 -7.716653,3.55253 -21.174284,4.22403 -28.968411,1.44545 z m 19.982282,-20.57176 c 11.7202,-5.01474 14.458907,-21.05067 5.091042,-29.80954 C 51.801181,224.99391 33,233.15637 33,249 c 0,10.19211 7.599283,17.86778 17.782119,17.96086 2.355165,0.0215 5.730165,-0.58044 7.5,-1.3377 z m 93.000001,-51 c 11.7202,-5.01474 14.45891,-21.05067 5.09104,-29.80954 C 144.80118,173.99391 126,182.15637 126,198 c 0,10.19211 7.59928,17.86778 17.78212,17.96086 2.35516,0.0215 5.73016,-0.58044 7.5,-1.3377 z M 62.563372,172.32371 c 6.608153,-2.25163 14.508711,-10.15219 16.760335,-16.76034 3.77625,-11.08268 1.314873,-22.05522 -6.75849,-30.12859 -11.442821,-11.44282 -28.687613,-11.44282 -40.130434,0 -8.073363,8.07337 -10.53474,19.04591 -6.75849,30.12859 2.154094,6.32192 10.184287,14.52361 16.350881,16.70007 5.943709,2.09781 14.482809,2.12286 20.536198,0.0603 z m 88.718748,-62.70055 c 11.7202,-5.01474 14.45891,-21.050661 5.09104,-29.809541 C 144.80118,68.993909 126,77.156369 126,92.999999 c 0,10.192111 7.59928,17.867781 17.78212,17.960861 2.35516,0.0215 5.73016,-0.58044 7.5,-1.3377 z M 58.282119,58.623159 c 11.7202,-5.01473 14.458907,-21.05066 5.091042,-29.80954 C 51.801181,17.993909 33,26.156369 33,41.999999 c 0,10.19211 7.599283,17.86778 17.782119,17.96086 2.355165,0.0215 5.730165,-0.58044 7.5,-1.3377 z M 735.82599,286.34717 C 733.1287,284.61402 731,281.13195 731,278.45295 c 0,-2.60338 3.45073,-1.4545 5.51323,1.83557 1.55918,2.48718 2.81707,3.27916 5.57738,3.51155 4.95871,0.41749 7.88266,-2.18191 8.61757,-7.66105 l 0.58219,-4.34053 -3.09553,1.60075 c -11.39965,5.89499 -21.98884,-5.38316 -16.77362,-17.86494 0.79018,-1.89116 2.7662,-4.09698 4.45034,-4.96788 3.87569,-2.0042 10.05178,-2.00885 12.90593,-0.01 2.01155,1.40894 2.22251,1.40894 2.22251,0 0,-0.89003 0.85651,-1.5567 2,-1.5567 1.91658,0 2,0.66667 2,15.98422 v 15.98423 l -2.83201,3.16957 c -2.39242,2.67758 -3.67302,3.22838 -8.25,3.54845 -3.92375,0.27439 -6.15546,-0.095 -8.092,-1.3393 z m 12.16233,-17.13663 c 1.49713,-1.2123 2.37838,-3.28425 2.73227,-6.42397 0.45364,-4.02467 0.18341,-4.97348 -2.05365,-7.21054 C 743.07367,249.98276 735,253.61215 735,261.71977 c 0,7.757 7.39359,12.02111 12.98832,7.49077 z M 780,268.5 c 0,-18.83333 0.0684,-19.5 2,-19.5 1.14349,0 2,0.66667 2,1.5567 0,1.40894 0.21096,1.40894 2.22251,0 2.7945,-1.95734 9.00669,-2.00666 12.6923,-0.10075 1.54853,0.80077 3.55118,3.00628 4.45035,4.90113 5.59471,11.78999 -5.33104,23.84889 -16.41482,18.11724 L 784,271.94864 v 8.02568 c 0,7.35901 -0.16613,8.02568 -2,8.02568 -1.93162,0 -2,-0.66667 -2,-19.5 z m 17.54545,0.0455 c 3.16408,-3.16407 3.34114,-9.14862 0.38197,-12.91059 -2.82841,-3.59574 -8.03105,-3.62214 -11.59436,-0.0588 -2.23706,2.23706 -2.50729,3.18587 -2.05365,7.21054 0.88747,7.87356 8.04446,10.98047 13.26604,5.75888 z m -521.95798,3.39721 c -6.25897,-5.49545 -5.84029,-16.98827 0.76562,-21.01632 3.80321,-2.31905 10.38258,-2.50022 13.4244,-0.36964 L 292,252.11341 V 241.0567 C 292,230.66667 292.12059,230 294,230 c 1.93939,0 2,0.66667 2,22 0,21.33333 -0.0606,22 -2,22 -1.1,0 -2,-0.46156 -2,-1.02568 0,-0.58793 -1.25919,-0.37453 -2.95034,0.5 -4.80886,2.48676 -9.49236,1.95389 -13.46219,-1.53166 z m 13.40085,-2.73212 c 1.49713,-1.2123 2.37838,-3.28425 2.73227,-6.42397 0.45364,-4.02467 0.18341,-4.97348 -2.05365,-7.21054 C 284.07367,249.98276 276,253.61215 276,261.71977 c 0,7.757 7.39359,12.02111 12.98832,7.49077 z m 29.28368,4.57878 c -2.74967,-1.32709 -3.99191,-4.72636 -2.14447,-5.86814 0.85312,-0.52726 2.09881,-0.11772 3.42146,1.12485 2.37584,2.23198 4.51499,2.48999 6.25101,0.75397 2.43373,-2.43373 1.23143,-4.65622 -4.05,-7.48653 -4.17337,-2.2365 -5.31617,-3.39067 -5.57266,-5.62811 -0.52293,-4.56164 2.19651,-7.68536 6.69073,-7.68536 3.3815,0 7.13193,2.22007 7.13193,4.22175 0,1.27334 -3.20393,1.66784 -4.90707,0.60421 -1.0054,-0.62788 -2.56261,-0.85971 -3.46046,-0.51517 -3.00228,1.15209 -1.73208,3.71758 2.80309,5.66159 5.92312,2.53894 8.14631,5.91972 6.67266,10.14702 -0.60465,1.7345 -1.88886,3.75289 -2.85379,4.48532 -2.09345,1.589 -6.88884,1.67769 -9.98243,0.1846 z m 75.478,-0.36129 C 392.15708,272.56385 391,272.37032 391,272.96806 391,273.53563 389.86622,274 388.4805,274 h -2.5195 l 0.2695,-21.75 c 0.2689,-21.70151 0.27452,-21.75071 2.5195,-22.06955 2.21766,-0.31496 2.25,-0.15965 2.25,10.8067 v 11.12626 l 2.22251,-1.55671 c 6.10071,-4.2731 15.71607,-0.21224 17.79715,7.5163 3.07555,11.42172 -7.38151,20.71943 -17.26966,15.35503 z m 10.79545,-4.88258 C 409.90874,263.18217 406.27651,253 399,253 c -1.94837,0 -3.99822,0.90731 -5.54545,2.45455 C 388.09126,260.81783 391.72349,271 399,271 c 1.94837,0 3.99822,-0.90731 5.54545,-2.45455 z M 421.5,273.84527 c -3.95763,-2.16466 -4.5,-3.91668 -4.5,-14.5364 0,-9.6422 0.12934,-10.30887 2,-10.30887 1.85732,0 2,0.66667 2,9.34501 C 421,268.40506 422.18055,271 426.75731,271 430.97414,271 432,268.5401 432,258.42857 432,249.0381 432.0101,249 434.5,249 c 2.46708,0 2.5,0.10995 2.5,8.35078 0,4.59292 -0.49879,9.7816 -1.10842,11.53038 -1.7961,5.15231 -9.30936,7.74387 -14.39158,4.96411 z m 43.72507,-0.84947 C 461.30252,270.60422 460,267.57272 460,260.8349 c 0,-4.39263 0.43372,-5.46862 3.4,-8.4349 2.77421,-2.77421 4.16377,-3.4 7.54966,-3.4 C 478.54462,249 483,253.08443 483,260.04705 V 263 h -9.5 c -5.225,0 -9.5,0.24735 -9.5,0.54966 0,1.57235 3.13953,6.2899 4.5448,6.82916 3.28962,1.26234 6.61336,0.55357 8.88167,-1.89398 1.46478,-1.58053 2.93343,-2.28396 3.95225,-1.89301 1.90811,0.73222 1.94327,0.93801 0.59164,3.46356 -2.58167,4.82388 -11.17981,6.33368 -16.74529,2.94041 z M 478.40691,257.75 c -2.80178,-4.92493 -8.01597,-6.31876 -11.57817,-3.09501 -3.60949,3.26654 -2.3113,4.34501 5.23028,4.34501 5.35981,0 6.88784,-0.30089 6.34789,-1.25 z m 16.68949,15.98526 c -8.16061,-4.1939 -8.87346,-18.48216 -1.14972,-23.04469 3.58241,-2.11618 9.90646,-2.18216 12.83081,-0.13387 L 509,252.11341 v -11.12626 c 0,-10.96635 0.0323,-11.12166 2.25,-10.8067 2.24498,0.31884 2.2506,0.36804 2.5195,22.06955 L 514.039,274 h -2.5195 C 510.13378,274 509,273.53844 509,272.97432 c 0,-0.58793 -1.25919,-0.37453 -2.95034,0.5 -3.55274,1.83719 -7.69416,1.93585 -10.95326,0.26094 z m 11.44905,-5.18981 c 3.16408,-3.16407 3.34114,-9.14862 0.38197,-12.91059 -2.78368,-3.53887 -8.03183,-3.62136 -11.47287,-0.18031 C 490.09126,260.81783 493.72349,271 501,271 c 1.94837,0 3.99822,-0.90731 5.54545,-2.45455 z m 32.10057,4.0023 c -3.05957,-2.83552 -3.30876,-4.07945 -0.99507,-4.9673 1.00608,-0.38607 2.3884,0.15804 3.53895,1.39301 2.2634,2.42948 5.08036,2.61075 6.87967,0.44272 1.68767,-2.03352 0.30452,-4.41277 -3.66181,-6.29897 C 539.65216,260.85567 538,258.89167 538,255.5 c 0,-4.07944 2.67147,-6.5 7.17375,-6.5 4.38374,0 7.71656,3.01622 5.42984,4.91403 -1.12657,0.93497 -1.87764,0.93177 -3.39276,-0.0144 -1.07025,-0.66838 -2.68051,-0.93334 -3.57836,-0.5888 -2.52875,0.97038 -1.9294,3.6047 1.11753,4.91189 6.38733,2.7403 8.25,4.72101 8.25,8.77283 0,7.29209 -8.80266,10.69703 -14.35398,5.55224 z m 58.57905,0.44805 C 593.30252,270.60422 592,267.57272 592,260.8349 c 0,-4.39263 0.43372,-5.46862 3.4,-8.4349 2.77421,-2.77421 4.16377,-3.4 7.54966,-3.4 C 610.54462,249 615,253.08443 615,260.04705 V 263 h -9.5 c -5.225,0 -9.5,0.24735 -9.5,0.54966 0,1.57235 3.13953,6.2899 4.5448,6.82916 3.28962,1.26234 6.61336,0.55357 8.88167,-1.89398 1.46478,-1.58053 2.93343,-2.28396 3.95225,-1.89301 1.90811,0.73222 1.94327,0.93801 0.59164,3.46356 -2.58167,4.82388 -11.17981,6.33368 -16.74529,2.94041 z M 610.40691,257.75 c -2.80178,-4.92493 -8.01597,-6.31876 -11.57817,-3.09501 -3.60949,3.26654 -2.3113,4.34501 5.23028,4.34501 5.35981,0 6.88784,-0.30089 6.34789,-1.25 z m 13.18056,14.19266 c -6.25897,-5.49545 -5.84029,-16.98827 0.76562,-21.01632 3.80321,-2.31905 10.38258,-2.50022 13.4244,-0.36964 2.01155,1.40894 2.22251,1.40894 2.22251,0 0,-0.89003 0.85651,-1.5567 2,-1.5567 1.89333,0 2,0.66667 2,12.5 0,11.83333 -0.10667,12.5 -2,12.5 -1.1,0 -2,-0.46156 -2,-1.02568 0,-0.58793 -1.25919,-0.37453 -2.95034,0.5 -4.80886,2.48676 -9.49236,1.95389 -13.46219,-1.53166 z m 13.40085,-2.73212 c 1.49713,-1.2123 2.37838,-3.28425 2.73227,-6.42397 0.45364,-4.02467 0.18341,-4.97348 -2.05365,-7.21054 C 632.07367,249.98276 624,253.61215 624,261.71977 c 0,7.757 7.39359,12.02111 12.98832,7.49077 z m 188.77425,4.22407 C 821.99955,271.39282 820,267.06068 820,260.94966 c 0,-4.52314 0.41365,-5.56331 3.4,-8.54966 2.83107,-2.83107 4.1325,-3.4 7.77749,-3.4 2.40763,0 5.33196,0.66853 6.49853,1.48563 1.87624,1.31417 2.18683,1.31417 2.69112,0 C 840.68069,249.66853 841.85135,249 842.96862,249 844.90212,249 845,249.60229 845,261.5 V 274 h -2.5 c -1.375,0 -2.5,-0.47552 -2.5,-1.0567 0,-0.5923 -0.97677,-0.37255 -2.22251,0.5 -2.77933,1.94672 -8.41863,1.94264 -12.01492,-0.009 z m 11.80472,-4.73883 C 843.34622,263.72495 839.91667,253 832.54819,253 c -6.51013,0 -10.25045,6.47617 -7.53147,13.04036 2.23931,5.40618 7.94835,6.61408 12.55057,2.65542 z M 891.5,274.04597 c -8.91771,-3.68861 -9.91443,-18.41637 -1.57955,-23.33991 3.57812,-2.11364 10.21859,-2.20264 14.11228,-0.18913 8.30586,4.29512 7.8985,18.91516 -0.63992,22.96691 -3.45286,1.63849 -8.69189,1.88612 -11.89281,0.56213 z m 11.57692,-5.96905 c 3.26705,-3.26704 3.71514,-6.64457 1.46007,-11.0054 C 902.87195,253.8517 901.21009,253 896.59253,253 c -7.51871,0 -11.09187,10.59324 -5.26404,15.60613 3.85704,3.31769 8.09231,3.12691 11.74843,-0.52921 z m -686.91025,4.95204 c 1.48767,-4.3338 17.46516,-39.9972 17.92528,-40.01109 0.43798,-0.0132 15.0821,33.11237 17.76703,40.18975 0.19744,0.52044 -0.86962,0.79913 -2.37125,0.61932 -2.24733,-0.26912 -3.10673,-1.25533 -4.85898,-5.57599 l -2.12875,-5.24904 -8.56599,-9.6e-4 -8.56598,-9.5e-4 -2.27963,5.5 c -1.89907,4.58186 -2.6949,5.5 -4.76734,5.5 -1.36825,0 -2.33773,-0.43697 -2.15439,-0.97104 z M 240.00765,258.25 c 0.0127,-1.24552 -5.46961,-14.24349 -6.00765,-14.24349 -0.53804,0 -6.02035,12.99797 -6.00765,14.24349 0.004,0.4125 2.70765,0.75 6.00765,0.75 3.3,0 6.00344,-0.3375 6.00765,-0.75 z M 304,261.5 c 0,-11.83333 0.10667,-12.5 2,-12.5 1.89333,0 2,0.66667 2,12.5 0,11.83333 -0.10667,12.5 -2,12.5 -1.89333,0 -2,-0.66667 -2,-12.5 z m 36,2 c 0,-8.66667 -0.2619,-10.5 -1.5,-10.5 -0.83333,0 -1.5,-0.88889 -1.5,-2 0,-1.11111 0.66667,-2 1.5,-2 1.11111,0 1.5,-1.16667 1.5,-4.5 0,-3.83333 0.2963,-4.5 2,-4.5 1.7037,0 2,0.66667 2,4.5 0,4.13333 0.2037,4.5 2.5,4.5 3.32314,0 3.54515,3.71246 0.25,4.18045 -2.14429,0.30454 -2.26339,0.8011 -2.53498,10.56955 -0.26207,9.42582 -0.44299,10.25 -2.25,10.25 C 340.13642,274 340,273.27102 340,263.5 Z m 15,-2 c 0,-11.83333 0.10667,-12.5 2,-12.5 1.1,0 2,0.46583 2,1.03518 0,0.71358 0.60093,0.71358 1.93426,0 2.25851,-1.20871 6.73814,-1.37427 7.41805,-0.27415 0.8688,1.40575 -1.82873,3.73897 -4.32278,3.73897 -3.55776,0 -4.9975,3.6605 -5.01479,12.75 -0.0135,7.07842 -0.18805,7.75 -2.01474,7.75 -1.89333,0 -2,-0.66667 -2,-12.5 z m 19,0 c 0,-11.83333 0.10667,-12.5 2,-12.5 1.89333,0 2,0.66667 2,12.5 0,11.83333 -0.10667,12.5 -2,12.5 -1.89333,0 -2,-0.66667 -2,-12.5 z m 72,2 c 0,-6.33333 -0.39683,-10.5 -1,-10.5 -0.55,0 -1,-0.9 -1,-2 0,-1.1 0.45,-2 1,-2 0.55,0 1,-2.025 1,-4.5 0,-4.13333 0.2037,-4.5 2.5,-4.5 2.2963,0 2.5,0.36667 2.5,4.5 0,3.83333 0.2963,4.5 2,4.5 1.33333,0 2,0.66667 2,2 0,1.33333 -0.66667,2 -2,2 -1.87302,0 -2,0.66667 -2,10.5 V 274 h -2.5 -2.5 z m 115,0.46862 c 0,-7.9943 -0.30461,-10.14828 -1.5,-10.60699 -0.825,-0.31659 -1.5,-1.42746 -1.5,-2.46862 0,-1.04115 0.675,-1.89301 1.5,-1.89301 1.11111,0 1.5,-1.16667 1.5,-4.5 0,-3.83333 0.2963,-4.5 2,-4.5 1.7037,0 2,0.66667 2,4.5 0,3.83333 0.2963,4.5 2,4.5 1.33333,0 2,0.66667 2,2 0,1.33333 -0.66667,2 -2,2 -1.87302,0 -2,0.66667 -2,10.5 0,9.83333 -0.12698,10.5 -2,10.5 -1.86708,0 -2,-0.66667 -2,-10.03138 z M 575,261.5 V 249 h 2.5 c 1.375,0 2.5,0.54 2.5,1.2 0,0.93333 0.26667,0.93333 1.2,0 0.66,-0.66 2.73314,-1.2 4.60699,-1.2 2.69588,0 3.2803,0.33015 2.8,1.58179 -0.33385,0.86998 -0.60699,1.76998 -0.60699,2 C 588,252.8118 586.66583,253 585.03518,253 580.93087,253 580,255.29877 580,265.43426 580,273.90438 579.9721,274 577.5,274 H 575 Z m 76,0 V 249 h 2.5 c 1.375,0 2.5,0.54 2.5,1.2 0,0.93333 0.26667,0.93333 1.2,0 1.6303,-1.6303 6.98632,-1.51547 9.33247,0.20009 1.64126,1.20011 2.20023,1.20011 3.91364,0 3.42069,-2.39595 9.10637,-1.78447 11.48131,1.23477 1.77865,2.26119 2.07258,4.0339 2.07258,12.5 0,9.19847 -0.13516,9.86514 -2,9.86514 -1.83197,0 -2,-0.66667 -2,-7.9349 C 680,255.7076 678.97623,253 675.05993,253 670.92813,253 670,255.28079 670,265.43426 670,273.90438 669.9721,274 667.5,274 665.02022,274 665,273.92788 665,265.08179 665,254.18923 664.5992,253 660.92819,253 656.94266,253 656,255.37842 656,265.43426 656,273.90438 655.9721,274 653.5,274 H 651 Z m 41,0 V 249 h 2.5 2.5 v 12.5 12.5 h -2.5 -2.5 z m 13,0 c 0,-11.65217 0.13,-12.5 1.91667,-12.5 1.05416,0 2.12291,0.5625 2.375,1.25 0.36666,1 0.72333,1 1.78333,0 2.01319,-1.89923 8.36954,-1.52012 11.06422,0.65991 2.16513,1.75162 2.38904,2.78757 2.7018,12.5 L 725.18205,274 H 722.59102 720 v -9.37756 c 0,-10.35909 -0.81519,-12.00557 -5.66636,-11.4447 -3.90544,0.45154 -5.30142,3.88244 -5.3189,13.07226 -0.0135,7.07842 -0.18805,7.75 -2.01474,7.75 -1.89333,0 -2,-0.66667 -2,-12.5 z M 810,252 c 0,-21.33333 0.0606,-22 2,-22 1.93939,0 2,0.66667 2,22 0,21.33333 -0.0606,22 -2,22 -1.93939,0 -2,-0.66667 -2,-22 z m 44,11.5 c 0,-6.33333 -0.39683,-10.5 -1,-10.5 -0.55,0 -1,-0.9 -1,-2 0,-1.1 0.45,-2 1,-2 0.55,0 1,-2.025 1,-4.5 0,-4.13333 0.2037,-4.5 2.5,-4.5 2.2963,0 2.5,0.36667 2.5,4.5 0,3.83333 0.2963,4.5 2,4.5 1.33333,0 2,0.66667 2,2 0,1.33333 -0.66667,2 -2,2 -1.87302,0 -2,0.66667 -2,10.5 V 274 h -2.5 -2.5 z m 17,0 c 0,-6.33333 -0.39683,-10.5 -1,-10.5 -0.55,0 -1,-0.9 -1,-2 0,-1.1 0.40235,-2 0.89411,-2 0.49177,0 1.05942,-3.64004 1.26146,-8.08899 C 871.56934,231.79964 872.81224,230 878.69113,230 c 2.60431,0 3.30887,0.41172 3.30887,1.93358 0,1.36598 -0.80725,2.02646 -2.75,2.25 -2.68644,0.30911 -2.75679,0.48398 -3.04381,7.56642 l -0.29381,7.25 h 3.04381 c 2.37714,0 3.04381,0.43805 3.04381,2 0,1.55556 -0.66667,2 -3,2 h -3 v 10.5 10.5 h -2.5 -2.5 z m 45,-2 c 0,-11.83333 0.10667,-12.5 2,-12.5 1.1,0 2,0.46583 2,1.03518 0,0.71358 0.60093,0.71358 1.93426,0 C 922.9981,249.46583 925.0561,249 926.50758,249 c 3.67836,0 3.0092,3.38059 -0.75521,3.81537 C 921.35711,253.32301 920,256.36809 920,265.72251 920,273.33333 919.83892,274 918,274 c -1.89333,0 -2,-0.66667 -2,-12.5 z m 19,0 c 0,-11.83333 0.10667,-12.5 2,-12.5 1.1,0 2,0.46583 2,1.03518 0,0.71358 0.60093,0.71358 1.93426,0 2.87956,-1.54109 7.16714,-1.25339 9.237,0.61981 1.70294,1.54113 1.9593,1.53683 3.72653,-0.0625 1.32995,-1.20359 3.20005,-1.62398 6.25,-1.40499 6.06982,0.43582 7.84853,4.07505 7.85066,16.06249 0.002,8.66708 -0.0221,8.75 -2.49845,8.75 -2.48894,0 -2.5,-0.0415 -2.5,-9.37756 0,-10.12968 -0.87386,-12.0649 -5.16993,-11.4492 -3.36469,0.48221 -4.79878,4.3767 -4.81533,13.07676 -0.0135,7.07842 -0.18805,7.75 -2.01474,7.75 -1.84434,0 -2,-0.66667 -2,-8.56574 C 949,255.75145 948.009,253 944.52152,253 940.49133,253 939,256.43628 939,265.72251 939,273.33333 938.83892,274 937,274 c -1.89333,0 -2,-0.66667 -2,-12.5 z M 303.38854,241.57014 c -0.99567,-2.59467 0.39988,-4.73919 2.85699,-4.39028 1.65273,0.23469 2.25447,0.98741 2.25447,2.82014 0,1.83273 -0.60174,2.58545 -2.25447,2.82014 -1.35228,0.19202 -2.49559,-0.3082 -2.85699,-1.25 z m 70,0 c -0.99567,-2.59467 0.39988,-4.73919 2.85699,-4.39028 1.65273,0.23469 2.25447,0.98741 2.25447,2.82014 0,1.83273 -0.60174,2.58545 -2.25447,2.82014 -1.35228,0.19202 -2.49559,-0.3082 -2.85699,-1.25 z m 318.6054,-0.0774 c -1.10651,-1.33326 -1.06338,-1.85183 0.26442,-3.17963 2.1445,-2.1445 4.97193,-0.95307 4.56178,1.92224 -0.39071,2.73897 -3.02665,3.42572 -4.8262,1.25739 z M 314.73447,215.91195 C 297.75245,211.91103 286,194.97347 286,174.5 c 0,-22.94066 14.0667,-40.27414 34.21035,-42.15518 8.02791,-0.74966 15.59503,1.29992 22.6067,6.12311 l 5.06508,3.48415 0.30893,-3.72604 L 348.5,134.5 l 9.25,-0.28753 9.25,-0.28752 V 174.5 215.07505 l -9.25,-0.28752 -9.25,-0.28753 -0.31336,-3.25 c -0.17235,-1.7875 -0.51374,-3.25 -0.75866,-3.25 -0.24491,0 -2.31504,1.35444 -4.60028,3.00986 -7.37345,5.3413 -18.20597,7.2315 -28.09323,4.90209 z m 19.36631,-17.05005 c 9.62263,-3.22178 15.24865,-12.21587 15.21012,-24.31582 -0.0261,-8.18502 -1.94295,-13.51431 -6.61158,-18.3814 -4.6923,-4.89177 -8.40668,-6.49249 -15.27741,-6.58386 -8.6327,-0.11479 -14.73278,3.71959 -18.90659,11.88428 -5.85841,11.46005 -3.13768,27.14474 5.90508,34.04198 5.71277,4.35735 12.98403,5.59684 19.68038,3.35482 z m 203.62248,16.7184 c -14.44844,-3.88591 -25.71588,-18.89158 -27.34469,-36.41687 -1.76578,-18.99909 7.07971,-36.348 22.33868,-43.81352 4.76709,-2.33232 7.00793,-2.79199 13.73943,-2.81838 9.31154,-0.0365 15.31198,1.88219 22.10687,7.06884 L 573,142.98679 v -4.53092 -4.53092 l 9.25,0.28752 9.25,0.28753 v 40 40 l -9.25,0.28753 -9.25,0.28752 v -4.04774 -4.04774 l -5.37958,3.57184 c -9.36939,6.22093 -19.27184,7.88658 -29.89716,5.02889 z M 558.5,198.88996 c 9.49017,-2.60716 16.40311,-14.97534 15.13759,-27.08317 -0.98132,-9.38876 -5.21636,-16.52867 -11.79582,-19.88671 -8.48951,-4.33289 -17.20674,-3.28803 -24.05866,2.88373 -5.7446,5.17435 -8.00533,10.78128 -8.00533,19.85434 0,17.96687 12.65718,28.64523 28.72222,24.23181 z M 216,145.53753 V 75.999999 h 9.5 9.5 v 41.735571 41.73557 L 247.7639,146.73557 260.52781,134 h 12.23609 c 6.72986,0 12.2361,0.24698 12.2361,0.54885 0,0.30187 -7.65585,8.06437 -17.01301,17.25 L 250.97398,168.5 l 18.58683,23 18.58683,23 -11.26268,0.28452 c -6.19447,0.15648 -11.80132,0.0778 -12.45966,-0.17481 -0.65835,-0.25263 -7.05671,-7.90196 -14.21859,-16.9985 -9.94476,-12.63118 -13.27337,-16.23581 -14.08714,-15.25528 -0.62332,0.75106 -1.1805,7.6876 -1.34255,16.71398 L 234.5,214.5 l -9.25,0.28753 -9.25,0.28752 z m 171.66667,68.7958 C 387.3,213.96667 387,199.79167 387,182.83333 V 152 h -3 -3 v -9 -9 h 3 3 l 0.0198,-15.75 c 0.0354,-28.188681 2.46675,-36.026371 12.85982,-41.455781 4.41955,-2.30879 6.60594,-2.79422 12.58535,-2.79422 3.98012,0 8.65373,0.49402 10.38581,1.09783 L 426,76.195649 v 9.81143 9.81142 l -3.95169,-1.90925 c -4.00254,-1.93381 -9.63698,-2.48713 -11.64861,-1.14394 -3.001,2.00383 -3.74939,6.18517 -4.20333,23.484601 L 405.73061,134 H 415.86531 426 v 9 9 h -10 -10 v 31.5 31.5 h -8.83333 c -4.85834,0 -9.13334,-0.3 -9.5,-0.66667 z M 440,145.5 V 75.999999 h 9.5 9.5 v 41.735571 41.73557 L 471.7639,146.73557 484.52781,134 h 12.23609 c 6.72986,0 12.2361,0.36198 12.2361,0.80439 0,0.44242 -7.64758,8.12554 -16.99463,17.07361 l -16.99463,16.26922 18.49463,22.88606 C 503.67742,203.62062 512,214.16249 512,214.45967 512,214.75685 506.6145,215 500.03222,215 H 488.06444 L 474.81288,198.05959 C 464.65269,185.0711 461.26256,181.36713 460.28066,182.18204 459.33818,182.96423 459,187.43762 459,199.12244 V 215 h -9.5 -9.5 z m 165.31471,68.03634 C 601.98954,212.09013 599,207.58369 599,204.01754 c 0,-10.15629 11.91142,-15.46282 19.31253,-8.6037 5.62946,5.21721 4.08319,15.26939 -2.79059,18.14144 -4.23487,1.76944 -6.10331,1.76598 -10.20723,-0.0189 z m 10.33986,-2.46735 c 3.77801,-2.30368 5.10824,-6.8132 3.29854,-11.1822 C 617.72219,196.9151 613.53628,194 610.5,194 c -3.03628,0 -7.22219,2.9151 -8.45311,5.88679 -3.69049,8.90965 5.26524,16.26908 13.60768,11.1822 z M 607,203.5 c 0,-6.91465 0.78147,-7.75769 5.06574,-5.46482 2.28891,1.22499 2.5689,4.78405 0.44061,5.60076 -1.26155,0.4841 -1.17328,1.02308 0.5681,3.46861 2.4376,3.4233 0.64058,3.96762 -2.13089,0.64545 l -1.87702,-2.25 -0.0333,2.25 C 609.01494,208.9875 608.55,210 608,210 c -0.5641,0 -1,-2.83333 -1,-6.5 z m 4.5,-2.5 c 0,-0.73333 -0.5625,-1.52083 -1.25,-1.75 -0.74359,-0.24786 -1.25,0.46111 -1.25,1.75 0,1.28889 0.50641,1.99786 1.25,1.75 0.6875,-0.22917 1.25,-1.01667 1.25,-1.75 z M 249,100.62499 c 0,-1.848931 11.26538,-23.728951 11.86094,-23.036731 1.66793,1.93867 10.43464,22.449491 9.84665,23.037481 -1.14927,1.14928 -3.72963,-0.5535 -4.69785,-3.100111 -0.84666,-2.2269 -1.54021,-2.52563 -5.86367,-2.52563 -4.50545,0 -5.00429,0.24349 -6.14607,3 C 253.2429,99.827789 252.02329,101 250.87868,101 249.84541,101 249,100.83125 249,100.62499 Z m 13.96456,-9.874991 c -0.0603,-2.12784 -2.64489,-6.07625 -3.29202,-5.02917 -0.33687,0.54506 -1.06486,2.18085 -1.61776,3.6351 -0.94729,2.49156 -0.83366,2.64407 1.96997,2.64407 1.73243,0 2.96045,-0.52215 2.93981,-1.25 z M 275,89.499999 v -11.5 l 4.25,0.0153 c 4.86474,0.0175 5.96651,0.56603 7.68404,3.82542 1.74602,3.31346 -0.28901,7.98928 -3.81063,8.75551 -4.97909,1.08336 -5.12341,1.24877 -5.12341,5.87238 0,3.36123 -0.38735,4.531381 -1.5,4.531381 -1.24638,0 -1.5,-1.944441 -1.5,-11.500001 z m 7.8,-2.7 c 1.69411,-1.69411 1.48967,-4.47486 -0.38179,-5.19301 C 278.99898,80.294909 278,80.949029 278,84.499999 c 0,2.70371 0.40952,3.5 1.8,3.5 0.99,0 2.34,-0.54 3,-1.2 z M 286.98286,100.25 c -0.0294,-1.285741 10.29022,-23.250001 10.92369,-23.250001 0.52875,0 9.70253,19.94124 10.34462,22.48631 0.13686,0.542461 -0.54983,1.140111 -1.52596,1.328091 -1.23305,0.23747 -2.10234,-0.59778 -2.84783,-2.736301 -1.00047,-2.86996 -1.40277,-3.0781 -5.94952,-3.0781 -4.40692,0 -5.02589,0.28889 -6.42786,3 -1.37973,2.668101 -4.47238,4.208561 -4.51714,2.250001 z M 301,91.450339 c 0,-0.30231 -0.72644,-1.95445 -1.61432,-3.67141 -1.68942,-3.26698 -2.33049,-2.93724 -3.8321,1.97107 -0.61001,1.99393 -0.33925,2.25 2.37903,2.25 1.68707,0 3.06739,-0.24735 3.06739,-0.54966 z m 15.0964,8.28492 c -8.43608,-4.33547 -8.43463,-16.92339 0.002,-21.28637 5.24576,-2.71246 11.9016,-1.24637 11.9016,2.62148 0,1.66746 -0.32161,1.82788 -1.93426,0.96482 -3.0101,-1.61096 -7.61204,-1.22316 -10.18223,0.85805 -1.76301,1.42761 -2.33806,2.90206 -2.33806,5.99495 0,6.79107 4.45636,9.71117 11.70455,7.66958 2.1629,-0.60922 2.75,-0.43872 2.75,0.79864 0,3.345081 -7.21705,4.787361 -11.9036,2.37885 z m 16.57027,0.598071 C 332.3,99.966669 332,94.791669 332,88.833329 c 0,-10.16666 0.12308,-10.83333 2,-10.83333 1.66667,0 2,0.66667 2,4 v 4 h 5 5 v -4 c 0,-2.88889 0.41667,-4 1.5,-4 1.24638,0 1.5,1.94445 1.5,11.5 C 349,99.055559 348.74638,101 347.5,101 346.34848,101 346,99.722219 346,95.499999 v -5.5 h -5 -5 v 5.5 C 336,99.416669 335.61616,101 334.66667,101 c -0.73334,0 -1.63334,-0.3 -2,-0.66667 z m 22,0 C 354.3,99.966669 354,94.791669 354,88.833329 v -10.83333 h 6.5 c 5.11111,0 6.5,0.32051 6.5,1.5 0,1.11111 -1.16667,1.5 -4.5,1.5 -4.13333,0 -4.5,0.20371 -4.5,2.5 0,2.2963 0.36667,2.5 4.5,2.5 3.83333,0 4.5,0.2963 4.5,2 0,1.70371 -0.66667,2 -4.5,2 -4.47619,0 -4.5,0.0185 -4.5,3.5 0,3.48148 0.0238,3.5 4.5,3.5 3.83333,0 4.5,0.2963 4.5,2 C 367,100.77143 366.33333,101 361.16667,101 c -3.20834,0 -6.13334,-0.3 -6.5,-0.66667 z"
       style="fill:#000000" />
    <path
       inkscape:connector-curvature="0"
       id="path900"
       d="m 43.660714,57.979541 c -5.872025,-2.6319 -10.211846,-9.481216 -10.248248,-16.174282 -0.0654,-12.025461 14.155055,-21.141303 24.601355,-15.770384 7.063287,3.631557 10.200465,8.661055 10.200465,16.353304 0,9.952892 -7.082716,16.901379 -17.151931,16.826873 -2.597688,-0.01922 -5.928426,-0.575201 -7.401641,-1.235511 z"
       style="fill:#ffffff;stroke:#ffffff;stroke-width:0.89285713;stroke-opacity:1" />
    <path
       inkscape:connector-curvature="0"
       id="path902"
       d="m 44.553571,172.59019 c -7.587953,-1.82615 -17.037768,-11.57354 -19.274996,-19.88197 -3.36549,-12.49847 3.475462,-26.76196 15.726854,-32.79072 6.492335,-3.19479 16.912131,-3.10569 23.191,0.19832 5.705835,3.00248 10.715606,8.02367 13.656625,13.68775 3.143072,6.05322 3.360335,16.66337 0.469806,22.94318 -2.492303,5.41464 -9.077381,11.96894 -14.383157,14.31594 -4.755415,2.10355 -13.974309,2.82994 -19.386132,1.5275 z"
       style="fill:#ffffff;stroke:#ffffff;stroke-width:0.89285713;stroke-opacity:1" />
    <path
       inkscape:connector-curvature="0"
       id="path904"
       d="m 43.660714,264.90926 c -8.702341,-4.58776 -12.41843,-13.96243 -8.885957,-22.41682 4.341039,-10.38957 17.046884,-14.20612 26.193073,-7.86781 10.460014,7.2488 9.365093,24.41854 -1.905099,29.87434 -4.670508,2.26096 -11.544221,2.44406 -15.402017,0.41029 z"
       style="fill:#ffffff;stroke:#ffffff;stroke-width:0.89285713;stroke-opacity:1" />
    <path
       inkscape:connector-curvature="0"
       id="path906"
       d="m 136.48092,213.87129 c -10.33343,-4.83576 -13.36052,-18.28561 -6.06644,-26.95414 6.31103,-7.50023 18.22473,-8.3791 25.61803,-1.88984 5.24693,4.60535 6.81651,14.55947 3.36312,21.32867 -3.99348,7.82786 -14.7255,11.34763 -22.91471,7.51531 z"
       style="fill:#ffffff;stroke:#ffffff;stroke-width:0.89285713;stroke-opacity:1" />
    <path
       inkscape:connector-curvature="0"
       id="path908"
       d="m 136.50126,108.8986 c -6.12136,-2.66725 -11.01454,-11.563424 -9.9542,-18.097516 2.29523,-14.143866 18.19159,-20.140363 28.76972,-10.852644 3.60541,3.165593 4.85376,5.217845 5.84362,9.606763 1.59898,7.089652 -3.14569,16.665967 -9.59173,19.359287 -3.68506,1.53972 -11.51623,1.53146 -15.06741,-0.0159 z"
       style="fill:#ffffff;stroke:#ffffff;stroke-width:0.89285713;stroke-opacity:1" />
  </g>
</svg>
