<?xml version="1.0" encoding="UTF-8" standalone="no"?>
<svg
   xmlns:dc="http://purl.org/dc/elements/1.1/"
   xmlns:cc="http://creativecommons.org/ns#"
   xmlns:rdf="http://www.w3.org/1999/02/22-rdf-syntax-ns#"
   xmlns:svg="http://www.w3.org/2000/svg"
   xmlns="http://www.w3.org/2000/svg"
   version="1.1"
   id="svg2"
   width="2292.8"
   height="573.76001"
   viewBox="0 0 2292.8 573.76001">
  <metadata
     id="metadata8">
    <rdf:RDF>
      <cc:Work
         rdf:about="">
        <dc:format>image/svg+xml</dc:format>
        <dc:type
           rdf:resource="http://purl.org/dc/dcmitype/StillImage" />
        <dc:title></dc:title>
      </cc:Work>
    </rdf:RDF>
  </metadata>
  <defs
     id="defs6" />
  <g
     id="layer1"
     style="display:inline">
    <path
       id="path924"
       style="display:inline;fill:#287dbd;fill-opacity:1;stroke-width:0.32"
       d="m 372.06055,0 0.006,11.9375 c 0.004,6.56531 0.21665,47.721031 0.47265,91.45703 0.256,43.736 0.46866,82.14738 0.47266,85.35938 l 0.008,5.83984 H 259.09961 c -108.41451,0 -113.91992,-0.0279 -113.91992,-0.5625 0,-0.30895 0.72116,-3.2876 1.60351,-6.62109 13.22344,-49.95742 36.36224,-95.399367 70.0625,-137.589848 6.52835,-8.173059 11.3847,-13.800823 19.00391,-22.027343 1.91534,-2.068 3.33696,-3.759766 3.16016,-3.759766 -0.17679,0 -2.17252,0.701904 -4.43555,1.558594 -65.67624,24.86218 -121.97805,65.179972 -163.445314,117.044923 -6.69762,8.377 -10.651827,13.8104 -17.316406,23.79687 -28.185096,42.23364 -45.4670888,88.31362 -51.4882812,137.28125 -5.284556,42.97689 -1.53757416,86.40749 11.0273432,127.83985 15.07511,49.70963 43.256059,96.67722 81.074219,135.11914 l 6.374999,6.48047 h 71.33789 71.33789 l -4.46289,-4.72071 c -42.88663,-45.35475 -73.61385,-98.11636 -89.79687,-154.18945 -1.75033,-6.06476 -4.03711,-14.82993 -4.03711,-15.47461 0,-0.23443 34.51017,-0.33594 113.91992,-0.33594 h 113.91992 v 87.35938 87.36133 h 65.91992 65.91993 V 294.83008 16.507812 l -7.11915,-1.992187 C 475.02513,8.1642253 452.84677,3.9341597 427.41992,1.0996094 419.70741,0.23982937 419.19394,0.22381125 395.82031,0.11328125 Z m 433.90234,23.394531 0.11523,169.039059 c 0.0829,122.61218 0.21571,170.62279 0.48243,174.80079 1.10044,17.23708 2.2438,29.45989 3.77148,40.31445 16.40474,116.56061 82.39428,162.01289 240.12697,165.39648 2.2,0.0472 53.6804,0.064 114.4004,0.0371 112.3821,-0.0495 112.7086,-0.0516 132.7988,-1.27734 32.3287,-1.97252 60.1951,-6.08592 83.5391,-12.33203 45.7355,-12.23741 77.8262,-33.33709 98.5273,-64.7793 16.4,-24.90954 26.3323,-56.04629 31.0606,-97.37109 0.7695,-6.72509 1.7038,-17.97387 2.4511,-29.50782 0.2878,-4.44224 0.4103,-48.1569 0.4903,-175.12109 l 0.1074,-169.199219 h -75.041 -75.043 l -0.1074,164.558589 c -0.081,122.76324 -0.2054,165.6581 -0.4864,168.88086 -1.1358,13.02752 -2.4716,22.14881 -4.3867,29.95508 -8.4028,34.25085 -28.4148,49.82527 -70.8672,55.15039 -18.8321,2.36224 -28.5006,2.55755 -126.8828,2.56055 -92.4854,0.002 -104.265,-0.20101 -121.1211,-2.08594 -37.2561,-4.16614 -58.66526,-16.27832 -70.06246,-39.63867 -6.1429,-12.59063 -9.22386,-26.19508 -11.27344,-49.78125 -0.27917,-3.21248 -0.40393,-46.01757 -0.48633,-166.96094 L 957.96484,23.394531 h -76 z m 1102.04491,0.03906 c -54.2087,0.0016 -99.3127,0.08218 -105.8711,0.267578 -73.2069,2.06951 -120.6044,12.167029 -155.1074,33.042969 -26.0517,15.76212 -44.3457,38.547363 -55.4805,69.097662 -9.1069,24.9864 -13.7923,54.44463 -15.0078,94.35156 -0.4099,13.52398 -0.4117,146.82371 0,158.40039 2.0643,58.0607 15.0332,99.08138 41.2305,130.40039 5.9481,7.11097 16.5746,16.85994 25.0078,22.94336 35.6822,25.74014 86.4487,38.92174 157.916,41.00195 v 0 c 1.5897,0.0461 97.3805,0.11224 212.877,0.14844 l 210,0.0664 v -57.27344 -57.27344 l -211.7598,-0.10547 c -219.1125,-0.10941 -214.2535,-0.0819 -226.3203,-1.37109 -32.7761,-3.50192 -47.7606,-14.25239 -54.2227,-38.90234 -1.2455,-4.75111 -2.1721,-10.07819 -2.9492,-16.96875 -0.4069,-3.60825 -0.5476,-9.13473 -0.6601,-25.94532 l -0.1426,-21.35937 h 282.1074 282.1074 V 254.0332 c 0,-97.82403 -0.014,-100.0367 -0.6406,-105.51562 -3.1911,-27.91773 -11.7724,-50.202071 -26.3672,-68.472658 -3.8211,-4.78355 -11.5287,-12.578773 -16.1933,-16.376953 -20.955,-17.06272 -48.4742,-28.37631 -84.3184,-34.66211 -13.2635,-2.32594 -24.4435,-3.560366 -45.6016,-5.035156 -4.6228,-0.322225 -120.2595,-0.539852 -210.6074,-0.537109 z m 1.4902,116.488289 c 15.6987,0.007 33.5108,0.0232 53.7618,0.043 132.2114,0.12918 130.669,0.11313 140.4785,1.36719 22.2276,2.84158 33.0019,11.52034 36.3183,29.25391 1.1714,6.26413 1.2793,10.20346 1.2793,48.56836 v 0 37.51953 H 1934.459 1727.5781 V 235.7891 c 0,-25.45939 0.4135,-33.06738 2.4199,-44.6914 5.106,-29.58144 18.546,-43.10843 47.8594,-48.16797 15.3586,-2.65093 21.7501,-3.05456 131.6406,-3.00781 z" />
    <path
       id="path927"
       style="display:inline;fill:#a585b9;fill-opacity:1;stroke-width:0.32"
       d="m 545.3418,32.353516 c -0.0895,0 -0.16211,65.377246 -0.16211,145.281254 v 145.27929 h 0.97265 c 1.67895,0 5.75749,0.95177 9.7461,2.27539 27.35312,9.07696 50.16015,44.66487 58.21679,90.84375 10.07719,57.76022 -3.9512,119.92822 -33.99609,150.65625 -1.8809,1.92365 -4.20887,4.16453 -5.17383,4.98047 l -1.75586,1.48438 39.35547,-0.01 39.35352,-0.01 3.22851,-3.58985 c 35.07143,-39.00358 59.56855,-82.4109 74.35547,-131.75195 22.41321,-74.78852 17.66401,-157.10459 -13.22265,-229.18945 -11.48067,-26.79416 -26.5258,-52.20579 -44.84961,-75.75391 -16.71504,-21.48067 -38.16785,-42.882579 -60.18555,-60.042969 -13.6799,-10.66197 -29.4788,-21.105305 -45.08594,-29.802735 -5.04006,-2.80868 -20.35201,-10.65039 -20.79687,-10.65039 z m 38.73242,114.294924 c 8.9076,-0.17548 17.92123,4.65425 23.2539,14.5625 l 1.34766,2.5039 -2.22851,-2.24218 c -2.59146,-2.60686 -5.28493,-4.15256 -8.38086,-4.8086 -3.07888,-0.65243 -3.14661,-0.62202 -1.86524,0.875 1.19101,1.39142 2.09766,3.78461 2.09766,5.53516 0,1.82248 -0.95761,4.31466 -2.17774,5.66797 -4.60301,5.1054 -12.22355,1.76669 -12.34765,-5.41016 l -0.0352,-1.98242 -0.87109,0.83398 c -1.23408,1.18017 -3.34751,5.39484 -3.91602,7.80664 -0.70666,2.99776 -0.63363,7.62463 0.16797,10.5293 2.98836,10.82871 13.95971,16.16719 23.15625,11.26758 2.08688,-1.11182 5.53232,-4.53649 6.83399,-6.79297 1.21734,-2.1103 1.28543,-1.82301 0.27148,1.1582 -3.17866,9.3456 -9.80915,16.07289 -18.26563,18.53125 -5.37978,1.56395 -11.99434,0.97191 -16.95898,-1.51562 -7.19799,-3.60654 -12.17351,-9.77412 -14.78711,-18.33399 -0.82062,-2.68767 -0.878,-3.26527 -0.875,-8.64062 0.004,-6.7905 0.4491,-8.90831 2.96094,-14.08008 4.9103,-10.11003 13.71153,-15.28937 22.61914,-15.46484 z" />
  </g>
</svg>
