<?xml version="1.0" encoding="UTF-8" standalone="no"?>
<svg
   xmlns:dc="http://purl.org/dc/elements/1.1/"
   xmlns:cc="http://creativecommons.org/ns#"
   xmlns:rdf="http://www.w3.org/1999/02/22-rdf-syntax-ns#"
   xmlns:svg="http://www.w3.org/2000/svg"
   xmlns="http://www.w3.org/2000/svg"
   xmlns:sodipodi="http://sodipodi.sourceforge.net/DTD/sodipodi-0.dtd"
   xmlns:inkscape="http://www.inkscape.org/namespaces/inkscape"
   width="145.41"
   height="72.169998"
   viewBox="0 0 145.41 72.169998"
   version="1.1"
   xml:space="preserve"
   style="clip-rule:evenodd;fill-rule:evenodd;stroke-linejoin:round;stroke-miterlimit:2"
   id="svg34"
   sodipodi:docname="superset.svg"
   inkscape:version="1.0.1 (3bc2e813f5, 2020-09-07)"><metadata
   id="metadata40"><rdf:RDF><cc:Work
       rdf:about=""><dc:format>image/svg+xml</dc:format><dc:type
         rdf:resource="http://purl.org/dc/dcmitype/StillImage" /></cc:Work></rdf:RDF></metadata><defs
   id="defs38" /><sodipodi:namedview
   pagecolor="#ffffff"
   bordercolor="#666666"
   borderopacity="1"
   objecttolerance="10"
   gridtolerance="10"
   guidetolerance="10"
   inkscape:pageopacity="0"
   inkscape:pageshadow="2"
   inkscape:window-width="2236"
   inkscape:window-height="1288"
   id="namedview36"
   showgrid="false"
   inkscape:zoom="4.990099"
   inkscape:cx="71.48"
   inkscape:cy="63.17"
   inkscape:window-x="2172"
   inkscape:window-y="102"
   inkscape:window-maximized="0"
   inkscape:current-layer="svg34" />
    <path
   d="m 108.04,0 c -12.46,0 -24,7 -35,19.25 C 62.1,6.81 50.42,0 37.37,0 15.77,0 0,15.36 0,36.17 c 0,20.81 15.77,36 37.37,36 13.24,0 23.56,-6.23 35,-18.67 11.11,12.41 22.43,18.67 35.67,18.67 21.61,0 37.37,-15.17 37.37,-36 C 145.41,15.34 129.65,0 108.04,0 Z M 37.48,50.36 c -9.15,0 -14.6,-6 -14.6,-14 0,-8 5.49,-14.19 14.6,-14.19 7.78,0 14,6.22 20.82,14.58 -6.38,7.78 -13.19,13.61 -20.82,13.61 z m 69.88,0 c -7.59,0 -14,-6 -20.83,-14 7,-8.36 13,-14.19 20.83,-14.19 9.15,0 14.6,6.22 14.6,14.19 0,7.97 -5.41,14 -14.56,14 z"
   style="fill:#484848;fill-rule:nonzero"
   id="path2" />
    <path
   d="M 88.69,67.05 103.22,49.74 C 97.38,48.02 92.09,42.81 86.57,36.36 L 72.41,53.47 c 4.625,5.409 10.129,10.001 16.28,13.58 z"
   style="fill:#20a7c9;fill-rule:nonzero"
   id="path4" />
    <path
   d="M 73,19.25 C 68.395,13.799 62.93,9.137 56.82,5.45 L 42.28,22.98 c 5.53,1.88 10.43,6.9 15.63,13.24 l 0.57,0.4 c 0,0 14.7,-17.57 14.52,-17.37 z"
   style="fill:#20a7c9;fill-rule:nonzero"
   id="path6" />
    
    
</svg>
