<?xml version="1.0" standalone="no"?>
<!DOCTYPE svg PUBLIC "-//W3C//DTD SVG 20010904//EN"
 "http://www.w3.org/TR/2001/REC-SVG-20010904/DTD/svg10.dtd">
<svg version="1.0" xmlns="http://www.w3.org/2000/svg"
 width="700.000000pt" height="700.000000pt" viewBox="0 0 700.000000 700.000000"
 preserveAspectRatio="xMidYMid meet">
<metadata>
Created by potrace 1.11, written by Peter Selinger 2001-2013
</metadata>
<g transform="translate(0.000000,700.000000) scale(0.100000,-0.100000)"
fill="#000000" stroke="none">
<path d="M4025 5895 c-44 -24 -76 -56 -91 -92 -12 -27 -14 -320 -14 -1768 0
-1722 0 -1736 20 -1775 22 -44 77 -84 127 -95 46 -9 133 18 165 52 58 60 58
62 58 555 0 609 11 691 110 893 204 415 655 632 1117 539 353 -71 656 -354
758 -706 35 -121 37 -169 44 -829 l6 -666 29 -37 c16 -22 49 -47 74 -58 86
-38 190 1 232 86 19 41 20 59 20 677 0 687 -4 748 -55 924 -195 671 -864 1093
-1547 976 -272 -47 -518 -170 -719 -359 l-79 -74 0 813 c0 773 -1 816 -19 855
-28 62 -80 97 -149 101 -39 3 -66 -1 -87 -12z"/>
<path d="M3580 5882 c-19 -10 -48 -36 -65 -56 l-30 -38 -5 -1361 -5 -1362 -28
-100 c-67 -246 -214 -452 -422 -592 -189 -127 -431 -188 -655 -163 -172 19
-347 82 -480 173 -68 47 -197 175 -246 243 -289 404 -239 963 116 1314 213
210 507 311 814 280 97 -10 131 -10 160 0 144 47 169 242 41 326 -37 24 -169
43 -302 44 -367 1 -718 -143 -973 -400 -204 -205 -330 -441 -386 -725 -25
-122 -25 -375 -1 -498 112 -566 537 -991 1104 -1104 133 -26 385 -23 523 6
458 97 828 407 1004 841 15 35 42 121 61 191 l35 126 0 1369 c0 1534 6 1405
-73 1468 -49 39 -134 47 -187 18z"/>
<path d="M2294 5179 c-135 -12 -323 -53 -459 -99 -674 -231 -1161 -803 -1290
-1515 -23 -124 -31 -422 -15 -549 54 -443 245 -840 554 -1150 297 -298 631
-472 1061 -553 112 -21 420 -29 542 -14 104 13 286 51 368 77 215 68 560 259
648 359 82 92 51 234 -62 281 -71 30 -127 15 -231 -62 -240 -177 -517 -279
-823 -304 -374 -30 -755 78 -1056 300 -270 199 -468 467 -570 775 -104 313
-114 601 -32 922 110 430 419 809 826 1013 139 69 259 110 417 142 92 18 147
22 293 22 195 0 293 -13 452 -61 113 -33 177 -35 225 -5 55 34 83 86 83 152
-1 106 -52 153 -216 199 -249 69 -476 91 -715 70z"/>
<path d="M2300 4031 c-287 -63 -524 -279 -609 -555 -130 -420 105 -875 521
-1010 300 -97 623 -16 840 211 424 446 221 1175 -374 1343 -106 31 -269 35
-378 11z m263 -356 c87 -18 156 -56 221 -121 223 -223 156 -591 -132 -727 -64
-30 -73 -32 -187 -32 -116 0 -122 1 -190 34 -92 45 -171 124 -216 216 -33 68
-34 74 -34 191 0 119 0 121 38 196 61 125 173 214 307 244 74 17 112 16 193
-1z"/>
</g>
</svg>
