<svg width="422" height="87" viewBox="0 0 422 87" fill="none" xmlns="http://www.w3.org/2000/svg">
<path d="M68.8851 0.42C67.256 0.442595 65.956 1.7857 65.985 3.41459V58.8724C65.8382 60.5904 67.1922 62.0666 68.9166 62.0666C70.641 62.0666 72.1147 60.5905 71.9671 58.8724V45.8042L72.038 44.7716C72.038 35.4983 79.4715 28.0334 88.7448 28.0334C98.0181 28.0334 105.483 35.4983 105.483 44.7716C105.485 44.8023 105.485 44.8329 105.487 44.8636C105.483 44.9378 105.482 45.0121 105.483 45.0861V63.5791C105.483 65.2068 106.802 66.5264 108.43 66.5264C110.058 66.5264 111.378 65.2068 111.378 63.5791V45.0861C111.378 45.0313 111.376 44.9764 111.372 44.9226C111.375 44.8726 111.377 44.821 111.378 44.771C111.378 32.3176 101.198 22.1697 88.7448 22.1696C82.0339 22.1697 75.9936 25.1177 71.8489 29.7842V3.41404C71.8779 1.7605 70.5387 0.408105 68.8851 0.42Z" fill="#A586F3"/>
<path d="M60.4873 0.57783C60.481 0.577914 60.4744 0.57783 60.468 0.57783C58.8389 0.600996 57.5389 1.9435 57.5679 3.57242V44.7721C57.5679 51.8218 53.1942 58.0982 46.5668 60.5015C39.9393 62.9049 32.519 60.9007 28.0003 55.4895C23.4816 50.0784 22.8461 42.4483 26.3927 36.3557C29.9392 30.263 36.8876 27.0605 43.8243 28.3175C45.4244 28.61 46.9591 27.5518 47.2547 25.9524C47.5502 24.3529 46.495 22.8161 44.8961 22.5175C35.5428 20.8225 26.0996 25.1774 21.3176 33.3926C16.5356 41.6078 17.3998 51.976 23.4926 59.2722C29.5855 66.5684 39.6164 69.2585 48.5526 66.0179C56.0787 63.2887 61.5025 56.8289 63.0272 49.1799C63.0272 49.1799 63.3602 48.3782 63.4626 47.6406C63.5649 46.9029 63.4626 44.7721 63.4626 44.7721V3.57275C63.4923 1.91427 62.146 0.559034 60.4873 0.57783Z" fill="#5ED3EE"/>
<path fill-rule="evenodd" clip-rule="evenodd" d="M40.8529 36.9649C36.7278 36.9649 33.3836 40.3091 33.3836 44.4342C33.3836 48.5594 36.7278 51.9035 40.8529 51.9035C44.9781 51.9035 48.3223 48.5594 48.3223 44.4342C48.3223 40.3091 44.9781 36.9649 40.8529 36.9649ZM27.4995 44.4342C27.4995 37.0593 33.4781 31.0808 40.8529 31.0808C48.2278 31.0808 54.2064 37.0593 54.2064 44.4342C54.2064 51.8091 48.2278 57.7876 40.8529 57.7876C33.4781 57.7876 27.4995 51.8091 27.4995 44.4342Z" fill="#A7D53A"/>
<path fill-rule="evenodd" clip-rule="evenodd" d="M49.5346 19.6606C43.7588 17.6368 37.4574 17.6945 31.7197 19.8238C25.9819 21.9532 21.1684 26.0203 18.1113 31.3222C15.0541 36.624 13.9455 42.8274 14.977 48.86C16.0085 54.8926 19.1153 60.3752 23.7603 64.3601C28.4053 68.345 34.2967 70.5818 40.416 70.6838C46.5352 70.7858 52.4978 68.7465 57.273 64.9185C58.5408 63.9023 60.3924 64.1061 61.4087 65.3739C62.425 66.6417 62.2211 68.4933 60.9533 69.5096C55.1078 74.1956 47.8088 76.6919 40.3179 76.5671C32.8271 76.4422 25.6152 73.7041 19.929 68.826C14.2429 63.9479 10.4397 57.2364 9.17706 49.8517C7.91439 42.467 9.27147 34.8732 13.0138 28.3829C16.7562 21.8927 22.6487 16.9139 29.6725 14.3073C36.6963 11.7007 44.4101 11.6301 51.4805 14.1076C53.0139 14.6449 53.8214 16.3236 53.2841 17.857C52.7467 19.3905 51.0681 20.198 49.5346 19.6606Z" fill="#8FB045"/>
<path fill-rule="evenodd" clip-rule="evenodd" d="M34.3158 5.81868C34.777 7.3767 33.8878 9.01361 32.3298 9.47481C23.9391 11.9586 16.721 17.3421 11.975 24.6495C7.22925 31.9566 5.26666 40.7078 6.43883 49.3248C7.61101 57.9419 11.8415 65.8619 18.3713 71.6544C24.9015 77.4471 33.3011 80.7301 42.055 80.9071C50.8089 81.0842 59.336 78.1437 66.0981 72.6195C72.8598 67.0956 77.4107 59.3529 78.9343 50.7901C79.2189 49.1904 80.7465 48.1243 82.3462 48.4089C83.946 48.6936 85.012 50.2212 84.7274 51.8209C82.9566 61.7734 77.6682 70.7654 69.8208 77.1763C61.9737 83.5869 52.0839 86.9953 41.936 86.7901C31.7881 86.5848 22.0455 82.7792 14.4666 76.0562C6.88735 69.3328 1.9709 60.134 0.608412 50.1179C-0.7541 40.1016 1.52795 29.932 7.04029 21.4446C12.5524 12.9576 20.9303 6.7128 30.6596 3.83271C32.2177 3.37151 33.8546 4.26066 34.3158 5.81868Z" fill="#7D9052"/>
<path d="M152.694 31.5879C145.468 31.5879 139.998 36.6869 139.998 43.5757C139.998 50.4306 145.468 55.6309 152.694 55.6309C159.921 55.6309 165.391 50.3968 165.391 43.5757C165.391 36.7207 159.921 31.5879 152.694 31.5879ZM152.774 36.2479C156.725 36.2479 159.933 39.4222 159.933 43.5757C159.933 47.7291 156.725 50.9709 152.774 50.9709C148.823 50.9709 145.48 47.7291 145.48 43.5757C145.48 39.4222 148.79 36.2479 152.774 36.2479Z" fill="black"/>
<path d="M178.954 31.7559H168.925V55.3936H174.26V48.64H178.954C184.965 48.64 188.409 45.4658 188.409 39.9616C188.409 34.7275 184.965 31.7559 178.954 31.7559ZM178.685 44.1826H174.261V36.1795H178.685C181.657 36.1795 183.345 37.4964 183.345 40.1304C183.345 42.8318 181.656 44.1826 178.685 44.1826Z" fill="black"/>
<path d="M191.811 31.7559V55.3936H210.181V50.97H197.146V45.7359H208.56V41.3123H197.146V36.1795H209.809V31.7559H191.811Z" fill="black"/>
<path d="M214.367 31.7559V55.3936H219.466V40.2317L230.914 55.3936H235.776V31.7559H230.711V46.9516L219.23 31.7559H214.367Z" fill="black"/>
<path d="M259.088 31.7559H249.059V55.3936H258.885C266.348 55.3936 271.514 50.531 271.514 43.5748C271.514 36.5847 266.416 31.7559 259.088 31.7559ZM259.221 50.9024H254.392V36.2471H258.985C263.037 36.2471 266.076 39.2524 266.076 43.6085C266.076 47.9308 263.172 50.9024 259.221 50.9024Z" fill="#4D5258"/>
<path d="M291.843 55.3936H297.55L287.453 31.7559H281.949L271.683 55.3936H277.188L279.044 50.8011H289.985L291.843 55.3936ZM280.801 46.5126L284.549 37.3277L288.264 46.5126H280.801Z" fill="#4D5258"/>
<path d="M295.271 31.7559V36.2808H302.463V55.3936H307.799V36.2808H315.025V31.7559H295.271Z" fill="#4D5258"/>
<path d="M332.932 55.3936H338.639L328.542 31.7559H323.038L312.772 55.3936H318.277L320.133 50.8011H331.074L332.932 55.3936ZM321.89 46.5126L325.638 37.3277L329.353 46.5126H321.89Z" fill="#4D5258"/>
<path d="M349.242 31.7559V55.3936H354.577V46.0736H365.282V55.3936H370.617V31.7559H365.282V41.6162H354.577V31.7559H349.242Z" fill="#4D5258"/>
<path d="M380.718 45.4995V31.7559H375.382V45.4995C375.382 51.7467 379.57 55.63 386.121 55.63C392.638 55.63 396.724 51.7467 396.724 45.4995V31.7559H391.389V45.4995C391.389 48.9102 389.295 50.97 386.121 50.97C382.947 50.97 380.718 48.9103 380.718 45.4995Z" fill="#4D5258"/>
<path d="M412.35 31.7559H401.477V55.3936H412.722C418.226 55.3936 421.637 52.8948 421.637 48.8426C421.637 45.7359 419.746 43.4397 416.707 42.8656C419.238 42.2241 420.793 40.2316 420.793 37.6653C420.793 34.0183 417.551 31.7559 412.35 31.7559ZM412.081 41.2785H406.813V36.112H412.081C414.074 36.112 415.323 37.0237 415.323 38.6446C415.323 40.2992 414.075 41.2785 412.081 41.2785ZM412.081 51.0375H406.813V45.3982H412.081C414.612 45.3982 416.133 46.4451 416.133 48.1672C416.133 49.9906 414.613 51.0375 412.081 51.0375Z" fill="#4D5258"/>
</svg>
