<svg width="249" height="200" viewBox="0 0 249 200" fill="none" xmlns="http://www.w3.org/2000/svg">
  <g clip-path="url(#clip0_6736_107785)">
    <path d="M121.232 7.78198H25.1338V76.1088H121.232V7.78198Z" fill="white"/>
    <path d="M75.4782 42.4124C62.1723 51.0505 48.5551 56.2645 33.9264 61.2451C21.0873 65.6031 4.8245 75.3307 0.856064 89.105C-3.11237 102.957 5.99169 129.494 42.9526 129.961C84.9714 130.506 106.37 144.903 128.935 151.984C151.579 159.144 171.888 161.868 191.419 153.074C217.797 141.089 233.671 110.895 233.126 83.2684C232.66 59.0661 215.541 38.2101 194.998 26.5369C177.646 16.7315 157.104 12.9182 137.261 15.4863C102.79 20.0778 85.2048 36.1867 75.4782 42.4124Z" fill="#E0F0FF"/>
    <path d="M118.82 10.2722H22.7212V78.5991H118.82V10.2722Z" fill="#0066CC"/>
    <path d="M137.028 158.91C137.028 158.91 129.169 165.525 116.719 161.401C104.269 157.276 104.191 145.914 104.191 145.914C104.191 145.914 91.5076 145.447 85.6717 134.942C80.5361 125.681 85.5939 114.63 85.5939 114.63C85.5939 114.63 78.6686 112.996 75.0114 105.447C71.3542 97.8987 74.7001 90.8948 74.7001 90.8948C74.7001 90.8948 66.6076 83.3462 69.7979 73.7742C72.9883 64.2022 80.7695 62.4902 80.7695 62.4902C80.7695 62.4902 81.2364 52.0621 89.6401 44.0466C97.4214 36.6536 110.027 38.2878 110.027 38.2878C110.027 38.2878 111.505 27.4707 121.777 25.7586C132.048 24.0466 136.95 31.2061 136.95 31.2061L137.028 158.91Z" fill="#E0F0FF"/>
    <mask id="mask0_6736_107785" style="mask-type:luminance" maskUnits="userSpaceOnUse" x="69" y="25" width="69" height="138">
      <path d="M137.028 158.91C137.028 158.91 129.169 165.525 116.719 161.401C104.269 157.276 104.191 145.914 104.191 145.914C104.191 145.914 91.5076 145.447 85.6717 134.942C80.5361 125.681 85.5939 114.63 85.5939 114.63C85.5939 114.63 78.6686 112.996 75.0114 105.447C71.3542 97.8987 74.7001 90.8948 74.7001 90.8948C74.7001 90.8948 66.6076 83.3462 69.7979 73.7742C72.9883 64.2022 80.7695 62.4902 80.7695 62.4902C80.7695 62.4902 81.2364 52.0621 89.6401 44.0466C97.4214 36.6536 110.027 38.2878 110.027 38.2878C110.027 38.2878 111.505 27.4707 121.777 25.7586C132.048 24.0466 136.95 31.2061 136.95 31.2061L137.028 158.91Z" fill="white"/>
    </mask>
    <g mask="url(#mask0_6736_107785)">
      <path d="M118.82 11.9844H22.7212V78.5992H118.82V11.9844Z" fill="#0066CC"/>
    </g>
    <path d="M121.232 7.78198H25.1333V76.1088H121.232V7.78198Z" fill="white"/>
    <path d="M121.465 76.4202H24.8223V7.54858H121.465V76.4202ZM25.367 75.8754H120.999V8.01551H25.367V75.8754Z" fill="#EE0000"/>
    <path d="M69.8757 73.6963C73.066 64.1243 80.8472 62.4123 80.8472 62.4123C80.8472 62.4123 81.3141 51.9843 89.7179 43.9687C97.4991 36.5757 110.105 38.2099 110.105 38.2099C110.105 38.2099 111.505 27.8598 121.154 25.8364V18.8325C97.0322 25.3695 83.5707 37.2761 75.4782 42.4901C62.1722 51.0504 48.555 56.2644 33.9263 61.245C31.0472 62.2566 28.0904 63.424 25.0557 64.9804V76.1866H69.331C69.4088 75.3306 69.6422 74.4745 69.8757 73.6963Z" fill="#FFE8CC"/>
    <path d="M110.105 38.1323C110.105 38.1323 97.4994 36.4203 89.7181 43.8911C81.3144 51.9845 80.8475 62.3347 80.8475 62.3347C80.8475 62.3347 73.0662 64.0467 69.8759 73.6187C69.5647 74.4747 69.409 75.253 69.2534 76.109H121.154V25.7588C111.506 27.7821 110.105 38.1323 110.105 38.1323Z" fill="#FCCB8F"/>
    <path d="M137.028 158.91C137.028 158.91 144.887 165.525 157.337 161.401C169.787 157.276 169.865 145.914 169.865 145.914C169.865 145.914 182.548 145.447 188.384 134.942C193.52 125.681 188.462 114.63 188.462 114.63C188.462 114.63 195.387 112.996 199.044 105.447C202.702 97.8987 199.356 90.8948 199.356 90.8948C199.356 90.8948 207.448 83.3462 204.258 73.7742C201.068 64.2022 193.286 62.4902 193.286 62.4902C193.286 62.4902 192.819 52.0621 184.416 44.0466C176.634 36.6536 164.029 38.2878 164.029 38.2878C164.029 38.2878 162.55 27.4707 152.279 25.7586C142.008 24.0466 137.106 31.2061 137.106 31.2061L137.028 158.91Z" fill="white"/>
    <path d="M95.3202 108.405C96.1368 108.405 96.7987 107.743 96.7987 106.926C96.7987 106.109 96.1368 105.448 95.3202 105.448C94.5037 105.448 93.8418 106.109 93.8418 106.926C93.8418 107.743 94.5037 108.405 95.3202 108.405Z" fill="#EE0000"/>
    <path d="M37.1165 35.4084H31.5918V49.1828H37.1165V35.4084Z" fill="#F5921B"/>
    <path d="M46.9212 24.3579H41.3965V49.1828H46.9212V24.3579Z" fill="#92C5F9"/>
    <path d="M56.803 27.8599H51.2783V49.1828H56.803V27.8599Z" fill="#FCCB8F"/>
    <path d="M204.414 73.6187C201.457 64.8249 194.687 62.5681 193.442 62.179C193.364 60.7004 192.275 51.2062 184.494 43.7354C177.335 36.8871 165.897 37.7432 164.107 37.8988C163.796 36.2646 161.617 26.9261 152.124 25.3696C142.942 23.8132 137.962 29.3385 136.95 30.6615C135.939 29.3385 130.959 23.891 121.777 25.3696C112.284 26.9261 110.105 36.2646 109.794 37.8988C108.004 37.7432 96.6435 36.8871 89.4069 43.7354C81.6257 51.2062 80.6141 60.7782 80.4585 62.179C79.2913 62.4903 72.4438 64.8249 69.4869 73.6187C66.53 82.5681 73.2997 89.8054 74.3113 90.8949C73.8444 91.9844 71.3544 98.5992 74.7003 105.525C77.9685 112.218 83.8044 114.319 85.1272 114.786C84.4269 116.576 80.6919 126.615 85.2829 135.097C90.6519 144.825 102.013 146.07 103.802 146.226C103.88 147.004 104.113 149.416 105.436 152.296C106.915 155.409 110.027 159.611 116.486 161.712C119.443 162.724 122.166 163.035 124.5 163.035C131.426 163.035 135.939 159.922 136.795 159.222C137.651 159.922 142.164 163.035 149.089 163.035C151.501 163.035 154.225 162.646 157.104 161.712C168.542 157.899 169.709 147.86 169.787 146.226C171.577 146.07 182.938 144.903 188.307 135.097C192.975 126.693 189.24 116.576 188.462 114.786C189.785 114.397 195.699 112.296 198.889 105.525C202.235 98.5992 199.745 91.9844 199.278 90.8949C200.601 89.8054 207.371 82.5681 204.414 73.6187ZM136.795 154.553C136.561 154.163 136.328 153.852 136.017 153.541L130.181 147.704C129.247 146.77 128.78 145.603 128.78 144.358V136.965C129.558 136.809 130.103 136.187 130.103 135.409C130.103 134.553 129.403 133.852 128.547 133.852C127.691 133.852 126.99 134.553 126.99 135.409C126.99 136.187 127.535 136.887 128.313 136.965V144.358C128.313 145.759 128.858 147.082 129.869 148.093L135.705 153.93C136.406 154.63 136.795 155.564 136.795 156.576V158.755C135.861 159.455 128.313 164.981 116.797 161.167C104.658 157.121 104.425 145.992 104.425 145.914V142.257C104.425 141.167 105.281 140.311 106.37 140.311H108.238C108.393 141.089 109.016 141.634 109.794 141.634C110.65 141.634 111.35 140.934 111.35 140.078C111.35 139.222 110.65 138.521 109.794 138.521C109.016 138.521 108.315 139.066 108.238 139.844H106.37C105.592 139.844 104.892 140.233 104.425 140.856V125.292C104.425 124.28 104.814 123.346 105.514 122.646L113.607 114.553C113.84 114.708 114.151 114.864 114.54 114.864C115.396 114.864 116.097 114.163 116.097 113.307C116.097 112.451 115.396 111.751 114.54 111.751C113.684 111.751 112.984 112.451 112.984 113.307C112.984 113.619 113.062 114.008 113.295 114.241L105.203 122.335C104.892 122.646 104.658 122.957 104.425 123.346V118.054C104.425 116.654 103.88 115.331 102.868 114.319L95.4763 106.926L95.0872 107.315L102.479 114.708C103.413 115.642 103.88 116.809 103.88 118.054V130.661C103.647 130.272 103.413 129.961 103.102 129.65L99.2891 125.837C99.4447 125.603 99.6003 125.292 99.6003 124.903C99.6003 124.047 98.9 123.346 98.0441 123.346C97.1882 123.346 96.4879 124.047 96.4879 124.903C96.4879 125.759 97.1882 126.459 98.0441 126.459C98.3554 126.459 98.7444 126.381 98.9778 126.148L102.791 129.961C103.491 130.661 103.88 131.595 103.88 132.607V145.759C102.09 145.603 91.041 144.358 85.8275 134.864C80.8475 125.837 85.7497 114.864 85.7497 114.786C85.7497 114.708 85.7497 114.63 85.7497 114.553C85.7497 114.475 85.6719 114.475 85.5941 114.397C85.5163 114.397 78.7466 112.685 75.1672 105.37C71.5878 97.9766 74.856 91.0506 74.856 90.9727C74.9338 90.8949 74.856 90.7393 74.7782 90.6615C74.7003 90.5836 66.8413 83.1128 69.9538 73.7743C72.9885 64.6692 80.225 62.7237 80.6919 62.6459H89.7182C91.43 62.6459 93.0641 61.9455 94.2313 60.7782L103.491 51.5175C103.724 51.6731 104.036 51.8288 104.425 51.8288C105.281 51.8288 105.981 51.1284 105.981 50.2724C105.981 49.4163 105.281 48.7159 104.425 48.7159C103.569 48.7159 102.868 49.4163 102.868 50.2724C102.868 50.5836 102.946 50.9727 103.18 51.2062L93.92 60.4669C92.8307 61.5564 91.3522 62.179 89.7182 62.179H80.9253C81.081 60.5447 82.1704 51.3619 89.7182 44.1245C95.0094 39.0661 102.635 38.2879 106.837 38.2879C108.627 38.2879 109.794 38.4436 109.872 38.4436C110.027 38.4436 110.105 38.3657 110.183 38.2101C110.183 38.1323 111.739 27.5486 121.777 25.8366C131.27 24.2801 136.094 30.428 136.639 31.1284L136.795 154.553ZM198.811 105.292C195.232 112.685 188.462 114.319 188.384 114.319C188.307 114.319 188.229 114.397 188.229 114.475C188.229 114.553 188.229 114.63 188.229 114.708C188.307 114.786 193.131 125.759 188.151 134.786C182.938 144.28 171.888 145.525 170.098 145.681V138.288C170.098 137.276 170.488 136.342 171.188 135.642L175.156 131.673C175.39 131.829 175.701 131.907 176.012 131.907C176.79 131.907 177.491 131.284 177.491 130.428C177.491 129.572 176.868 128.949 176.012 128.949C175.156 128.949 174.534 129.572 174.534 130.428C174.534 130.739 174.612 131.051 174.767 131.284L170.799 135.253C170.488 135.564 170.254 135.875 170.021 136.265V126.381C170.021 124.981 170.565 123.58 171.577 122.568L175.623 118.521C175.857 118.677 176.168 118.755 176.479 118.755C177.257 118.755 177.958 118.132 177.958 117.276C177.958 116.42 177.335 115.798 176.479 115.798C175.701 115.798 175.001 116.42 175.001 117.276C175.001 117.588 175.078 117.899 175.234 118.132L171.188 122.179C170.098 123.268 169.476 124.747 169.476 126.303V130.117C169.32 129.728 169.009 129.416 168.698 129.105L164.029 124.436C164.185 124.202 164.263 123.891 164.263 123.58C164.263 122.802 163.64 122.101 162.784 122.101C161.928 122.101 161.306 122.724 161.306 123.58C161.306 124.436 161.928 125.058 162.784 125.058C163.095 125.058 163.407 124.981 163.64 124.825L168.309 129.494C169.009 130.195 169.398 131.128 169.398 132.14V145.837C169.398 145.837 169.32 148.716 167.842 151.984C166.441 155.019 163.407 159.066 157.104 161.167C145.665 164.981 138.04 159.455 137.106 158.755V154.241V152.062C137.106 151.051 137.495 150.117 138.195 149.416L143.175 144.436C144.109 143.502 145.276 143.035 146.521 143.035H148.233C148.389 143.735 148.933 144.28 149.712 144.28C150.49 144.28 151.19 143.658 151.19 142.802C151.19 141.946 150.568 141.323 149.712 141.323C149.011 141.323 148.389 141.868 148.233 142.568H146.521C145.121 142.568 143.798 143.113 142.786 144.124L137.806 149.105C137.495 149.416 137.262 149.728 137.028 150.117V145.681V142.335C137.028 141.323 137.417 140.389 138.118 139.689L145.121 132.685C145.977 131.829 147.066 131.44 148.233 131.44H153.913C154.069 132.14 154.614 132.685 155.392 132.685C156.17 132.685 156.87 132.062 156.87 131.206C156.87 130.428 156.248 129.728 155.392 129.728C154.692 129.728 154.069 130.272 153.913 130.973H148.233C147.688 130.973 147.144 131.051 146.677 131.206L151.501 126.381C152.279 125.603 152.746 124.514 152.746 123.424V113.23C153.447 113.074 153.991 112.529 153.991 111.751C153.991 110.973 153.369 110.272 152.513 110.272C151.657 110.272 151.034 110.895 151.034 111.751C151.034 112.451 151.579 113.074 152.279 113.23V123.424C152.279 124.436 151.89 125.37 151.19 126.07L144.887 132.374L143.72 133.541L137.884 139.377C137.573 139.689 137.339 140.078 137.106 140.389V74.3969V69.8833C137.106 68.8716 137.495 67.9377 138.195 67.2373L144.031 61.4008L144.809 60.6226L145.198 60.2334C145.899 59.5331 146.833 59.144 147.844 59.144H150.178C150.178 59.9222 150.879 60.6226 151.657 60.6226C152.435 60.6226 153.135 60 153.135 59.144C153.135 58.2879 152.513 57.6654 151.657 57.6654C151.034 57.6654 150.49 58.0545 150.256 58.677H147.844C147.144 58.677 146.521 58.8327 145.899 59.144C146.288 58.4436 146.443 57.5875 146.443 56.7315V52.8405C147.144 52.7626 147.766 52.1401 147.766 51.3618C147.766 50.5836 147.144 49.8833 146.288 49.8833C145.432 49.8833 144.809 50.5058 144.809 51.3618C144.809 52.0622 145.276 52.607 145.977 52.7626V56.6537C145.977 57.9766 145.432 59.2218 144.498 60.1556L137.806 66.8482C137.495 67.1595 137.262 67.4708 137.028 67.8599V31.1284C137.495 30.428 142.397 24.2801 151.89 25.8366C160.994 27.3152 163.095 36.3424 163.407 37.8988C161.461 38.2101 159.905 39.9222 159.905 42.0233V42.8015H153.447C153.291 42.1012 152.746 41.5564 151.968 41.5564C151.19 41.5564 150.49 42.179 150.49 43.035C150.49 43.8132 151.112 44.5136 151.968 44.5136C152.668 44.5136 153.291 43.9689 153.447 43.2685H159.905V47.1595C159.905 48.249 160.372 49.3385 161.15 50.1167L168.075 57.0428C167.92 57.2762 167.842 57.5875 167.842 57.8988C167.842 58.677 168.464 59.3774 169.32 59.3774C170.098 59.3774 170.799 58.7548 170.799 57.8988C170.799 57.1206 170.176 56.4202 169.32 56.4202C169.009 56.4202 168.698 56.498 168.464 56.6537L161.539 49.7276C160.839 49.0272 160.45 48.0934 160.45 47.0817V42.0233C160.45 40.1556 161.928 38.5214 163.718 38.3657H163.796C163.951 38.3657 176.401 36.8093 183.949 44.0467C191.419 51.2062 192.586 60.2334 192.742 62.0233C191.886 61.8677 191.03 61.712 190.252 61.712C190.174 61.712 190.018 61.712 189.941 61.712H189.085C188.073 61.712 187.062 61.3229 186.361 60.5447L180.681 54.7082C180.837 54.4747 180.992 54.1634 180.992 53.8521C180.992 53.0739 180.37 52.3735 179.514 52.3735C178.658 52.3735 178.035 52.9961 178.035 53.8521C178.035 54.6303 178.658 55.3307 179.514 55.3307C179.825 55.3307 180.136 55.2529 180.37 55.0973L186.05 60.9338C186.595 61.4786 187.295 61.8677 188.073 62.1012C187.373 62.3346 186.673 62.8015 186.128 63.3463L178.191 71.284C177.958 71.1284 177.646 71.0506 177.335 71.0506C176.557 71.0506 175.857 71.6731 175.857 72.5292C175.857 73.3852 176.479 74.0078 177.335 74.0078C178.191 74.0078 178.813 73.3852 178.813 72.5292C178.813 72.2179 178.736 71.9066 178.58 71.6731L186.517 63.7354C187.528 62.7237 188.929 62.179 190.33 62.2568C191.186 62.3346 192.119 62.4124 193.131 62.6459C193.131 62.6459 195.076 63.1128 197.333 64.6692C199.434 66.1478 202.235 68.8716 203.869 73.7743C206.982 83.1128 199.123 90.5836 199.045 90.6615C198.967 90.7393 198.967 90.8171 198.967 90.9727C199.123 90.9727 202.391 97.8988 198.811 105.292Z" fill="#EE0000"/>
    <path d="M131.504 44.1245C130.648 44.1245 129.947 44.8249 129.947 45.6809C129.947 46.537 130.648 47.2374 131.504 47.2374C132.359 47.2374 133.06 46.537 133.06 45.6809C133.06 44.8249 132.359 44.1245 131.504 44.1245Z" fill="#EE0000"/>
    <path d="M136.794 53.3072V56.9648H137.261V53.3072C137.261 51.9065 136.717 50.5835 135.705 49.6497L131.581 45.5251L131.192 45.9143L135.316 50.0388C136.328 50.8948 136.794 52.0621 136.794 53.3072Z" fill="#EE0000"/>
    <path d="M118.82 93.6963V93.3072C118.82 83.2683 126.99 75.0971 137.028 75.0971C144.887 75.0971 151.968 80.2332 154.38 87.7041L149.789 86.6924L149.633 87.3928L155.314 88.6379L156.714 82.1009L156.014 81.9453L154.925 86.848C152.279 79.3772 145.12 74.3188 137.106 74.3188C126.756 74.3188 118.353 82.6457 118.197 92.9181H34.6265V93.6963H118.508H118.82Z" fill="#EE0000"/>
    <path d="M245.187 89.4941H219.587C217.641 89.4941 216.007 90.9727 215.852 92.9183H155.547H155.158V93.3074C155.158 103.346 146.988 111.517 136.95 111.517C129.091 111.517 122.01 106.381 119.598 98.9105L124.189 99.9222L124.344 99.2218L118.664 97.9766L117.263 104.514L117.964 104.669L119.053 99.7665C121.698 107.237 128.857 112.296 136.872 112.296C147.221 112.296 155.625 103.969 155.78 93.6965H215.696C215.852 95.642 217.486 97.1206 219.431 97.1206H245.031C247.132 97.1206 248.844 95.4085 248.844 93.3074C249 91.2062 247.288 89.4941 245.187 89.4941Z" fill="#EE0000"/>
    <path d="M239.896 78.21H219.664C217.563 78.21 215.852 79.922 215.852 82.0232C215.852 84.1244 217.563 85.8364 219.664 85.8364H239.896C241.997 85.8364 243.708 84.1244 243.708 82.0232C243.631 79.922 241.919 78.21 239.896 78.21Z" fill="#F5921B"/>
    <path d="M219.664 101.245H239.896C241.763 101.245 243.319 102.802 243.319 104.669C243.319 106.537 241.763 108.093 239.896 108.093H219.664C217.797 108.093 216.241 106.537 216.241 104.669C216.241 102.724 217.719 101.245 219.664 101.245Z" fill="white"/>
    <path d="M239.896 108.405H219.664C217.563 108.405 215.852 106.692 215.852 104.591C215.852 102.49 217.563 100.778 219.664 100.778H239.896C241.997 100.778 243.708 102.49 243.708 104.591C243.708 106.692 241.919 108.405 239.896 108.405ZM219.664 101.556C218.03 101.556 216.63 102.879 216.63 104.591C216.63 106.303 217.952 107.626 219.664 107.626H239.896C241.53 107.626 242.93 106.303 242.93 104.591C242.93 102.879 241.607 101.556 239.896 101.556H219.664Z" fill="#EE0000"/>
    <path d="M239.896 112.14H219.664C217.563 112.14 215.852 113.852 215.852 115.953C215.852 118.054 217.563 119.766 219.664 119.766H239.896C241.997 119.766 243.708 118.054 243.708 115.953C243.631 113.852 241.919 112.14 239.896 112.14Z" fill="#0066CC"/>
    <path d="M24.8999 7.54858V76.4202H121.465V7.54858H24.8999ZM25.3668 75.8754V15.3307H120.998V75.8754H25.3668Z" fill="#EE0000"/>
    <path d="M116.33 12.996C117.146 12.996 117.808 12.334 117.808 11.5174C117.808 10.7008 117.146 10.0388 116.33 10.0388C115.513 10.0388 114.851 10.7008 114.851 11.5174C114.851 12.334 115.513 12.996 116.33 12.996Z" fill="white"/>
    <path d="M8.48186 89.8833H34.0822C35.9497 89.8833 37.5059 91.4397 37.5059 93.3074C37.5059 95.1751 35.9497 96.7316 34.0822 96.7316H8.48186C6.61436 96.7316 5.05811 95.1751 5.05811 93.3074C5.05811 91.4397 6.61436 89.8833 8.48186 89.8833Z" fill="white"/>
    <path d="M34.0821 97.1206H8.48176C6.38082 97.1206 4.66895 95.4085 4.66895 93.3074C4.66895 91.2062 6.38082 89.4941 8.48176 89.4941H34.0821C36.183 89.4941 37.8949 91.2062 37.8949 93.3074C37.8171 95.4085 36.1052 97.1206 34.0821 97.1206ZM8.48176 90.2724C6.8477 90.2724 5.44707 91.5953 5.44707 93.3074C5.44707 95.0194 6.76988 96.3424 8.48176 96.3424H34.0821C35.7161 96.3424 37.1168 95.0194 37.1168 93.3074C37.1168 91.5953 35.7939 90.2724 34.0821 90.2724H8.48176Z" fill="#EE0000"/>
    <path d="M115.707 125.447V124.747H117.03V121.634C116.952 121.712 116.952 121.79 116.797 121.868C116.641 121.945 116.563 122.023 116.485 122.101C116.33 122.179 116.252 122.179 116.096 122.257C115.941 122.257 115.785 122.334 115.629 122.334V121.556C115.785 121.556 115.941 121.556 116.096 121.478C116.252 121.401 116.408 121.401 116.485 121.323C116.641 121.245 116.719 121.167 116.797 121.089C116.874 121.012 116.952 120.856 117.03 120.778H117.964V124.747H119.053V125.447H115.707Z" fill="#EE0000"/>
    <path d="M114.151 130.272C114.151 130.739 114.073 131.051 113.995 131.362C113.918 131.673 113.762 131.907 113.606 132.14C113.451 132.296 113.295 132.451 113.062 132.529C112.828 132.607 112.595 132.685 112.361 132.685C112.128 132.685 111.894 132.607 111.661 132.529C111.428 132.451 111.272 132.296 111.116 132.14C110.961 131.984 110.883 131.673 110.805 131.362C110.727 131.051 110.649 130.661 110.649 130.272C110.649 129.805 110.727 129.416 110.805 129.105C110.883 128.794 111.038 128.56 111.116 128.327C111.272 128.171 111.428 128.015 111.661 127.938C111.894 127.86 112.128 127.86 112.361 127.86C112.595 127.86 112.828 127.86 113.062 127.938C113.295 128.015 113.451 128.171 113.606 128.327C113.762 128.482 113.84 128.794 113.995 129.105C114.151 129.416 114.151 129.805 114.151 130.272ZM113.217 130.272C113.217 129.961 113.217 129.65 113.217 129.494C113.217 129.261 113.139 129.105 113.062 128.949C112.984 128.794 112.906 128.716 112.828 128.716C112.75 128.716 112.595 128.638 112.517 128.638C112.361 128.638 112.283 128.638 112.206 128.716C112.128 128.794 112.05 128.872 111.972 128.949C111.894 129.105 111.894 129.261 111.817 129.494C111.817 129.728 111.817 129.961 111.817 130.272C111.817 130.584 111.817 130.817 111.817 131.051C111.817 131.284 111.894 131.44 111.972 131.595C112.05 131.751 112.128 131.829 112.206 131.907C112.283 131.984 112.439 131.984 112.517 131.984C112.673 131.984 112.75 131.984 112.828 131.907C112.906 131.829 112.984 131.751 113.062 131.595C113.139 131.44 113.139 131.284 113.217 131.051C113.139 130.817 113.217 130.584 113.217 130.272Z" fill="#EE0000"/>
    <path d="M127.768 119.066C127.768 119.533 127.69 119.844 127.613 120.156C127.535 120.467 127.379 120.7 127.223 120.934C127.068 121.089 126.912 121.245 126.679 121.323C126.445 121.401 126.212 121.478 125.978 121.478C125.745 121.478 125.512 121.401 125.278 121.323C125.045 121.245 124.889 121.089 124.733 120.934C124.578 120.778 124.5 120.467 124.422 120.156C124.344 119.844 124.267 119.455 124.267 119.066C124.267 118.599 124.344 118.21 124.422 117.899C124.5 117.587 124.656 117.354 124.733 117.12C124.889 116.965 125.045 116.809 125.278 116.731C125.512 116.654 125.745 116.654 125.978 116.654C126.212 116.654 126.445 116.654 126.679 116.731C126.912 116.809 127.068 116.965 127.223 117.12C127.379 117.276 127.457 117.587 127.613 117.899C127.69 118.21 127.768 118.599 127.768 119.066ZM126.757 119.066C126.757 118.755 126.757 118.443 126.757 118.288C126.757 118.054 126.679 117.899 126.601 117.743C126.523 117.587 126.445 117.51 126.368 117.51C126.29 117.51 126.134 117.432 126.056 117.432C125.901 117.432 125.823 117.432 125.745 117.51C125.667 117.587 125.589 117.665 125.512 117.743C125.434 117.899 125.434 118.054 125.356 118.288C125.356 118.521 125.356 118.755 125.356 119.066C125.356 119.377 125.356 119.611 125.356 119.844C125.356 120.078 125.434 120.233 125.512 120.389C125.589 120.545 125.667 120.622 125.745 120.7C125.823 120.778 125.978 120.778 126.056 120.778C126.134 120.778 126.29 120.778 126.368 120.7C126.445 120.622 126.523 120.545 126.601 120.389C126.679 120.233 126.679 120.078 126.757 119.844C126.757 119.689 126.757 119.377 126.757 119.066Z" fill="#EE0000"/>
    <path d="M168.464 71.3619V70.6615H169.787V67.5487C169.709 67.6265 169.709 67.7043 169.553 67.7821C169.476 67.8599 169.32 67.9378 169.242 68.0156C169.087 68.0934 169.009 68.0934 168.853 68.1712C168.697 68.1712 168.542 68.249 168.386 68.249V67.4708C168.542 67.4708 168.697 67.4708 168.853 67.393C169.009 67.3152 169.164 67.3152 169.242 67.2374C169.398 67.1596 169.476 67.0817 169.553 67.0039C169.631 66.9261 169.709 66.7704 169.787 66.6926H170.721V70.6615H171.81V71.3619H168.464Z" fill="#EE0000"/>
    <path d="M176.323 88.0933V87.3929H177.646V84.2801C177.568 84.3579 177.568 84.4357 177.413 84.5136C177.335 84.5914 177.179 84.6692 177.102 84.747C176.946 84.8249 176.868 84.8249 176.712 84.9027C176.557 84.9027 176.401 84.9805 176.246 84.9805V84.2023C176.401 84.2023 176.557 84.2023 176.712 84.1245C176.868 84.0466 177.024 84.0466 177.102 83.9688C177.257 83.891 177.335 83.8132 177.413 83.7354C177.491 83.6575 177.568 83.5019 177.646 83.4241H178.58V87.3929H179.669V88.0933H176.323Z" fill="#EE0000"/>
    <path d="M164.262 76.8094C164.262 77.2763 164.184 77.5876 164.107 77.8989C164.029 78.2102 163.873 78.4437 163.718 78.6771C163.562 78.8328 163.406 78.9884 163.173 79.0662C162.939 79.1441 162.706 79.2219 162.473 79.2219C162.239 79.2219 162.006 79.1441 161.772 79.0662C161.539 78.9884 161.383 78.8328 161.228 78.6771C161.072 78.5215 160.994 78.2102 160.916 77.8989C160.839 77.5876 160.761 77.1985 160.761 76.8094C160.761 76.3425 160.839 75.9534 160.916 75.6421C160.994 75.3308 161.15 75.0974 161.228 74.8639C161.383 74.7083 161.539 74.5526 161.772 74.4748C162.006 74.397 162.239 74.397 162.473 74.397C162.706 74.397 162.939 74.397 163.173 74.4748C163.406 74.5526 163.562 74.7083 163.718 74.8639C163.873 75.0195 163.951 75.3308 164.107 75.6421C164.184 75.9534 164.262 76.3425 164.262 76.8094ZM163.251 76.8094C163.251 76.4981 163.251 76.1869 163.251 76.0312C163.251 75.7977 163.173 75.6421 163.095 75.4865C163.017 75.3308 162.939 75.253 162.862 75.253C162.784 75.1752 162.628 75.1752 162.55 75.1752C162.395 75.1752 162.317 75.1752 162.239 75.253C162.161 75.3308 162.084 75.4086 162.006 75.4865C161.928 75.6421 161.928 75.7977 161.85 76.0312C161.85 76.2647 161.85 76.4981 161.85 76.8094C161.85 77.1207 161.85 77.3542 161.85 77.5876C161.85 77.8211 161.928 77.9767 162.006 78.1324C162.084 78.288 162.161 78.3658 162.239 78.4437C162.317 78.5215 162.473 78.5215 162.55 78.5215C162.706 78.5215 162.784 78.5215 162.862 78.4437C162.939 78.3658 163.017 78.288 163.095 78.1324C163.173 77.9767 163.173 77.8211 163.251 77.5876C163.251 77.3542 163.251 77.1207 163.251 76.8094Z" fill="#EE0000"/>
    <path d="M193.831 100.467C193.831 100.934 193.753 101.401 193.675 101.79C193.598 102.179 193.442 102.412 193.286 102.646C193.131 102.879 192.897 103.035 192.664 103.113C192.43 103.191 192.197 103.268 191.886 103.268C191.574 103.268 191.341 103.191 191.108 103.113C190.874 103.035 190.641 102.879 190.485 102.646C190.329 102.412 190.174 102.179 190.096 101.79C190.018 101.401 189.94 101.012 189.94 100.467C189.94 99.9221 190.018 99.4552 190.096 99.1439C190.174 98.7548 190.329 98.5213 190.485 98.2879C190.641 98.0544 190.874 97.8987 191.108 97.8209C191.341 97.7431 191.574 97.6653 191.886 97.6653C192.197 97.6653 192.43 97.7431 192.664 97.8209C192.897 97.8987 193.131 98.0544 193.286 98.2879C193.442 98.5213 193.598 98.7548 193.675 99.1439C193.753 99.533 193.753 99.9221 193.831 100.467ZM192.664 100.467C192.664 100.078 192.664 99.7665 192.586 99.533C192.508 99.2995 192.508 99.0661 192.43 98.9882C192.353 98.8326 192.275 98.7548 192.197 98.677C192.119 98.5991 191.964 98.5991 191.808 98.5991C191.652 98.5991 191.497 98.5991 191.419 98.677C191.341 98.7548 191.263 98.8326 191.185 98.9882C191.108 99.1439 191.108 99.2995 191.03 99.533C191.03 99.7665 190.952 100.078 190.952 100.467C190.952 100.856 190.952 101.089 191.03 101.401C191.03 101.634 191.108 101.868 191.185 101.945C191.263 102.101 191.341 102.179 191.419 102.257C191.497 102.335 191.652 102.335 191.808 102.335C191.964 102.335 192.041 102.335 192.197 102.257C192.275 102.179 192.353 102.101 192.43 101.945C192.508 101.79 192.508 101.634 192.586 101.401C192.664 101.167 192.664 100.856 192.664 100.467Z" fill="#EE0000"/>
    <path d="M29.4907 93.3074C29.4907 93.6187 29.4907 93.93 29.4129 94.1634C29.335 94.3969 29.2572 94.6304 29.1016 94.7082C28.946 94.8638 28.8682 94.9416 28.7125 95.0195C28.5569 95.0973 28.4013 95.0973 28.1679 95.0973C28.0122 95.0973 27.7788 95.0973 27.6232 95.0195C27.4675 94.9416 27.3119 94.8638 27.2341 94.7082C27.1563 94.5525 27.0007 94.3969 27.0007 94.1634C27.0007 93.93 26.9229 93.6187 26.9229 93.3074C26.9229 92.9961 26.9229 92.6848 27.0007 92.3735C27.0785 92.1401 27.1563 91.9066 27.2341 91.8288C27.3897 91.6732 27.4675 91.5953 27.6232 91.5175C27.7788 91.4397 27.9344 91.4397 28.1679 91.4397C28.3235 91.4397 28.5569 91.4397 28.7125 91.5175C28.8682 91.5953 29.0238 91.6732 29.1016 91.8288C29.1794 91.9844 29.335 92.1401 29.335 92.3735C29.335 92.607 29.4907 92.9183 29.4907 93.3074ZM28.7125 93.3074C28.7125 93.0739 28.7125 92.8405 28.7125 92.6848C28.7125 92.5292 28.6347 92.3735 28.6347 92.2957C28.5569 92.2179 28.5569 92.1401 28.4791 92.0623C28.4013 91.9844 28.3235 91.9844 28.2457 91.9844C28.1679 91.9844 28.09 91.9844 28.0122 92.0623C27.9344 92.1401 27.8566 92.1401 27.8566 92.2957C27.7788 92.3735 27.7788 92.5292 27.7788 92.6848C27.7788 92.8405 27.7788 93.0739 27.7788 93.3074C27.7788 93.5409 27.7788 93.7743 27.7788 93.93C27.7788 94.0856 27.8566 94.2413 27.8566 94.3191C27.9344 94.3969 27.9344 94.4747 28.0122 94.5525C28.09 94.6304 28.1679 94.6304 28.2457 94.6304C28.3235 94.6304 28.4013 94.6304 28.4791 94.5525C28.5569 94.4747 28.6347 94.4747 28.6347 94.3191C28.6347 94.1634 28.7125 94.0856 28.7125 93.93C28.7125 93.7743 28.7904 93.5409 28.7125 93.3074Z" fill="#EE0000"/>
    <path d="M22.5654 95.0973V94.5526H23.577V92.1401C23.577 92.218 23.4992 92.2958 23.4214 92.3736C23.3436 92.4514 23.2657 92.5293 23.1879 92.5293C23.1101 92.6071 22.9545 92.6071 22.8767 92.6071C22.7989 92.6071 22.6432 92.6849 22.5654 92.6849V92.1401C22.7211 92.1401 22.7989 92.1401 22.9545 92.0623C23.1101 91.9845 23.1879 91.9845 23.2657 91.9067C23.3436 91.8289 23.4214 91.751 23.4992 91.751C23.577 91.751 23.6548 91.5954 23.6548 91.5176H24.3551V94.5526H25.2111V95.0973H22.5654Z" fill="#EE0000"/>
    <path d="M31.5142 95.0973V94.5526H32.5257V92.1401C32.5257 92.218 32.4479 92.2958 32.3701 92.3736C32.2923 92.4514 32.2145 92.5293 32.1367 92.5293C32.0588 92.6071 31.9032 92.6071 31.8254 92.6071C31.7476 92.6071 31.592 92.6849 31.5142 92.6849V92.1401C31.6698 92.1401 31.7476 92.1401 31.9032 92.0623C31.981 92.0623 32.1367 91.9845 32.2145 91.9067C32.2923 91.8289 32.3701 91.751 32.4479 91.751C32.5257 91.6732 32.6035 91.5954 32.6035 91.5176H33.3038V94.5526H34.1598V95.0973H31.5142Z" fill="#EE0000"/>
    <path d="M20.6201 93.3074C20.6201 93.6187 20.6201 93.93 20.5422 94.1634C20.4644 94.3969 20.3866 94.6304 20.231 94.7082C20.0754 94.8638 19.9976 94.9416 19.8419 95.0195C19.6863 95.0973 19.5307 95.0973 19.2972 95.0973C19.0638 95.0973 18.9082 95.0973 18.7526 95.0195C18.5969 94.9416 18.4413 94.8638 18.3635 94.7082C18.2857 94.5525 18.1301 94.3969 18.1301 94.1634C18.1301 93.93 18.0522 93.6187 18.0522 93.3074C18.0522 92.9961 18.0522 92.6848 18.1301 92.3735C18.2079 92.1401 18.2857 91.9066 18.3635 91.8288C18.5191 91.6732 18.5969 91.5953 18.7526 91.5175C18.9082 91.4397 19.0638 91.4397 19.2972 91.4397C19.4529 91.4397 19.6863 91.4397 19.8419 91.5175C19.9976 91.5953 20.1532 91.6732 20.231 91.8288C20.3088 91.9844 20.4644 92.1401 20.4644 92.3735C20.4644 92.607 20.6201 92.9183 20.6201 93.3074ZM19.8419 93.3074C19.8419 93.0739 19.8419 92.8405 19.8419 92.6848C19.8419 92.5292 19.7641 92.3735 19.7641 92.2957C19.6863 92.2179 19.6863 92.1401 19.6085 92.0623C19.5307 91.9844 19.4529 91.9844 19.3751 91.9844C19.2972 91.9844 19.2194 91.9844 19.1416 92.0623C19.0638 92.1401 18.986 92.1401 18.986 92.2957C18.9082 92.3735 18.9082 92.5292 18.9082 92.6848C18.9082 92.8405 18.9082 93.0739 18.9082 93.3074C18.9082 93.5409 18.9082 93.7743 18.9082 93.93C18.9082 94.0856 18.986 94.2413 18.986 94.3191C18.986 94.3969 19.0638 94.4747 19.1416 94.5525C19.2194 94.6304 19.2972 94.6304 19.3751 94.6304C19.4529 94.6304 19.5307 94.6304 19.6085 94.5525C19.6863 94.4747 19.7641 94.4747 19.7641 94.3191C19.8419 94.2413 19.8419 94.0856 19.8419 93.93C19.8419 93.7743 19.8419 93.5409 19.8419 93.3074Z" fill="#EE0000"/>
    <path d="M13.6948 95.0973V94.5526H14.7064V92.1401C14.7064 92.218 14.6286 92.2958 14.5508 92.3736C14.4729 92.4514 14.3951 92.5293 14.3173 92.5293C14.2395 92.6071 14.0839 92.6071 14.0061 92.6071C13.9283 92.6071 13.7726 92.6849 13.6948 92.6849V92.1401C13.8504 92.1401 13.9283 92.1401 14.0839 92.0623C14.2395 91.9845 14.3173 91.9845 14.3951 91.9067C14.4729 91.8289 14.5508 91.751 14.6286 91.751C14.7064 91.751 14.7842 91.5954 14.7842 91.5176H15.4845V94.5526H16.3404V95.0973H13.6948Z" fill="#EE0000"/>
    <path d="M11.6718 93.3074C11.6718 93.6187 11.6718 93.93 11.594 94.1634C11.5162 94.3969 11.4384 94.6304 11.2828 94.7082C11.1271 94.8638 11.0493 94.9416 10.8937 95.0195C10.7381 95.0973 10.5824 95.0973 10.349 95.0973C10.1934 95.0973 9.95994 95.0973 9.80432 95.0195C9.64869 94.9416 9.49307 94.8638 9.41525 94.7082C9.33744 94.5525 9.18182 94.3969 9.18182 94.1634C9.104 93.93 9.104 93.6187 9.104 93.3074C9.104 92.9961 9.104 92.6848 9.18182 92.3735C9.25963 92.1401 9.33744 91.9066 9.41525 91.8288C9.57088 91.6732 9.64869 91.5953 9.80432 91.5175C9.95994 91.4397 10.1156 91.4397 10.349 91.4397C10.5046 91.4397 10.7381 91.4397 10.8937 91.5175C11.0493 91.5953 11.2049 91.6732 11.2828 91.8288C11.3606 91.9844 11.5162 92.1401 11.5162 92.3735C11.6718 92.6848 11.6718 92.9183 11.6718 93.3074ZM10.8937 93.3074C10.8937 93.0739 10.8937 92.8405 10.8937 92.6848C10.8937 92.5292 10.8159 92.3735 10.8159 92.2957C10.7381 92.2179 10.7381 92.1401 10.6603 92.0623C10.5824 91.9844 10.5046 91.9844 10.4268 91.9844C10.349 91.9844 10.2712 91.9844 10.1934 92.0623C10.1156 92.1401 10.0378 92.1401 10.0378 92.2957C9.95994 92.3735 9.95994 92.5292 9.95994 92.6848C9.95994 92.8405 9.95994 93.0739 9.95994 93.3074C9.95994 93.5409 9.95994 93.7743 9.95994 93.93C9.95994 94.0856 10.0378 94.2413 10.0378 94.3191C10.1156 94.3969 10.1156 94.4747 10.1934 94.5525C10.2712 94.6304 10.349 94.6304 10.4268 94.6304C10.5046 94.6304 10.5824 94.6304 10.6603 94.5525C10.7381 94.4747 10.8159 94.4747 10.8159 94.3191C10.8937 94.2413 10.8937 94.0856 10.8937 93.93C10.8937 93.7743 10.8937 93.5409 10.8937 93.3074Z" fill="#EE0000"/>
    <path d="M30.1913 173.463C30.1913 173.463 27.001 176.654 25.1335 175.876C25.1335 175.876 24.4332 178.366 26.3007 180.934C28.246 183.502 29.8801 183.346 29.8801 183.346C29.8801 183.346 29.2576 181.712 30.5026 179.922C31.7476 178.21 33.226 177.121 33.226 177.121L30.1913 173.463Z" fill="#F7C8BB"/>
    <mask id="mask1_6736_107785" style="mask-type:luminance" maskUnits="userSpaceOnUse" x="25" y="173" width="9" height="11">
      <path d="M30.1913 173.463C30.1913 173.463 27.001 176.654 25.1335 175.876C25.1335 175.876 24.4332 178.366 26.3007 180.934C28.246 183.502 29.8801 183.346 29.8801 183.346C29.8801 183.346 29.2576 181.712 30.5026 179.922C31.7476 178.21 33.226 177.121 33.226 177.121L30.1913 173.463Z" fill="white"/>
    </mask>
    <g mask="url(#mask1_6736_107785)">
      <path d="M25.6004 177.666C27.1566 176.887 29.1019 175.798 29.1019 175.798C29.1019 175.798 31.5919 177.121 33.226 177.354C34.8601 177.666 33.4594 177.354 33.4594 177.354L29.6466 172.918L25.2891 175.02L23.9663 177.354" fill="#E8A997"/>
    </g>
    <path d="M20.3093 179.377C19.9202 181.09 17.119 183.813 17.119 183.813C17.119 183.813 16.7299 184.436 17.7415 185.292C18.5974 185.992 18.9086 185.992 19.2977 185.759C19.2977 185.759 21.3208 183.658 21.7877 183.035C22.4102 182.335 22.9549 183.191 22.9549 183.191C22.9549 183.191 23.1883 182.179 22.099 180.7C21.0874 179.377 20.3093 179.377 20.3093 179.377Z" fill="#292929"/>
    <path d="M25.756 175.331C25.756 175.331 26.3007 175.097 26.4563 175.487C26.8454 176.498 25.8338 178.21 26.8454 180C27.7791 181.79 29.8022 181.634 30.5025 181.634C30.5025 181.634 30.1913 184.747 29.88 186.771C29.6466 188.794 29.1797 189.261 30.5804 190.117C31.981 190.973 32.37 191.596 32.0588 192.918C31.9032 193.385 31.5141 194.164 31.2807 194.397C31.2807 194.397 29.5688 194.397 27.7013 193.463C26.4563 192.841 24.9779 191.985 24.4332 190.662C24.0441 189.65 24.1997 188.638 24.2775 187.627C24.4332 186.226 24.1997 184.903 23.266 183.813C21.3207 181.557 20.2313 180.856 20.1535 179.533C20.1535 179.533 19.8422 178.599 21.5541 177.432C22.9547 176.498 23.3438 176.887 25.756 175.331Z" fill="black"/>
    <path d="M31.2806 193.308H31.2028C31.0472 193.23 31.0472 193.074 31.0472 192.996C31.2806 192.529 31.2806 192.062 31.0472 191.751C30.7359 191.362 29.8022 190.739 29.4131 190.584C29.2575 190.506 29.2575 190.35 29.3353 190.272C29.4131 190.117 29.5687 190.117 29.6465 190.195C29.8022 190.272 31.0472 190.973 31.4362 191.518C31.7475 191.985 31.7475 192.607 31.514 193.23C31.4362 193.308 31.3584 193.308 31.2806 193.308Z" fill="#707070"/>
    <path d="M48.3219 180.467C48.3219 180.467 47.9328 185.058 45.6763 185.681C45.6763 185.681 46.8435 188.171 50.345 188.872C53.8466 189.65 55.1694 188.483 55.1694 188.483C55.1694 188.483 53.4575 187.549 53.2241 185.37C52.9906 183.191 53.5353 181.401 53.5353 181.401L48.3219 180.467Z" fill="#F7C8BB"/>
    <mask id="mask2_6736_107785" style="mask-type:luminance" maskUnits="userSpaceOnUse" x="45" y="180" width="11" height="10">
      <path d="M48.3219 180.467C48.3219 180.467 47.9328 185.058 45.6763 185.681C45.6763 185.681 46.8435 188.171 50.345 188.872C53.8466 189.65 55.1694 188.483 55.1694 188.483C55.1694 188.483 53.4575 187.549 53.2241 185.37C52.9906 183.191 53.5353 181.401 53.5353 181.401L48.3219 180.467Z" fill="white"/>
    </mask>
    <g mask="url(#mask2_6736_107785)">
      <path d="M47.9328 186.848C47.9328 186.848 49.4112 184.747 49.7225 183.269C49.7225 183.269 52.2125 183.269 53.3797 182.879L47.9328 181.323L45.9097 186.537" fill="#E8A997"/>
    </g>
    <path d="M44.042 191.518C44.8979 193.152 44.3532 197.121 44.3532 197.121C44.3532 197.121 44.5089 197.899 45.9095 197.899C47.1545 197.899 47.3879 197.665 47.6214 197.276C47.6214 197.276 47.8548 194.241 47.9326 193.541C48.0104 192.607 49.022 192.918 49.022 192.918C49.022 192.918 48.4773 191.907 46.532 191.518C44.6645 191.051 44.042 191.518 44.042 191.518Z" fill="#292929"/>
    <path d="M45.9096 184.825C45.9096 184.825 46.2987 184.28 46.6877 184.514C47.7771 185.058 48.0883 187.082 50.1893 187.86C52.2902 188.638 53.9243 187.315 54.5468 186.771C54.5468 186.771 56.4921 189.494 57.6593 191.284C58.8265 193.074 59.2933 194.008 61.1608 194.086C63.0283 194.164 63.7287 194.553 64.1177 195.876C64.2733 196.343 64.2733 197.276 64.1955 197.588C64.1955 197.588 62.4837 198.444 60.1493 198.444C58.593 198.444 56.959 198.444 55.5583 197.665C54.5468 197.121 53.9243 196.265 53.224 195.331C52.368 194.086 51.2786 193.152 49.6446 192.841C46.3765 192.218 44.898 192.374 43.8865 191.362C43.8865 191.362 42.9527 190.817 43.653 188.872C44.2755 187.471 44.898 187.627 45.9096 184.825Z" fill="black"/>
    <path d="M63.4174 196.809C63.2618 196.809 63.184 196.732 63.184 196.576C63.1062 196.031 62.8727 195.564 62.4837 195.409C62.0168 195.175 60.694 195.097 60.2271 195.097C60.0715 195.097 59.9937 195.019 59.9937 194.864C59.9937 194.708 60.1493 194.63 60.2271 194.63C60.3049 194.63 62.0168 194.63 62.6393 195.019C63.184 195.253 63.4952 195.798 63.6508 196.576C63.7287 196.654 63.6508 196.732 63.4174 196.809C63.4952 196.809 63.4952 196.809 63.4174 196.809Z" fill="#707070"/>
    <path d="M49.4888 141.323C49.4888 144.28 48.7107 147.782 47.3879 149.961C46.0651 152.218 41.3185 157.899 38.3617 161.634C35.4048 165.37 32.5257 168.638 31.9032 171.595C31.9032 171.595 31.592 172.14 30.8917 172.763C30.1913 173.385 29.0242 174.086 29.0242 174.086C29.0242 174.086 28.7129 174.475 30.8917 176.031C33.0704 177.588 33.3038 177.432 33.3038 177.432C33.3038 177.432 35.327 175.642 36.7276 175.253C36.7276 175.253 41.7076 172.996 45.1313 170.584C48.5551 168.171 53.0682 163.191 57.6592 157.821C62.2501 152.452 61.2385 152.374 62.8726 148.638C64.5067 144.903 61.5498 141.012 58.126 139.922C54.7023 138.833 49.5667 139.455 49.5667 139.455C49.5667 139.455 49.4888 139.455 49.4888 141.323Z" fill="black"/>
    <path d="M36.105 175.331C33.3816 174.63 32.1366 172.763 32.1366 172.685C32.0587 172.607 32.0587 172.451 32.2144 172.374C32.2922 172.296 32.4478 172.296 32.5256 172.451C32.5256 172.451 33.6928 174.241 36.1828 174.942C36.3384 174.942 36.4162 175.097 36.3384 175.253C36.3384 175.253 36.2606 175.331 36.105 175.331Z" fill="#292929"/>
    <path d="M78.2798 80.078C79.836 79.0663 81.3923 77.5099 82.0926 76.9652C82.7929 76.3426 84.5048 72.8407 85.2051 72.2959C85.9054 71.7512 86.1388 77.7434 85.7498 78.8329C85.4385 79.9224 83.7267 80.4671 83.7267 80.4671C83.7267 80.4671 81.8592 81.9457 80.5363 83.4243C79.1357 84.8251 78.2798 80.078 78.2798 80.078Z" fill="#E8A997"/>
    <path d="M95.0871 74.9417C95.6318 75.0195 95.943 75.1751 95.8652 75.5642C95.7874 75.9533 95.2427 76.1868 94.698 76.1868C94.1533 76.109 93.064 75.4864 93.064 75.4864" fill="#BE00F3"/>
    <path d="M62.7169 57.6654C61.005 57.0428 57.1922 62.7238 56.4919 68.8716C55.8694 75.0195 52.29 65.2919 52.29 65.2919L55.4804 57.432L60.2269 53.3853" fill="#009C6D"/>
    <path d="M67.5414 51.2063C68.3579 51.2063 69.0199 49.9868 69.0199 48.4825C69.0199 46.9782 68.3579 45.7588 67.5414 45.7588C66.7249 45.7588 66.063 46.9782 66.063 48.4825C66.063 49.9868 66.7249 51.2063 67.5414 51.2063Z" fill="white"/>
    <path d="M67.4635 47.9377C67.8526 48.9494 68.086 49.3385 68.3972 49.6498C68.7085 49.9611 68.9419 50.1946 68.9419 50.6615C68.9419 50.8949 68.6307 51.2841 68.2416 51.5953C67.7747 51.9066 66.7632 52.0623 66.7632 52.0623" fill="#F7C8BB"/>
    <path d="M91.1186 81.4787L78.9799 77.5877C78.513 77.432 77.9683 76.2647 78.2795 75.72L90.4183 58.5993C90.7295 58.1324 91.4299 57.8211 91.8967 57.9768L104.347 61.4787C104.58 61.79 104.736 62.646 104.425 63.113L92.597 80.8561C92.2858 81.4009 91.6633 81.6344 91.1186 81.4787Z" fill="black"/>
    <path d="M91.2742 80.6229C91.1964 80.6229 91.1186 80.6229 91.0408 80.6229L78.8242 76.654C78.6686 76.5762 78.5129 76.4984 78.5129 76.3428C78.4351 76.1871 78.5129 75.8758 78.6686 75.6424L90.4961 57.8992C90.7295 57.5101 91.1964 57.2766 91.5854 57.2766C91.6633 57.2766 91.7411 57.2766 91.8189 57.2766L104.035 61.2455C104.191 61.3233 104.347 61.4011 104.347 61.5568C104.425 61.7124 104.347 62.0237 104.191 62.2572L92.3636 80.0003C92.1301 80.3895 91.6633 80.6229 91.2742 80.6229Z" fill="white"/>
    <path d="M91.5078 57.4324C91.5856 57.4324 91.6634 57.4324 91.7412 57.4324L103.958 61.4012C104.113 61.4791 104.191 61.4791 104.191 61.6347C104.269 61.7904 104.191 61.946 104.036 62.1795L92.2081 79.9226C91.9747 80.2339 91.5856 80.4674 91.2744 80.4674C91.1965 80.4674 91.1187 80.4674 91.0409 80.4674L78.8244 76.4985C78.6687 76.4207 78.5909 76.4207 78.5909 76.2651C78.5131 76.1094 78.5909 75.9538 78.7465 75.7203L90.574 57.9771C90.7297 57.6658 91.1187 57.4324 91.5078 57.4324ZM91.5078 57.1211C91.0409 57.1211 90.574 57.3546 90.3406 57.8215L78.5131 75.5647C78.2019 76.0316 78.2797 76.5763 78.8244 76.732L91.0409 80.7009C91.1187 80.7009 91.1965 80.7787 91.3522 80.7787C91.819 80.7787 92.2859 80.5452 92.5194 80.0783L104.269 62.3351C104.58 61.8682 104.502 61.3234 103.958 61.1678L91.819 57.1989C91.6634 57.1211 91.5856 57.1211 91.5078 57.1211Z" fill="#292929"/>
    <path d="M103.569 63.4243L89.5625 58.9107L90.3406 57.7434C90.6519 57.2764 91.2744 56.9652 91.7413 57.1208L104.036 61.0897C104.502 61.2453 104.658 61.7122 104.269 62.257L103.569 63.4243Z" fill="#292929"/>
    <path d="M95.4408 71.153C96.2615 70.6021 96.5968 69.6637 96.1896 69.0571C95.7825 68.4504 94.7871 68.4052 93.9664 68.9561C93.1458 69.507 92.8105 70.4454 93.2177 71.0521C93.6248 71.6587 94.6202 71.7039 95.4408 71.153Z" fill="#EE0000"/>
    <path d="M91.3398 69.5652C91.9464 69.158 92.2051 68.4807 91.9177 68.0525C91.6303 67.6243 90.9056 67.6072 90.299 68.0144C89.6924 68.4216 89.4337 69.0989 89.7211 69.5271C90.0085 69.9553 90.7332 69.9724 91.3398 69.5652Z" fill="#EE0000"/>
    <path d="M87.7712 68.1535C88.1281 67.914 88.2814 67.5173 88.1138 67.2675C87.9461 67.0177 87.521 67.0094 87.1641 67.2489C86.8073 67.4884 86.654 67.8851 86.8216 68.1349C86.9893 68.3847 87.4144 68.393 87.7712 68.1535Z" fill="#EE0000"/>
    <path d="M65.752 85.8367C66.9191 85.7589 75.7898 81.6344 79.2913 78.9106C79.2913 78.9106 80.3029 78.9106 80.8476 79.611C81.3923 80.2336 81.8591 81.0896 81.8591 82.4904C81.8591 83.8912 77.9685 88.4048 77.9685 88.4048C77.9685 88.4048 71.6657 92.7628 69.2535 93.2297C66.8413 93.7745 65.752 85.8367 65.752 85.8367Z" fill="#A60000"/>
    <path d="M67.5415 51.4398C66.5299 51.4398 65.8296 50.1168 65.8296 48.4826C65.8296 46.8483 66.6077 45.5254 67.5415 45.5254C68.553 45.5254 69.2533 46.8483 69.2533 48.4826C69.2533 50.1168 68.553 51.4398 67.5415 51.4398ZM67.5415 45.9923C66.8412 45.9923 66.2965 47.1596 66.2965 48.4826C66.2965 49.8055 66.8412 50.9729 67.5415 50.9729C68.2418 50.9729 68.7865 49.8055 68.7865 48.4826C68.7865 47.1596 68.2418 45.9923 67.5415 45.9923Z" fill="#EE0000"/>
    <path d="M68.1641 45.9922C68.2419 46.8482 67.386 47.7821 67.6194 48.4047C67.6194 48.4047 68.3197 49.8054 68.0085 51.5175C67.775 52.7626 67.5416 53.2296 66.8413 54.3191C65.6741 56.2646 65.7519 57.2762 64.6625 57.8988C63.1841 58.7548 61.0053 56.3424 60.0716 57.1206C60.0716 57.1206 57.6594 58.8327 55.4028 60.7782C53.1463 62.8015 52.5238 65.3696 52.5238 65.3696L48.4775 63.8132C48.4775 63.8132 49.4891 54.786 49.8004 53.6965C50.1894 52.607 50.8897 49.8054 50.5007 47.0039C50.1116 44.2023 50.345 38.4436 56.1032 37.1206C61.8613 35.7977 65.4407 39.0661 66.6078 40.5447C67.775 42.1012 68.1641 45.9922 68.1641 45.9922Z" fill="#F7C8BB"/>
    <mask id="mask3_6736_107785" style="mask-type:luminance" maskUnits="userSpaceOnUse" x="48" y="36" width="21" height="35">
      <path d="M68.1641 45.9923C68.1641 45.9923 67.775 42.0234 66.6079 40.5448C65.4407 38.9884 61.8613 35.7199 56.1032 37.1207C50.345 38.4437 50.0338 44.2024 50.5007 47.004C50.8897 49.8055 50.1894 52.6071 49.8004 53.6966C49.4113 54.7861 48.4775 63.8133 48.4775 63.8133L52.2903 65.2919C52.2903 65.2919 55.8697 75.0195 56.4922 68.8717C57.1147 63.1907 60.4607 57.8211 62.3282 57.5876C63.1063 57.9767 64.04 58.288 64.7403 57.8989C65.7519 57.2764 65.6741 56.2647 66.9191 54.3192C67.5416 53.2297 67.8529 52.7627 68.0863 51.5176C68.3975 49.8055 67.6972 48.4048 67.6972 48.4048C67.386 47.7822 68.3197 46.9262 68.1641 45.9923Z" fill="white"/>
    </mask>
    <g mask="url(#mask3_6736_107785)">
      <path d="M62.7172 52.2959C63.0285 52.6072 62.9507 54.6305 62.9507 55.5644C62.9507 56.4982 63.4176 57.8212 63.8844 57.899C64.3513 57.9768 64.5847 57.9768 64.5847 57.9768C64.5847 57.9768 64.5069 58.5216 63.2619 58.6772C62.0169 58.8328 60.6163 59.8445 60.1494 60.7005C59.6826 61.4787 58.3597 63.4243 58.3597 63.4243L57.3482 65.0585L55.5585 62.1791L55.1694 59.6889L56.5701 56.9651L58.3597 54.397L60.6163 50.6616L62.3282 50.3503L62.8729 50.8951L63.2619 51.4398" fill="#E8A997"/>
    </g>
    <path d="M46.4541 84.4359C47.0766 86.6927 47.8547 89.4165 48.2438 91.7511C48.7107 94.864 47.8547 98.5215 47.8547 98.5215C47.8547 98.5215 49.5666 98.9885 56.0251 98.9885C62.4835 98.9885 64.5066 98.4437 64.5066 98.4437C64.5066 98.4437 64.5844 94.0857 64.351 91.2064C64.1176 88.327 63.6507 84.7472 63.8841 83.2686C64.1176 81.79 65.596 79.8445 65.1291 77.1986C64.6622 74.5527 62.2501 72.9962 61.4719 71.362C60.6938 69.7278 58.2038 64.2803 54.9357 64.2025C51.5897 64.1247 47.1544 64.5916 44.7422 70.1169C43.0304 73.9301 44.1976 76.1091 45.3647 80.4671C45.676 81.5566 45.9872 82.7239 46.2985 83.8134C46.3763 83.969 46.3763 84.2025 46.4541 84.4359Z" fill="#EE0000"/>
    <mask id="mask4_6736_107785" style="mask-type:luminance" maskUnits="userSpaceOnUse" x="43" y="64" width="23" height="35">
      <path d="M46.4541 84.4359C47.0766 86.6927 47.8547 89.4165 48.2438 91.7511C48.7107 94.864 47.8547 98.5215 47.8547 98.5215C47.8547 98.5215 49.5666 98.9885 56.0251 98.9885C62.4835 98.9885 64.5066 98.4437 64.5066 98.4437C64.5066 98.4437 64.5844 94.0857 64.351 91.2064C64.1176 88.327 63.6507 84.7472 63.8841 83.2686C64.1176 81.79 65.596 79.8445 65.1291 77.1986C64.6622 74.5527 62.2501 72.9962 61.4719 71.362C60.6938 69.7278 58.2038 64.2803 54.9357 64.2025C51.5897 64.1247 47.1544 64.5916 44.7422 70.1169C43.0304 73.9301 44.1976 76.1091 45.3647 80.4671C45.676 81.5566 45.9872 82.7239 46.2985 83.8134C46.3763 83.969 46.3763 84.2025 46.4541 84.4359Z" fill="white"/>
    </mask>
    <g mask="url(#mask4_6736_107785)">
      <path d="M51.8232 72.218C51.8232 72.218 54.3911 75.9534 54.4689 84.6694C54.6245 93.3853 54.8579 98.2102 58.9042 102.257C62.9504 106.304 62.0167 94.7083 62.0167 94.7083L58.5151 75.6422L56.0251 71.2842" fill="#A60000"/>
      <path d="M58.3594 62.1012C58.3594 62.1012 58.126 63.8132 52.7569 67.7043C47.3879 71.5954 45.8316 78.7549 48.4772 86.1479C51.1229 93.5409 51.045 94.8638 50.9672 101.712C50.8894 108.56 44.5088 100.623 44.5088 100.623L41.5519 88.5603L40.6182 78.3658L41.8632 74.0078L45.3647 69.0273L48.2438 65.9144L51.2785 62.8016L53.146 60.1557L54.7022 58.7549" fill="#A60000"/>
    </g>
    <path d="M77.7349 83.4242C80.1471 81.5565 81.3921 79.6888 81.9367 79.0663C82.4814 78.4437 82.8705 77.5877 83.1039 76.8095C83.3374 76.0313 85.5161 76.4982 86.2942 77.1986C87.0724 77.899 86.372 80.0779 86.372 80.0779C86.372 80.0779 85.0492 80.7783 84.2711 81.9457C81.3921 86.0702 79.758 89.7277 78.5908 90.3503" fill="#F7C8BB"/>
    <path d="M81.4697 79.611C81.9366 78.8328 83.415 75.0974 83.5707 74.1636C83.7263 73.3075 83.5707 72.9962 84.271 72.4515C84.9713 71.9067 85.9829 71.1285 86.5275 70.8172C87.0722 70.506 87.6169 70.1947 88.4729 69.7278C89.3288 69.2608 89.9513 68.7939 90.1847 68.7161C90.4182 68.6383 90.496 68.5604 90.6516 68.7161C90.8072 68.7939 90.885 69.0274 90.4182 69.6499C89.8735 70.2725 88.3172 71.1285 87.6169 71.9067C87.6169 71.9067 87.8504 71.7511 88.2394 71.8289C88.6285 71.9067 88.8619 72.1402 88.9397 72.2958C89.0175 72.4515 88.8619 72.685 88.8619 72.685C88.8619 72.685 89.251 72.6071 89.5622 72.685C89.8735 72.7628 90.1069 72.9962 90.1069 73.3075C90.1069 73.6188 90.0291 74.0079 90.0291 74.0079C90.0291 74.0079 90.2625 73.9301 90.496 74.0857C90.7294 74.2414 90.885 74.6305 90.8072 75.0974C90.7294 75.5643 90.5738 76.2647 90.4182 76.4982C90.2625 76.7316 89.64 77.1207 89.251 77.432C88.9397 77.6655 88.5507 77.3542 88.5507 77.2764C88.5507 77.1986 88.5507 76.7316 88.5507 76.7316C88.5507 76.7316 87.8504 77.5099 87.5391 78.3659C87.2279 79.2219 86.3719 80.0001 85.9829 80.4671C85.5938 80.8562 84.1932 81.6344 83.8041 82.3348" fill="#F7C8BB"/>
    <path d="M48.1662 96.4981C48.0106 98.4436 44.8981 103.813 43.7309 108.638C42.6415 113.074 44.0421 118.911 45.8318 124.358C46.6099 126.848 49.2556 134.397 49.5668 139.533C49.8002 143.58 48.7887 149.494 53.4574 149.961C58.1262 150.428 64.9737 146.459 65.3627 139.377C65.8296 132.296 65.7518 124.591 65.2071 118.599C64.6624 112.685 63.3396 104.591 63.4952 102.802C63.573 101.012 63.4174 96.6537 63.4174 96.6537C63.4174 96.6537 50.734 94.9416 48.1662 96.4981Z" fill="#003366"/>
    <path d="M49.5665 146.226C49.5665 148.872 46.9987 158.055 46.1428 162.724C45.3647 167.393 46.1428 176.031 48.0103 178.288L47.5434 181.946C47.5434 181.946 47.2322 182.49 50.2669 182.802C53.3015 183.113 53.8462 182.88 53.8462 182.88C53.8462 180.623 54.9356 178.288 54.9356 178.288C56.5697 175.798 58.904 170.895 59.8378 168.094C63.4172 157.977 64.6622 145.059 65.0512 140.545C65.3625 136.265 59.5265 136.031 55.6359 136.031C51.7453 136.031 48.7106 134.786 48.7106 134.786C48.7106 134.786 49.6444 138.988 49.5665 146.226Z" fill="#003366"/>
    <path d="M52.2124 179.533C50.1893 179.533 48.633 178.911 48.4774 178.911C48.3218 178.833 48.3218 178.755 48.3218 178.599C48.3996 178.444 48.4774 178.444 48.633 178.444C48.633 178.444 51.3565 179.533 54.0799 178.833C54.2355 178.833 54.3133 178.911 54.3912 178.988C54.3912 179.144 54.3133 179.222 54.2355 179.3C53.5352 179.455 52.8349 179.533 52.2124 179.533Z" fill="black"/>
    <path d="M63.4176 102.802C63.4954 101.012 63.3398 96.6538 63.3398 96.6538C63.3398 96.6538 59.8382 96.1868 56.181 95.9534C52.8351 95.7977 49.3335 95.7977 48.0885 96.4981C48.0885 97.1207 47.6995 97.9767 47.3104 99.144C46.2989 101.712 44.5092 105.292 43.6532 108.716C42.5639 113.152 43.9645 118.988 45.7542 124.436C46.221 125.837 47.3104 129.027 48.1664 132.374C47.5439 126.615 46.6101 121.556 45.9876 118.444C44.5092 110.895 46.6101 107.938 47.6217 105.603C48.322 104.125 49.567 101.167 50.2673 98.8328C52.1348 98.6771 54.7026 98.6771 57.6595 98.9884C59.2157 101.245 61.3945 103.502 63.4954 104.825C63.4176 103.891 63.4176 103.191 63.4176 102.802Z" fill="black"/>
    <path d="M69.6423 46.926H63.2617V47.393H69.6423V46.926Z" fill="#EE0000"/>
    <path d="M61.5497 51.5952C61.5497 51.5952 61.0828 54.4746 60.6938 58.4435C60.3047 62.8793 64.2731 70.0388 60.6938 75.7197L56.5697 74.0855C56.5697 74.0855 56.9588 72.4512 56.2584 69.8832C55.4803 67.3929 55.0134 65.0582 55.1691 63.8909C55.1691 63.8909 55.4025 59.1439 53.7684 56.3423C53.3794 55.7197 52.9903 55.0193 52.5234 54.2411" fill="black"/>
    <path d="M56.0251 60.6226C56.1029 58.6771 57.0367 62.5681 57.5036 63.4241C58.2039 64.8249 61.1608 65.9922 62.4836 67.0039C63.962 68.1712 64.7401 70.1168 64.8957 74.1634C65.0514 78.288 66.8411 88.0156 68.0082 90.5059C69.0976 92.9961 72.5214 98.288 70.187 100.156C67.8526 101.946 64.9736 101.868 62.9504 100.311C61.1607 98.9105 59.1376 95.0195 57.5814 89.572C56.492 85.8366 55.7139 81.1673 54.5467 77.5097C54.1576 76.3424 53.7686 75.642 52.9126 74.7082C52.1345 73.8522 49.0998 73.8522 49.4889 72.4514C49.5667 72.0623 49.8779 71.751 50.1114 71.5175C52.0567 69.6498 52.0567 68.0156 53.8464 66.1479C55.7917 64.0467 56.492 63.8911 56.1029 61.323C56.0251 61.0117 56.0251 60.8561 56.0251 60.6226Z" fill="#EE0000"/>
    <path d="M67.1524 90.8171C73.1439 87.9378 77.8127 82.7238 79.6024 81.1673C79.6024 81.1673 81.0808 80.7782 82.7927 81.6343C84.5045 82.4903 84.1933 85.9144 84.1933 85.9144C84.1933 85.9144 82.637 86.3813 81.3142 88.0934C80.4583 89.1829 75.9452 94.8638 73.2995 97.6654C72.2102 98.8327 70.8874 100 69.9536 100.467C68.3195 101.401 66.6855 101.479 64.8958 101.09C63.8064 100.856 62.4836 100.078 61.7833 98.9883C60.1492 96.3424 67.1524 90.8171 67.1524 90.8171Z" fill="#EE0000"/>
    <path d="M68.7086 93.7742C68.5529 93.7742 68.4751 93.6964 68.4751 93.5408C68.2417 92.14 68.0082 91.284 67.9304 91.284C67.8526 91.1283 67.9304 91.0505 68.0861 90.9727C68.2417 90.8948 68.3195 90.9727 68.3973 91.1283C68.3973 91.1283 68.7086 92.0622 68.942 93.4629C69.0198 93.6186 68.8642 93.7742 68.7086 93.7742Z" fill="#A60000"/>
    <path d="M56.7253 61.323V61.0117C54.8578 61.4786 51.3562 64.1246 51.3562 64.1246L48.8662 67.0039L51.9787 68.1712C53.8462 67.0039 56.414 65.1362 57.4256 63.0351C57.1922 62.646 56.9587 61.9456 56.7253 61.323Z" fill="#A60000"/>
    <path d="M60.227 57.6654C60.4604 56.965 60.6939 56.1868 60.6939 55.253C60.6939 55.253 61.472 52.2958 61.9389 48.9495C62.0167 48.0935 63.5729 47.9378 63.8842 48.6382C64.1954 49.3386 64.7401 49.6499 64.9735 49.0273C65.1292 48.4047 65.5182 47.2374 66.1407 46.8483C66.7632 46.4592 67.3857 44.9028 67.3857 44.9028C67.9304 43.9689 67.8526 42.8016 67.8526 42.8016C67.7748 40.7783 62.9504 36.0312 57.5035 36.2647C55.7139 36.3425 53.8464 36.8094 52.4457 37.9767C49.8779 40.0779 49.411 43.7355 49.4889 46.8483C49.4889 48.6382 49.2554 54.3191 49.022 56.1868C48.2439 62.7238 46.532 63.4242 43.2639 67.7043C39.9957 71.9845 37.4279 78.0545 37.9726 83.1907C38.5173 88.3269 42.3301 90.4281 44.1198 90.5837C45.8317 90.6615 47.1545 89.4942 47.3101 87.6265C47.4657 85.7588 44.8979 80.7783 45.5982 76.965C46.2985 73.074 49.3332 68.9495 53.9242 65.4475C58.4373 61.8678 59.4489 60.7783 60.227 57.6654Z" fill="black"/>
    <path d="M63.9623 48.9496C63.9623 48.9496 63.8845 47.8601 63.0285 47.5488C62.1726 47.2375 61.3945 48.5605 61.6279 50.2725C61.7835 51.9846 63.262 52.6071 63.262 52.6071" fill="#F7C8BB"/>
    <path d="M66.6076 46.2258C66.9967 45.6811 67.3079 44.9807 67.3079 44.9807C67.8526 44.0468 67.7748 42.8795 67.7748 42.8795C67.697 40.8562 62.8726 36.1091 57.4257 36.3425C57.2701 36.3425 57.0367 36.3425 56.8032 36.3425C58.3595 36.2647 65.4404 38.0546 66.6076 46.2258Z" fill="#292929"/>
    <path d="M67.4636 48.4046C67.308 48.4046 67.1524 48.3268 67.2302 48.1712C67.2302 48.0155 67.308 47.9377 67.4636 47.9377C67.697 47.9377 67.8527 47.9377 67.9305 47.8599C68.0083 47.7821 68.1639 47.8599 68.2417 47.9377C68.3195 48.0155 68.2417 48.1712 68.1639 48.249C67.9305 48.4046 67.697 48.4046 67.4636 48.4046Z" fill="black"/>
    <path d="M68.242 46.2258C68.0864 46.0701 67.7751 45.9923 67.4639 46.3036C67.4639 46.3036 67.6195 45.8367 67.9307 45.681C68.242 45.6032 68.3198 45.9923 68.242 46.2258Z" fill="black"/>
  </g>
  <defs>
    <clipPath id="clip0_6736_107785">
      <rect width="249" height="200" fill="white"/>
    </clipPath>
  </defs>
</svg>
