<svg width="334" height="150" viewBox="0 0 334 110" fill="none" xmlns="http://www.w3.org/2000/svg">
<path d="M301.331 37.1242C313.117 42.8274 322.271 52.7372 327.747 67.1801C338.773 96.2594 332.854 130.435 315.294 155.321C306.714 167.481 295.951 177.454 285.895 188.217C275.442 199.403 266.749 212.03 257.839 224.536C242.959 245.432 225.88 266.032 201.757 275.208C175.355 285.251 146.155 280.431 122.129 266.085C97.9534 251.649 77.144 231.983 52.9347 217.436C30.672 204.06 9.29923 188.764 2.37276 161.384C-4.71371 133.382 4.75269 105.602 21.7389 83.773C30.8386 72.0767 41.6783 63.6469 50.9781 52.1105C59.8445 41.1108 67.8476 27.4745 78.9006 18.778C99.6667 2.43513 125.056 -3.81471 150.532 2.30846C174.011 7.95165 194.547 22.0546 217.653 28.8678C237.09 34.5976 258.026 30.1611 278.022 31.3577C286.561 31.8677 294.401 33.7677 301.331 37.1209V37.1242Z" fill="#B9E5E5"/>
<path d="M191.01 292.896C191.01 288.152 192.213 283.326 193.143 280.529L204.223 282.733C204.223 287.136 205.266 290.476 206.819 291.406C206.819 291.406 204.899 295.606 199.816 295.946C194.733 296.286 191.006 292.896 191.006 292.896H191.01Z" fill="#E8A997"/>
<path d="M108.569 91.7578H17.2354V143.133H108.569V91.7578Z" fill="#64BDBD"/>
<path d="M210.21 91.7578H118.876V143.133H210.21V91.7578Z" fill="#64BDBD"/>
<path d="M311.882 91.7578H220.548V143.133H311.882V91.7578Z" fill="#64BDBD"/>
<path d="M108.569 30.4883H17.2354V81.8636H108.569V30.4883Z" fill="#64BDBD"/>
<path d="M210.21 30.4883H118.876V81.8636H210.21V30.4883Z" fill="#64BDBD"/>
<path d="M311.882 30.4883H220.548V81.8636H311.882V30.4883Z" fill="#64BDBD"/>
<path d="M108.569 153.021H17.2354V204.397H108.569V153.021Z" fill="#64BDBD"/>
<path d="M210.21 153.021H118.876V204.397H210.21V153.021Z" fill="#64BDBD"/>
<path d="M311.882 153.021H220.548V204.397H311.882V153.021Z" fill="#64BDBD"/>
<path fill-rule="evenodd" clip-rule="evenodd" d="M6.54688 223.803C6.54688 223.527 6.77073 223.303 7.04686 223.303H323.065C323.341 223.303 323.565 223.527 323.565 223.803C323.565 224.079 323.341 224.303 323.065 224.303H7.04686C6.77073 224.303 6.54688 224.079 6.54688 223.803Z" fill="#EE0000"/>
<path d="M113.539 86.7871H22.2051V138.162H113.539V86.7871Z" fill="white"/>
<path fill-rule="evenodd" clip-rule="evenodd" d="M21.7036 86.2871H114.038V138.662H21.7036V86.2871ZM22.7036 87.2871V137.662H113.038V87.2871H22.7036Z" fill="black"/>
<path d="M215.18 86.7871H123.846V138.162H215.18V86.7871Z" fill="white"/>
<path fill-rule="evenodd" clip-rule="evenodd" d="M123.345 86.2871H215.679V138.662H123.345V86.2871ZM124.345 87.2871V137.662H214.679V87.2871H124.345Z" fill="black"/>
<path d="M316.852 86.7871H225.518V138.162H316.852V86.7871Z" fill="white"/>
<path fill-rule="evenodd" clip-rule="evenodd" d="M225.016 86.2871H317.35V138.662H225.016V86.2871ZM226.016 87.2871V137.662H316.35V87.2871H226.016Z" fill="black"/>
<path d="M113.539 25.5176H22.2051V76.8929H113.539V25.5176Z" fill="white"/>
<path fill-rule="evenodd" clip-rule="evenodd" d="M21.7036 25.0176H114.038V77.3929H21.7036V25.0176ZM22.7036 26.0176V76.3929H113.038V26.0176H22.7036Z" fill="black"/>
<path d="M215.18 25.5176H123.846V76.8929H215.18V25.5176Z" fill="white"/>
<path fill-rule="evenodd" clip-rule="evenodd" d="M123.344 25.0176H215.678V77.3929H123.344V25.0176ZM124.344 26.0176V76.3929H214.678V26.0176H124.344Z" fill="black"/>
<path d="M316.852 25.5176H225.518V76.8929H316.852V25.5176Z" fill="white"/>
<path fill-rule="evenodd" clip-rule="evenodd" d="M225.016 25.0176H317.35V77.3929H225.016V25.0176ZM226.016 26.0176V76.3929H316.35V26.0176H226.016Z" fill="black"/>
<path d="M113.539 148.051H22.2051V199.426H113.539V148.051Z" fill="white"/>
<path fill-rule="evenodd" clip-rule="evenodd" d="M21.7036 147.551H114.038V199.926H21.7036V147.551ZM22.7036 148.551V198.926H113.038V148.551H22.7036Z" fill="black"/>
<path d="M215.18 148.051H123.846V199.426H215.18V148.051Z" fill="white"/>
<path fill-rule="evenodd" clip-rule="evenodd" d="M123.345 147.551H215.679V199.926H123.345V147.551ZM124.345 148.551V198.926H214.679V148.551H124.345Z" fill="black"/>
<path d="M316.852 148.051H225.518V199.426H316.852V148.051Z" fill="white"/>
<path fill-rule="evenodd" clip-rule="evenodd" d="M225.016 147.551H317.35V199.926H225.016V147.551ZM226.016 148.551V198.926H316.35V148.551H226.016Z" fill="black"/>
<path d="M109.816 90.5156H25.9419V134.431H109.816V90.5156Z" fill="white"/>
<path d="M109.816 90.5156H25.9419V134.431H109.816V90.5156Z" fill="white"/>
<path d="M211.443 90.5156H127.568V134.431H211.443V90.5156Z" fill="white"/>
<path d="M211.443 90.5156H127.568V134.431H211.443V90.5156Z" fill="white"/>
<path d="M313.125 90.5156H229.25V134.431H313.125V90.5156Z" fill="white"/>
<path d="M313.125 90.5156H229.25V134.431H313.125V90.5156Z" fill="white"/>
<path d="M109.816 29.25H25.9419V73.1655H109.816V29.25Z" fill="white"/>
<path d="M109.816 29.25H25.9419V73.1655H109.816V29.25Z" fill="white"/>
<path d="M211.443 29.25H127.568V73.1655H211.443V29.25Z" fill="white"/>
<path d="M211.443 29.25H127.568V73.1655H211.443V29.25Z" fill="white"/>
<path d="M109.816 151.779H25.9419V195.695H109.816V151.779Z" fill="white"/>
<path d="M109.816 151.779H25.9419V195.695H109.816V151.779Z" fill="white"/>
<path d="M211.443 151.779H127.568V195.695H211.443V151.779Z" fill="white"/>
<path d="M211.443 151.779H127.568V195.695H211.443V151.779Z" fill="white"/>
<path d="M313.125 151.779H229.25V195.695H313.125V151.779Z" fill="white"/>
<path d="M313.125 151.779H229.25V195.695H313.125V151.779Z" fill="white"/>
<mask id="mask0_2696_82772" style="mask-type:luminance" maskUnits="userSpaceOnUse" x="25" y="29" width="289" height="167">
<path d="M25.9443 134.434V90.5184H109.819V134.434H25.9443ZM211.456 134.434V90.5184H127.582V134.434H211.456ZM313.13 134.434V90.5184H229.255V134.434H313.13ZM109.819 73.1655V29.25H25.9443V73.1655H109.819ZM211.456 73.1655V29.25H127.582V73.1655H211.456ZM313.13 73.1655V29.25H229.255V73.1655H313.13ZM109.819 195.702V151.787H25.9443V195.702H109.819ZM211.456 195.702V151.787H127.582V195.702H211.456ZM313.13 195.702V151.787H229.255V195.702H313.13Z" fill="white"/>
</mask>
<g mask="url(#mask0_2696_82772)">
<path fill-rule="evenodd" clip-rule="evenodd" d="M169.194 46.1751C169.194 43.0744 171.709 40.5586 174.81 40.5586H266.498C269.598 40.5586 272.114 43.0744 272.114 46.1751V53.3249C272.114 56.0574 274.331 58.2748 277.064 58.2748H285.144C288.244 58.2748 290.76 60.7906 290.76 63.8913V107.094C290.76 110.194 288.244 112.71 285.144 112.71H179.16C176.427 112.71 174.21 114.927 174.21 117.66V165.525C174.21 168.258 176.427 170.475 179.16 170.475H266.498C269.598 170.475 272.114 172.991 272.114 176.092V199.428H271.447V176.092C271.447 173.359 269.23 171.142 266.498 171.142H179.16C176.059 171.142 173.543 168.626 173.543 165.525V117.66C173.543 114.559 176.059 112.043 179.16 112.043H285.144C287.876 112.043 290.094 109.826 290.094 107.094V63.8913C290.094 61.1588 287.876 58.9415 285.144 58.9415H277.064C273.963 58.9415 271.447 56.4256 271.447 53.3249V46.1751C271.447 43.4426 269.23 41.2252 266.498 41.2252H174.81C172.078 41.2252 169.86 43.4426 169.86 46.1751C169.86 49.2758 167.344 51.7916 164.244 51.7916H68.8231C66.0906 51.7916 63.8732 54.009 63.8732 56.7415V107.247C63.8732 110.348 61.3574 112.863 58.2567 112.863H51.5735C48.841 112.863 46.6237 115.081 46.6237 117.813V168.475C46.6237 171.208 48.841 173.425 51.5735 173.425H113.425V174.092H51.5735C48.4729 174.092 45.957 171.576 45.957 168.475V117.813C45.957 114.713 48.4729 112.197 51.5735 112.197H58.2567C60.9892 112.197 63.2065 109.979 63.2065 107.247V56.7415C63.2065 53.6408 65.7224 51.125 68.8231 51.125H164.244C166.976 51.125 169.194 48.9076 169.194 46.1751Z" fill="#EE0000"/>
<path fill-rule="evenodd" clip-rule="evenodd" d="M52.3515 115.975C50.9046 115.975 49.7316 117.148 49.7316 118.595C49.7316 120.042 50.9046 121.215 52.3515 121.215C53.7985 121.215 54.9714 120.042 54.9714 118.595C54.9714 117.148 53.7985 115.975 52.3515 115.975ZM49.0649 118.595C49.0649 116.78 50.5364 115.309 52.3515 115.309C54.1666 115.309 55.6381 116.78 55.6381 118.595C55.6381 120.41 54.1666 121.882 52.3515 121.882C50.5364 121.882 49.0649 120.41 49.0649 118.595Z" fill="#EE0000"/>
<path fill-rule="evenodd" clip-rule="evenodd" d="M52.3515 165.081C50.9046 165.081 49.7316 166.254 49.7316 167.701C49.7316 169.148 50.9046 170.321 52.3515 170.321C53.7985 170.321 54.9714 169.148 54.9714 167.701C54.9714 166.254 53.7985 165.081 52.3515 165.081ZM49.0649 167.701C49.0649 165.886 50.5364 164.414 52.3515 164.414C54.1666 164.414 55.6381 165.886 55.6381 167.701C55.6381 169.516 54.1666 170.987 52.3515 170.987C50.5364 170.987 49.0649 169.516 49.0649 167.701Z" fill="#EE0000"/>
<path fill-rule="evenodd" clip-rule="evenodd" d="M180.087 161.973C178.64 161.973 177.467 163.146 177.467 164.593C177.467 166.04 178.64 167.213 180.087 167.213C181.534 167.213 182.707 166.04 182.707 164.593C182.707 163.146 181.534 161.973 180.087 161.973ZM176.801 164.593C176.801 162.778 178.272 161.307 180.087 161.307C181.902 161.307 183.374 162.778 183.374 164.593C183.374 166.408 181.902 167.88 180.087 167.88C178.272 167.88 176.801 166.408 176.801 164.593Z" fill="#EE0000"/>
<path fill-rule="evenodd" clip-rule="evenodd" d="M180.087 115.661C178.64 115.661 177.467 116.834 177.467 118.281C177.467 119.728 178.64 120.901 180.087 120.901C181.534 120.901 182.707 119.728 182.707 118.281C182.707 116.834 181.534 115.661 180.087 115.661ZM176.801 118.281C176.801 116.466 178.272 114.994 180.087 114.994C181.902 114.994 183.374 116.466 183.374 118.281C183.374 120.096 181.902 121.567 180.087 121.567C178.272 121.567 176.801 120.096 176.801 118.281Z" fill="#EE0000"/>
<path fill-rule="evenodd" clip-rule="evenodd" d="M284.213 103.54C282.766 103.54 281.593 104.713 281.593 106.16C281.593 107.607 282.766 108.78 284.213 108.78C285.66 108.78 286.833 107.607 286.833 106.16C286.833 104.713 285.66 103.54 284.213 103.54ZM280.927 106.16C280.927 104.345 282.398 102.873 284.213 102.873C286.028 102.873 287.5 104.345 287.5 106.16C287.5 107.975 286.028 109.446 284.213 109.446C282.398 109.446 280.927 107.975 280.927 106.16Z" fill="#EE0000"/>
<path fill-rule="evenodd" clip-rule="evenodd" d="M284.213 62.2018C282.766 62.2018 281.593 63.3748 281.593 64.8217C281.593 66.2687 282.766 67.4417 284.213 67.4417C285.66 67.4417 286.833 66.2687 286.833 64.8217C286.833 63.3748 285.66 62.2018 284.213 62.2018ZM280.927 64.8217C280.927 63.0066 282.398 61.5352 284.213 61.5352C286.028 61.5352 287.5 63.0066 287.5 64.8217C287.5 66.6369 286.028 68.1083 284.213 68.1083C282.398 68.1083 280.927 66.6369 280.927 64.8217Z" fill="#EE0000"/>
<path fill-rule="evenodd" clip-rule="evenodd" d="M277.995 49.7721C276.548 49.7721 275.375 50.9451 275.375 52.3921C275.375 53.839 276.548 55.012 277.995 55.012C279.442 55.012 280.615 53.839 280.615 52.3921C280.615 50.9451 279.442 49.7721 277.995 49.7721ZM274.708 52.3921C274.708 50.5769 276.18 49.1055 277.995 49.1055C279.81 49.1055 281.282 50.5769 281.282 52.3921C281.282 54.2072 279.81 55.6786 277.995 55.6786C276.18 55.6786 274.708 54.2072 274.708 52.3921Z" fill="#EE0000"/>
<path fill-rule="evenodd" clip-rule="evenodd" d="M265.564 44.485C264.117 44.485 262.944 45.658 262.944 47.1049C262.944 48.5519 264.117 49.7249 265.564 49.7249C267.011 49.7249 268.184 48.5519 268.184 47.1049C268.184 45.658 267.011 44.485 265.564 44.485ZM262.278 47.1049C262.278 45.2898 263.749 43.8184 265.564 43.8184C267.38 43.8184 268.851 45.2898 268.851 47.1049C268.851 48.9201 267.38 50.3915 265.564 50.3915C263.749 50.3915 262.278 48.9201 262.278 47.1049Z" fill="#EE0000"/>
<path fill-rule="evenodd" clip-rule="evenodd" d="M175.743 44.485C174.296 44.485 173.123 45.658 173.123 47.1049C173.123 48.5519 174.296 49.7249 175.743 49.7249C177.19 49.7249 178.363 48.5519 178.363 47.1049C178.363 45.658 177.19 44.485 175.743 44.485ZM172.456 47.1049C172.456 45.2898 173.927 43.8184 175.743 43.8184C177.558 43.8184 179.029 45.2898 179.029 47.1049C179.029 48.9201 177.558 50.3915 175.743 50.3915C173.927 50.3915 172.456 48.9201 172.456 47.1049Z" fill="#EE0000"/>
<path fill-rule="evenodd" clip-rule="evenodd" d="M163.305 42.6217C161.858 42.6217 160.685 43.7947 160.685 45.2417C160.685 46.6886 161.858 47.8616 163.305 47.8616C164.752 47.8616 165.925 46.6886 165.925 45.2417C165.925 43.7947 164.752 42.6217 163.305 42.6217ZM160.018 45.2417C160.018 43.4265 161.49 41.9551 163.305 41.9551C165.12 41.9551 166.591 43.4265 166.591 45.2417C166.591 47.0568 165.12 48.5282 163.305 48.5282C161.49 48.5282 160.018 47.0568 160.018 45.2417Z" fill="#EE0000"/>
<path fill-rule="evenodd" clip-rule="evenodd" d="M69.7529 55.0553C68.3059 55.0553 67.133 56.2283 67.133 57.6753C67.133 59.1222 68.3059 60.2952 69.7529 60.2952C71.1998 60.2952 72.3728 59.1222 72.3728 57.6753C72.3728 56.2283 71.1998 55.0553 69.7529 55.0553ZM66.4663 57.6753C66.4663 55.8601 67.9378 54.3887 69.7529 54.3887C71.568 54.3887 73.0395 55.8601 73.0395 57.6753C73.0395 59.4904 71.568 60.9618 69.7529 60.9618C67.9378 60.9618 66.4663 59.4904 66.4663 57.6753Z" fill="#EE0000"/>
<path fill-rule="evenodd" clip-rule="evenodd" d="M265.564 174.405C264.117 174.405 262.944 175.578 262.944 177.025C262.944 178.472 264.117 179.645 265.564 179.645C267.011 179.645 268.184 178.472 268.184 177.025C268.184 175.578 267.011 174.405 265.564 174.405ZM262.278 177.025C262.278 175.21 263.749 173.738 265.564 173.738C267.38 173.738 268.851 175.21 268.851 177.025C268.851 178.84 267.38 180.311 265.564 180.311C263.749 180.311 262.278 178.84 262.278 177.025Z" fill="#EE0000"/>
<path fill-rule="evenodd" clip-rule="evenodd" d="M57.3222 103.85C55.8753 103.85 54.7023 105.023 54.7023 106.47C54.7023 107.917 55.8753 109.09 57.3222 109.09C58.7692 109.09 59.9421 107.917 59.9421 106.47C59.9421 105.023 58.7692 103.85 57.3222 103.85ZM54.0356 106.47C54.0356 104.655 55.5071 103.184 57.3222 103.184C59.1373 103.184 60.6088 104.655 60.6088 106.47C60.6088 108.285 59.1373 109.757 57.3222 109.757C55.5071 109.757 54.0356 108.285 54.0356 106.47Z" fill="#EE0000"/>
</g>
<path fill-rule="evenodd" clip-rule="evenodd" d="M49.289 223.07C49.2889 223.07 49.289 223.07 49.289 223.07L49.2935 223.065L49.3114 223.048C49.3278 223.032 49.3533 223.007 49.3877 222.975C49.4566 222.91 49.5614 222.814 49.7016 222.69C49.982 222.442 50.4042 222.085 50.9645 221.656C52.0854 220.797 53.7583 219.647 55.9557 218.497C60.3494 216.197 66.8385 213.893 75.2086 213.893C83.5788 213.893 90.0678 216.197 94.4616 218.497C96.6589 219.647 98.3318 220.797 99.4527 221.656C100.013 222.085 100.435 222.442 100.716 222.69C100.856 222.814 100.961 222.91 101.03 222.975C101.064 223.007 101.089 223.032 101.106 223.048L101.124 223.065L101.128 223.069M101.128 223.069C101.323 223.264 101.64 223.264 101.835 223.069C102.03 222.873 102.03 222.557 101.834 222.362L101.502 222.695C101.834 222.362 101.835 222.362 101.834 222.362L101.833 222.361L101.831 222.359L101.825 222.352L101.802 222.33C101.782 222.311 101.753 222.283 101.715 222.247C101.639 222.175 101.526 222.071 101.378 221.94C101.081 221.678 100.641 221.307 100.061 220.862C98.901 219.973 97.18 218.792 94.9254 217.611C90.4152 215.25 83.768 212.893 75.2086 212.893C66.6493 212.893 60.002 215.25 55.4918 217.611C53.2372 218.792 51.5162 219.973 50.3563 220.862C49.7762 221.307 49.3361 221.678 49.0395 221.94C48.8912 222.071 48.7787 222.175 48.7024 222.247C48.6643 222.283 48.6353 222.311 48.6153 222.33L48.5922 222.352L48.5858 222.359L48.5839 222.361C48.5837 222.361 48.5829 222.362 48.9155 222.695L48.5829 222.362C48.3874 222.557 48.3871 222.873 48.5821 223.069C48.7771 223.264 49.0935 223.265 49.289 223.07" fill="black"/>
<path d="M83.2818 213.56V199.273H67.7422V213.56C67.7422 213.56 71.1621 213.273 75.202 213.273C79.2419 213.273 83.2818 213.56 83.2818 213.56Z" fill="black"/>
<path fill-rule="evenodd" clip-rule="evenodd" d="M143.262 222.869L143.026 222.633C142.896 222.763 142.896 222.974 143.026 223.105C143.156 223.235 143.367 223.235 143.497 223.105L143.498 223.104L143.502 223.1L143.521 223.082C143.538 223.065 143.564 223.04 143.599 223.007C143.669 222.941 143.775 222.844 143.917 222.718C144.2 222.468 144.625 222.109 145.189 221.677C146.316 220.813 147.997 219.658 150.204 218.503C154.617 216.193 161.132 213.88 169.534 213.88C177.936 213.88 184.451 216.193 188.864 218.503C191.071 219.658 192.752 220.813 193.88 221.677C194.443 222.109 194.868 222.468 195.152 222.718C195.293 222.844 195.399 222.941 195.469 223.007C195.504 223.04 195.53 223.065 195.547 223.082L195.566 223.1L195.57 223.104L195.571 223.105C195.702 223.235 195.913 223.235 196.043 223.105C196.173 222.974 196.173 222.763 196.042 222.633L195.807 222.869C196.042 222.633 196.042 222.634 196.042 222.633L196.04 222.631L196.034 222.625L196.011 222.603C195.992 222.584 195.964 222.557 195.926 222.522C195.851 222.451 195.74 222.349 195.593 222.219C195.299 221.959 194.862 221.59 194.285 221.148C193.132 220.264 191.419 219.088 189.174 217.912C184.683 215.561 178.062 213.213 169.534 213.213C161.006 213.213 154.385 215.561 149.895 217.912C147.65 219.088 145.937 220.264 144.783 221.148C144.206 221.59 143.769 221.959 143.475 222.219C143.328 222.349 143.217 222.451 143.142 222.522C143.105 222.557 143.076 222.584 143.057 222.603L143.035 222.625L143.029 222.631L143.027 222.633C143.027 222.633 143.026 222.633 143.262 222.869Z" fill="#EE0000"/>
<path d="M177.601 213.702V199.416H162.062V213.702C162.062 213.702 165.481 213.416 169.521 213.416C173.561 213.416 177.601 213.702 177.601 213.702Z" fill="black"/>
<path fill-rule="evenodd" clip-rule="evenodd" d="M245.25 223.224C245.251 223.224 245.25 223.224 245.251 223.224L245.251 223.224L245.251 223.223L245.255 223.22L245.273 223.202C245.289 223.186 245.315 223.162 245.349 223.129C245.418 223.065 245.523 222.968 245.663 222.844C245.944 222.596 246.366 222.24 246.926 221.81C248.047 220.951 249.72 219.802 251.917 218.651C256.311 216.351 262.8 214.047 271.17 214.047C279.54 214.047 286.029 216.351 290.423 218.651C292.62 219.802 294.293 220.951 295.414 221.81C295.975 222.24 296.397 222.596 296.677 222.844C296.817 222.968 296.922 223.065 296.991 223.129C297.025 223.162 297.051 223.186 297.067 223.202L297.085 223.22L297.089 223.223L297.09 223.224C297.09 223.224 297.09 223.224 297.09 223.224" fill="black"/>
<path d="M279.242 213.702V199.416H263.703V213.702C263.703 213.702 267.123 213.416 271.162 213.416C275.202 213.416 279.242 213.702 279.242 213.702Z" fill="black"/>
<path d="M147.797 259.879C146.394 259.879 138.671 259.169 124.388 245.172C110.825 231.879 103.952 218.086 100.575 208.857C96.7687 198.447 96.0054 189.97 96.6787 187.274C97.0987 185.591 98.8653 183.861 100.912 181.861C104.682 178.171 109.368 173.587 108.942 166.588C104.678 164.781 102.312 160.538 102.082 157.855C101.935 157.878 101.755 157.898 101.565 157.898C100.625 157.898 99.9286 157.448 99.602 156.635L99.5553 156.521L99.5953 156.405C99.6053 156.371 100.682 153.095 100.285 150.741C100.079 150.801 99.812 150.858 99.522 150.858C98.6653 150.858 98.0287 150.365 97.7287 149.465L97.6487 149.225L97.862 149.085C97.8787 149.075 99.6053 147.888 99.892 145.592C99.9053 145.485 99.9186 145.298 99.9353 145.052C100.519 136.965 102.929 132.862 107.102 132.862C107.135 132.862 107.165 132.862 107.198 132.862C108.758 130.599 110.695 129.502 113.112 129.502C114.875 129.502 116.595 130.079 118.111 130.589C119.271 130.979 120.275 131.315 121.045 131.315C122.421 131.315 123.608 131.219 124.655 131.135C125.511 131.065 126.248 131.005 126.948 131.005C127.975 131.005 128.918 131.859 130.114 132.939C132.114 134.745 134.854 137.222 139.691 137.222H139.941L140.011 137.465C140.024 137.512 140.334 138.625 139.754 139.395C139.521 139.705 139.184 139.908 138.754 140.005C139.044 140.302 139.548 140.645 140.314 140.645H140.687L140.647 141.015C140.527 142.085 139.788 144.108 137.831 144.108C136.671 144.108 135.651 144.108 134.851 144.262C135.391 146.208 135.988 148.551 135.988 149.368C135.988 149.625 135.961 149.878 135.928 150.111L139.131 150.738L139.091 151.435C139.071 151.811 138.844 155.048 137.394 157.121C137.891 157.685 138.194 158.125 138.298 158.435C138.468 158.945 138.414 159.428 138.148 159.798C137.894 160.148 137.471 160.368 136.961 160.418L136.788 160.808C137.114 161.374 137.814 162.464 138.648 163.091L138.781 163.191V163.358C138.781 164.031 138.418 165.241 137.121 165.504C137.311 165.894 137.538 166.484 137.538 167.088C137.538 167.801 136.991 168.448 136.594 168.918C136.488 169.044 136.344 169.214 136.298 169.294C136.298 169.311 136.301 169.331 136.304 169.354C136.474 171.051 136.121 172.401 135.251 173.361C134.341 174.367 132.904 174.881 130.988 174.881C128.938 174.881 127.365 174.074 126.295 172.478C125.938 174.904 125.705 179.157 126.101 182.367C131.991 184.207 136.281 186.2 139.214 188.457C141.277 190.047 142.631 191.837 144.401 194.584C146.404 197.694 148.677 201.223 151.547 203.617L151.944 203.947L151.807 204.443C151.807 204.443 151.724 204.743 151.541 205.267C154.037 207.84 160.084 213.703 165.5 216.086C166.947 216.723 168.453 217.31 169.977 217.833L186.72 207.137L194.406 181.314C194.509 180.971 194.813 180.741 195.163 180.741C195.189 180.741 195.216 180.741 195.243 180.744L227.558 183.231C227.798 183.247 228.018 183.374 228.155 183.574C228.292 183.774 228.332 184.021 228.265 184.254L219.239 215.063L219.225 215.09C219.209 215.13 219.192 215.163 219.172 215.2C219.152 215.233 219.139 215.26 219.119 215.283C219.092 215.32 219.055 215.353 219.022 215.386C219.005 215.403 218.965 215.44 218.965 215.44L193.753 232.249C193.619 232.336 193.466 232.383 193.309 232.383C193.223 232.383 193.136 232.369 193.053 232.339L185.246 229.679C181.023 231.003 175.697 231.759 170.617 231.759C167.273 231.759 164.097 231.429 161.427 230.806C161.317 230.779 161.204 230.753 161.09 230.726C162.734 236.513 161.077 243.302 156.277 250.415C152.55 255.939 148.194 259.769 148.151 259.805L148.067 259.875L147.957 259.885C147.957 259.885 147.904 259.889 147.797 259.889V259.879Z" fill="white"/>
<path d="M113.107 129.833C116.157 129.833 119.163 131.646 121.04 131.646C123.527 131.646 125.39 131.336 126.947 131.336C129.433 131.336 131.92 137.552 139.69 137.552C139.69 137.552 140.31 139.729 138.136 139.729C138.136 139.729 138.756 140.972 140.313 140.972C140.313 140.972 140.003 143.769 137.826 143.769C136.443 143.769 135.313 143.769 134.433 144.009C134.89 145.639 135.653 148.492 135.653 149.362C135.653 149.685 135.61 150.009 135.55 150.372L138.783 151.002L138.76 151.409C138.75 151.599 138.533 155.125 136.966 157.135C137.32 157.522 137.856 158.145 137.983 158.532C138.293 159.465 137.673 160.085 136.74 160.085L136.416 160.819C136.723 161.365 137.493 162.632 138.45 163.348C138.45 163.348 138.45 165.212 136.586 165.212C136.586 165.212 137.206 166.145 137.206 167.075C137.206 168.005 135.963 168.938 135.963 169.252C135.963 169.565 136.896 174.535 130.99 174.535C128.393 174.535 126.94 173.155 126.123 171.498C125.663 173.735 125.31 178.961 125.797 182.608C130.626 184.105 135.6 186.081 139.01 188.708C140.973 190.218 142.276 191.894 144.119 194.751C146.136 197.884 148.426 201.434 151.336 203.857L151.566 204.051L151.486 204.341C151.479 204.361 151.376 204.731 151.156 205.334C153.873 208.151 159.886 213.964 165.366 216.377C166.969 217.084 168.525 217.677 170.019 218.187L187.002 207.337L194.721 181.395C194.778 181.198 194.955 181.061 195.158 181.061C195.175 181.061 195.188 181.061 195.205 181.061L227.527 183.548C227.667 183.558 227.794 183.631 227.874 183.748C227.954 183.865 227.977 184.008 227.937 184.145L218.924 214.914C218.924 214.914 218.917 214.927 218.914 214.937C218.904 214.964 218.891 214.99 218.874 215.017C218.864 215.034 218.857 215.05 218.844 215.064C218.827 215.087 218.807 215.104 218.784 215.124C218.771 215.137 218.757 215.15 218.741 215.16C218.737 215.16 218.734 215.167 218.731 215.167L193.555 231.95C193.478 232 193.388 232.027 193.295 232.027C193.245 232.027 193.195 232.02 193.145 232.003L185.235 229.31C180.998 230.65 175.709 231.407 170.602 231.407C167.385 231.407 164.242 231.107 161.486 230.463C161.189 230.393 160.889 230.317 160.579 230.23C165.212 244.433 147.916 259.536 147.916 259.536C147.916 259.536 147.873 259.539 147.783 259.539C146.699 259.539 138.973 259.006 124.603 244.926C99.3874 220.214 95.7441 192.321 96.9874 187.348C98.1274 182.788 110.077 177.518 109.244 166.352C104.931 164.622 102.384 160.149 102.384 157.435C102.384 157.435 102.014 157.559 101.551 157.559C100.971 157.559 100.241 157.365 99.8974 156.502C99.8974 156.502 101.141 152.772 100.517 150.285C100.517 150.285 100.051 150.519 99.5074 150.519C98.964 150.519 98.3407 150.285 98.0307 149.352C98.0307 149.352 99.894 148.109 100.207 145.622C100.361 144.406 100.514 133.186 107.087 133.183C107.177 133.183 107.264 133.183 107.357 133.189C109.08 130.603 111.097 129.823 113.097 129.823M113.107 129.166C110.624 129.166 108.627 130.266 107.02 132.526C103.517 132.569 101.747 135.486 100.881 137.939C99.914 140.669 99.694 143.722 99.6007 145.026C99.584 145.266 99.5707 145.456 99.5574 145.549C99.2907 147.686 97.7374 148.762 97.6708 148.809L97.2541 149.092L97.4108 149.572C97.7607 150.619 98.5074 151.192 99.5207 151.192C99.6907 151.192 99.854 151.175 100.004 151.149C100.237 153.382 99.2874 156.265 99.2774 156.299L99.2007 156.532L99.2907 156.759C99.6707 157.709 100.477 158.232 101.564 158.232C101.641 158.232 101.714 158.232 101.787 158.225C101.981 159.612 102.651 161.212 103.664 162.655C104.954 164.488 106.701 165.952 108.617 166.815C108.93 173.548 104.361 178.021 100.677 181.628C98.5974 183.665 96.7974 185.425 96.3541 187.198C95.7175 189.744 96.2141 197.911 100.261 208.977C103.647 218.24 110.544 232.08 124.15 245.416C138.526 259.506 146.369 260.219 147.793 260.219C147.916 260.219 147.979 260.213 147.979 260.213L148.193 260.193L148.363 260.049C148.543 259.893 152.796 256.153 156.546 250.593C161.252 243.616 162.969 236.93 161.546 231.17C164.196 231.767 167.325 232.083 170.609 232.083C175.679 232.083 180.992 231.333 185.232 230.02L192.935 232.643C193.051 232.683 193.175 232.703 193.301 232.703C193.525 232.703 193.741 232.637 193.931 232.513L219.107 215.73L219.167 215.69L219.194 215.664C219.214 215.647 219.231 215.63 219.241 215.62C219.271 215.594 219.324 215.544 219.377 215.474C219.404 215.437 219.427 215.4 219.451 215.36C219.471 215.324 219.497 215.274 219.524 215.214C219.537 215.187 219.554 215.15 219.564 215.104L228.577 184.335C228.674 184.005 228.617 183.655 228.424 183.371C228.227 183.088 227.92 182.911 227.577 182.885L195.255 180.398C195.231 180.398 195.195 180.395 195.158 180.395C194.658 180.395 194.225 180.721 194.081 181.205L186.432 206.907L169.929 217.45C168.465 216.944 167.022 216.377 165.632 215.767C160.366 213.45 154.483 207.794 151.919 205.167C152.059 204.757 152.126 204.521 152.126 204.517L152.206 204.231L152.323 203.817L151.993 203.541L151.763 203.347C148.929 200.987 146.673 197.484 144.683 194.391C142.893 191.611 141.523 189.798 139.42 188.181C136.49 185.928 132.23 183.938 126.41 182.105C126.09 179.275 126.24 175.701 126.523 173.298C127.633 174.552 129.15 175.201 130.99 175.201C133.006 175.201 134.523 174.655 135.5 173.575C136.423 172.552 136.81 171.138 136.643 169.375C136.7 169.302 136.783 169.202 136.85 169.125C137.256 168.642 137.873 167.915 137.873 167.078C137.873 166.578 137.736 166.095 137.583 165.705C138.69 165.278 139.116 164.155 139.116 163.348V163.015L138.85 162.815C138.13 162.275 137.506 161.349 137.163 160.779L137.193 160.715C137.71 160.622 138.146 160.369 138.42 159.985C138.75 159.525 138.82 158.935 138.616 158.322C138.576 158.195 138.46 157.852 137.813 157.089C139.19 154.935 139.403 151.819 139.423 151.449L139.446 151.042L139.48 150.462L138.91 150.352L136.293 149.842C136.306 149.689 136.316 149.529 136.316 149.365C136.316 148.699 135.963 147.076 135.266 144.529C135.98 144.439 136.853 144.439 137.826 144.439C140.02 144.439 140.846 142.222 140.976 141.049L141.06 140.309H140.316C139.956 140.309 139.666 140.222 139.436 140.102C139.706 139.952 139.896 139.766 140.023 139.596C140.69 138.712 140.373 137.509 140.333 137.376L140.196 136.892H139.693C134.986 136.892 132.303 134.466 130.34 132.696C129.09 131.566 128.103 130.676 126.95 130.676C126.237 130.676 125.493 130.736 124.63 130.806C123.587 130.889 122.407 130.986 121.047 130.986C120.33 130.986 119.307 130.643 118.22 130.276C116.677 129.759 114.93 129.173 113.114 129.173L113.107 129.166Z" fill="white"/>
<path d="M97.0014 187.356C101.745 177.193 111.874 176.556 108.768 163.193C108.768 163.193 95.8681 141.59 109.854 136.307C128.547 129.247 134.097 142.834 134.097 142.834C134.097 142.834 135.65 148.117 135.65 149.36C135.65 150.604 135.03 151.847 135.03 155.267L136.644 156.793C136.644 156.793 137.787 157.94 137.984 158.53C138.294 159.463 137.674 160.083 136.74 160.083L135.03 163.97C134.41 165.833 127.261 169.253 126.637 169.876C126.127 170.386 124.987 176.77 125.801 181.963C125.801 181.963 127.827 189.053 127.491 193.796C127.151 198.539 96.998 187.359 96.998 187.359L97.0014 187.356Z" fill="#E8A997"/>
<path fill-rule="evenodd" clip-rule="evenodd" d="M136.408 156.562C136.539 156.432 136.75 156.432 136.88 156.563L136.881 156.564L136.884 156.567L136.894 156.577L136.932 156.616C136.965 156.65 137.011 156.698 137.068 156.758C137.18 156.877 137.333 157.043 137.492 157.228C137.651 157.412 137.82 157.62 137.963 157.822C138.102 158.018 138.234 158.233 138.3 158.429C138.485 158.986 138.404 159.502 138.081 159.878C137.768 160.243 137.275 160.421 136.74 160.421C136.556 160.421 136.407 160.272 136.407 160.088C136.407 159.904 136.556 159.755 136.74 159.755C137.139 159.755 137.422 159.623 137.575 159.444C137.719 159.277 137.792 159.016 137.667 158.64C137.634 158.541 137.55 158.392 137.419 158.207C137.293 158.029 137.139 157.839 136.987 157.663C136.836 157.487 136.691 157.33 136.583 157.215C136.529 157.158 136.485 157.113 136.454 157.081L136.419 157.045L136.41 157.036L136.408 157.034C136.408 157.034 136.408 157.034 136.408 157.034M136.408 156.562C136.278 156.692 136.278 156.904 136.408 157.034Z" fill="#F7C8BB"/>
<path fill-rule="evenodd" clip-rule="evenodd" d="M134.002 142.519C134.179 142.468 134.364 142.569 134.416 142.745L134.096 142.839L133.776 142.933C133.724 142.757 133.825 142.571 134.002 142.519ZM134.096 142.839L133.776 142.933L133.794 142.992L133.843 143.161C133.885 143.308 133.945 143.518 134.018 143.775C134.163 144.288 134.357 144.986 134.55 145.721C134.744 146.457 134.937 147.229 135.081 147.892C135.228 148.568 135.316 149.097 135.316 149.366C135.316 149.8 135.236 150.226 135.129 150.798C135.092 150.995 135.052 151.209 135.011 151.446C134.853 152.355 134.696 153.54 134.696 155.272C134.696 155.456 134.845 155.606 135.029 155.606C135.213 155.606 135.363 155.456 135.363 155.272C135.363 153.585 135.515 152.438 135.668 151.56C135.704 151.353 135.74 151.158 135.776 150.97C135.887 150.377 135.983 149.867 135.983 149.366C135.983 149.013 135.877 148.415 135.732 147.751C135.585 147.074 135.39 146.292 135.195 145.551C135 144.811 134.806 144.109 134.66 143.593C134.587 143.335 134.526 143.124 134.483 142.976L134.434 142.806L134.416 142.745L134.096 142.839Z" fill="#F7C8BB"/>
<path d="M103.434 178.887C101.044 182.124 97.5613 185.107 96.9979 187.357C95.7546 192.33 99.3979 220.223 124.614 244.935C140.153 260.165 147.923 259.545 147.923 259.545C147.923 259.545 167.503 242.452 159.423 227.532L150.253 212.146L148.39 209.97C148.39 209.97 150.876 206.24 151.033 204.22C145.44 199.556 142.527 190.893 138.29 188.057C135.017 185.867 126.687 182.497 125.414 182.207C106.438 177.437 103.434 178.887 103.434 178.887Z" fill="white"/>
<path d="M143.749 215.479C132.906 203.959 128.842 195.829 123.759 193.796C115.696 190.569 103.433 189.053 96.1099 190.646C96.1099 190.646 97.0832 211.082 111.776 230.728C126.469 250.374 143.409 257.827 143.409 257.827C143.409 257.827 163.735 252.068 161.365 233.095L138.325 218.188C138.325 218.188 141.375 217.848 143.745 215.479H143.749Z" fill="#B9E5E5"/>
<path d="M187.867 302.28C175.434 304.767 172.947 310.05 188.8 308.807C204.65 307.564 220.813 298.86 219.259 297.617L187.867 302.28Z" fill="#EE0000"/>
<path d="M159.507 219.21L159.564 218.92C159.874 217.373 161.514 209.603 163.451 208.443C164.554 207.783 169.964 206.783 175.607 206.783C179.957 206.783 183.703 207.333 186.733 208.417L187.003 208.513L183.46 227.196L159.507 219.213V219.21Z" fill="black"/>
<path d="M175.606 207.117C179.296 207.117 183.26 207.531 186.623 208.731L183.203 226.757L159.894 218.987C160.513 215.88 162.07 209.664 163.623 208.731C164.577 208.157 169.747 207.117 175.606 207.117ZM175.606 206.451C169.82 206.451 164.44 207.461 163.28 208.157C161.277 209.361 159.68 216.65 159.24 218.854L159.124 219.43L159.68 219.617L182.99 227.387L183.713 227.627L183.856 226.877L187.276 208.851L187.383 208.291L186.846 208.097C183.776 207.001 179.996 206.447 175.606 206.447V206.451Z" fill="white"/>
<path d="M170.803 320C211.969 320 245.341 314.652 245.341 308.054C245.341 301.456 211.969 296.107 170.803 296.107C129.637 296.107 96.2651 301.456 96.2651 308.054C96.2651 314.652 129.637 320 170.803 320Z" fill="#B9E5E5"/>
<path d="M176.318 307.552C176.129 307.552 175.942 307.516 175.765 307.449L154.336 299.033L134.34 307.436C134.153 307.516 133.956 307.552 133.753 307.552H133.046C132.323 307.552 131.73 307.079 131.57 306.376C131.41 305.672 131.74 304.989 132.39 304.676L154.329 294.109L176.958 304.669C177.618 304.976 177.955 305.659 177.795 306.369C177.635 307.079 177.045 307.556 176.315 307.556L176.318 307.552Z" fill="black"/>
<path d="M154.333 294.476L176.819 304.969C177.966 305.503 177.583 307.219 176.319 307.219C176.173 307.219 176.026 307.193 175.886 307.136L154.33 298.67L134.207 307.126C134.064 307.186 133.907 307.219 133.75 307.219H133.044C131.787 307.219 131.4 305.519 132.53 304.976L154.327 294.476M154.33 293.736L154.047 293.873L132.25 304.373C131.457 304.756 131.054 305.589 131.25 306.449C131.447 307.309 132.17 307.886 133.05 307.886H133.757C134.004 307.886 134.244 307.836 134.474 307.743L154.347 299.393L175.649 307.759C175.866 307.843 176.093 307.886 176.326 307.886C177.213 307.886 177.939 307.303 178.129 306.439C178.323 305.573 177.909 304.739 177.106 304.366L154.62 293.873L154.333 293.74L154.33 293.736Z" fill="white"/>
<path d="M156.109 263.586H153.109V297.548H156.109V263.586Z" fill="black"/>
<path d="M159.114 229.396C165.33 231.882 159.734 267.005 135.804 257.058C135.804 257.058 138.814 263.432 163.263 263.432C187.713 263.432 216.615 236.236 220.968 230.952C225.318 225.669 222.522 217.899 215.685 215.723C208.849 213.546 159.117 229.399 159.117 229.399L159.114 229.396Z" fill="black"/>
<path d="M217.08 216.19C217.08 216.19 220.187 216.81 224.54 215.57C228.32 214.49 236.973 210.287 240.39 210.287C243.806 210.287 244.74 213.707 244.74 213.707C244.74 213.707 212.797 234.163 209.907 230.843C207.014 227.527 205.891 223.963 208.997 222.097C212.104 220.234 214.597 219.317 217.077 216.19H217.08Z" fill="#EE0000"/>
<path fill-rule="evenodd" clip-rule="evenodd" d="M230.158 213.844C228.009 214.699 226.002 215.498 224.63 215.89C222.419 216.52 220.522 216.678 219.176 216.678C218.502 216.678 217.966 216.638 217.596 216.599C217.437 216.581 217.309 216.564 217.213 216.55C215.26 218.956 213.272 220.065 211.052 221.303C210.443 221.643 209.815 221.993 209.167 222.382C208.44 222.819 207.979 223.342 207.725 223.919C207.47 224.496 207.41 225.152 207.529 225.871C207.769 227.321 208.727 228.985 210.156 230.623C210.256 230.738 210.449 230.836 210.8 230.865C211.147 230.894 211.603 230.851 212.163 230.733C213.281 230.498 214.742 229.982 216.436 229.259C219.82 227.816 224.071 225.577 228.241 223.229C232.41 220.882 236.489 218.431 239.527 216.567C241.046 215.634 242.304 214.849 243.182 214.297C243.621 214.021 243.965 213.803 244.199 213.654C244.251 213.621 244.298 213.591 244.339 213.565C244.311 213.492 244.276 213.405 244.233 213.306C244.1 213.003 243.89 212.601 243.58 212.2C242.964 211.403 241.966 210.62 240.388 210.62C239.586 210.62 238.445 210.869 237.098 211.279C235.76 211.686 234.249 212.242 232.719 212.834C231.864 213.165 231 213.509 230.158 213.844ZM244.737 213.706C245.059 213.619 245.059 213.618 245.059 213.618L245.059 213.617L245.058 213.614L245.055 213.604C245.053 213.596 245.049 213.585 245.045 213.57C245.036 213.542 245.023 213.501 245.006 213.451C244.971 213.35 244.918 213.208 244.843 213.038C244.695 212.699 244.458 212.247 244.108 211.793C243.402 210.88 242.226 209.953 240.388 209.953C239.481 209.953 238.259 210.229 236.904 210.641C235.541 211.056 234.012 211.619 232.479 212.212C231.6 212.552 230.722 212.902 229.872 213.24C227.739 214.089 225.784 214.867 224.446 215.249C222.304 215.859 220.471 216.011 219.176 216.011C218.528 216.011 218.016 215.973 217.667 215.936C217.493 215.917 217.36 215.898 217.271 215.884C217.227 215.878 217.194 215.872 217.173 215.868L217.149 215.864L217.144 215.863L217.111 215.856H216.914L216.814 215.982C214.909 218.384 213.019 219.439 210.774 220.693C210.153 221.04 209.506 221.401 208.824 221.81C207.998 222.307 207.433 222.929 207.115 223.649C206.797 224.368 206.736 225.16 206.871 225.98C207.14 227.607 208.19 229.384 209.654 231.062C209.915 231.362 210.311 231.493 210.745 231.529C211.183 231.566 211.71 231.51 212.3 231.386C213.482 231.137 214.991 230.6 216.698 229.872C220.116 228.414 224.392 226.161 228.569 223.81C232.747 221.458 236.834 219.002 239.876 217.135C241.397 216.201 242.657 215.414 243.537 214.861C243.977 214.584 244.322 214.366 244.557 214.217C244.674 214.142 244.764 214.085 244.825 214.046L244.917 213.987C244.917 213.987 244.917 213.987 244.737 213.706ZM244.737 213.706L244.917 213.987L245.124 213.855L245.059 213.618L244.737 213.706Z" fill="#EE0000"/>
<path fill-rule="evenodd" clip-rule="evenodd" d="M217.599 215.615C217.743 215.73 217.767 215.939 217.653 216.083C216.375 217.694 214.741 218.847 213.054 219.825C212.259 220.286 211.448 220.711 210.655 221.126C210.607 221.152 210.558 221.177 210.51 221.203C209.668 221.643 208.851 222.075 208.083 222.535C207.38 222.957 207.029 223.489 206.91 224.09C206.788 224.707 206.904 225.435 207.216 226.246C207.842 227.871 209.207 229.699 210.65 231.353C210.771 231.492 210.756 231.703 210.618 231.824C210.479 231.945 210.268 231.93 210.147 231.792C208.697 230.129 207.265 228.227 206.594 226.486C206.258 225.613 206.1 224.749 206.256 223.961C206.414 223.158 206.891 222.473 207.74 221.964C208.526 221.492 209.36 221.052 210.2 220.612C210.248 220.587 210.295 220.562 210.343 220.537C211.138 220.121 211.938 219.702 212.719 219.248C214.376 218.288 215.928 217.185 217.13 215.669C217.245 215.525 217.455 215.501 217.599 215.615Z" fill="white"/>
<path d="M208.532 283.169C208.532 266.696 217.855 241.21 223.049 226.297L198.586 237.79C198.586 237.79 189.883 255.506 189.883 281.615C189.883 281.615 193.303 285.345 200.449 285.345C207.596 285.345 208.529 283.169 208.529 283.169H208.532Z" fill="black"/>
<path fill-rule="evenodd" clip-rule="evenodd" d="M209.508 240.038C209.656 240.147 209.688 240.356 209.578 240.504C204.26 247.701 196.906 254.427 183.941 259.268C183.768 259.332 183.576 259.245 183.512 259.072C183.447 258.9 183.535 258.708 183.708 258.643C196.542 253.851 203.794 247.21 209.042 240.108C209.151 239.96 209.36 239.929 209.508 240.038Z" fill="white"/>
<path fill-rule="evenodd" clip-rule="evenodd" d="M206.145 244.371C206.019 244.679 206.02 244.679 206.02 244.679L206.022 244.68L206.027 244.682L206.042 244.688C206.056 244.693 206.075 244.7 206.099 244.709C206.147 244.726 206.216 244.75 206.304 244.777C206.48 244.831 206.733 244.899 207.045 244.956C207.67 245.071 208.54 245.146 209.52 244.983C209.701 244.953 209.824 244.781 209.794 244.599C209.764 244.418 209.592 244.295 209.411 244.325C208.524 244.472 207.734 244.405 207.166 244.301C206.882 244.249 206.654 244.187 206.499 244.14C206.422 244.116 206.363 244.096 206.324 244.082C206.305 244.075 206.291 244.07 206.282 244.066L206.273 244.062L206.271 244.062C206.271 244.062 206.271 244.062 206.271 244.062M206.271 244.062C206.271 244.062 206.271 244.062 206.271 244.062ZM206.271 244.062C206.271 244.062 206.271 244.062 206.271 244.062C206.101 243.992 205.906 244.074 205.837 244.245C205.767 244.415 205.849 244.61 206.02 244.679L206.145 244.371" fill="white"/>
<path d="M187.404 208.883L165.024 223.183L193.307 232.816L219.26 215.566L228.273 184.797L227.343 184.174L218.64 214.946L193.464 231.416L187.404 208.883Z" fill="#64BDBD"/>
<path fill-rule="evenodd" clip-rule="evenodd" d="M227.223 183.862C227.323 183.825 227.435 183.839 227.523 183.898L228.453 184.522C228.574 184.603 228.628 184.753 228.587 184.892L219.574 215.661C219.552 215.737 219.504 215.802 219.439 215.845L193.486 233.095C193.4 233.152 193.292 233.166 193.194 233.133L164.912 223.5C164.791 223.458 164.704 223.351 164.688 223.224C164.673 223.097 164.732 222.972 164.84 222.903L187.219 208.604C187.309 208.546 187.42 208.535 187.519 208.574C187.618 208.612 187.693 208.695 187.721 208.798L193.661 230.886L218.348 214.737L227.017 184.084C227.046 183.982 227.122 183.899 227.223 183.862ZM227.533 184.708L218.955 215.038C218.933 215.116 218.884 215.183 218.817 215.227L193.641 231.696C193.552 231.755 193.44 231.767 193.34 231.729C193.24 231.691 193.164 231.607 193.137 231.504L187.195 209.41L165.783 223.092L193.254 232.449L218.969 215.357L227.879 184.939L227.533 184.708Z" fill="#64BDBD"/>
<path d="M193.307 231.573L218.483 214.79L187.404 207.641L165.024 221.94L193.307 231.573Z" fill="black"/>
<path fill-rule="evenodd" clip-rule="evenodd" d="M187.219 207.359C187.295 207.311 187.386 207.295 187.473 207.315L218.553 214.465C218.682 214.495 218.782 214.599 218.806 214.73C218.83 214.861 218.773 214.993 218.663 215.067L193.487 231.85C193.401 231.908 193.293 231.922 193.194 231.888L164.912 222.255C164.791 222.214 164.704 222.107 164.688 221.98C164.673 221.852 164.732 221.728 164.84 221.659L187.219 207.359ZM187.46 207.996L165.783 221.847L193.254 231.204L217.65 214.941L187.46 207.996Z" fill="#64BDBD"/>
<path d="M165.484 215.567C169.213 215.567 176.983 209.66 178.537 209.66C180.09 209.66 184.443 211.523 185.996 211.523L188.483 214.943L181.693 217.51C181.693 217.51 175.35 223 169.157 224.623C165.794 225.506 161.76 224.103 160.447 222.68C156.717 218.64 159.577 215.253 159.577 215.253L165.484 215.563V215.567Z" fill="#E8A997"/>
<path d="M227.49 184.02L218.477 214.789L187.397 207.639L195.167 181.533L227.49 184.02Z" fill="black"/>
<path fill-rule="evenodd" clip-rule="evenodd" d="M194.852 181.439C194.897 181.289 195.041 181.19 195.198 181.202L227.52 183.689C227.62 183.696 227.712 183.749 227.769 183.832C227.826 183.914 227.843 184.018 227.814 184.115L218.801 214.884C218.752 215.053 218.579 215.155 218.407 215.115L187.327 207.965C187.238 207.945 187.161 207.888 187.114 207.808C187.068 207.729 187.056 207.634 187.083 207.545L194.852 181.439ZM195.415 181.887L187.823 207.395L218.25 214.395L227.059 184.322L195.415 181.887Z" fill="#64BDBD"/>
<path d="M190.335 205.847L196.835 184.008L224.428 186.131L216.865 211.95L190.335 205.847Z" fill="white"/>
<path fill-rule="evenodd" clip-rule="evenodd" d="M198.592 187.804C198.768 187.857 198.867 188.043 198.814 188.219L194.806 201.413L215.659 205.294C215.84 205.328 215.959 205.502 215.926 205.683C215.892 205.864 215.718 205.983 215.537 205.95L193.951 201.932L198.176 188.026C198.23 187.849 198.416 187.75 198.592 187.804Z" fill="#EE0000"/>
<path d="M184.983 221.367C186.156 220.077 185.223 217.277 185.843 216.657C186.463 216.037 189.263 212.617 190.193 212.617C191.123 212.617 191.746 213.551 192.056 213.551C192.366 213.551 194.543 212.617 194.853 212.617C195.163 212.617 197.339 214.17 197.339 214.17C197.339 214.17 199.429 217.37 199.473 217.947C199.516 218.524 198.583 221.63 197.029 222.874C195.476 224.117 192.68 225.05 191.123 225.98C189.566 226.91 183.03 223.514 184.976 221.367H184.983Z" fill="#E8A997"/>
<path fill-rule="evenodd" clip-rule="evenodd" d="M108.211 171.358C108.989 169.151 109.203 166.554 108.44 163.268L109.089 163.117C109.878 166.514 109.665 169.241 108.84 171.579C108.017 173.911 106.596 175.833 105.012 177.633C104.367 178.365 103.691 179.081 103.016 179.797C102.863 179.959 102.709 180.122 102.556 180.285C101.728 181.165 100.911 182.052 100.149 182.985C98.6262 184.848 97.3354 186.886 96.6529 189.39C96.4971 189.961 96.4174 190.869 96.4578 192.088C96.498 193.301 96.6562 194.802 96.9632 196.549C97.5771 200.041 98.7839 204.502 100.82 209.583C104.891 219.745 112.274 232.377 124.847 244.699C132.596 252.294 138.392 255.92 142.233 257.649C144.153 258.513 145.584 258.903 146.527 259.078C146.999 259.165 147.348 259.199 147.577 259.211C147.668 259.216 147.74 259.217 147.793 259.217C147.825 259.188 147.867 259.15 147.917 259.105C148.056 258.978 148.261 258.789 148.518 258.542C149.034 258.05 149.763 257.328 150.612 256.416C152.312 254.59 154.493 252.004 156.421 248.957C160.289 242.846 163.08 234.987 159.13 227.693L159.716 227.376C163.846 235.001 160.887 243.148 156.985 249.314C155.028 252.405 152.819 255.025 151.1 256.87C150.24 257.793 149.503 258.524 148.979 259.024C148.717 259.274 148.509 259.467 148.366 259.598C148.294 259.663 148.239 259.713 148.201 259.746L148.158 259.784L148.147 259.794L148.143 259.798C148.143 259.798 148.142 259.798 147.923 259.547C147.95 259.879 147.949 259.879 147.949 259.879L147.946 259.879L147.939 259.88L147.916 259.881C147.897 259.882 147.871 259.883 147.837 259.883C147.769 259.884 147.67 259.883 147.541 259.877C147.284 259.863 146.905 259.826 146.406 259.733C145.406 259.548 143.924 259.142 141.959 258.257C138.03 256.488 132.171 252.81 124.381 245.175C111.737 232.785 104.304 220.073 100.201 209.831C98.1494 204.711 96.9291 200.206 96.3066 196.664C95.9954 194.894 95.833 193.361 95.7916 192.11C95.7503 190.866 95.828 189.88 96.0097 189.214M147.923 259.547L147.949 259.879L148.059 259.87L148.143 259.798L147.923 259.547ZM108.211 171.358C107.431 173.571 106.074 175.417 104.511 177.192ZM104.511 177.192C103.875 177.915 103.209 178.621 102.534 179.336ZM102.534 179.336C102.38 179.499 102.225 179.663 102.07 179.828ZM102.07 179.828C101.241 180.71 100.41 181.611 99.6325 182.563ZM99.6325 182.563C98.0762 184.468 96.7255 186.588 96.0097 189.214Z" fill="#B9E5E5"/>
<path fill-rule="evenodd" clip-rule="evenodd" d="M179.552 213.156C179.683 213.026 179.894 213.026 180.024 213.156C180.154 213.286 180.154 213.497 180.024 213.628C180.024 213.628 180.024 213.628 180.024 213.628L180.022 213.629L180.017 213.635L179.993 213.659C179.972 213.68 179.942 213.712 179.904 213.752C179.828 213.833 179.723 213.947 179.608 214.081C179.374 214.353 179.112 214.69 178.955 214.986C178.876 215.137 178.837 215.251 178.828 215.327C178.826 215.35 178.827 215.364 178.828 215.371C178.846 215.382 178.917 215.413 179.097 215.41C179.3 215.406 179.596 215.36 180.01 215.247C181.743 214.774 182.959 214.685 183.8 214.811C184.643 214.938 185.15 215.29 185.369 215.729C185.471 215.933 185.428 216.136 185.341 216.289C185.261 216.43 185.133 216.551 185.002 216.652C184.737 216.856 184.358 217.053 183.964 217.23C183.17 217.588 182.222 217.903 181.757 218.058C181.682 218.083 181.571 218.142 181.414 218.244C181.262 218.345 181.085 218.475 180.882 218.63C180.772 218.714 180.654 218.805 180.53 218.901C180.204 219.153 179.834 219.44 179.436 219.724C178.339 220.508 176.959 221.328 175.472 221.493C175.289 221.513 175.124 221.381 175.104 221.198C175.083 221.015 175.215 220.851 175.398 220.83C176.707 220.685 177.969 219.952 179.048 219.182C179.435 218.905 179.789 218.631 180.112 218.381C180.239 218.283 180.36 218.189 180.478 218.1C180.683 217.943 180.875 217.801 181.048 217.688C181.217 217.576 181.387 217.479 181.545 217.426L181.546 217.425C182.015 217.27 182.932 216.964 183.691 216.622C184.074 216.45 184.394 216.278 184.596 216.124C184.676 216.061 184.723 216.013 184.747 215.981C184.635 215.804 184.354 215.569 183.701 215.471C182.988 215.364 181.873 215.43 180.186 215.89C179.746 216.01 179.39 216.071 179.109 216.076C178.836 216.081 178.578 216.034 178.392 215.877C178.185 215.702 178.143 215.46 178.166 215.253C178.188 215.055 178.271 214.854 178.366 214.674C178.559 214.31 178.861 213.928 179.103 213.646C179.226 213.503 179.338 213.381 179.419 213.295C179.459 213.252 179.492 213.218 179.515 213.194L179.542 213.167L179.549 213.159L179.551 213.157L179.552 213.156C179.553 213.156 179.552 213.156 179.788 213.392L179.552 213.156Z" fill="#CE8873"/>
<path d="M186.003 221.473L164.54 219.996L150.531 205.316C150.531 205.316 147.971 215.709 138.334 218.196L160.967 233.209C160.967 233.209 185.536 230.336 191.13 225.983" fill="#E8A997"/>
<path fill-rule="evenodd" clip-rule="evenodd" d="M150.642 205.757C150.774 205.628 150.985 205.631 151.114 205.763L164.695 219.675L186.031 221.142C186.214 221.155 186.353 221.314 186.34 221.498C186.328 221.682 186.168 221.82 185.985 221.808L164.522 220.331C164.44 220.325 164.364 220.29 164.306 220.231L150.637 206.228C150.508 206.097 150.511 205.886 150.642 205.757Z" fill="#F7C8BB"/>
<path fill-rule="evenodd" clip-rule="evenodd" d="M186.753 216.167C186.466 216.489 186.228 216.755 186.09 216.894C186.07 216.913 186.038 216.962 186.01 217.07C185.982 217.176 185.964 217.316 185.956 217.491C185.944 217.731 185.95 218.001 185.957 218.301C185.96 218.446 185.963 218.599 185.965 218.759C185.969 219.233 185.957 219.751 185.863 220.238C185.77 220.726 185.59 221.209 185.241 221.593C185.117 221.729 184.906 221.739 184.77 221.615C184.634 221.491 184.624 221.28 184.747 221.144C184.985 220.883 185.128 220.531 185.209 220.112C185.289 219.693 185.303 219.23 185.298 218.765C185.297 218.627 185.294 218.486 185.291 218.346C185.284 218.032 185.277 217.723 185.29 217.458C185.3 217.263 185.32 217.072 185.365 216.902C185.409 216.733 185.483 216.558 185.618 216.423C185.742 216.299 185.963 216.051 186.252 215.727C186.305 215.668 186.359 215.607 186.416 215.544C186.78 215.135 187.221 214.646 187.672 214.175C188.122 213.706 188.589 213.248 189.008 212.905C189.217 212.734 189.421 212.585 189.611 212.477C189.791 212.374 189.999 212.285 190.204 212.285C190.781 212.285 191.243 212.575 191.568 212.819C191.651 212.881 191.727 212.942 191.795 212.997L191.809 213.007C191.873 213.059 191.927 213.102 191.976 213.139C192.025 213.177 192.061 213.2 192.085 213.213C192.103 213.21 192.131 213.203 192.172 213.191C192.253 213.168 192.358 213.134 192.482 213.091C192.73 213.005 193.036 212.89 193.348 212.773L193.351 212.772C193.66 212.656 193.974 212.538 194.23 212.449C194.359 212.405 194.477 212.366 194.576 212.338C194.661 212.314 194.772 212.285 194.864 212.285C194.94 212.285 195.009 212.306 195.051 212.321C195.101 212.338 195.152 212.36 195.203 212.384C195.305 212.433 195.425 212.499 195.552 212.574C195.808 212.724 196.115 212.922 196.408 213.118C196.702 213.314 196.986 213.509 197.196 213.656C197.301 213.729 197.388 213.79 197.448 213.833L197.519 213.883L197.543 213.9C197.693 214.007 197.729 214.216 197.622 214.365C197.515 214.515 197.306 214.55 197.157 214.443L197.133 214.426L197.064 214.377C197.004 214.335 196.919 214.275 196.815 214.203C196.607 214.058 196.327 213.865 196.038 213.673C195.749 213.48 195.454 213.289 195.214 213.149C195.094 213.078 194.993 213.023 194.916 212.986C194.887 212.972 194.865 212.963 194.848 212.956C194.831 212.96 194.802 212.967 194.758 212.979C194.677 213.002 194.573 213.036 194.449 213.079C194.201 213.165 193.895 213.28 193.583 213.397L193.579 213.398C193.271 213.514 192.957 213.632 192.7 213.721C192.572 213.765 192.453 213.804 192.355 213.832C192.27 213.856 192.159 213.885 192.067 213.885C191.95 213.885 191.849 213.843 191.781 213.807C191.709 213.769 191.639 213.72 191.576 213.673C191.517 213.628 191.454 213.578 191.393 213.529C191.388 213.525 191.383 213.52 191.378 213.516C191.31 213.462 191.241 213.406 191.168 213.352C190.871 213.129 190.556 212.952 190.204 212.952C190.176 212.952 190.093 212.97 189.94 213.056C189.796 213.138 189.624 213.261 189.43 213.42C189.043 213.738 188.597 214.173 188.153 214.637C187.711 215.098 187.277 215.58 186.913 215.988C186.858 216.049 186.805 216.109 186.753 216.167ZM192.107 213.224C192.107 213.224 192.106 213.224 192.105 213.223Z" fill="#F7C8BB"/>
<path fill-rule="evenodd" clip-rule="evenodd" d="M138.39 218.341C138.491 218.188 138.698 218.145 138.852 218.246L161.046 232.856C161.087 232.851 161.139 232.844 161.201 232.837C161.382 232.815 161.648 232.782 161.989 232.738C162.67 232.652 163.65 232.522 164.844 232.354C167.232 232.017 170.473 231.523 173.888 230.892C177.304 230.262 180.887 229.497 183.963 228.62C187.054 227.738 189.58 226.756 190.922 225.712C191.067 225.598 191.277 225.625 191.39 225.77C191.503 225.915 191.477 226.125 191.332 226.238C189.877 227.37 187.235 228.38 184.146 229.261C181.041 230.146 177.434 230.916 174.009 231.548C170.582 232.18 167.331 232.676 164.937 233.014C163.74 233.183 162.757 233.312 162.073 233.4C161.731 233.443 161.464 233.476 161.282 233.499C161.191 233.51 161.121 233.518 161.075 233.524L161.004 233.532C161.004 233.532 161.003 233.532 160.964 233.201L161.003 233.532C160.925 233.541 160.847 233.523 160.781 233.479L138.485 218.803C138.331 218.702 138.289 218.495 138.39 218.341Z" fill="#CE8873"/>
<path fill-rule="evenodd" clip-rule="evenodd" d="M199.447 217.61C199.63 217.597 199.79 217.734 199.804 217.918C199.813 218.032 199.797 218.177 199.771 218.325C199.745 218.481 199.703 218.665 199.648 218.868C199.539 219.274 199.373 219.77 199.156 220.285C198.728 221.304 198.08 222.455 197.237 223.129C196.425 223.779 195.303 224.338 194.217 224.842C193.972 224.956 193.73 225.066 193.493 225.175C192.657 225.556 191.884 225.909 191.293 226.262C191.135 226.356 190.93 226.305 190.836 226.147C190.741 225.989 190.793 225.784 190.951 225.69C191.577 225.316 192.398 224.941 193.239 224.558C193.471 224.452 193.705 224.345 193.936 224.238C195.026 223.732 196.079 223.202 196.82 222.609C197.53 222.041 198.126 221.016 198.542 220.027C198.747 219.538 198.903 219.071 199.005 218.694C199.056 218.506 199.092 218.342 199.114 218.213C199.138 218.076 199.142 217.997 199.139 217.968C199.126 217.784 199.263 217.624 199.447 217.61Z" fill="#CE8873"/>
<path fill-rule="evenodd" clip-rule="evenodd" d="M169.016 214.947C167.732 215.504 166.494 215.897 165.489 215.897C165.305 215.897 165.156 215.748 165.156 215.564C165.156 215.38 165.305 215.231 165.489 215.231C166.349 215.231 167.482 214.886 168.751 214.335C170.011 213.789 171.368 213.058 172.667 212.321C173.221 212.007 173.768 211.689 174.291 211.386C174.985 210.983 175.638 210.604 176.211 210.288C176.716 210.01 177.172 209.774 177.554 209.606C177.921 209.445 178.271 209.324 178.542 209.324C178.979 209.324 179.581 209.452 180.231 209.627C180.889 209.803 181.633 210.038 182.368 210.27L182.372 210.271C183.112 210.505 183.843 210.735 184.486 210.908C185.137 211.083 185.662 211.188 186.002 211.188C186.186 211.188 186.335 211.337 186.335 211.521C186.335 211.705 186.186 211.854 186.002 211.854C185.565 211.854 184.963 211.726 184.313 211.552C183.655 211.375 182.911 211.14 182.176 210.909L182.172 210.907C181.432 210.674 180.701 210.443 180.058 210.271C179.407 210.096 178.882 209.991 178.542 209.991C178.425 209.991 178.192 210.054 177.822 210.217C177.468 210.372 177.033 210.597 176.533 210.872C175.962 211.187 175.323 211.557 174.638 211.955C174.115 212.259 173.565 212.578 172.996 212.901C171.692 213.64 170.31 214.386 169.016 214.947Z" fill="#F7C8BB"/>
<path fill-rule="evenodd" clip-rule="evenodd" d="M110.705 179.137C110.719 178.954 110.878 178.816 111.062 178.829C115.044 179.117 121.059 180.692 126.478 182.517C129.192 183.431 131.765 184.41 133.871 185.329C135.966 186.243 137.63 187.109 138.498 187.8L138.498 187.801C139.53 188.623 140.496 189.767 141.447 191.075C142.261 192.196 143.075 193.453 143.914 194.749C144.055 194.966 144.197 195.184 144.339 195.404C146.33 198.468 148.494 201.673 151.247 203.968L151.412 204.106L151.355 204.313L151.033 204.224C151.355 204.313 151.355 204.313 151.355 204.314L151.354 204.314L151.354 204.316L151.352 204.324L151.343 204.354C151.336 204.38 151.325 204.417 151.31 204.466C151.28 204.564 151.236 204.706 151.175 204.887C151.055 205.249 150.871 205.767 150.616 206.392C150.108 207.642 149.317 209.328 148.186 211.069C145.927 214.547 142.283 218.287 136.79 219.163L136.677 219.181L136.576 219.126C133.188 217.258 130.712 215.144 128.821 213.53C128.568 213.314 128.325 213.107 128.093 212.91C127.096 212.07 126.304 211.45 125.627 211.137C125.294 210.983 125.009 210.913 124.757 210.918C124.511 210.923 124.275 211 124.035 211.176C123.886 211.285 123.678 211.253 123.569 211.104C123.46 210.956 123.492 210.747 123.641 210.638C123.984 210.387 124.351 210.26 124.742 210.252C125.128 210.243 125.516 210.351 125.907 210.532C126.678 210.889 127.537 211.57 128.522 212.401C128.758 212.599 129.002 212.808 129.256 213.025C131.128 214.623 133.524 216.667 136.797 218.486C141.965 217.619 145.434 214.082 147.627 210.706C148.729 209.009 149.502 207.363 149.999 206.141C150.247 205.53 150.426 205.026 150.543 204.676C150.589 204.539 150.625 204.425 150.652 204.338C147.892 201.981 145.726 198.763 143.78 195.767C143.637 195.546 143.494 195.326 143.353 195.109C142.513 193.812 141.71 192.572 140.907 191.467C139.969 190.176 139.044 189.088 138.083 188.322C137.29 187.69 135.7 186.854 133.605 185.94C131.52 185.031 128.965 184.058 126.265 183.149C120.858 181.328 114.908 179.776 111.014 179.494C110.83 179.481 110.692 179.321 110.705 179.137Z" fill="#B9E5E5"/>
<path d="M107.369 133.202C111.719 126.676 117.935 131.649 121.045 131.649C123.532 131.649 125.395 131.339 126.952 131.339C129.438 131.339 131.925 137.556 139.695 137.556C139.695 137.556 140.315 139.732 138.141 139.732C138.141 139.732 138.761 140.975 140.318 140.975C140.318 140.975 140.008 143.772 137.831 143.772C135.655 143.772 134.102 143.772 133.168 144.705C132.235 145.639 134.102 147.502 130.372 149.679C126.642 151.855 128.818 155.585 130.682 157.448C132.545 159.312 132.858 162.422 134.412 162.422C134.412 162.422 135.032 160.558 136.275 160.558C136.275 160.558 137.208 162.422 138.451 163.355C138.451 163.355 138.451 165.218 136.588 165.218C136.588 165.218 137.208 166.152 137.208 167.081C137.208 168.011 135.965 168.945 135.965 169.258C135.965 169.571 136.898 174.541 130.992 174.541C125.085 174.541 125.085 167.391 125.085 166.148C125.085 164.905 126.062 160.232 126.328 157.135C126.815 151.445 123.532 149.365 121.355 150.609C119.179 151.852 119.702 156.868 122.289 158.068C122.289 158.068 119.492 167.081 112.965 167.081C106.439 167.081 102.399 160.865 102.399 157.445C102.399 157.445 100.536 158.065 99.9125 156.512C99.9125 156.512 101.156 152.782 100.532 150.295C100.532 150.295 98.6692 151.229 98.0459 149.362C98.0459 149.362 99.9092 148.119 100.223 145.632C100.376 144.399 100.532 132.889 107.372 133.199L107.369 133.202Z" fill="black"/>
<path d="M104.83 209.688C123.703 209.688 145.246 232.687 161.755 238.564C180.092 245.09 192.215 240.117 202.471 247.267C202.471 247.267 189.728 263.43 155.229 263.43C130.986 263.43 105.5 231.107 98.6606 210.591C100.677 209.971 102.737 209.688 104.83 209.688ZM104.83 208.688C102.584 208.688 100.411 209.008 98.3673 209.634L97.3906 209.934L97.7139 210.904C101.384 221.911 109.807 235.127 119.7 245.393C125.233 251.137 130.93 255.69 136.633 258.923C143.066 262.573 149.323 264.423 155.232 264.423C163.182 264.423 170.645 263.563 177.412 261.866C182.842 260.506 187.838 258.606 192.265 256.22C199.858 252.127 203.124 248.05 203.261 247.877L203.918 247.043L203.048 246.437C197.431 242.524 191.301 242.097 184.205 241.604C177.862 241.164 170.669 240.664 162.095 237.61C155.736 235.347 148.586 230.474 141.016 225.314C129.016 217.134 116.607 208.678 104.837 208.678L104.83 208.688Z" fill="#B9E5E5"/>
<path d="M155.232 263.43C189.731 263.43 202.474 247.267 202.474 247.267C192.217 240.117 180.094 245.09 161.758 238.564C143.422 232.037 118.866 204.375 98.6631 210.591C105.5 231.104 130.986 263.43 155.232 263.43Z" fill="#EE0000"/>
<path d="M155.232 263.43C189.731 263.43 202.474 247.267 202.474 247.267C192.217 240.117 180.094 245.09 161.758 238.564C143.422 232.037 118.866 204.375 98.6631 210.591C105.5 231.104 130.986 263.43 155.232 263.43Z" fill="#EE0000"/>
<path fill-rule="evenodd" clip-rule="evenodd" d="M183.241 212.749C183.424 212.769 183.556 212.934 183.536 213.117C183.516 213.3 183.351 213.432 183.168 213.412C183.168 213.412 183.168 213.412 183.168 213.412L183.166 213.412L183.161 213.411L183.138 213.409C183.118 213.406 183.087 213.403 183.048 213.4C182.969 213.392 182.853 213.381 182.706 213.369C182.414 213.345 182.001 213.316 181.521 213.297C180.557 213.259 179.337 213.26 178.278 213.41C178.096 213.436 177.927 213.31 177.901 213.127C177.875 212.945 178.002 212.776 178.184 212.75C179.302 212.591 180.569 212.592 181.547 212.631C182.039 212.651 182.461 212.68 182.761 212.705C182.911 212.717 183.03 212.728 183.112 212.736C183.154 212.74 183.185 212.743 183.207 212.746L183.232 212.748L183.239 212.749L183.241 212.749Z" fill="#CE8873"/>
<path fill-rule="evenodd" clip-rule="evenodd" d="M217.485 191.879C217.607 192.017 217.595 192.228 217.457 192.35L211.864 197.323C211.796 197.384 211.705 197.414 211.614 197.406C211.523 197.399 211.439 197.354 211.382 197.282L210.336 195.975L206.24 198.899C206.164 198.953 206.069 198.973 205.978 198.954C205.887 198.935 205.808 198.879 205.76 198.799L204.138 196.095L202.885 197.598C202.803 197.696 202.672 197.739 202.547 197.707C202.423 197.676 202.328 197.576 202.303 197.45L201.807 194.981L198.21 198.854C198.085 198.989 197.874 198.997 197.739 198.872C197.604 198.746 197.597 198.535 197.722 198.401L201.762 194.051C201.847 193.959 201.976 193.923 202.097 193.957C202.217 193.991 202.308 194.089 202.333 194.212L202.819 196.636L203.927 195.307C203.996 195.224 204.101 195.18 204.208 195.188C204.316 195.197 204.413 195.257 204.468 195.349L206.146 198.146L210.206 195.249C210.35 195.147 210.549 195.174 210.659 195.313L211.683 196.592L217.014 191.852C217.152 191.729 217.362 191.742 217.485 191.879Z" fill="#EE0000"/>
<path d="M209.621 230.177C209.621 234.217 216.771 236.704 229.2 229.557C241.633 222.407 245.75 215.524 243.497 211.841C240.28 206.581 230.137 218.968 224.847 221.788C220.184 224.274 209.618 224.274 209.618 230.181L209.621 230.177Z" fill="white"/>
<path d="M210.869 231.413C210.869 235.453 218.018 236.077 230.448 230.793C243.648 225.184 246.998 216.76 244.744 213.077C241.324 207.484 230.758 220.537 226.095 223.024C221.432 225.51 210.865 225.51 210.865 231.417L210.869 231.413Z" fill="white"/>
<path fill-rule="evenodd" clip-rule="evenodd" d="M243.24 211.477C243.957 211.676 244.562 212.143 245.027 212.905C246.252 214.907 245.905 218.084 243.666 221.401C241.415 224.734 237.22 228.278 230.577 231.102C224.344 233.751 219.402 234.935 215.995 234.934C214.295 234.934 212.94 234.639 212.001 234.047C211.258 233.58 210.786 232.934 210.611 232.142L210.53 232.223V231.418C210.53 229.823 211.251 228.627 212.376 227.706C213.489 226.797 215.004 226.15 216.627 225.622C217.815 225.235 219.087 224.905 220.324 224.584C220.776 224.466 221.223 224.35 221.66 224.233C223.307 223.791 224.808 223.332 225.936 222.731C227.062 222.131 228.567 220.877 230.274 219.384C230.631 219.072 230.996 218.751 231.367 218.424C232.756 217.199 234.23 215.9 235.678 214.76C237.507 213.32 239.335 212.1 240.943 211.605C241.752 211.356 242.532 211.28 243.24 211.477ZM211.2 231.244V231.415C211.2 232.308 211.586 232.999 212.356 233.483C213.145 233.98 214.355 234.267 215.996 234.268C219.272 234.268 224.119 233.122 230.316 230.488L230.438 230.774L230.316 230.488C236.873 227.701 240.952 224.229 243.113 221.028C245.285 217.81 245.486 214.933 244.458 213.252L244.458 213.252C244.069 212.615 243.595 212.267 243.062 212.119C242.519 211.969 241.876 212.015 241.14 212.242C239.659 212.698 237.914 213.848 236.09 215.284C234.658 216.411 233.203 217.694 231.815 218.917C231.443 219.246 231.074 219.57 230.713 219.886C229.021 221.365 227.456 222.676 226.25 223.319C225.047 223.961 223.478 224.435 221.833 224.877C221.384 224.997 220.929 225.115 220.473 225.234C219.243 225.553 218.001 225.876 216.833 226.256C215.231 226.777 213.813 227.393 212.798 228.223C211.84 229.006 211.249 229.972 211.2 231.244Z" fill="#EE0000"/>
<path d="M187.864 291.715C186.311 294.822 186.621 303.921 186.931 305.785C186.931 305.785 188.174 307.961 194.081 307.648C199.987 307.338 217.704 302.365 219.257 300.498C219.19 300.352 219.257 296.685 219.257 296.685C219.257 296.685 215.084 294.455 212.107 293.265C208.741 291.918 206.824 289.535 206.824 289.535C206.824 289.535 205.271 294.818 199.987 295.752C194.704 296.685 196.258 293.888 194.704 292.955C193.151 292.022 187.868 291.712 187.868 291.712L187.864 291.715Z" fill="white"/>
<path fill-rule="evenodd" clip-rule="evenodd" d="M207.081 289.325C207.081 289.326 207.081 289.325 207.081 289.325C207.004 289.229 206.879 289.183 206.757 289.208C206.635 289.232 206.537 289.321 206.502 289.44C206.502 289.44 206.502 289.44 206.502 289.44L206.501 289.442L206.499 289.451C206.496 289.46 206.492 289.473 206.486 289.491C206.474 289.527 206.456 289.581 206.431 289.65C206.381 289.79 206.303 289.992 206.192 290.238C205.971 290.732 205.623 291.4 205.115 292.096C204.1 293.488 202.459 294.975 199.927 295.423C198.625 295.653 197.783 295.645 197.225 295.514C196.686 295.388 196.408 295.147 196.222 294.868C196.074 294.645 195.985 294.408 195.882 294.136C195.841 294.027 195.798 293.912 195.748 293.79C195.584 293.39 195.355 292.958 194.874 292.669C194.436 292.406 193.77 292.202 193.052 292.041C192.324 291.878 191.506 291.75 190.744 291.652C189.98 291.554 189.266 291.486 188.743 291.442C188.482 291.42 188.268 291.404 188.119 291.394C188.044 291.389 187.986 291.385 187.947 291.382L187.901 291.379L187.885 291.378C187.885 291.378 187.885 291.378 187.866 291.711L187.885 291.378C187.79 291.373 187.697 291.408 187.63 291.475L187.627 291.479C187.601 291.504 187.58 291.533 187.564 291.565C187.151 292.392 186.873 293.588 186.687 294.915C186.501 296.251 186.403 297.751 186.364 299.207C186.286 302.11 186.44 304.876 186.6 305.839C186.607 305.878 186.62 305.915 186.64 305.949L186.929 305.784C186.64 305.949 186.639 305.949 186.64 305.949L186.64 305.951L186.641 305.952L186.643 305.956L186.649 305.965C186.653 305.973 186.659 305.982 186.667 305.993C186.682 306.015 186.702 306.045 186.73 306.081C186.786 306.153 186.869 306.249 186.985 306.361C187.22 306.584 187.589 306.866 188.144 307.134C189.256 307.669 191.102 308.139 194.096 307.98C197.091 307.823 203.029 306.492 208.39 304.977C211.076 304.218 213.63 303.409 215.613 302.671C216.603 302.302 217.457 301.949 218.116 301.627C218.445 301.466 218.73 301.311 218.961 301.163C219.188 301.017 219.381 300.866 219.511 300.711C219.581 300.627 219.604 300.515 219.577 300.412L219.576 300.4C219.573 300.374 219.571 300.333 219.569 300.278C219.564 300.169 219.561 300.018 219.56 299.837C219.557 299.476 219.559 299.006 219.563 298.539C219.567 298.072 219.573 297.61 219.579 297.265C219.581 297.092 219.584 296.948 219.585 296.848L219.588 296.691C219.59 296.566 219.522 296.449 219.412 296.39L219.399 296.384L219.364 296.365L219.225 296.291C219.105 296.228 218.929 296.136 218.71 296.022C218.271 295.793 217.655 295.476 216.945 295.122C215.528 294.415 213.73 293.555 212.229 292.955C210.587 292.298 209.297 291.388 208.417 290.64C207.977 290.267 207.641 289.935 207.415 289.698C207.303 289.58 207.218 289.485 207.162 289.421C207.134 289.389 207.113 289.364 207.1 289.348L207.085 289.33L207.081 289.325ZM218.918 296.883L218.914 296.881C218.795 296.818 218.621 296.727 218.402 296.613C217.966 296.386 217.353 296.071 216.647 295.719C215.234 295.014 213.456 294.164 211.981 293.574C210.256 292.884 208.905 291.929 207.985 291.149C207.533 290.765 207.184 290.422 206.945 290.171C206.904 290.273 206.856 290.387 206.801 290.511C206.565 291.037 206.195 291.748 205.654 292.489C204.572 293.973 202.794 295.593 200.043 296.079C198.704 296.316 197.759 296.324 197.073 296.164C196.369 295.999 195.948 295.658 195.668 295.238C195.473 294.945 195.344 294.602 195.234 294.308C195.198 294.213 195.165 294.124 195.132 294.043C194.985 293.685 194.826 293.417 194.53 293.24C194.191 293.036 193.615 292.851 192.906 292.692C192.206 292.534 191.411 292.41 190.659 292.313C189.908 292.217 189.204 292.15 188.687 292.106C188.429 292.085 188.219 292.069 188.072 292.059C188.071 292.059 188.07 292.059 188.069 292.059C187.752 292.781 187.515 293.809 187.348 295.008C187.165 296.31 187.069 297.784 187.03 299.224C186.954 302.041 187.1 304.693 187.247 305.659C187.25 305.663 187.254 305.668 187.258 305.673C187.293 305.719 187.354 305.79 187.446 305.878C187.629 306.053 187.94 306.295 188.434 306.533C189.42 307.008 191.149 307.469 194.061 307.315C196.973 307.162 202.846 305.851 208.209 304.335C210.884 303.579 213.42 302.776 215.38 302.046C216.361 301.681 217.192 301.337 217.823 301.029C218.138 300.874 218.399 300.731 218.601 300.602C218.734 300.516 218.834 300.441 218.906 300.378C218.905 300.355 218.904 300.33 218.903 300.305C218.898 300.185 218.895 300.026 218.893 299.843C218.89 299.475 218.892 299.001 218.896 298.533C218.901 298.065 218.907 297.601 218.912 297.254C218.914 297.106 218.916 296.98 218.918 296.883ZM187.216 305.615C187.216 305.615 187.216 305.615 187.216 305.615Z" fill="#EE0000"/>
<path d="M187.864 290.47C186.311 293.576 186.621 300.726 186.931 302.593C186.931 302.593 188.174 304.769 194.081 304.456C199.987 304.146 217.704 298.863 219.257 296.996C217.704 293.576 215.217 293.266 212.107 292.023C208.741 290.676 206.824 288.293 206.824 288.293C206.824 288.293 205.271 293.576 199.987 294.509C194.704 295.443 196.258 292.646 194.704 291.713C193.151 290.78 187.868 290.47 187.868 290.47H187.864Z" fill="#EE0000"/>
<path fill-rule="evenodd" clip-rule="evenodd" d="M207.081 288.085C207.081 288.085 207.081 288.085 207.081 288.085C207.004 287.989 206.879 287.943 206.757 287.967C206.635 287.991 206.537 288.081 206.502 288.2C206.502 288.2 206.502 288.2 206.502 288.2L206.501 288.202L206.499 288.211C206.496 288.219 206.492 288.233 206.486 288.251C206.474 288.286 206.456 288.34 206.431 288.41C206.381 288.549 206.303 288.752 206.192 288.998C205.971 289.492 205.623 290.16 205.115 290.856C204.1 292.247 202.459 293.735 199.927 294.183C198.625 294.413 197.783 294.405 197.225 294.274C196.686 294.148 196.408 293.907 196.222 293.628C196.074 293.404 195.985 293.168 195.882 292.896C195.841 292.786 195.798 292.672 195.748 292.55C195.584 292.15 195.355 291.718 194.874 291.428C194.436 291.166 193.77 290.962 193.052 290.801C192.324 290.637 191.506 290.51 190.744 290.412C189.98 290.314 189.266 290.246 188.743 290.202C188.482 290.18 188.268 290.164 188.119 290.153C188.044 290.148 187.986 290.144 187.947 290.142L187.901 290.139L187.889 290.138L187.885 290.138C187.885 290.138 187.885 290.138 187.866 290.471L187.885 290.138C187.879 290.138 187.872 290.138 187.866 290.138H187.862C187.736 290.138 187.621 290.209 187.564 290.322C186.752 291.946 186.442 294.577 186.364 296.987C186.285 299.409 186.44 301.687 186.6 302.648C186.607 302.687 186.62 302.725 186.64 302.759L186.929 302.594C186.64 302.759 186.639 302.759 186.64 302.759L186.64 302.761L186.641 302.762L186.643 302.766L186.649 302.775C186.653 302.782 186.659 302.792 186.667 302.803C186.682 302.825 186.702 302.855 186.73 302.891C186.786 302.962 186.869 303.059 186.985 303.17C187.22 303.394 187.589 303.676 188.144 303.943C189.256 304.478 191.102 304.949 194.096 304.79C197.094 304.633 203.034 303.223 208.394 301.631C211.08 300.833 213.634 299.985 215.617 299.218C216.607 298.835 217.461 298.469 218.119 298.139C218.448 297.974 218.732 297.815 218.963 297.664C219.189 297.517 219.382 297.365 219.511 297.211C219.593 297.112 219.611 296.976 219.558 296.86C218.208 293.886 216.133 293.139 213.724 292.273C213.238 292.098 212.739 291.919 212.229 291.715C210.587 291.058 209.297 290.148 208.417 289.4C207.977 289.027 207.641 288.695 207.415 288.458C207.303 288.34 207.218 288.245 207.162 288.181C207.134 288.148 207.113 288.124 207.1 288.108L207.085 288.09L207.081 288.085ZM187.246 302.468C187.25 302.473 187.254 302.478 187.258 302.483C187.293 302.529 187.354 302.6 187.446 302.688C187.629 302.863 187.94 303.105 188.434 303.343C189.42 303.818 191.149 304.279 194.061 304.124C196.97 303.972 202.841 302.585 208.204 300.991C210.88 300.197 213.415 299.354 215.376 298.596C216.357 298.217 217.188 297.86 217.82 297.543C218.135 297.385 218.396 297.238 218.599 297.106C218.702 297.039 218.786 296.978 218.852 296.924C217.629 294.4 215.873 293.764 213.555 292.925C213.057 292.744 212.532 292.554 211.981 292.334C210.256 291.644 208.905 290.689 207.985 289.908C207.533 289.525 207.184 289.182 206.945 288.931C206.904 289.033 206.856 289.147 206.801 289.27C206.565 289.797 206.195 290.507 205.654 291.249C204.572 292.733 202.794 294.353 200.043 294.839C198.704 295.076 197.759 295.084 197.073 294.923C196.369 294.759 195.948 294.417 195.668 293.997C195.473 293.705 195.344 293.362 195.234 293.068C195.198 292.973 195.165 292.884 195.132 292.803C194.985 292.445 194.826 292.177 194.53 292C194.191 291.796 193.615 291.611 192.906 291.451C192.206 291.294 191.411 291.17 190.659 291.073C189.908 290.977 189.204 290.909 188.687 290.866C188.429 290.844 188.219 290.829 188.072 290.819C188.07 290.818 188.068 290.818 188.067 290.818C187.393 292.318 187.105 294.704 187.03 297.008C186.955 299.343 187.1 301.521 187.246 302.468Z" fill="#EE0000"/>
<path fill-rule="evenodd" clip-rule="evenodd" d="M220.022 215.693C220.124 215.847 220.081 216.053 219.928 216.155L193.635 233.484C193.481 233.585 193.275 233.543 193.173 233.389C193.072 233.236 193.114 233.029 193.268 232.928L219.561 215.598C219.714 215.497 219.921 215.539 220.022 215.693Z" fill="white"/>
<path fill-rule="evenodd" clip-rule="evenodd" d="M121.665 138.564C121.337 138.836 121.185 139.252 121.125 139.675C121.089 139.926 121.089 140.162 121.098 140.336C121.102 140.423 121.109 140.493 121.115 140.541C121.118 140.564 121.12 140.582 121.122 140.594L121.123 140.606L121.124 140.608C121.124 140.608 121.124 140.608 121.124 140.608C121.124 140.608 121.124 140.608 120.795 140.663C120.466 140.718 120.466 140.718 120.466 140.717L120.466 140.717L120.466 140.716L120.466 140.714L120.465 140.708L120.462 140.688C120.459 140.672 120.456 140.648 120.453 140.618C120.446 140.558 120.438 140.474 120.432 140.372C120.43 140.324 120.428 140.272 120.427 140.217C120.423 140.035 120.431 139.815 120.465 139.581C120.55 138.979 120.82 138.207 121.602 137.815C121.758 137.737 121.947 137.792 122.037 137.94C122.037 137.941 122.037 137.941 122.037 137.941L122.037 137.941L122.038 137.942L122.044 137.951C122.049 137.96 122.059 137.974 122.071 137.993C122.097 138.03 122.135 138.084 122.187 138.149C122.291 138.28 122.444 138.451 122.64 138.611C123.033 138.933 123.571 139.193 124.236 139.059C124.416 139.023 124.592 139.14 124.628 139.32C124.665 139.501 124.548 139.677 124.367 139.713C123.438 139.899 122.702 139.523 122.218 139.127C121.976 138.93 121.79 138.722 121.665 138.564ZM120.427 140.217C120.238 140.154 119.993 140.06 119.704 139.923C118.98 139.579 117.977 138.963 116.891 137.877C116.761 137.747 116.55 137.747 116.419 137.877C116.289 138.007 116.289 138.218 116.419 138.348C117.563 139.492 118.63 140.151 119.418 140.525C119.812 140.712 120.136 140.827 120.365 140.897C120.479 140.931 120.57 140.955 120.633 140.969C120.665 140.977 120.69 140.982 120.708 140.985L120.729 140.99L120.736 140.991L120.738 140.991L120.739 140.991L120.74 140.991C120.74 140.991 120.74 140.991 120.795 140.663L120.74 140.991C120.846 141.009 120.954 140.974 121.031 140.898C121.107 140.822 121.141 140.714 121.124 140.608" fill="white"/>
<path d="M124.103 148.734L137.993 151.161V151.888L126.813 151.444L124.103 148.734Z" fill="#EE0000"/>
<path d="M138.348 151.057L124.248 148.571C124.105 148.548 123.962 148.618 123.895 148.744C123.828 148.874 123.852 149.031 123.955 149.134L126.442 151.621C126.505 151.684 126.588 151.717 126.678 151.717C128.158 151.717 135.708 152.027 137.858 152.304C137.638 153.884 136.968 156.964 135.078 157.594C134.905 157.651 134.808 157.841 134.868 158.014C134.915 158.154 135.045 158.241 135.185 158.241C135.218 158.241 135.255 158.234 135.291 158.224C138.268 157.231 138.615 151.637 138.628 151.401C138.638 151.231 138.518 151.084 138.355 151.054L138.348 151.057Z" fill="#EE0000"/>
<path fill-rule="evenodd" clip-rule="evenodd" d="M136.802 218.483C133.528 216.664 131.133 214.619 129.26 213.022C129.006 212.805 128.762 212.596 128.526 212.398C127.541 211.567 126.682 210.886 125.911 210.529C125.52 210.348 125.132 210.24 124.747 210.248C124.355 210.257 123.988 210.384 123.645 210.635C123.496 210.744 123.464 210.953 123.573 211.101C123.682 211.25 123.89 211.282 124.039 211.173C124.279 210.997 124.515 210.92 124.761 210.915C125.013 210.91 125.298 210.979 125.631 211.134C126.308 211.447 127.1 212.067 128.097 212.907C128.33 213.104 128.572 213.311 128.825 213.527C130.716 215.141 133.192 217.255 136.58 219.123L136.681 219.178L136.794 219.16C139.702 218.696 142.096 217.429 144.037 215.821C144.179 215.703 144.199 215.493 144.081 215.351C143.964 215.21 143.754 215.19 143.612 215.307C141.772 216.831 139.523 218.026 136.802 218.483Z" fill="white"/>
<path fill-rule="evenodd" clip-rule="evenodd" d="M123.778 148.687C123.804 148.505 123.972 148.378 124.154 148.404L139.421 150.564C139.603 150.589 139.73 150.758 139.704 150.94C139.678 151.123 139.51 151.25 139.327 151.224L124.061 149.064C123.879 149.038 123.752 148.869 123.778 148.687Z" fill="white"/>
</svg>
