<?xml version="1.0" encoding="UTF-8" standalone="no"?>
<svg
   xmlns:dc="http://purl.org/dc/elements/1.1/"
   xmlns:cc="http://creativecommons.org/ns#"
   xmlns:rdf="http://www.w3.org/1999/02/22-rdf-syntax-ns#"
   xmlns:svg="http://www.w3.org/2000/svg"
   xmlns="http://www.w3.org/2000/svg"
   xmlns:sodipodi="http://sodipodi.sourceforge.net/DTD/sodipodi-0.dtd"
   xmlns:inkscape="http://www.inkscape.org/namespaces/inkscape"
   inkscape:version="1.0 (4035a4fb49, 2020-05-01)"
   sodipodi:docname="wordmark_2.svg"
   id="svg29"
   version="1.1"
   fill="none"
   viewBox="0 0 171.70731 171.70686"
   height="171.70686"
   width="171.70731">
  <metadata
     id="metadata33">
    <rdf:RDF>
      <cc:Work
         rdf:about="">
        <dc:format>image/svg+xml</dc:format>
        <dc:type
           rdf:resource="http://purl.org/dc/dcmitype/StillImage" />
      </cc:Work>
    </rdf:RDF>
  </metadata>
  <sodipodi:namedview
     inkscape:current-layer="svg29"
     inkscape:window-maximized="0"
     inkscape:window-y="268"
     inkscape:window-x="2011"
     inkscape:cy="101.43882"
     inkscape:cx="86.083143"
     inkscape:zoom="3.7333333"
     showgrid="false"
     id="namedview31"
     inkscape:window-height="1133"
     inkscape:window-width="1802"
     inkscape:pageshadow="2"
     inkscape:pageopacity="0"
     guidetolerance="10"
     gridtolerance="10"
     objecttolerance="10"
     borderopacity="1"
     bordercolor="#666666"
     pagecolor="#ffffff" />
  <path
     d="M 2.7690131,171.02167 84.979043,86.750173 c 0.515,-0.5279 0.6137,-1.3441 0.1842,-1.9436 -5.0009,-6.9807 -14.2237,-8.1906 -17.6426,-12.8804 -10.1274,-13.8923 -12.697,-21.7554 -17.0488,-21.2677 -0.304,0.0341 -0.575,0.1977 -0.7886,0.4166 l -29.6986,30.4433 C 2.8995931,99.031673 0.44950308,137.59167 1.7308394e-4,169.87967 c -0.0203000039,1.459 1.74987001606,2.186 2.76884001606,1.142 z"
     fill="#017cee"
     id="path2" />
  <path
     d="M 171.02314,168.93867 86.751643,86.728273 c -0.5279,-0.515 -1.3441,-0.6138 -1.9436,-0.1843 -6.9806,5.001 -8.1905,14.223697 -12.8804,17.642697 -13.8923,10.127 -21.7554,12.697 -21.2677,17.049 0.0341,0.304 0.1977,0.575 0.4167,0.788 l 30.4432,29.699 c 17.5133,17.085 56.073297,19.535 88.361297,19.984 1.459,0.021 2.186,-1.749 1.142,-2.768 z"
     fill="#00ad46"
     id="path4" />
  <path
     fill-rule="evenodd"
     clip-rule="evenodd"
     d="m 81.519443,151.72267 c -9.5667,-9.332 -14.0051,-27.795 4.3352,-65.868497 -29.8068,13.3205 -40.2521,30.830497 -35.1137,35.843497 z"
     fill="#04d659"
     id="path6" />
  <path
     d="M 168.93814,0.68629325 86.728243,84.957673 c -0.515,0.5279 -0.6137,1.344 -0.1842,1.9435 5.0009,6.9807 14.224097,8.1906 17.642097,12.8805 10.128,13.891997 12.698,21.754997 17.049,21.267997 0.304,-0.034 0.575,-0.198 0.789,-0.417 l 29.698,-30.443297 c 17.086,-17.5135 19.536,-56.0731 19.985,-88.3614297 0.02,-1.45908005 -1.75,-2.18617005 -2.769,-1.14165005 z"
     fill="#00c7d4"
     id="path8" />
  <path
     fill-rule="evenodd"
     clip-rule="evenodd"
     d="m 151.72314,90.189373 c -9.333,9.5663 -27.796,14.005297 -65.869497,-4.3352 13.3205,29.806497 30.830497,40.252497 35.843497,35.113497 z"
     fill="#11e1ee"
     id="path10" />
  <path
     d="M 0.68629308,2.7690033 84.957643,84.978973 c 0.5279,0.515 1.344,0.6138 1.9436,0.1843 6.9806,-5.0009 8.1905,-14.2237 12.8799,-17.6426 13.892997,-10.1274 21.755997,-12.697 21.267997,-17.0488 -0.034,-0.304 -0.198,-0.575 -0.416,-0.7886 L 90.189443,19.984673 C 72.675943,2.8995933 34.116243,0.44950325 1.8279431,1.7325377e-4 0.36886308,-0.02013675 -0.35822692,1.7500333 0.68629308,2.7690033 Z"
     fill="#e43921"
     id="path12" />
  <path
     fill-rule="evenodd"
     clip-rule="evenodd"
     d="m 90.188843,19.984173 c 9.5663,9.3327 14.005297,27.7952 -4.3352,65.8689 29.806497,-13.3203 40.252497,-30.8306 35.113497,-35.8433 z"
     fill="#ff7557"
     id="path14" />
  <path
     fill-rule="evenodd"
     clip-rule="evenodd"
     d="m 19.985643,81.518473 c 9.3327,-9.5667 27.7952,-14.0051 65.8689,4.3352 -13.3204,-29.8068 -30.8306,-40.2521 -35.8433,-35.1137 z"
     fill="#0cb6ff"
     id="path16" />
  <circle
     cx="84.797569"
     cy="86.898796"
     r="3.67606"
     transform="rotate(-0.709386)"
     fill="#4a4848"
     id="circle18" />
  <defs
     id="defs27">
    <clipPath
       id="clip0">
      <rect
         y="0"
         x="0"
         id="rect24"
         fill="#ffffff"
         height="270"
         width="175" />
    </clipPath>
  </defs>
</svg>
