<svg width="32" height="32" viewBox="0 0 32 32" fill="none" xmlns="http://www.w3.org/2000/svg">
  <path d="M5.99996 12.6665H4.66663V18.6665H5.99996V12.6665Z" fill="#161616"/>
  <path d="M27.3333 12.6665H26V18.6665H27.3333V12.6665Z" fill="#161616"/>
  <path d="M30.6666 2H1.33329C0.965103 2 0.666626 2.29848 0.666626 2.66667V13.3333C0.666626 13.7015 0.965103 14 1.33329 14H30.6666C31.0348 14 31.3333 13.7015 31.3333 13.3333V2.66667C31.3333 2.29848 31.0348 2 30.6666 2Z" fill="#444444"/>
  <path d="M30.6666 18H1.33329C0.965103 18 0.666626 18.2985 0.666626 18.6667V29.3333C0.666626 29.7015 0.965103 30 1.33329 30H30.6666C31.0348 30 31.3333 29.7015 31.3333 29.3333V18.6667C31.3333 18.2985 31.0348 18 30.6666 18Z" fill="#444444"/>
  <path d="M7.99996 8.66683H5.33329C5.15648 8.66683 4.98691 8.59659 4.86189 8.47157C4.73686 8.34654 4.66663 8.17697 4.66663 8.00016C4.66663 7.82335 4.73686 7.65378 4.86189 7.52876C4.98691 7.40373 5.15648 7.3335 5.33329 7.3335H7.99996C8.17677 7.3335 8.34634 7.40373 8.47136 7.52876C8.59639 7.65378 8.66663 7.82335 8.66663 8.00016C8.66663 8.17697 8.59639 8.34654 8.47136 8.47157C8.34634 8.59659 8.17677 8.66683 7.99996 8.66683Z" fill="#161616"/>
  <path d="M7.99996 24.6668H5.33329C5.15648 24.6668 4.98691 24.5966 4.86189 24.4716C4.73686 24.3465 4.66663 24.177 4.66663 24.0002C4.66663 23.8234 4.73686 23.6538 4.86189 23.5288C4.98691 23.4037 5.15648 23.3335 5.33329 23.3335H7.99996C8.17677 23.3335 8.34634 23.4037 8.47136 23.5288C8.59639 23.6538 8.66663 23.8234 8.66663 24.0002C8.66663 24.177 8.59639 24.3465 8.47136 24.4716C8.34634 24.5966 8.17677 24.6668 7.99996 24.6668Z" fill="#161616"/>
  <path d="M14.6666 8.66683H11.9999C11.8231 8.66683 11.6535 8.59659 11.5285 8.47157C11.4035 8.34654 11.3333 8.17697 11.3333 8.00016C11.3333 7.82335 11.4035 7.65378 11.5285 7.52876C11.6535 7.40373 11.8231 7.3335 11.9999 7.3335H14.6666C14.8434 7.3335 15.013 7.40373 15.138 7.52876C15.263 7.65378 15.3333 7.82335 15.3333 8.00016C15.3333 8.17697 15.263 8.34654 15.138 8.47157C15.013 8.59659 14.8434 8.66683 14.6666 8.66683Z" fill="#161616"/>
  <path d="M14.6666 24.6668H11.9999C11.8231 24.6668 11.6535 24.5966 11.5285 24.4716C11.4035 24.3465 11.3333 24.177 11.3333 24.0002C11.3333 23.8234 11.4035 23.6538 11.5285 23.5288C11.6535 23.4037 11.8231 23.3335 11.9999 23.3335H14.6666C14.8434 23.3335 15.013 23.4037 15.138 23.5288C15.263 23.6538 15.3333 23.8234 15.3333 24.0002C15.3333 24.177 15.263 24.3465 15.138 24.4716C15.013 24.5966 14.8434 24.6668 14.6666 24.6668Z" fill="#161616"/>
  <path d="M25.3333 9.33317C26.0697 9.33317 26.6667 8.73622 26.6667 7.99984C26.6667 7.26346 26.0697 6.6665 25.3333 6.6665C24.597 6.6665 24 7.26346 24 7.99984C24 8.73622 24.597 9.33317 25.3333 9.33317Z" fill="#72C472"/>
  <path d="M25.3333 25.3332C26.0697 25.3332 26.6667 24.7362 26.6667 23.9998C26.6667 23.2635 26.0697 22.6665 25.3333 22.6665C24.597 22.6665 24 23.2635 24 23.9998C24 24.7362 24.597 25.3332 25.3333 25.3332Z" fill="#72C472"/>
</svg>
