<svg width="32" height="32" viewBox="0 0 32 32" fill="none" xmlns="http://www.w3.org/2000/svg">
  <g clip-path="url(#clip0_190_11131)">
    <path fill-rule="evenodd" clip-rule="evenodd" d="M7.33329 26.6665H4.66663C2.45749 26.6665 0.666626 28.4574 0.666626 30.6665C0.666626 31.0347 0.963047 31.3332 1.33387 31.3332H10.666C11.0346 31.3332 11.3333 31.031 11.3333 30.6665C11.3333 28.4574 9.54243 26.6665 7.33329 26.6665Z" fill="#335262"/>
    <path fill-rule="evenodd" clip-rule="evenodd" d="M27.3333 26.6665H24.6666C22.4575 26.6665 20.6666 28.4574 20.6666 30.6665C20.6666 31.0347 20.963 31.3332 21.3339 31.3332H30.666C31.0346 31.3332 31.3333 31.031 31.3333 30.6665C31.3333 28.4574 29.5424 26.6665 27.3333 26.6665Z" fill="#335262"/>
    <path fill-rule="evenodd" clip-rule="evenodd" d="M17.3333 17.333H14.6666C12.4575 17.333 10.6666 19.1239 10.6666 21.333C10.6666 21.7012 10.963 21.9997 11.3339 21.9997H20.666C21.0346 21.9997 21.3333 21.6975 21.3333 21.333C21.3333 19.1239 19.5424 17.333 17.3333 17.333Z" fill="#5A7A84"/>
    <path fill-rule="evenodd" clip-rule="evenodd" d="M27.3333 8.6665H24.6666C22.4575 8.6665 20.6666 10.4574 20.6666 12.6665C20.6666 13.0347 20.963 13.3332 21.3339 13.3332H30.666C31.0346 13.3332 31.3333 13.031 31.3333 12.6665C31.3333 10.4574 29.5424 8.6665 27.3333 8.6665Z" fill="#76B5B5"/>
    <path fill-rule="evenodd" clip-rule="evenodd" d="M7.33329 8.6665H4.66663C2.45749 8.6665 0.666626 10.4574 0.666626 12.6665C0.666626 13.0347 0.963047 13.3332 1.33387 13.3332H10.666C11.0346 13.3332 11.3333 13.031 11.3333 12.6665C11.3333 10.4574 9.54243 8.6665 7.33329 8.6665Z" fill="#76B5B5"/>
    <path d="M5.99996 25.3332C7.84091 25.3332 9.33329 23.8408 9.33329 21.9998C9.33329 20.1589 7.84091 18.6665 5.99996 18.6665C4.15901 18.6665 2.66663 20.1589 2.66663 21.9998C2.66663 23.8408 4.15901 25.3332 5.99996 25.3332Z" fill="#5A7A84"/>
    <path d="M26 25.3332C27.8409 25.3332 29.3333 23.8408 29.3333 21.9998C29.3333 20.1589 27.8409 18.6665 26 18.6665C24.159 18.6665 22.6666 20.1589 22.6666 21.9998C22.6666 23.8408 24.159 25.3332 26 25.3332Z" fill="#5A7A84"/>
    <path d="M16 15.9997C17.8409 15.9997 19.3333 14.5073 19.3333 12.6663C19.3333 10.8254 17.8409 9.33301 16 9.33301C14.159 9.33301 12.6666 10.8254 12.6666 12.6663C12.6666 14.5073 14.159 15.9997 16 15.9997Z" fill="#76B5B5"/>
    <path d="M26 7.33317C27.8409 7.33317 29.3333 5.84079 29.3333 3.99984C29.3333 2.15889 27.8409 0.666504 26 0.666504C24.159 0.666504 22.6666 2.15889 22.6666 3.99984C22.6666 5.84079 24.159 7.33317 26 7.33317Z" fill="#9BCED3"/>
    <path d="M5.99996 7.33317C7.84091 7.33317 9.33329 5.84079 9.33329 3.99984C9.33329 2.15889 7.84091 0.666504 5.99996 0.666504C4.15901 0.666504 2.66663 2.15889 2.66663 3.99984C2.66663 5.84079 4.15901 7.33317 5.99996 7.33317Z" fill="#9BCED3"/>
  </g>
  <defs>
    <clipPath id="clip0_190_11131">
      <rect width="32" height="32" fill="white"/>
    </clipPath>
  </defs>
</svg>
