<svg width="32" height="32" viewBox="0 0 32 32" fill="none" xmlns="http://www.w3.org/2000/svg">
  <path d="M22.6666 3.3335H2.66663C1.56196 3.3335 0.666626 4.22883 0.666626 5.3335V26.6668C0.666626 27.7715 1.56196 28.6668 2.66663 28.6668H22.6666V3.3335Z" fill="url(#paint0_linear_190_11067)"/>
  <path d="M9.99992 13.3333C11.4727 13.3333 12.6666 12.1394 12.6666 10.6667C12.6666 9.19393 11.4727 8 9.99992 8C8.52719 8 7.33325 9.19393 7.33325 10.6667C7.33325 12.1394 8.52719 13.3333 9.99992 13.3333Z" fill="url(#paint1_linear_190_11067)"/>
  <path d="M28.6666 19.3337C28.2986 19.3337 28 19.035 28 18.667V14.0003H27.3333C26.9653 14.0003 26.6666 13.7017 26.6666 13.3337C26.6666 12.9657 26.9653 12.667 27.3333 12.667H28.6666C29.0346 12.667 29.3333 12.9657 29.3333 13.3337V18.667C29.3333 19.035 29.0346 19.3337 28.6666 19.3337Z" fill="url(#paint2_linear_190_11067)"/>
  <path d="M28.6667 3.3335C27.194 3.3335 26 4.5275 26 6.00016V8.00016C26 9.47283 27.194 10.6668 28.6667 10.6668C30.1393 10.6668 31.3333 9.47283 31.3333 8.00016V6.00016C31.3333 4.5275 30.1393 3.3335 28.6667 3.3335ZM30 8.00016C30 8.7355 29.402 9.3335 28.6667 9.3335C27.9313 9.3335 27.3333 8.7355 27.3333 8.00016V6.00016C27.3333 5.26483 27.9313 4.66683 28.6667 4.66683C29.402 4.66683 30 5.26483 30 6.00016V8.00016Z" fill="url(#paint3_linear_190_11067)"/>
  <path d="M28.6667 21.3335C27.194 21.3335 26 22.5275 26 24.0002V26.0002C26 27.4728 27.194 28.6668 28.6667 28.6668C30.1393 28.6668 31.3333 27.4728 31.3333 26.0002V24.0002C31.3333 22.5275 30.1393 21.3335 28.6667 21.3335ZM30 26.0002C30 26.7355 29.402 27.3335 28.6667 27.3335C27.9313 27.3335 27.3333 26.7355 27.3333 26.0002V24.0002C27.3333 23.2648 27.9313 22.6668 28.6667 22.6668C29.402 22.6668 30 23.2648 30 24.0002V26.0002Z" fill="url(#paint4_linear_190_11067)"/>
  <path d="M22.6666 16.0487L20.5806 12.34C20.468 12.1394 20.2606 12.012 20.0313 12.0007C19.8033 11.9867 19.5826 12.098 19.452 12.2874L13.9066 20.2974L10.472 16.8627C10.3306 16.722 10.1386 16.6547 9.93463 16.6707C9.73596 16.69 9.55663 16.798 9.44596 16.964L5.44596 22.964C5.30996 23.1687 5.29663 23.4314 5.41263 23.648C5.52863 23.8647 5.75463 24 6.00063 24H22.6673L22.6666 16.0487Z" fill="url(#paint5_linear_190_11067)"/>
  <path d="M21.9999 30.6668C21.6313 30.6668 21.3333 30.3688 21.3333 30.0002V2.00016C21.3333 1.6315 21.6313 1.3335 21.9999 1.3335C22.3686 1.3335 22.6666 1.6315 22.6666 2.00016V30.0002C22.6666 30.3688 22.3686 30.6668 21.9999 30.6668Z" fill="url(#paint6_linear_190_11067)"/>
  <defs>
    <linearGradient id="paint0_linear_190_11067" x1="11.6666" y1="3.3335" x2="11.6666" y2="28.6668" gradientUnits="userSpaceOnUse">
      <stop stop-color="#E0E0E6"/>
      <stop offset="1" stop-color="#C2C3CD"/>
    </linearGradient>
    <linearGradient id="paint1_linear_190_11067" x1="9.99992" y1="8" x2="9.99992" y2="13.3333" gradientUnits="userSpaceOnUse">
      <stop stop-color="#C2C3CD"/>
      <stop offset="1" stop-color="#A2A3B4"/>
    </linearGradient>
    <linearGradient id="paint2_linear_190_11067" x1="28" y1="12.667" x2="28" y2="19.3337" gradientUnits="userSpaceOnUse">
      <stop stop-color="#5B5E71"/>
      <stop offset="1" stop-color="#393A46"/>
    </linearGradient>
    <linearGradient id="paint3_linear_190_11067" x1="28.6667" y1="3.3335" x2="28.6667" y2="10.6668" gradientUnits="userSpaceOnUse">
      <stop stop-color="#5B5E71"/>
      <stop offset="1" stop-color="#393A46"/>
    </linearGradient>
    <linearGradient id="paint4_linear_190_11067" x1="28.6667" y1="21.3335" x2="28.6667" y2="28.6668" gradientUnits="userSpaceOnUse">
      <stop stop-color="#5B5E71"/>
      <stop offset="1" stop-color="#393A46"/>
    </linearGradient>
    <linearGradient id="paint5_linear_190_11067" x1="14.0006" y1="11.9995" x2="14.0006" y2="24" gradientUnits="userSpaceOnUse">
      <stop stop-color="#C2C3CD"/>
      <stop offset="1" stop-color="#A2A3B4"/>
    </linearGradient>
    <linearGradient id="paint6_linear_190_11067" x1="21.9999" y1="1.3335" x2="21.9999" y2="30.6668" gradientUnits="userSpaceOnUse">
      <stop stop-color="#5B5E71"/>
      <stop offset="1" stop-color="#393A46"/>
    </linearGradient>
  </defs>
</svg>
