<svg width="64" height="61" viewBox="0 0 64 61" fill="none" xmlns="http://www.w3.org/2000/svg">
  <rect x="0.666992" width="62.6661" height="60.6663" rx="30.3331" fill="white"/>
  <path d="M26.667 41.3332H29.3337C30.2174 41.3321 31.0647 40.9806 31.6896 40.3557C32.3144 39.7308 32.666 38.8836 32.667 37.9998V23.9998C32.667 23.4694 32.8777 22.9607 33.2528 22.5856C33.6279 22.2106 34.1366 21.9998 34.667 21.9998H37.3337C37.5105 21.9998 37.6801 21.9296 37.8051 21.8046C37.9301 21.6796 38.0004 21.51 38.0004 21.3332C38.0004 21.1564 37.9301 20.9868 37.8051 20.8618C37.6801 20.7367 37.5105 20.6665 37.3337 20.6665H34.667C33.7833 20.6676 32.9361 21.0191 32.3112 21.644C31.6863 22.2689 31.3348 23.1161 31.3337 23.9998V37.9998C31.3337 38.5303 31.123 39.039 30.7479 39.414C30.3728 39.7891 29.8641 39.9998 29.3337 39.9998H26.667C26.4902 39.9998 26.3207 40.0701 26.1956 40.1951C26.0706 40.3201 26.0004 40.4897 26.0004 40.6665C26.0004 40.8433 26.0706 41.0129 26.1956 41.1379C26.3207 41.2629 26.4902 41.3332 26.667 41.3332Z" fill="#BFDEE0"/>
  <path d="M20.667 44.6665C22.8761 44.6665 24.667 42.8756 24.667 40.6665C24.667 38.4574 22.8761 36.6665 20.667 36.6665C18.4579 36.6665 16.667 38.4574 16.667 40.6665C16.667 42.8756 18.4579 44.6665 20.667 44.6665Z" fill="#335262"/>
  <path d="M47.049 20.787L40.3823 16.1203C40.2824 16.0505 40.1653 16.0093 40.0436 16.0014C39.922 15.9935 39.8005 16.0191 39.6924 16.0753C39.5843 16.1316 39.4937 16.2165 39.4304 16.3207C39.3672 16.4249 39.3337 16.5444 39.3336 16.6663V25.9996C39.3337 26.1215 39.3672 26.2411 39.4304 26.3452C39.4937 26.4494 39.5843 26.5343 39.6924 26.5906C39.8005 26.6469 39.922 26.6724 40.0436 26.6645C40.1653 26.6566 40.2824 26.6155 40.3823 26.5456L47.049 21.879C47.1367 21.8175 47.2083 21.7358 47.2578 21.6407C47.3073 21.5457 47.3331 21.4401 47.3331 21.333C47.3331 21.2258 47.3073 21.1203 47.2578 21.0252C47.2083 20.9302 47.1367 20.8484 47.049 20.787Z" fill="#ED69AB"/>
</svg>
