<svg width="32" height="32" viewBox="0 0 32 32" fill="none" xmlns="http://www.w3.org/2000/svg">
  <path fill-rule="evenodd" clip-rule="evenodd" d="M16 0.666504C13.7949 0.666504 12 2.46079 12 4.6665C12 6.87222 13.7949 8.6665 16 8.6665C18.2051 8.6665 20 6.87222 20 4.6665C20 2.46079 18.2051 0.666504 16 0.666504Z" fill="#5A7A84"/>
  <path fill-rule="evenodd" clip-rule="evenodd" d="M13.3338 10C11.1244 10 9.33337 11.7854 9.33337 14.0022V20.6667C9.33337 20.9727 9.54137 21.2393 9.83871 21.3133L12.042 21.864L12.6694 30.722C12.698 31.068 12.986 31.3333 13.3334 31.3333H18.6667C19.014 31.3333 19.302 31.068 19.3307 30.722L19.958 21.864L22.1614 21.3133C22.4587 21.2393 22.6667 20.9727 22.6667 20.6667V14.0022C22.6667 11.7919 20.8823 10 18.6663 10H13.3338Z" fill="#335262"/>
</svg>
