<?xml version="1.0" encoding="UTF-8"?>
<svg width="16px" height="16px" viewBox="0 0 16 16" version="1.1" xmlns="http://www.w3.org/2000/svg" xmlns:xlink="http://www.w3.org/1999/xlink">
    <title>Artboard</title>
    <g id="Artboard" stroke="none" stroke-width="1" fill="none" fill-rule="evenodd">
        <g id="Group-3-Copy-7" fill-rule="nonzero">
            <path d="M6.5940158,15.7690861 L7.99998779,14.331559 L9.40589874,15.7690861 C9.79652281,16.1905634 10.5304688,16.0030028 10.6660581,15.4357129 L11.1655381,13.477252 L13.1028504,14.0293442 C13.6602221,14.1853802 14.185703,13.659411 14.0297586,13.1021003 L13.4778495,11.1641471 L15.4356695,10.6644535 C15.9977409,10.5300239 16.1970813,9.80926145 15.7689207,9.40386691 L14.3319124,7.99749819 L15.7689512,6.59109896 C16.1973254,6.18558235 15.9975578,5.46488094 15.4357,5.33051237 L13.47788,4.83081873 L14.0297891,2.89286559 C14.1857641,2.33543284 13.6601305,1.80964674 13.1028809,1.96565222 L11.1655686,2.51774441 L10.6660886,0.559283507 C10.5338868,0.00618423929 9.80512875,-0.196116304 9.40592926,0.22587976 L7.99998779,1.67408798 L6.59407683,0.225910278 C6.19939394,-0.191294538 5.46761467,-3.10862447e-14 5.33391748,0.559314024 L4.83443747,2.51777493 L2.89709468,1.96568274 C2.33969244,1.80961622 1.81424204,2.33558542 1.97018649,2.89289611 L2.52209557,4.83084925 L0.564275534,5.33054288 C0.00217360294,5.46494198 -0.197166742,6.18576545 0.230993858,6.59109896 L1.66803267,7.99749819 L0.230993858,9.40386691 C-0.197380365,9.80941404 0.00238722548,10.5300849 0.564245017,10.6644535 L2.52206506,11.1641471 L1.97015597,13.1021003 C1.814181,13.6595636 2.33981451,14.1853191 2.89706416,14.0293442 L4.83437644,13.477252 L5.33385645,15.4357129 C5.47258903,16.0161558 6.19936342,16.1862604 6.5940158,15.7690861 Z M6.5940158,15.7690861 L7.99998779,14.331559 L9.40589874,15.7690861 C9.79652281,16.1905634 10.5304688,16.0030028 10.6660581,15.4357129 L11.1655381,13.477252 L13.1028504,14.0293442 C13.6602221,14.1853802 14.185703,13.659411 14.0297586,13.1021003 L13.4778495,11.1641471 L15.4356695,10.6644535 C15.9977409,10.5300239 16.1970813,9.80926145 15.7689207,9.40386691 L14.3319124,7.99749819 L15.7689512,6.59109896 C16.1973254,6.18558235 15.9975578,5.46488094 15.4357,5.33051237 L13.47788,4.83081873 L14.0297891,2.89286559 C14.1857641,2.33543284 13.6601305,1.80964674 13.1028809,1.96565222 L11.1655686,2.51774441 L10.6660886,0.559283507 C10.5338868,0.00618423929 9.80512875,-0.196116304 9.40592926,0.22587976 L7.99998779,1.67408798 L6.59407683,0.225910278 C6.19939394,-0.191294538 5.46761467,-3.10862447e-14 5.33391748,0.559314024 L4.83443747,2.51777493 L2.89709468,1.96568274 C2.33969244,1.80961622 1.81424204,2.33558542 1.97018649,2.89289611 L2.52209557,4.83084925 L0.564275534,5.33054288 C0.00217360294,5.46494198 -0.197166742,6.18576545 0.230993858,6.59109896 L1.66803267,7.99749819 L0.230993858,9.40386691 C-0.197380365,9.80941404 0.00238722548,10.5300849 0.564245017,10.6644535 L2.52206506,11.1641471 L1.97015597,13.1021003 C1.814181,13.6595636 2.33981451,14.1853191 2.89706416,14.0293442 L4.83437644,13.477252 L5.33385645,15.4357129 C5.47258903,16.0161558 6.19936342,16.1862604 6.5940158,15.7690861 Z" id="certificate" fill="#0066CC"></path>
            <path d="M7.28283595,10.865694 L11.8828311,6.26568365 C12.0390349,6.10946454 12.0390349,5.85619976 11.8828311,5.69999591 L11.3171586,5.13430817 C11.1609548,4.97810432 10.9076747,4.97810432 10.7514709,5.13430817 L6.99999971,8.88577933 L5.24852378,7.1343034 C5.09231993,6.97808429 4.83903989,6.97808429 4.68283604,7.1343034 L4.11716356,7.69999114 C3.96095971,7.85621025 3.96095971,8.10947503 4.11716356,8.26567888 L6.71716347,10.8656788 C6.87335206,11.0218979 7.12661684,11.0218979 7.28283595,10.865694 Z M7.28283595,10.865694 L11.8828311,6.26568365 C12.0390349,6.10946454 12.0390349,5.85619976 11.8828311,5.69999591 L11.3171586,5.13430817 C11.1609548,4.97810432 10.9076747,4.97810432 10.7514709,5.13430817 L6.99999971,8.88577933 L5.24852378,7.1343034 C5.09231993,6.97808429 4.83903989,6.97808429 4.68283604,7.1343034 L4.11716356,7.69999114 C3.96095971,7.85621025 3.96095971,8.10947503 4.11716356,8.26567888 L6.71716347,10.8656788 C6.87335206,11.0218979 7.12661684,11.0218979 7.28283595,10.865694 Z" id="check" fill="#FFFFFF"></path>
        </g>
    </g>
</svg>