<?xml version="1.0" encoding="UTF-8"?>
<svg id="uuid-90c1c906-5cd2-420a-ae3d-0b083e78ada2" data-name="Hybrid Cloud Infrastructure" xmlns="http://www.w3.org/2000/svg" xmlns:xlink="http://www.w3.org/1999/xlink" viewBox="0 0 1080 1080">
  <title>Hybrid cloud infrastructure illustration</title>
<desc>hybrid, cloud, infrastructure, data, private, public, flexible workloads, server, connected</desc>
<metadata><?xpacket begin="﻿" id="W5M0MpCehiHzreSzNTczkc9d"?>
<x:xmpmeta xmlns:x="adobe:ns:meta/" x:xmptk="Adobe XMP Core 8.0-c001 1.000000, 0000/00/00-00:00:00        ">
   <rdf:RDF xmlns:rdf="http://www.w3.org/1999/02/22-rdf-syntax-ns#">
      <rdf:Description rdf:about=""
            xmlns:xmp="http://ns.adobe.com/xap/1.0/"
            xmlns:tiff="http://ns.adobe.com/tiff/1.0/"
            xmlns:dc="http://purl.org/dc/elements/1.1/">
         <xmp:rhcc-effective-on>2024-09-30T19:23:10.853Z</xmp:rhcc-effective-on>
         <xmp:rhcc-rights-restricted>no</xmp:rhcc-rights-restricted>
         <xmp:brand-content-subtype>Illustration</xmp:brand-content-subtype>
         <xmp:rhcc-metadata-complete-moderator>pending</xmp:rhcc-metadata-complete-moderator>
         <xmp:rhcc-translation-id>TRA3dc34a7a-d539-4ad3-a47d-dfa453d8ef47</xmp:rhcc-translation-id>
         <xmp:brand-content-type>Illustration</xmp:brand-content-type>
         <xmp:CreateDate>2024-09-30T19:23:10.853Z</xmp:CreateDate>
         <xmp:rhcc-derivative-id>DER3dc34a7a-d539-4ad3-a47d-dfa453d8ef47</xmp:rhcc-derivative-id>
         <xmp:rhcc-effective-on-set-on-upload>true</xmp:rhcc-effective-on-set-on-upload>
         <xmp:rhcc-uploaded-by>alwilker@redhat.com</xmp:rhcc-uploaded-by>
         <xmp:rhcc-metadata-complete-uploader>pending</xmp:rhcc-metadata-complete-uploader>
         <xmp:rhcc-file-last-modified>2024-09-30T19:23:18.860Z</xmp:rhcc-file-last-modified>
         <xmp:rhcc-audience>rhcc-audience:internal</xmp:rhcc-audience>
         <xmp:rhcc-notify-portal-subscribers-on-change>yes</xmp:rhcc-notify-portal-subscribers-on-change>
         <tiff:ImageLength>1080</tiff:ImageLength>
         <tiff:ImageWidth>1080</tiff:ImageWidth>
         <dc:format>image/svg+xml</dc:format>
         <dc:modified>2024-09-30T19:23:37.551Z</dc:modified>
         <dc:description>
            <rdf:Alt>
               <rdf:li xml:lang="x-default">hybrid, cloud, infrastructure, data, private, public, flexible workloads, server, connected</rdf:li>
            </rdf:Alt>
         </dc:description>
         <dc:title>
            <rdf:Alt>
               <rdf:li xml:lang="x-default">Hybrid cloud infrastructure illustration</rdf:li>
            </rdf:Alt>
         </dc:title>
      </rdf:Description>
   </rdf:RDF>
</x:xmpmeta>
                                                                                                    
                                                                                                    
                                                                                                    
                                                                                                    
                                                                                                    
                                                                                                    
                                                                                                    
                                                                                                    
                                                                                                    
                                                                                                    
                                                                                                    
                                                                                                    
                                                                                                    
                                                                                                    
                                                                                                    
                                                                                                    
                    
<?xpacket end="w"?></metadata>
<defs>
    <style>
      .uuid-8e27b6d8-11fb-4514-bc6a-e1a94d10a67b, .uuid-9fd7ec14-663f-464c-8145-aec92e48ddc8, .uuid-bc381e28-377e-4e20-bb48-2bb8d0a6e4b3, .uuid-360fb3fb-df80-4ca8-b356-acf04cdfd2e8, .uuid-8a387070-7c86-4fab-b4c4-c099619d85e1, .uuid-98d7b9ee-6f26-4ca1-b5c8-ed567d0efc9c, .uuid-e60330fb-12d0-42aa-8c47-00fde1863f0b, .uuid-2926aa62-1c7e-48ee-96de-48913ad94bfb, .uuid-6cff30ab-d3a1-418d-8a78-2f52ee8fc683, .uuid-29e1d172-49ae-45c7-aa3f-714fa8df3395, .uuid-b098c71e-5115-4575-89b4-357f2aefc92b {
        fill: none;
      }

      .uuid-8e27b6d8-11fb-4514-bc6a-e1a94d10a67b, .uuid-238e0654-cd10-4f03-92ab-8265577c034c, .uuid-b71fe66d-05f3-4947-b49d-574402041dc4, .uuid-c0be57d6-d239-4f68-9f0b-113ba9b9dd2c {
        stroke-miterlimit: 10;
      }

      .uuid-8e27b6d8-11fb-4514-bc6a-e1a94d10a67b, .uuid-b71fe66d-05f3-4947-b49d-574402041dc4, .uuid-ab845893-3311-4908-869c-517e6092ede9, .uuid-2d21d674-ec9b-4014-9f9d-a651a47956d7, .uuid-c0be57d6-d239-4f68-9f0b-113ba9b9dd2c, .uuid-b098c71e-5115-4575-89b4-357f2aefc92b {
        stroke: #e00;
      }

      .uuid-8e27b6d8-11fb-4514-bc6a-e1a94d10a67b, .uuid-29e1d172-49ae-45c7-aa3f-714fa8df3395, .uuid-b098c71e-5115-4575-89b4-357f2aefc92b {
        stroke-width: 3px;
      }

      .uuid-9fd7ec14-663f-464c-8145-aec92e48ddc8, .uuid-41721475-aa06-4282-9ac1-6a367a3e1b49, .uuid-f46e55c2-b393-4908-931c-4293a24b197b, .uuid-4fac8aeb-20fc-4c91-8c0d-d8d8c05a568a, .uuid-4d141b76-c46b-4779-a4bd-954ec38dda53, .uuid-5f2d1d6c-ea6f-4976-a67e-522637ebbb57, .uuid-89a4e501-7f95-42ad-ac2b-94db5c523793, .uuid-d646932b-1667-48d0-a48e-f87f3881a3ff {
        stroke-width: 0px;
      }

      .uuid-238e0654-cd10-4f03-92ab-8265577c034c {
        stroke-width: 1.1px;
      }

      .uuid-238e0654-cd10-4f03-92ab-8265577c034c, .uuid-360fb3fb-df80-4ca8-b356-acf04cdfd2e8, .uuid-8a387070-7c86-4fab-b4c4-c099619d85e1, .uuid-0b8072a4-c1b7-48d0-935a-4f1a4b0b8f84, .uuid-32cab2a8-03af-402c-aa6b-3e0bfc838458 {
        stroke: #000;
      }

      .uuid-b71fe66d-05f3-4947-b49d-574402041dc4, .uuid-ab845893-3311-4908-869c-517e6092ede9, .uuid-2fca8d42-179c-4544-8bb3-50c921fbae35, .uuid-bc381e28-377e-4e20-bb48-2bb8d0a6e4b3, .uuid-360fb3fb-df80-4ca8-b356-acf04cdfd2e8 {
        stroke-width: 3.3px;
      }

      .uuid-b71fe66d-05f3-4947-b49d-574402041dc4, .uuid-ab845893-3311-4908-869c-517e6092ede9, .uuid-2d21d674-ec9b-4014-9f9d-a651a47956d7, .uuid-c0be57d6-d239-4f68-9f0b-113ba9b9dd2c, .uuid-89a4e501-7f95-42ad-ac2b-94db5c523793 {
        fill: #e00;
      }

      .uuid-ab845893-3311-4908-869c-517e6092ede9, .uuid-2fca8d42-179c-4544-8bb3-50c921fbae35, .uuid-bc381e28-377e-4e20-bb48-2bb8d0a6e4b3, .uuid-360fb3fb-df80-4ca8-b356-acf04cdfd2e8, .uuid-8a387070-7c86-4fab-b4c4-c099619d85e1, .uuid-98d7b9ee-6f26-4ca1-b5c8-ed567d0efc9c, .uuid-e60330fb-12d0-42aa-8c47-00fde1863f0b, .uuid-2926aa62-1c7e-48ee-96de-48913ad94bfb, .uuid-0b8072a4-c1b7-48d0-935a-4f1a4b0b8f84, .uuid-6cff30ab-d3a1-418d-8a78-2f52ee8fc683, .uuid-2d21d674-ec9b-4014-9f9d-a651a47956d7, .uuid-83e4d009-b9a1-47a4-9181-93f3523ac606, .uuid-29e1d172-49ae-45c7-aa3f-714fa8df3395, .uuid-b098c71e-5115-4575-89b4-357f2aefc92b, .uuid-32cab2a8-03af-402c-aa6b-3e0bfc838458 {
        stroke-linecap: round;
        stroke-linejoin: round;
      }

      .uuid-2fca8d42-179c-4544-8bb3-50c921fbae35 {
        fill: #dede55;
        stroke: #dede55;
      }

      .uuid-bc381e28-377e-4e20-bb48-2bb8d0a6e4b3, .uuid-2926aa62-1c7e-48ee-96de-48913ad94bfb {
        stroke: #f7c8bb;
      }

      .uuid-8a387070-7c86-4fab-b4c4-c099619d85e1, .uuid-98d7b9ee-6f26-4ca1-b5c8-ed567d0efc9c, .uuid-e60330fb-12d0-42aa-8c47-00fde1863f0b, .uuid-2926aa62-1c7e-48ee-96de-48913ad94bfb, .uuid-6cff30ab-d3a1-418d-8a78-2f52ee8fc683, .uuid-83e4d009-b9a1-47a4-9181-93f3523ac606 {
        stroke-width: 2px;
      }

      .uuid-98d7b9ee-6f26-4ca1-b5c8-ed567d0efc9c, .uuid-83e4d009-b9a1-47a4-9181-93f3523ac606, .uuid-29e1d172-49ae-45c7-aa3f-714fa8df3395 {
        stroke: #fce3e3;
      }

      .uuid-e60330fb-12d0-42aa-8c47-00fde1863f0b {
        stroke: #fff;
      }

      .uuid-0b8072a4-c1b7-48d0-935a-4f1a4b0b8f84 {
        stroke-width: 2.77px;
      }

      .uuid-6cff30ab-d3a1-418d-8a78-2f52ee8fc683 {
        stroke: #707070;
      }

      .uuid-4f789b40-5a49-4d00-902c-5f3583df49fc {
        clip-path: url(#uuid-21c43b8a-be79-424b-8f7c-3234206c480b);
      }

      .uuid-2d21d674-ec9b-4014-9f9d-a651a47956d7 {
        stroke-width: .55px;
      }

      .uuid-c0be57d6-d239-4f68-9f0b-113ba9b9dd2c {
        stroke-width: .18px;
      }

      .uuid-f46e55c2-b393-4908-931c-4293a24b197b {
        fill: #f56e6e;
      }

      .uuid-4fac8aeb-20fc-4c91-8c0d-d8d8c05a568a {
        fill: #f7c8bb;
      }

      .uuid-4d141b76-c46b-4779-a4bd-954ec38dda53 {
        fill: #fce3e3;
      }

      .uuid-5f2d1d6c-ea6f-4976-a67e-522637ebbb57 {
        fill: #fff;
      }

      .uuid-d646932b-1667-48d0-a48e-f87f3881a3ff {
        fill: #ffe3dc;
      }

      .uuid-32cab2a8-03af-402c-aa6b-3e0bfc838458 {
        stroke-width: 2.08px;
      }
    </style>
    <clipPath id="uuid-21c43b8a-be79-424b-8f7c-3234206c480b">
      <path class="uuid-9fd7ec14-663f-464c-8145-aec92e48ddc8" d="M894.21,576.43c-3.84-2.92-7.73-5.86-11.67-8.82-38.5-28.97-66.87-70.59-83.54-115.06-18.29-48.78-11.91-100.62-29.21-149.77-31.16-88.5-120.64-144.78-214.61-144.78-19,0-37.91,2.3-56.27,6.68-62.46,14.91-121.51,50.78-157.94,104.41-17.03,25.07-24.04,52.55-35.44,80.05-13.14,31.72-32.76,61.11-58.41,84.06-54.19,48.48-122.63,91.26-119.78,188.23,0,.14.03.27.03.42,0,.34-.03.67-.03,1.01,0,47.44,23.72,92.83,62.9,120.51,50.11,35.4,105.25,26.94,161.36,12.81,63.62-16.01,130.77-20.87,195.92-11.99,39.57,5.39,84.37,15.35,120.2,33.39,34.79,17.52,61.19,47.57,96.28,64.66,97.13,47.31,206.09-18.27,206.09-122.42,0-63.79-30.21-108.61-75.88-143.41Z"/>
    </clipPath>
  </defs>
  <g id="uuid-f6179471-e494-45c6-b47b-9b7e325875e6" data-name="Red-10">
    <g>
      <path class="uuid-b098c71e-5115-4575-89b4-357f2aefc92b" d="M200.94,474.04H51.72c-5.64,0-10.22-4.57-10.22-10.22l.02-112.78c0-5.64,4.57-10.22,10.22-10.22h55.63"/>
      <path class="uuid-b71fe66d-05f3-4947-b49d-574402041dc4" d="M438.18,383.31c21.36,0,38.68-17.32,38.68-38.68s-16-37.27-36.21-38.55c.85-4.65,1.3-9.42,1.3-14.27,0-51.06-48.99-92.45-109.43-92.45-52.03,0-95.55,30.69-106.65,71.8-4.79-1.29-9.83-2-15.04-2-25.05,0-46.35,16.01-54.25,38.36-3.44-1-7.07-1.57-10.84-1.57-21.36,0-38.68,17.32-38.68,38.68s17.32,38.68,38.68,38.68h292.44Z"/>
      <path class="uuid-4d141b76-c46b-4779-a4bd-954ec38dda53" d="M894.21,576.43c-3.84-2.92-7.73-5.86-11.67-8.82-38.5-28.97-66.87-70.59-83.54-115.06-18.29-48.78-11.91-100.62-29.21-149.77-31.16-88.5-120.64-144.78-214.61-144.78-19,0-37.91,2.3-56.27,6.68-61.86,14.76-119.2,50.08-155.83,102.65-38.04,54.6-43.78,119.19-95.96,165.88-54.19,48.48-122.63,91.26-119.78,188.23,0,.14.03.27.03.42,0,.34-.03.67-.03,1.01,0,47.44,23.72,92.83,62.9,120.51,50.11,35.4,105.25,26.94,161.36,12.81,63.62-16.01,130.77-20.87,195.92-11.99,39.57,5.39,84.37,15.35,120.2,33.39,34.79,17.52,61.19,47.57,96.28,64.66,97.13,47.31,206.09-18.27,206.09-122.42,0-63.79-30.21-108.61-75.88-143.41Z"/>
      <rect class="uuid-ab845893-3311-4908-869c-517e6092ede9" x="554.73" y="194.3" width="301.54" height="84.2"/>
      <path class="uuid-9fd7ec14-663f-464c-8145-aec92e48ddc8" d="M894.21,576.43c-3.84-2.92-7.73-5.86-11.67-8.82-38.5-28.97-66.87-70.59-83.54-115.06-18.29-48.78-11.91-100.62-29.21-149.77-31.16-88.5-120.64-144.78-214.61-144.78-19,0-37.91,2.3-56.27,6.68-61.86,14.76-119.2,50.08-155.83,102.65-38.04,54.6-43.78,119.19-95.96,165.88-54.19,48.48-122.63,91.26-119.78,188.23,0,.14.03.27.03.42,0,.34-.03.67-.03,1.01,0,47.44,23.72,92.83,62.9,120.51,50.11,35.4,105.25,26.94,161.36,12.81,63.62-16.01,130.77-20.87,195.92-11.99,39.57,5.39,84.37,15.35,120.2,33.39,34.79,17.52,61.19,47.57,96.28,64.66,97.13,47.31,206.09-18.27,206.09-122.42,0-63.79-30.21-108.61-75.88-143.41Z"/>
      <path class="uuid-9fd7ec14-663f-464c-8145-aec92e48ddc8" d="M894.21,576.43c-3.84-2.92-7.73-5.86-11.67-8.82-38.5-28.97-66.87-70.59-83.54-115.06-18.29-48.78-11.91-100.62-29.21-149.77-31.16-88.5-120.64-144.78-214.61-144.78-19,0-37.91,2.3-56.27,6.68-61.86,14.76-119.2,50.08-155.83,102.65-38.04,54.6-43.78,119.19-95.96,165.88-54.19,48.48-122.63,91.26-119.78,188.23,0,.14.03.27.03.42,0,.34-.03.67-.03,1.01,0,47.44,23.72,92.83,62.9,120.51,50.11,35.4,105.25,26.94,161.36,12.81,63.62-16.01,130.77-20.87,195.92-11.99,39.57,5.39,84.37,15.35,120.2,33.39,34.79,17.52,61.19,47.57,96.28,64.66,97.13,47.31,206.09-18.27,206.09-122.42,0-63.79-30.21-108.61-75.88-143.41Z"/>
      <path class="uuid-9fd7ec14-663f-464c-8145-aec92e48ddc8" d="M894.21,576.43c-3.84-2.92-7.73-5.86-11.67-8.82-38.5-28.97-66.87-70.59-83.54-115.06-18.29-48.78-11.91-100.62-29.21-149.77-31.16-88.5-120.64-144.78-214.61-144.78-19,0-37.91,2.3-56.27,6.68-61.86,14.76-119.2,50.08-155.83,102.65-38.04,54.6-43.78,119.19-95.96,165.88-54.19,48.48-122.63,91.26-119.78,188.23,0,.14.03.27.03.42,0,.34-.03.67-.03,1.01,0,47.44,23.72,92.83,62.9,120.51,50.11,35.4,105.25,26.94,161.36,12.81,63.62-16.01,130.77-20.87,195.92-11.99,39.57,5.39,84.37,15.35,120.2,33.39,34.79,17.52,61.19,47.57,96.28,64.66,97.13,47.31,206.09-18.27,206.09-122.42,0-63.79-30.21-108.61-75.88-143.41Z"/>
      <g class="uuid-4f789b40-5a49-4d00-902c-5f3583df49fc">
        <rect class="uuid-83e4d009-b9a1-47a4-9181-93f3523ac606" x="38.4" y="423.3" width="325.12" height="88.41"/>
        <circle class="uuid-5f2d1d6c-ea6f-4976-a67e-522637ebbb57" cx="310.82" cy="467.5" r="10.4"/>
        <rect class="uuid-83e4d009-b9a1-47a4-9181-93f3523ac606" x="38.4" y="511.71" width="325.12" height="88.41"/>
        <circle class="uuid-5f2d1d6c-ea6f-4976-a67e-522637ebbb57" cx="310.82" cy="555.91" r="11.55"/>
        <rect class="uuid-83e4d009-b9a1-47a4-9181-93f3523ac606" x="38.4" y="600.12" width="325.12" height="88.41"/>
        <circle class="uuid-5f2d1d6c-ea6f-4976-a67e-522637ebbb57" cx="310.82" cy="644.32" r="11.55"/>
        <rect class="uuid-83e4d009-b9a1-47a4-9181-93f3523ac606" x="38.4" y="688.53" width="325.12" height="88.41"/>
        <g>
          <rect class="uuid-89a4e501-7f95-42ad-ac2b-94db5c523793" x="89.73" y="459.08" width="177.02" height="16.84"/>
          <rect class="uuid-89a4e501-7f95-42ad-ac2b-94db5c523793" x="90.82" y="547.6" width="174.83" height="16.63"/>
          <rect class="uuid-89a4e501-7f95-42ad-ac2b-94db5c523793" x="90.82" y="636.01" width="174.83" height="16.63"/>
          <rect class="uuid-89a4e501-7f95-42ad-ac2b-94db5c523793" x="90.82" y="724.42" width="174.83" height="16.63"/>
        </g>
        <circle class="uuid-5f2d1d6c-ea6f-4976-a67e-522637ebbb57" cx="310.82" cy="732.73" r="11.55"/>
        <path class="uuid-ab845893-3311-4908-869c-517e6092ede9" d="M863.27,683.55c-.25-2.13-.38-4.29-.38-6.47,0-37.44,37.87-67.79,84.58-67.79s84.58,30.35,84.58,67.79c0,33.34-1.19,61.06-40.76,66.73l-7.92,1.06h-139.71c-19.41,0-35.15-14.93-35.15-33.35s15.74-33.35,35.15-33.35c7.1,0,13.7,2,19.23,5.43l.37-.05Z"/>
      </g>
      <path class="uuid-b098c71e-5115-4575-89b4-357f2aefc92b" d="M909.38,454.66h118.9c5.64,0,10.22,4.57,10.22,10.22v208.57c0,5.64-4.57,10.22-10.22,10.22h-61.73"/>
      <path class="uuid-b098c71e-5115-4575-89b4-357f2aefc92b" d="M503.83,387.52v-140.9c0-5.64,4.57-10.22,10.22-10.22h40.68"/>
      <rect class="uuid-5f2d1d6c-ea6f-4976-a67e-522637ebbb57" x="586.45" y="211.14" width="13.73" height="50.52"/>
      <rect class="uuid-5f2d1d6c-ea6f-4976-a67e-522637ebbb57" x="610.39" y="211.14" width="13.73" height="50.52"/>
      <circle class="uuid-5f2d1d6c-ea6f-4976-a67e-522637ebbb57" cx="784.33" cy="236.4" r="8.89"/>
      <circle class="uuid-5f2d1d6c-ea6f-4976-a67e-522637ebbb57" cx="813.23" cy="236.4" r="8.89"/>
      <g>
        <path class="uuid-5f2d1d6c-ea6f-4976-a67e-522637ebbb57" d="M469.69,506.47c-31.62,0-57.35-25.73-57.35-57.35s25.73-57.35,57.35-57.35c3.94,0,7.91.42,11.83,1.25,12.73-30.74,43.4-51.31,76.73-51.31,5.76,0,11.53.6,17.18,1.8,8.38-26.62,26.9-50.75,52.28-68.07,27.11-18.5,61.24-28.69,96.1-28.69,84.7,0,153.61,58.54,153.61,130.51,0,5.07-.35,10.19-1.04,15.26,12.85,1.99,24.72,8.37,33.55,18.05,9.66,10.59,14.98,24.29,14.98,38.56,0,31.62-25.73,57.35-57.35,57.35h-397.85Z"/>
        <path class="uuid-4d141b76-c46b-4779-a4bd-954ec38dda53" d="M723.8,248.25c83.87,0,152.11,57.87,152.11,129.01,0,5.5-.42,11.05-1.24,16.53,13.1,1.67,25.17,7.95,34.14,17.79,9.41,10.32,14.59,23.65,14.59,37.55,0,30.8-25.06,55.85-55.85,55.85h-397.85c-30.8,0-55.85-25.06-55.85-55.85s25.06-55.85,55.85-55.85c4.25,0,8.53.5,12.74,1.5,12.22-30.9,42.5-51.55,75.82-51.55,6.11,0,12.23.69,18.2,2.06,8.08-26.84,26.53-51.15,52.1-68.6,26.86-18.33,60.69-28.43,95.25-28.43M723.8,245.25c-35.16,0-69.59,10.28-96.94,28.95-25.25,17.23-43.78,41.15-52.45,67.58-5.33-1.04-10.75-1.56-16.16-1.56-16.94,0-33.37,5.09-47.51,14.71-13.41,9.13-23.79,21.67-30.13,36.39-3.62-.69-7.28-1.04-10.92-1.04-32.45,0-58.85,26.4-58.85,58.85s26.4,58.85,58.85,58.85h397.85c32.45,0,58.85-26.4,58.85-58.85,0-14.65-5.46-28.7-15.37-39.57-8.73-9.58-20.35-16-32.99-18.28.58-4.66.87-9.36.87-14.02,0-72.79-69.58-132.01-155.11-132.01h0Z"/>
      </g>
      <path class="uuid-89a4e501-7f95-42ad-ac2b-94db5c523793" d="M726.07,404.92v19.92c0,3.72-3.04,6.76-6.76,6.76s-6.76-3.04-6.76-6.76v-19.92c-8.3-2.82-14.28-10.66-14.28-19.91,0-11.62,9.42-21.04,21.04-21.04s21.04,9.42,21.04,21.04c0,9.25-5.98,17.09-14.28,19.91Z"/>
      <path class="uuid-5f2d1d6c-ea6f-4976-a67e-522637ebbb57" d="M765.11,771.3c-.21-.39-21.46-39.35-24.99-46.4-.55-1.1-1.45-2.84-2.63-5.11-6.43-12.37-21.47-41.34-32.35-69.13-11.69-29.88-38.44-54.72-42.97-58.78,7.18-14.65,4.27-39.35.11-48.34-4.26-9.23-4.26-26.53-4.26-39.16,0-5.87,1.78-11.66,3.83-18.36,2.37-7.73,5.06-16.5,5.45-27.33.75-20.99-7.9-42.36-24.35-60.19-16.02-17.35-30.4-14.82-32.23-14.41-.17-.22-.33-.45-.51-.68-4.2-5.69-9.95-13.48-33.91-11.42-23.98,2.06-52.76,27.07-75.15,48.63-16.51,15.9-16.87,33.27-17.06,42.61-.03,1.58-.06,2.94-.16,3.98-.21,2.14-.3,4.78-.39,7.58-.22,6.59-.46,14.07-2.44,18.02-.56,1.12-1.34,2.23-2.24,3.51-3.66,5.23-8.66,12.38-6.36,30.21,2.54,19.71-6.43,25.78-20.01,34.97-1.56,1.06-3.19,2.16-4.86,3.32-15.52,10.8-13.94,24.96-13.71,26.55-1.47,1.43-18.75,18.5-23.53,32.14-7.26,20.74-21.68,71.02-24.29,112.9-1.83,29.22-1.33,60.36,1.41,87.68l.02.2c.51,5.08,2.49,14.72,10.08,22.31,4.34,4.34,25.77,18.46,39.59,27.41.12,2.65,1.68,39.15.32,47.32-.01.08,0,.17.06.23.05.06.13.1.22.1h140.49c.16,0,.28-.13.28-.28v-132.24h176.79c.1,0,.2-.06.25-.15l9.48-17.43c.05-.08.05-.19,0-.27Z"/>
      <path class="uuid-d646932b-1667-48d0-a48e-f87f3881a3ff" d="M513.95,577.23s39.72,53.77,108.09,6.96c0,0,6.47-19.41,19.8-61.04,13.34-41.63,9.62-128.19-21.36-128.19s-67.47,17.11-84.83,39.76c-17.36,22.65-21.51,1.76-28.24,31.2-6.73,29.44-7.49,41.23-3.72,57.23,3.77,16,10.26,54.08,10.26,54.08Z"/>
      <g>
        <path class="uuid-4fac8aeb-20fc-4c91-8c0d-d8d8c05a568a" d="M633.04,424.66c-6.79-8.3-21.64-9.06-42.68-6.29-21.04,2.77-29.79,15.1-46.14,30.29-16.35,15.19-10.33,6.7-22.15,5.44-11.83-1.26-12.58,13.84-12.33,38.75.25,24.91,16.36,20.14,16.36,20.14,1.79,4.6,4.44,9.23,7.57,13.72-.13,8.06-.7,19.86-2.84,26.54-3.47,10.82-9.4,17.36-6.06,22.65,3.34,5.28,9.38,12.1,20.96,15.61,7.9,2.4,13.23,2.99,15.83,3.12-2.76-1.06-7.61-7.41-6.91-39.33l8.07,6.13s9.51,7.68,19.15,5.26c.3-.07.33-.48.05-.59-4.41-1.74-23.16-10.13-28.94-28.87-.04-.15-.09-.29-.13-.44-.11-.39-.22-.78-.33-1.17-4.07-15.37-3.34-32.44-3.07-45.07.44-21.44,23.21-49.53,49.49-54.06,26.28-4.53,36.63,10.57,36.63,10.57,0,0,4.28-14.09-2.52-22.4Z"/>
        <path class="uuid-4fac8aeb-20fc-4c91-8c0d-d8d8c05a568a" d="M563.37,594.65s-.62.04-1.82-.03c1.07.41,1.82.03,1.82.03Z"/>
      </g>
      <path class="uuid-41721475-aa06-4282-9ac1-6a367a3e1b49" d="M606.7,556.2c-.39,0-.78-.13-1.1-.4-.72-.61-.81-1.68-.21-2.4,1.61-1.92,3.2-4.02,4.86-6.43,2.34-3.4,4.57-6.97,6.73-10.43,1.77-2.84,3.61-5.77,5.5-8.62,4.1-6.14,9.07-20.3,10.45-27.92.38-2.11.79-4.25,1.2-6.4,3.5-18.32,7.13-37.26-1.75-53.91l-7.27-10.97c-.47-.82,1.4-.79,2.21-1.26.81-.47,1.85-.19,2.32.63l5.71,9.96c9.46,17.76,5.73,37.29,2.11,56.19-.41,2.14-.82,4.27-1.2,6.37-1.47,8.1-6.59,22.63-10.97,29.2-1.87,2.8-3.69,5.72-5.45,8.53-2.18,3.49-4.43,7.09-6.81,10.55-1.72,2.5-3.38,4.69-5.06,6.69-.34.4-.82.61-1.3.61Z"/>
      <path class="uuid-5f2d1d6c-ea6f-4976-a67e-522637ebbb57" d="M437.22,873.36s1.62,36,.47,46.4h211.95l16.4-152.4c-3.92-13.43.49-23.78,4.31-38.97,0,0,25.69,34.68,27.11,38.97,0,0,12.57,32.11,23.9,31.42,11.32-.69,52.09,0,52.09,0l-8.87-27.85c-13.75-25.78-27.89-51.26-40.6-77.59-10.96-22.7-18.65-47.22-32.94-68.19-8.36-12.27-18.32-23.76-29.42-33.65l-43.06-23.55-19.64,18.75c-29.28,24.99-71.11-9.47-71.11-9.47l-54.6-2.85-26.5,5.54-12.74,11.07s-18.57,17.85-23.56,32.13c-5,14.28-21.42,67.12-24.28,112.82-2.86,45.7.71,80.69,1.43,87.83.71,7.14,3.57,15.71,10,22.14,4.3,4.3,25.87,18.51,39.67,27.45"/>
      <path class="uuid-2fca8d42-179c-4544-8bb3-50c921fbae35" d="M477.27,827.79s-4.02-4.72-19.02,6.7c-15,11.43-9.28,46.41-9.28,46.41,0,0,13.57-2.86,17.14-10.71,0,0,23.93-19.45,11.16-42.41Z"/>
      <path class="uuid-4d141b76-c46b-4779-a4bd-954ec38dda53" d="M460.29,701.35c-3.04,21.95-8.98,72.44-8.98,72.44,0,7.14-2.14,15-2.14,15,4.28,2.86,3.57,10,3.57,10,9.28,1.43,10.71,10.71,10.71,10.71l-.17.22c7.89,2.61,19.97,13.34,19.97,13.34,0,0-10,0-24.99,11.43-15,11.43-9.28,46.41-9.28,46.41,0,0-4.41-2.8-10.66-6.84,0,0,.3,46.23.3,46.23,21.3,0,37-.98,58.29-.74,4.16.05,2.29-104.06-1.25-113.63-9.68-26.18-39.67-73.51-35.37-104.57Z"/>
      <path class="uuid-41721475-aa06-4282-9ac1-6a367a3e1b49" d="M448.97,880.9s13.57-2.86,17.14-10.71l13.45-46.59h0s-27.52,5-30.94,27.54c-2.35,15.47.35,29.76.35,29.76Z"/>
      <path class="uuid-d646932b-1667-48d0-a48e-f87f3881a3ff" d="M539.66,859.48l-60.1-35.87h0c-4.2.95-11.73,3.59-21.3,10.88-8.02,6.11-10.12,18.96-10.33,29.6h.33s85.69,28.96,85.69,28.96"/>
      <path class="uuid-4fac8aeb-20fc-4c91-8c0d-d8d8c05a568a" d="M475.69,873.36c-2.18-.74-4.35-1.47-6.53-2.21-6.97-2.35-13.93-4.7-20.9-7.06h-.33c.21-10.64,2.31-23.49,10.33-29.6,9.57-7.29,17.1-9.93,21.3-10.88l9.49,5.67s-.34.15-.93.45c-14.81,7.47-20.9,25.45-13.9,40.49l1.47,3.15Z"/>
      <g>
        <line class="uuid-e60330fb-12d0-42aa-8c47-00fde1863f0b" x1="483.24" y1="823.06" x2="463.45" y2="809.5"/>
        <path class="uuid-98d7b9ee-6f26-4ca1-b5c8-ed567d0efc9c" d="M658.19,653.83s18.57,37.13,15,60.7c-3.57,23.56-12.14,35.7-7.14,52.84"/>
        <path class="uuid-4d141b76-c46b-4779-a4bd-954ec38dda53" d="M697.47,767.37c-1.43-4.28-27.11-38.97-27.11-38.97,0,0-2.45,8.68-3.53,13.28s-5.76,16.03,2.88,33.77l30.74-1.26-2.98-6.82Z"/>
      </g>
      <path class="uuid-98d7b9ee-6f26-4ca1-b5c8-ed567d0efc9c" d="M448.38,788.31c.46-1.8,2.02-8.42,2.02-14.52,0,0,5.71-59.27,11.43-78.55,0,0,2.14-7.14.71-12.85-1.43-5.71-2.86-19.99-2.86-19.99"/>
      <path class="uuid-98d7b9ee-6f26-4ca1-b5c8-ed567d0efc9c" d="M433.97,590.99s-18.57,17.85-23.56,32.13c-5,14.28-21.42,67.12-24.28,112.82-2.86,45.7.71,80.69,1.43,87.83.71,7.14,3.57,15.71,10,22.14s51.41,34.99,51.41,34.99"/>
      <path class="uuid-98d7b9ee-6f26-4ca1-b5c8-ed567d0efc9c" d="M448.97,788.02s-15.71-.71-25.71,1.43"/>
      <path class="uuid-238e0654-cd10-4f03-92ab-8265577c034c" d="M538.34,524.82s.83,20.46,0,23.96c0,0-3.11,11.04-7.26,19.39-4.15,8.35-6.35,21.43-4.93,27.71l1.42,6.29,11.34,23.09s-9.32-2.61-12.35-5.67c0,0,3.79,12.94,9.91,17.59,0,0-14.63-.55-26.41-6.96-11.77-6.41-19.7-11.9-24.02-17.52-4.32-5.63-16.44-20.45-22.25-23.47-5.82-3.03-13.73-6.9-22.77-3.1l-7.08,4.87s-1.91-11.11,6.65-20.25c8.57-9.13,18.83-14.14,21.45-16.43,2.62-2.29,13.02-11.89,10.73-25.7-2.29-13.81.06-22.44,2.21-26.29,2.15-3.85,7.63-11.32,8.06-18.66.43-7.35-.63-30.08,4.64-43.25,5.26-13.17,15.48-24.55,33.8-38.73,18.32-14.18,25.93-20.29,38.24-25.49,12.3-5.2,23.28-6.98,39.69-2.03,0,0,5.11,2.23,8.01,5.99l2.9,3.76s13-2.41,24.44,7.25c11.44,9.65,23.1,24.19,28.22,41.17,5.12,16.98,4.24,29.09,2.43,36.79-1.81,7.71-7.84,26.29-8.14,34.76-.29,8.47.19,23.24,2.81,33.07,2.63,9.82,3.84,14.04,4.45,17.25s2.9,16,1.35,23.41c-1.56,7.41-2.27,10.19-4.28,13.89,0,0-5.77-3.98-11.34-3.06-4.9.81-11.48,11.48-13.44,15.22-.13.25-.5.16-.49-.12.06-4.19-.19-17.83-6.04-21,0,0-.77,22.12-16.4,27.02,0,0,3.24-10.22,1.45-14.81-1.79-4.6-6.43-13.03-7.91-17.06-1.48-4.03-3.45-13.05-2.16-19.66l1.46-3.6s16.11-22.16,19.27-29.24c3.16-7.08,10.79-29.15,12.2-44.77,1.4-15.62,2.66-21.96-.62-32.29s-10.08-21.22-10.08-21.22c0,0-5.33,2.66-25.4.64,0,0-10.88,1.63-16.3,4.01-5.42,2.38-16.33,7.95-21.81,13.46-5.48,5.51-12.93,15.65-17.15,21.27-4.22,5.62-8.93,14.18-13.58,8.41-4.65-5.77-2.89-10.42-7.35-12.62-4.47-2.2-8.35,1.95-9.71,11.39-1.36,9.44-.42,30.9,9.77,30.74,0,0,3.28-.39,6.54-2.16,0,0,5.34,15.04,5.81,22.77Z"/>
      <g>
        <path class="uuid-6cff30ab-d3a1-418d-8a78-2f52ee8fc683" d="M526.09,443.89s4.28-1.43,6.43,2.86c2.14,4.28,4.28,7.85,9.28,4.28,5-3.57,19.99-29.28,48.56-36.42"/>
        <path class="uuid-6cff30ab-d3a1-418d-8a78-2f52ee8fc683" d="M512.52,511.02s5,18.57-4.28,36.42c-9.28,17.85-9.28,35.7-2.86,45.7,6.43,10,8.57,13.57,8.57,13.57"/>
      </g>
      <path class="uuid-360fb3fb-df80-4ca8-b356-acf04cdfd2e8" d="M533.94,503.89c2.82,10.28,4.28,19.27,4.28,19.27-.71-4.28,3.57,22.14-2.86,35.7-6.43,13.57-15,30.71-5,49.98l8.57,16.42s-8.95-1.94-12.85-7.14c1.12,1.6.13,8.72,11.03,19.69-.47-.4-6.5,0-17.25-3.75-10.25-3.58-20.44-8.31-28.54-15.68-5.03-4.57-8.53-10.31-12.86-15.49-4.12-4.93-8.69-9.63-14.02-13.26-9.04-6.17-19.64-7.55-28.55-.34-.66.54-1.3,1.11-1.92,1.7,0,0-2.86-15,13.57-26.42,16.42-11.43,27.85-16.42,24.99-38.56-2.86-22.14,5.71-27.85,8.57-33.56,2.86-5.71,2.14-18.57,2.86-25.71.71-7.14-2.14-27.85,17.14-46.41,19.28-18.57,49.98-46.41,74.98-48.56,24.99-2.14,29.99,6.43,34.28,12.14,0,0,15-4.28,32.13,14.28,17.14,18.57,24.99,39.99,24.28,59.98-.44,12.22-4.68,23.28-7.69,34.97-3.15,12.25-2.34,26.24-.09,38.6,1.18,6.47,3.24,12.73,4.81,19.1,3.13,12.7,4.36,28.8-2.17,40.66,0,0-9.86-7.65-16.29.2-6.43,7.85-9.28,13.57-9.28,13.57,0,0,2.14-18.57-5.71-23.56,0,0,0,22.14-16.42,27.85,0,0,3.57-10.71.71-17.14-2.8-6.29-6.61-12.15-8.66-18.76-1.86-5.99-.66-11.55-.62-17.65l3.57-4.29"/>
      <path class="uuid-6cff30ab-d3a1-418d-8a78-2f52ee8fc683" d="M613.92,398.19c5.74,6.81,11.42,15.03,13.83,23.68.35,1.26.62,2.59.32,3.86-.46,1.92-2.22,2.72-4.02,2.94,0,0-6.99.49-12.02,0"/>
      <path class="uuid-bc381e28-377e-4e20-bb48-2bb8d0a6e4b3" d="M620.17,428.65c-6.17-.64-11.76-1.74-18.04-1.1-5.92.61-11.73,2.14-17.24,4.38-10.88,4.43-20.71,11.63-28.15,20.72-5.79,7.07-10.24,15.14-16.37,21.95-7.4,8.22-9.4-7.75-12.82-11.31-1.07-1.11-2.57-1.88-4.1-1.76-4.27.33-5.41,5.3-5.94,8.72-.83,5.38-1.57,10.81-1.17,16.26.46,6.2,2.17,18,10.71,17.35,2.19-.17,4.23-1.12,6.16-2.17"/>
      <path class="uuid-32cab2a8-03af-402c-aa6b-3e0bfc838458" d="M552.51,471.74c2.75-.54,5.55-.83,8.37-.97,2.81-.13,5.64-.08,8.47.17,2.83.24,5.64.78,8.42,1.52,2.78.76,5.46,1.91,8.04,3.31.69.38.95,1.24.58,1.94-.38.69-1.24.95-1.94.58-.03-.02-.07-.04-.1-.06l-.06-.04c-2.23-1.46-4.62-2.75-7.18-3.69-2.56-.92-5.22-1.68-7.95-2.14-2.72-.48-5.49-.77-8.28-.87-2.78-.1-5.59-.04-8.37.26Z"/>
      <path class="uuid-0b8072a4-c1b7-48d0-935a-4f1a4b0b8f84" d="M610.01,477.87c1.68-.46,3.34-.85,5.02-1.22,1.68-.36,3.36-.69,5.06-.94,1.7-.26,3.4-.48,5.12-.58,1.71-.1,3.44-.13,5.14.11h0s.01,0,.01,0l1.38.63-1.43-.49h.02c-1.7-.07-3.38.13-5.05.39-1.67.26-3.32.64-4.96,1.06-1.64.42-3.26.9-4.87,1.41-1.6.52-3.22,1.07-4.77,1.66h-.01c-.55.22-1.17-.06-1.38-.61-.21-.55.07-1.17.62-1.38.03-.01.07-.02.1-.03Z"/>
      <g>
        <path class="uuid-41721475-aa06-4282-9ac1-6a367a3e1b49" d="M573.33,487.76c-.41.04-.7.37-.74.76l-5.41-.53c.04-.43-.24-.84-.68-.92-.46-.09-.91.22-.99.68-.02.13-.56,3.09.95,4.91.74.9,1.82,1.35,3.19,1.35,1.47,0,2.62-.46,3.44-1.38,1.44-1.62,1.19-4.03,1.18-4.13-.05-.46-.46-.78-.94-.75Z"/>
        <path class="uuid-41721475-aa06-4282-9ac1-6a367a3e1b49" d="M622.63,490.02c-.31-.41-.43-.58-7.52-.47-.43,0-.79.34-.83.77-.01.12-.28,3.03,1.23,4.69.67.74,1.61,1.14,2.71,1.14,2.45,0,3.59-1.28,4.13-2.35.66-1.33.72-3.23.3-3.78Z"/>
      </g>
      <g>
        <path class="uuid-8a387070-7c86-4fab-b4c4-c099619d85e1" d="M556.79,483.88s6.43,6.43,24.28,4.28"/>
        <path class="uuid-8a387070-7c86-4fab-b4c4-c099619d85e1" d="M608.92,489.59s13.57,2.86,19.28-1.43"/>
      </g>
      <g>
        <path class="uuid-2926aa62-1c7e-48ee-96de-48913ad94bfb" d="M582.5,514.59s-.71,2.86,1.43,4.28c2.14,1.43,6.43,2.86,6.43,2.86"/>
        <path class="uuid-2926aa62-1c7e-48ee-96de-48913ad94bfb" d="M599.64,498.88c2.13,5.52,4.56,10.78,5.04,16.74.1,1.21.06,2.47-.39,3.6-.68,1.7-2.15,2.51-3.93,2.51"/>
      </g>
      <path class="uuid-f46e55c2-b393-4908-931c-4293a24b197b" d="M605.18,535.05c-.53-.3-1.2-.12-1.5.41,0,.01-.1.17-.27.44l-29.66-2.64c-.14-.31-.21-.49-.22-.51-.22-.56-.86-.84-1.42-.62s-.84.86-.62,1.42c.22.55,5.4,13.55,16.73,13.55s17.13-10.12,17.38-10.55c.3-.53.12-1.2-.41-1.5Z"/>
      <path class="uuid-89a4e501-7f95-42ad-ac2b-94db5c523793" d="M605.63,535.53c-.23-.47-.75-.71-1.26-.59-4.1,1.03-10.43-1.22-12.95-2.23-1.11-.44-2.29-.52-3.41-.24-8.21,2.08-15.06-.33-15.12-.35-.53-.19-1.12.05-1.36.56-.24.51-.06,1.12.42,1.41,8.14,4.94,15.01,6.45,20.37,6.45,8.07,0,12.69-3.42,13-3.66.41-.32.55-.88.32-1.35Z"/>
      <path class="uuid-4fac8aeb-20fc-4c91-8c0d-d8d8c05a568a" d="M633.71,442.33s-6.76-14.44-11.05-15.1c-4.9-.76-10.13-1.19-10.13-1.19l-5.3,6.05,20.15,6.65,6.33,3.59Z"/>
      <g>
        <path class="uuid-29e1d172-49ae-45c7-aa3f-714fa8df3395" d="M799.92,296.97c-20.56-13.06-45.71-20.74-72.87-20.74s-52.31,7.68-72.88,20.75"/>
        <path class="uuid-29e1d172-49ae-45c7-aa3f-714fa8df3395" d="M842.46,343.73c-4.29-8.79-9.8-16.99-16.35-24.43"/>
      </g>
      <path class="uuid-b098c71e-5115-4575-89b4-357f2aefc92b" d="M886.97,816.01v94.06c0,5.64-4.57,10.22-10.22,10.22h-136.33"/>
      <line class="uuid-8e27b6d8-11fb-4514-bc6a-e1a94d10a67b" x1="886.97" y1="746.76" x2="886.97" y2="816.01"/>
      <line class="uuid-b098c71e-5115-4575-89b4-357f2aefc92b" x1="555.29" y1="920.29" x2="346.44" y2="920.29"/>
      <path class="uuid-41721475-aa06-4282-9ac1-6a367a3e1b49" d="M571.2,919.66l-5.66-13.64c-.26-.62-.86-1.02-1.53-1.02h-96.27c-.63,0-1.21.36-1.49.93-.28.57-.21,1.25.18,1.75l10.66,13.64c.31.4.8.64,1.3.64h91.27c.55,0,1.07-.28,1.38-.74.31-.46.36-1.04.15-1.55Z"/>
      <path class="uuid-2d21d674-ec9b-4014-9f9d-a651a47956d7" d="M567.43,910.58l-1.89-4.56c-.26-.62-.86-1.02-1.53-1.02h-96.27c-.63,0-1.21.36-1.49.93-.28.57-.21,1.25.18,1.75l2.19,2.8,98.81.11Z"/>
      <path class="uuid-41721475-aa06-4282-9ac1-6a367a3e1b49" d="M806.74,755.69c-2.16-2.59-5.34-4.07-8.71-4.07h-231.56c-5.51,0-10.21,3.94-11.18,9.36l-26.52,147.65c-.59,3.32.31,6.71,2.47,9.29,2.16,2.58,5.34,4.07,8.71,4.07h231.56c5.51,0,10.21-3.94,11.18-9.36l26.52-147.65c.59-3.32-.31-6.71-2.47-9.29Z"/>
      <path class="uuid-c0be57d6-d239-4f68-9f0b-113ba9b9dd2c" d="M533.49,914.48l26.52-147.65c.97-5.42,5.67-9.36,11.18-9.36h231.56c2.14,0,4.2.6,5.98,1.7-.45-1.25-1.1-2.44-1.98-3.49-2.16-2.59-5.34-4.07-8.71-4.07h-231.56c-5.51,0-10.21,3.94-11.18,9.36l-26.52,147.65c-.59,3.32.31,6.71,2.47,9.29.79.94,1.71,1.73,2.73,2.36-.66-1.84-.84-3.83-.49-5.8Z"/>
      <path class="uuid-98d7b9ee-6f26-4ca1-b5c8-ed567d0efc9c" d="M448.97,880.9s-7.61-33.08,8.42-46.47c14.47-12.09,25.86-11.37,25.86-11.37"/>
    </g>
  </g>
</svg>