<svg width="334" height="321" viewBox="0 0 334 321" fill="none" xmlns="http://www.w3.org/2000/svg">
  <g clip-path="url(#clip0_160_20799)">
    <path d="M301.669 37.6228C313.456 43.3248 322.607 53.2348 328.086 67.6814C339.114 96.7609 333.192 130.939 315.631 155.825C307.053 167.984 296.289 177.959 286.23 188.719C275.778 199.906 267.081 212.53 258.174 225.039C243.293 245.936 226.211 266.535 202.092 275.71C175.689 285.752 146.49 280.931 122.463 266.586C98.2855 252.15 77.4762 232.482 53.2686 217.937C31.0059 204.561 9.63412 189.264 2.70559 161.886C-4.38219 133.884 5.08738 106.102 22.0716 84.2726C31.1719 72.5771 42.0136 64.1443 51.3104 52.6081C60.1768 41.6071 68.1794 27.9736 79.2312 19.2732C99.9998 2.93606 125.393 -3.31487 150.868 2.80732C174.347 8.45178 194.885 22.5562 217.988 29.3661C237.425 35.0953 258.36 30.657 278.356 31.8563C286.897 32.3679 294.737 34.2652 301.666 37.6194L301.669 37.6228Z" fill="#DEDEDE"/>
    <path d="M191.352 293.396C191.352 288.652 192.554 283.824 193.486 281.026L204.565 283.231C204.565 287.636 205.608 290.973 207.164 291.905C207.164 291.905 205.243 296.106 200.16 296.445C195.078 296.784 191.352 293.396 191.352 293.396Z" fill="#FAB6B6"/>
    <path d="M108.904 92.2549H17.5654V143.631H108.904V92.2549Z" fill="#C9C9C9"/>
    <path d="M210.541 92.2549H119.203V143.631H210.541V92.2549Z" fill="#C9C9C9"/>
    <path d="M312.219 92.2549H220.881V143.631H312.219V92.2549Z" fill="#C9C9C9"/>
    <path d="M108.904 30.9858H17.5654V82.362H108.904V30.9858Z" fill="#C9C9C9"/>
    <path d="M210.541 30.9858H119.203V82.362H210.541V30.9858Z" fill="#C9C9C9"/>
    <path d="M312.219 30.9858H220.881V82.362H312.219V30.9858Z" fill="#C9C9C9"/>
    <path d="M108.904 153.524H17.5654V204.9H108.904V153.524Z" fill="#C9C9C9"/>
    <path d="M210.541 153.524H119.203V204.9H210.541V153.524Z" fill="#C9C9C9"/>
    <path d="M312.219 153.524H220.881V204.9H312.219V153.524Z" fill="#C9C9C9"/>
    <path d="M7.38125 224.812H323.407C323.688 224.812 323.915 224.585 323.915 224.304C323.915 224.022 323.688 223.795 323.407 223.795H7.38125C7.10005 223.795 6.87305 224.022 6.87305 224.304C6.87305 224.585 7.10005 224.812 7.38125 224.812Z" fill="#EE0000"/>
    <path d="M113.874 87.2812H22.5356V138.657H113.874V87.2812Z" fill="white"/>
    <path d="M113.874 138.661V137.983H23.2131V87.9587H113.196V138.661H113.874V137.983V138.661H114.551V86.6035H21.8579V139.338H114.551V138.661H113.874Z" fill="black"/>
    <path d="M215.515 87.2812H124.177V138.657H215.515V87.2812Z" fill="white"/>
    <path d="M215.515 138.661V137.983H124.854V87.9587H214.837V138.661H215.515V137.983V138.661H216.192V86.6035H123.499V139.338H216.192V138.661H215.515Z" fill="black"/>
    <path d="M317.19 87.2812H225.852V138.657H317.19V87.2812Z" fill="white"/>
    <path d="M317.19 138.661V137.983H226.53V87.9587H316.512V138.661H317.19V137.983V138.661H317.868V86.6035H225.174V139.338H317.868V138.661H317.19Z" fill="black"/>
    <path d="M113.874 26.0122H22.5356V77.3884H113.874V26.0122Z" fill="white"/>
    <path d="M113.874 77.3916V76.714H23.2131V26.6897H113.196V77.3916H113.874V76.714V77.3916H114.551V25.3345H21.8579V78.0693H114.551V77.3916H113.874Z" fill="black"/>
    <path d="M215.515 26.0122H124.177V77.3884H215.515V26.0122Z" fill="white"/>
    <path d="M215.515 77.3916V76.714H124.854V26.6897H214.837V77.3916H215.515V76.714V77.3916H216.192V25.3345H123.499V78.0693H216.192V77.3916H215.515Z" fill="black"/>
    <path d="M317.19 26.0122H225.852V77.3884H317.19V26.0122Z" fill="white"/>
    <path d="M317.19 77.3916V76.714H226.53V26.6897H316.512V77.3916H317.19V76.714V77.3916H317.868V25.3345H225.174V78.0693H317.868V77.3916H317.19Z" fill="black"/>
    <path d="M113.874 148.55H22.5356V199.926H113.874V148.55Z" fill="white"/>
    <path d="M113.874 199.93V199.253H23.2131V149.228H113.196V199.93H113.874V199.253V199.93H114.551V147.873H21.8579V200.608H114.551V199.93H113.874Z" fill="black"/>
    <path d="M215.515 148.55H124.177V199.926H215.515V148.55Z" fill="white"/>
    <path d="M215.515 199.93V199.253H124.854V149.228H214.837V199.93H215.515V199.253V199.93H216.192V147.873H123.499V200.608H216.192V199.93H215.515Z" fill="black"/>
    <path d="M317.19 148.55H225.852V199.926H317.19V148.55Z" fill="white"/>
    <path d="M317.19 199.93V199.253H226.53V149.228H316.512V199.93H317.19V199.253V199.93H317.868V147.873H225.174V200.608H317.868V199.93H317.19Z" fill="black"/>
    <path d="M110.144 91.0112H26.2661V134.927H110.144V91.0112Z" fill="white"/>
    <path d="M110.144 91.0112H26.2661V134.927H110.144V91.0112Z" fill="white"/>
    <path d="M211.785 91.0112H127.907V134.927H211.785V91.0112Z" fill="white"/>
    <path d="M211.785 91.0112H127.907V134.927H211.785V91.0112Z" fill="white"/>
    <path d="M313.46 91.0112H229.582V134.927H313.46V91.0112Z" fill="white"/>
    <path d="M313.46 91.0112H229.582V134.927H313.46V91.0112Z" fill="white"/>
    <path d="M110.144 29.7422H26.2661V73.6579H110.144V29.7422Z" fill="white"/>
    <path d="M110.144 29.7422H26.2661V73.6579H110.144V29.7422Z" fill="white"/>
    <path d="M211.785 29.7422H127.907V73.6579H211.785V29.7422Z" fill="white"/>
    <path d="M211.785 29.7422H127.907V73.6579H211.785V29.7422Z" fill="white"/>
    <path d="M110.144 152.281H26.2661V196.2H110.144V152.281Z" fill="white"/>
    <path d="M110.144 152.281H26.2661V196.2H110.144V152.281Z" fill="white"/>
    <path d="M211.785 152.281H127.907V196.2H211.785V152.281Z" fill="white"/>
    <path d="M211.785 152.281H127.907V196.2H211.785V152.281Z" fill="white"/>
    <path d="M313.46 152.281H229.582V196.2H313.46V152.281Z" fill="white"/>
    <path d="M313.46 152.281H229.582V196.2H313.46V152.281Z" fill="white"/>
    <path d="M313.46 29.7422H229.582V73.6579H313.46V29.7422Z" fill="#DEDEDE"/>
    <path d="M313.46 29.7422H229.582V73.6579H313.46V29.7422Z" fill="white"/>
    <mask id="mask0_160_20799" style="mask-type:luminance" maskUnits="userSpaceOnUse" x="26" y="29" width="288" height="168">
      <path d="M26.2661 134.931V91.0148H110.144V134.931H26.2661ZM211.781 134.931V91.0148H127.904V134.931H211.781ZM313.46 134.931V91.0148H229.582V134.931H313.46ZM110.144 73.6613V29.7422H26.2661V73.6579H110.144V73.6613ZM211.781 73.6613V29.7422H127.904V73.6579H211.781V73.6613ZM313.46 73.6613V29.7422H229.582V73.6579H313.46V73.6613ZM110.144 196.2V152.281H26.2661V196.2H110.144ZM211.781 196.2V152.281H127.904V196.2H211.781ZM313.46 196.2V152.281H229.582V196.2H313.46Z" fill="white"/>
    </mask>
    <g mask="url(#mask0_160_20799)">
      <path d="M272.631 199.93V176.593C272.631 173.395 270.039 170.803 266.837 170.8H179.497C178.176 170.8 176.986 170.265 176.119 169.401C175.255 168.533 174.72 167.344 174.72 166.023V118.157C174.72 116.835 175.255 115.646 176.119 114.779C176.986 113.915 178.176 113.379 179.497 113.379H285.485C288.683 113.379 291.275 110.788 291.278 107.586V64.3816C291.278 61.1833 288.687 58.5915 285.485 58.5881H277.404C276.083 58.5881 274.894 58.0528 274.026 57.1888C273.163 56.3215 272.627 55.1323 272.627 53.811V46.6622C272.627 43.4639 270.035 40.872 266.834 40.8687H175.143C171.945 40.8687 169.353 43.4605 169.35 46.6622C169.35 47.9835 168.814 49.1727 167.95 50.0401C167.083 50.904 165.894 51.4393 164.573 51.4393H69.1587C65.9604 51.4393 63.3685 54.0312 63.3652 57.2329V107.742C63.3652 109.063 62.8299 110.252 61.9659 111.12C61.0986 111.984 59.9094 112.519 58.588 112.519H51.9068C48.7085 112.519 46.1167 115.111 46.1133 118.312V168.974C46.1133 172.172 48.7051 174.764 51.9068 174.767H113.759V173.751H51.9068C50.5855 173.751 49.3963 173.216 48.529 172.352C47.665 171.484 47.1297 170.295 47.1297 168.974V118.312C47.1297 116.991 47.665 115.802 48.529 114.935C49.3963 114.071 50.5855 113.535 51.9068 113.535H58.588C61.7863 113.535 64.3782 110.943 64.3816 107.742V57.2329C64.3816 55.9115 64.9169 54.7223 65.7808 53.855C66.6482 52.991 67.8374 52.4557 69.1587 52.4557H164.579C167.778 52.4557 170.37 49.8639 170.373 46.6622C170.373 45.3409 170.908 44.1517 171.772 43.2843C172.639 42.4204 173.829 41.8851 175.15 41.8851H266.84C268.162 41.8851 269.351 42.4204 270.218 43.2843C271.082 44.1517 271.618 45.3409 271.618 46.6622V53.811C271.618 57.0093 274.209 59.6011 277.411 59.6045H285.492C286.813 59.6045 288.002 60.1398 288.869 61.0038C289.733 61.8711 290.269 63.0603 290.269 64.3816V107.586C290.269 108.907 289.733 110.096 288.869 110.964C288.002 111.828 286.813 112.363 285.492 112.363H179.504C176.305 112.363 173.714 114.955 173.71 118.157V166.023C173.71 169.221 176.302 171.813 179.504 171.816H266.844C268.165 171.816 269.354 172.352 270.222 173.216C271.086 174.083 271.621 175.272 271.621 176.593V199.93H272.637H272.631Z" fill="#EE0000"/>
      <path d="M55.6406 119.091H55.1324C55.1324 119.769 54.8579 120.376 54.4175 120.819C53.9737 121.263 53.3672 121.534 52.6896 121.534C52.012 121.534 51.4055 121.26 50.9617 120.819C50.5179 120.376 50.2468 119.769 50.2468 119.091C50.2468 118.414 50.5212 117.807 50.9617 117.364C51.4055 116.92 52.012 116.649 52.6896 116.649C53.3672 116.649 53.9737 116.923 54.4175 117.364C54.8613 117.807 55.1324 118.414 55.1324 119.091H56.1488C56.1488 117.181 54.6004 115.632 52.6862 115.629C50.7754 115.629 49.227 117.177 49.2236 119.091C49.2236 121.002 50.772 122.551 52.6862 122.554C54.5971 122.554 56.1454 121.006 56.1488 119.091H55.6406Z" fill="#EE0000"/>
      <path d="M55.6406 168.201H55.1324C55.1324 168.879 54.8579 169.485 54.4175 169.929C53.9737 170.373 53.3672 170.644 52.6896 170.644C52.012 170.644 51.4055 170.37 50.9617 169.929C50.5179 169.485 50.2468 168.879 50.2468 168.201C50.2468 167.524 50.5212 166.917 50.9617 166.473C51.4055 166.03 52.012 165.759 52.6896 165.759C53.3672 165.759 53.9737 166.033 54.4175 166.473C54.8613 166.917 55.1324 167.524 55.1324 168.201H56.1488C56.1488 166.29 54.6004 164.742 52.6862 164.739C50.7754 164.739 49.227 166.287 49.2236 168.201C49.2236 170.112 50.772 171.661 52.6862 171.664C54.5971 171.664 56.1454 170.116 56.1488 168.201H55.6406Z" fill="#EE0000"/>
      <path d="M183.383 165.094H182.875C182.875 165.772 182.6 166.378 182.16 166.822C181.716 167.266 181.109 167.537 180.432 167.537C179.754 167.537 179.148 167.263 178.704 166.822C178.26 166.378 177.989 165.772 177.989 165.094C177.989 164.417 178.263 163.81 178.704 163.367C179.148 162.923 179.754 162.652 180.432 162.652C181.109 162.652 181.716 162.926 182.16 163.367C182.603 163.81 182.875 164.417 182.875 165.094H183.891C183.891 163.184 182.343 161.635 180.428 161.632C178.518 161.632 176.969 163.18 176.966 165.094C176.966 167.005 178.514 168.554 180.428 168.557C182.339 168.557 183.888 167.009 183.891 165.094H183.383Z" fill="#EE0000"/>
      <path d="M183.383 118.783H182.875C182.875 119.461 182.6 120.067 182.16 120.511C181.716 120.955 181.109 121.226 180.432 121.226C179.754 121.226 179.148 120.952 178.704 120.511C178.26 120.067 177.989 119.461 177.989 118.783C177.989 118.106 178.263 117.499 178.704 117.055C179.148 116.612 179.754 116.341 180.432 116.341C181.109 116.341 181.716 116.615 182.16 117.055C182.603 117.499 182.875 118.106 182.875 118.783H183.891C183.891 116.873 182.343 115.324 180.428 115.321C178.518 115.321 176.969 116.869 176.966 118.783C176.966 120.694 178.514 122.243 180.428 122.243C182.339 122.243 183.888 120.694 183.891 118.783H183.383Z" fill="#EE0000"/>
      <path d="M287.507 106.661H286.999C286.999 107.338 286.725 107.945 286.284 108.389C285.84 108.833 285.234 109.104 284.556 109.104C283.879 109.104 283.272 108.829 282.828 108.389C282.385 107.945 282.114 107.338 282.114 106.661C282.114 105.983 282.388 105.377 282.828 104.933C283.272 104.489 283.879 104.218 284.556 104.218C285.234 104.218 285.84 104.492 286.284 104.933C286.728 105.377 286.999 105.983 286.999 106.661H288.015C288.015 104.75 286.467 103.202 284.553 103.198C282.642 103.198 281.094 104.747 281.09 106.661C281.09 108.572 282.639 110.12 284.553 110.12C286.464 110.12 288.012 108.572 288.015 106.661H287.507Z" fill="#EE0000"/>
      <path d="M287.507 65.3234H286.999C286.999 66.001 286.725 66.6075 286.284 67.0513C285.84 67.4951 285.234 67.7662 284.556 67.7662C283.879 67.7662 283.272 67.4918 282.828 67.0513C282.385 66.6075 282.114 66.001 282.114 65.3234C282.114 64.6458 282.388 64.0393 282.828 63.5955C283.272 63.1517 283.879 62.8806 284.556 62.8806C285.234 62.8806 285.84 63.1551 286.284 63.5955C286.728 64.0393 286.999 64.6458 286.999 65.3234H288.015C288.015 63.4126 286.467 61.8642 284.553 61.8608C282.642 61.8608 281.094 63.4092 281.09 65.3234C281.09 67.2343 282.639 68.7826 284.553 68.7826C286.464 68.7826 288.012 67.2343 288.015 65.3234H287.507Z" fill="#EE0000"/>
      <path d="M281.29 52.8893H280.782C280.782 53.5669 280.508 54.1734 280.067 54.6172C279.624 55.0611 279.017 55.3321 278.339 55.3321C277.662 55.3321 277.055 55.0577 276.612 54.6172C276.168 54.1734 275.897 53.5669 275.897 52.8893C275.897 52.2117 276.171 51.6053 276.612 51.1614C277.055 50.7176 277.662 50.4466 278.339 50.4466C279.017 50.4466 279.624 50.721 280.067 51.1614C280.511 51.6053 280.782 52.2117 280.782 52.8893H281.799C281.799 50.9785 280.25 49.4301 278.336 49.4268C276.425 49.4268 274.877 50.9751 274.874 52.8893C274.874 54.8002 276.422 56.3485 278.336 56.3519C280.247 56.3519 281.795 54.8036 281.799 52.8893H281.29Z" fill="#EE0000"/>
      <path d="M268.86 47.6042H268.352C268.352 48.2818 268.077 48.8882 267.637 49.3321C267.193 49.7759 266.586 50.047 265.909 50.047C265.231 50.047 264.625 49.7725 264.181 49.3321C263.737 48.8882 263.466 48.2818 263.466 47.6042C263.466 46.9266 263.74 46.3201 264.181 45.8763C264.625 45.4324 265.231 45.1614 265.909 45.1614C266.586 45.1614 267.193 45.4358 267.637 45.8763C268.081 46.3201 268.352 46.9266 268.352 47.6042H269.368C269.368 45.6933 267.82 44.145 265.905 44.1416C263.995 44.1416 262.446 45.6899 262.443 47.6042C262.443 49.515 263.991 51.0634 265.905 51.0634C267.816 51.0634 269.365 49.515 269.368 47.6042H268.86Z" fill="#EE0000"/>
      <path d="M179.033 47.6042H178.524C178.524 48.2818 178.25 48.8882 177.81 49.3321C177.366 49.7759 176.759 50.047 176.082 50.047C175.404 50.047 174.798 49.7725 174.354 49.3321C173.91 48.8882 173.639 48.2818 173.639 47.6042C173.639 46.9266 173.913 46.3201 174.354 45.8763C174.798 45.4324 175.404 45.1614 176.082 45.1614C176.759 45.1614 177.366 45.4358 177.81 45.8763C178.253 46.3201 178.524 46.9266 178.524 47.6042H179.541C179.541 45.6933 177.993 44.145 176.078 44.1416C174.167 44.1416 172.619 45.6899 172.616 47.6042C172.616 49.515 174.164 51.0634 176.078 51.0634C177.989 51.0634 179.537 49.515 179.541 47.6042H179.033Z" fill="#EE0000"/>
      <path d="M166.602 45.7404H166.094C166.094 46.418 165.819 47.0245 165.379 47.4683C164.935 47.9121 164.329 48.1832 163.651 48.1832C162.973 48.1832 162.367 47.9088 161.923 47.4683C161.479 47.0245 161.208 46.418 161.208 45.7404C161.208 45.0628 161.483 44.4563 161.923 44.0125C162.367 43.5687 162.973 43.2976 163.651 43.2976C164.329 43.2976 164.935 43.5721 165.379 44.0125C165.823 44.4563 166.094 45.0628 166.094 45.7404H167.11C167.11 43.8296 165.562 42.2812 163.648 42.2778C161.737 42.2778 160.188 43.8262 160.185 45.7404C160.185 47.6513 161.733 49.1996 163.648 49.1996C165.558 49.1996 167.107 47.6513 167.11 45.7404H166.602Z" fill="#EE0000"/>
      <path d="M73.0449 58.175H72.5367C72.5367 58.8526 72.2622 59.459 71.8218 59.9029C71.378 60.3467 70.7715 60.6178 70.0939 60.6178C69.4163 60.6178 68.8098 60.3433 68.366 59.9029C67.9222 59.459 67.6511 58.8526 67.6511 58.175C67.6511 57.4974 67.9255 56.8909 68.366 56.4471C68.8098 56.0032 69.4163 55.7322 70.0939 55.7322C70.7715 55.7322 71.378 56.0066 71.8218 56.4471C72.2656 56.8909 72.5367 57.4974 72.5367 58.175H73.5531C73.5531 56.2641 72.0047 54.7158 70.0905 54.7124C68.1797 54.7124 66.6313 56.2607 66.6279 58.175C66.6279 60.0858 68.1763 61.6342 70.0905 61.6375C72.0014 61.6375 73.5497 60.0892 73.5531 58.175H73.0449Z" fill="#EE0000"/>
      <path d="M268.86 177.525H268.352C268.352 178.203 268.077 178.809 267.637 179.253C267.193 179.697 266.586 179.968 265.909 179.968C265.231 179.968 264.625 179.693 264.181 179.253C263.737 178.809 263.466 178.203 263.466 177.525C263.466 176.847 263.74 176.241 264.181 175.797C264.625 175.353 265.231 175.082 265.909 175.082C266.586 175.082 267.193 175.357 267.637 175.797C268.081 176.241 268.352 176.847 268.352 177.525H269.368C269.368 175.614 267.82 174.066 265.905 174.062C263.995 174.062 262.446 175.611 262.443 177.525C262.443 179.436 263.991 180.984 265.905 180.988C267.816 180.988 269.365 179.439 269.368 177.525H268.86Z" fill="#EE0000"/>
      <path d="M60.6108 106.973H60.1026C60.1026 107.65 59.8282 108.257 59.3877 108.701C58.9439 109.145 58.3374 109.416 57.6598 109.416C56.9822 109.416 56.3757 109.141 55.9319 108.701C55.4881 108.257 55.217 107.65 55.217 106.973C55.217 106.295 55.4915 105.689 55.9319 105.245C56.3757 104.801 56.9822 104.53 57.6598 104.53C58.3374 104.53 58.9439 104.804 59.3877 105.245C59.8315 105.689 60.1026 106.295 60.1026 106.973H61.119C61.119 105.062 59.5707 103.514 57.6564 103.51C55.7456 103.51 54.1972 105.059 54.1938 106.973C54.1938 108.884 55.7422 110.432 57.6564 110.432C59.5673 110.432 61.1156 108.884 61.119 106.973H60.6108Z" fill="#EE0000"/>
    </g>
    <path d="M49.6265 223.575H49.6299C49.7451 223.456 52.1099 221.159 56.4974 218.896C60.8883 216.633 67.2985 214.4 75.5382 214.4C83.91 214.4 90.3947 216.704 94.789 219.005C96.9845 220.153 98.6581 221.305 99.7796 222.162C100.339 222.592 100.762 222.948 101.043 223.196C101.182 223.321 101.287 223.416 101.358 223.48C101.392 223.514 101.419 223.538 101.436 223.551L101.453 223.568H101.457C101.657 223.771 101.978 223.771 102.175 223.572C102.375 223.372 102.371 223.05 102.175 222.853C102.148 222.826 99.7728 220.461 95.2633 218.1C90.7539 215.738 84.0998 213.38 75.5416 213.38C66.9834 213.38 60.3293 215.738 55.8198 218.1C51.3103 220.461 48.9353 222.826 48.9082 222.853C48.7083 223.05 48.7083 223.372 48.9082 223.572C49.1081 223.771 49.43 223.771 49.6265 223.572V223.575Z" fill="black"/>
    <path d="M83.6117 214.058V199.771H68.0708V214.058C68.0708 214.058 71.4893 213.774 75.5313 213.774C79.5732 213.774 83.6117 214.058 83.6117 214.058Z" fill="black"/>
    <path d="M144.149 223.921C144.18 223.89 146.49 221.61 150.851 219.343C155.214 217.077 161.618 214.824 169.874 214.824C178.196 214.824 184.636 217.114 189 219.398C191.182 220.539 192.842 221.681 193.95 222.532C194.506 222.958 194.922 223.311 195.197 223.555C195.336 223.677 195.437 223.772 195.505 223.833C195.539 223.863 195.563 223.887 195.58 223.904L195.596 223.921L195.661 223.86L195.596 223.924C195.901 224.226 196.393 224.226 196.694 223.924C196.996 223.619 196.996 223.128 196.694 222.826C196.654 222.786 194.258 220.404 189.718 218.025C185.178 215.647 178.48 213.275 169.871 213.275C161.262 213.275 154.564 215.647 150.024 218.025C145.481 220.404 143.089 222.786 143.048 222.826C142.743 223.128 142.743 223.622 143.048 223.924C143.35 224.229 143.844 224.229 144.146 223.924L144.149 223.921Z" fill="#EE0000"/>
    <path d="M177.945 214.204V199.917H162.404V214.204C162.404 214.204 165.822 213.919 169.864 213.919C173.906 213.919 177.945 214.204 177.945 214.204Z" fill="black"/>
    <path d="M245.594 223.731H245.597C245.712 223.612 248.077 221.315 252.465 219.052C256.856 216.789 263.266 214.556 271.505 214.556C279.877 214.556 286.362 216.86 290.756 219.16C292.952 220.309 294.625 221.461 295.747 222.318C296.306 222.748 296.729 223.104 297.011 223.351C297.149 223.477 297.255 223.571 297.326 223.636C297.36 223.67 297.387 223.693 297.404 223.707L297.421 223.724H297.424C297.624 223.927 297.946 223.927 298.142 223.727C298.342 223.527 298.339 223.206 298.142 223.009C298.115 222.982 295.74 220.617 291.231 218.256C286.721 215.894 280.067 213.536 271.509 213.536C262.951 213.536 256.297 215.894 251.787 218.256C247.278 220.617 244.903 222.982 244.876 223.009C244.676 223.206 244.676 223.527 244.876 223.727C245.075 223.927 245.397 223.927 245.594 223.727V223.731Z" fill="black"/>
    <path d="M279.583 214.204V199.917H264.042V214.204C264.042 214.204 267.461 213.919 271.502 213.919C275.544 213.919 279.583 214.204 279.583 214.204Z" fill="black"/>
    <path d="M148.13 261.45C146.653 261.45 138.552 260.725 123.973 246.438C98.2379 221.217 94.6398 192.873 95.978 187.52C96.4727 185.544 98.3361 183.718 100.498 181.604C103.994 178.182 108.31 173.957 108.233 167.788C104.58 165.982 102.144 162.445 101.501 159.45C100.308 159.328 99.3898 158.643 98.946 157.536L98.7562 157.061L98.9189 156.577C99.1594 155.855 99.6371 154.012 99.6439 152.426C98.431 152.345 97.4722 151.566 97.0554 150.312L96.7166 149.299L97.6043 148.706C97.6483 148.676 98.946 147.751 99.1662 145.969C99.1797 145.874 99.1899 145.708 99.2068 145.484C99.3017 144.153 99.5287 141.029 100.528 138.207C102.137 133.66 104.838 132.464 106.979 132.322C108.683 130.082 110.858 128.947 113.447 128.947C115.385 128.947 117.191 129.554 118.786 130.089C119.813 130.435 120.785 130.76 121.382 130.76C122.713 130.76 123.879 130.665 124.905 130.584C125.749 130.516 126.542 130.452 127.287 130.452C128.723 130.452 129.855 131.475 131.17 132.661C133.145 134.446 135.608 136.669 140.033 136.669H141.086L141.378 137.682C141.445 137.922 141.723 139.047 141.225 140.087H142.218L142.045 141.639C141.889 143.038 140.88 145.681 138.169 145.681C137.583 145.681 137.034 145.681 136.546 145.701C137.285 148.503 137.38 149.401 137.39 149.753L140.588 150.377L140.497 151.999C140.477 152.369 140.277 155.266 139.04 157.536C139.436 158.057 139.579 158.383 139.65 158.603C139.931 159.446 139.826 160.27 139.352 160.924C139.148 161.205 138.888 161.435 138.586 161.611C138.938 162.099 139.301 162.499 139.626 162.743L140.185 163.163V163.861C140.185 164.742 139.792 165.914 138.81 166.585C138.891 166.897 138.942 167.239 138.942 167.591C138.942 168.696 138.223 169.546 137.746 170.109L137.732 170.125C137.847 171.965 137.393 173.463 136.38 174.581C135.259 175.821 133.558 176.451 131.325 176.451C129.828 176.451 128.524 176.068 127.446 175.323C127.28 177.406 127.229 179.951 127.422 182.068C133.094 183.888 137.278 185.873 140.199 188.119C142.387 189.803 143.797 191.663 145.63 194.513C147.591 197.562 149.817 201.014 152.565 203.305L153.49 204.077L153.165 205.239C153.165 205.239 153.141 205.327 153.087 205.497C155.757 208.204 161.313 213.445 166.259 215.62C167.527 216.179 168.838 216.697 170.169 217.165L186.144 206.96L193.716 181.516C193.95 180.73 194.682 180.181 195.495 180.181C195.549 180.181 195.603 180.181 195.657 180.188L227.973 182.675C228.535 182.719 229.043 183.01 229.365 183.474C229.687 183.942 229.778 184.518 229.619 185.06L220.593 215.871L220.549 216.01L220.512 216.077C220.485 216.135 220.454 216.193 220.421 216.25C220.393 216.304 220.349 216.372 220.299 216.437C220.214 216.545 220.133 216.626 220.082 216.67L220.041 216.708L219.99 216.762L219.879 216.84L194.678 233.641C194.37 233.844 194.014 233.953 193.645 233.953C193.438 233.953 193.238 233.919 193.042 233.854L185.561 231.307C181.292 232.594 176 233.333 170.948 233.333C168.059 233.333 165.284 233.092 162.834 232.631C163.84 238.333 162.021 244.811 157.491 251.52C153.686 257.157 149.363 260.959 149.18 261.118L148.842 261.413L148.371 261.46C148.371 261.46 148.289 261.467 148.127 261.467L148.13 261.45Z" fill="white"/>
    <path d="M113.444 130.333C116.493 130.333 119.501 132.145 121.378 132.145C123.865 132.145 125.729 131.834 127.284 131.834C129.771 131.834 132.257 138.051 140.026 138.051C140.026 138.051 140.646 140.226 138.471 140.226C138.471 140.226 139.091 141.469 140.646 141.469C140.646 141.469 140.334 144.268 138.159 144.268C136.777 144.268 135.645 144.268 134.764 144.508C135.222 146.138 135.984 148.991 135.984 149.861C135.984 150.183 135.94 150.509 135.879 150.871L139.115 151.501L139.091 151.908C139.081 152.098 138.864 155.624 137.299 157.634C137.651 158.02 138.186 158.643 138.315 159.029C138.627 159.961 138.003 160.585 137.072 160.585L136.75 161.316C137.055 161.865 137.827 163.129 138.783 163.847C138.783 163.847 138.783 165.711 136.919 165.711C136.919 165.711 137.539 166.642 137.539 167.574C137.539 168.506 136.296 169.437 136.296 169.749C136.296 170.061 137.228 175.035 131.322 175.035C128.727 175.035 127.274 173.652 126.457 171.999C126 174.235 125.644 179.463 126.132 183.112C130.96 184.609 135.933 186.588 139.345 189.21C141.307 190.721 142.615 192.395 144.454 195.254C146.474 198.388 148.76 201.936 151.671 204.361L151.901 204.554L151.82 204.846C151.813 204.866 151.708 205.235 151.491 205.842C154.208 208.661 160.219 214.471 165.701 216.884C167.303 217.588 168.862 218.185 170.356 218.693L187.34 207.841L195.061 181.899C195.119 181.702 195.295 181.563 195.498 181.563H195.542L227.868 184.053C228.007 184.064 228.135 184.138 228.217 184.253C228.298 184.369 228.318 184.514 228.281 184.65L219.269 215.42L219.259 215.444L219.221 215.525L219.191 215.572L219.13 215.633L219.089 215.671L219.079 215.677L193.903 232.462C193.825 232.513 193.737 232.54 193.645 232.54C193.594 232.54 193.544 232.533 193.496 232.516L185.585 229.822C181.35 231.164 176.058 231.92 170.952 231.92C167.737 231.92 164.593 231.618 161.835 230.978C161.54 230.91 161.239 230.832 160.93 230.744C165.562 244.947 148.266 260.051 148.266 260.051C148.266 260.051 148.222 260.054 148.134 260.054C147.05 260.054 139.321 259.522 124.956 245.441C99.739 220.729 96.0935 192.832 97.3369 187.862C98.4786 183.301 110.425 178.033 109.595 166.866C105.282 165.135 102.734 160.662 102.734 157.949C102.734 157.949 102.365 158.071 101.901 158.071C101.321 158.071 100.593 157.877 100.247 157.017C100.247 157.017 101.491 153.287 100.867 150.8C100.867 150.8 100.4 151.034 99.8576 151.034C99.3155 151.034 98.6921 150.8 98.3804 149.868C98.3804 149.868 100.244 148.625 100.555 146.138C100.708 144.922 100.864 133.7 107.433 133.7C107.521 133.7 107.613 133.7 107.704 133.707C109.429 131.122 111.445 130.34 113.447 130.34M113.447 127.541C110.584 127.541 108.172 128.7 106.251 130.983C102.023 131.59 100.041 135.391 99.2104 137.732C98.1466 140.734 97.9128 143.99 97.8112 145.379C97.7976 145.565 97.7875 145.708 97.7773 145.799C97.6486 146.829 96.9472 147.439 96.8016 147.558L94.9043 148.696L95.7242 150.752C96.1578 152.053 97.0387 153.019 98.1669 153.497C98.0484 154.449 97.8112 155.452 97.5876 156.139L97.2691 157.108L97.6452 158.06C98.1568 159.338 99.1325 160.242 100.376 160.642C100.766 161.896 101.406 163.183 102.253 164.389C103.168 165.69 104.645 167.361 106.817 168.621C106.522 173.757 102.822 177.382 99.5188 180.611C97.2081 182.874 95.2092 184.829 94.6197 187.187C93.7218 190.779 94.7992 199.842 98.5938 210.216C102.056 219.685 109.1 233.83 122.994 247.447C137.587 261.748 145.925 262.859 148.13 262.859C148.296 262.859 148.415 262.852 148.486 262.846L149.408 262.771L150.102 262.165C150.793 261.562 165.538 248.497 164.461 234.305C166.483 234.583 168.655 234.725 170.949 234.725C175.96 234.725 181.214 234.017 185.531 232.77L192.591 235.176C192.93 235.291 193.286 235.348 193.645 235.348C194.292 235.348 194.919 235.159 195.454 234.799L220.631 218.015L220.878 217.849L221.02 217.703L221.048 217.676C221.142 217.588 221.278 217.453 221.417 217.273C221.532 217.124 221.607 216.995 221.654 216.911C221.718 216.799 221.773 216.69 221.82 216.579C221.874 216.457 221.922 216.331 221.959 216.206L230.971 185.443C231.249 184.494 231.086 183.484 230.524 182.671C229.962 181.855 229.07 181.346 228.085 181.272L195.783 178.788C195.692 178.782 195.597 178.775 195.505 178.775C194.079 178.775 192.795 179.734 192.388 181.109L184.965 206.052L170.01 215.606C168.933 215.21 167.869 214.783 166.839 214.329C162.428 212.388 157.441 207.831 154.673 205.08L155.093 203.572L153.704 202.417L153.473 202.224C150.892 200.072 148.727 196.715 146.819 193.75C144.898 190.769 143.414 188.81 141.063 187.004C138.173 184.782 134.134 182.817 128.758 181.025C128.693 179.876 128.69 178.646 128.73 177.464C129.537 177.714 130.411 177.843 131.336 177.843C133.978 177.843 136.028 177.061 137.427 175.512C138.254 174.601 139.169 173.036 139.155 170.603C139.687 169.929 140.348 168.902 140.348 167.588C140.348 167.428 140.341 167.269 140.324 167.113C141.158 166.222 141.591 165.019 141.591 163.857V162.458L140.541 161.669C141.232 160.662 141.395 159.389 140.982 158.155C140.917 157.959 140.822 157.722 140.653 157.427C141.666 155.137 141.862 152.663 141.896 152.077L141.92 151.667L142.056 149.235L139.664 148.767L138.654 148.571C138.586 148.191 138.485 147.707 138.335 147.073C140.226 147.015 141.822 145.948 142.733 144.132C143.279 143.041 143.418 141.991 143.438 141.791L143.783 138.684H142.913C142.909 138.003 142.777 137.475 142.726 137.295L142.147 135.266H140.036C136.15 135.266 134.006 133.328 132.112 131.62C130.712 130.356 129.266 129.052 127.294 129.052C126.494 129.052 125.671 129.12 124.8 129.191C123.797 129.272 122.662 129.364 121.389 129.364C121.019 129.364 119.993 129.018 119.241 128.767C117.628 128.225 115.619 127.551 113.454 127.551L113.447 127.541Z" fill="white"/>
    <path d="M97.3335 187.858C102.077 177.694 112.207 177.061 109.1 163.695C109.1 163.695 96.2019 142.093 110.188 136.811C128.879 129.75 134.432 143.339 134.432 143.339C134.432 143.339 135.988 148.625 135.988 149.868C135.988 151.112 135.368 152.355 135.368 155.774L136.98 157.302C136.98 157.302 138.122 158.45 138.319 159.04C138.63 159.971 138.007 160.595 137.075 160.595L135.364 164.481C134.744 166.344 127.595 169.766 126.972 170.386C126.46 170.898 125.322 177.281 126.135 182.471C126.135 182.471 128.165 189.559 127.826 194.302C127.487 199.046 97.3335 187.865 97.3335 187.865V187.858Z" fill="#FAB6B6"/>
    <path d="M136.618 157.654L136.628 157.664C136.685 157.722 136.963 158.01 137.245 158.339C137.383 158.505 137.522 158.677 137.634 158.837C137.743 158.993 137.82 159.138 137.837 159.192C137.878 159.311 137.892 159.413 137.892 159.497C137.892 159.596 137.871 159.667 137.844 159.728C137.8 159.819 137.726 159.901 137.6 159.965C137.475 160.029 137.295 160.077 137.078 160.077C136.797 160.077 136.57 160.304 136.57 160.585C136.57 160.866 136.797 161.093 137.078 161.093C137.553 161.093 138 160.964 138.346 160.687C138.518 160.548 138.664 160.371 138.762 160.168C138.861 159.965 138.911 159.735 138.911 159.494C138.911 159.291 138.874 159.081 138.803 158.867C138.722 158.63 138.593 158.427 138.444 158.213C138.22 157.898 137.949 157.583 137.729 157.343C137.509 157.102 137.346 156.936 137.339 156.933C137.143 156.733 136.821 156.733 136.621 156.933C136.421 157.129 136.421 157.451 136.621 157.651L136.618 157.654Z" fill="#FDDBDB"/>
    <path d="M133.944 143.478C133.944 143.478 133.968 143.56 134.012 143.705C134.161 144.217 134.531 145.515 134.863 146.816C135.029 147.466 135.184 148.117 135.3 148.665C135.357 148.94 135.401 149.187 135.435 149.394C135.466 149.601 135.483 149.767 135.483 149.858C135.483 150.126 135.449 150.407 135.391 150.739C135.306 151.237 135.174 151.843 135.062 152.65C134.951 153.456 134.859 154.459 134.863 155.763C134.863 156.045 135.09 156.272 135.371 156.272C135.652 156.272 135.879 156.045 135.879 155.763C135.879 154.083 136.031 152.958 136.184 152.081C136.258 151.644 136.336 151.264 136.397 150.908C136.458 150.553 136.502 150.21 136.502 149.858C136.502 149.651 136.472 149.418 136.428 149.14C136.272 148.174 135.899 146.704 135.561 145.454C135.225 144.207 134.927 143.19 134.924 143.19C134.846 142.923 134.561 142.767 134.293 142.845C134.026 142.923 133.87 143.207 133.948 143.475L133.944 143.478Z" fill="#FDDBDB"/>
    <path d="M103.771 179.388C101.382 182.624 97.8959 185.609 97.3334 187.858C96.09 192.832 99.7322 220.726 124.953 245.438C140.494 260.667 148.262 260.047 148.262 260.047C148.262 260.047 167.845 242.951 159.761 228.034L150.593 212.648L148.73 210.473C148.73 210.473 151.217 206.743 151.373 204.724C145.779 200.062 142.598 191.761 138.63 188.563C133.812 184.677 126.135 183.118 126.139 183.145C107.162 178.375 103.774 179.392 103.774 179.392L103.771 179.388Z" fill="white"/>
    <path d="M144.088 215.979C133.247 204.46 129.181 196.329 124.099 194.296C116.035 191.071 103.771 189.553 96.4492 191.145C96.4492 191.145 97.425 211.582 112.115 231.229C126.806 250.876 143.746 258.33 143.746 258.33C143.746 258.33 164.074 252.57 161.703 233.597L138.664 218.69C138.664 218.69 141.713 218.351 144.085 215.979H144.088Z" fill="#DEDEDE"/>
    <path d="M188.201 302.784C175.767 305.271 173.283 310.553 189.132 309.313C204.985 308.069 221.146 299.365 219.591 298.122L188.197 302.784H188.201Z" fill="#EE0000"/>
    <path d="M158.616 220.421L158.857 219.211C159.582 215.583 161.117 209.301 163.237 208.031C164.664 207.177 170.4 206.218 175.943 206.218C180.418 206.218 184.281 206.787 187.428 207.912L188.556 208.315L184.616 229.091L158.616 220.424V220.421Z" fill="black"/>
    <path d="M175.943 207.617C179.632 207.617 183.596 208.031 186.957 209.23L183.538 227.258L160.229 219.489C160.849 216.382 162.404 210.165 163.959 209.233C164.914 208.661 170.081 207.621 175.943 207.621M175.943 204.822C170.484 204.822 164.335 205.744 162.519 206.835C161.164 207.648 160.137 209.399 159.08 212.693C158.23 215.339 157.644 218.147 157.484 218.944L157 221.366L159.341 222.145L182.651 229.914L185.687 230.927L186.283 227.783L189.701 209.755L190.149 207.404L187.895 206.598C184.596 205.419 180.574 204.822 175.939 204.822H175.943Z" fill="white"/>
    <path d="M171.142 320.503C212.309 320.503 245.682 315.155 245.682 308.557C245.682 301.959 212.309 296.611 171.142 296.611C129.974 296.611 96.6016 301.959 96.6016 308.557C96.6016 315.155 129.974 320.503 171.142 320.503Z" fill="#DEDEDE"/>
    <path d="M176.661 308.229C176.448 308.229 176.241 308.188 176.044 308.11L154.679 299.721L134.748 308.096C134.541 308.184 134.321 308.229 134.094 308.229H133.389C132.583 308.229 131.922 307.7 131.742 306.914C131.563 306.128 131.929 305.366 132.657 305.017L154.673 294.412L177.379 305.007C178.115 305.349 178.491 306.111 178.314 306.904C178.138 307.697 177.478 308.229 176.664 308.229H176.661Z" fill="black"/>
    <path d="M154.673 294.974L177.159 305.467C178.304 306.002 177.925 307.717 176.661 307.717C176.512 307.717 176.366 307.69 176.231 307.636L154.676 299.169L134.554 307.625C134.409 307.686 134.253 307.717 134.097 307.717H133.392C132.135 307.717 131.749 306.016 132.881 305.471L154.679 294.971M154.673 293.846L154.239 294.056L132.44 304.556C131.495 305.01 131.017 306.002 131.251 307.026C131.485 308.049 132.345 308.733 133.392 308.733H134.097C134.392 308.733 134.676 308.676 134.947 308.56L154.69 300.267L175.861 308.581C176.119 308.682 176.39 308.733 176.664 308.733C177.718 308.733 178.582 308.042 178.809 307.012C179.036 305.982 178.548 304.989 177.593 304.546L155.106 294.053L154.669 293.85L154.673 293.846Z" fill="white"/>
    <path d="M153.392 264.089V298.054H156.499V264.089" fill="black"/>
    <path d="M159.453 229.897C165.67 232.384 160.073 267.504 136.144 257.56C136.144 257.56 139.156 263.933 163.604 263.933C188.052 263.933 216.958 236.738 221.309 231.452C225.659 226.167 222.864 218.398 216.023 216.223C209.186 214.048 159.453 229.901 159.453 229.901V229.897Z" fill="black"/>
    <path d="M217.419 216.687C217.419 216.687 220.526 217.307 224.879 216.067C228.66 214.986 237.313 210.782 240.732 210.782C244.15 210.782 245.082 214.2 245.082 214.2C245.082 214.2 213.258 235.443 210.365 232.126C207.472 228.809 206.228 224.456 209.338 222.592C212.445 220.729 214.939 219.811 217.419 216.687Z" fill="#EE0000"/>
    <path d="M217.419 216.687V217.196V216.742L217.371 217.192C217.371 217.192 217.382 217.192 217.419 217.192V216.738L217.371 217.189L217.385 217.05L217.365 217.189H217.368L217.382 217.05L217.361 217.189C217.361 217.189 217.456 217.202 217.568 217.219C217.907 217.267 218.591 217.341 219.536 217.341C220.895 217.341 222.796 217.182 225.011 216.548C225.991 216.267 227.248 215.8 228.647 215.251C230.747 214.431 233.166 213.431 235.372 212.642C236.473 212.246 237.523 211.903 238.442 211.663C239.36 211.422 240.156 211.283 240.722 211.283C241.491 211.283 242.097 211.473 242.595 211.751C243.341 212.171 243.842 212.815 244.157 213.364C244.313 213.638 244.421 213.885 244.493 214.062C244.526 214.15 244.55 214.221 244.567 214.265L244.584 214.316V214.326L245.075 214.194L244.794 213.77C244.794 213.77 244.689 213.841 244.486 213.974C242.975 214.976 236.114 219.489 228.904 223.748C225.299 225.879 221.61 227.942 218.466 229.47C216.894 230.233 215.457 230.863 214.248 231.297C213.041 231.73 212.045 231.964 211.422 231.961C211.215 231.961 211.053 231.937 210.944 231.9C210.832 231.862 210.778 231.822 210.744 231.784C209.918 230.836 209.233 229.802 208.759 228.783C208.285 227.763 208.024 226.76 208.027 225.879C208.027 225.269 208.149 224.72 208.4 224.246C208.651 223.772 209.033 223.358 209.596 223.02C211.131 222.098 212.53 221.404 213.885 220.529C215.24 219.659 216.538 218.602 217.812 216.992L217.415 216.677L217.019 216.362C215.813 217.877 214.627 218.842 213.336 219.676C212.049 220.509 210.65 221.204 209.074 222.149C208.366 222.572 207.841 223.131 207.502 223.775C207.163 224.419 207.014 225.137 207.014 225.883C207.014 226.96 207.322 228.095 207.841 229.213C208.363 230.334 209.098 231.439 209.982 232.452C210.158 232.652 210.389 232.787 210.633 232.869C210.88 232.95 211.141 232.98 211.425 232.98C211.879 232.98 212.388 232.899 212.96 232.76C214.031 232.496 215.318 232.018 216.775 231.378C221.867 229.145 228.999 224.961 234.874 221.326C240.749 217.694 245.36 214.617 245.363 214.614L245.668 214.411L245.573 214.058C245.563 214.021 245.316 213.113 244.591 212.171C244.228 211.704 243.744 211.226 243.104 210.863C242.463 210.501 241.67 210.264 240.732 210.264C239.776 210.264 238.57 210.541 237.195 210.958C235.138 211.585 232.723 212.537 230.466 213.435C228.213 214.333 226.109 215.173 224.74 215.566C222.63 216.169 220.824 216.318 219.543 216.318C218.91 216.318 218.408 216.281 218.059 216.247C217.886 216.23 217.751 216.21 217.656 216.196C217.609 216.189 217.571 216.183 217.544 216.179L217.504 216.172H217.48C217.48 216.172 217.459 216.166 217.419 216.166H217.175L217.022 216.359L217.419 216.674V216.687Z" fill="#EE0000"/>
    <path d="M211.121 231.74C210.141 230.619 209.193 229.406 208.495 228.244C207.797 227.082 207.37 225.967 207.373 225.1C207.373 224.7 207.458 224.351 207.631 224.043C207.807 223.731 208.081 223.446 208.508 223.189C210.03 222.274 211.778 221.464 213.479 220.478C215.176 219.492 216.826 218.334 218.127 216.697C218.303 216.477 218.266 216.159 218.046 215.982C217.825 215.806 217.507 215.843 217.331 216.064C216.148 217.551 214.614 218.645 212.97 219.597C211.327 220.553 209.576 221.363 207.99 222.315C207.438 222.647 207.021 223.06 206.75 223.541C206.479 224.022 206.36 224.554 206.36 225.1C206.367 226.282 206.886 227.519 207.624 228.765C208.369 230.009 209.352 231.259 210.355 232.411C210.538 232.621 210.86 232.645 211.073 232.462C211.283 232.279 211.307 231.957 211.124 231.744L211.121 231.74Z" fill="white"/>
    <path d="M208.871 283.669C208.871 267.196 218.195 241.708 223.389 226.794L198.927 238.29C198.927 238.29 190.223 256.006 190.223 282.114C190.223 282.114 193.642 285.844 200.79 285.844C207.939 285.844 208.871 283.669 208.871 283.669Z" fill="black"/>
    <path d="M187.736 209.386L165.358 223.684L193.642 233.319L219.594 216.067L228.606 185.297L227.675 184.674L218.974 215.447L193.798 231.92L187.736 209.386Z" fill="#C9C9C9"/>
    <path d="M187.736 209.386L187.462 208.959L165.084 223.257C164.918 223.362 164.83 223.551 164.853 223.744C164.877 223.938 165.009 224.1 165.196 224.165L193.479 233.8C193.628 233.851 193.794 233.831 193.923 233.743L219.875 216.491C219.973 216.423 220.048 216.325 220.082 216.209L229.094 185.439C229.155 185.226 229.074 184.995 228.887 184.873L227.956 184.253C227.82 184.162 227.651 184.142 227.498 184.199C227.346 184.257 227.231 184.382 227.187 184.538L218.537 215.125L194.106 231.11L188.227 209.254C188.187 209.098 188.072 208.969 187.919 208.912C187.77 208.854 187.597 208.871 187.462 208.956L187.736 209.383L187.245 209.515L193.306 232.048C193.347 232.204 193.462 232.333 193.614 232.391C193.767 232.448 193.936 232.431 194.075 232.34L219.252 215.867C219.353 215.799 219.428 215.698 219.462 215.579L227.976 185.48L228.017 185.507L219.16 215.742L193.57 232.75L166.524 223.534L188.011 209.806L187.736 209.379V209.386Z" fill="#C9C9C9"/>
    <path d="M193.642 232.076L218.818 215.291L187.736 208.143L165.358 222.44L193.642 232.076Z" fill="black"/>
    <path d="M193.642 232.075L193.923 232.499L219.099 215.715C219.269 215.603 219.353 215.4 219.316 215.2C219.279 215 219.126 214.841 218.93 214.796L187.848 207.648C187.716 207.617 187.574 207.641 187.462 207.715L165.084 222.013C164.918 222.118 164.83 222.308 164.853 222.501C164.877 222.694 165.009 222.857 165.196 222.921L193.479 232.557C193.628 232.607 193.794 232.587 193.926 232.499L193.645 232.075L193.808 231.594L166.524 222.301L187.831 208.688L217.554 215.525L193.36 231.655L193.642 232.079V232.075Z" fill="#C9C9C9"/>
    <path d="M165.822 216.067C169.553 216.067 177.321 210.162 178.877 210.162C180.432 210.162 184.782 212.026 186.337 212.026L188.824 215.444L182.034 218.009C182.034 218.009 175.692 223.501 169.498 225.124C166.134 226.005 162.102 224.605 160.788 223.182C157.058 219.14 159.917 215.752 159.917 215.752L165.822 216.064V216.067Z" fill="#FAB6B6"/>
    <path d="M227.83 184.518L218.818 215.291L187.736 208.142L195.505 182.034L227.83 184.518Z" fill="black"/>
    <path d="M227.831 184.518L227.343 184.375L218.463 214.685L188.377 207.763L195.875 182.566L227.79 185.023L227.831 184.514L227.868 184.006L195.543 181.519C195.305 181.502 195.085 181.652 195.017 181.882L187.249 207.99C187.208 208.122 187.225 208.271 187.296 208.39C187.367 208.512 187.486 208.597 187.621 208.63L218.703 215.779C218.964 215.84 219.228 215.684 219.306 215.427L228.318 184.657C228.363 184.511 228.335 184.352 228.247 184.226C228.159 184.101 228.02 184.02 227.868 184.01L227.831 184.518Z" fill="#C9C9C9"/>
    <path d="M190.674 206.347L197.172 184.508L224.768 186.632L217.202 212.449L190.674 206.347Z" fill="white"/>
    <path d="M216.034 205.625L195.373 201.78L199.327 188.773C199.408 188.505 199.256 188.221 198.988 188.14C198.721 188.058 198.436 188.211 198.355 188.478L194.072 202.573L215.851 206.625C216.125 206.676 216.393 206.493 216.443 206.218C216.494 205.944 216.311 205.676 216.037 205.625H216.034Z" fill="#EE0000"/>
    <path d="M185.321 221.864C186.493 220.573 185.561 217.775 186.181 217.155C186.801 216.535 189.6 213.113 190.531 213.113C191.463 213.113 192.086 214.045 192.395 214.045C192.703 214.045 194.882 213.113 195.193 213.113C195.505 213.113 197.68 214.668 197.68 214.668C197.68 214.668 199.771 217.866 199.811 218.442C199.852 219.018 198.924 222.128 197.368 223.368C195.813 224.612 193.018 225.543 191.463 226.475C189.908 227.407 183.369 224.009 185.317 221.861L185.321 221.864Z" fill="#FAB6B6"/>
    <path d="M108.605 163.81C108.931 165.213 109.076 166.483 109.076 167.649C109.076 170.068 108.453 172.036 107.474 173.811C106.003 176.468 103.693 178.666 101.477 181.075C99.268 183.481 97.1471 186.117 96.1781 189.674C96.0223 190.257 95.9443 191.023 95.9443 191.985C95.9443 194.072 96.3204 197.074 97.2318 200.767C99.9693 211.839 107.562 229.111 124.597 245.807C131.81 252.878 137.377 256.564 141.3 258.485C145.223 260.406 147.507 260.562 148.13 260.562C148.232 260.562 148.289 260.559 148.303 260.559L148.472 260.545L148.601 260.433C148.601 260.433 152.003 257.462 155.401 252.915C157.098 250.642 158.803 247.969 160.083 245.062C161.364 242.155 162.228 239.007 162.228 235.785C162.228 233.129 161.635 230.422 160.212 227.793L159.318 228.277C160.659 230.754 161.211 233.278 161.211 235.785C161.211 238.821 160.395 241.836 159.152 244.652C157.292 248.873 154.483 252.637 152.138 255.338C150.966 256.69 149.912 257.774 149.15 258.519C148.771 258.892 148.462 259.18 148.252 259.373C148.147 259.471 148.066 259.542 148.012 259.593L147.951 259.647L147.93 259.664L148.266 260.047L148.228 259.539L148.252 259.83L148.232 259.539L148.256 259.83L148.235 259.539C148.235 259.539 148.205 259.539 148.137 259.539C147.68 259.539 145.555 259.427 141.754 257.564C137.953 255.7 132.471 252.082 125.315 245.072C114.053 234.037 106.966 222.755 102.69 213.228C100.552 208.464 99.1189 204.141 98.2245 200.513C97.3266 196.884 96.9675 193.943 96.9675 191.975C96.9675 191.07 97.0454 190.369 97.1674 189.932C97.7705 187.723 98.8479 185.883 100.152 184.196C102.104 181.662 104.56 179.486 106.566 176.966C107.565 175.705 108.453 174.354 109.087 172.826C109.723 171.298 110.103 169.593 110.103 167.645C110.103 166.395 109.947 165.047 109.605 163.576L108.616 163.807L108.605 163.81Z" fill="#DEDEDE"/>
    <path d="M175.844 222.335C176.644 222.247 177.396 221.983 178.084 221.651C179.117 221.149 180.025 220.479 180.757 219.916C181.123 219.635 181.445 219.381 181.702 219.194C181.831 219.1 181.943 219.025 182.034 218.971C182.122 218.917 182.187 218.89 182.2 218.886C182.644 218.737 183.521 218.446 184.311 218.104C184.707 217.931 185.08 217.748 185.395 217.534C185.554 217.426 185.697 217.314 185.832 217.162C185.896 217.084 185.961 216.996 186.015 216.884C186.066 216.772 186.11 216.633 186.11 216.477C186.11 216.338 186.076 216.196 186.015 216.074C185.839 215.722 185.514 215.417 185.077 215.22C184.636 215.02 184.084 214.915 183.386 214.915C182.573 214.915 181.556 215.061 180.259 215.413C179.849 215.525 179.561 215.566 179.412 215.563C179.347 215.563 179.314 215.556 179.307 215.556L179.222 215.83L179.446 215.668C179.391 215.59 179.314 215.556 179.307 215.556L179.222 215.83L179.446 215.668L179.192 215.854H179.513C179.513 215.83 179.503 215.745 179.446 215.668L179.192 215.854H179.513H179.419L179.513 215.864V215.854H179.419L179.513 215.864L179.52 215.84C179.537 215.776 179.608 215.62 179.717 215.454C179.876 215.203 180.106 214.926 180.289 214.716C180.381 214.61 180.462 214.522 180.52 214.461L180.587 214.394L180.604 214.377H180.608C180.872 214.109 180.872 213.679 180.608 213.415C180.343 213.15 179.913 213.15 179.649 213.415C179.639 213.425 179.303 213.76 178.951 214.201C178.775 214.421 178.595 214.668 178.446 214.932C178.372 215.064 178.304 215.2 178.253 215.349C178.202 215.498 178.158 215.661 178.158 215.854C178.158 215.986 178.182 216.138 178.25 216.291C178.3 216.403 178.375 216.511 178.467 216.599C178.605 216.731 178.771 216.813 178.931 216.86C179.09 216.908 179.249 216.921 179.415 216.921C179.757 216.921 180.137 216.853 180.618 216.725C181.831 216.393 182.742 216.274 183.389 216.274C183.948 216.274 184.311 216.362 184.518 216.46C184.728 216.559 184.785 216.647 184.806 216.687L185.212 216.484H184.758C184.758 216.555 184.775 216.63 184.806 216.687L185.212 216.484H184.758H185.154L184.792 216.315C184.778 216.345 184.755 216.406 184.755 216.484H185.151L184.789 216.315L184.995 216.413L184.806 216.288L184.789 216.318L184.995 216.416L184.806 216.291L184.883 216.342L184.809 216.284L184.887 216.342L184.812 216.284V216.291C184.775 216.332 184.595 216.467 184.355 216.596C183.989 216.792 183.481 217.006 183 217.185C182.519 217.365 182.065 217.517 181.777 217.612C181.56 217.687 181.387 217.788 181.197 217.914C180.872 218.127 180.516 218.408 180.113 218.72C179.51 219.188 178.805 219.72 178.046 220.153C177.287 220.587 176.485 220.916 175.698 221C175.326 221.041 175.058 221.376 175.099 221.749C175.139 222.122 175.475 222.389 175.848 222.349L175.844 222.335Z" fill="#F56D6D"/>
    <path d="M186.337 221.972L164.874 220.495L150.861 205.815C150.861 205.815 148.3 216.206 138.664 218.693L161.296 233.705C161.296 233.705 185.866 230.832 191.46 226.479" fill="#FAB6B6"/>
    <path d="M186.385 221.298L165.182 219.838L151.691 206.018C151.43 205.75 151 205.744 150.732 206.008C150.465 206.269 150.458 206.699 150.722 206.967L164.396 220.969C164.515 221.088 164.667 221.159 164.833 221.173L186.297 222.65C186.669 222.677 186.995 222.392 187.018 222.02C187.045 221.647 186.761 221.322 186.388 221.298H186.385Z" fill="#FDDBDB"/>
    <path d="M185.822 222.322C186.205 221.898 186.405 221.387 186.51 220.889C186.615 220.387 186.635 219.886 186.635 219.415C186.635 219.008 186.618 218.629 186.618 218.31C186.618 218.063 186.629 217.856 186.652 217.728C186.662 217.663 186.676 217.623 186.683 217.606V217.599L186.557 217.534L186.656 217.633L186.683 217.599L186.557 217.534L186.656 217.633C186.754 217.534 186.866 217.413 187.008 217.253C187.496 216.711 188.292 215.8 189.054 215.031C189.434 214.648 189.807 214.302 190.108 214.072C190.257 213.957 190.389 213.872 190.477 213.825C190.521 213.801 190.555 213.787 190.565 213.784H190.572L190.532 213.621V213.787L190.572 213.784L190.532 213.621V213.787C190.65 213.787 190.765 213.814 190.894 213.872C191.087 213.957 191.291 214.113 191.49 214.275C191.592 214.356 191.69 214.438 191.812 214.519C191.873 214.56 191.941 214.6 192.032 214.641C192.121 214.678 192.239 214.719 192.395 214.719C192.497 214.719 192.551 214.705 192.612 214.695C192.717 214.672 192.815 214.644 192.927 214.607C193.317 214.482 193.865 214.268 194.36 214.085C194.607 213.994 194.834 213.909 195.007 213.852C195.092 213.825 195.166 213.801 195.21 213.791L195.251 213.781L195.19 213.452V213.787C195.241 213.787 195.251 213.784 195.251 213.784L195.19 213.455V213.791V213.272L195.078 213.777C195.099 213.781 195.129 213.787 195.19 213.787V213.269L195.078 213.774L195.136 213.509L195.048 213.767L195.078 213.774L195.136 213.509L195.048 213.767C195.048 213.767 195.133 213.804 195.217 213.852C195.526 214.021 196.057 214.37 196.495 214.665C196.715 214.814 196.911 214.953 197.054 215.051C197.125 215.102 197.182 215.143 197.223 215.17C197.264 215.197 197.284 215.214 197.284 215.214C197.589 215.431 198.012 215.359 198.229 215.058C198.446 214.753 198.375 214.329 198.073 214.113C198.07 214.113 197.521 213.72 196.928 213.323C196.63 213.123 196.322 212.927 196.054 212.768C195.919 212.69 195.797 212.622 195.678 212.564C195.617 212.537 195.559 212.51 195.492 212.486C195.458 212.473 195.421 212.463 195.373 212.452C195.326 212.442 195.271 212.432 195.19 212.432C195.089 212.432 195.034 212.446 194.973 212.456C194.868 212.48 194.77 212.507 194.658 212.544C194.269 212.669 193.72 212.883 193.225 213.066C192.978 213.157 192.751 213.242 192.578 213.299C192.493 213.327 192.419 213.35 192.375 213.36L192.334 213.371L192.395 213.699V213.364C192.344 213.364 192.334 213.367 192.334 213.367L192.395 213.696V213.36V213.747L192.578 213.398C192.578 213.398 192.527 213.364 192.395 213.36V213.747L192.578 213.398C192.578 213.398 192.48 213.33 192.371 213.242C192.202 213.106 191.968 212.913 191.667 212.744C191.365 212.574 190.979 212.429 190.532 212.429C190.369 212.429 190.233 212.463 190.111 212.507C189.884 212.588 189.688 212.707 189.485 212.845C189.132 213.093 188.766 213.418 188.387 213.784C187.821 214.329 187.242 214.963 186.751 215.508C186.507 215.779 186.283 216.03 186.103 216.233C185.924 216.437 185.775 216.596 185.704 216.671C185.575 216.799 185.494 216.942 185.436 217.08C185.351 217.287 185.314 217.487 185.294 217.687C185.273 217.887 185.267 218.093 185.267 218.304C185.267 218.663 185.284 219.035 185.284 219.408C185.284 219.835 185.263 220.252 185.189 220.601C185.114 220.953 184.992 221.221 184.823 221.407C184.572 221.685 184.592 222.112 184.87 222.366C185.148 222.617 185.575 222.596 185.829 222.318L185.822 222.322Z" fill="#FDDBDB"/>
    <path d="M138.634 219.594L160.93 234.271C161.062 234.359 161.222 234.396 161.381 234.38C161.391 234.38 167.544 233.658 174.408 232.391C177.843 231.757 181.455 230.988 184.579 230.097C186.141 229.65 187.581 229.176 188.821 228.667C190.061 228.156 191.101 227.62 191.883 227.014C192.178 226.784 192.232 226.36 192.002 226.062C191.772 225.767 191.348 225.713 191.05 225.943C190.43 226.428 189.481 226.933 188.306 227.41C186.249 228.254 183.515 229.037 180.584 229.724C176.187 230.758 171.338 231.584 167.598 232.154C165.728 232.438 164.132 232.658 163.004 232.804C162.441 232.879 161.994 232.933 161.689 232.973C161.384 233.011 161.222 233.031 161.222 233.031L161.3 233.705L161.672 233.14L139.376 218.463C139.064 218.256 138.644 218.344 138.437 218.656C138.23 218.967 138.319 219.387 138.63 219.594H138.634Z" fill="#F56D6D"/>
    <path d="M199.137 218.493L199.242 218.486H199.137V218.493L199.242 218.486H199.137C199.137 218.486 199.13 218.591 199.107 218.713C199.025 219.157 198.768 219.997 198.382 220.81C198.188 221.217 197.965 221.624 197.721 221.979C197.477 222.335 197.209 222.637 196.945 222.847C196.257 223.399 195.204 223.934 194.13 224.432C193.052 224.934 191.958 225.398 191.114 225.903C190.792 226.096 190.691 226.513 190.88 226.831C191.074 227.153 191.49 227.254 191.809 227.065C192.52 226.634 193.601 226.17 194.699 225.662C195.8 225.151 196.921 224.595 197.789 223.907C198.249 223.538 198.629 223.07 198.958 222.565C199.449 221.81 199.818 220.97 200.076 220.238C200.204 219.872 200.303 219.537 200.374 219.245C200.408 219.099 200.435 218.967 200.455 218.845C200.475 218.723 200.486 218.612 200.489 218.493C200.489 218.466 200.489 218.435 200.489 218.402C200.462 218.029 200.137 217.748 199.764 217.775C199.391 217.802 199.11 218.127 199.137 218.5V218.493Z" fill="#F56D6D"/>
    <path d="M165.823 216.745C166.378 216.745 166.961 216.637 167.574 216.467C168.645 216.166 169.807 215.654 170.989 215.061C172.758 214.17 174.56 213.093 176.041 212.242C176.78 211.819 177.437 211.45 177.955 211.199C178.213 211.073 178.436 210.975 178.602 210.918C178.687 210.887 178.755 210.867 178.806 210.857L178.863 210.846H178.877C179.005 210.846 179.209 210.867 179.453 210.914C179.883 210.996 180.442 211.145 181.048 211.328C181.96 211.599 182.976 211.937 183.908 212.212C184.375 212.351 184.819 212.469 185.222 212.561C185.629 212.649 185.992 212.71 186.334 212.71C186.706 212.71 187.011 212.405 187.011 212.032C187.011 211.66 186.706 211.355 186.334 211.355C186.205 211.355 186.002 211.334 185.758 211.287C185.328 211.206 184.768 211.056 184.162 210.874C183.251 210.602 182.234 210.264 181.303 209.989C180.835 209.85 180.391 209.732 179.988 209.64C179.581 209.552 179.219 209.491 178.877 209.491C178.673 209.491 178.501 209.532 178.318 209.586C177.982 209.688 177.613 209.854 177.189 210.067C176.451 210.44 175.553 210.958 174.564 211.534C173.08 212.395 171.396 213.374 169.817 214.133C169.028 214.512 168.265 214.834 167.581 215.054C166.897 215.278 166.283 215.4 165.819 215.397C165.447 215.397 165.142 215.701 165.142 216.074C165.142 216.447 165.447 216.752 165.819 216.752L165.823 216.745Z" fill="#FDDBDB"/>
    <path d="M111.336 180.168C113.257 180.307 115.72 180.764 118.366 181.415C122.337 182.39 126.735 183.8 130.438 185.209C132.291 185.914 133.968 186.619 135.333 187.266C136.695 187.913 137.749 188.509 138.308 188.96C139.247 189.705 140.172 190.789 141.1 192.07C142.496 193.991 143.912 196.356 145.508 198.687C147.103 201.018 148.886 203.318 151.04 205.114L151.366 204.724L150.874 204.589V204.596C150.827 204.762 149.902 207.95 147.707 211.27C146.609 212.93 145.196 214.624 143.427 215.996C141.656 217.368 139.535 218.425 136.987 218.832L137.068 219.333L137.312 218.89C134.046 217.091 131.647 215.058 129.77 213.455C128.828 212.652 128.019 211.958 127.277 211.443C126.904 211.185 126.548 210.975 126.193 210.823C125.837 210.67 125.478 210.579 125.112 210.579C124.675 210.579 124.241 210.721 123.865 210.999C123.638 211.165 123.591 211.483 123.757 211.71C123.923 211.937 124.241 211.985 124.468 211.819C124.695 211.653 124.885 211.599 125.112 211.595C125.301 211.595 125.528 211.646 125.793 211.758C126.26 211.954 126.836 212.351 127.507 212.886C128.517 213.692 129.747 214.807 131.268 216.027C132.792 217.243 134.612 218.564 136.817 219.781L136.97 219.865L137.143 219.838C139.917 219.398 142.235 218.226 144.136 216.731C146.985 214.489 148.903 211.527 150.119 209.129C151.335 206.73 151.847 204.887 151.85 204.863L151.938 204.548L151.688 204.338C148.967 202.075 146.799 198.87 144.813 195.814C143.82 194.286 142.875 192.795 141.916 191.477C140.958 190.159 139.992 189.011 138.935 188.17C138.478 187.808 137.844 187.418 137.055 187.001C134.3 185.541 129.652 183.718 124.8 182.187C119.948 180.656 114.924 179.419 111.4 179.162C111.119 179.141 110.879 179.351 110.858 179.632C110.838 179.914 111.048 180.154 111.329 180.175L111.336 180.168Z" fill="#DEDEDE"/>
    <path d="M184.338 260.678C197.325 255.833 204.731 249.063 210.057 241.854C210.223 241.627 210.175 241.308 209.952 241.142C209.725 240.976 209.406 241.024 209.24 241.247C203.996 248.335 196.796 254.931 183.986 259.722C183.722 259.82 183.589 260.112 183.688 260.376C183.786 260.64 184.077 260.772 184.342 260.674L184.338 260.678Z" fill="white"/>
    <path d="M107.701 133.701C112.051 127.172 118.268 132.145 121.378 132.145C123.865 132.145 125.729 131.834 127.284 131.834C129.77 131.834 132.257 138.051 140.026 138.051C140.026 138.051 140.646 140.226 138.471 140.226C138.471 140.226 139.091 141.469 140.646 141.469C140.646 141.469 140.334 144.268 138.159 144.268C135.984 144.268 134.429 144.268 133.497 145.2C132.566 146.131 134.429 147.998 130.699 150.173C126.969 152.348 129.144 156.079 131.01 157.942C132.874 159.805 133.186 162.916 134.741 162.916C134.741 162.916 135.361 161.052 136.604 161.052C136.604 161.052 137.536 162.916 138.779 163.851C138.779 163.851 138.779 165.714 136.916 165.714C136.916 165.714 137.536 166.646 137.536 167.578C137.536 168.509 136.292 169.441 136.292 169.753C136.292 170.064 137.224 175.038 131.319 175.038C125.413 175.038 125.413 167.889 125.413 166.646C125.413 165.402 126.393 160.73 126.657 157.634C127.145 151.945 123.858 149.865 121.683 151.105C119.508 152.348 120.03 157.363 122.615 158.565C122.615 158.565 119.816 167.578 113.291 167.578C106.766 167.578 102.724 161.36 102.724 157.942C102.724 157.942 100.86 158.562 100.237 157.01C100.237 157.01 101.48 153.28 100.857 150.793C100.857 150.793 98.9935 151.725 98.3701 149.861C98.3701 149.861 100.234 148.618 100.545 146.131C100.701 144.898 100.857 133.389 107.694 133.697L107.701 133.701Z" fill="black"/>
    <path d="M155.567 263.934V265.177C173.012 265.177 185.043 261.084 192.717 256.947C200.391 252.811 203.704 248.647 203.789 248.542L204.605 247.505L203.524 246.75C200.811 244.856 197.955 243.765 194.973 243.097C192.737 242.596 190.43 242.332 188.017 242.128C180.784 241.525 172.629 241.491 162.512 237.893C158.545 236.484 154.164 233.99 149.563 231.029C142.658 226.587 135.252 221.105 127.751 216.704C124 214.506 120.219 212.574 116.445 211.185C112.671 209.796 108.897 208.949 105.17 208.946C102.964 208.946 100.776 209.244 98.6343 209.905L97.418 210.277L97.8211 211.483C99.5728 216.738 102.49 222.678 106.264 228.664C111.926 237.639 119.515 246.712 128.039 253.587C132.305 257.022 136.804 259.912 141.432 261.948C146.057 263.984 150.817 265.17 155.57 265.17V262.683C149.79 262.683 143.851 260.752 138.078 257.473C129.418 252.563 121.175 244.646 114.494 236.057C107.809 227.472 102.68 218.202 100.179 210.694L99.0002 211.087L99.3661 212.276C101.257 211.694 103.188 211.429 105.17 211.429C109.632 211.429 114.355 212.798 119.189 215.004C126.44 218.307 133.904 223.464 141.107 228.373C144.712 230.826 148.252 233.218 151.691 235.284C155.13 237.348 158.464 239.093 161.679 240.238C171.023 243.565 178.812 243.961 185.398 244.425C188.692 244.656 191.683 244.91 194.431 245.526C197.182 246.143 199.689 247.112 202.102 248.792L202.813 247.773L201.837 247.004L202.251 247.329L201.841 247L202.254 247.329L201.844 247C201.83 247.017 198.703 250.937 191.372 254.85C184.04 258.763 172.497 262.687 155.574 262.69V263.934H155.567Z" fill="white"/>
    <path d="M155.567 263.934C190.067 263.934 202.81 247.773 202.81 247.773C192.554 240.624 180.432 245.598 162.092 239.069C143.753 232.54 119.2 204.88 98.9971 211.094C105.834 231.608 131.322 263.934 155.567 263.934Z" fill="#FDDBDB"/>
    <path d="M155.567 263.934C190.067 263.934 202.81 247.773 202.81 247.773C192.554 240.624 180.432 245.598 162.092 239.069C143.753 232.54 119.2 204.88 98.9971 211.094C105.834 231.608 131.322 263.934 155.567 263.934Z" fill="#EE0000"/>
    <path d="M183.613 212.906C183.613 212.906 182.336 212.764 180.821 212.764C180.062 212.764 179.243 212.798 178.47 212.909C178.101 212.964 177.843 213.306 177.894 213.675C177.948 214.044 178.29 214.302 178.66 214.251C179.337 214.153 180.103 214.119 180.821 214.119C181.536 214.119 182.2 214.153 182.685 214.187C182.925 214.204 183.122 214.221 183.257 214.234C183.325 214.241 183.376 214.244 183.413 214.248C183.447 214.251 183.464 214.254 183.464 214.254C183.837 214.295 184.172 214.027 184.213 213.655C184.253 213.282 183.986 212.947 183.613 212.906Z" fill="#F56D6D"/>
    <path d="M198.676 199.473L202.04 195.847L202.467 197.982C202.505 198.175 202.65 198.327 202.84 198.375C203.03 198.422 203.23 198.358 203.355 198.209L204.449 196.894L205.947 199.388C206.018 199.51 206.14 199.595 206.279 199.625C206.418 199.656 206.563 199.625 206.679 199.54L210.639 196.711L211.581 197.89C211.669 197.999 211.795 198.067 211.934 198.08C212.072 198.09 212.211 198.046 212.313 197.955L217.907 192.981C218.117 192.795 218.134 192.473 217.947 192.263C217.761 192.053 217.439 192.033 217.229 192.222L212.035 196.84L211.127 195.705C210.958 195.495 210.653 195.451 210.436 195.61L206.533 198.399L204.951 195.763C204.866 195.62 204.717 195.529 204.554 195.519C204.392 195.505 204.229 195.573 204.124 195.702L203.25 196.749L202.837 194.682C202.799 194.496 202.66 194.343 202.478 194.292C202.295 194.242 202.098 194.292 201.966 194.435L197.924 198.785C197.734 198.992 197.744 199.313 197.951 199.503C198.158 199.693 198.48 199.683 198.669 199.476L198.676 199.473Z" fill="#EE0000"/>
    <path d="M209.958 230.676C209.958 234.718 217.107 237.205 229.541 230.056C241.975 222.908 246.092 216.023 243.839 212.34C240.624 207.079 230.476 219.465 225.191 222.288C220.529 224.774 209.962 224.774 209.962 230.68L209.958 230.676Z" fill="white"/>
    <path d="M211.202 231.92C211.202 235.962 218.351 236.582 230.785 231.3C243.985 225.689 247.336 217.266 245.083 213.584C241.664 207.99 231.097 221.044 226.435 223.531C221.773 226.018 211.206 226.018 211.206 231.923L211.202 231.92Z" fill="white"/>
    <path d="M211.202 231.92H210.694C210.694 232.499 210.823 233.045 211.09 233.519C211.49 234.234 212.174 234.766 213.055 235.105C213.94 235.447 215.034 235.613 216.332 235.613C219.787 235.613 224.727 234.42 230.985 231.764C236.402 229.46 240.204 226.682 242.66 223.911C245.113 221.143 246.238 218.385 246.241 216.105C246.241 215.051 245.997 214.099 245.519 213.316C245.187 212.771 244.774 212.354 244.293 212.083C243.812 211.812 243.277 211.69 242.728 211.69C242.07 211.69 241.393 211.856 240.695 212.127C239.472 212.605 238.178 213.425 236.849 214.407C234.861 215.881 232.808 217.727 230.937 219.371C230.002 220.191 229.115 220.963 228.312 221.607C227.509 222.25 226.784 222.765 226.201 223.077C225.107 223.663 223.599 224.127 221.962 224.564C219.506 225.225 216.765 225.832 214.583 226.865C213.492 227.383 212.534 228.01 211.829 228.837C211.124 229.66 210.697 230.697 210.701 231.92H211.717C211.717 231.256 211.863 230.7 212.124 230.202C212.578 229.331 213.414 228.623 214.526 228.03C216.189 227.139 218.436 226.536 220.651 225.96C222.87 225.381 225.056 224.836 226.679 223.975C227.712 223.419 228.938 222.44 230.3 221.275C232.34 219.526 234.671 217.362 236.9 215.644C238.015 214.787 239.103 214.041 240.102 213.519C241.101 212.994 242.006 212.706 242.731 212.706C243.138 212.706 243.483 212.791 243.795 212.967C244.107 213.143 244.395 213.418 244.656 213.845C245.021 214.444 245.228 215.207 245.228 216.105C245.231 218.046 244.242 220.607 241.904 223.236C239.57 225.869 235.897 228.573 230.592 230.829C224.415 233.455 219.564 234.6 216.338 234.596C214.726 234.596 213.53 234.308 212.791 233.838C212.418 233.604 212.157 233.333 211.985 233.021C211.812 232.709 211.717 232.35 211.717 231.92H211.209H211.202Z" fill="#EE0000"/>
    <path d="M188.201 292.217C186.645 295.323 186.957 304.424 187.269 306.287C187.269 306.287 188.512 308.462 194.418 308.151C200.323 307.839 218.039 302.865 219.594 301.002C219.53 300.856 219.594 297.187 219.594 297.187C219.594 297.187 215.42 294.957 212.445 293.768C209.081 292.423 207.16 290.038 207.16 290.038C207.16 290.038 205.605 295.323 200.323 296.255C195.038 297.187 196.593 294.392 195.038 293.457C193.483 292.525 188.201 292.213 188.201 292.213V292.217Z" fill="white"/>
    <path d="M188.2 292.217L187.746 291.99C187.489 292.505 187.292 293.128 187.133 293.833C186.655 295.944 186.51 298.793 186.506 301.287C186.506 302.432 186.537 303.499 186.588 304.38C186.635 305.264 186.699 305.949 186.767 306.369C186.777 306.43 186.798 306.484 186.828 306.538C186.869 306.609 187.214 307.162 188.19 307.683C189.166 308.205 190.762 308.69 193.299 308.69C193.662 308.69 194.045 308.679 194.445 308.659C195.976 308.578 198.198 308.205 200.733 307.663C204.527 306.85 208.986 305.657 212.659 304.488C214.495 303.902 216.131 303.326 217.395 302.801C218.029 302.537 218.567 302.29 218.998 302.052C219.214 301.934 219.404 301.819 219.567 301.703C219.729 301.588 219.868 301.473 219.984 301.334C220.109 301.185 220.136 300.975 220.055 300.799L219.652 300.982L220.085 300.89C220.085 300.89 220.078 300.856 220.055 300.799L219.652 300.982L220.085 300.89L219.865 300.938L220.089 300.907V300.89L219.865 300.938L220.089 300.907C220.089 300.907 220.085 300.867 220.082 300.809C220.075 300.64 220.072 300.321 220.072 299.955C220.072 299.393 220.078 298.705 220.085 298.16C220.092 297.611 220.099 297.208 220.099 297.204C220.102 297.014 219.997 296.838 219.831 296.747C219.831 296.747 218.781 296.188 217.361 295.476C215.938 294.768 214.146 293.908 212.631 293.304C211.015 292.657 209.738 291.756 208.867 291.018C208.434 290.648 208.102 290.32 207.878 290.089C207.766 289.974 207.685 289.879 207.631 289.818C207.604 289.788 207.583 289.764 207.57 289.747L207.556 289.73L207.543 289.74L207.556 289.727C207.438 289.578 207.248 289.51 207.062 289.547C206.875 289.584 206.726 289.72 206.672 289.903C206.658 289.947 206.265 291.221 205.266 292.569C204.764 293.244 204.114 293.935 203.287 294.511C202.461 295.087 201.458 295.547 200.235 295.764C199.52 295.89 198.94 295.944 198.483 295.944C197.772 295.944 197.355 295.818 197.101 295.663C196.908 295.544 196.786 295.408 196.674 295.232C196.508 294.968 196.399 294.602 196.233 294.196C196.149 293.996 196.047 293.782 195.898 293.579C195.749 293.376 195.552 293.183 195.302 293.033C195.058 292.888 194.777 292.773 194.461 292.668C193.909 292.485 193.255 292.339 192.571 292.217C190.528 291.854 188.244 291.722 188.234 291.719C188.031 291.705 187.841 291.817 187.75 292L188.204 292.227L188.173 292.735C188.173 292.735 188.251 292.739 188.397 292.749C188.905 292.783 190.209 292.888 191.541 293.081C192.205 293.176 192.879 293.298 193.459 293.44C194.035 293.579 194.522 293.752 194.78 293.908C194.892 293.975 194.973 294.05 195.048 294.145C195.176 294.307 195.278 294.538 195.386 294.822C195.468 295.036 195.552 295.273 195.671 295.52C195.851 295.886 196.132 296.283 196.599 296.554C197.063 296.825 197.673 296.967 198.483 296.967C199.022 296.967 199.652 296.906 200.411 296.77C201.81 296.523 202.969 295.984 203.914 295.32C205.33 294.321 206.255 293.047 206.835 292.024C207.411 291.001 207.641 290.221 207.651 290.198L207.163 290.055L206.767 290.374C206.797 290.411 208.762 292.854 212.259 294.257C213.722 294.843 215.505 295.693 216.911 296.394C217.615 296.747 218.229 297.062 218.662 297.285C218.879 297.397 219.055 297.489 219.174 297.553C219.292 297.617 219.357 297.651 219.357 297.651L219.597 297.204L219.089 297.194C219.089 297.194 219.059 298.827 219.059 299.962C219.059 300.247 219.059 300.501 219.065 300.694C219.065 300.792 219.072 300.873 219.076 300.941C219.076 300.975 219.079 301.009 219.086 301.043L219.096 301.104C219.103 301.131 219.106 301.158 219.133 301.222L219.597 301.012L219.208 300.687C219.17 300.738 219.042 300.846 218.849 300.968C218.486 301.202 217.9 301.493 217.158 301.805C214.556 302.906 210.04 304.316 205.591 305.471C203.365 306.05 201.156 306.565 199.205 306.952C197.257 307.338 195.559 307.595 194.394 307.656C194.007 307.677 193.645 307.687 193.299 307.687C190.89 307.687 189.471 307.226 188.668 306.799C188.268 306.586 188.017 306.379 187.875 306.237C187.804 306.165 187.757 306.108 187.733 306.074L187.709 306.04L187.448 306.196L187.712 306.044V306.037L187.448 306.196L187.712 306.044L187.272 306.294L187.773 306.21C187.716 305.867 187.652 305.19 187.604 304.333C187.557 303.472 187.526 302.418 187.526 301.293C187.526 299.66 187.594 297.868 187.77 296.269C187.858 295.469 187.977 294.721 188.126 294.067C188.275 293.413 188.454 292.857 188.658 292.451L188.204 292.224L188.2 292.217Z" fill="#EE0000"/>
    <path d="M188.201 290.973C186.645 294.08 186.957 301.229 187.269 303.096C187.269 303.096 188.512 305.271 194.418 304.959C200.323 304.648 218.039 299.366 219.594 297.499C218.039 294.08 215.552 293.769 212.445 292.525C209.081 291.18 207.16 288.795 207.16 288.795C207.16 288.795 205.605 294.08 200.323 295.012C195.038 295.944 196.593 293.149 195.038 292.213C193.483 291.282 188.201 290.97 188.201 290.97V290.973Z" fill="#EE0000"/>
    <path d="M188.2 290.973L187.746 290.746C187.245 291.756 186.947 293.067 186.76 294.487C186.574 295.903 186.506 297.421 186.506 298.803C186.506 299.758 186.537 300.65 186.588 301.405C186.635 302.161 186.699 302.77 186.767 303.18C186.777 303.241 186.798 303.296 186.828 303.35C186.869 303.421 187.214 303.973 188.19 304.495C189.166 305.017 190.762 305.501 193.299 305.501C193.662 305.501 194.045 305.491 194.445 305.471C195.979 305.389 198.205 304.996 200.736 304.424C204.531 303.567 208.993 302.306 212.662 301.083C214.498 300.47 216.135 299.867 217.398 299.325C218.032 299.054 218.571 298.796 219.001 298.556C219.218 298.434 219.404 298.319 219.567 298.2C219.729 298.081 219.865 297.966 219.984 297.831C220.109 297.682 220.136 297.472 220.055 297.295C219.648 296.398 219.167 295.686 218.625 295.113C217.812 294.253 216.867 293.714 215.86 293.284C214.851 292.854 213.773 292.518 212.631 292.061C211.015 291.414 209.738 290.513 208.867 289.774C208.434 289.405 208.102 289.079 207.878 288.846C207.766 288.73 207.685 288.636 207.631 288.575C207.604 288.544 207.583 288.52 207.57 288.503L207.556 288.486L207.543 288.497L207.556 288.483C207.438 288.334 207.248 288.266 207.062 288.304C206.875 288.341 206.726 288.476 206.672 288.659C206.658 288.703 206.265 289.977 205.266 291.326C204.764 292 204.114 292.691 203.287 293.267C202.461 293.843 201.458 294.304 200.235 294.521C199.52 294.646 198.94 294.7 198.483 294.7C197.772 294.7 197.355 294.575 197.101 294.419C196.908 294.3 196.786 294.165 196.674 293.989C196.508 293.724 196.399 293.358 196.233 292.952C196.149 292.752 196.047 292.539 195.898 292.335C195.749 292.132 195.552 291.939 195.302 291.79C195.058 291.644 194.777 291.529 194.461 291.424C193.909 291.241 193.255 291.095 192.571 290.973C190.528 290.611 188.244 290.479 188.234 290.475C188.031 290.462 187.841 290.574 187.75 290.756L188.204 290.983L188.173 291.492C188.173 291.492 188.251 291.495 188.397 291.505C188.905 291.539 190.209 291.644 191.541 291.837C192.205 291.932 192.879 292.054 193.459 292.196C194.035 292.335 194.522 292.508 194.78 292.664C194.892 292.732 194.973 292.806 195.048 292.901C195.176 293.064 195.278 293.294 195.386 293.579C195.468 293.792 195.552 294.029 195.671 294.277C195.851 294.643 196.132 295.039 196.599 295.31C197.063 295.581 197.673 295.723 198.483 295.723C199.022 295.723 199.652 295.662 200.411 295.527C201.81 295.279 202.969 294.741 203.914 294.077C205.33 293.077 206.255 291.803 206.835 290.78C207.411 289.757 207.641 288.978 207.651 288.954L207.163 288.812L206.767 289.13C206.797 289.167 208.762 291.61 212.259 293.013C213.844 293.646 215.23 294.036 216.362 294.656C216.928 294.968 217.432 295.334 217.893 295.818C218.351 296.303 218.767 296.913 219.137 297.726L219.601 297.516L219.211 297.19C219.17 297.241 219.042 297.353 218.849 297.478C218.486 297.715 217.897 298.014 217.155 298.339C214.549 299.477 210.033 300.958 205.584 302.174C203.358 302.784 201.149 303.326 199.201 303.733C197.253 304.139 195.559 304.407 194.397 304.468C194.011 304.488 193.648 304.498 193.303 304.498C190.894 304.498 189.474 304.038 188.671 303.611C188.272 303.397 188.021 303.191 187.878 303.048C187.807 302.977 187.76 302.92 187.736 302.886L187.712 302.852L187.452 303.011L187.719 302.859V302.852L187.452 303.011L187.719 302.859L187.279 303.109L187.78 303.025C187.723 302.672 187.658 302.083 187.611 301.351C187.563 300.619 187.533 299.748 187.533 298.817C187.533 297.465 187.601 295.984 187.777 294.632C187.953 293.277 188.248 292.047 188.665 291.214L188.211 290.987L188.2 290.973Z" fill="#EE0000"/>
    <path d="M223.192 213.628L194.441 233.363C194.211 233.523 194.15 233.838 194.309 234.071C194.468 234.302 194.783 234.363 195.017 234.204L223.768 214.468C223.998 214.309 224.059 213.994 223.9 213.76C223.741 213.53 223.426 213.469 223.192 213.628Z" fill="white"/>
    <path d="M206.293 245.936C206.334 245.95 207.303 246.346 208.709 246.346C209.075 246.346 209.474 246.319 209.888 246.248C210.165 246.2 210.352 245.939 210.304 245.662C210.257 245.384 209.996 245.197 209.718 245.245C209.362 245.302 209.02 245.326 208.705 245.326C208.099 245.326 207.584 245.238 207.221 245.153C207.042 245.109 206.899 245.069 206.805 245.038C206.757 245.021 206.723 245.011 206.699 245.001L206.676 244.991H206.672C206.412 244.886 206.117 245.008 206.008 245.269C205.903 245.529 206.025 245.824 206.286 245.933L206.293 245.936Z" fill="white"/>
    <path d="M116.628 138.969C118.946 141.287 120.969 141.649 121.047 141.659C121.209 141.686 121.372 141.636 121.49 141.517C121.606 141.402 121.66 141.236 121.633 141.073C121.633 141.073 121.602 140.887 121.606 140.636C121.606 140.368 121.639 140.023 121.751 139.728C121.805 139.582 121.88 139.45 121.968 139.339C122.06 139.227 122.168 139.135 122.314 139.061L122.087 138.607L121.65 138.868C121.667 138.895 121.887 139.261 122.307 139.64C122.517 139.83 122.781 140.026 123.1 140.175C123.418 140.324 123.794 140.429 124.214 140.429C124.38 140.429 124.557 140.413 124.733 140.379C125.007 140.324 125.187 140.057 125.132 139.782C125.078 139.508 124.811 139.328 124.536 139.383C124.424 139.406 124.316 139.413 124.218 139.416C123.967 139.416 123.743 139.355 123.537 139.261C123.228 139.115 122.964 138.885 122.785 138.685C122.696 138.586 122.625 138.495 122.581 138.434C122.558 138.403 122.544 138.38 122.534 138.363L122.524 138.346C122.388 138.119 122.097 138.034 121.86 138.153C121.582 138.292 121.355 138.481 121.179 138.695C120.918 139.017 120.772 139.376 120.691 139.715C120.609 140.053 120.586 140.375 120.586 140.636C120.586 140.982 120.626 141.219 120.626 141.239L121.128 141.155L121.213 140.653L121.192 140.778L121.216 140.653L121.196 140.778L121.219 140.653C121.182 140.646 119.427 140.321 117.354 138.248C117.154 138.048 116.832 138.048 116.635 138.248C116.435 138.447 116.435 138.769 116.635 138.966L116.628 138.969Z" fill="white"/>
    <path d="M124.438 149.235L138.328 151.661V152.386L127.148 151.945L124.438 149.235Z" fill="#EE0000"/>
    <path d="M138.657 152.023C138.427 151.983 138.115 151.945 137.719 151.905C136.343 151.773 134.019 151.64 131.861 151.542C129.7 151.444 127.718 151.376 127.016 151.376V151.884L127.375 151.525L126.027 150.177L138.539 152.382L138.627 151.881L138.119 151.854V151.867C138.109 152.01 138.01 153.385 137.594 154.795C137.387 155.499 137.099 156.211 136.723 156.777C136.537 157.058 136.327 157.305 136.1 157.498C135.873 157.691 135.629 157.837 135.358 157.929C135.09 158.017 134.948 158.305 135.036 158.572C135.124 158.84 135.412 158.982 135.679 158.894C136.1 158.755 136.472 158.525 136.791 158.247C137.35 157.756 137.756 157.109 138.071 156.428C138.542 155.405 138.8 154.287 138.949 153.416C139.098 152.548 139.132 151.928 139.132 151.915C139.145 151.657 138.966 151.43 138.712 151.386L124.614 148.9C124.394 148.862 124.177 148.967 124.075 149.164C123.974 149.36 124.011 149.601 124.167 149.757L126.654 152.244C126.749 152.338 126.877 152.393 127.013 152.393C127.385 152.393 128.202 152.413 129.229 152.45C130.77 152.504 132.793 152.596 134.582 152.698C135.476 152.748 136.31 152.803 136.991 152.86C137.672 152.914 138.21 152.972 138.475 153.023C138.749 153.074 139.017 152.891 139.064 152.613C139.115 152.335 138.932 152.071 138.654 152.023H138.657Z" fill="#EE0000"/>
    <path d="M139.941 150.597L126.389 148.225C126.111 148.178 125.85 148.361 125.799 148.639C125.752 148.916 125.935 149.177 126.213 149.228L139.765 151.6C140.043 151.647 140.304 151.464 140.354 151.186C140.402 150.909 140.219 150.648 139.941 150.597Z" fill="white"/>
    <path d="M143.834 215.671C141.984 217.199 139.735 218.391 136.994 218.828L137.075 219.33L137.319 218.886C134.053 217.087 131.654 215.054 129.777 213.452C128.835 212.649 128.026 211.954 127.284 211.439C126.911 211.182 126.555 210.972 126.199 210.819C125.844 210.667 125.485 210.575 125.119 210.575C124.682 210.575 124.248 210.717 123.872 210.995C123.645 211.161 123.597 211.48 123.763 211.707C123.929 211.934 124.248 211.981 124.475 211.815C124.702 211.649 124.892 211.595 125.119 211.592C125.308 211.592 125.535 211.642 125.8 211.754C126.267 211.951 126.843 212.347 127.514 212.882C128.524 213.689 129.754 214.803 131.275 216.023C132.799 217.239 134.619 218.561 136.824 219.777L136.977 219.862L137.15 219.835C140.09 219.367 142.52 218.08 144.478 216.457C144.695 216.277 144.725 215.959 144.546 215.742C144.366 215.525 144.048 215.495 143.831 215.674L143.834 215.671Z" fill="white"/>
  </g>
  <defs>
    <clipPath id="clip0_160_20799">
      <rect width="333.332" height="320" fill="white" transform="translate(0.333984 0.5)"/>
    </clipPath>
  </defs>
</svg>
