<svg width="326" height="323" viewBox="0 0 326 323" fill="none" xmlns="http://www.w3.org/2000/svg">
  <path d="M33.0574 56.6966C37.921 48.2296 49.562 45.5557 58.411 43.9331C70.1663 41.7751 82.406 41.527 94.1101 44.1497C105.542 46.7095 115.502 53.1326 126.47 57.0038C143.203 62.907 158.758 58.2955 174.211 50.7382C180.138 47.8398 185.912 44.6263 191.602 41.2907C241.892 11.8335 283.928 30.6932 294.537 44.835C305.146 58.9768 327.538 101.028 272.535 157.398C272.535 157.398 253.285 175.27 269.392 200.41C285.499 225.555 320.465 249.519 302.787 283.702C285.109 317.881 237.962 313.954 193.961 298.237C193.961 298.237 168.033 286.844 137.78 298.631C110.182 309.382 80.9213 318.822 52.362 304.259C20.3057 287.916 13.8708 248.979 30.5212 218.876C36.9128 194.109 41.3274 168.508 43.5288 143.04C44.6985 129.489 45.2262 115.737 43.7612 102.186C43.135 96.4086 42.1544 90.6235 40.3862 85.0747C38.0155 77.6356 31.8444 70.8817 31.5727 62.8361C31.4939 60.4733 32.0532 58.4412 33.0574 56.6887V56.6966Z" fill="#DEDEDE"/>
  <mask id="mask0_152_18652" style="mask-type:luminance" maskUnits="userSpaceOnUse" x="21" y="25" width="288" height="287">
    <path d="M33.0574 56.6966C37.921 48.2296 49.562 45.5557 58.411 43.9331C70.1663 41.7751 82.406 41.527 94.1101 44.1497C105.542 46.7095 115.502 53.1326 126.47 57.0038C143.203 62.907 158.758 58.2955 174.211 50.7382C180.138 47.8398 185.912 44.6263 191.602 41.2907C241.892 11.8335 283.928 30.6932 294.537 44.835C305.146 58.9768 327.538 101.028 272.535 157.398C272.535 157.398 253.285 175.27 269.392 200.41C285.499 225.555 320.465 249.519 302.787 283.702C285.109 317.881 237.962 313.954 193.961 298.237C193.961 298.237 168.033 286.844 137.78 298.631C110.182 309.382 80.9213 318.822 52.362 304.259C20.3057 287.916 13.8708 248.979 30.5212 218.876C36.9128 194.109 41.3274 168.508 43.5288 143.04C44.6985 129.489 45.2262 115.737 43.7612 102.186C43.135 96.4086 42.1544 90.6235 40.3862 85.0747C38.0155 77.6356 31.8444 70.8817 31.5727 62.8361C31.4939 60.4733 32.0532 58.4412 33.0574 56.6887V56.6966Z" fill="white"/>
  </mask>
  <g mask="url(#mask0_152_18652)">
    <path d="M195.272 76.8917C198.494 76.8917 201.605 77.38 204.535 78.2779C211.58 65.0301 225.517 56.0078 241.565 56.0078C259.416 56.0078 274.653 67.1724 280.698 82.8973C292.107 83.2754 301.818 90.3601 306.008 100.339C307.603 99.9297 309.277 99.7131 310.998 99.7131C322.08 99.7131 331.063 108.696 331.063 119.778C331.063 130.86 322.08 139.843 310.998 139.843C305.512 139.843 203.475 139.843 195.272 139.843C177.889 139.843 163.795 125.748 163.795 108.365C163.795 90.9823 177.889 76.8877 195.272 76.8877V76.8917Z" fill="white" stroke="#DEDEDE" stroke-width="2" stroke-linecap="round" stroke-linejoin="round"/>
  </g>
  <path d="M169.202 95.8065V45.4497" stroke="#EE0000" stroke-width="2" stroke-miterlimit="10"/>
  <path d="M169.202 45.4488C176.686 45.4488 182.754 39.3818 182.754 31.8978C182.754 24.4137 176.686 18.3467 169.202 18.3467C161.718 18.3467 155.651 24.4137 155.651 31.8978C155.651 39.3818 161.718 45.4488 169.202 45.4488Z" fill="#EE0000"/>
  <path d="M172.924 58.4489C185.967 56.6374 196.009 45.4413 196.009 31.8981C196.009 17.0947 184.006 5.09131 169.202 5.09131C154.399 5.09131 142.396 17.0947 142.396 31.8981C142.396 45.4728 152.485 56.6886 165.571 58.4607" stroke="#EE0000" stroke-width="2" stroke-miterlimit="10"/>
  <path d="M162.142 9.99059C164.486 9.99059 166.387 8.08991 166.387 5.7453C166.387 3.40068 164.486 1.5 162.142 1.5C159.797 1.5 157.896 3.40068 157.896 5.7453C157.896 8.08991 159.797 9.99059 162.142 9.99059Z" fill="#EE0000" stroke="#EE0000" stroke-width="2" stroke-linecap="round" stroke-linejoin="round"/>
  <path d="M150.071 55.161C152.416 55.161 154.317 53.2603 154.317 50.9157C154.317 48.5711 152.416 46.6704 150.071 46.6704C147.727 46.6704 145.826 48.5711 145.826 50.9157C145.826 53.2603 147.727 55.161 150.071 55.161Z" fill="#EE0000" stroke="#EE0000" stroke-width="2" stroke-linecap="round" stroke-linejoin="round"/>
  <path d="M195.191 42.7045C197.535 42.7045 199.436 40.8038 199.436 38.4592C199.436 36.1146 197.535 34.2139 195.191 34.2139C192.846 34.2139 190.945 36.1146 190.945 38.4592C190.945 40.8038 192.846 42.7045 195.191 42.7045Z" fill="#EE0000" stroke="#EE0000" stroke-width="2" stroke-linecap="round" stroke-linejoin="round"/>
  <path d="M176.291 25.1641C174.597 23.392 172.23 22.2617 169.584 22.1987" stroke="white" stroke-width="2" stroke-linecap="round" stroke-linejoin="round"/>
  <path d="M169.584 22.1986C164.295 22.0726 159.908 26.2588 159.782 31.5516C159.719 34.1586 160.708 36.5452 162.358 38.3134" stroke="white" stroke-width="2" stroke-linecap="round" stroke-linejoin="round"/>
  <path d="M123.71 76.8008H34.2754V107.66H123.71V76.8008Z" fill="white" stroke="#EE0000" stroke-width="2" stroke-miterlimit="10"/>
  <path d="M123.71 107.66H34.2754V138.519H123.71V107.66Z" fill="white" stroke="#EE0000" stroke-width="2" stroke-miterlimit="10"/>
  <path d="M123.71 138.516H34.2754V169.375H123.71V138.516Z" fill="white" stroke="#EE0000" stroke-width="2" stroke-miterlimit="10"/>
  <path d="M123.71 169.374H34.2754V200.233H123.71V169.374Z" fill="white" stroke="#EE0000" stroke-width="2" stroke-miterlimit="10"/>
  <path d="M92.9609 90.0098H43.8564V95.661H92.9609V90.0098Z" fill="#EE0000"/>
  <path d="M110.938 95.6605C112.5 95.6605 113.765 94.3946 113.765 92.8329C113.765 91.2713 112.5 90.0054 110.938 90.0054C109.376 90.0054 108.11 91.2713 108.11 92.8329C108.11 94.3946 109.376 95.6605 110.938 95.6605Z" fill="#EE0000"/>
  <path d="M110.938 156.772C112.5 156.772 113.765 155.506 113.765 153.945C113.765 152.383 112.5 151.117 110.938 151.117C109.376 151.117 108.11 152.383 108.11 153.945C108.11 155.506 109.376 156.772 110.938 156.772Z" fill="#EE0000"/>
  <path d="M110.938 187.631C112.5 187.631 113.765 186.365 113.765 184.804C113.765 183.242 112.5 181.976 110.938 181.976C109.376 181.976 108.11 183.242 108.11 184.804C108.11 186.365 109.376 187.631 110.938 187.631Z" fill="#EE0000"/>
  <path d="M110.938 125.988C112.5 125.988 113.765 124.722 113.765 123.161C113.765 121.599 112.5 120.333 110.938 120.333C109.376 120.333 108.11 121.599 108.11 123.161C108.11 124.722 109.376 125.988 110.938 125.988Z" fill="#EE0000"/>
  <path d="M43.8604 114.772V131.403H49.5116V114.772H43.8604Z" fill="#EE0000"/>
  <path d="M54.3154 114.772V131.403H59.9666V114.772H54.3154Z" fill="#EE0000"/>
  <path d="M130.049 203.392V206.566H126.875" stroke="#EE0000" stroke-width="2.02" stroke-linecap="round" stroke-linejoin="round"/>
  <path d="M122.009 206.566H33.5508" stroke="#EE0000" stroke-width="2.02" stroke-linecap="round" stroke-linejoin="round"/>
  <path d="M31.1165 206.566H27.9424V203.392" stroke="#EE0000" stroke-width="2.02" stroke-linecap="round" stroke-linejoin="round"/>
  <path d="M27.9424 198.528V76.0723" stroke="#EE0000" stroke-width="2.02" stroke-linecap="round" stroke-linejoin="round"/>
  <path d="M27.9424 73.6424V70.4644H31.1165" stroke="#EE0000" stroke-width="2.02" stroke-linecap="round" stroke-linejoin="round"/>
  <path d="M35.9883 70.4644H124.442" stroke="#EE0000" stroke-width="2.02" stroke-linecap="round" stroke-linejoin="round"/>
  <path d="M126.875 70.4644H130.049V73.6424" stroke="#EE0000" stroke-width="2.02" stroke-linecap="round" stroke-linejoin="round"/>
  <path d="M130.049 78.5063V200.958" stroke="#EE0000" stroke-width="2.02" stroke-linecap="round" stroke-linejoin="round"/>
  <path d="M92.9609 151.129H43.8564V156.78H92.9609V151.129Z" fill="#EE0000"/>
  <path d="M92.9609 182.118H43.8564V187.769H92.9609V182.118Z" fill="#EE0000"/>
  <path d="M11.0713 210.603C11.0713 218.865 17.7937 225.583 26.0519 225.583H136.13C144.393 225.583 151.111 218.861 151.111 210.603C151.111 202.341 144.389 195.622 136.13 195.622C134.854 195.622 133.574 195.791 132.314 196.122C129.097 187.521 120.835 181.772 111.627 181.772C109.824 181.772 108.02 181.992 106.264 182.433C104.125 174.939 99.0411 168.15 91.9091 163.282C84.5527 158.261 75.2903 155.497 65.8191 155.497C42.8717 155.497 24.205 171.296 24.205 190.719C24.205 192.381 24.3467 194.059 24.6224 195.705C16.9864 196.429 11.0674 202.884 11.0674 210.603H11.0713Z" fill="white" stroke="#DEDEDE" stroke-width="2" stroke-linecap="round" stroke-linejoin="round"/>
  <path d="M37.7841 87.2996C57.3696 87.2996 73.2469 71.4224 73.2469 51.8368C73.2469 32.2513 57.3696 16.374 37.7841 16.374C18.1985 16.374 2.32129 32.2513 2.32129 51.8368C2.32129 71.4224 18.1985 87.2996 37.7841 87.2996Z" fill="white" stroke="#EE0000" stroke-width="2" stroke-miterlimit="10"/>
  <path d="M222.863 249.007L195.009 199.548" stroke="#EE0000" stroke-width="2" stroke-miterlimit="10"/>
  <path d="M107.303 260.77L141.777 199.548" stroke="#EE0000" stroke-width="2" stroke-miterlimit="10"/>
  <path d="M191.516 116.265C198.102 116.265 203.441 110.926 203.441 104.34C203.441 97.7544 198.102 92.4155 191.516 92.4155C184.931 92.4155 179.592 97.7544 179.592 104.34C179.592 110.926 184.931 116.265 191.516 116.265Z" fill="white" stroke="white" stroke-width="2" stroke-miterlimit="10"/>
  <path d="M170.829 220.153C177.415 220.153 182.754 214.814 182.754 208.228C182.754 201.643 177.415 196.304 170.829 196.304C164.243 196.304 158.904 201.643 158.904 208.228C158.904 214.814 164.243 220.153 170.829 220.153Z" fill="white" stroke="white" stroke-width="2" stroke-miterlimit="10"/>
  <path d="M169.203 210.465C200.866 210.465 226.534 184.797 226.534 153.133C226.534 121.47 200.866 95.8022 169.203 95.8022C137.54 95.8022 111.872 121.47 111.872 153.133C111.872 184.797 137.54 210.465 169.203 210.465Z" fill="#EE0000" stroke="#EE0000" stroke-width="2" stroke-miterlimit="10"/>
  <path d="M205.641 108.873C213.805 118.777 218.708 131.47 218.708 145.308C218.708 176.971 193.039 202.639 161.377 202.639C147.538 202.639 134.846 197.736 124.941 189.573C135.456 202.332 151.382 210.464 169.206 210.464C200.868 210.464 226.537 184.796 226.537 153.133C226.537 135.309 218.401 119.383 205.645 108.869L205.641 108.873Z" fill="black" stroke="black" stroke-width="2" stroke-miterlimit="10"/>
  <path d="M162.503 155.642C171.636 155.642 179.039 148.239 179.039 139.106C179.039 129.973 171.636 122.57 162.503 122.57C153.37 122.57 145.967 129.973 145.967 139.106C145.967 148.239 153.37 155.642 162.503 155.642Z" fill="#EE0000" stroke="#BE0000" stroke-width="2" stroke-linecap="round" stroke-linejoin="round"/>
  <path d="M172.077 125.63C173.999 128.331 175.133 131.636 175.133 135.203C175.133 144.336 167.73 151.74 158.597 151.74C155.029 151.74 151.725 150.605 149.023 148.684C152.02 152.897 156.939 155.646 162.5 155.646C171.632 155.646 179.036 148.243 179.036 139.11C179.036 133.546 176.287 128.631 172.073 125.634L172.077 125.63Z" fill="black" stroke="black" stroke-width="2" stroke-linecap="round" stroke-linejoin="round"/>
  <path d="M210.316 141.13C222.213 141.13 231.857 131.486 231.857 119.589C231.857 107.692 222.213 98.0474 210.316 98.0474C198.419 98.0474 188.774 107.692 188.774 119.589C188.774 131.486 198.419 141.13 210.316 141.13Z" fill="white" stroke="#DEDEDE" stroke-width="2" stroke-miterlimit="10"/>
  <path d="M125.627 197.583C137.525 197.583 147.169 187.939 147.169 176.042C147.169 164.144 137.525 154.5 125.627 154.5C113.73 154.5 104.086 164.144 104.086 176.042C104.086 187.939 113.73 197.583 125.627 197.583Z" fill="white" stroke="#DEDEDE" stroke-width="2" stroke-miterlimit="10"/>
  <path d="M196.789 220.153C212.26 220.153 224.801 207.611 224.801 192.141C224.801 176.67 212.26 164.129 196.789 164.129C181.319 164.129 168.777 176.67 168.777 192.141C168.777 207.611 181.319 220.153 196.789 220.153Z" fill="white" stroke="white" stroke-width="2" stroke-miterlimit="10"/>
  <path d="M222.946 102.143C225.521 105.691 227.041 110.054 227.041 114.772C227.041 126.669 217.397 136.314 205.5 136.314C200.778 136.314 196.418 134.79 192.87 132.218C196.785 137.617 203.137 141.13 210.316 141.13C222.213 141.13 231.858 131.486 231.858 119.588C231.858 112.409 228.345 106.057 222.946 102.143Z" fill="#DEDEDE" stroke="#DEDEDE" stroke-width="2" stroke-linecap="round" stroke-linejoin="round"/>
  <path d="M137.898 158.344C140.316 161.825 141.738 166.055 141.738 170.615C141.738 182.512 132.093 192.156 120.196 192.156C115.636 192.156 111.406 190.735 107.925 188.317C111.816 193.917 118.29 197.587 125.627 197.587C137.524 197.587 147.168 187.943 147.168 176.046C147.168 168.709 143.498 162.235 137.898 158.344Z" fill="#DEDEDE" stroke="#DEDEDE" stroke-width="2" stroke-linecap="round" stroke-linejoin="round"/>
  <path d="M213.991 170.028C217.689 174.774 219.894 180.744 219.894 187.226C219.894 202.699 207.351 215.238 191.882 215.238C185.4 215.238 179.43 213.033 174.685 209.335C179.812 215.915 187.81 220.149 196.797 220.149C212.27 220.149 224.809 207.606 224.809 192.137C224.809 183.15 220.575 175.152 213.995 170.024L213.991 170.028Z" fill="#DEDEDE" stroke="white" stroke-width="2" stroke-miterlimit="10"/>
  <path d="M151.615 107.388C154.815 107.388 157.408 104.795 157.408 101.595C157.408 98.3958 154.815 95.8022 151.615 95.8022C148.416 95.8022 145.822 98.3958 145.822 101.595C145.822 104.795 148.416 107.388 151.615 107.388Z" fill="white" stroke="white" stroke-width="2" stroke-miterlimit="10"/>
  <path d="M169.36 160.293C172.56 160.293 175.153 157.699 175.153 154.5C175.153 151.301 172.56 148.707 169.36 148.707C166.161 148.707 163.567 151.301 163.567 154.5C163.567 157.699 166.161 160.293 169.36 160.293Z" fill="white" stroke="white" stroke-width="2" stroke-miterlimit="10"/>
  <path d="M146.354 187.588C149.553 187.588 152.146 184.994 152.146 181.795C152.146 178.596 149.553 176.002 146.354 176.002C143.154 176.002 140.561 178.596 140.561 181.795C140.561 184.994 143.154 187.588 146.354 187.588Z" fill="white" stroke="#DEDEDE" stroke-width="2" stroke-linecap="round" stroke-linejoin="round"/>
  <path d="M204.788 174.82C209.634 174.82 213.562 170.892 213.562 166.046C213.562 161.2 209.634 157.272 204.788 157.272C199.942 157.272 196.014 161.2 196.014 166.046C196.014 170.892 199.942 174.82 204.788 174.82Z" fill="white" stroke="#DEDEDE" stroke-width="2" stroke-miterlimit="10"/>
  <path d="M215.491 102.142C217.753 102.142 219.587 100.309 219.587 98.0468C219.587 95.7849 217.753 93.9512 215.491 93.9512C213.229 93.9512 211.396 95.7849 211.396 98.0468C211.396 100.309 213.229 102.142 215.491 102.142Z" fill="white" stroke="#DEDEDE" stroke-width="2" stroke-miterlimit="10"/>
  <path d="M232.732 181.401C234.994 181.401 236.828 179.568 236.828 177.306C236.828 175.044 234.994 173.21 232.732 173.21C230.47 173.21 228.637 175.044 228.637 177.306C228.637 179.568 230.47 181.401 232.732 181.401Z" fill="#EE0000" stroke="#EE0000" stroke-width="2" stroke-miterlimit="10"/>
  <path d="M100.88 238.481C103.225 238.481 105.125 236.58 105.125 234.236C105.125 231.891 103.225 229.99 100.88 229.99C98.5354 229.99 96.6348 231.891 96.6348 234.236C96.6348 236.58 98.5354 238.481 100.88 238.481Z" fill="#EE0000" stroke="#EE0000" stroke-width="2" stroke-linecap="round" stroke-linejoin="round"/>
  <path d="M131.731 273.613C134.075 273.613 135.976 271.712 135.976 269.367C135.976 267.023 134.075 265.122 131.731 265.122C129.386 265.122 127.485 267.023 127.485 269.367C127.485 271.712 129.386 273.613 131.731 273.613Z" fill="#EE0000" stroke="#EE0000" stroke-width="2" stroke-linecap="round" stroke-linejoin="round"/>
  <path d="M85.7658 282.457C88.1104 282.457 90.0111 280.557 90.0111 278.212C90.0111 275.867 88.1104 273.967 85.7658 273.967C83.4212 273.967 81.5205 275.867 81.5205 278.212C81.5205 280.557 83.4212 282.457 85.7658 282.457Z" fill="black" stroke="black" stroke-width="2" stroke-linecap="round" stroke-linejoin="round"/>
  <path d="M116.904 236.055C113.892 234.787 110.599 234.05 107.134 233.971C92.3343 233.625 80.0513 245.341 79.7048 260.14C79.3582 274.94 91.0741 287.223 105.874 287.569C120.673 287.916 132.956 276.2 133.303 261.4C133.507 252.697 129.538 244.864 123.225 239.816" stroke="#EE0000" stroke-width="2" stroke-miterlimit="10" stroke-linecap="round"/>
  <path d="M128.991 125.996C133.972 125.996 138.009 121.958 138.009 116.978C138.009 111.997 133.972 107.959 128.991 107.959C124.01 107.959 119.973 111.997 119.973 116.978C119.973 121.958 124.01 125.996 128.991 125.996Z" fill="#EE0000" stroke="#BE0000" stroke-width="2" stroke-linecap="round" stroke-linejoin="round"/>
  <path d="M134.208 109.629C135.256 111.102 135.874 112.901 135.874 114.851C135.874 119.833 131.837 123.869 126.856 123.869C124.91 123.869 123.111 123.251 121.634 122.203C123.268 124.499 125.95 126 128.982 126C133.964 126 138.001 121.963 138.001 116.981C138.001 113.949 136.5 111.267 134.204 109.633L134.208 109.629Z" fill="black" stroke="black" stroke-width="2" stroke-linecap="round" stroke-linejoin="round"/>
  <path d="M197.549 145.143C202.529 145.143 206.567 141.105 206.567 136.125C206.567 131.144 202.529 127.106 197.549 127.106C192.568 127.106 188.53 131.144 188.53 136.125C188.53 141.105 192.568 145.143 197.549 145.143Z" fill="#EE0000" stroke="#BE0000" stroke-width="2" stroke-linecap="round" stroke-linejoin="round"/>
  <path d="M202.768 128.776C203.815 130.249 204.434 132.048 204.434 133.998C204.434 138.98 200.397 143.016 195.415 143.016C193.47 143.016 191.67 142.398 190.193 141.35C191.828 143.646 194.51 145.147 197.542 145.147C202.524 145.147 206.56 141.11 206.56 136.128C206.56 133.096 205.06 130.414 202.764 128.78L202.768 128.776Z" fill="black" stroke="black" stroke-width="2" stroke-linecap="round" stroke-linejoin="round"/>
  <mask id="mask1_152_18652" style="mask-type:luminance" maskUnits="userSpaceOnUse" x="21" y="25" width="288" height="287">
    <path d="M33.0574 56.6966C37.921 48.2296 49.562 45.5557 58.411 43.9331C70.1663 41.7751 82.406 41.527 94.1101 44.1497C105.542 46.7095 115.502 53.1326 126.47 57.0038C143.203 62.907 158.758 58.2955 174.211 50.7382C180.138 47.8398 185.912 44.6263 191.602 41.2907C241.892 11.8335 283.928 30.6932 294.537 44.835C305.146 58.9768 327.538 101.028 272.535 157.398C272.535 157.398 253.285 175.27 269.392 200.41C285.499 225.555 320.465 249.519 302.787 283.702C285.109 317.881 237.962 313.954 193.961 298.237C193.961 298.237 168.033 286.844 137.78 298.631C110.182 309.382 80.9213 318.822 52.362 304.259C20.3057 287.916 13.8708 248.979 30.5212 218.876C36.9128 194.109 41.3274 168.508 43.5288 143.04C44.6985 129.489 45.2262 115.737 43.7612 102.186C43.135 96.4086 42.1544 90.6235 40.3862 85.0747C38.0155 77.6356 31.8444 70.8817 31.5727 62.8361C31.4939 60.4733 32.0532 58.4412 33.0574 56.6887V56.6966Z" fill="white"/>
  </mask>
  <g mask="url(#mask1_152_18652)">
    <path d="M120.129 250.814H43.9854V326.958H120.129V250.814Z" fill="white" stroke="white" stroke-width="2" stroke-miterlimit="10"/>
    <path d="M120.129 250.814H43.9854V265.047H120.129V250.814Z" fill="#EE0000" stroke="#EE0000" stroke-width="2" stroke-linecap="round" stroke-linejoin="round"/>
    <path d="M106.038 259.963C107.11 259.963 107.98 259.094 107.98 258.022C107.98 256.949 107.11 256.08 106.038 256.08C104.966 256.08 104.097 256.949 104.097 258.022C104.097 259.094 104.966 259.963 106.038 259.963Z" fill="white"/>
    <path d="M113.572 259.963C114.645 259.963 115.514 259.094 115.514 258.022C115.514 256.949 114.645 256.08 113.572 256.08C112.5 256.08 111.631 256.949 111.631 258.022C111.631 259.094 112.5 259.963 113.572 259.963Z" fill="white"/>
    <path d="M50.6992 258.021H92.8883" stroke="white" stroke-width="2.08" stroke-linecap="round" stroke-linejoin="round"/>
    <path d="M86.4227 271.746H50.6016V320.24H86.4227V271.746Z" stroke="#C9C9C9" stroke-width="2" stroke-linecap="round" stroke-linejoin="round"/>
    <path d="M113.415 271.746H91.3184V293.311H113.415V271.746Z" stroke="#C9C9C9" stroke-width="2" stroke-linecap="round" stroke-linejoin="round"/>
    <path d="M113.415 298.678H91.3184V320.243H113.415V298.678Z" stroke="#C9C9C9" stroke-width="2" stroke-linecap="round" stroke-linejoin="round"/>
  </g>
  <path d="M236.674 321.5C262.628 321.5 283.668 300.46 283.668 274.506C283.668 248.552 262.628 227.513 236.674 227.513C210.72 227.513 189.681 248.552 189.681 274.506C189.681 300.46 210.72 321.5 236.674 321.5Z" fill="white" stroke="#EE0000" stroke-width="2" stroke-miterlimit="10"/>
  <path d="M37.8418 51.6836V63.3995" stroke="white" stroke-width="2.07" stroke-linecap="round" stroke-linejoin="round"/>
  <path d="M37.8418 51.6836V70.4566" stroke="white" stroke-width="2.07" stroke-linecap="round" stroke-linejoin="round"/>
  <path d="M56.1898 41.0746V62.2775L37.8264 72.8828L19.4629 62.2775V41.0746L37.8264 30.4692L56.1898 41.0746Z" fill="#EE0000"/>
  <mask id="mask2_152_18652" style="mask-type:luminance" maskUnits="userSpaceOnUse" x="19" y="30" width="38" height="43">
    <path d="M56.1898 41.0741V62.277L37.8264 72.8823L19.4629 62.277V41.0741L37.8264 30.4688L56.1898 41.0741Z" fill="white"/>
  </mask>
  <g mask="url(#mask2_152_18652)">
    <path d="M22.9563 24.4551C21.8536 25.6405 21.3534 28.0073 20.8769 29.488C19.8766 32.6031 19.0496 35.8835 19.0103 39.164C18.9512 43.6928 21.9008 47.9618 24.7757 51.2777C27.5402 54.4636 31.1594 56.8186 33.6916 60.2133C34.1484 60.8276 34.5698 61.4695 34.9321 62.143C37.1492 66.2268 37.7912 71.0155 37.3658 75.5995C37.3461 75.82 37.3146 77.1905 36.9445 77.2023L12.0437 78.0687L10.1416 24.9631C10.1416 24.9631 23.4013 23.9668 22.9523 24.4512L22.9563 24.4551Z" fill="black"/>
  </g>
  <mask id="mask3_152_18652" style="mask-type:luminance" maskUnits="userSpaceOnUse" x="19" y="30" width="38" height="43">
    <path d="M56.1898 41.0741V62.277L37.8264 72.8823L19.4629 62.277V41.0741L37.8264 30.4688L56.1898 41.0741Z" fill="white"/>
  </mask>
  <g mask="url(#mask3_152_18652)">
    <path d="M19.4629 41.0742L37.8421 51.6835" stroke="white" stroke-width="2.5" stroke-linecap="round" stroke-linejoin="round"/>
    <path d="M37.8418 51.6836V76.289" stroke="white" stroke-width="2.5" stroke-linecap="round" stroke-linejoin="round"/>
    <path d="M56.1895 41.0742L37.8418 51.6835" stroke="white" stroke-width="2.5" stroke-linecap="round" stroke-linejoin="round"/>
  </g>
  <path d="M236.304 274.491V288.888" stroke="white" stroke-width="2.07" stroke-linecap="round" stroke-linejoin="round"/>
  <path d="M236.304 274.491V297.564" stroke="white" stroke-width="2.07" stroke-linecap="round" stroke-linejoin="round"/>
  <path d="M258.858 261.443V287.51L236.284 300.545L213.711 287.51V261.443L236.284 248.412L258.858 261.443Z" fill="#EE0000"/>
  <mask id="mask4_152_18652" style="mask-type:luminance" maskUnits="userSpaceOnUse" x="213" y="248" width="46" height="53">
    <path d="M258.859 261.444V287.51L236.285 300.545L213.712 287.51V261.444L236.285 248.413L258.859 261.444Z" fill="white"/>
  </mask>
  <g mask="url(#mask4_152_18652)">
    <path d="M218.007 241.016C216.653 242.473 216.038 245.384 215.451 247.203C214.219 251.031 213.207 255.064 213.156 259.096C213.085 264.661 216.708 269.91 220.244 273.986C223.643 277.901 228.089 280.795 231.204 284.97C231.767 285.726 232.283 286.514 232.732 287.341C235.457 292.362 236.245 298.245 235.725 303.885C235.701 304.156 235.662 305.842 235.205 305.858L204.598 306.925L202.259 241.646C202.259 241.646 218.555 240.426 218.003 241.016H218.007Z" fill="black"/>
  </g>
  <mask id="mask5_152_18652" style="mask-type:luminance" maskUnits="userSpaceOnUse" x="213" y="248" width="46" height="53">
    <path d="M258.859 261.444V287.51L236.285 300.545L213.712 287.51V261.444L236.285 248.413L258.859 261.444Z" fill="white"/>
  </mask>
  <g mask="url(#mask5_152_18652)">
    <path d="M213.712 261.444L236.305 274.491" stroke="white" stroke-width="2.5" stroke-linecap="round" stroke-linejoin="round"/>
    <path d="M236.305 274.491V304.732" stroke="white" stroke-width="2.5" stroke-linecap="round" stroke-linejoin="round"/>
    <path d="M258.858 261.444L236.305 274.491" stroke="white" stroke-width="2.5" stroke-linecap="round" stroke-linejoin="round"/>
  </g>
  <path d="M298.354 201.556C307.578 201.556 315.055 194.079 315.055 184.855C315.055 175.631 307.578 168.153 298.354 168.153C289.13 168.153 281.652 175.631 281.652 184.855C281.652 194.079 289.13 201.556 298.354 201.556Z" fill="white" stroke="#DEDEDE" stroke-width="2" stroke-miterlimit="10"/>
  <path d="M307.092 170.623C308.656 173.167 309.561 176.16 309.561 179.366C309.561 188.593 302.083 196.067 292.86 196.067C289.654 196.067 286.661 195.161 284.117 193.598C287.055 198.375 292.332 201.561 298.35 201.561C307.577 201.561 315.051 194.082 315.051 184.859C315.051 178.838 311.865 173.565 307.088 170.627L307.092 170.623Z" fill="#DEDEDE" stroke="#DEDEDE" stroke-width="2" stroke-linecap="round" stroke-linejoin="round"/>
  <path d="M107.366 59.2408C116.499 59.2408 123.902 51.8373 123.902 42.7046C123.902 33.572 116.499 26.1685 107.366 26.1685C98.2336 26.1685 90.8301 33.572 90.8301 42.7046C90.8301 51.8373 98.2336 59.2408 107.366 59.2408Z" fill="white" stroke="#DEDEDE" stroke-width="2" stroke-miterlimit="10"/>
  <path d="M116.94 29.2285C118.861 31.9301 119.995 35.2342 119.995 38.8021C119.995 47.9346 112.592 55.3383 103.459 55.3383C99.8914 55.3383 96.5873 54.2041 93.8857 52.2823C96.8827 56.4961 101.801 59.2449 107.362 59.2449C116.494 59.2449 123.898 51.8412 123.898 42.7087C123.898 37.1441 121.149 32.2294 116.936 29.2325L116.94 29.2285Z" fill="#DEDEDE" stroke="#DEDEDE" stroke-width="2" stroke-linecap="round" stroke-linejoin="round"/>
  <path d="M9.45272 115.442C13.9571 115.442 17.6086 111.79 17.6086 107.286C17.6086 102.781 13.9571 99.1299 9.45272 99.1299C4.94837 99.1299 1.29688 102.781 1.29688 107.286C1.29688 111.79 4.94837 115.442 9.45272 115.442Z" fill="white" stroke="#DEDEDE" stroke-width="2" stroke-miterlimit="10"/>
  <path d="M13.7217 100.335C14.4857 101.575 14.9267 103.037 14.9267 104.604C14.9267 109.109 11.2761 112.76 6.77088 112.76C5.20744 112.76 3.74246 112.319 2.50195 111.555C3.93543 113.886 6.51096 115.442 9.45274 115.442C13.9579 115.442 17.6086 111.791 17.6086 107.286C17.6086 104.348 16.053 101.772 13.7217 100.335Z" fill="#DEDEDE" stroke="#DEDEDE" stroke-width="2" stroke-linecap="round" stroke-linejoin="round"/>
  <path d="M316.713 165.306C321.126 165.306 324.704 161.729 324.704 157.316C324.704 152.903 321.126 149.325 316.713 149.325C312.3 149.325 308.723 152.903 308.723 157.316C308.723 161.729 312.3 165.306 316.713 165.306Z" fill="white" stroke="#DEDEDE" stroke-width="2" stroke-miterlimit="10"/>
  <path d="M321.336 150.802C322.266 152.11 322.813 153.705 322.813 155.43C322.813 159.844 319.233 163.42 314.823 163.42C313.098 163.42 311.503 162.873 310.195 161.943C311.645 163.979 314.019 165.31 316.709 165.31C321.124 165.31 324.699 161.731 324.699 157.32C324.699 154.63 323.368 152.255 321.332 150.806L321.336 150.802Z" fill="#DEDEDE" stroke="#DEDEDE" stroke-width="2" stroke-linecap="round" stroke-linejoin="round"/>
</svg>
