<svg width="394" height="480" viewBox="0 0 394 480" fill="none" xmlns="http://www.w3.org/2000/svg">
<g clip-path="url(#clip0_190_10938)">
<mask id="mask0_190_10938" style="mask-type:luminance" maskUnits="userSpaceOnUse" x="6" y="54" width="388" height="372">
<path d="M366.704 406.99C430.338 346.066 359.075 293.145 362.595 241.743C366.115 190.342 416.171 97.9047 335.224 63.4407C251.072 27.6115 218.02 111.095 158.501 145.659C121.715 167.027 25.5499 167.509 9.50912 236.999C-9.92457 321.171 67.3217 363.07 109.575 361.163C148.811 359.39 207.942 368.952 239.026 396.142C270.679 423.827 331.463 440.725 366.704 406.99Z" fill="white"/>
</mask>
<g mask="url(#mask0_190_10938)">
<path d="M366.704 406.99C430.338 346.066 359.075 293.145 362.595 241.743C366.115 190.342 416.171 97.9047 335.224 63.4407C251.072 27.6115 218.02 111.095 158.501 145.659C121.715 167.027 25.5499 167.509 9.50912 236.999C-9.92457 321.171 67.3217 363.07 109.575 361.163C148.811 359.39 207.942 368.952 239.026 396.142C270.679 423.827 331.463 440.725 366.704 406.99Z" fill="#DEDEDE"/>
<path d="M59.0707 184.446H4.72461V238.792H59.0707V184.446Z" fill="black"/>
<path d="M367.306 69.6041C367.306 62.1358 361.257 56.0862 353.788 56.0862C353.621 56.0862 353.46 56.0862 353.3 56.0996C351.694 46.0883 343.228 38.3724 332.882 37.924C328.646 23.0877 314.988 12.2266 298.793 12.2266C280.37 12.2266 265.233 26.2798 263.506 44.248C263.446 44.248 263.392 44.248 263.332 44.248C252.598 44.248 243.892 52.9543 243.892 63.6883C243.892 74.4224 252.538 83.0685 263.225 83.1287H263.332H298.786H353.782H354.002C361.364 83.0016 367.293 76.9988 367.293 69.6108L367.306 69.6041Z" fill="black"/>
<path d="M284.285 75.3527C280.015 75.3527 275.893 75.9952 272.012 77.1931C262.676 59.6398 244.206 47.6812 222.939 47.6812C199.283 47.6812 179.093 62.4773 171.082 83.3163C155.965 83.8182 143.09 93.2071 137.542 106.431C135.427 105.889 133.212 105.601 130.93 105.601C116.241 105.601 104.336 117.506 104.336 132.195C104.336 146.884 116.241 158.789 130.93 158.789H284.292C307.332 158.789 326.003 140.112 326.003 117.078C326.003 94.0436 307.326 75.3661 284.292 75.3661L284.285 75.3527Z" fill="black"/>
</g>
<path d="M363.291 66.2579C363.291 58.7896 357.241 52.74 349.773 52.74C349.605 52.74 349.445 52.74 349.284 52.7534C347.678 42.7421 339.213 35.0262 328.867 34.5778C324.631 19.7416 310.972 8.88037 294.777 8.88037C276.354 8.88037 261.217 22.9337 259.49 40.9018C259.43 40.9018 259.377 40.9018 259.316 40.9018C248.582 40.9018 239.876 49.6081 239.876 60.3422C239.876 71.0762 248.522 79.7223 259.209 79.7825H259.316H294.771H349.766H349.987C357.348 79.6554 363.277 73.6526 363.277 66.2646L363.291 66.2579Z" fill="white" stroke="#DEDEDE" stroke-width="2" stroke-miterlimit="10"/>
<path d="M81.8297 240.545C75.5927 237.42 69.6903 233.719 64.1895 229.503" stroke="#EE0000" stroke-width="2" stroke-linecap="round" stroke-linejoin="round"/>
<path d="M107.849 260.093C91.1188 256.82 75.5665 250.048 62.0352 240.545" stroke="#EE0000" stroke-width="2" stroke-linecap="round" stroke-linejoin="round"/>
<path d="M155.917 269.221C145.96 271.181 135.62 272.005 125.034 271.543C96.3046 270.291 70.1655 259.812 49.3398 243.082" stroke="#EE0000" stroke-width="2" stroke-linecap="round" stroke-linejoin="round"/>
<path d="M65.3477 67.1615C70.8284 62.8451 76.6907 59.0775 82.8473 55.8921" stroke="#EE0000" stroke-width="2" stroke-linecap="round" stroke-linejoin="round"/>
<path d="M36.5918 82.3993C45.9607 69.6175 57.6249 59.0441 70.748 51.0337" stroke="#EE0000" stroke-width="2" stroke-linecap="round" stroke-linejoin="round"/>
<path d="M7.88281 122.023C10.3388 112.179 13.9993 102.469 18.918 93.0797C32.2686 67.6098 52.8734 48.4103 76.8644 36.6792" stroke="#EE0000" stroke-width="2" stroke-linecap="round" stroke-linejoin="round"/>
<path d="M55.7312 180.779H1.26465V235.245H55.7312V180.779Z" fill="white" stroke="#EE0000" stroke-width="1.5" stroke-linecap="round" stroke-linejoin="round"/>
<path d="M55.7312 180.779H1.26465V190.957H55.7312V180.779Z" fill="#EE0000" stroke="#EE0000" stroke-width="1.5" stroke-linecap="round" stroke-linejoin="round"/>
<path d="M45.6528 187.324C46.4179 187.324 47.0381 186.704 47.0381 185.938C47.0381 185.173 46.4179 184.553 45.6528 184.553C44.8878 184.553 44.2676 185.173 44.2676 185.938C44.2676 186.704 44.8878 187.324 45.6528 187.324Z" fill="white"/>
<path d="M51.0405 187.324C51.8056 187.324 52.4258 186.704 52.4258 185.938C52.4258 185.173 51.8056 184.553 51.0405 184.553C50.2755 184.553 49.6553 185.173 49.6553 185.938C49.6553 186.704 50.2755 187.324 51.0405 187.324Z" fill="white"/>
<path d="M4.51074 185.938H33.775" stroke="white" stroke-width="1.5" stroke-linecap="round" stroke-linejoin="round"/>
<path d="M24.0977 227.221L32.9044 198.573" stroke="#EE0000" stroke-width="1.5" stroke-miterlimit="10"/>
<path d="M37.6494 205.74L44.8099 212.901L37.6494 220.061" stroke="#EE0000" stroke-width="1.5" stroke-miterlimit="10"/>
<path d="M19.347 205.74L12.1865 212.901L19.347 220.061" stroke="#EE0000" stroke-width="1.5" stroke-miterlimit="10"/>
<path d="M112.152 61.7475C129.065 61.7475 142.775 48.0372 142.775 31.1247C142.775 14.2122 129.065 0.501953 112.152 0.501953C95.2396 0.501953 81.5293 14.2122 81.5293 31.1247C81.5293 48.0372 95.2396 61.7475 112.152 61.7475Z" fill="white" stroke="#EE0000" stroke-width="1.5" stroke-miterlimit="10"/>
<path d="M111.904 31.1113V40.3062" stroke="white" stroke-width="1.5" stroke-linecap="round" stroke-linejoin="round"/>
<path d="M111.904 31.1113V45.8405" stroke="white" stroke-width="1.5" stroke-linecap="round" stroke-linejoin="round"/>
<path d="M126.298 22.7865V39.4229L111.89 47.7411L97.4824 39.4229V22.7865L111.89 14.4683L126.298 22.7865Z" fill="white" stroke="#EE0000" stroke-width="1.5" stroke-miterlimit="10"/>
<mask id="mask1_190_10938" style="mask-type:luminance" maskUnits="userSpaceOnUse" x="97" y="14" width="30" height="34">
<path d="M126.298 22.7865V39.4229L111.89 47.7411L97.4824 39.4229V22.7865L111.89 14.4683L126.298 22.7865Z" fill="white"/>
</mask>
<g mask="url(#mask1_190_10938)">
<path d="M97.4824 22.7866L111.904 31.1115" stroke="#EE0000" stroke-width="1.5" stroke-linecap="round" stroke-linejoin="round"/>
<path d="M111.903 31.1113V50.4179" stroke="#EE0000" stroke-width="1.5" stroke-linecap="round" stroke-linejoin="round"/>
<path d="M126.298 22.7866L111.903 31.1115" stroke="#EE0000" stroke-width="1.5" stroke-linecap="round" stroke-linejoin="round"/>
</g>
<path d="M280.269 72.0065C276 72.0065 271.877 72.649 267.996 73.8469C258.661 56.2936 240.191 44.335 218.923 44.335C195.267 44.335 175.077 59.1311 167.067 79.9701C151.949 80.472 139.074 89.8609 133.526 103.084C131.412 102.542 129.196 102.255 126.914 102.255C112.225 102.255 100.32 114.16 100.32 128.849C100.32 143.538 112.225 155.443 126.914 155.443H280.276C303.317 155.443 321.988 136.765 321.988 113.731C321.988 90.6974 303.31 72.0199 280.276 72.0199L280.269 72.0065Z" fill="white" stroke="#DEDEDE" stroke-width="2" stroke-miterlimit="10"/>
<path d="M111.529 31.138V47.2792L126.305 39.2086V23.0674L111.529 31.138Z" fill="#EE0000"/>
<path d="M220.208 480C260.083 480 292.409 472.408 292.409 463.043C292.409 453.677 260.083 446.085 220.208 446.085C180.333 446.085 148.008 453.677 148.008 463.043C148.008 472.408 180.333 480 220.208 480Z" fill="black"/>
<path d="M207.106 452.108C216.367 444.479 212.031 400.077 212.031 389.135C212.031 378.194 226.265 378.234 227.342 389.135C228.433 400.144 225.883 447.403 232.669 451.559C244.293 458.672 197.804 459.763 207.106 452.108Z" fill="black"/>
<path d="M232.521 457.027C223.233 459.175 203.096 458.057 209.514 452.777C214.533 448.648 215.289 425.668 215.175 411.119" stroke="#6C6C6C" stroke-width="2" stroke-linecap="round" stroke-linejoin="round"/>
<path d="M235.533 202.695C252.397 191.888 305.545 192.303 318.668 209.26C332.527 227.168 315.49 340.678 272.179 377.719C230.608 413.274 177.245 412.531 137.99 394.79C122.812 387.931 121.708 371.315 126.894 360.848C138.626 337.178 185.898 310.43 198.887 284.258C216.682 248.415 214.199 216.367 235.533 202.695Z" fill="#FF0000" stroke="#EE0000" stroke-width="1.5" stroke-miterlimit="10"/>
<path d="M318.668 209.26C316.674 206.684 313.743 204.489 310.163 202.655C317.999 206.784 321.339 215.082 320.576 238.377C319.351 275.839 301.162 332.053 273.296 359.731C221.567 411.112 180.411 405.404 155.918 401.389C192.503 411.982 236.651 408.101 272.179 377.719C315.49 340.679 332.534 227.162 318.668 209.26Z" fill="#BE0000"/>
<path d="M236.082 204.335C252.946 193.527 284.767 193.915 307.586 206.798C329.797 219.338 306.041 289.357 272.728 335.599C241.77 378.569 180.163 405.076 141.811 385.027C93.682 359.865 175.465 327.696 198.325 291.231C219.579 257.323 214.754 218.007 236.082 204.335Z" fill="black" stroke="#EE0000" stroke-width="1.5" stroke-miterlimit="10"/>
<path d="M155.918 456.016C153.321 457.468 151.902 459.074 151.902 460.921C151.902 469.48 182.458 476.42 220.141 476.42C247.799 476.42 271.616 472.686 282.33 467.312" stroke="#6C6C6C" stroke-width="1.86" stroke-linecap="round" stroke-linejoin="round"/>
<mask id="mask2_190_10938" style="mask-type:luminance" maskUnits="userSpaceOnUse" x="95" y="118" width="222" height="274">
<path d="M217.123 124.412C226.083 118.67 268.196 111.851 287.021 133.647C303.631 152.873 296.885 200.293 307.586 206.329C329.797 218.87 306.04 288.889 272.727 335.131C241.77 378.101 180.163 404.608 141.81 384.558C93.6813 359.396 84.9951 313.429 107.848 276.964C129.102 243.055 195.788 138.084 217.123 124.405V124.412Z" fill="white"/>
</mask>
<g mask="url(#mask2_190_10938)">
<path d="M234.703 227.797C233.579 235.861 227.663 242.205 219.345 257.878C218.675 259.136 213.355 256.827 206.984 254.285L210.538 276.556C218.977 281.869 223.748 286.895 226.545 285.61C237.647 280.504 257.723 254.05 250.61 224.217C246.628 207.5 236.67 213.657 234.703 227.797Z" fill="white" stroke="#DEDEDE" stroke-width="1.5" stroke-miterlimit="10"/>
<path d="M234.703 227.797C235.037 240.345 228.064 248.027 223.741 261.766C223.313 263.125 214.72 266.29 208.343 262.77C208.343 262.77 262.689 294.517 250.61 224.217C247.699 207.28 234.321 213.523 234.703 227.797Z" fill="#DEDEDE"/>
<path d="M309.935 229.263C305.351 209.736 295.44 205.895 283.114 202.689C282.572 202.549 282.27 203.285 282.752 203.566L284.084 204.342C284.405 204.529 284.398 205.272 284.211 205.6C281.454 210.325 275.404 216.702 270.74 218.884C260.053 223.883 251.46 224.057 254.96 217.385C256.004 215.391 260.454 210.325 260.053 205.935C260.013 205.486 254.927 205.312 254.505 205.48C244.253 209.562 235.038 216.441 236.751 226.111C239.809 243.377 223.514 249.975 230.073 268.211C235.433 283.101 224.692 295.688 218.729 303.478C228.721 307.112 242.841 315.617 260.521 315.524C271.302 315.463 279.781 322.825 283.033 327.91C284.519 325.575 289.558 313.784 291.579 306.543C297.716 284.546 317.036 259.558 309.935 229.277V229.263Z" fill="white" stroke="#DEDEDE" stroke-width="1.5" stroke-miterlimit="10"/>
<path d="M310.404 229.263C305.82 209.736 298.11 236.223 286.807 234.911C289.866 252.176 290.348 273.169 274.347 274.976C257.376 276.89 280.738 287.959 262.683 311.682C272.42 316.855 280.249 322.811 283.502 327.897C284.987 325.561 290.026 313.77 292.047 306.529C298.184 284.532 317.504 259.544 310.404 229.263Z" fill="#DEDEDE"/>
<path d="M208.343 267.937L210.544 277.098C218.983 282.411 223.755 287.437 226.552 286.152C230.808 284.191 232.528 278.871 230.547 270.138C221.58 269.449 215.456 268.967 208.349 267.943L208.343 267.937Z" fill="#C9C9C9"/>
<path d="M286.566 291.405C281.52 307.359 275.29 319.579 277.124 321.105C279.934 323.44 282.129 325.749 283.508 327.897C284.994 325.561 294.717 298.452 296.457 294.249L286.566 291.405Z" fill="black"/>
<path d="M177.981 340.164C183.194 343.677 201.015 353.969 204.066 358.406C207.118 362.836 207.399 370.418 202.507 372.259C197.615 374.099 192.61 376.796 187.959 375.009C183.308 373.222 181.126 367.012 177.492 363.766C173.858 360.521 168.056 352.296 163.017 351.299C157.978 350.302 157.563 348.629 158.413 344.393C159.256 340.157 171.115 335.539 177.987 340.17L177.981 340.164Z" fill="#DEDEDE"/>
<path d="M110.238 310.752C102.569 339.012 139.034 339.554 166.377 364.716C164.189 353.775 178.149 350.315 178.149 350.315C165.019 331.718 162.73 317.866 125.904 310.203C155.268 315.517 164.698 329.737 166.926 334.268C170.493 341.522 179.172 352.41 193.968 357.877C198.954 354.069 194.631 345.457 200.835 347.029C208.878 349.071 233.284 363.813 238.163 363.954C240.612 364.027 246.233 369.936 252.069 363.666C265.118 353.146 271.476 347.11 282.892 328.158C270.465 311.769 225.521 295.44 219.191 301.985C215.102 306.215 210.645 310.959 204.656 310.437C171.108 307.52 118.241 281.233 110.231 310.745L110.238 310.752Z" fill="black" stroke="#DEDEDE" stroke-width="1.5" stroke-linecap="round" stroke-linejoin="round"/>
<path d="M169.717 371.308C163.038 370.525 140.995 369.254 135.962 366.871C130.93 364.489 127.082 358.466 130.93 355.033C134.778 351.6 138.331 347.438 143.665 347.036C148.992 346.641 154.031 350.804 159.063 351.995C164.095 353.186 173.571 357.549 178.905 356.358C184.232 355.167 185.416 356.358 186.601 360.126C187.785 363.893 178.53 372.332 169.723 371.301L169.717 371.308Z" fill="white" stroke="#DEDEDE" stroke-width="1.5" stroke-miterlimit="10"/>
<path d="M169.716 371.308C163.037 370.525 140.994 369.254 135.961 366.871C133.559 365.734 131.431 363.773 130.273 361.658C129.008 359.336 128.915 356.833 130.929 355.033C133.412 355.87 136.617 359.597 141.951 359.202C147.284 358.808 151.909 360.481 158.259 358.205C163.131 356.459 173.571 357.549 178.904 356.365C184.231 355.174 185.416 356.365 186.6 360.133C187.785 363.9 178.529 372.339 169.723 371.308H169.716Z" fill="#DEDEDE" stroke="#DEDEDE" stroke-width="1.5" stroke-miterlimit="10"/>
<path d="M158.253 358.205C162.349 340.083 165.006 309.474 176.048 302.186C199.169 286.915 233.833 316.045 255.716 316.045C271.121 316.045 279.393 322.53 282.906 328.171C277.124 337.373 268.07 351.219 253.742 362.629C250.51 364.77 249.553 367.327 241.609 365.841C224.853 362.709 194.096 347.036 187.163 333.585C192.758 342.673 197.897 344.012 201.906 348.388C205.024 355.957 184.152 363.961 180.551 369.742C164.089 378.107 157.163 363.037 158.253 358.205Z" fill="black" stroke="#DEDEDE" stroke-width="1.5" stroke-miterlimit="10"/>
<path d="M246.006 280.116C246.006 285.182 246.347 288.267 248.696 289.291C250.858 290.234 252.37 285.182 252.37 280.116C252.37 275.05 252.758 270.941 250.396 270.941C248.034 270.941 246.013 275.05 246.013 280.116H246.006Z" fill="black" stroke="#DEDEDE" stroke-width="1.5" stroke-miterlimit="10"/>
<path d="M255.154 274.073C249.566 270.814 247.264 270.901 241.241 268.853C239.796 268.365 238.357 267.254 236.892 266.859C234.168 266.129 234.964 265.828 232.381 264.597C231.625 264.236 229.731 264.309 228.078 264.784C224.812 264.021 219.251 262.757 217.431 262.603C213.563 262.281 208.952 262.429 207.815 262.536C207.192 262.596 206.563 262.67 205.974 262.904C205.633 263.044 205.292 263.252 205.111 263.606C205.004 263.807 205.011 264.055 205.111 264.256C205.519 265.045 206.262 265.413 207.012 265.634C211.776 267.026 214.058 266.551 216.267 267.153C217.833 267.582 221.359 268.579 223.534 269.174C221.855 271.945 220.356 275.311 221.018 275.953C221.968 276.877 222.865 277.901 223.748 278.811L220.971 279.54C220.69 279.741 219.084 280.698 218.816 280.925C218.381 281.3 217.953 281.729 217.779 282.317C217.605 282.913 218.482 284.445 219.01 284.874C219.332 285.135 219.733 285.222 220.108 285.235C220.75 285.262 222.376 284.593 224.043 284.178C229.744 282.766 231.98 283.803 236.624 282.478C237.922 282.11 238.946 281.541 239.756 280.912C240.619 280.243 241.737 280.009 242.787 280.31C245.538 281.099 248.496 282.19 251.54 283.381C253.735 284.245 256.272 274.722 255.154 274.073Z" fill="#DE9354" stroke="#C65E2B" stroke-miterlimit="10"/>
<path d="M225.501 266.846C221.566 267.086 218.508 266.022 216.688 265.875C212.82 265.554 206.094 264.443 204.856 263.5C204.749 263.7 204.756 263.948 204.856 264.149C205.264 264.938 206.007 265.306 206.757 265.527C211.521 266.919 214.024 266.571 216.661 267.26C218.334 267.702 219.88 268.237 222.055 268.833L225.501 266.852V266.846Z" fill="#C65E2B"/>
<path d="M255.153 274.073C253.755 273.009 251.279 271.764 249.86 271.523C251.305 274.675 254.759 282.291 235.291 278.383C226.973 280.651 219.05 285.63 217.778 282.324C217.604 282.92 218.481 284.452 219.01 284.881C219.331 285.142 219.732 285.229 220.107 285.242C220.75 285.269 222.376 284.6 224.042 284.185C229.744 282.773 231.979 283.81 236.623 282.485C237.921 282.117 238.945 281.548 239.755 280.919C240.618 280.25 241.736 280.016 242.786 280.317C245.537 281.106 248.495 282.197 251.54 283.388C253.735 284.252 256.271 274.729 255.153 274.08V274.073Z" fill="#C65E2B"/>
<path d="M226.565 275.451C227.737 277.118 227.455 277.399 229.329 278.456C230.46 277.847 231.457 277.787 232.615 276.81C231.323 275.498 232.401 275.05 230.233 273.825C228.72 274.601 227.402 274.729 226.565 275.451Z" fill="#C65E2B"/>
<path d="M225.977 266.973C221.761 268.612 220.021 271.53 218.06 274.454C217.685 275.01 217.645 275.739 217.993 276.315C218.876 277.754 219.586 278.69 220.971 279.54C223.112 280.865 224.029 282.572 228.453 281.079L226.445 270.941" fill="#DE9354"/>
<path d="M225.977 266.973C221.761 268.612 220.021 271.53 218.06 274.454C217.685 275.01 217.645 275.739 217.993 276.315C218.876 277.754 219.586 278.69 220.971 279.54C223.112 280.865 224.029 282.572 228.453 281.079L226.445 270.941" stroke="#C65E2B" stroke-width="1.14" stroke-linecap="round" stroke-linejoin="round"/>
<path d="M226.545 269.067C224.518 270.526 222.624 272.132 221.232 274.628C220.87 275.271 220.911 276.061 221.305 276.683C222.59 278.711 223.741 279.915 224.866 280.584C228.606 282.813 228.56 283.214 234.669 279.621C235.258 279.059 235.138 278.443 233.88 277.573C232.421 276.569 230.253 276.904 228.974 277.981C229.182 276.589 227.683 276.569 227.04 275.565C228.727 275.619 229.583 274.802 231.082 274.173C231.631 276.054 231.464 276.415 233.103 276.997C233.94 277.714 234.977 278.276 234.977 278.751" fill="#DE9354"/>
<path d="M226.545 269.067C224.518 270.526 222.624 272.132 221.232 274.628C220.87 275.271 220.911 276.061 221.305 276.683C222.59 278.711 223.741 279.915 224.866 280.584C228.606 282.813 228.56 283.214 234.669 279.621C235.258 279.059 235.138 278.443 233.88 277.573C232.421 276.569 230.253 276.904 228.974 277.981C229.182 276.589 227.683 276.569 227.04 275.565C228.727 275.619 229.583 274.802 231.082 274.173C231.631 276.054 231.464 276.415 233.103 276.997C233.94 277.714 234.977 278.276 234.977 278.751" stroke="#C65E2B" stroke-linecap="round" stroke-linejoin="round"/>
<path d="M286.346 234.911C290.194 245.451 288.902 254.525 282.518 278.483C281.762 281.314 252.397 270.941 250.396 270.941C255.074 273.591 251.541 288.106 249.205 289.404C270.626 294.932 280.705 308.176 289.812 306.195C299.215 304.147 322.998 242.239 304.401 215.404" fill="white"/>
<path d="M286.346 234.911C290.194 245.451 288.902 254.525 282.518 278.483C281.762 281.314 252.397 270.941 250.396 270.941C255.074 273.591 251.541 288.106 249.205 289.404C270.626 294.932 280.705 308.176 289.812 306.195C299.215 304.147 322.998 242.239 304.401 215.404" stroke="#DEDEDE" stroke-width="1.5" stroke-linecap="round" stroke-linejoin="round"/>
<path d="M252.37 280.116C252.39 282.893 250.155 288.782 249.386 289.15C248.67 289.492 248.743 289.552 249.513 289.753C270.934 295.28 281.588 308.524 290.615 306.195C300.152 303.739 326.552 239.87 302.3 212.232C311.046 225.763 308.517 227.972 309.072 236.216C310.069 251.039 306.884 272.193 292.75 289.284C284.385 299.402 266.919 285.918 252.37 280.109V280.116Z" fill="#DEDEDE"/>
<path d="M171.068 219.379L182.143 280.243C182.203 280.591 182.418 280.886 182.719 281.06L211.334 291.673C212.251 292.195 213.355 291.419 213.181 290.382L203.324 221.982C203.15 220.932 202.266 220.142 201.195 220.088L171.784 218.556C171.336 218.529 170.981 218.937 171.061 219.379H171.068Z" fill="black"/>
<path d="M171.068 219.379L182.143 280.243C182.203 280.591 182.418 280.886 182.719 281.06L208.992 290.134C209.909 290.656 211.495 292.429 210.839 289.378L200.981 221.982C200.807 220.932 199.924 220.142 198.853 220.088L171.784 218.556C171.336 218.529 170.981 218.937 171.061 219.379H171.068Z" fill="white"/>
<path d="M176.703 250.323L182.143 280.243C182.204 280.591 182.418 280.885 182.719 281.059L208.992 290.134C209.909 290.656 211.495 292.429 210.839 289.378L209.36 279.279L176.689 250.323H176.703Z" fill="#DEDEDE"/>
<path d="M171.068 219.379L182.143 280.243C182.203 280.591 182.418 280.886 182.719 281.06L208.992 290.134C209.909 290.656 211.495 292.429 210.839 289.378L200.981 221.982C200.807 220.932 199.924 220.142 198.853 220.088L171.784 218.556C171.336 218.529 170.981 218.937 171.061 219.379H171.068Z" stroke="black" stroke-miterlimit="10"/>
<path d="M178.697 262.375C180.598 261.954 182.625 261.204 183.569 262.248C185.014 263.841 182.906 264.336 181.561 265.112C179.801 265.48 178.804 266.424 177.847 266.13C176.89 265.835 176.241 265.621 175.86 264.523C175.478 263.426 176.556 261.646 176.977 260.983C177.901 261.847 178.697 262.375 178.697 262.375Z" fill="#DE9354" stroke="#C65E2B" stroke-width="0.66" stroke-miterlimit="10"/>
<path d="M179.487 258.266C182.444 258.414 183.943 258.407 184.405 259.899C185.115 262.195 181.822 262.061 179.339 262.496C176.622 262.335 176.375 262.911 175.297 262.255C174.22 261.599 173.497 261.151 173.852 259.772C174.207 258.394 177.124 256.721 178.235 256.105C178.817 257.397 179.487 258.26 179.487 258.26V258.266Z" fill="#DE9354" stroke="#C65E2B" stroke-width="0.89" stroke-miterlimit="10"/>
<path d="M177.057 254.486C179.948 254.874 183.274 254.934 183.723 256.587C184.412 259.116 181.186 258.722 178.764 259.003C176.1 258.621 174.012 259.264 172.955 258.474C171.898 257.684 171.195 257.142 171.543 255.683C171.891 254.225 174.749 252.639 175.839 252.063C176.408 253.502 177.057 254.486 177.057 254.486Z" fill="#DE9354" stroke="#C65E2B" stroke-width="0.91" stroke-miterlimit="10"/>
<path d="M176.382 250.871C179.005 251.106 181.281 252.203 181.729 253.187C182.947 255.87 179.507 255.047 177.473 254.893C175.278 253.963 173.504 254.271 172.668 253.2C171.831 252.129 171.684 252.431 172.052 250.891C172.42 249.352 174.662 248.998 175.599 248.569C175.994 250.262 176.382 250.871 176.382 250.871Z" fill="#DE9354" stroke="#C65E2B" stroke-width="0.88" stroke-miterlimit="10"/>
<path d="M227.61 160.904C232.368 166.451 256.178 142.655 241.991 144.14C227.663 145.646 221.848 153.415 220.59 161.934C219.338 170.453 218.04 178.45 223.755 191.634C228.446 202.461 227.804 215.932 225.16 219.807C247.472 221.701 251.099 207.982 251.099 207.982L227.61 160.904Z" fill="#94461F"/>
<path d="M228.312 159.847C221.406 172.869 225.789 183.322 228.312 190.423C232.26 201.538 233.511 211.021 230.38 218.569C248.334 219.272 251.105 207.983 251.105 207.983C251.105 207.983 226.759 171.283 228.312 159.847Z" fill="black"/>
<path d="M229.363 156.681C230.226 155.322 231.391 154.178 232.595 153.107C234.469 151.441 236.644 149.842 239.147 149.741C244.956 149.507 250.47 149.587 255.616 152.291C261.117 155.182 266.424 158.588 270.7 163.099C273.035 165.561 275.083 168.425 275.926 171.711C276.676 174.642 275.337 178.149 275.351 181.181C275.391 194.645 276.93 200.721 284.291 204.69C281.815 209.28 275.532 216.013 270.84 218.208C260.528 223.033 252.23 223.14 255.609 216.695C257.557 212.981 255.71 208.551 255.79 206.209C253.93 208.163 250.423 209.863 248.348 209.742C246.274 209.622 243.51 208.939 243.055 206.905C242.212 203.137 239.756 202.461 237.601 197.576C237.28 196.84 236.222 195.294 235.018 195.261C234.697 195.187 234.081 194.899 233.8 194.685C231.94 193.266 233.245 191.326 233.191 191.185C231.264 185.831 232.087 186.809 231.244 184.667C230.896 183.79 230.722 183.697 230.307 183.115C227.095 178.611 228.547 157.959 229.363 156.674V156.681Z" fill="#DE9354" stroke="#C65E2B" stroke-width="0.97" stroke-miterlimit="10"/>
<path d="M265.507 188.957C265.694 187.505 266.337 186.869 264.496 182.258C260.869 173.197 267.729 160.007 270.693 163.139C273.029 165.602 275.076 168.466 275.92 171.752C276.669 174.683 275.331 178.189 275.344 181.221C275.384 194.685 277.726 199.738 284.419 204.536C281.942 209.127 272.54 220.416 261.646 221.373C276.917 212.486 269.382 203.9 269.074 196.653C268.906 192.591 267.066 190.336 265.507 188.957Z" fill="#C65E2B"/>
<path d="M247.478 179.662C243.456 182.111 240.598 181.87 240.043 181.328" stroke="black" stroke-width="1.45" stroke-linecap="round" stroke-linejoin="round"/>
<path d="M233.76 182.713C232.85 183.095 231.812 183.168 230.855 182.928L233.76 182.713Z" fill="white"/>
<path d="M233.76 182.713C232.85 183.095 231.812 183.168 230.855 182.928" stroke="black" stroke-width="1.45" stroke-linecap="round" stroke-linejoin="round"/>
<path d="M230.795 178.625C233.465 179.32 234.609 181.897 234.837 183.623C235.118 185.752 232.689 192.571 232.669 193.34C232.655 194.103 233.472 194.746 234.054 195.241C235.105 196.144 237.454 195.562 238.725 195.013" stroke="#C65E2B" stroke-width="1.45" stroke-linecap="round" stroke-linejoin="round"/>
<path d="M265.64 185.417C265.955 188.341 264.83 193.039 264.248 194.793C262.743 199.316 258.928 204.877 249.813 209.595" stroke="#C65E2B" stroke-width="1.45" stroke-linecap="round" stroke-linejoin="round"/>
<path d="M243.228 173.592C241.127 174.194 239.059 174.89 237.038 175.753C236.389 176.034 235.599 176.61 235.854 177.293C236.088 177.928 236.964 177.881 237.587 177.674C240.023 176.851 242.231 175.298 244.754 174.87C246.869 174.509 249.037 174.964 251.098 175.573C251.098 175.573 246.507 172.655 243.228 173.599V173.592Z" fill="black" stroke="black" stroke-width="0.97" stroke-miterlimit="10"/>
<path d="M227.777 177.882C228.038 177.487 228.587 177.44 229.062 177.433H229.564C229.691 177.427 230.012 177.587 230.025 177.647C230.4 177.761 231.712 178.691 231.531 179.046C231.35 179.394 229.785 179.173 229.403 179.267C228.955 179.367 228.459 179.354 228.085 179.093C227.71 178.832 227.529 178.277 227.777 177.888V177.882Z" fill="black" stroke="black" stroke-width="0.97" stroke-miterlimit="10"/>
<path d="M244.755 181.415C244.755 181.415 245.109 183.322 243.557 183.322C241.997 183.322 242.185 181.663 242.185 181.663" fill="black"/>
<path d="M233.432 183.068C233.432 183.068 233.753 184.815 232.415 184.962C232.395 184.908 232.381 184.855 232.361 184.808C232.147 184.259 231.853 183.75 231.538 183.255L233.439 183.068H233.432Z" fill="black"/>
<path d="M238.297 198.821C238.049 198.821 237.935 199.109 238.109 199.283C238.343 199.517 238.584 199.812 238.711 200.146C239.18 201.337 240.947 202.776 242.72 202.395C244.621 201.98 245.932 201.123 247.097 199.363C248.261 197.61 249.606 195.703 249.606 195.703C249.606 195.703 243.122 198.868 238.297 198.814V198.821Z" fill="#EE0000"/>
<path d="M249.813 195.508C249.813 195.508 249.211 196.017 248.729 196.425C248.482 196.639 246.748 197.864 246.467 198.031C245.33 198.694 243.141 199.423 240.812 199.677C237.895 199.999 238.075 198.908 238.075 198.908C238.075 198.908 238.343 197.817 238.845 197.536C239.347 197.255 239.36 197.924 240.043 197.904C240.732 197.884 240.96 196.653 241.957 196.586C242.686 196.532 246.581 196.78 249.813 195.508Z" fill="#BE0000"/>
<path d="M286.379 172.401C285.455 148.283 255.12 131.379 242.753 138.485C240.177 139.964 238.022 141.45 236.215 142.909C235.318 143.351 234.596 143.792 234.107 144.2C232.762 145.318 231.905 146.877 230.882 148.303C230.761 148.463 230.206 149.186 230.032 149.38C226.043 153.857 225.722 160.85 228.319 163.768C233.873 168.887 247.913 175.767 258.533 174.883C258.747 175.332 258.988 175.76 259.336 176.115C259.892 176.69 260.802 177.018 261.511 176.657C261.538 175.887 261.585 175.084 261.725 174.321C262.542 174.087 263.338 173.786 264.101 173.405C267.26 181.315 273.771 202.642 268.35 212.399C280.476 201.217 286.968 187.719 286.379 172.401Z" fill="#94461F"/>
<path d="M286.379 172.401C285.77 156.414 272.232 143.592 259.57 138.84C280.931 155.959 261.524 167.308 265.647 185.417C271.85 188.803 278.054 198.875 272.633 208.625C283.013 197.503 286.974 187.719 286.385 172.401H286.379Z" fill="black"/>
<path d="M261.879 179.949C261.658 178.524 261.712 175.472 261.973 174.054C262.234 172.635 263.004 171.263 264.188 170.754C264.837 170.473 265.56 170.473 266.249 170.56C267.092 170.667 267.962 170.908 268.618 171.524C269.776 172.615 269.977 174.542 269.963 176.269C269.943 178.156 269.776 180.043 269.455 181.89C269.12 183.817 268.397 184.493 266.771 185.082C265.848 185.417 264.817 185.142 263.981 184.573" fill="#DE9354"/>
<path d="M261.879 179.949C261.658 178.524 261.712 175.472 261.973 174.054C262.234 172.635 263.004 171.263 264.188 170.754C264.837 170.473 265.56 170.473 266.249 170.56C267.092 170.667 267.962 170.908 268.618 171.524C269.776 172.615 269.977 174.542 269.963 176.269C269.943 178.156 269.776 180.043 269.455 181.89C269.12 183.817 268.397 184.493 266.771 185.082C265.848 185.417 264.817 185.142 263.981 184.573" stroke="#C65E2B" stroke-width="0.97" stroke-miterlimit="10"/>
</g>
</g>
<defs>
<clipPath id="clip0_190_10938">
<rect width="392.475" height="480" fill="white" transform="translate(0.762695)"/>
</clipPath>
</defs>
</svg>
