<svg width="495" height="321" viewBox="0 0 495 321" fill="none" xmlns="http://www.w3.org/2000/svg">
  <g clip-path="url(#clip0_152_19242)">
    <mask id="mask0_152_19242" style="mask-type:luminance" maskUnits="userSpaceOnUse" x="65" y="0" width="388" height="315">
      <path d="M67.4175 108.287C63.0186 92.5096 66.1594 75.8874 72.5006 61.4555C94.013 12.4843 147.071 -9.21178 195.418 4.58647C238.686 16.9383 271.407 49.9944 316.351 54.8755C347.846 58.2963 383.886 45.2511 412.787 63.3197C438.951 79.6756 454.471 108.659 452.423 139.639C450.816 163.962 438.216 185.957 419.881 201.647C401.308 217.543 379.166 228.187 360.776 244.41C347.919 255.751 341.968 271.992 331.136 284.955C318.486 300.089 299.458 310.402 280.039 313.396C259.624 316.542 238.351 311.697 221.017 300.539C205.648 290.649 192.961 275.253 174.598 270.73C161.273 267.447 148.173 270.968 135.215 274.063C126.105 276.24 116.031 275.023 107.228 271.96C89.6279 265.83 74.4383 251.504 68.0466 233.904C63.7809 222.167 63.9278 209.255 69.1027 197.822C72.9368 189.35 77.951 181.296 79.9898 172.122C83.7596 155.187 79.5214 137.927 72.8129 122.305C70.5996 117.154 68.7813 113.168 67.4221 108.287H67.4175Z" fill="white"/>
    </mask>
    <g mask="url(#mask0_152_19242)">
      <path d="M67.4175 108.287C63.0186 92.5095 66.1594 75.8873 72.5006 61.4554C94.013 12.4842 147.397 -5.47873 195.744 8.31952C239.012 20.6714 271.407 49.9944 316.351 54.8754C347.846 58.2963 383.886 45.2511 412.787 63.3197C438.951 79.6755 454.471 108.659 452.423 139.639C450.816 163.962 438.216 185.956 419.881 201.647C401.308 217.543 379.166 228.187 360.776 244.41C347.919 255.751 341.968 271.992 331.136 284.955C318.486 300.089 299.458 310.402 280.039 313.396C259.624 316.542 238.351 311.697 221.017 300.539C205.648 290.649 192.961 275.253 174.598 270.73C161.273 267.447 148.173 270.968 135.215 274.063C126.105 276.24 116.031 275.023 107.228 271.96C89.6279 265.83 74.4383 251.504 68.0466 233.904C63.7809 222.167 63.9278 209.255 69.1027 197.822C72.9368 189.35 77.951 181.296 79.9898 172.121C83.7596 155.187 79.5214 137.927 72.8129 122.305C70.5996 117.153 68.7813 113.168 67.4221 108.287H67.4175Z" fill="#DEDEDE"/>
      <path d="M292.772 180.823C295.075 180.823 296.941 178.956 296.941 176.654C296.941 174.351 295.075 172.484 292.772 172.484C290.469 172.484 288.603 174.351 288.603 176.654C288.603 178.956 290.469 180.823 292.772 180.823Z" fill="white"/>
      <path d="M305.285 180.823C307.587 180.823 309.454 178.956 309.454 176.654C309.454 174.351 307.587 172.484 305.285 172.484C302.982 172.484 301.115 174.351 301.115 176.654C301.115 178.956 302.982 180.823 305.285 180.823Z" fill="white"/>
      <path d="M324.937 114.33H173.666V329.913H324.937V114.33Z" fill="#AAAAAA"/>
      <path d="M340.549 114.33H189.278V329.913H340.549V114.33Z" fill="white" stroke="white" stroke-miterlimit="10"/>
      <path d="M189.219 266.606H340.839" stroke="white" stroke-width="3" stroke-miterlimit="10"/>
      <path d="M312.673 245.305C314.121 245.305 315.295 244.131 315.295 242.683C315.295 241.235 314.121 240.061 312.673 240.061C311.225 240.061 310.051 241.235 310.051 242.683C310.051 244.131 311.225 245.305 312.673 245.305Z" fill="#FF0000" stroke="white" stroke-width="2.23" stroke-miterlimit="10"/>
      <path d="M321.158 245.305C322.607 245.305 323.78 244.131 323.78 242.683C323.78 241.235 322.607 240.061 321.158 240.061C319.71 240.061 318.537 241.235 318.537 242.683C318.537 244.131 319.71 245.305 321.158 245.305Z" fill="#FF0000" stroke="white" stroke-width="2.23" stroke-miterlimit="10"/>
      <path d="M304.348 245.305C305.796 245.305 306.97 244.131 306.97 242.683C306.97 241.235 305.796 240.061 304.348 240.061C302.9 240.061 301.726 241.235 301.726 242.683C301.726 244.131 302.9 245.305 304.348 245.305Z" fill="#FF0000" stroke="white" stroke-width="2.23" stroke-miterlimit="10"/>
      <path d="M189.388 216.391H335.76" stroke="white" stroke-width="3" stroke-miterlimit="10"/>
      <path d="M189.388 159.338H340.017" stroke="white" stroke-width="3" stroke-miterlimit="10"/>
    </g>
    <path d="M257.54 120.928C251.446 120.928 245.574 121.847 240.036 123.55C227.45 99.8843 203.224 83.3585 174.994 81.6182C173.359 81.5172 171.71 81.4575 170.053 81.4575C136.313 81.4575 107.513 102.561 96.0933 132.279C74.5258 132.995 56.1725 146.385 48.2517 165.248C45.2349 164.477 42.0758 164.063 38.8157 164.063C17.868 164.063 0.887695 181.044 0.887695 201.991C0.887695 222.939 17.868 239.919 38.8157 239.919H257.544C290.403 239.919 317.035 213.282 317.035 180.428C317.035 147.574 290.398 120.938 257.544 120.938L257.54 120.928Z" fill="#AAAAAA"/>
    <path d="M264.427 108.723C258.334 108.723 252.461 109.642 246.924 111.345C234.338 87.6792 210.111 71.1534 181.881 69.4132C180.247 69.3121 178.598 69.2524 176.941 69.2524C143.2 69.2524 114.401 90.3562 102.981 120.074C81.4135 120.79 63.0602 134.18 55.1394 153.043C52.1226 152.272 48.9635 151.858 45.7034 151.858C24.7557 151.858 7.77539 168.839 7.77539 189.786C7.77539 210.734 24.7557 227.714 45.7034 227.714H264.432C297.291 227.714 323.923 201.077 323.923 168.223C323.923 135.369 297.286 108.732 264.432 108.732L264.427 108.723Z" fill="white" stroke="#DEDEDE" stroke-width="3" stroke-linecap="round" stroke-linejoin="round"/>
    <path d="M439.323 38.1571V90.517L393.984 116.695L348.64 90.517V38.1571L393.984 11.9795L439.323 38.1571Z" fill="#FF0000"/>
    <mask id="mask1_152_19242" style="mask-type:luminance" maskUnits="userSpaceOnUse" x="348" y="11" width="92" height="106">
      <path d="M439.323 38.1571V90.517L393.984 116.695L348.64 90.517V38.1571L393.984 11.9795L439.323 38.1571Z" fill="white"/>
    </mask>
    <g mask="url(#mask1_152_19242)">
      <path d="M348.64 38.1572L394.021 64.3578" stroke="white" stroke-width="3.92" stroke-linecap="round" stroke-linejoin="round"/>
      <path d="M394.021 64.3579V125.107" stroke="white" stroke-width="3.92" stroke-linecap="round" stroke-linejoin="round"/>
      <path d="M439.323 38.1572L394.021 64.3578" stroke="white" stroke-width="3.92" stroke-linecap="round" stroke-linejoin="round"/>
    </g>
    <mask id="mask2_152_19242" style="mask-type:luminance" maskUnits="userSpaceOnUse" x="348" y="11" width="92" height="106">
      <path d="M439.323 38.1571V90.517L393.984 116.695L348.64 90.517V38.1571L393.984 11.9795L439.323 38.1571Z" fill="white"/>
    </mask>
    <g mask="url(#mask2_152_19242)">
      <path d="M357.268 -2.87488C354.545 0.0500715 353.315 5.89539 352.139 9.55502C349.664 17.2416 347.63 25.3415 347.529 33.446C347.387 44.6269 354.66 55.1696 361.764 63.3521C368.587 71.2132 377.522 77.031 383.781 85.4109C384.911 86.9262 385.948 88.515 386.848 90.1772C392.322 100.261 393.906 112.085 392.859 123.408C392.808 123.954 392.73 127.338 391.817 127.37L330.338 129.51L325.64 -1.61215C325.64 -1.61215 358.375 -4.06874 357.268 -2.87488Z" fill="black"/>
    </g>
    <path d="M324.938 3.37012H173.667V231.879H324.938V3.37012Z" fill="#AAAAAA"/>
    <path d="M264.427 227.71C297.286 227.71 323.918 201.073 323.918 168.219C323.918 135.365 297.281 108.728 264.427 108.728C258.334 108.728 252.461 109.646 246.924 111.35C234.338 87.6841 210.111 71.1583 181.881 69.418C180.247 69.317 178.598 69.2573 176.94 69.2573C175.843 69.2573 174.755 69.2803 173.671 69.3262V227.714H264.432L264.427 227.71Z" fill="black"/>
    <path d="M264.427 108.723C258.334 108.723 252.461 109.642 246.924 111.345C234.338 87.6792 210.111 71.1534 181.881 69.4132C180.247 69.3121 178.598 69.2524 176.941 69.2524C143.2 69.2524 114.401 90.3562 102.981 120.074C81.4135 120.79 63.0602 134.18 55.1394 153.043C52.1226 152.272 48.9635 151.858 45.7034 151.858C24.7557 151.858 7.77539 168.839 7.77539 189.786C7.77539 210.734 24.7557 227.714 45.7034 227.714H264.432C297.291 227.714 323.923 201.077 323.923 168.223C323.923 135.369 297.286 108.732 264.432 108.732L264.427 108.723Z" stroke="#DEDEDE" stroke-width="3" stroke-linecap="round" stroke-linejoin="round"/>
    <path d="M189.021 245.163L189.279 2.91064H340.554V245.425L189.021 245.163Z" fill="white"/>
    <path d="M189.219 100.1H340.724" stroke="white" stroke-width="3" stroke-miterlimit="10"/>
    <path d="M306.589 73.376H228.63V78.5096H306.589V73.376Z" fill="#FF0000" stroke="white" stroke-width="2.23" stroke-miterlimit="10"/>
    <path d="M248.921 120.96H200.409V126.094H248.921V120.96Z" fill="#FF0000" stroke="white" stroke-width="2.23" stroke-miterlimit="10"/>
    <path d="M248.921 137.739H200.409V142.872H248.921V137.739Z" fill="#FF0000" stroke="white" stroke-width="2.23" stroke-miterlimit="10"/>
    <path d="M326.816 79.8226C328.958 79.8226 330.696 78.0854 330.696 75.9425C330.696 73.7997 328.958 72.0625 326.816 72.0625C324.673 72.0625 322.936 73.7997 322.936 75.9425C322.936 78.0854 324.673 79.8226 326.816 79.8226Z" fill="#FF0000" stroke="white" stroke-width="2.23" stroke-miterlimit="10"/>
    <path d="M271.604 135.888C273.747 135.888 275.484 134.151 275.484 132.008C275.484 129.865 273.747 128.128 271.604 128.128C269.461 128.128 267.724 129.865 267.724 132.008C267.724 134.151 269.461 135.888 271.604 135.888Z" fill="#FF0000" stroke="white" stroke-width="2.23" stroke-miterlimit="10"/>
    <path d="M294.926 135.888C297.069 135.888 298.806 134.151 298.806 132.008C298.806 129.865 297.069 128.128 294.926 128.128C292.783 128.128 291.046 129.865 291.046 132.008C291.046 134.151 292.783 135.888 294.926 135.888Z" fill="#FF0000" stroke="white" stroke-width="2.23" stroke-miterlimit="10"/>
    <path d="M317.976 135.888C320.119 135.888 321.857 134.151 321.857 132.008C321.857 129.865 320.119 128.128 317.976 128.128C315.834 128.128 314.096 129.865 314.096 132.008C314.096 134.151 315.834 135.888 317.976 135.888Z" fill="#FF0000" stroke="white" stroke-width="2.23" stroke-miterlimit="10"/>
    <path d="M207.026 79.8226C209.169 79.8226 210.906 78.0854 210.906 75.9425C210.906 73.7997 209.169 72.0625 207.026 72.0625C204.883 72.0625 203.146 73.7997 203.146 75.9425C203.146 78.0854 204.883 79.8226 207.026 79.8226Z" fill="#FF0000" stroke="white" stroke-width="2.23" stroke-miterlimit="10"/>
    <path d="M330.498 15.561H198.678V42.0601H330.498V15.561Z" fill="white"/>
    <path d="M329.988 16.0752V41.5503H199.192V16.0752H329.988ZM331.012 15.0513H198.164V42.5789H331.012V15.0513Z" fill="#EE0000"/>
    <path d="M312.673 31.4347C314.121 31.4347 315.295 30.2608 315.295 28.8128C315.295 27.3648 314.121 26.1909 312.673 26.1909C311.225 26.1909 310.051 27.3648 310.051 28.8128C310.051 30.2608 311.225 31.4347 312.673 31.4347Z" fill="#FF0000" stroke="white" stroke-width="2.23" stroke-miterlimit="10"/>
    <path d="M304.348 31.4347C305.796 31.4347 306.97 30.2608 306.97 28.8128C306.97 27.3648 305.796 26.1909 304.348 26.1909C302.9 26.1909 301.726 27.3648 301.726 28.8128C301.726 30.2608 302.9 31.4347 304.348 31.4347Z" fill="#FF0000" stroke="white" stroke-width="2.23" stroke-miterlimit="10"/>
    <path d="M321.54 31.4347C322.988 31.4347 324.162 30.2608 324.162 28.8128C324.162 27.3648 322.988 26.1909 321.54 26.1909C320.092 26.1909 318.918 27.3648 318.918 28.8128C318.918 30.2608 320.092 31.4347 321.54 31.4347Z" fill="#FF0000" stroke="white" stroke-width="2.23" stroke-miterlimit="10"/>
    <path d="M208.472 28.813H292.658" stroke="#EE0000" stroke-width="2.23" stroke-miterlimit="10"/>
    <path d="M214.29 190.328C216.433 190.328 218.17 188.591 218.17 186.448C218.17 184.305 216.433 182.568 214.29 182.568C212.147 182.568 210.41 184.305 210.41 186.448C210.41 188.591 212.147 190.328 214.29 190.328Z" fill="#FF0000" stroke="white" stroke-width="2.23" stroke-miterlimit="10"/>
    <path d="M237.611 190.328C239.754 190.328 241.492 188.591 241.492 186.448C241.492 184.305 239.754 182.568 237.611 182.568C235.469 182.568 233.731 184.305 233.731 186.448C233.731 188.591 235.469 190.328 237.611 190.328Z" fill="#FF0000" stroke="white" stroke-width="2.23" stroke-miterlimit="10"/>
    <path d="M326.751 170.396H255.818V201.982H326.751V170.396Z" fill="white"/>
    <path d="M326.058 171.084V201.293H256.506V171.084H326.058ZM327.435 169.707H255.129V202.671H327.435V169.707Z" fill="#EE0000"/>
    <path d="M269.813 186.191H313.123" stroke="#EE0000" stroke-width="3" stroke-miterlimit="10"/>
    <path d="M204.877 285.929C207.02 285.929 208.757 284.191 208.757 282.048C208.757 279.906 207.02 278.168 204.877 278.168C202.734 278.168 200.997 279.906 200.997 282.048C200.997 284.191 202.734 285.929 204.877 285.929Z" fill="#FF0000" stroke="white" stroke-width="2.23" stroke-miterlimit="10"/>
    <path d="M228.198 285.929C230.341 285.929 232.078 284.191 232.078 282.048C232.078 279.906 230.341 278.168 228.198 278.168C226.056 278.168 224.318 279.906 224.318 282.048C224.318 284.191 226.056 285.929 228.198 285.929Z" fill="#FF0000" stroke="white" stroke-width="2.23" stroke-miterlimit="10"/>
    <path d="M330.324 229.611H198.852V255.761H330.324V229.611Z" fill="white"/>
    <path d="M329.635 230.299V255.072H199.541V230.299H329.635ZM331.012 228.922H198.164V256.449H331.012V228.922Z" fill="#EE0000"/>
    <path d="M208.472 242.684H292.658" stroke="#EE0000" stroke-width="3" stroke-miterlimit="10"/>
    <path d="M458.012 259.604C455.399 259.604 452.86 259.935 450.44 260.555C444.08 245.411 429.345 234.666 412.034 234.088C402.864 210.229 379.745 193.29 352.658 193.29C345.229 193.29 338.102 194.571 331.472 196.913C323.454 199.746 316.172 204.14 309.996 209.733C309.633 210.064 309.275 210.394 308.917 210.734C307.14 212.419 305.459 214.206 303.884 216.088C303.499 216.547 303.127 217.011 302.755 217.484C302.213 218.168 301.68 218.866 301.171 219.573C300.592 220.368 300.032 221.176 299.495 221.998C298.411 223.642 297.405 225.341 296.478 227.085C292.033 225.722 287.317 224.982 282.427 224.982C272.536 224.982 263.348 227.99 255.721 233.137C255.405 233.353 255.088 233.569 254.775 233.794C249.78 237.343 245.5 241.834 242.185 247C237.423 254.429 234.659 263.264 234.659 272.741C234.659 273.334 234.668 273.921 234.691 274.505C234.7 274.697 234.714 274.886 234.723 275.079C234.742 275.469 234.76 275.864 234.788 276.249C234.806 276.479 234.829 276.709 234.852 276.943C234.884 277.287 234.907 277.636 234.948 277.981C234.976 278.224 235.008 278.467 235.04 278.706C235.081 279.037 235.118 279.363 235.164 279.689C235.201 279.937 235.247 280.18 235.283 280.428C235.334 280.745 235.384 281.066 235.44 281.383C235.485 281.631 235.541 281.879 235.586 282.122C235.646 282.435 235.706 282.742 235.775 283.054C235.83 283.302 235.894 283.55 235.949 283.798C236.023 284.101 236.092 284.404 236.17 284.707C236.234 284.955 236.303 285.199 236.372 285.442C236.454 285.741 236.532 286.039 236.62 286.333C236.693 286.576 236.771 286.815 236.849 287.058C236.941 287.352 237.028 287.646 237.129 287.935C237.212 288.174 237.299 288.413 237.382 288.652C237.483 288.941 237.584 289.23 237.69 289.515C237.777 289.749 237.873 289.983 237.965 290.213C238.075 290.498 238.185 290.782 238.305 291.067C238.401 291.297 238.502 291.526 238.603 291.756C238.727 292.036 238.847 292.316 238.971 292.596C239.076 292.821 239.182 293.046 239.292 293.267C239.425 293.542 239.554 293.818 239.692 294.093C239.802 294.313 239.917 294.529 240.031 294.75C240.174 295.021 240.311 295.291 240.458 295.562C240.578 295.778 240.697 295.989 240.821 296.201C240.973 296.467 241.12 296.733 241.276 297C241.4 297.211 241.528 297.417 241.657 297.624C241.817 297.886 241.974 298.148 242.139 298.405C242.268 298.611 242.405 298.809 242.538 299.011C242.708 299.268 242.874 299.525 243.048 299.778C243.186 299.975 243.328 300.173 243.466 300.365C243.645 300.618 243.82 300.87 244.003 301.114C244.146 301.307 244.292 301.495 244.439 301.688C244.628 301.931 244.811 302.179 245.004 302.418C245.151 302.606 245.307 302.79 245.459 302.973C245.656 303.212 245.849 303.451 246.051 303.685C246.207 303.864 246.363 304.043 246.519 304.222C246.726 304.457 246.928 304.691 247.139 304.92C247.3 305.095 247.461 305.265 247.626 305.439C247.837 305.664 248.053 305.894 248.269 306.114C248.434 306.284 248.604 306.449 248.769 306.615C248.99 306.835 249.21 307.056 249.435 307.271C249.605 307.432 249.78 307.593 249.95 307.749C250.179 307.96 250.409 308.176 250.643 308.383C250.817 308.539 250.996 308.69 251.176 308.846C251.414 309.053 251.648 309.255 251.892 309.457C252.071 309.609 252.255 309.751 252.438 309.902C252.682 310.1 252.925 310.297 253.173 310.49C253.357 310.633 253.545 310.775 253.733 310.913C253.986 311.101 254.234 311.289 254.491 311.473C254.679 311.611 254.872 311.744 255.065 311.877C255.322 312.056 255.579 312.24 255.841 312.414C256.034 312.543 256.236 312.671 256.429 312.8C256.69 312.97 256.957 313.144 257.223 313.31C257.425 313.434 257.627 313.553 257.829 313.677C258.1 313.838 258.366 314.003 258.642 314.159C258.848 314.278 259.055 314.393 259.262 314.508C259.537 314.66 259.813 314.811 260.088 314.958C260.299 315.068 260.511 315.178 260.722 315.284C260.915 315.38 261.103 315.486 261.296 315.578C261.401 315.628 261.507 315.679 261.608 315.729C261.663 315.757 261.718 315.785 261.773 315.812C261.773 315.812 261.778 315.812 261.782 315.812C268.032 318.81 275.03 320.496 282.418 320.496H458.012C474.827 320.496 488.459 306.863 488.459 290.048C488.459 273.233 474.827 259.6 458.012 259.6V259.604Z" fill="#AAAAAA"/>
    <path d="M287.382 217.222C292.272 217.222 296.988 217.961 301.433 219.325C312.122 199.227 333.267 185.534 357.617 185.534C384.704 185.534 407.824 202.473 416.993 226.332C434.304 226.911 449.039 237.655 455.399 252.799C457.819 252.179 460.358 251.848 462.971 251.848C479.786 251.848 493.419 265.481 493.419 282.296C493.419 299.111 479.786 312.744 462.971 312.744C454.646 312.744 299.825 312.744 287.377 312.744C260.997 312.744 239.618 291.361 239.618 264.985C239.618 238.606 261.002 217.227 287.377 217.227L287.382 217.222Z" fill="white" stroke="#DEDEDE" stroke-width="3" stroke-linecap="round" stroke-linejoin="round"/>
    <path d="M367.136 254.053C367.136 248.271 362.448 243.588 356.671 243.588C350.895 243.588 346.207 248.276 346.207 254.053C346.207 258.125 348.539 261.647 351.937 263.378V273.742C351.937 276.346 354.068 278.476 356.671 278.476C359.275 278.476 361.405 276.346 361.405 273.742V263.378C364.803 261.647 367.136 258.125 367.136 254.053Z" fill="#DEDEDE"/>
    <path d="M417.737 209.366V146.619" stroke="#FF0000" stroke-width="3" stroke-linecap="round" stroke-linejoin="round"/>
    <path d="M370.392 147.538V185.236" stroke="#FF0000" stroke-width="3" stroke-linecap="round" stroke-linejoin="round"/>
    <path d="M394.062 128.05V171.947" stroke="#FF0000" stroke-width="3" stroke-linecap="round" stroke-linejoin="round"/>
    <path d="M394.062 185.075V214.541" stroke="#FF0000" stroke-width="3" stroke-linecap="round" stroke-linejoin="round"/>
    <path d="M166.861 100.996V153.355L121.518 179.533L76.1787 153.355V100.996L121.518 74.8179L166.861 100.996Z" fill="#FF0000"/>
    <mask id="mask3_152_19242" style="mask-type:luminance" maskUnits="userSpaceOnUse" x="76" y="74" width="91" height="106">
      <path d="M166.861 100.996V153.355L121.518 179.533L76.1787 153.355V100.996L121.518 74.8179L166.861 100.996Z" fill="white"/>
    </mask>
    <g mask="url(#mask3_152_19242)">
      <path d="M76.1787 100.996L121.559 127.196" stroke="white" stroke-width="3.92" stroke-linecap="round" stroke-linejoin="round"/>
      <path d="M121.559 127.196V187.945" stroke="white" stroke-width="3.92" stroke-linecap="round" stroke-linejoin="round"/>
      <path d="M166.861 100.996L121.559 127.196" stroke="white" stroke-width="3.92" stroke-linecap="round" stroke-linejoin="round"/>
    </g>
    <mask id="mask4_152_19242" style="mask-type:luminance" maskUnits="userSpaceOnUse" x="76" y="74" width="91" height="106">
      <path d="M166.861 100.996V153.355L121.518 179.533L76.1787 153.355V100.996L121.518 74.8179L166.861 100.996Z" fill="white"/>
    </mask>
    <g mask="url(#mask4_152_19242)">
      <path d="M84.8019 59.9635C82.079 62.8885 80.8484 68.7338 79.6729 72.3934C77.1979 80.08 75.1638 88.1799 75.0628 96.2843C74.9204 107.465 82.1938 118.008 89.2972 126.191C96.4007 134.373 105.056 139.869 111.315 148.249C112.444 149.765 113.482 151.353 114.382 153.016C119.855 163.099 121.44 174.923 120.393 186.246C120.342 186.793 120.264 190.177 119.35 190.209L57.8712 192.349L53.1738 61.2262C53.1738 61.2262 85.9085 58.7696 84.8019 59.9635Z" fill="black"/>
    </g>
    <path d="M120.108 226.305V195.512" stroke="#FF0000" stroke-width="3" stroke-linecap="round" stroke-linejoin="round"/>
    <path d="M99.978 209.494V261.983" stroke="#FF0000" stroke-width="3" stroke-linecap="round" stroke-linejoin="round"/>
    <path d="M140.234 261.197V216.331" stroke="#FF0000" stroke-width="3" stroke-linecap="round" stroke-linejoin="round"/>
    <path d="M120.108 291.113V243.129" stroke="#FF0000" stroke-width="3" stroke-linecap="round" stroke-linejoin="round"/>
  </g>
  <defs>
    <clipPath id="clip0_152_19242">
      <rect width="493.224" height="320" fill="white" transform="translate(0.887695 0.5)"/>
    </clipPath>
  </defs>
</svg>
