<svg width="378" height="321" viewBox="0 0 378 321" fill="none" xmlns="http://www.w3.org/2000/svg">
  <path d="M6.80622 133.786C-21.4278 65.4283 47.3154 -13.2612 116.584 2.54956C129.96 5.60246 142.722 12.1275 151.868 22.7258C166.688 39.8915 167.725 62.4601 181.685 80.1847C196.344 98.7985 218.93 96.5671 240.398 98.2735C286.835 101.974 326.772 109.202 351.424 155.444C367.087 184.826 365.812 221.774 354.168 252.316C346.745 271.785 334.623 289.92 317.817 302.136C274.085 333.923 204.14 323.13 168.165 279.762C144.822 251.621 136.713 219.687 105.723 198.638C86.2536 185.415 56.8086 183.162 37.2336 170.087C22.4264 160.2 12.5225 147.615 6.81045 133.778" fill="#DEDEDE"/>
  <path d="M186.728 32.7861H80.4653V141.683H186.728V32.7861Z" fill="black"/>
  <path d="M218.892 173.33H326.721V284.509H218.892V173.33Z" fill="black"/>
  <path d="M214.153 168.592H321.983V279.771H214.153V168.592Z" fill="white"/>
  <path d="M214.154 168.592V169.227H321.348V279.136H214.789V168.592H214.154V169.227V168.592H213.519V280.406H322.619V167.957H213.519V168.592H214.154Z" fill="black"/>
  <path d="M257.483 236.577H121.605V245.571H257.483V236.577Z" fill="#EE0000"/>
  <path d="M257.482 245.571V245.147H122.028V237.001H257.059V245.571H257.482H257.906V236.577C257.906 236.467 257.859 236.357 257.783 236.277C257.707 236.196 257.597 236.154 257.482 236.154H121.605C121.495 236.154 121.385 236.2 121.304 236.277C121.224 236.353 121.182 236.463 121.182 236.577V245.571C121.182 245.681 121.228 245.791 121.304 245.871C121.381 245.952 121.491 245.994 121.605 245.994H257.482C257.593 245.994 257.703 245.948 257.783 245.871C257.864 245.795 257.906 245.685 257.906 245.571H257.482Z" fill="#EE0000"/>
  <path d="M369.25 57.2559H260.26V66.2494H369.25V57.2559Z" fill="#EE0000"/>
  <path d="M369.255 66.2539V65.8305H260.688V57.6838H368.831V66.2539H369.255H369.678V57.2603C369.678 57.1502 369.631 57.0402 369.555 56.9597C369.479 56.8793 369.369 56.8369 369.255 56.8369H260.265C260.155 56.8369 260.045 56.8835 259.964 56.9597C259.884 57.0359 259.841 57.146 259.841 57.2603V66.2539C259.841 66.364 259.888 66.4741 259.964 66.5545C260.045 66.635 260.15 66.6773 260.265 66.6773H369.255C369.365 66.6773 369.475 66.6308 369.555 66.5545C369.636 66.4741 369.678 66.3682 369.678 66.2539H369.255Z" fill="#EE0000"/>
  <path d="M245.547 57.2559H206.27V66.2494H245.547V57.2559Z" fill="#EE0000"/>
  <path d="M245.546 66.2539V65.8305H206.693V57.6838H245.123V66.2539H245.546H245.97V57.2603C245.97 57.1502 245.923 57.0402 245.847 56.9597C245.771 56.8793 245.66 56.8369 245.546 56.8369H206.269C206.159 56.8369 206.049 56.8835 205.968 56.9597C205.888 57.0359 205.846 57.146 205.846 57.2603V66.2539C205.846 66.364 205.892 66.4741 205.968 66.5545C206.049 66.635 206.155 66.6773 206.269 66.6773H245.546C245.656 66.6773 245.766 66.6308 245.847 66.5545C245.927 66.4741 245.97 66.3682 245.97 66.2539H245.546Z" fill="#EE0000"/>
  <path d="M231.793 220.102H185.441V229.044H231.793V220.102Z" fill="#EE0000"/>
  <path d="M231.793 229.048V228.625H185.864V220.529H231.37V229.048H231.793H232.217V220.106C232.217 219.995 232.17 219.885 232.094 219.805C232.018 219.724 231.908 219.682 231.793 219.682H185.441C185.331 219.682 185.221 219.729 185.14 219.805C185.06 219.881 185.018 219.991 185.018 220.106V229.048C185.018 229.158 185.064 229.268 185.14 229.349C185.217 229.429 185.327 229.472 185.441 229.472H231.793C231.904 229.472 232.014 229.425 232.094 229.349C232.175 229.273 232.217 229.163 232.217 229.048H231.793Z" fill="#EE0000"/>
  <path d="M171.574 220.102H63.8159V229.044H171.574V220.102Z" fill="#EE0000"/>
  <path d="M171.574 229.048V228.625H64.2394V220.529H171.15V229.048H171.574H171.997V220.106C171.997 219.995 171.951 219.885 171.874 219.805C171.794 219.724 171.688 219.682 171.574 219.682H63.816C63.7059 219.682 63.5958 219.729 63.5154 219.805C63.4349 219.885 63.3926 219.991 63.3926 220.106V229.048C63.3926 229.158 63.4392 229.268 63.5154 229.349C63.5916 229.429 63.7017 229.472 63.816 229.472H171.574C171.684 229.472 171.794 229.425 171.874 229.349C171.955 229.268 171.997 229.163 171.997 229.048H171.574Z" fill="#EE0000"/>
  <path d="M275.321 41.1826H199.499V49.4437H275.321V41.1826Z" fill="#EE0000"/>
  <path d="M275.322 49.4437V49.0203H199.922V41.6061H274.898V49.4437H275.322H275.745V41.1827C275.745 41.0726 275.698 40.9625 275.622 40.8821C275.546 40.8016 275.436 40.7593 275.322 40.7593H199.499C199.389 40.7593 199.278 40.8059 199.198 40.8821C199.118 40.9583 199.075 41.0684 199.075 41.1827V49.4437C199.075 49.5538 199.122 49.6639 199.198 49.7444C199.278 49.8248 199.384 49.8672 199.499 49.8672H275.322C275.432 49.8672 275.542 49.8206 275.622 49.7444C275.703 49.6639 275.745 49.5581 275.745 49.4437H275.322Z" fill="#EE0000"/>
  <path d="M329.169 41.1826H289.892V49.4437H329.169V41.1826Z" fill="#EE0000"/>
  <path d="M329.169 49.4437V49.0203H290.315V41.6061H328.745V49.4437H329.169H329.592V41.1827C329.592 41.0726 329.546 40.9625 329.469 40.8821C329.393 40.8016 329.283 40.7593 329.169 40.7593H289.892C289.782 40.7593 289.672 40.8059 289.591 40.8821C289.511 40.9583 289.468 41.0684 289.468 41.1827V49.4437C289.468 49.5538 289.515 49.6639 289.591 49.7444C289.672 49.8248 289.777 49.8672 289.892 49.8672H329.169C329.279 49.8672 329.389 49.8206 329.469 49.7444C329.55 49.6639 329.592 49.5581 329.592 49.4437H329.169Z" fill="#EE0000"/>
  <path d="M18.1498 90.5164H58.8707C59.2221 90.5164 59.5058 90.2327 59.5058 89.8812C59.5058 89.5298 59.2221 89.2461 58.8707 89.2461H18.1498C17.7983 89.2461 17.5146 89.5298 17.5146 89.8812C17.5146 90.2327 17.7983 90.5164 18.1498 90.5164Z" fill="#EE0000"/>
  <path d="M18.1498 102.614H58.8707C59.2221 102.614 59.5058 102.33 59.5058 101.978C59.5058 101.627 59.2221 101.343 58.8707 101.343H18.1498C17.7983 101.343 17.5146 101.627 17.5146 101.978C17.5146 102.33 17.7983 102.614 18.1498 102.614Z" fill="#EE0000"/>
  <path d="M18.1498 114.706H58.8707C59.2221 114.706 59.5058 114.423 59.5058 114.071C59.5058 113.72 59.2221 113.436 58.8707 113.436H18.1498C17.7983 113.436 17.5146 113.72 17.5146 114.071C17.5146 114.423 17.7983 114.706 18.1498 114.706Z" fill="#EE0000"/>
  <path d="M33.7635 92.699C35.3211 91.7363 35.8033 89.6932 34.8406 88.1357C33.8779 86.5781 31.8348 86.0959 30.2772 87.0586C28.7197 88.0213 28.2375 90.0644 29.2002 91.622C30.1629 93.1795 32.206 93.6617 33.7635 92.699Z" fill="white"/>
  <path d="M35.3324 89.8812H35.9675C35.9675 87.7006 34.2019 85.9307 32.017 85.9307C29.8363 85.9307 28.0664 87.6964 28.0664 89.8812C28.0664 92.0619 29.8321 93.8318 32.017 93.8318C34.1976 93.8318 35.9675 92.0661 35.9675 89.8812H34.6973C34.6973 90.6222 34.3966 91.287 33.9139 91.7739C33.427 92.2609 32.7622 92.5573 32.0212 92.5573C31.2802 92.5573 30.6154 92.2567 30.1285 91.7739C29.6416 91.287 29.3452 90.6222 29.3452 89.8812C29.3452 89.1402 29.6458 88.4755 30.1285 87.9885C30.6154 87.5016 31.2802 87.2052 32.0212 87.2052C32.7622 87.2052 33.427 87.5058 33.9139 87.9885C34.4009 88.4755 34.6973 89.1402 34.6973 89.8812H35.3324Z" fill="#EE0000"/>
  <path d="M51.9031 103.722C52.8658 102.165 52.3836 100.122 50.826 99.1589C49.2685 98.1962 47.2254 98.6784 46.2627 100.236C45.3 101.794 45.7822 103.837 47.3397 104.799C48.8973 105.762 50.9404 105.28 51.9031 103.722Z" fill="white"/>
  <path d="M52.392 101.978H53.0271C53.0271 99.7978 51.2614 98.0278 49.0765 98.0278C46.8959 98.0278 45.126 99.7935 45.126 101.978C45.126 104.159 46.8917 105.929 49.0765 105.929C51.2572 105.929 53.0271 104.163 53.0271 101.978H51.7568C51.7568 102.719 51.4562 103.384 50.9735 103.871C50.4866 104.358 49.8218 104.654 49.0808 104.654C48.3398 104.654 47.675 104.354 47.1881 103.871C46.7011 103.384 46.4047 102.719 46.4047 101.978C46.4047 101.237 46.7054 100.573 47.1881 100.086C47.675 99.5987 48.3398 99.3023 49.0808 99.3023C49.8218 99.3023 50.4866 99.603 50.9735 100.086C51.4604 100.573 51.7568 101.237 51.7568 101.978H52.392Z" fill="#EE0000"/>
  <path d="M40.2392 117.135C41.9309 116.434 42.7343 114.495 42.0335 112.803C41.3328 111.111 39.3934 110.308 37.7017 111.009C36.01 111.709 35.2067 113.649 35.9074 115.34C36.6081 117.032 38.5476 117.835 40.2392 117.135Z" fill="white"/>
  <path d="M42.285 114.071H42.9202C42.9202 111.891 41.1545 110.121 38.9696 110.121C36.789 110.121 35.019 111.886 35.019 114.071C35.019 116.252 36.7847 118.022 38.9696 118.022C41.1502 118.022 42.9202 116.256 42.9202 114.071H41.6499C41.6499 114.812 41.3493 115.477 40.8666 115.964C40.3796 116.451 39.7148 116.747 38.9738 116.747C38.2328 116.747 37.5681 116.447 37.0811 115.964C36.5942 115.477 36.2978 114.812 36.2978 114.071C36.2978 113.33 36.5984 112.665 37.0811 112.178C37.5681 111.692 38.2328 111.395 38.9738 111.395C39.7148 111.395 40.3796 111.696 40.8666 112.178C41.3535 112.665 41.6499 113.33 41.6499 114.071H42.285Z" fill="#EE0000"/>
  <path d="M336.337 222.244H377.058C377.41 222.244 377.693 221.96 377.693 221.609C377.693 221.257 377.41 220.974 377.058 220.974H336.337C335.986 220.974 335.702 221.257 335.702 221.609C335.702 221.96 335.986 222.244 336.337 222.244Z" fill="#EE0000"/>
  <path d="M336.337 234.342H377.058C377.41 234.342 377.693 234.058 377.693 233.706C377.693 233.355 377.41 233.071 377.058 233.071H336.337C335.986 233.071 335.702 233.355 335.702 233.706C335.702 234.058 335.986 234.342 336.337 234.342Z" fill="#EE0000"/>
  <path d="M336.337 246.434H377.058C377.41 246.434 377.693 246.151 377.693 245.799C377.693 245.448 377.41 245.164 377.058 245.164H336.337C335.986 245.164 335.702 245.448 335.702 245.799C335.702 246.151 335.986 246.434 336.337 246.434Z" fill="#EE0000"/>
  <path d="M353.27 222.876C353.971 221.185 353.167 219.245 351.476 218.545C349.784 217.844 347.844 218.647 347.144 220.339C346.443 222.03 347.246 223.97 348.938 224.671C350.63 225.371 352.569 224.568 353.27 222.876Z" fill="white"/>
  <path d="M353.52 221.609H354.155C354.155 219.428 352.389 217.658 350.204 217.658C348.024 217.658 346.254 219.424 346.254 221.609C346.254 223.789 348.02 225.559 350.204 225.559C352.385 225.559 354.155 223.794 354.155 221.609H352.885C352.885 222.35 352.584 223.015 352.101 223.501C351.614 223.988 350.95 224.285 350.209 224.285C349.468 224.285 348.803 223.984 348.316 223.501C347.829 223.015 347.533 222.35 347.533 221.609C347.533 220.868 347.833 220.203 348.316 219.716C348.803 219.229 349.468 218.933 350.209 218.933C350.95 218.933 351.614 219.233 352.101 219.716C352.588 220.203 352.885 220.868 352.885 221.609H353.52Z" fill="#EE0000"/>
  <path d="M370.331 234.973C371.032 233.282 370.228 231.342 368.537 230.642C366.845 229.941 364.906 230.744 364.205 232.436C363.504 234.128 364.307 236.067 365.999 236.768C367.691 237.469 369.63 236.665 370.331 234.973Z" fill="white"/>
  <path d="M370.58 233.706H371.215C371.215 231.526 369.449 229.756 367.265 229.756C365.084 229.756 363.314 231.522 363.314 233.706C363.314 235.887 365.08 237.657 367.265 237.657C369.445 237.657 371.215 235.891 371.215 233.706H369.945C369.945 234.447 369.644 235.112 369.161 235.599C368.675 236.086 368.01 236.382 367.269 236.382C366.528 236.382 365.863 236.082 365.376 235.599C364.889 235.112 364.593 234.447 364.593 233.706C364.593 232.965 364.893 232.301 365.376 231.814C365.863 231.327 366.528 231.03 367.269 231.03C368.01 231.03 368.675 231.331 369.161 231.814C369.648 232.301 369.945 232.965 369.945 233.706H370.58Z" fill="#EE0000"/>
  <path d="M357.91 249.045C359.692 248.625 360.796 246.839 360.375 245.057C359.955 243.275 358.169 242.171 356.387 242.592C354.605 243.013 353.501 244.798 353.922 246.58C354.342 248.362 356.128 249.466 357.91 249.045Z" fill="white"/>
  <path d="M360.473 245.799H361.108C361.108 243.619 359.342 241.849 357.157 241.849C354.976 241.849 353.207 243.614 353.207 245.799C353.207 247.98 354.972 249.75 357.157 249.75C359.338 249.75 361.108 247.984 361.108 245.799H359.837C359.837 246.54 359.537 247.205 359.054 247.692C358.567 248.179 357.902 248.475 357.161 248.475C356.42 248.475 355.756 248.175 355.269 247.692C354.782 247.205 354.485 246.54 354.485 245.799C354.485 245.058 354.786 244.393 355.269 243.906C355.756 243.42 356.42 243.123 357.161 243.123C357.902 243.123 358.567 243.424 359.054 243.906C359.541 244.393 359.837 245.058 359.837 245.799H360.473Z" fill="#EE0000"/>
  <path d="M195.781 154.424H150.826V199.379H195.781V154.424Z" fill="white"/>
  <path d="M195.777 199.379V198.744H151.457V155.059H195.142V199.379H195.777H196.412V154.424C196.412 154.254 196.344 154.093 196.226 153.975C196.107 153.856 195.942 153.789 195.777 153.789H150.822C150.652 153.789 150.491 153.856 150.373 153.975C150.254 154.093 150.187 154.259 150.187 154.424V199.379C150.187 199.544 150.254 199.709 150.373 199.828C150.491 199.946 150.657 200.014 150.822 200.014H195.777C195.942 200.014 196.107 199.946 196.226 199.828C196.344 199.709 196.412 199.544 196.412 199.379H195.777Z" fill="#EE0000"/>
  <path d="M244.454 154.424H199.499V199.379H244.454V154.424Z" fill="white"/>
  <path d="M244.56 167.957H213.573V199.519H244.56V167.957Z" fill="#AAAAAA"/>
  <path d="M244.454 105.751H199.499V150.706H244.454V105.751Z" fill="white"/>
  <path d="M244.454 150.706V150.071H200.134V106.386H243.819V150.706H244.454H245.089V105.751C245.089 105.586 245.021 105.421 244.903 105.302C244.784 105.183 244.619 105.116 244.454 105.116H199.499C199.33 105.116 199.169 105.183 199.05 105.302C198.932 105.421 198.864 105.586 198.864 105.751V150.706C198.864 150.871 198.932 151.036 199.05 151.155C199.169 151.273 199.334 151.341 199.499 151.341H244.454C244.619 151.341 244.784 151.273 244.903 151.155C245.021 151.036 245.089 150.871 245.089 150.706H244.454Z" fill="#EE0000"/>
  <path d="M199.499 105.751H244.454V122.553H199.499" fill="#EE0000"/>
  <path d="M199.499 106.386H243.819V121.917H199.499V123.188H245.089V105.116H199.499V106.386Z" fill="#EE0000"/>
  <path d="M227.517 116.553C228.782 116.553 229.808 115.527 229.808 114.262C229.808 112.997 228.782 111.971 227.517 111.971C226.252 111.971 225.226 112.997 225.226 114.262C225.226 115.527 226.252 116.553 227.517 116.553Z" fill="white"/>
  <path d="M236.409 116.553C237.674 116.553 238.7 115.527 238.7 114.262C238.7 112.997 237.674 111.971 236.409 111.971C235.144 111.971 234.118 112.997 234.118 114.262C234.118 115.527 235.144 116.553 236.409 116.553Z" fill="white"/>
  <path d="M202.222 114.897H207.908C208.26 114.897 208.543 114.614 208.543 114.262C208.543 113.911 208.26 113.627 207.908 113.627H202.222C201.87 113.627 201.586 113.911 201.586 114.262C201.586 114.614 201.87 114.897 202.222 114.897Z" fill="white"/>
  <path d="M198.842 114.897H202.221V113.627H198.842" fill="white"/>
  <path d="M195.781 105.751H150.826V150.706H195.781V105.751Z" fill="white"/>
  <path d="M195.777 150.706V150.071H151.457V106.386H195.142V150.706H195.777H196.412V105.751C196.412 105.586 196.344 105.421 196.226 105.302C196.107 105.183 195.942 105.116 195.777 105.116H150.822C150.652 105.116 150.491 105.183 150.373 105.302C150.254 105.421 150.187 105.586 150.187 105.751V150.706C150.187 150.871 150.254 151.036 150.373 151.155C150.491 151.273 150.657 151.341 150.822 151.341H195.777C195.942 151.341 196.107 151.273 196.226 151.155C196.344 151.036 196.412 150.871 196.412 150.706H195.777Z" fill="#EE0000"/>
  <path d="M195.777 122.553H150.826V105.751H195.777" fill="#EE0000"/>
  <path d="M195.777 121.917H151.461V106.386H195.777V105.116H150.191V123.188H195.777V121.917Z" fill="#EE0000"/>
  <path d="M189.84 114.897H196.45V113.627H189.84" fill="white"/>
  <path d="M155.882 114.897H189.84C190.192 114.897 190.476 114.614 190.476 114.262C190.476 113.911 190.192 113.627 189.84 113.627H155.882C155.53 113.627 155.247 113.911 155.247 114.262C155.247 114.614 155.53 114.897 155.882 114.897Z" fill="white"/>
  <path d="M186.753 102.935H150.144V123.226H186.753V102.935Z" fill="black"/>
  <path d="M244.454 199.379V198.744H200.134V155.059H243.819V199.379H244.454H245.089V154.424C245.089 154.254 245.021 154.093 244.903 153.975C244.784 153.856 244.619 153.789 244.454 153.789H199.499C199.33 153.789 199.169 153.856 199.05 153.975C198.932 154.093 198.864 154.259 198.864 154.424V199.379C198.864 199.544 198.932 199.709 199.05 199.828C199.169 199.946 199.334 200.014 199.499 200.014H244.454C244.619 200.014 244.784 199.946 244.903 199.828C245.021 199.709 245.089 199.544 245.089 199.379H244.454Z" fill="#EE0000"/>
  <path d="M186.758 123.226H151.521V141.683H186.758V123.226Z" fill="#AAAAAA"/>
  <path d="M151.516 119.686H150.144V141.687H151.516V119.686Z" fill="black"/>
  <path d="M181.783 27.8408H75.5195V136.738H181.783V27.8408Z" fill="white"/>
  <path d="M75.5194 27.8407V28.4758H181.147V136.102H76.1546V27.8407H75.5194V28.4758V27.8407H74.8843V137.373H182.418V27.2056H74.8843V27.8407H75.5194Z" fill="black"/>
  <path d="M145.245 52.8695C145.245 52.8695 145.808 60.7113 148.438 63.8108L146.842 66.8214C146.842 66.8214 149.115 79.6851 143.145 78.9779C143.145 78.9779 140.27 78.4571 138.678 76.6745L137.95 90.3723C137.95 90.3723 132.576 84.6095 122.44 84.2073L119.154 84.1819L119.624 73.7613L132.767 50.3882L142.701 47.0093L145.25 52.8737L145.245 52.8695Z" fill="#8F0000"/>
  <path d="M102.543 136.737C102.543 136.737 102.187 110.985 110.829 91.0074C110.829 91.0074 114.623 84.9736 116.939 83.3477C116.939 83.3477 117.363 84.4105 122.431 84.1987C127.5 83.987 137.365 88.035 140.317 93.1923C143.268 98.3496 145.521 104.265 147.07 113.275C148.62 122.286 157.067 136.737 157.067 136.737H102.539" fill="black"/>
  <path d="M177.294 62.1847C177.294 62.1847 180.462 53.5511 181.601 52.8651L190.463 48.7579C190.776 48.6139 191.14 48.6266 191.445 48.796L195.989 51.3408L191.644 53.5426C188.617 55.2744 188.528 57.9632 188.528 57.9632C190.124 57.8108 192.487 55.6047 194.007 54.8425C195.527 54.0804 197.052 54.995 195.984 56.5659C194.917 58.1368 191.191 62.0704 189.667 63.0612C188.147 64.0521 182.981 67.7909 182.981 67.7909L177.294 62.1805V62.1847Z" fill="#8F0000"/>
  <path d="M178.069 62.4048C178.069 62.4048 178.116 62.2735 178.205 62.0364C178.514 61.2107 179.306 59.1317 180.136 57.1924C180.551 56.2228 180.978 55.2912 181.355 54.5799C181.541 54.2242 181.719 53.9236 181.863 53.7118C181.935 53.606 181.999 53.5213 182.05 53.4705L182.105 53.4154L182.113 53.407L182.067 53.3435L182.109 53.4112H182.117L182.071 53.3435L182.113 53.4112L181.787 52.865L182.054 53.4408L190.916 49.3336C190.975 49.304 191.039 49.2913 191.102 49.2913C191.179 49.2913 191.251 49.3082 191.318 49.3463L195.862 51.8911C196.167 52.0647 196.556 51.9546 196.726 51.6498C196.899 51.3449 196.789 50.9553 196.484 50.786L191.941 48.2412C191.683 48.0972 191.39 48.021 191.102 48.021C190.857 48.021 190.611 48.0718 190.383 48.1819L181.52 52.2891L181.461 52.3188C181.292 52.4204 181.182 52.539 181.067 52.6702C180.86 52.9158 180.665 53.2249 180.453 53.5933C180.085 54.2411 179.687 55.0795 179.285 55.9814C178.086 58.6829 176.884 61.9559 176.884 61.9644C176.761 62.2947 176.93 62.6588 177.261 62.7774C177.591 62.9002 177.955 62.7308 178.074 62.4005L178.069 62.4048Z" fill="#8F0000"/>
  <path d="M183.531 68.3118C183.531 68.3118 183.853 68.079 184.361 67.7106C185.123 67.1601 186.301 66.3133 187.431 65.513C188.557 64.7127 189.646 63.9548 190.196 63.5949C190.632 63.3069 191.162 62.8666 191.759 62.3204C192.648 61.5031 193.668 60.47 194.57 59.4834C195.023 58.9922 195.442 58.5095 195.806 58.0734C196.171 57.6373 196.471 57.2477 196.691 56.9259C196.988 56.4855 197.157 56.0367 197.157 55.5921C197.157 55.3423 197.102 55.1009 196.996 54.885C196.835 54.5632 196.569 54.3134 196.268 54.1609C195.963 54.0085 195.624 53.9365 195.269 53.9365C194.824 53.9365 194.358 54.0508 193.901 54.2753C193.469 54.4912 193.02 54.7834 192.55 55.1052C191.847 55.5879 191.102 56.1383 190.404 56.566C190.056 56.7819 189.718 56.9683 189.417 57.0995C189.116 57.2308 188.845 57.3112 188.642 57.3282C188.295 57.362 188.037 57.6711 188.07 58.0226C188.104 58.3698 188.413 58.6281 188.765 58.5942C189.294 58.5434 189.802 58.3402 190.31 58.0819C191.073 57.6923 191.843 57.1503 192.567 56.6422C193.287 56.1341 193.969 55.6556 194.468 55.41C194.761 55.2618 195.04 55.2026 195.269 55.2026C195.51 55.2026 195.684 55.2703 195.768 55.3381C195.811 55.3719 195.836 55.4058 195.853 55.4397C195.87 55.4736 195.883 55.5159 195.883 55.5837C195.883 55.7022 195.836 55.9139 195.637 56.2061C195.396 56.5618 194.972 57.091 194.46 57.6881C193.689 58.5815 192.707 59.6231 191.788 60.5293C191.327 60.9823 190.882 61.4015 190.484 61.7487C190.09 62.0959 189.739 62.3712 189.497 62.5278C188.714 63.0402 187.046 64.2173 185.56 65.2801C184.078 66.3387 182.782 67.2787 182.782 67.2787C182.498 67.4862 182.435 67.8799 182.642 68.1636C182.85 68.4473 183.243 68.5109 183.527 68.3034L183.531 68.3118Z" fill="black"/>
  <path d="M183.159 59.1401L200.045 52.8692L204.233 49.7485L198.601 50.2821L182.388 55.8374C182.388 55.8374 181.418 57.8783 183.159 59.1401Z" fill="black"/>
  <path d="M183.159 59.1403L183.379 59.7373L200.265 53.4664C200.32 53.4452 200.375 53.4155 200.422 53.3817L204.609 50.261C204.838 50.0917 204.923 49.7868 204.821 49.5243C204.719 49.2617 204.453 49.0924 204.169 49.122L198.537 49.6555C198.487 49.6598 198.44 49.6682 198.389 49.6852L182.176 55.2405C182.015 55.2956 181.884 55.4141 181.808 55.5666C181.787 55.6131 181.482 56.2483 181.478 57.1248C181.478 57.5185 181.545 57.9674 181.744 58.412C181.943 58.8566 182.282 59.2969 182.777 59.6526C182.951 59.7754 183.171 59.8093 183.37 59.7331L183.15 59.136L183.523 58.6237C183.197 58.3866 183.015 58.1367 182.9 57.8869C182.786 57.6371 182.744 57.3746 182.744 57.1205C182.744 56.8411 182.799 56.5743 182.854 56.3838C182.883 56.2906 182.909 56.2144 182.926 56.1636L182.947 56.1128V56.1043L182.786 56.0281L182.951 56.1085L182.379 55.8375L182.587 56.4388L198.728 50.9089L202.026 50.5955L199.731 52.3062L182.93 58.5475L183.15 59.1445L183.159 59.1403Z" fill="black"/>
  <path d="M144.872 103.554C150.724 103.228 159.125 100.467 163.821 97.3123C168.212 94.3652 171.798 90.4401 175.837 85.3886C180.334 79.7655 187.71 70.0309 188.892 68.7818C176.523 65.6823 175.842 59.7925 175.842 59.7925C170.79 65.4622 158.329 81.1332 154.687 83.1021C150.453 85.3928 142.586 87.095 137.937 87.4973L137.759 98.663L144.868 103.554H144.872Z" fill="#EE0000"/>
  <path d="M144.873 103.553L144.906 104.189C147.913 104.019 151.516 103.236 154.98 102.097C158.443 100.954 161.755 99.4632 164.177 97.8372C168.652 94.8309 172.285 90.8507 176.333 85.7865C178.586 82.9665 181.554 79.126 184.107 75.836C185.386 74.1889 186.559 72.6815 187.482 71.5086C187.943 70.9243 188.346 70.4204 188.668 70.0266C188.985 69.6371 189.231 69.3491 189.353 69.2221C189.51 69.057 189.565 68.8241 189.502 68.6081C189.438 68.3922 189.265 68.2228 189.044 68.1678C182.947 66.6392 179.809 64.4459 178.192 62.6971C177.383 61.8206 176.951 61.05 176.723 60.5165C176.608 60.2497 176.545 60.038 176.507 59.8983C176.49 59.8305 176.477 59.7797 176.473 59.7501V59.7204H176.469L176.109 59.767L176.469 59.7246C176.439 59.4748 176.27 59.2674 176.028 59.1911C175.787 59.1149 175.529 59.1869 175.363 59.3732C172.823 62.2271 168.449 67.558 164.249 72.4232C162.153 74.8537 160.099 77.1698 158.354 78.9905C157.482 79.9009 156.686 80.6885 156.004 81.2982C155.327 81.9079 154.751 82.3483 154.378 82.5473C152.346 83.6482 149.352 84.6433 146.308 85.397C143.264 86.1507 140.156 86.6715 137.878 86.8705C137.552 86.9001 137.302 87.1669 137.297 87.4929L137.12 98.6587C137.12 98.8704 137.221 99.0736 137.395 99.1922L144.504 104.083C144.619 104.163 144.758 104.201 144.898 104.193L144.864 103.558L145.224 103.033L138.394 98.3369L138.568 87.5099L137.933 87.5014L137.988 88.1323C140.355 87.9291 143.505 87.3955 146.613 86.6291C149.725 85.8585 152.782 84.855 154.984 83.6652C155.522 83.373 156.131 82.8903 156.851 82.2467C158.105 81.1204 159.659 79.4986 161.373 77.6102C163.939 74.7817 166.848 71.3604 169.529 68.1847C172.209 65.009 174.665 62.0704 176.312 60.2243L175.838 59.8009L175.207 59.8729C175.215 59.9787 175.44 61.5962 177.256 63.5609C179.073 65.5298 182.46 67.8333 188.731 69.4042L188.883 68.7902L188.422 68.3541C188.248 68.5361 188.003 68.8283 187.672 69.2306C186.529 70.6321 184.429 73.342 182.117 76.323C179.809 79.3039 177.29 82.5473 175.33 85.0032C171.307 90.0377 167.759 93.9036 163.457 96.7956C161.183 98.3242 157.944 99.7892 154.569 100.903C151.194 102.016 147.671 102.774 144.826 102.931L144.86 103.566L144.873 103.553Z" fill="#EE0000"/>
  <path d="M118.561 81.1542V84.2028C118.561 84.5543 118.845 84.838 119.196 84.838C119.548 84.838 119.831 84.5543 119.831 84.2028V81.1542C119.831 80.8027 119.548 80.519 119.196 80.519C118.845 80.519 118.561 80.8027 118.561 81.1542Z" fill="#8F0000"/>
  <path d="M138.398 90.4062L139.262 76.6025L138.627 76.5644L138.174 77.009C138.174 77.009 138.809 77.661 139.758 78.3046C140.232 78.6264 140.795 78.9525 141.413 79.2023C142.031 79.4521 142.717 79.6257 143.433 79.6257C144.157 79.6257 144.919 79.4394 145.622 78.9779C146.113 78.6561 146.477 78.1903 146.757 77.661C147.176 76.8608 147.417 75.8996 147.57 74.8707C147.718 73.8417 147.773 72.7451 147.773 71.6992C147.773 69.002 147.426 66.6054 147.426 66.5884L146.799 66.6774L147.328 67.0288L149.052 64.4417C149.192 64.2342 149.196 63.9632 149.06 63.7515V63.743C148.98 63.6202 148.235 62.3881 147.515 60.5207C146.795 58.6577 146.101 56.1637 146.101 53.53C146.101 53.3225 146.105 53.1108 146.113 52.8991C146.13 52.5476 145.855 52.2512 145.508 52.2385C145.156 52.2216 144.86 52.4968 144.847 52.844C144.839 53.0727 144.834 53.3013 144.834 53.53C144.834 56.477 145.626 59.187 146.41 61.1644C147.193 63.146 147.976 64.3993 147.989 64.4205L148.527 64.086L147.997 63.7346L146.274 66.3217C146.185 66.4529 146.151 66.6096 146.173 66.7663C146.173 66.7663 146.177 66.8002 146.185 66.8679C146.249 67.3421 146.507 69.4296 146.507 71.6992C146.507 73.0415 146.414 74.4472 146.151 75.5947C146.02 76.1663 145.846 76.6744 145.639 77.0725C145.427 77.4705 145.186 77.7542 144.928 77.9193C144.441 78.2369 143.95 78.3597 143.433 78.3597C142.925 78.3597 142.396 78.2327 141.887 78.0252C141.121 77.7203 140.405 77.2376 139.897 76.8354C139.639 76.6363 139.436 76.4543 139.292 76.323C139.22 76.2595 139.169 76.2087 139.131 76.1706L139.093 76.1325L139.084 76.124C138.911 75.9419 138.644 75.8826 138.407 75.9716C138.17 76.0605 138.009 76.2764 137.992 76.5263L137.128 90.3299C137.107 90.6814 137.374 90.982 137.721 91.0032C138.072 91.0244 138.373 90.7576 138.394 90.4104L138.398 90.4062Z" fill="#8F0000"/>
  <path d="M136.137 67.0459C136.163 67.0713 136.391 67.2957 136.781 67.5286C137.17 67.7573 137.721 68.0071 138.394 68.0071C138.788 68.0071 139.215 67.9182 139.63 67.6937C140.045 67.4736 140.443 67.1263 140.808 66.6479C141.019 66.3684 140.964 65.9704 140.685 65.7587C140.405 65.547 140.007 65.602 139.796 65.8815C139.52 66.2414 139.266 66.4531 139.038 66.5717C138.809 66.6945 138.601 66.7326 138.398 66.7368C138.051 66.7368 137.7 66.5971 137.433 66.4362C137.302 66.3557 137.191 66.2795 137.119 66.2202L137.039 66.1525L137.022 66.1355C136.772 65.8899 136.37 65.8942 136.124 66.144C135.879 66.3938 135.883 66.7961 136.133 67.0417L136.137 67.0459Z" fill="black"/>
  <path d="M142.73 57.5863L149.268 57.2052L149.23 56.5701L148.603 56.6675C148.607 56.6971 148.667 57.1121 148.667 57.671C148.667 58.2723 148.595 59.0514 148.353 59.6992C148.231 60.0252 148.07 60.3174 147.866 60.5545C147.659 60.7916 147.413 60.978 147.087 61.1092C146.761 61.2362 146.6 61.6046 146.727 61.9349C146.854 62.2609 147.223 62.4218 147.553 62.2948C148.078 62.0873 148.506 61.7655 148.828 61.3887C149.319 60.8213 149.586 60.1396 149.742 59.4875C149.899 58.8312 149.937 58.1918 149.937 57.671C149.937 56.9808 149.861 56.4939 149.861 56.4727C149.81 56.1509 149.522 55.918 149.196 55.9349L142.658 56.316C142.307 56.3372 142.04 56.6378 142.061 56.985C142.082 57.3365 142.383 57.6032 142.73 57.5821V57.5863Z" fill="black"/>
  <path d="M102.542 136.339C102.559 126.203 103.559 116.053 105.892 106.183C106.701 102.766 107.463 99.332 108.631 96.0123C109.499 93.5522 110.621 91.1768 112.027 88.975C113.331 86.9298 115.114 84.5841 117.244 83.3477C118.12 84.529 119.441 84.1395 121.432 84.1479C129.096 84.1776 137.462 88.0053 141.443 94.8987C145.025 101.102 145.855 108.491 147.697 115.308C149.687 122.663 152.68 129.747 156.58 136.297" fill="#EE0000"/>
  <path d="M103.178 136.339C103.195 126.245 104.19 116.146 106.51 106.327C107.319 102.901 108.077 99.4928 109.229 96.2239C110.08 93.8062 111.185 91.4731 112.561 89.3178C113.2 88.3101 113.958 87.2388 114.801 86.2776C115.643 85.3165 116.579 84.4654 117.562 83.898L117.244 83.3475L116.736 83.7244C117.066 84.1732 117.498 84.4823 117.964 84.639C118.425 84.7999 118.9 84.8338 119.382 84.8338C119.996 84.8338 120.648 84.7787 121.377 84.7787H121.427C125.154 84.7914 129.07 85.7357 132.525 87.5098C135.981 89.284 138.97 91.888 140.888 95.2119C142.637 98.2352 143.725 101.576 144.602 105.027C145.482 108.474 146.147 112.03 147.079 115.469C149.081 122.879 152.1 130.018 156.026 136.615C156.203 136.915 156.593 137.017 156.898 136.835C157.199 136.657 157.3 136.267 157.118 135.962C153.252 129.463 150.28 122.434 148.302 115.134C147.388 111.759 146.723 108.211 145.83 104.709C144.936 101.208 143.818 97.7525 141.985 94.5726C139.923 91.0031 136.739 88.2466 133.101 86.375C129.464 84.5077 125.365 83.5169 121.427 83.5042H121.368C120.581 83.5042 119.907 83.5592 119.374 83.5592C118.95 83.5592 118.62 83.5254 118.375 83.4364C118.129 83.3475 117.951 83.229 117.748 82.9622C117.553 82.7039 117.197 82.6277 116.918 82.7928C115.771 83.4619 114.75 84.4019 113.844 85.4308C112.938 86.4597 112.15 87.586 111.485 88.6277C110.054 90.876 108.911 93.2938 108.026 95.7963C106.84 99.1625 106.074 102.618 105.27 106.03C102.924 115.96 101.92 126.156 101.903 136.331C101.903 136.682 102.187 136.966 102.538 136.966C102.89 136.966 103.174 136.682 103.174 136.331L103.178 136.339Z" fill="#EE0000"/>
  <path d="M129.557 136.686C129.557 136.686 126.5 122.481 128.63 107.157C128.63 107.157 132.589 132.224 136.04 136.686H129.557Z" fill="black"/>
  <path d="M129.557 136.686L129.993 136.593C129.993 136.593 129.989 136.564 129.976 136.508C129.794 135.632 128.325 128.188 128.325 118.589C128.325 115.02 128.528 111.154 129.075 107.22L128.63 107.157L128.19 107.224C128.19 107.224 129.18 113.5 130.603 120.338C131.314 123.755 132.136 127.316 132.995 130.314C133.427 131.813 133.868 133.168 134.312 134.302C134.761 135.437 135.206 136.343 135.684 136.962L136.04 136.686V136.237H129.557V136.686V137.135H136.04C136.209 137.135 136.366 137.038 136.442 136.885C136.518 136.733 136.497 136.551 136.396 136.415C136.01 135.92 135.578 135.065 135.151 133.972C134.397 132.058 133.635 129.412 132.919 126.528C131.848 122.201 130.887 117.34 130.192 113.559C129.845 111.67 129.566 110.053 129.371 108.905C129.274 108.334 129.202 107.876 129.151 107.567C129.1 107.254 129.075 107.089 129.075 107.089C129.041 106.869 128.85 106.708 128.63 106.712C128.41 106.716 128.223 106.877 128.19 107.097C127.635 111.082 127.432 114.986 127.432 118.589C127.432 128.925 129.117 136.763 129.121 136.784C129.163 136.991 129.35 137.135 129.557 137.135V136.686Z" fill="black"/>
  <path d="M145.478 52.8694C145.478 52.8694 142.688 54.796 142.433 58.4502C142.179 62.1044 140.913 61.393 139.999 61.2406C139.084 61.0881 138.627 56.7777 135.633 58.3486C132.881 59.7967 134.312 64.0691 135.904 65.822C136.29 66.2455 136.747 66.6562 136.878 67.2151C137.158 68.4346 136.107 70.2214 135.578 71.2673C134.511 73.3802 133.262 75.4677 131.446 77.0217C130.108 78.1649 128.621 79.1345 127.042 79.901C125.505 80.6462 123.803 81.4549 122.079 81.5608C120.212 81.6751 117.456 81.1712 117.498 78.7873C117.502 78.4317 117.578 78.0802 117.68 77.7415C118.184 76.0605 117.312 73.9222 116.537 72.4444C115.3 70.0902 113.403 68.2864 111.799 66.2031C110.477 64.4882 109.195 62.2483 110.427 60.1312C111.362 58.5222 112.336 56.7268 112.506 54.8426C112.573 54.0804 112.489 53.3437 112.116 52.6789C111.642 51.8193 111.197 51.0445 111.13 50.0367C111.011 48.2583 112.129 46.789 113.67 46.0311C116.664 44.5576 118.641 43.2407 119.708 40.7552C120.542 38.8032 122.918 37.5753 124.959 38.4856C125.907 38.9091 126.648 39.5188 127.749 39.5146C129.019 39.5103 130.108 38.727 130.971 37.8632C132.513 36.3219 136.158 35.6063 137.721 37.5583C138.737 38.8286 138.839 39.739 140.409 39.5357C141.824 39.3537 143.628 39.4257 144.529 40.7129C145.829 42.5632 144.402 44.8413 145.046 46.8229C145.596 48.5166 146.697 49.8335 146.337 51.7262C146.223 52.3147 145.922 52.5349 145.482 52.8821L145.478 52.8694Z" fill="black"/>
  <path d="M145.478 52.8693L145.118 52.3485C145.08 52.3739 144.335 52.8905 143.551 53.9025C142.768 54.9102 141.938 56.4261 141.802 58.4077C141.726 59.5933 141.519 60.2496 141.341 60.5164C141.256 60.6519 141.193 60.6984 141.146 60.7238C141.1 60.7492 141.045 60.762 140.947 60.762C140.858 60.762 140.731 60.745 140.591 60.7154C140.448 60.6857 140.287 60.6434 140.105 60.6138L140.062 60.8678L140.202 60.6476C140.202 60.6476 140.155 60.6222 140.105 60.6138L140.062 60.8678L140.202 60.6476L140.155 60.7196L140.206 60.6519H140.202L140.155 60.7196L140.206 60.6519H140.202C140.181 60.6265 140.126 60.5587 140.062 60.4571C139.948 60.275 139.808 59.9998 139.647 59.6907C139.402 59.2249 139.109 58.6829 138.678 58.2214C138.462 57.9885 138.208 57.7768 137.899 57.6201C137.594 57.4635 137.234 57.3703 136.848 57.3703C136.37 57.3703 135.87 57.51 135.341 57.7895C134.668 58.1409 134.172 58.666 133.872 59.263C133.567 59.8601 133.448 60.5206 133.448 61.1854C133.448 62.1423 133.694 63.112 134.058 63.9927C134.422 64.8734 134.905 65.661 135.438 66.2496C135.646 66.4782 135.849 66.6772 135.993 66.8635C136.141 67.0498 136.226 67.2065 136.26 67.3547C136.281 67.4394 136.289 67.541 136.289 67.6511C136.294 68.083 136.107 68.697 135.845 69.2982C135.582 69.9037 135.256 70.4965 135.011 70.975C133.956 73.0625 132.741 75.0738 131.031 76.5303C129.735 77.6355 128.295 78.5755 126.762 79.3207C125.23 80.0659 123.587 80.8281 122.037 80.917C121.893 80.9255 121.741 80.9297 121.584 80.9297C120.75 80.9297 119.806 80.7815 119.153 80.4386C118.823 80.265 118.573 80.0575 118.4 79.8034C118.23 79.5494 118.125 79.253 118.125 78.8295V78.7872C118.129 78.512 118.188 78.2113 118.277 77.9107C118.4 77.4958 118.455 77.0681 118.455 76.6447C118.455 75.8232 118.264 75.0018 118.006 74.2311C117.743 73.4605 117.409 72.7449 117.087 72.1352C115.783 69.6624 113.848 67.8374 112.29 65.805C111.832 65.2122 111.388 64.5601 111.07 63.9038C110.748 63.2432 110.554 62.5784 110.554 61.9475C110.554 61.4437 110.672 60.9525 110.964 60.4444C111.904 58.8227 112.933 56.9596 113.128 54.8933C113.145 54.7197 113.153 54.5461 113.153 54.3725C113.153 53.695 113.018 53.0006 112.662 52.3612C112.421 51.9293 112.205 51.5397 112.044 51.1587C111.883 50.7776 111.782 50.405 111.752 49.9815C111.748 49.9095 111.743 49.8376 111.743 49.7656C111.743 49.0754 111.964 48.453 112.353 47.9067C112.739 47.3648 113.293 46.9032 113.941 46.5856C115.453 45.8404 116.74 45.1248 117.807 44.2483C118.874 43.3718 119.712 42.326 120.284 40.988C120.555 40.3571 121.025 39.8024 121.601 39.4128C122.177 39.0233 122.85 38.7988 123.51 38.7988C123.909 38.7988 124.307 38.8793 124.692 39.0487C125.12 39.2392 125.534 39.489 126.017 39.7177C126.5 39.9421 127.063 40.1326 127.732 40.1326H127.745C128.511 40.1326 129.21 39.8913 129.82 39.5483C130.429 39.2053 130.959 38.7565 131.416 38.295C131.776 37.9351 132.314 37.6005 132.927 37.3634C133.541 37.1263 134.232 36.9908 134.879 36.9908C135.366 36.9908 135.832 37.067 136.23 37.2237C136.628 37.3804 136.958 37.6133 137.221 37.9351C137.649 38.4643 137.903 38.9428 138.271 39.3874C138.457 39.6076 138.686 39.8151 138.982 39.9633C139.279 40.1115 139.622 40.1834 139.994 40.1834C140.151 40.1834 140.312 40.1707 140.481 40.1496C140.807 40.1072 141.15 40.0818 141.493 40.0818C142.018 40.0818 142.535 40.1496 142.967 40.3062C143.403 40.4671 143.746 40.7 144.004 41.0642C144.178 41.314 144.288 41.5638 144.36 41.8348C144.432 42.1058 144.457 42.3937 144.457 42.7028C144.462 43.5412 144.233 44.5193 144.229 45.5652C144.229 46.031 144.28 46.5179 144.436 47.0006C144.694 47.7966 145.05 48.4741 145.317 49.1135C145.588 49.7529 145.77 50.3372 145.77 50.9681C145.77 51.1671 145.753 51.3746 145.711 51.5905C145.668 51.798 145.622 51.87 145.546 51.9716C145.465 52.069 145.313 52.1918 145.088 52.3696L145.482 52.8693L145.876 53.3689C146.088 53.1996 146.312 53.0387 146.519 52.7931C146.731 52.5475 146.892 52.2172 146.964 51.8319C147.019 51.5355 147.044 51.2476 147.044 50.9723C147.044 50.0874 146.786 49.321 146.49 48.6266C146.193 47.9279 145.863 47.2843 145.647 46.6153C145.541 46.2935 145.503 45.9505 145.503 45.5737C145.499 44.7268 145.728 43.7487 145.732 42.7113C145.732 42.3218 145.698 41.9237 145.592 41.5215C145.491 41.1192 145.313 40.717 145.046 40.3401C144.618 39.7346 144.025 39.3451 143.403 39.1206C142.781 38.8962 142.124 38.8242 141.498 38.82C141.091 38.82 140.693 38.8539 140.325 38.9005C140.202 38.9174 140.092 38.9216 139.999 38.9216C139.774 38.9216 139.651 38.8835 139.55 38.837C139.474 38.7988 139.406 38.748 139.321 38.6633C139.198 38.5406 139.054 38.3415 138.877 38.079C138.699 37.8165 138.487 37.4989 138.208 37.1517C137.797 36.6394 137.263 36.2752 136.692 36.0508C136.116 35.8264 135.498 35.729 134.879 35.729C134.058 35.729 133.228 35.8984 132.474 36.1863C131.721 36.4785 131.039 36.885 130.518 37.4058C130.112 37.8123 129.663 38.1849 129.197 38.4516C128.727 38.7184 128.244 38.8708 127.741 38.8751H127.728C127.3 38.8751 126.949 38.7607 126.551 38.5787C126.157 38.3966 125.729 38.1341 125.208 37.9012C124.654 37.6556 124.078 37.5413 123.51 37.5413C122.562 37.5413 121.652 37.8546 120.885 38.3754C120.119 38.8962 119.492 39.6288 119.115 40.501C118.62 41.6485 117.938 42.5038 116.998 43.2787C116.062 44.0493 114.86 44.731 113.378 45.4551C112.556 45.8574 111.837 46.4417 111.316 47.1784C110.795 47.911 110.473 48.8044 110.473 49.774C110.473 49.8757 110.473 49.9731 110.482 50.0747C110.52 50.6632 110.672 51.1841 110.871 51.6541C111.07 52.1283 111.312 52.556 111.549 52.9836C111.782 53.4028 111.879 53.8601 111.879 54.3767C111.879 54.5079 111.871 54.6434 111.858 54.7832C111.705 56.4853 110.791 58.2172 109.859 59.8135C109.453 60.5121 109.275 61.2447 109.275 61.956C109.275 62.8494 109.542 63.6963 109.919 64.4712C110.295 65.246 110.787 65.9574 111.273 66.5925C112.921 68.7266 114.784 70.505 115.952 72.7407C116.249 73.3081 116.558 73.9729 116.791 74.6546C117.024 75.3363 117.172 76.0349 117.172 76.6574C117.172 76.9792 117.134 77.284 117.049 77.5593C116.935 77.9361 116.85 78.3426 116.842 78.7745V78.838C116.842 79.4859 117.019 80.066 117.337 80.5233C117.574 80.8705 117.875 81.1457 118.209 81.3659C118.709 81.6961 119.28 81.8994 119.856 82.0264C120.432 82.1534 121.021 82.2043 121.571 82.2043C121.753 82.2043 121.931 82.2 122.1 82.1873C123.997 82.0688 125.763 81.2092 127.304 80.4682C128.935 79.6764 130.467 78.6813 131.848 77.5C133.77 75.8571 135.053 73.6892 136.133 71.5508C136.357 71.1063 136.704 70.4838 136.997 69.8063C137.289 69.1288 137.543 68.3963 137.547 67.6511C137.547 67.4563 137.53 67.2615 137.484 67.071C137.39 66.6603 137.183 66.3385 136.971 66.0717C136.759 65.805 136.539 65.589 136.361 65.3942C135.955 64.9496 135.527 64.2637 135.214 63.5058C134.901 62.7478 134.702 61.9179 134.702 61.1811C134.702 60.6688 134.795 60.2115 134.985 59.8347C135.18 59.4578 135.46 59.1529 135.913 58.9116C136.306 58.7041 136.603 58.6406 136.831 58.6406C136.988 58.6406 137.115 58.6702 137.238 58.721C137.454 58.8142 137.666 58.992 137.873 59.2546C138.182 59.6399 138.449 60.1819 138.703 60.6646C138.83 60.9059 138.957 61.1388 139.118 61.3505C139.198 61.4564 139.287 61.558 139.41 61.6554C139.529 61.7485 139.685 61.8375 139.884 61.8713C139.994 61.8883 140.147 61.9264 140.325 61.9645C140.503 62.0026 140.706 62.0365 140.939 62.0365C141.18 62.0365 141.46 61.9941 141.726 61.8502C141.925 61.7443 142.112 61.5919 142.264 61.3971C142.493 61.1049 142.662 60.7365 142.789 60.2665C142.916 59.7965 143.005 59.2207 143.056 58.4966C143.17 56.8283 143.865 55.5496 144.542 54.6816C144.881 54.2497 145.211 53.9194 145.452 53.7034C145.575 53.5934 145.673 53.5129 145.74 53.4621L145.812 53.407L145.829 53.3943L145.677 53.1742L145.829 53.3901L145.859 53.3689L145.465 52.8693H145.478Z" fill="black"/>
  <path d="M147.875 107.877C147.096 104.053 145.982 99.8781 144.06 96.1901C143.098 94.3482 141.934 92.6291 140.503 91.1471C139.072 89.6651 137.374 88.4202 135.362 87.5353C135.041 87.3955 134.668 87.5395 134.524 87.8613C134.384 88.1831 134.528 88.5557 134.85 88.6997C136.7 89.5127 138.259 90.6517 139.588 92.0278C141.583 94.0941 143.056 96.6982 144.174 99.5013C145.292 102.304 146.05 105.302 146.626 108.126C146.698 108.469 147.032 108.694 147.375 108.622C147.718 108.55 147.942 108.215 147.87 107.872L147.875 107.877Z" fill="white"/>
  <path d="M148.573 62.8708C148.167 62.0833 147.57 60.813 147.066 59.2548C146.96 58.9203 146.6 58.7382 146.266 58.8441C145.931 58.9499 145.749 59.3098 145.855 59.6443C146.384 61.2872 147.011 62.621 147.443 63.4552C147.604 63.7685 147.989 63.8871 148.298 63.7262C148.611 63.5653 148.73 63.1799 148.569 62.8708H148.573Z" fill="#8F0000"/>
  <path d="M181.783 136.102H75.5195V137.372H181.783" fill="black"/>
  <mask id="mask0_160_21068" style="mask-type:luminance" maskUnits="userSpaceOnUse" x="217" y="178" width="97" height="102">
    <path d="M313.159 279.148H217.6V178.894H313.159V279.148Z" fill="white"/>
  </mask>
  <g mask="url(#mask0_160_21068)">
    <path d="M259.799 207.166C259.667 208.986 259.553 211.459 259.574 215.228C259.574 215.943 260.125 216.557 260.654 217.04C261.861 218.137 264.033 220.753 262.136 224.166C262.026 224.361 262.056 224.653 262.208 224.818C262.691 225.352 263.834 225.763 265.617 225.11C265.617 225.11 266.447 226.855 267.412 227.647C267.412 227.647 267.374 228.189 268.276 229.002C268.678 229.366 269.055 230.945 269.427 231.403C269.453 231.436 269.495 231.479 269.55 231.525C270.406 232.296 271.697 232.398 272.658 231.758C273.344 231.301 273.988 230.712 274.504 230.378C275.597 229.671 276.638 228.887 277.604 228.019C278.087 227.587 278.552 227.13 278.997 226.656C278.997 226.656 280.081 230.369 279.992 231.885L280.288 233.151L294.93 225.098V224.433L290.247 212.971L268.712 199.519L261.243 205.789C261.243 205.789 259.866 206.217 259.803 207.166" fill="#FAB6B6"/>
    <path d="M279.205 227.397C279.747 229.531 279.929 230.691 279.984 231.293C279.895 230.116 279.467 228.375 279.205 227.397ZM279.01 226.694L279.2 227.393C279.107 227.042 279.035 226.787 279.01 226.694Z" fill="#FAB6B6"/>
    <path d="M281.724 220.254C281.648 220.254 281.576 220.309 281.576 220.402C281.567 221.871 281.491 223.408 280.729 224.513C280.208 225.267 279.624 225.987 278.997 226.66L279.01 226.698C279.035 226.791 279.107 227.046 279.2 227.397C279.463 228.375 279.886 230.115 279.979 231.292C280.022 231.746 279.992 231.885 279.992 231.885L280.145 232.542L281.961 231.14C281.872 230.056 281.046 226.698 281.046 226.698C283.291 223.578 282.308 221.626 281.859 220.351C281.834 220.283 281.779 220.25 281.72 220.25" fill="#F79191"/>
    <path d="M282.368 209.347C282.334 209.347 282.296 209.347 282.257 209.355L281.419 210.159C281.089 210.219 280.856 210.524 280.894 210.858C281.072 212.408 280.615 213.831 280.128 214.648C280.022 214.826 279.899 215.262 280.145 215.393C280.208 215.427 280.272 215.44 280.331 215.44C280.615 215.44 280.877 215.131 281.038 214.936C281.58 214.279 282.126 213.661 282.465 212.857C282.799 212.065 282.965 211.205 282.99 210.346V210.27C282.99 210.168 282.99 210.066 282.99 209.965C282.99 209.778 282.901 209.605 282.761 209.486C282.647 209.393 282.503 209.342 282.355 209.342" fill="#F79191"/>
    <path d="M267.899 213.441C267.285 213.369 266.65 213.263 266.129 213.344C265.545 213.428 264.977 213.602 264.452 213.826C263.923 214.059 263.427 214.364 262.979 214.728C262.754 214.91 262.538 215.105 262.331 215.308L261.67 215.96C261.42 216.206 261.018 216.206 260.773 215.96C260.527 215.71 260.527 215.308 260.773 215.063L260.802 215.033L261.509 214.415C261.763 214.199 262.034 214 262.31 213.818C262.869 213.454 263.47 213.149 264.109 212.941C264.749 212.73 265.405 212.632 266.065 212.615C266.794 212.619 267.386 212.84 267.984 213.022C268.098 213.056 268.161 213.178 268.127 213.293C268.098 213.394 267.996 213.458 267.895 213.445L267.899 213.441Z" fill="black"/>
    <path d="M264.677 217.887C264.867 217.387 264.63 216.739 264.152 216.443C263.673 216.147 263.127 216.312 262.937 216.816C262.746 217.315 262.983 217.963 263.462 218.26C263.94 218.556 264.486 218.391 264.677 217.887Z" fill="black"/>
    <path d="M262.835 217.332C263.368 216.904 263.86 216.553 264.423 216.307C264.982 216.062 265.617 215.918 266.455 215.918C266.591 215.918 266.73 215.918 266.874 215.931C267.107 215.943 267.306 215.765 267.319 215.532C267.332 215.3 267.154 215.101 266.921 215.088C266.76 215.079 266.603 215.075 266.455 215.075C265.515 215.075 264.749 215.245 264.084 215.537C263.419 215.829 262.86 216.231 262.306 216.676C262.123 216.824 262.094 217.091 262.242 217.273C262.39 217.455 262.657 217.484 262.839 217.336L262.835 217.332Z" fill="black"/>
    <path d="M282.13 210.46C282.008 209.647 281.732 208.813 281.262 208.025C280.792 207.246 279.996 206.67 279.077 206.514C278.95 206.492 278.823 206.484 278.696 206.484C278.265 206.484 277.854 206.598 277.494 206.789C277.13 206.975 276.812 207.233 276.55 207.542C275.97 208.233 275.707 209.063 275.559 209.842C275.546 209.901 275.508 210.053 275.466 210.185C275.445 210.252 275.419 210.312 275.398 210.358L275.373 210.409V210.418L275.47 210.485L275.373 210.409V210.418L275.47 210.485L275.373 210.409C275.157 210.689 275.207 211.087 275.487 211.298C275.766 211.514 276.164 211.463 276.376 211.184C276.456 211.074 276.503 210.981 276.55 210.888C276.677 210.6 276.761 210.299 276.804 210.075C276.926 209.41 277.142 208.796 277.511 208.368C277.663 208.186 277.862 208.029 278.07 207.924C278.277 207.818 278.493 207.763 278.692 207.763C278.751 207.763 278.807 207.767 278.866 207.775C279.374 207.852 279.899 208.224 280.17 208.686C280.551 209.325 280.771 209.994 280.873 210.663C280.924 211.01 281.25 211.247 281.597 211.197C281.944 211.146 282.181 210.82 282.13 210.473V210.46Z" fill="black"/>
    <path d="M284.34 190.809C284.34 190.809 296.916 196.466 291.34 214.233C290.942 215.495 289.078 214.919 288.689 214.525C286.999 212.814 285.687 212.001 285.742 209.27C285.797 206.327 282.901 204.214 280.055 205.37C277.485 206.412 275.207 208.309 275.876 210.786C275.969 211.129 275.254 210.892 274.796 210.811C272.679 210.435 271.718 208.728 271.053 207.128C270.507 205.802 270.181 204.464 268.627 204.075C266.103 203.444 263.076 205.121 260.963 206.327C260.891 206.37 259.621 207.123 259.629 207.14C259.629 207.14 257.194 202.974 260.125 198.176C261.704 195.594 264.384 193.747 266.946 192.24C269.829 190.546 272.755 188.929 276.177 188.81C277.561 188.764 278.946 188.92 280.284 189.284C282.092 189.771 282.685 190.068 284.34 190.813V190.809Z" fill="black"/>
    <path d="M284.34 190.809L284.141 191.253C284.23 191.296 286.275 192.257 288.287 194.526C290.294 196.8 292.275 200.37 292.28 205.718C292.28 208.127 291.873 210.905 290.878 214.085C290.815 214.267 290.743 214.343 290.633 214.411C290.522 214.474 290.353 214.516 290.154 214.512C289.921 214.512 289.654 214.457 289.438 214.381C289.328 214.343 289.235 214.3 289.163 214.258C289.091 214.22 289.045 214.182 289.045 214.178C288.198 213.322 287.474 212.704 287 212.035C286.758 211.701 286.572 211.353 286.441 210.938C286.309 210.523 286.233 210.037 286.233 209.427C286.233 209.376 286.233 209.329 286.233 209.279V209.185C286.233 207.886 285.708 206.721 284.878 205.895C284.048 205.066 282.905 204.562 281.664 204.562C281.076 204.562 280.47 204.676 279.873 204.917C278.7 205.396 277.574 206.044 276.719 206.869C276.291 207.284 275.931 207.742 275.673 208.254C275.415 208.762 275.266 209.325 275.266 209.922C275.266 210.244 275.309 210.574 275.402 210.913L275.664 210.841H275.393L275.402 210.913L275.664 210.841H275.393H275.77L275.448 210.646C275.406 210.714 275.393 210.79 275.393 210.841H275.77L275.448 210.646L275.779 210.845L275.559 210.528C275.52 210.553 275.482 210.591 275.448 210.642L275.779 210.841L275.559 210.523L275.728 210.769L275.669 210.473C275.669 210.473 275.614 210.485 275.559 210.523L275.728 210.769L275.669 210.473L275.69 210.579L275.681 210.473H275.669L275.69 210.579L275.681 210.473H275.673C275.631 210.473 275.499 210.456 275.351 210.422C275.203 210.392 275.038 210.35 274.881 210.32C273.937 210.151 273.281 209.706 272.747 209.097C272.213 208.491 271.828 207.712 271.506 206.933C271.24 206.293 271.019 205.603 270.634 204.985C270.439 204.676 270.198 204.384 269.889 204.138C269.58 203.897 269.199 203.706 268.75 203.596C268.326 203.49 267.895 203.444 267.463 203.444C266.239 203.444 265.011 203.808 263.859 204.291C262.708 204.773 261.628 205.383 260.73 205.895C260.701 205.912 260.616 205.963 260.485 206.039C260.29 206.154 260.019 206.319 259.79 206.459C259.676 206.526 259.574 206.59 259.498 206.641C259.46 206.666 259.426 206.687 259.401 206.704L259.354 206.738L259.307 206.776L259.252 206.84C259.252 206.84 259.223 206.882 259.202 206.92C259.185 206.962 259.155 207.022 259.155 207.132H259.642L260.061 206.886C260.027 206.831 259.176 205.307 259.18 203.122C259.18 201.763 259.502 200.145 260.552 198.426C262.051 195.966 264.66 194.145 267.204 192.655C268.644 191.808 270.075 190.995 271.557 190.381C273.039 189.767 274.568 189.352 276.202 189.293C276.359 189.289 276.511 189.284 276.668 189.284C277.849 189.284 279.026 189.441 280.165 189.75C281.059 189.992 281.639 190.182 282.198 190.402C282.761 190.622 283.316 190.881 284.146 191.253L284.345 190.809L284.544 190.364C283.718 189.992 283.151 189.729 282.549 189.496C281.948 189.259 281.326 189.06 280.411 188.81C279.187 188.48 277.925 188.311 276.659 188.311C276.494 188.311 276.325 188.311 276.16 188.319C274.377 188.383 272.73 188.836 271.176 189.479C269.618 190.127 268.149 190.965 266.7 191.817C264.118 193.337 261.37 195.217 259.71 197.918C258.558 199.798 258.194 201.61 258.194 203.126C258.194 205.646 259.185 207.339 259.21 207.382C259.32 207.572 259.545 207.665 259.761 207.606C259.972 207.547 260.12 207.356 260.12 207.136H259.634L260.053 207.382C260.074 207.339 260.116 207.28 260.12 207.136H259.634L260.053 207.382L259.638 207.14L259.968 207.483C259.968 207.483 260.002 207.454 260.048 207.382L259.634 207.14L259.964 207.483L259.689 207.195L259.93 207.513L259.968 207.479L259.693 207.191L259.934 207.509C259.934 207.509 259.968 207.488 260.01 207.462C260.159 207.369 260.446 207.195 260.705 207.039C260.832 206.962 260.955 206.89 261.048 206.835C261.137 206.78 261.209 206.742 261.213 206.738C262.106 206.226 263.152 205.641 264.236 205.184C265.32 204.727 266.442 204.409 267.463 204.413C267.827 204.413 268.178 204.452 268.513 204.536C268.843 204.621 269.084 204.744 269.292 204.905C269.597 205.142 269.821 205.472 270.024 205.887C270.228 206.302 270.401 206.793 270.613 207.305C270.952 208.127 271.375 208.999 272.023 209.74C272.662 210.481 273.547 211.074 274.72 211.281C274.839 211.303 274.995 211.341 275.161 211.375C275.33 211.408 275.495 211.442 275.681 211.447C275.787 211.447 275.906 211.442 276.067 211.362C276.147 211.32 276.236 211.248 276.295 211.146C276.359 211.044 276.38 210.93 276.38 210.833C276.38 210.765 276.372 210.706 276.355 210.651C276.287 210.392 276.253 210.151 276.253 209.914C276.253 209.482 276.359 209.075 276.554 208.682C276.846 208.093 277.354 207.538 278.002 207.051C278.65 206.564 279.429 206.141 280.246 205.811C280.729 205.616 281.207 205.527 281.669 205.527C282.638 205.527 283.536 205.921 284.192 206.577C284.849 207.233 285.259 208.14 285.263 209.177V209.253C285.263 209.308 285.263 209.363 285.263 209.418C285.263 210.109 285.348 210.701 285.513 211.222C285.759 212.005 286.178 212.619 286.678 213.174C287.177 213.729 287.749 214.237 288.354 214.855C288.46 214.957 288.57 215.033 288.697 215.105C289.074 215.308 289.599 215.478 290.163 215.482C290.48 215.482 290.815 215.427 291.124 215.249C291.433 215.075 291.695 214.766 291.814 214.368C292.839 211.104 293.262 208.229 293.262 205.709C293.262 200.023 291.094 196.165 288.922 193.76C286.75 191.351 284.586 190.377 284.548 190.356L284.349 190.8L284.34 190.809Z" fill="black"/>
    <path d="M290.975 214.766C290.975 214.766 290.289 216.269 288.426 215.575C288.299 215.528 288.189 215.448 288.105 215.346C287.436 214.576 284.294 211.091 281.575 210.718C281.575 210.718 281.122 205.798 276.122 207.166L283.548 201.704L288.723 204.871L290.975 214.762V214.766Z" fill="black"/>
    <path d="M290.976 214.766L290.531 214.563L290.79 214.682L290.531 214.559V214.567C290.51 214.605 290.4 214.796 290.205 214.961C290.01 215.126 289.752 215.27 289.346 215.27C289.138 215.27 288.893 215.232 288.588 215.118C288.55 215.105 288.507 215.075 288.465 215.025C288.122 214.626 287.152 213.547 285.912 212.505C285.289 211.984 284.603 211.472 283.879 211.061C283.155 210.651 282.401 210.337 281.631 210.227L281.563 210.71L282.05 210.663C282.046 210.625 281.957 209.626 281.385 208.576C281.097 208.051 280.682 207.513 280.085 207.106C279.488 206.696 278.705 206.429 277.752 206.429C277.219 206.429 276.634 206.509 275.987 206.687L276.114 207.157L276.402 207.551L283.566 202.284L288.287 205.171L290.493 214.864L290.967 214.754L291.442 214.643L289.189 204.752C289.159 204.625 289.079 204.515 288.969 204.443L283.795 201.276C283.625 201.174 283.409 201.183 283.253 201.297L275.826 206.759C275.635 206.899 275.572 207.153 275.677 207.365C275.779 207.576 276.016 207.687 276.245 207.623C276.821 207.466 277.32 207.399 277.752 207.399C278.531 207.399 279.095 207.606 279.535 207.907C280.195 208.356 280.593 209.063 280.818 209.672C280.928 209.977 280.996 210.252 281.034 210.447C281.055 210.545 281.068 210.625 281.072 210.676L281.08 210.735V210.748C281.102 210.972 281.275 211.154 281.5 211.184C282.088 211.264 282.744 211.527 283.397 211.9C285.361 213.013 287.245 215.092 287.724 215.651C287.859 215.808 288.033 215.939 288.245 216.02C288.639 216.168 289.007 216.231 289.341 216.231C290.07 216.231 290.607 215.909 290.929 215.6C291.255 215.287 291.391 214.991 291.408 214.953C291.45 214.855 291.463 214.745 291.442 214.643L290.967 214.754L290.976 214.766Z" fill="black"/>
    <path d="M281.228 190.101C281.139 190.093 282.118 187.921 282.198 187.76C283.146 185.855 284.607 184.533 286.843 185.181C289.235 185.876 291.073 187.582 292.83 189.259C294.634 190.982 296.641 193.565 296.18 196.228C295.743 198.739 292.779 200.776 290.425 199.277" fill="black"/>
    <path d="M281.279 189.619L281.228 190.098L281.537 189.729C281.465 189.67 281.364 189.628 281.275 189.619L281.224 190.098L281.686 189.975C281.669 189.92 281.639 189.822 281.529 189.729L281.22 190.098L281.681 189.975L281.237 190.093H281.694C281.694 190.068 281.694 190.034 281.677 189.975L281.233 190.093H281.69H281.321L281.686 190.161C281.686 190.161 281.69 190.136 281.69 190.093H281.321L281.686 190.161L281.533 190.131L281.686 190.165V190.157L281.533 190.127L281.686 190.161C281.686 190.161 281.703 190.106 281.728 190.034C281.825 189.776 282.033 189.28 282.228 188.844C282.325 188.628 282.414 188.421 282.486 188.264C282.52 188.184 282.554 188.12 282.575 188.069C282.596 188.018 282.617 187.985 282.617 187.98C282.99 187.235 283.434 186.604 283.947 186.172C284.463 185.745 285.026 185.503 285.721 185.503C286.017 185.503 286.335 185.55 286.691 185.652C287.817 185.978 288.82 186.545 289.769 187.244C290.717 187.942 291.602 188.776 292.479 189.611C293.271 190.369 294.1 191.292 294.719 192.295C295.341 193.299 295.748 194.374 295.743 195.441C295.743 195.674 295.722 195.907 295.684 196.144C295.54 196.978 295.066 197.783 294.41 198.363C293.758 198.947 292.936 199.303 292.14 199.299C291.645 199.299 291.153 199.167 290.671 198.862C290.442 198.718 290.141 198.786 289.997 199.011C289.854 199.239 289.921 199.54 290.146 199.684C290.777 200.086 291.467 200.272 292.136 200.272C293.224 200.272 294.249 199.807 295.053 199.087C295.858 198.367 296.451 197.389 296.641 196.305C296.692 196.013 296.713 195.725 296.713 195.437C296.713 194.124 296.222 192.884 295.54 191.779C294.858 190.673 293.978 189.695 293.144 188.899C292.263 188.057 291.352 187.197 290.34 186.452C289.333 185.707 288.223 185.071 286.953 184.707C286.521 184.585 286.11 184.521 285.712 184.521C284.781 184.521 283.964 184.868 283.312 185.419C282.655 185.969 282.147 186.71 281.736 187.536C281.72 187.57 281.698 187.612 281.664 187.688C281.55 187.938 281.322 188.446 281.118 188.92C281.017 189.158 280.923 189.382 280.851 189.568C280.818 189.661 280.784 189.742 280.763 189.814L280.729 189.92C280.72 189.962 280.708 189.992 280.708 190.085C280.708 190.127 280.708 190.182 280.75 190.288C280.771 190.339 280.813 190.407 280.885 190.47C280.957 190.534 281.063 190.576 281.152 190.58C281.419 190.606 281.66 190.411 281.686 190.144C281.711 189.877 281.516 189.636 281.25 189.611L281.279 189.619Z" fill="black"/>
    <path d="M284.239 192.003C284.26 192.011 287.198 193.375 289.709 197.262C289.9 197.558 290.294 197.639 290.586 197.448C290.882 197.258 290.963 196.864 290.772 196.572C288.037 192.35 284.831 190.881 284.759 190.847C284.442 190.703 284.065 190.847 283.917 191.16C283.773 191.478 283.917 191.855 284.23 192.003H284.239Z" fill="white"/>
    <path d="M265.617 225.11C265.617 225.11 265.879 225.678 266.146 226.076C265.82 225.546 265.612 225.11 265.612 225.11" fill="#FAB6B6"/>
    <path d="M267.242 223.569C266.993 224.022 266.654 224.424 266.226 224.721C266.184 224.751 265.943 224.933 265.739 225.047C265.739 225.047 265.65 225.094 265.612 225.11C265.612 225.11 265.82 225.542 266.146 226.076L266.239 226.22C266.332 226.127 266.391 226.05 266.459 225.957C266.544 225.839 266.616 225.716 266.684 225.593C266.815 225.348 266.916 225.098 266.988 224.848C267.132 224.344 267.289 224.035 267.238 223.565" fill="#F79191"/>
    <mask id="mask1_160_21068" style="mask-type:luminance" maskUnits="userSpaceOnUse" x="259" y="199" width="36" height="35">
      <path d="M259.799 207.166C259.667 208.986 259.553 211.459 259.574 215.228C259.574 215.943 260.125 216.557 260.654 217.04C261.861 218.137 264.033 220.753 262.136 224.166C262.026 224.361 262.056 224.653 262.208 224.818C262.691 225.352 263.834 225.763 265.617 225.11C265.617 225.11 266.447 226.855 267.412 227.647C267.412 227.647 267.374 228.189 268.276 229.002C268.678 229.366 269.055 230.945 269.427 231.403C269.453 231.436 269.495 231.479 269.55 231.525C270.406 232.296 271.697 232.398 272.658 231.758C273.344 231.301 273.988 230.712 274.504 230.378C275.597 229.671 276.638 228.887 277.604 228.019C278.087 227.587 278.552 227.13 278.997 226.656C278.997 226.656 280.081 230.369 279.992 231.885L280.288 233.151L294.93 225.098V224.433L290.247 212.971L268.712 199.519L261.243 205.789C261.243 205.789 259.866 206.217 259.803 207.166" fill="white"/>
    </mask>
    <g mask="url(#mask1_160_21068)">
      <path d="M267.209 227.575C267.209 227.575 267.022 228.333 267.975 228.697C267.975 228.697 270.05 227.545 269.639 225.28L267.209 227.579V227.575Z" fill="#F56D6D"/>
      <path d="M266.624 226.504C266.908 226.385 267.192 226.262 267.463 226.123C267.734 225.983 268.005 225.835 268.263 225.665C268.521 225.5 268.771 225.322 269 225.119C269.224 224.924 269.453 224.687 269.597 224.467L269.614 224.437C269.677 224.344 269.804 224.314 269.897 224.378C269.978 224.433 270.012 224.535 269.978 224.624C269.842 224.984 269.66 225.255 269.457 225.534C269.254 225.809 269.025 226.063 268.788 226.3C268.551 226.542 268.293 226.762 268.03 226.982C267.768 227.194 267.492 227.393 267.217 227.588C266.933 227.787 266.544 227.715 266.349 227.431C266.15 227.147 266.222 226.758 266.506 226.563C266.544 226.537 266.582 226.516 266.62 226.499H266.629L266.624 226.504Z" fill="#EE0000"/>
    </g>
    <mask id="mask2_160_21068" style="mask-type:luminance" maskUnits="userSpaceOnUse" x="216" y="172" width="96" height="108">
      <path d="M311.897 279.148H216.762V172.754H311.897V279.148Z" fill="white"/>
    </mask>
    <g mask="url(#mask2_160_21068)">
      <path d="M244.771 245.973C243.992 245.032 240.092 240.324 239.58 240.066C239.267 239.905 238.682 239.837 237.946 239.752C237.421 239.693 236.824 239.621 236.29 239.511C235.795 239.405 235.215 239.299 234.639 239.193C233.788 239.037 232.907 238.876 232.318 238.723C231.272 238.448 229.507 242.17 228.766 243.86L226.31 245.253C226.234 245.295 226.191 245.38 226.2 245.464C226.208 245.549 226.268 245.621 226.352 245.646L228.838 246.417L228.897 246.426C229.007 246.646 229.109 246.908 229.168 247.234C229.392 248.416 230.265 248.61 231.112 248.797C231.256 248.831 231.404 248.86 231.552 248.898C232.073 249.034 233.58 249.893 234.91 250.647C236.061 251.303 237.145 251.922 237.713 252.15C238.903 252.637 239.529 253.154 239.533 253.158C239.576 253.192 239.627 253.209 239.677 253.209H239.707C239.771 253.2 239.826 253.167 239.86 253.116L244.775 246.231C244.831 246.15 244.826 246.044 244.767 245.973H244.771Z" fill="#FAB6B6"/>
      <path d="M245.224 245.693C245.224 245.693 244.03 244.215 242.768 242.7C242.137 241.942 241.494 241.179 240.969 240.582C240.706 240.286 240.473 240.028 240.287 239.833C240.194 239.736 240.109 239.655 240.037 239.587L239.931 239.494C239.893 239.465 239.859 239.439 239.804 239.41C239.601 239.308 239.385 239.257 239.131 239.206C238.75 239.134 238.293 239.088 237.81 239.028C237.327 238.969 236.819 238.901 236.362 238.804C235.71 238.664 234.939 238.525 234.202 238.385C233.466 238.245 232.767 238.105 232.276 237.974C232.217 237.957 232.153 237.949 232.094 237.949C231.937 237.949 231.802 237.995 231.683 238.059C231.463 238.177 231.285 238.347 231.103 238.55C230.785 238.91 230.468 239.397 230.155 239.93C229.219 241.527 228.355 243.563 228.351 243.572C228.296 243.703 228.308 243.851 228.385 243.97C228.461 244.088 228.592 244.16 228.732 244.16L230.79 244.19C230.934 244.19 231.073 244.118 231.15 243.995L232.466 241.954C232.593 241.76 232.538 241.497 232.339 241.37C232.145 241.243 231.882 241.298 231.755 241.497L230.565 243.339L228.74 243.314V243.737L229.121 243.902C229.121 243.902 229.155 243.822 229.219 243.678C229.443 243.17 230.019 241.895 230.65 240.76C230.963 240.193 231.294 239.659 231.581 239.291C231.725 239.105 231.861 238.961 231.963 238.88C232.013 238.838 232.056 238.813 232.077 238.804L232.098 238.796L232.085 238.741V238.796H232.098L232.085 238.741V238.796V238.664L232.051 238.791H232.085V238.664L232.051 238.791C232.589 238.935 233.296 239.075 234.037 239.215C234.778 239.355 235.545 239.494 236.176 239.63C236.849 239.774 237.569 239.85 238.174 239.922C238.479 239.96 238.75 239.994 238.97 240.036C239.186 240.074 239.356 240.125 239.411 240.159L239.483 240.015L239.394 240.146L239.411 240.155L239.483 240.011L239.394 240.142C239.394 240.142 239.444 240.18 239.504 240.239C239.737 240.46 240.185 240.959 240.706 241.565C241.49 242.475 242.455 243.64 243.221 244.575C243.607 245.041 243.941 245.452 244.178 245.748C244.416 246.04 244.559 246.218 244.559 246.218C244.708 246.4 244.974 246.43 245.157 246.282C245.339 246.134 245.368 245.867 245.22 245.685L245.224 245.693Z" fill="#FAB6B6"/>
      <path d="M231.04 243.398L234.766 243.602L233.275 241.988H231.95L231.04 243.398Z" fill="#EE0000"/>
      <path d="M230.815 244.228L235.197 244.038C235.384 244.029 235.545 243.911 235.604 243.737C235.667 243.563 235.616 243.369 235.477 243.246L233.698 241.675C233.639 241.62 233.559 241.582 233.478 241.569C233.004 241.48 232.699 241.324 232.487 241.163C232.28 241.002 232.17 240.837 232.106 240.722C231.992 240.502 231.717 240.413 231.492 240.532C231.272 240.646 231.183 240.921 231.302 241.146C231.412 241.353 231.602 241.633 231.928 241.882C232.254 242.132 232.708 242.357 233.309 242.463L233.389 242.018L233.089 242.357L234.024 243.187L230.764 243.331C230.514 243.343 230.319 243.555 230.332 243.805C230.345 244.055 230.557 244.249 230.806 244.237L230.815 244.228Z" fill="#F56D6D"/>
      <path d="M239.292 243.902L228.736 243.746L226.136 245.253L228.698 246.062L238.996 246.214C238.996 246.214 240.291 245.719 239.288 243.902H239.292Z" fill="black"/>
      <path d="M239.292 243.902L239.3 243.267L228.744 243.11C228.63 243.11 228.516 243.14 228.418 243.195L225.819 244.702C225.603 244.829 225.48 245.071 225.505 245.321C225.531 245.57 225.704 245.782 225.946 245.858L228.507 246.667C228.562 246.684 228.63 246.697 228.689 246.697L238.987 246.849C239.068 246.849 239.148 246.837 239.224 246.807C239.275 246.786 239.521 246.693 239.783 246.43C239.914 246.299 240.046 246.129 240.147 245.909C240.249 245.689 240.308 245.422 240.308 245.13C240.308 244.673 240.164 244.165 239.847 243.593C239.737 243.394 239.525 243.267 239.3 243.263L239.292 243.898L238.737 244.203C238.979 244.643 239.038 244.944 239.038 245.126C239.038 245.244 239.017 245.321 238.987 245.384C238.949 245.473 238.886 245.537 238.83 245.579L238.767 245.621H238.759L238.881 245.901L238.775 245.621H238.759L238.881 245.901L238.775 245.621L239.004 246.214L239.013 245.579L228.808 245.427L227.703 245.079L228.905 244.381L239.288 244.537L239.296 243.902H239.292Z" fill="black"/>
      <path d="M235.638 247.196L232.31 246.117C232.31 246.117 232.06 245.342 230.269 244.541C228.478 243.741 228.198 245.282 228.198 245.282C228.198 245.282 228.965 245.808 229.202 247.099C229.439 248.39 230.472 248.407 231.497 248.678C232.521 248.949 236.603 251.587 237.882 252.121C239.161 252.654 239.821 253.222 239.821 253.222" fill="#FAB6B6"/>
      <path d="M235.769 246.794L232.441 245.714L232.31 246.116L232.712 245.989C232.695 245.93 232.593 245.672 232.263 245.333C231.933 244.994 231.374 244.571 230.442 244.156C230.032 243.974 229.672 243.889 229.346 243.889C229.032 243.889 228.757 243.97 228.541 244.101C228.215 244.296 228.029 244.575 227.927 244.795C227.821 245.015 227.792 245.185 227.783 245.21C227.754 245.375 227.821 245.541 227.961 245.634L228.105 245.422L227.957 245.629L228.101 245.422L227.953 245.629L227.978 245.646C228.097 245.748 228.605 246.201 228.783 247.175C228.85 247.552 228.986 247.865 229.181 248.111C229.473 248.483 229.871 248.678 230.252 248.801C230.637 248.924 231.027 248.991 231.387 249.085C231.467 249.106 231.632 249.169 231.831 249.262C232.543 249.593 233.732 250.287 234.871 250.948C235.443 251.278 236.002 251.604 236.497 251.879C236.993 252.154 237.408 252.375 237.721 252.506C238.335 252.764 238.801 253.027 239.106 253.221C239.258 253.319 239.372 253.399 239.449 253.459L239.529 253.522L239.546 253.535C239.724 253.687 239.991 253.666 240.143 253.488C240.295 253.31 240.274 253.044 240.096 252.891C240.071 252.87 239.372 252.277 238.043 251.723C237.759 251.604 237.268 251.341 236.692 251.02C235.833 250.533 234.774 249.906 233.834 249.373C233.364 249.106 232.924 248.86 232.543 248.67C232.161 248.475 231.857 248.335 231.598 248.263C231.052 248.123 230.557 248.043 230.231 247.882C230.066 247.802 229.943 247.713 229.845 247.586C229.748 247.459 229.663 247.285 229.612 247.014C229.481 246.298 229.197 245.782 228.943 245.443C228.689 245.104 228.461 244.943 228.435 244.927L228.194 245.274L228.609 245.35L228.372 245.308L228.609 245.354L228.617 245.325C228.634 245.257 228.698 245.083 228.808 244.956C228.863 244.893 228.931 244.838 229.011 244.795C229.092 244.757 229.193 244.728 229.341 244.728C229.519 244.728 229.765 244.774 230.095 244.922C230.95 245.303 231.412 245.668 231.658 245.917C231.78 246.04 231.844 246.138 231.878 246.193L231.907 246.248L232.068 246.184L231.903 246.239V246.252L232.068 246.184L231.903 246.239C231.946 246.37 232.047 246.472 232.174 246.514L235.502 247.594C235.727 247.666 235.964 247.543 236.036 247.323C236.108 247.099 235.985 246.862 235.765 246.79L235.769 246.794Z" fill="#F56D6D"/>
    </g>
    <path d="M235.68 256.804C235.68 256.804 268.491 279.207 276.905 270.277L280.665 263.236L275.935 254.788C275.935 254.788 272.4 261.123 244.504 243.326L235.684 256.8L235.68 256.804Z" fill="#2E2E2E"/>
    <path d="M235.68 256.804L235.32 257.329C235.32 257.329 241.049 261.241 248.341 265.154C251.987 267.11 256.03 269.066 259.96 270.544C263.889 272.018 267.704 273.017 270.952 273.017C272.247 273.017 273.45 272.856 274.538 272.488C275.622 272.119 276.588 271.539 277.367 270.713L277.426 270.65L281.389 263.227L275.935 253.484L275.381 254.475L275.728 254.67L275.393 254.454L275.381 254.475L275.728 254.67L275.393 254.454C275.377 254.479 275.237 254.661 274.826 254.856C274.415 255.047 273.725 255.246 272.603 255.246C270.812 255.246 267.933 254.733 263.47 252.913C259.007 251.092 252.969 247.971 244.843 242.788L244.314 242.45L234.808 256.969L235.32 257.32L235.68 256.795L236.214 257.143L245.034 243.669L244.5 243.322L244.157 243.855C252.329 249.068 258.427 252.227 262.987 254.085C267.547 255.944 270.566 256.512 272.599 256.512C274.043 256.512 274.991 256.22 275.593 255.885C276.194 255.551 276.439 255.178 276.486 255.093L275.931 254.784L275.377 255.093L279.937 263.24L276.342 269.972L276.901 270.273L276.439 269.837C275.817 270.497 275.051 270.963 274.127 271.277C273.209 271.59 272.137 271.738 270.948 271.738C267.962 271.738 264.253 270.794 260.404 269.346C254.624 267.178 248.523 263.905 243.874 261.178C241.549 259.814 239.589 258.586 238.208 257.702C237.518 257.257 236.976 256.901 236.603 256.656C236.417 256.533 236.277 256.435 236.18 256.372C236.083 256.308 236.036 256.275 236.036 256.275L235.676 256.8L235.68 256.804Z" fill="#2E2E2E"/>
    <path d="M269.394 274.385C269.402 273.923 269.411 273.475 269.411 273.038C269.411 269.782 269.157 267.157 269.161 264.942C269.161 263.232 269.309 261.779 269.796 260.42C270.482 258.494 271.739 256.034 273.124 253.607C273.357 253.201 273.213 252.684 272.807 252.451C272.4 252.219 271.883 252.362 271.651 252.769C270.241 255.246 268.949 257.753 268.195 259.853C267.615 261.475 267.463 263.143 267.463 264.942C267.463 267.28 267.717 269.871 267.713 273.038C267.713 273.466 267.708 273.898 267.7 274.347C267.687 274.813 268.06 275.202 268.526 275.211C268.991 275.223 269.381 274.851 269.389 274.385H269.394Z" fill="white"/>
    <path d="M305.389 238.935C309.602 245.435 309.657 254.725 309.657 254.725C310.026 271.59 304.47 293.701 304.47 293.701L265.574 292.52C271.769 274.041 267.158 266.445 269.415 260.136C271.672 253.827 279.353 242.882 279.353 242.882L288.427 232.088L300.232 234.515L305.389 238.935Z" fill="#2E2E2E"/>
    <path d="M285.234 261.589C285.234 261.589 287.546 279.352 284.243 294.121L281.05 293.837C281.05 293.837 285.797 282.781 285.234 261.589Z" fill="black"/>
    <path d="M285.234 261.589L284.603 261.669C284.603 261.669 284.603 261.69 284.612 261.737C284.696 262.414 285.387 268.173 285.387 275.604C285.387 281.265 284.984 287.896 283.625 293.981L284.243 294.12L284.298 293.49L281.106 293.206L281.051 293.837L281.635 294.087C281.665 294.019 285.916 284.081 285.916 265.061C285.916 263.93 285.899 262.766 285.869 261.572L285.234 261.589L284.599 261.606C284.629 262.791 284.646 263.939 284.646 265.061C284.646 274.478 283.595 281.625 282.545 286.41C282.02 288.802 281.499 290.606 281.11 291.804C280.915 292.406 280.754 292.854 280.64 293.151C280.585 293.299 280.538 293.409 280.513 293.481L280.479 293.562L280.471 293.578C280.39 293.769 280.403 293.985 280.509 294.159C280.615 294.332 280.797 294.447 280.996 294.468L284.188 294.751C284.506 294.781 284.794 294.569 284.866 294.256C286.255 288.036 286.657 281.325 286.657 275.604C286.657 267.593 285.865 261.521 285.865 261.504C285.823 261.169 285.522 260.928 285.188 260.953C284.853 260.979 284.595 261.267 284.603 261.606L285.238 261.589H285.234Z" fill="black"/>
    <path d="M278.806 232.512C278.806 232.512 295.574 222.434 296.391 222.218C297.208 222.002 295.396 224.446 298.233 228.316C301.07 232.186 304.013 236.5 305.385 238.939C305.385 238.939 294.011 226.969 279.352 242.89C279.352 242.89 280.055 237.69 278.806 232.516V232.512Z" fill="#EE0000"/>
    <path d="M285.086 280.313L256.284 274.266L259.151 279.906L285.086 280.313Z" fill="#6C6C6C"/>
    <path d="M285.086 280.313L285.217 279.69L256.416 273.644C256.174 273.593 255.929 273.686 255.78 273.881C255.632 274.075 255.607 274.338 255.717 274.554L258.583 280.194C258.689 280.401 258.905 280.537 259.138 280.541L285.073 280.948C285.399 280.952 285.679 280.711 285.712 280.385C285.75 280.058 285.53 279.758 285.213 279.694L285.081 280.317L285.09 279.682L259.536 279.279L257.444 275.164L284.95 280.939L285.081 280.317L285.086 280.313Z" fill="#6C6C6C"/>
    <path d="M232.653 280.626L218.963 252.07L246.859 255.716L256.284 274.266L259.519 280.626" fill="#AAAAAA"/>
    <path d="M233.224 280.351L220.043 252.849L246.444 256.3L255.721 274.55L258.952 280.91C259.113 281.223 259.494 281.346 259.807 281.189C260.12 281.028 260.243 280.647 260.087 280.334L256.856 273.974L247.43 255.428C247.333 255.242 247.155 255.115 246.948 255.085L219.052 251.439C218.82 251.41 218.591 251.507 218.455 251.698C218.32 251.888 218.294 252.134 218.396 252.345L232.085 280.901C232.238 281.219 232.615 281.35 232.932 281.198C233.25 281.045 233.381 280.668 233.229 280.351H233.224Z" fill="#AAAAAA"/>
  </g>
</svg>
