<svg width="44" height="44" viewBox="0 0 44 44" fill="none" xmlns="http://www.w3.org/2000/svg">
  <path d="M30.7301 24.2009H27.3551C27.1727 23.6463 26.9522 23.105 26.6951 22.5809L29.0951 20.1809C29.2483 20.0268 29.3426 19.8239 29.3618 19.6074C29.381 19.3909 29.3238 19.1746 29.2001 18.9959C28.0735 17.3511 26.649 15.9316 25.0001 14.8109C24.8201 14.6832 24.6006 14.6236 24.3808 14.6429C24.1609 14.6621 23.9551 14.7589 23.8001 14.9159L21.4151 17.3009C20.8828 17.0264 20.3314 16.7908 19.7651 16.5959V13.2059C19.7686 12.9893 19.6952 12.7784 19.5579 12.6109C19.4205 12.4433 19.2282 12.3299 19.0151 12.2909C17.0637 11.9076 15.0564 11.9076 13.1051 12.2909C12.8893 12.3328 12.6949 12.4485 12.5553 12.6183C12.4156 12.788 12.3395 13.0011 12.3401 13.2209V16.5809C11.7497 16.7705 11.1733 17.0011 10.6151 17.2709L8.21508 14.8709C8.06094 14.7177 7.85803 14.6233 7.64156 14.6042C7.42509 14.585 7.20875 14.6422 7.03008 14.7659C5.40546 15.8835 4.00181 17.2923 2.89008 18.9209C2.76236 19.1009 2.7028 19.3204 2.72204 19.5402C2.74127 19.76 2.83805 19.9659 2.99508 20.1209L5.38008 22.5059C5.08922 23.0655 4.84345 23.6473 4.64507 24.2459H1.27008C1.05104 24.2482 0.839378 24.3253 0.670213 24.4645C0.501048 24.6036 0.384557 24.7964 0.340075 25.0109C-0.019934 26.9645 -0.019934 28.9674 0.340075 30.9209C0.384557 31.1354 0.501048 31.3282 0.670213 31.4674C0.839378 31.6065 1.05104 31.6836 1.27008 31.6859H4.64507C4.84345 32.2845 5.08922 32.8664 5.38008 33.4259L2.99508 35.7659C2.83805 35.921 2.74127 36.1268 2.72204 36.3466C2.7028 36.5664 2.76236 36.786 2.89008 36.9659C4.00708 38.6053 5.42766 40.0157 7.07508 41.1209C7.25374 41.2446 7.47009 41.3018 7.68656 41.2827C7.90303 41.2635 8.10594 41.1691 8.26008 41.0159L10.6601 38.6159C11.2183 38.8857 11.7947 39.1163 12.3851 39.3059V42.6659C12.3845 42.8857 12.4606 43.0988 12.6003 43.2685C12.7399 43.4383 12.9343 43.554 13.1501 43.5959C14.0905 43.7661 15.0444 43.8514 16.0001 43.8509C17.0075 43.8504 18.0125 43.7499 19.0001 43.5509C19.2132 43.5119 19.4055 43.3985 19.5429 43.2309C19.6802 43.0634 19.7536 42.8525 19.7501 42.6359V39.2459C20.3164 39.051 20.8678 38.8154 21.4001 38.5409L23.7851 40.9259C23.9401 41.0829 24.1459 41.1797 24.3658 41.1989C24.5856 41.2182 24.8051 41.1586 24.9851 41.0309C26.6326 39.9339 28.0618 38.5402 29.2001 36.9209C29.3238 36.7422 29.381 36.5259 29.3618 36.3094C29.3426 36.093 29.2483 35.89 29.0951 35.7359L26.6951 33.3359C26.9522 32.8118 27.1727 32.2705 27.3551 31.7159H30.7301C30.9491 31.7136 31.1608 31.6365 31.3299 31.4974C31.4991 31.3582 31.6156 31.1654 31.6601 30.9509C32.0201 28.9974 32.0201 26.9945 31.6601 25.0409C31.6314 24.8127 31.5217 24.6024 31.351 24.4482C31.1804 24.2941 30.96 24.2063 30.7301 24.2009ZM29.9351 29.7659H26.6501C26.443 29.7664 26.242 29.8361 26.079 29.9638C25.9159 30.0915 25.8002 30.27 25.7501 30.4709C25.512 31.3414 25.1642 32.1781 24.7151 32.9609C24.6124 33.1387 24.5714 33.3454 24.5986 33.5489C24.6257 33.7524 24.7194 33.9412 24.8651 34.0859L27.2051 36.4259C26.4526 37.401 25.5808 38.2778 24.6101 39.0359L22.2851 36.7109C22.1376 36.5641 21.9451 36.471 21.7384 36.4465C21.5317 36.4221 21.3228 36.4676 21.1451 36.5759C20.3573 37.0436 19.5095 37.4019 18.6251 37.6409C18.4269 37.6938 18.2518 37.8108 18.127 37.9736C18.0022 38.1363 17.9347 38.3358 17.9351 38.5409V41.8409C16.7162 42.0137 15.479 42.0137 14.2601 41.8409V38.6009C14.2603 38.3919 14.1912 38.1887 14.0636 38.0232C13.9361 37.8576 13.7572 37.739 13.5551 37.6859C12.6452 37.4591 11.7717 37.1056 10.9601 36.6359C10.7823 36.5332 10.5755 36.4923 10.372 36.5194C10.1685 36.5465 9.97974 36.6402 9.83508 36.7859L7.49508 39.1259C6.52001 38.3734 5.64316 37.5016 4.88508 36.5309L7.21008 34.2059C7.35689 34.0584 7.44999 33.8659 7.47446 33.6592C7.49894 33.4525 7.45338 33.2436 7.34507 33.0659C6.85842 32.2521 6.48974 31.3733 6.25008 30.4559C6.19714 30.2578 6.08019 30.0826 5.91742 29.9579C5.75464 29.8331 5.55518 29.7656 5.35008 29.7659H2.06508C1.88508 28.5425 1.88508 27.2993 2.06508 26.0759H5.35008C5.55518 26.0762 5.75464 26.0088 5.91742 25.884C6.08019 25.7592 6.19714 25.5841 6.25008 25.3859C6.48974 24.4685 6.85842 23.5897 7.34507 22.7759C7.45338 22.5982 7.49894 22.3893 7.47446 22.1826C7.44999 21.9759 7.35689 21.7834 7.21008 21.6359L4.88508 19.3109C5.64316 18.3402 6.52001 17.4684 7.49508 16.7159L9.83508 19.0559C9.97974 19.2016 10.1685 19.2953 10.372 19.3224C10.5755 19.3496 10.7823 19.3086 10.9601 19.2059C11.7717 18.7362 12.6452 18.3828 13.5551 18.1559C13.7572 18.1028 13.9361 17.9842 14.0636 17.8187C14.1912 17.6531 14.2603 17.4499 14.2601 17.2409V13.9709C15.479 13.7982 16.7162 13.7982 17.9351 13.9709V17.2709C17.9347 17.476 18.0022 17.6755 18.127 17.8383C18.2518 18.001 18.4269 18.118 18.6251 18.1709C19.5095 18.4099 20.3573 18.7682 21.1451 19.2359C21.3228 19.3442 21.5317 19.3898 21.7384 19.3653C21.9451 19.3408 22.1376 19.2477 22.2851 19.1009L24.6101 16.7759C25.5808 17.534 26.4526 18.4108 27.2051 19.3859L24.8651 21.7259C24.7194 21.8706 24.6257 22.0594 24.5986 22.2629C24.5714 22.4664 24.6124 22.6731 24.7151 22.8509C25.1642 23.6337 25.512 24.4704 25.7501 25.3409C25.8002 25.5419 25.9159 25.7203 26.079 25.848C26.242 25.9757 26.443 26.0454 26.6501 26.0459H29.9351C30.1151 27.2693 30.1151 28.5125 29.9351 29.7359V29.7659Z" fill="black"/>
  <path d="M16 22.7009C14.9676 22.7009 13.9584 23.0071 13.1 23.5806C12.2415 24.1542 11.5725 24.9695 11.1774 25.9233C10.7823 26.8771 10.6789 27.9267 10.8803 28.9393C11.0817 29.9519 11.5789 30.882 12.3089 31.612C13.039 32.342 13.9691 32.8392 14.9817 33.0406C15.9942 33.242 17.0438 33.1386 17.9976 32.7436C18.9515 32.3485 19.7667 31.6794 20.3403 30.821C20.9139 29.9626 21.22 28.9533 21.22 27.9209C21.22 26.5365 20.6701 25.2088 19.6911 24.2298C18.7122 23.2509 17.3845 22.7009 16 22.7009ZM16 31.2659C15.3385 31.2659 14.6917 31.0697 14.1417 30.7022C13.5916 30.3346 13.1628 29.8122 12.9097 29.201C12.6565 28.5898 12.5902 27.9172 12.7193 27.2683C12.8484 26.6195 13.167 26.0234 13.6348 25.5556C14.1026 25.0878 14.6986 24.7693 15.3475 24.6402C15.9963 24.5111 16.6689 24.5774 17.2801 24.8305C17.8913 25.0837 18.4137 25.5124 18.7813 26.0625C19.1489 26.6126 19.345 27.2593 19.345 27.9209C19.345 28.8081 18.9926 29.6589 18.3653 30.2862C17.738 30.9135 16.8872 31.2659 16 31.2659Z" fill="black"/>
  <path d="M43.7052 10.5209C43.6665 10.3064 43.5537 10.1122 43.3865 9.97242C43.2192 9.8326 43.0082 9.75597 42.7902 9.75591H40.2102C40.0872 9.3923 39.942 9.03662 39.7752 8.69091L41.6052 6.92091C41.7581 6.76715 41.8535 6.56546 41.8754 6.3497C41.8972 6.13393 41.8442 5.91721 41.7252 5.73591C40.8224 4.38354 39.6783 3.20895 38.3502 2.27091C38.1692 2.14608 37.9503 2.08827 37.7313 2.10743C37.5122 2.1266 37.3068 2.22154 37.1502 2.37591L35.3352 4.19091C34.9797 4.0143 34.6141 3.85902 34.2402 3.72591V1.14591C34.2431 0.92712 34.1676 0.714514 34.0272 0.546646C33.8869 0.378777 33.691 0.266761 33.4752 0.23091C31.895 -0.0769701 30.2703 -0.0769701 28.6902 0.23091C28.4743 0.266761 28.2785 0.378777 28.1381 0.546646C27.9978 0.714514 27.9222 0.92712 27.9252 1.14591V3.68091C27.5283 3.80464 27.1421 3.96015 26.7702 4.14591L25.0002 2.31591C24.8464 2.16297 24.6447 2.06757 24.429 2.04572C24.2132 2.02387 23.9965 2.0769 23.8152 2.19591C22.4628 3.09868 21.2882 4.24276 20.3502 5.57091C20.2253 5.75191 20.1675 5.97077 20.1867 6.18981C20.2059 6.40884 20.3008 6.61434 20.4552 6.77091L22.2702 8.58591C21.9822 9.18969 21.7464 9.81697 21.5652 10.4609C21.5058 10.7015 21.5432 10.9558 21.6695 11.169C21.7957 11.3822 22.0007 11.5373 22.2402 11.6009C22.3584 11.6326 22.4817 11.6407 22.603 11.6247C22.7243 11.6087 22.8413 11.5688 22.9472 11.5075C23.0531 11.4462 23.1458 11.3646 23.2201 11.2674C23.2945 11.1701 23.3488 11.0592 23.3802 10.9409C23.5713 10.2253 23.8589 9.53895 24.2352 8.90091C24.3435 8.72319 24.389 8.51427 24.3646 8.3076C24.3401 8.10092 24.247 7.90842 24.1002 7.76091L22.3602 6.02091C22.8971 5.34644 23.5113 4.73728 24.1902 4.20591L25.9302 5.96091C26.0773 6.10781 26.2687 6.20213 26.4747 6.22924C26.6808 6.25636 26.8901 6.21477 27.0702 6.11091C27.6958 5.73825 28.3731 5.46024 29.0802 5.28591C29.2827 5.23631 29.463 5.12116 29.5933 4.95838C29.7235 4.7956 29.7962 4.59433 29.8002 4.38591V1.92591C30.652 1.82109 31.5134 1.82109 32.3652 1.92591V4.41591C32.3641 4.62295 32.431 4.82463 32.5557 4.98994C32.6803 5.15525 32.8558 5.27504 33.0552 5.33091C33.7448 5.51471 34.406 5.7923 35.0202 6.15591C35.1979 6.26421 35.4068 6.30977 35.6135 6.28529C35.8202 6.26082 36.0127 6.16773 36.1602 6.02091L37.9002 4.28091C38.5746 4.81785 39.1838 5.43205 39.7152 6.11091L37.9602 7.85091C37.8133 7.99798 37.719 8.18938 37.6918 8.39547C37.6647 8.60156 37.7063 8.81085 37.8102 8.99091C38.1708 9.59946 38.4435 10.256 38.6202 10.9409C38.6731 11.1391 38.7901 11.3142 38.9528 11.439C39.1156 11.5638 39.3151 11.6312 39.5202 11.6309H41.9802C42.1002 12.4867 42.1002 13.3551 41.9802 14.2109H39.5202C39.3151 14.2106 39.1156 14.2781 38.9528 14.4029C38.7901 14.5276 38.6731 14.7028 38.6202 14.9009C38.4435 15.5859 38.1708 16.2424 37.8102 16.8509C37.7063 17.031 37.6647 17.2403 37.6918 17.4464C37.719 17.6524 37.8133 17.8438 37.9602 17.9909L39.7152 19.7309C39.1838 20.4098 38.5746 21.024 37.9002 21.5609L36.1602 19.8209C36.0127 19.6741 35.8202 19.581 35.6135 19.5565C35.4068 19.5321 35.1979 19.5776 35.0202 19.6859C34.406 20.0495 33.7448 20.3271 33.0552 20.5109C32.8355 20.5942 32.6547 20.7563 32.5481 20.9656C32.4414 21.175 32.4166 21.4165 32.4784 21.6432C32.5402 21.8699 32.6843 22.0654 32.8824 22.1916C33.0806 22.3178 33.3186 22.3657 33.5502 22.3259C34.1663 22.1614 34.7644 21.9353 35.3352 21.6509L37.1502 23.4209C37.237 23.5071 37.34 23.5753 37.4533 23.6217C37.5665 23.668 37.6878 23.6915 37.8102 23.6909C38.002 23.687 38.189 23.6299 38.3502 23.5259C39.6729 22.6057 40.8167 21.4518 41.7252 20.1209C41.8442 19.9396 41.8972 19.7229 41.8754 19.5071C41.8535 19.2914 41.7581 19.0897 41.6052 18.9359L39.7752 17.1059C39.942 16.7602 40.0872 16.4045 40.2102 16.0409H42.7902C43.0082 16.0409 43.2192 15.9642 43.3865 15.8244C43.5537 15.6846 43.6665 15.4904 43.7052 15.2759C44.0051 13.69 44.0051 12.0619 43.7052 10.4759V10.5209Z" fill="black"/>
  <path d="M31 15.4109C30.7718 15.4398 30.5619 15.551 30.4098 15.7236C30.2577 15.8962 30.1738 16.1184 30.1738 16.3484C30.1738 16.5785 30.2577 16.8006 30.4098 16.9732C30.5619 17.1458 30.7718 17.257 31 17.2859C31.8633 17.2859 32.7073 17.0299 33.4251 16.5503C34.1429 16.0706 34.7024 15.3889 35.0327 14.5913C35.3631 13.7937 35.4496 12.9161 35.2811 12.0693C35.1127 11.2226 34.697 10.4448 34.0865 9.83439C33.4761 9.22393 32.6983 8.80821 31.8516 8.63978C31.0049 8.47136 30.1272 8.5578 29.3296 8.88818C28.532 9.21855 27.8503 9.77803 27.3706 10.4958C26.891 11.2137 26.635 12.0576 26.635 12.9209C26.6639 13.1491 26.7751 13.359 26.9477 13.5111C27.1203 13.6632 27.3425 13.7471 27.5725 13.7471C27.8026 13.7471 28.0247 13.6632 28.1973 13.5111C28.3699 13.359 28.4811 13.1491 28.51 12.9209C28.51 12.4284 28.656 11.947 28.9297 11.5375C29.2033 11.1281 29.5921 10.8089 30.0471 10.6205C30.5021 10.432 31.0028 10.3827 31.4858 10.4788C31.9688 10.5748 32.4125 10.812 32.7607 11.1602C33.1089 11.5084 33.3461 11.9521 33.4422 12.4351C33.5382 12.9181 33.4889 13.4188 33.3005 13.8738C33.112 14.3288 32.7929 14.7177 32.3834 14.9913C31.9739 15.2649 31.4925 15.4109 31 15.4109Z" fill="black"/>
</svg>
