<svg width="390" height="320" viewBox="0 0 390 320" fill="none" xmlns="http://www.w3.org/2000/svg">
<g clip-path="url(#clip0_2691_82550)">
<path d="M350.682 141.504C340.435 133.284 329.443 125.714 320.374 116.003C298.429 92.4522 298.194 60.2228 277.426 36.0603C258.032 13.5418 228.942 0.275391 198.792 0.275391C159.848 0.275391 125.929 21.4558 108.577 52.6147C99.0763 76.0126 85.807 97.9193 69.3186 117.303C54.0865 135.234 33.5937 148.079 18.5186 166.125C-23.1735 216.056 11.4521 297.642 77.4058 303.683C106.457 306.359 135.154 296.113 164.166 295.692C185.719 295.387 207.429 297.489 228.039 303.912C248.493 310.297 265.649 319.358 287.869 319.167C344.44 318.67 389.626 274.091 389.469 218.999C389.39 198.163 382.559 177.671 369.997 160.772C364.54 153.317 357.827 147.238 350.682 141.504Z" fill="#38A3A3"/>
<path d="M153.174 48.0307C153.174 48.0307 154.901 46.9985 156.589 47.1896L156.275 49.1012L153.174 48.0307Z" fill="#38A3A3"/>
<path d="M158.512 55.5625C158.512 55.5625 157.059 57.8182 159.14 58.4681Z" fill="#38A3A3"/>
<path d="M158.512 55.5625C158.512 55.5625 157.059 57.8182 159.14 58.4681" stroke="#FDCA90" stroke-width="0.240741" stroke-miterlimit="10" stroke-linecap="round"/>
<path d="M231.689 216.701V258.756C231.689 259.903 231.415 261.012 230.865 262.006L212.217 295.879" fill="#38A3A3"/>
<path d="M231.689 216.701V258.756C231.689 259.903 231.415 261.012 230.865 262.006L212.217 295.879" stroke="#9AD8D8" stroke-width="0.962963" stroke-linecap="round" stroke-linejoin="round"/>
<path d="M227.688 267.746H249.595" stroke="#9AD8D8" stroke-width="0.962963" stroke-linecap="round" stroke-linejoin="round"/>
<path d="M225.566 302.463L227.804 296.652C228.432 295.543 229.609 294.816 230.944 294.816H247.55" fill="#38A3A3"/>
<path d="M225.566 302.463L227.804 296.652C228.432 295.543 229.609 294.816 230.944 294.816H247.55" stroke="#9AD8D8" stroke-width="0.962963" stroke-linecap="round" stroke-linejoin="round"/>
<path d="M212.217 299.094V295.883" stroke="#9AD8D8" stroke-width="0.962963" stroke-linecap="round" stroke-linejoin="round"/>
<path d="M289.794 254.746L274.326 269.962C273.777 270.536 273.227 271.071 272.638 271.606C272.599 272.447 272.599 273.25 272.56 274.091V317.408" fill="#38A3A3"/>
<path d="M289.794 254.746L274.326 269.962C273.777 270.536 273.227 271.071 272.638 271.606C272.599 272.447 272.599 273.25 272.56 274.091V317.408" stroke="#9AD8D8" stroke-width="0.722222" stroke-linecap="round" stroke-linejoin="round"/>
<path d="M289.281 286.516L272.792 302.764" stroke="#9AD8D8" stroke-width="0.962963" stroke-linecap="round" stroke-linejoin="round"/>
<path d="M319.393 279.516L319.275 265.218V263.688H320.767C330.071 263.612 368.78 263.535 378.084 263.459" fill="#38A3A3"/>
<path d="M319.393 279.516L319.275 265.218V263.688H320.767C330.071 263.612 368.78 263.535 378.084 263.459" stroke="#9AD8D8" stroke-width="0.962963" stroke-linecap="round" stroke-linejoin="round"/>
<path d="M231.688 218.728C233.097 218.728 234.24 217.615 234.24 216.243C234.24 214.87 233.097 213.758 231.688 213.758C230.279 213.758 229.136 214.87 229.136 216.243C229.136 217.615 230.279 218.728 231.688 218.728Z" fill="#9AD8D8"/>
<path d="M249.594 270.228C251.003 270.228 252.146 269.115 252.146 267.743C252.146 266.37 251.003 265.258 249.594 265.258C248.184 265.258 247.042 266.37 247.042 267.743C247.042 269.115 248.184 270.228 249.594 270.228Z" fill="#9AD8D8"/>
<path d="M249.594 297.296C251.003 297.296 252.146 296.184 252.146 294.811C252.146 293.439 251.003 292.326 249.594 292.326C248.184 292.326 247.042 293.439 247.042 294.811C247.042 296.184 248.184 297.296 249.594 297.296Z" fill="#9AD8D8"/>
<path d="M289.794 257.453C291.203 257.453 292.346 256.34 292.346 254.967C292.346 253.595 291.203 252.482 289.794 252.482C288.385 252.482 287.242 253.595 287.242 254.967C287.242 256.34 288.385 257.453 289.794 257.453Z" fill="#9AD8D8"/>
<path d="M289.829 289.001C291.238 289.001 292.38 287.889 292.38 286.516C292.38 285.144 291.238 284.031 289.829 284.031C288.419 284.031 287.277 285.144 287.277 286.516C287.277 287.889 288.419 289.001 289.829 289.001Z" fill="#9AD8D8"/>
<path d="M319.392 281.997C320.801 281.997 321.944 280.885 321.944 279.512C321.944 278.14 320.801 277.027 319.392 277.027C317.983 277.027 316.84 278.14 316.84 279.512C316.84 280.885 317.983 281.997 319.392 281.997Z" fill="#9AD8D8"/>
<path d="M306.044 231.805L305.926 246.103V247.556C306.437 247.556 306.947 247.594 307.457 247.594C327.754 247.633 364.46 247.671 384.757 247.709" fill="#38A3A3"/>
<path d="M306.044 231.805L305.926 246.103V247.556C306.437 247.556 306.947 247.594 307.457 247.594C327.754 247.633 364.46 247.671 384.757 247.709" stroke="#9AD8D8" stroke-width="0.962963" stroke-linecap="round" stroke-linejoin="round"/>
<path d="M306.043 234.288C307.453 234.288 308.595 233.176 308.595 231.803C308.595 230.431 307.453 229.318 306.043 229.318C304.634 229.318 303.492 230.431 303.492 231.803C303.492 233.176 304.634 234.288 306.043 234.288Z" fill="#9AD8D8"/>
<path d="M52.4691 259.171C52.4691 259.171 7.56564 228.49 15.8413 170.565H10.4629V150.302H35.9807V84.5433H107.98V49.2936H168.712V73.6472H179.43V44.0176H214.291V94.5218H286.997V61.1072H313.968V116.429H371.127V137.38H390.05V163.645L366.601 163.832L366.361 185.437H349.963L64.647 255.432L52.4691 259.171Z" fill="#B9E5E5"/>
<path d="M40.7187 60.0332H5.07227V94.7477H40.7187V60.0332Z" fill="#38A3A3"/>
<path d="M20.2663 109.85H-0.540527V130.112H20.2663V109.85Z" fill="#B9E5E5"/>
<path d="M41.0729 130.105H20.2661V150.368H41.0729V130.105Z" fill="#38A3A3"/>
<path d="M251.613 6.35156H214.592V42.4041H251.613V6.35156Z" fill="#B9E5E5"/>
<path d="M62.1523 62.707H103.884L125.044 93.0248H81.7422L62.1523 62.707Z" fill="#DBF2F2"/>
<path d="M81.7432 93.0248L62.1534 62.707L41.4644 101.703L61.6038 132.862L81.7432 93.0248Z" fill="#9AD8D8"/>
<path d="M81.7421 93.0293H125.044L104.983 132.867H61.6812L81.7421 93.0293Z" fill="#38A3A3"/>
<path d="M62.1523 62.707H103.884L125.044 93.0248" stroke="#9AD8D8" stroke-width="0.481481" stroke-linecap="round" stroke-linejoin="round"/>
<path d="M125.044 93.0248H81.7422L62.1523 62.707" stroke="#9AD8D8" stroke-width="0.481481" stroke-linecap="round" stroke-linejoin="round"/>
<path d="M81.7416 93.0293L77.7373 100.943" stroke="#9AD8D8" stroke-width="0.481481" stroke-linecap="round" stroke-linejoin="round"/>
<path d="M321.923 22.2579L358.276 21.9902L376.924 48.2172L339.236 48.5231L321.923 22.2579Z" fill="#DBF2F2"/>
<path d="M339.239 48.525L321.926 22.2598L231.868 203.058L263.118 202.828L339.239 48.525Z" fill="#9AD8D8"/>
<path d="M339.24 48.5207L376.928 48.2148L300.806 202.518L263.118 202.824L339.24 48.5207Z" fill="#38A3A3"/>
<path d="M321.923 22.2579L358.276 21.9902L376.924 48.2172" stroke="#9AD8D8" stroke-width="0.481481" stroke-linecap="round" stroke-linejoin="round"/>
<path d="M376.924 48.2191L339.236 48.525L321.923 22.2598" stroke="#DBF2F2" stroke-width="0.481481" stroke-linecap="round" stroke-linejoin="round"/>
<path d="M313.835 99.9766L267.432 193.989" stroke="#38A3A3" stroke-width="0.481481" stroke-linecap="round" stroke-linejoin="round"/>
<path d="M334.447 58.1914L322.434 82.5833" stroke="#38A3A3" stroke-width="0.481481" stroke-linecap="round" stroke-linejoin="round"/>
<path d="M227.862 111.293H264.215L282.627 137.673H244.939L227.862 111.293Z" fill="#DBF2F2"/>
<path d="M244.942 137.673L227.864 111.293L136.314 291.365L170.124 292.317L244.942 137.673Z" fill="#9AD8D8"/>
<mask id="mask0_2691_82550" style="mask-type:luminance" maskUnits="userSpaceOnUse" x="165" y="137" width="118" height="164">
<path d="M244.94 137.68H282.627L205.25 300.084H165.63L244.94 137.68Z" fill="white"/>
</mask>
<g mask="url(#mask0_2691_82550)">
<path d="M350.682 141.504C340.435 133.284 329.443 125.714 320.374 116.003C298.429 92.4522 298.194 60.2228 277.426 36.0603C258.032 13.5418 228.942 0.275391 198.792 0.275391C159.848 0.275391 125.929 21.4558 108.577 52.6147C99.0763 76.0126 85.807 97.9193 69.3186 117.303C54.0865 135.234 33.5937 148.079 18.5186 166.125C-23.1735 216.056 11.4521 297.642 77.4058 303.683C106.457 306.359 135.154 296.113 164.166 295.692C185.719 295.387 207.429 297.489 228.039 303.912C248.493 310.297 265.649 319.358 287.869 319.167C344.44 318.67 389.626 274.091 389.469 218.999C389.39 198.163 382.559 177.671 369.997 160.772C364.54 153.317 357.827 147.238 350.682 141.504Z" fill="#9AD8D8"/>
<path d="M231.689 216.701V258.756C231.689 259.903 231.415 261.012 230.865 262.006L212.217 295.879" fill="#9AD8D8"/>
<path d="M231.689 216.701V258.756C231.689 259.903 231.415 261.012 230.865 262.006L212.217 295.879" stroke="#9AD8D8" stroke-width="0.962963" stroke-linecap="round" stroke-linejoin="round"/>
<path d="M227.688 267.746H249.595" stroke="#9AD8D8" stroke-width="0.962963" stroke-linecap="round" stroke-linejoin="round"/>
<path d="M225.566 302.463L227.804 296.652C228.432 295.543 229.609 294.816 230.944 294.816H247.55" fill="#9AD8D8"/>
<path d="M225.566 302.463L227.804 296.652C228.432 295.543 229.609 294.816 230.944 294.816H247.55" stroke="#9AD8D8" stroke-width="0.962963" stroke-linecap="round" stroke-linejoin="round"/>
<path d="M212.217 299.094V295.883" stroke="#B9E5E5" stroke-width="0.962963" stroke-linecap="round" stroke-linejoin="round"/>
<path d="M289.794 254.746L274.326 269.962C273.777 270.536 273.227 271.071 272.638 271.606C272.599 272.447 272.599 273.25 272.56 274.091V317.408" fill="#9AD8D8"/>
<path d="M289.794 254.746L274.326 269.962C273.777 270.536 273.227 271.071 272.638 271.606C272.599 272.447 272.599 273.25 272.56 274.091V317.408" stroke="#9AD8D8" stroke-width="0.722222" stroke-linecap="round" stroke-linejoin="round"/>
<path d="M289.281 286.516L272.792 302.764" stroke="#9AD8D8" stroke-width="0.962963" stroke-linecap="round" stroke-linejoin="round"/>
<path d="M231.693 218.728C233.102 218.728 234.245 217.615 234.245 216.243C234.245 214.87 233.102 213.758 231.693 213.758C230.284 213.758 229.141 214.87 229.141 216.243C229.141 217.615 230.284 218.728 231.693 218.728Z" fill="#9AD8D8"/>
<path d="M249.594 270.228C251.003 270.228 252.146 269.115 252.146 267.743C252.146 266.37 251.003 265.258 249.594 265.258C248.184 265.258 247.042 266.37 247.042 267.743C247.042 269.115 248.184 270.228 249.594 270.228Z" fill="#9AD8D8"/>
<path d="M249.594 297.296C251.003 297.296 252.146 296.184 252.146 294.811C252.146 293.439 251.003 292.326 249.594 292.326C248.184 292.326 247.042 293.439 247.042 294.811C247.042 296.184 248.184 297.296 249.594 297.296Z" fill="#9AD8D8"/>
</g>
<path d="M227.862 111.293H264.215L282.627 137.673" stroke="#9AD8D8" stroke-width="0.481481" stroke-linecap="round" stroke-linejoin="round"/>
<path d="M282.627 137.673H244.939L227.862 111.293" stroke="#DBF2F2" stroke-width="0.481481" stroke-linecap="round" stroke-linejoin="round"/>
<path d="M219.657 188.951L173.619 284.03" stroke="#38A3A3" stroke-width="0.481481" stroke-linecap="round" stroke-linejoin="round"/>
<path d="M240.349 147.006L228.14 171.283" stroke="#38A3A3" stroke-width="0.481481" stroke-linecap="round" stroke-linejoin="round"/>
<path d="M327.973 99.8281H364.326L382.738 126.246H345.05L327.973 99.8281Z" fill="#DBF2F2"/>
<path d="M345.047 126.246L327.113 99.8281L237.432 269.386H269.946L345.047 126.246Z" fill="#9AD8D8"/>
<path d="M345.047 126.248H382.735L306.916 269.388H269.946L345.047 126.248Z" fill="#38A3A3"/>
<path d="M327.973 99.8281H364.326L382.738 126.246" stroke="#9AD8D8" stroke-width="0.481481" stroke-linecap="round" stroke-linejoin="round"/>
<path d="M382.738 126.246H345.05L327.973 99.8281" stroke="#DBF2F2" stroke-width="0.481481" stroke-linecap="round" stroke-linejoin="round"/>
<path d="M321.008 171.398L272.56 263.457" stroke="#38A3A3" stroke-width="0.481481" stroke-linecap="round" stroke-linejoin="round"/>
<path d="M340.182 134.832L327.348 159.147" stroke="#38A3A3" stroke-width="0.481481" stroke-linecap="round" stroke-linejoin="round"/>
<path d="M239.639 181.717H294.129L321.688 221.248H265.196L239.639 181.717Z" fill="#DBF2F2"/>
<mask id="mask1_2691_82550" style="mask-type:luminance" maskUnits="userSpaceOnUse" x="239" y="181" width="83" height="41">
<path d="M239.639 181.496H294.129L321.688 221.066H265.196L239.639 181.496Z" fill="white"/>
</mask>
<g mask="url(#mask1_2691_82550)">
<path d="M249.491 201.42C249.569 201.458 249.648 201.458 249.726 201.458C249.883 201.458 249.962 201.382 249.962 201.229L249.765 187.236L259.855 186.777C260.326 187.274 261.072 187.58 261.661 187.58C262.407 187.542 262.681 186.968 262.25 186.28C261.818 185.592 260.876 185.095 260.13 185.133C259.541 185.171 259.227 185.554 259.344 186.051L249.687 186.471L249.648 184.139C249.648 183.566 249.451 182.954 249.059 182.342L236.967 162.615C237.399 162.423 237.517 161.965 237.203 161.391C236.81 160.703 235.868 160.206 235.122 160.244C234.376 160.282 234.102 160.856 234.533 161.544C234.847 162.079 235.554 162.538 236.182 162.653L248.234 182.38C248.549 182.877 248.706 183.374 248.706 183.833L248.941 200.923C249.02 201.114 249.216 201.343 249.491 201.42Z" fill="#38A3A3"/>
<path d="M269.946 200.884C270.692 200.846 270.967 200.273 270.574 199.585C270.142 198.896 269.2 198.399 268.454 198.438C267.866 198.476 267.551 198.858 267.669 199.355L258.993 199.737C258.129 199.776 257.619 200.235 257.619 200.923L257.737 215.26C257.737 215.451 257.933 215.68 258.208 215.757C258.287 215.795 258.365 215.795 258.444 215.795C258.601 215.795 258.718 215.718 258.679 215.565L258.561 201.229C258.561 200.77 258.875 200.502 259.425 200.464L268.101 200.082C268.572 200.579 269.318 200.923 269.946 200.884Z" fill="#38A3A3"/>
<path d="M292.204 195.302C292.636 194.92 292.321 194.155 291.576 193.582C291.222 193.314 290.869 193.161 290.476 193.085L286.747 187.236L286.511 186.853H286.904C289.377 186.738 294.52 186.471 299.506 186.241C304.491 186.012 309.634 185.744 312.108 185.63C312.343 185.63 312.422 185.439 312.265 185.247C312.147 185.056 311.833 184.865 311.597 184.903C309.163 185.018 303.981 185.286 299.035 185.515C294.088 185.744 288.906 186.012 286.433 186.127L285.608 186.165C285.373 186.165 285.294 186.356 285.412 186.547L289.613 193.123C289.534 193.161 289.456 193.2 289.416 193.238C288.985 193.62 289.299 194.385 290.045 194.958C290.79 195.532 291.772 195.723 292.204 195.302Z" fill="#38A3A3"/>
<path d="M337.313 210.941L327.734 196.146C327.695 196.069 327.617 195.993 327.538 195.955L326.635 195.266C326.478 195.152 326.321 195.075 326.164 195.113C324.712 195.152 318.941 195.419 313.366 195.649C308.851 195.84 304.258 196.031 301.863 196.107C301.392 195.687 300.686 195.381 300.136 195.419C299.39 195.458 299.115 196.031 299.547 196.719C299.979 197.407 300.921 197.904 301.706 197.866C302.334 197.828 302.648 197.407 302.452 196.872C304.847 196.796 309.44 196.605 313.876 196.413C319.176 196.184 324.672 195.955 326.439 195.916L327.028 196.337L336.293 210.636L311.874 211.706C311.403 211.209 310.618 210.903 310.029 210.903C309.283 210.941 309.008 211.515 309.44 212.203C309.872 212.891 310.814 213.388 311.599 213.35C312.227 213.312 312.502 212.929 312.384 212.432L336.803 211.362L342.221 219.735C342.338 219.926 342.652 220.117 342.888 220.079C343.124 220.041 343.202 219.888 343.084 219.696L337.313 210.941Z" fill="#38A3A3"/>
<path d="M277.209 210.321C276.345 210.016 275.599 210.245 275.599 210.818C275.599 210.895 275.599 211.01 275.638 211.086L269.082 211.43L268.258 211.468C268.022 211.468 267.944 211.66 268.061 211.851L268.533 212.577C269.946 214.795 271.712 217.624 273.44 220.338C275.167 223.053 276.934 225.844 278.347 228.061C278.465 228.252 278.779 228.443 279.014 228.405C279.25 228.405 279.329 228.214 279.211 228.023C277.797 225.805 276.031 223.014 274.303 220.3C272.576 217.586 270.809 214.756 269.396 212.539L269.161 212.195L276.109 211.813C276.384 212.08 276.737 212.31 277.13 212.462C277.994 212.768 278.74 212.539 278.74 211.965C278.779 211.392 278.072 210.666 277.209 210.321Z" fill="#38A3A3"/>
<path d="M297.308 203.673C296.876 204.056 297.19 204.82 297.936 205.394C298.289 205.623 298.643 205.814 298.996 205.891L311.048 224.892L311.284 225.274H310.891C305.395 225.542 302.058 225.695 298.682 225.848C297.269 225.924 295.855 225.963 294.285 226.039L280.113 203.291L283.607 195.683C283.921 195.798 284.235 195.874 284.549 195.874C285.295 195.836 285.57 195.262 285.138 194.574C284.706 193.886 283.764 193.389 283.018 193.427C282.272 193.466 281.997 194.039 282.429 194.727C282.507 194.88 282.625 194.995 282.743 195.11L279.485 202.221L271.24 188.954L270.612 187.922L270.966 187.157L274.106 180.237C274.381 180.314 274.656 180.39 274.891 180.39C275.637 180.352 275.912 179.779 275.48 179.09C275.048 178.402 274.106 177.905 273.36 177.943C272.614 177.982 272.34 178.555 272.771 179.243C272.889 179.435 273.046 179.587 273.203 179.74L270.063 186.699L269.67 187.578C269.631 187.654 269.67 187.731 269.709 187.846L270.455 189.031L293.539 226.116C291.576 226.192 289.338 226.307 286.551 226.421C286.433 226.421 286.355 226.46 286.316 226.536C286.276 226.613 286.316 226.727 286.355 226.804L292.479 236.323C292.597 236.515 292.911 236.668 293.146 236.668C293.382 236.668 293.461 236.476 293.343 236.285L287.454 227.148C292.675 226.918 295.973 226.765 299.231 226.613C302.608 226.46 305.945 226.307 311.441 226.039L312.265 226.001C312.383 226.001 312.461 225.963 312.501 225.886C312.54 225.81 312.501 225.695 312.461 225.619L311.99 224.892L299.938 205.891C300.017 205.853 300.095 205.814 300.174 205.738C300.605 205.356 300.291 204.591 299.546 204.018C298.8 203.444 297.74 203.291 297.308 203.673Z" fill="#38A3A3"/>
</g>
<path d="M265.195 221.248L239.638 181.717L212.668 232.603L238.932 273.205L265.195 221.248Z" fill="#38A3A3"/>
<path d="M265.2 221.252H321.692L295.546 273.209H239.054L265.2 221.252Z" fill="#9AD8D8"/>
<path d="M239.639 181.717H294.129L321.688 221.248" stroke="white" stroke-width="0.481481" stroke-linecap="round" stroke-linejoin="round"/>
<path d="M258.249 235.13L265.197 221.252" stroke="white" stroke-width="0.481481" stroke-linecap="round" stroke-linejoin="round"/>
<mask id="mask2_2691_82550" style="mask-type:luminance" maskUnits="userSpaceOnUse" x="10" y="42" width="381" height="224">
<path d="M57.3921 265.244C49.725 260.202 39.4864 251.993 30.8771 239.388C10.9026 210.145 14.3966 178.757 15.8413 169.244H10.4629V148.982H35.9807V83.2612H107.98V47.9733H168.712V72.3269H179.43V42.6973H214.291V93.2015H286.958V59.8251H313.928V115.146H371.088V136.098H390.011V162.363H369.204L61.2551 259.074L57.3921 265.244Z" fill="white"/>
</mask>
<g mask="url(#mask2_2691_82550)">
<path d="M48.6516 208.529H10.4927V245.691H48.6516V208.529Z" fill="#38A3A3"/>
<path d="M26.4697 235.258H81.4311L84.6738 267.805L26.4697 263.779V235.258Z" fill="#38A3A3"/>
</g>
<path d="M175.454 54.8672C175.454 54.8672 174.433 58.7668 176.553 60.8696C178.673 62.9341 178.006 67.0631 176.435 67.8278C174.865 68.5542 172.195 66.9102 172.195 66.9102L173.177 55.0201L175.454 54.8672Z" fill="black"/>
<path d="M179.656 70.3457L170.47 71.378" stroke="#EE0000" stroke-width="0.722222" stroke-miterlimit="10"/>
<path d="M107.034 161.412C107.034 161.412 106.406 208.988 105.699 211.924L182.959 229.327L176.953 117.281C176.953 117.281 161.367 107.027 157.01 106.045C152.652 105.062 131.806 106.301 131.806 106.301L128.39 108.431L126.663 110.216L115.082 116.811L107.034 161.408V161.412Z" fill="#EE0000"/>
<mask id="mask3_2691_82550" style="mask-type:luminance" maskUnits="userSpaceOnUse" x="105" y="111" width="79" height="117">
<path d="M106.949 165.268C106.949 165.268 106.337 210.095 105.63 212.966L183.031 227.624L176.868 122.766C176.868 122.766 161.282 112.879 156.925 111.935C152.567 110.99 131.721 112.179 131.721 112.179L106.949 165.264V165.268Z" fill="white"/>
</mask>
<g mask="url(#mask3_2691_82550)">
<path d="M107.459 171.668C107.459 171.668 156.061 228.075 185.937 195.093L185.426 234.066L109.069 212.897C109.069 212.897 111.228 203.133 107.459 171.668Z" fill="#A60000"/>
<path d="M186.683 138.478C186.683 138.478 174.277 152.425 143.499 193.49L181.697 174.003L200.227 123.709L186.683 138.478Z" fill="#A60000"/>
</g>
<path d="M133.251 82.0538C133.251 82.0538 134.743 103.884 132.309 106.79L129.089 109.084C129.089 109.084 132.466 117.686 147.815 118.259C163.165 118.833 162.537 109.122 162.537 109.122C162.537 109.122 157.669 107.325 156.884 106.216C156.099 105.108 157.512 94.5556 157.512 94.5556L135.371 80.7539L133.251 82.0538Z" fill="#A66552"/>
<path d="M156.571 107.096C156.571 107.096 156.767 109.16 157.356 110.269" stroke="#40251D" stroke-width="0.481481" stroke-miterlimit="10" stroke-linecap="round"/>
<mask id="mask4_2691_82550" style="mask-type:luminance" maskUnits="userSpaceOnUse" x="128" y="80" width="35" height="48">
<path d="M133.25 82.3518C133.25 82.3518 134.153 108.961 131.719 112.555L128.539 114.543C128.539 114.543 132.504 126.51 147.854 127.236C163.204 127.962 162.576 115.881 162.576 115.881C162.576 115.881 157.708 113.625 156.923 112.249C156.138 110.873 156.923 97.7592 156.923 97.7592L135.37 80.7461L133.25 82.3518Z" fill="white"/>
</mask>
<g mask="url(#mask4_2691_82550)">
<path d="M131.604 84.88L135.686 81.5156L160.458 101.09C160.498 101.09 134.43 103.728 131.604 84.88Z" fill="#724335"/>
</g>
<path d="M135.099 82.3575C135.099 82.3575 134.864 88.2834 136.198 90.0803C137.572 91.9154 151.548 103.538 166.466 99.2177C166.466 99.2177 172.905 97.2296 174.357 78.7637C174.357 78.7637 174.357 60.336 173.494 56.5893L161.284 41.6406L139.771 55.2511C139.771 55.2511 130.231 60.7947 130.113 61.4447C129.996 62.0946 135.099 82.3575 135.099 82.3575Z" fill="#A66552"/>
<path d="M135.097 83.7363C135.097 83.7363 134.665 87.7889 135.921 89.6623C137.884 92.6061 145.579 98.7232 156.571 100.176" stroke="#40251D" stroke-width="0.481481" stroke-miterlimit="10" stroke-linecap="round"/>
<path d="M168.15 74.4766C168.15 74.4766 170.663 77.9557 171.605 79.2173C172.547 80.4789 168.974 83.0022 167.679 82.0847C166.383 81.1671 164.97 81.7024 164.538 82.0082C163.164 82.964 160.809 80.7848 163.518 79.2173" stroke="#40251D" stroke-width="0.481481" stroke-miterlimit="10" stroke-linecap="round"/>
<path d="M118.177 115.238C118.177 115.238 113.819 116.041 104.162 123.917C91.5992 134.163 102.277 169.413 105.3 169.91C108.323 170.407 128.266 163.104 133.252 152.973C133.252 152.973 124.929 139.21 124.615 133.628C124.301 128.046 118.177 115.238 118.177 115.238Z" fill="#EE0000"/>
<path d="M128.738 137.336C128.738 137.336 141.693 155.572 136.589 158.134" stroke="#A60000" stroke-width="0.481481" stroke-miterlimit="10" stroke-linecap="round"/>
<path d="M126.813 112.906C126.813 112.906 131.132 121.852 148.248 122.541" stroke="#A60000" stroke-width="0.481481" stroke-miterlimit="10" stroke-linecap="round"/>
<path d="M150.724 70.7737C150.724 70.7737 156.809 64.4654 159.322 69.9326" stroke="black" stroke-width="0.481481" stroke-miterlimit="10" stroke-linecap="round"/>
<path d="M170.118 69.9307C170.118 69.9307 172.434 67.4839 174.279 69.5102" stroke="black" stroke-width="0.459815" stroke-miterlimit="10" stroke-linecap="round"/>
<path d="M156.373 71.1147C157.371 71.1147 158.179 70.3444 158.179 69.3943C158.179 68.4441 157.371 67.6738 156.373 67.6738C155.376 67.6738 154.567 68.4441 154.567 69.3943C154.567 70.3444 155.376 71.1147 156.373 71.1147Z" fill="black"/>
<path d="M172.392 70.8848C172.999 70.8848 173.491 70.4227 173.491 69.8526C173.491 69.2825 172.999 68.8203 172.392 68.8203C171.785 68.8203 171.293 69.2825 171.293 69.8526C171.293 70.4227 171.785 70.8848 172.392 70.8848Z" fill="black"/>
<path d="M148.682 64.8829C148.682 64.8829 153.55 61.0979 159.007 61.4803C160.263 61.5567 161.363 62.2449 161.637 63.2007C161.755 63.6977 161.637 64.1565 160.734 64.3476C157.044 64.9976 146.013 67.5209 148.682 64.8829Z" fill="black"/>
<path d="M169.918 64.581C169.918 64.581 166.345 63.2046 169.486 62.8988C172.077 62.6312 174.354 63.3958 173.804 64.7339C173.255 66.072 169.918 64.581 169.918 64.581Z" fill="black"/>
<path d="M134.349 91.4165C134.349 91.4165 133.093 91.7606 132.622 89.8108C132.151 87.861 132.19 90.1549 130.58 90.9578C128.971 91.7606 123.71 90.4225 125.712 84.1143C125.712 84.1143 122.964 84.8407 121.747 82.585C120.53 80.3293 123.239 81.8586 123.239 81.8204C123.239 81.7821 125.987 81.8968 124.692 78.5707C123.396 75.2827 121.237 77.6149 119.195 77.0796C117.154 76.5444 116.447 71.3066 119.902 70.0068C119.902 70.0068 116.997 69.7391 116.565 67.9422C116.487 67.5982 116.761 67.3305 117.075 67.407C117.468 67.5217 118.018 67.5599 118.567 67.1776C119.509 66.4894 119.745 64.3484 118.332 63.6985C116.918 63.0486 111.304 54.5611 125.006 49.0175C125.006 49.0175 127.086 47.2206 125.163 43.9327C125.163 43.9327 127.165 42.8622 128.617 45.5384C128.617 45.5384 126.811 39.3831 134.349 36.6686C141.847 33.9542 143.143 37.7391 144.281 38.3126C145.42 38.8861 149.267 39.039 150.209 34.4894C151.152 29.9399 151.858 34.5277 151.701 35.7893C151.701 35.7893 155.313 29.8252 163.714 32.1955C172.115 34.5659 171.134 36.898 171.173 39.9183C171.212 42.9387 171.998 45.3855 176.473 47.0677C180.948 48.7117 181.105 59.0725 175.295 56.7403C175.295 56.7403 176.041 58.1167 174.785 57.8873C173.529 57.6579 171.566 56.7786 170.82 54.0259C170.82 54.0259 170.152 55.861 168.268 56.6639C168.032 56.7786 167.797 56.5109 167.915 56.2815C168.347 55.3257 168.778 53.4524 166.737 51.6555C166.737 51.6555 164.696 53.7582 161.673 53.7582C159.435 53.7582 157.001 50.585 155.902 48.941C155.627 48.5205 155.038 48.5205 154.724 48.9028C154.214 49.591 153.389 50.4321 152.329 50.6997C150.641 51.1203 151.426 52.6878 152.565 52.5731C152.761 52.5731 152.879 52.7642 152.761 52.9172C152.29 53.72 150.955 55.1346 148.325 53.3377C148.325 53.3377 144.36 63.0103 135.684 58.3461C135.684 58.3461 141.533 70.0068 135.723 70.3508C135.723 70.3508 134.388 71.8801 137.333 73.3712C137.333 73.3712 134.82 74.4799 133.996 71.3449C133.132 68.2099 134.31 91.4165 134.349 91.4165Z" fill="black"/>
<path d="M135.06 55.3637C135.06 55.3637 144.403 58.6134 146.209 52.6875" stroke="#292929" stroke-width="0.481481" stroke-miterlimit="10" stroke-linecap="round"/>
<path d="M131.604 68.0189C131.604 68.0189 134.626 70.2746 136.354 68.4395C137.963 66.7573 135.726 61.5195 135.726 61.5195" stroke="#292929" stroke-width="0.481481" stroke-miterlimit="10" stroke-linecap="round"/>
<path d="M159.318 50.9266C159.318 50.9266 162.262 54.788 168.544 49.168" stroke="#292929" stroke-width="0.481481" stroke-miterlimit="10" stroke-linecap="round"/>
<path d="M125.793 50.4336C125.793 50.4336 116.882 53.798 118.373 59.7239C119.865 65.6498 123.084 64.5411 123.241 66.9115C123.359 68.7466 120.533 69.5495 118.57 68.6319" stroke="#292929" stroke-width="0.481481" stroke-miterlimit="10" stroke-linecap="round"/>
<path d="M135.645 53.3029C135.645 53.3029 139.296 54.6027 141.691 52.5" stroke="#292929" stroke-width="0.481481" stroke-miterlimit="10" stroke-linecap="round"/>
<path d="M121.983 70.6218C121.983 70.6218 129.168 71.31 127.676 66.0723" stroke="#292929" stroke-width="0.481481" stroke-miterlimit="10" stroke-linecap="round"/>
<path d="M172.468 161.528C172.468 161.528 174.156 191.77 183.029 196.587C183.029 196.587 191.508 196.51 194.688 190.661C197.868 184.812 191.901 155.373 191.901 155.373L172.468 161.528Z" fill="#A66552"/>
<mask id="mask5_2691_82550" style="mask-type:luminance" maskUnits="userSpaceOnUse" x="172" y="155" width="24" height="42">
<path d="M172.468 161.534C172.468 161.534 174.156 191.776 183.029 196.593C183.029 196.593 191.508 196.516 194.688 190.667C197.868 184.817 191.901 155.379 191.901 155.379L172.468 161.534Z" fill="white"/>
</mask>
<g mask="url(#mask5_2691_82550)">
<path d="M180.793 194.676C180.793 194.676 172.039 172.119 191.04 169.749L188.291 162.332L168.898 169.749C168.898 169.749 176.121 193.032 180.793 194.676Z" fill="#724335"/>
</g>
<path d="M189.352 165.359C189.352 165.359 190.608 168.609 191.001 169.756" stroke="#40251D" stroke-width="0.481481" stroke-miterlimit="10" stroke-linecap="round"/>
<path d="M156.815 77.7665C160.834 76.8866 163.321 72.8332 162.37 68.7131C161.419 64.593 157.39 61.9663 153.371 62.8462C149.351 63.7261 146.864 67.7795 147.815 71.8996C148.767 76.0198 152.796 78.6465 156.815 77.7665Z" stroke="#A60000" stroke-width="0.722222" stroke-miterlimit="10"/>
<path d="M175.618 76.7298C178.537 76.0907 180.29 72.9173 179.534 69.6418C178.778 66.3663 175.799 64.2291 172.879 64.8682C169.96 65.5073 168.207 68.6807 168.963 71.9562C169.719 75.2317 172.698 77.3689 175.618 76.7298Z" stroke="#A60000" stroke-width="0.722222" stroke-miterlimit="10"/>
<path d="M162.576 70.6203C162.576 70.6203 165.795 67.5618 169.053 69.5881" stroke="#A60000" stroke-width="0.722222" stroke-miterlimit="10"/>
<path d="M147.618 70.6211L132.308 72.418" stroke="#A60000" stroke-width="0.722222" stroke-miterlimit="10"/>
<path d="M157.475 77.7354C153.471 78.6148 149.427 76.015 148.485 71.886C147.543 67.757 150.016 63.7044 154.059 62.8633" stroke="#EE0000" stroke-width="0.722222" stroke-miterlimit="10" stroke-linecap="round"/>
<path d="M176.162 116.615H209.296C211.18 116.615 211.847 118.068 212.907 119.597L190.884 163.526C190.059 165.208 188.332 166.317 186.408 166.317L154.923 167.502C152.803 167.502 150.919 164.176 151.861 162.302L173.728 118.145C174.16 117.189 175.102 116.615 176.162 116.615Z" fill="#292929"/>
<path d="M177.34 117.877H210.474C212.359 117.877 213.615 119.789 212.83 121.471L192.062 164.749C191.238 166.431 189.51 167.502 187.587 167.502H155.591C153.471 167.502 152.097 165.361 153.04 163.526L174.906 119.368C175.338 118.45 176.28 117.877 177.34 117.877Z" fill="black"/>
<path d="M198.107 133.732C198.107 133.732 200.423 125.818 196.38 126.009C196.38 126.009 194.495 123.639 192.533 124.824C190.57 126.009 189.824 128.953 189.824 128.953C189.824 128.953 188.371 126.124 186.29 128.341C185.231 129.488 183.542 133.006 182.208 136.179C181.619 137.173 172.315 147.572 172.511 149.178C172.707 150.707 175.612 163.018 175.377 165.388L174.984 167.529L186.801 167.605C186.722 165.77 188.607 163.209 188.607 163.209C192.258 161.412 198.657 138.74 199.128 136.37C199.677 133.923 198.107 133.732 198.107 133.732Z" fill="#292929"/>
<path d="M210.435 117.877C212.319 117.877 213.575 119.789 212.79 121.471L192.023 164.749C191.198 166.431 189.471 167.502 187.547 167.502H155.552C153.432 167.502 152.058 165.361 153 163.526" stroke="#383838" stroke-width="0.240741" stroke-miterlimit="10" stroke-linecap="round"/>
<path d="M153.075 163.526L174.902 119.368C175.334 118.45 176.276 117.877 177.336 117.877H210.47" stroke="white" stroke-width="0.240741" stroke-miterlimit="10" stroke-linecap="round"/>
<path d="M163.637 89.8867C163.637 89.8867 166.149 90.6514 168.191 89.8867" stroke="#40251D" stroke-width="0.481481" stroke-miterlimit="10" stroke-linecap="round"/>
<path d="M158.534 86.7888C158.534 86.7888 160.615 87.6299 164.423 87.1711C168.231 86.7124 169.644 87.3623 170.429 86.5977" stroke="#40251D" stroke-width="0.52" stroke-miterlimit="10" stroke-linecap="round"/>
<path d="M189.898 160.47C193.942 158.788 201.675 136.996 202.382 134.472C203.089 131.949 201.44 131.643 201.44 131.643C201.44 131.643 204.581 123.27 200.184 123.194C200.184 123.194 198.338 120.518 196.14 121.626C193.942 122.735 192.921 125.87 192.921 125.87C192.921 125.87 191.547 122.697 189.191 124.914C186.836 127.132 181.3 138.869 181.3 138.869C181.3 138.869 183.224 132.675 181.457 131.796C178.278 130.19 177.453 136.269 176.746 137.302C176.001 138.296 170.661 147.624 170.779 149.345C170.897 151.065 172.507 157.029 171.761 158.558" fill="#A66552"/>
<path d="M171.839 158.212C171.172 159.626 146.4 185.127 144.948 187.077C144.948 187.077 141.689 184.553 141.14 181.648C140.59 178.742 136.468 160.888 134.152 157.829C134.152 157.829 112.874 151.406 106.514 169.184C106.357 169.643 122.531 203.019 124.965 207.11C127.399 211.163 134.662 218.083 144.948 218.503C155.233 218.924 175.844 177.022 182.282 167.464C182.282 167.464 185.815 164.482 189.78 160.506" fill="#A66552"/>
<path d="M192.571 126.75C192.571 126.75 184.994 141.813 184.523 143.419" stroke="#724335" stroke-width="0.587407" stroke-miterlimit="10" stroke-linecap="round"/>
<path d="M198.26 125.293C198.181 125.599 190.173 142.344 189.898 143.988" stroke="#724335" stroke-width="0.587407" stroke-miterlimit="10" stroke-linecap="round"/>
<path d="M200.304 132.33C200.068 132.559 195.829 141.735 195.357 144.641" stroke="#724335" stroke-width="0.587407" stroke-miterlimit="10" stroke-linecap="round"/>
<path d="M180.987 138.564C180.987 138.564 179.181 141.47 178.553 142.005" stroke="#724335" stroke-width="0.587407" stroke-miterlimit="10" stroke-linecap="round"/>
<path d="M144.596 187.918C144.596 187.918 139.65 192.773 138.04 194.838" stroke="#724335" stroke-width="0.52" stroke-miterlimit="10" stroke-linecap="round"/>
<mask id="mask6_2691_82550" style="mask-type:luminance" maskUnits="userSpaceOnUse" x="106" y="156" width="84" height="63">
<path d="M171.839 158.225C171.172 159.64 146.4 185.141 144.948 187.09C144.948 187.09 141.689 184.567 141.14 181.661C140.59 178.756 136.468 160.902 134.152 157.843C134.152 157.843 112.874 151.42 106.514 169.198C106.357 169.657 122.531 203.033 124.965 207.124C127.399 211.215 134.662 218.096 144.948 218.517C155.233 218.937 171.329 181.012 177.767 171.454C177.767 171.454 186.09 162.087 189.78 160.519" fill="white"/>
</mask>
<g mask="url(#mask6_2691_82550)">
<path d="M108.754 174.197C108.754 174.197 119.314 211.817 162.302 199.698L159.083 207.306L116.37 205.433L108.754 174.197Z" fill="#724335"/>
</g>
<path d="M134.549 73.8714C134.549 73.8714 131.919 69.016 128.072 71.3864C124.499 73.6038 127.169 80.6385 131.723 83.8499C132.508 84.4234 133.607 84.4999 134.432 83.9264C134.903 83.6205 135.413 83.0853 135.767 82.2442" fill="#A66552"/>
<path d="M131.916 74.4381C131.916 74.4381 127.873 73.0617 129.09 77.2672C129.325 78.1465 130.503 78.4906 131.17 77.8025L131.21 77.7642C132.152 76.7702 133.055 77.5348 132.819 78.2995C132.584 79.0259 130.896 78.873 130.778 79.7141C130.66 80.5552 131.602 80.7081 132.309 80.6316" stroke="#40251D" stroke-width="0.481481" stroke-miterlimit="10" stroke-linecap="round"/>
<path d="M167.172 68.9023C167.172 68.9023 168.074 69.0169 168.506 69.3989" stroke="#EE0000" stroke-width="0.722222" stroke-miterlimit="10" stroke-linecap="round"/>
<path d="M97.0908 191.396H169.522L206.189 244.003H131.088L97.0908 191.396Z" fill="#DBF2F2"/>
<mask id="mask7_2691_82550" style="mask-type:luminance" maskUnits="userSpaceOnUse" x="97" y="191" width="110" height="54">
<path d="M97.522 191.928H169.953L206.66 244.535H131.52L97.522 191.928Z" fill="white"/>
</mask>
<g mask="url(#mask7_2691_82550)">
<path d="M91.1236 234.03C91.2414 234.068 91.3199 234.068 91.4377 234.068C91.6339 234.068 91.7517 233.953 91.7517 233.801L90.731 215.679L104.236 215.449C104.903 216.099 105.885 216.558 106.709 216.52C107.73 216.52 108.044 215.755 107.455 214.876C106.866 213.996 105.571 213.27 104.55 213.308C103.725 213.308 103.372 213.805 103.568 214.455L90.6917 214.685L90.4955 211.664C90.4562 210.938 90.1421 210.135 89.5925 209.332L72.3582 183.373C72.9471 183.143 73.0648 182.532 72.5937 181.805C72.0049 180.926 70.7093 180.2 69.7279 180.238C68.7464 180.238 68.3931 181.002 69.0212 181.882C69.4923 182.608 70.4345 183.182 71.2982 183.411L88.5325 209.37C88.9644 210.02 89.1999 210.67 89.2392 211.244L90.4955 233.38C90.4562 233.609 90.7703 233.915 91.1236 234.03Z" fill="#38A3A3"/>
<path d="M118.445 234.064C119.466 234.064 119.78 233.3 119.191 232.42C118.602 231.541 117.307 230.815 116.286 230.853C115.462 230.853 115.108 231.35 115.304 232L103.723 232.191C102.585 232.191 101.917 232.765 101.957 233.682L102.899 252.225C102.899 252.454 103.213 252.76 103.566 252.875C103.684 252.913 103.763 252.913 103.88 252.913C104.077 252.913 104.194 252.798 104.194 252.645L103.213 234.103C103.174 233.529 103.606 233.185 104.351 233.147L115.933 232.956C116.6 233.606 117.621 234.064 118.445 234.064Z" fill="#38A3A3"/>
<path d="M156.408 226.689C156.958 226.191 156.526 225.197 155.466 224.471C154.995 224.127 154.485 223.898 153.974 223.821L148.675 216.098L148.361 215.64H148.871C152.169 215.563 159.039 215.41 165.673 215.257C172.308 215.104 199.985 214.99 203.243 214.875C203.557 214.875 203.636 214.646 203.44 214.378C203.243 214.11 202.851 213.881 202.537 213.881C199.239 213.957 171.641 214.11 164.967 214.263C158.332 214.416 151.423 214.531 148.164 214.645L147.065 214.684C146.751 214.684 146.672 214.913 146.869 215.181L152.875 223.859C152.757 223.898 152.679 223.936 152.6 224.012C152.051 224.509 152.483 225.503 153.543 226.23C154.603 226.994 155.898 227.186 156.408 226.689Z" fill="#38A3A3"/>
<path d="M129.048 197.521C129.205 197.597 129.401 197.636 129.558 197.674L135.408 206.352C135.486 206.467 135.643 206.62 135.8 206.696C135.957 206.773 136.154 206.849 136.311 206.849L180.515 206.161C180.829 206.161 180.908 205.932 180.712 205.664C180.515 205.397 180.123 205.167 179.809 205.167L136.743 205.855H136.232L130.736 197.674C131.05 197.559 131.246 197.33 131.246 196.986C131.246 196.221 130.304 195.227 129.166 194.768C127.988 194.309 127.046 194.577 127.046 195.342C126.967 196.068 127.87 197.062 129.048 197.521Z" fill="#38A3A3"/>
<path d="M219.5 248.486L205.838 229.026C205.759 228.95 205.681 228.835 205.602 228.759L204.346 227.841C204.15 227.688 203.914 227.612 203.718 227.612C201.755 227.612 194.06 227.727 186.601 227.841C180.595 227.918 174.392 227.994 171.251 228.032C170.584 227.459 169.642 227.038 168.896 227.077C167.875 227.077 167.561 227.841 168.189 228.721C168.817 229.6 170.113 230.326 171.133 230.288C171.997 230.288 172.35 229.753 172.076 229.026C175.295 228.988 181.38 228.912 187.347 228.835C194.453 228.721 201.755 228.644 204.11 228.606L204.895 229.179L218.125 248.028L185.502 248.563C184.835 247.913 183.814 247.454 182.989 247.492C181.969 247.492 181.655 248.257 182.244 249.136C182.872 250.016 184.167 250.742 185.188 250.704C186.012 250.704 186.366 250.207 186.169 249.557L218.832 249.022L226.566 260.071C226.762 260.338 227.155 260.568 227.469 260.568C227.783 260.568 227.861 260.338 227.704 260.071L219.5 248.486Z" fill="#38A3A3"/>
<path d="M138.158 188.308C138.315 188.384 138.511 188.423 138.668 188.461L144.557 197.139C144.635 197.254 144.792 197.407 144.949 197.484C145.106 197.56 145.303 197.636 145.46 197.636H146.559C153.743 197.522 158.14 197.445 162.537 197.407C166.934 197.331 171.291 197.292 178.436 197.178C178.75 197.178 178.829 196.948 178.633 196.681C178.436 196.413 178.044 196.184 177.73 196.184C170.585 196.298 166.188 196.375 161.83 196.413C157.433 196.49 153.036 196.528 145.852 196.642H145.342L139.806 188.461C140.12 188.346 140.317 188.117 140.317 187.773C140.317 187.008 139.375 186.014 138.197 185.555C137.019 185.096 136.077 185.364 136.077 186.129C136.038 186.855 136.98 187.849 138.158 188.308Z" fill="#38A3A3"/>
<path d="M105.532 204.437C105.061 203.711 104.119 203.099 103.255 202.908C103.255 202.87 103.216 202.87 103.216 202.831L83.312 173.852C83.1157 173.584 82.7231 173.355 82.4483 173.393C82.1343 173.393 82.0557 173.622 82.252 173.89L102.156 202.87C102.156 202.908 102.195 202.908 102.195 202.946C101.606 203.175 101.489 203.787 101.96 204.514C102.548 205.393 103.844 206.119 104.865 206.081C105.807 206.081 106.16 205.316 105.532 204.437Z" fill="#38A3A3"/>
<path d="M114.717 200.69C115.699 200.69 116.052 199.925 115.424 199.046C114.953 198.32 114.011 197.746 113.108 197.517C113.108 197.479 113.069 197.479 113.069 197.44L96.5016 173.66C96.3054 173.393 95.9128 173.163 95.5987 173.201C95.2847 173.201 95.2061 173.431 95.4024 173.698L111.969 197.517C111.969 197.555 112.009 197.555 112.009 197.593C111.42 197.823 111.302 198.434 111.773 199.161C112.401 200.002 113.697 200.728 114.717 200.69Z" fill="#38A3A3"/>
<path d="M161.082 238.805C160.532 239.302 160.964 240.296 162.024 241.022C162.495 241.366 163.006 241.596 163.477 241.672L180.672 266.676L180.986 267.135H180.436C173.095 267.288 168.62 267.364 164.144 267.44C162.26 267.479 160.375 267.517 158.295 267.555L138.037 237.581L142.277 227.947C142.709 228.138 143.141 228.253 143.534 228.215C144.554 228.215 144.868 227.45 144.28 226.571C143.691 225.691 142.356 224.965 141.374 225.003C140.393 225.041 140.04 225.768 140.629 226.647C140.746 226.838 140.903 226.991 141.06 227.144L137.095 236.243L125.318 218.81L124.415 217.433L124.847 216.439L128.655 207.608C129.008 207.761 129.401 207.837 129.715 207.799C130.735 207.799 131.05 207.034 130.421 206.155C129.833 205.276 128.498 204.549 127.516 204.587C126.535 204.587 126.182 205.352 126.81 206.231C126.967 206.461 127.163 206.69 127.399 206.881L123.591 215.751L123.119 216.898C123.08 216.974 123.119 217.127 123.198 217.242L124.258 218.81L157.235 267.632C154.604 267.67 151.621 267.746 147.931 267.823C147.774 267.823 147.656 267.899 147.616 267.976C147.577 268.09 147.616 268.205 147.695 268.32L156.41 280.86C156.607 281.127 156.999 281.357 157.313 281.319C157.627 281.319 157.706 281.089 157.549 280.822L149.187 268.779C156.175 268.664 160.532 268.549 164.929 268.473C169.405 268.396 173.919 268.282 181.221 268.167L182.321 268.129C182.478 268.129 182.595 268.052 182.635 267.976C182.674 267.899 182.635 267.746 182.556 267.632L181.889 266.676L164.694 241.672C164.812 241.634 164.89 241.558 164.969 241.519C165.518 241.022 165.086 240.028 164.026 239.302C162.927 238.537 161.632 238.308 161.082 238.805Z" fill="#38A3A3"/>
</g>
<path d="M97.0908 191.396H169.522L206.189 244.003" stroke="white" stroke-width="0.481481" stroke-linecap="round" stroke-linejoin="round"/>
<path d="M131.09 244.003L97.0922 191.396L61.2495 259.067L96.1893 313.088L131.09 244.003Z" fill="#B9E5E5"/>
<path d="M131.09 244.002H206.191L171.408 313.087H96.3076L131.09 244.002Z" fill="#9AD8D8"/>
<path d="M206.189 244.003H131.088L97.0908 191.396" stroke="white" stroke-width="0.481481" stroke-linecap="round" stroke-linejoin="round"/>
<path d="M116.094 273.443L96.3076 312.554" stroke="#DBF2F2" stroke-width="0.481481" stroke-linecap="round" stroke-linejoin="round"/>
<path d="M48.7205 169H9.86279V208.895H48.7205V169Z" fill="#B9E5E5"/>
<path d="M22.3738 150.391H2.43457V170.959H22.3738V150.391Z" fill="#B9E5E5"/>
</g>
<defs>
<clipPath id="clip0_2691_82550">
<rect width="390" height="320" fill="white"/>
</clipPath>
</defs>
</svg>
