<?xml version="1.0" encoding="UTF-8"?>
<svg id="Illustration-Gray_60" xmlns="http://www.w3.org/2000/svg" xmlns:xlink="http://www.w3.org/1999/xlink" viewBox="0 0 1080 1080">
  <title>Learning Path illustration - Teal</title>
<desc>learning, ascend, ladder, skills, upskilling, building, ladder</desc>
<metadata><?xpacket begin="﻿" id="W5M0MpCehiHzreSzNTczkc9d"?>
<x:xmpmeta xmlns:x="adobe:ns:meta/" x:xmptk="Adobe XMP Core 8.0-c001 1.000000, 0000/00/00-00:00:00        ">
   <rdf:RDF xmlns:rdf="http://www.w3.org/1999/02/22-rdf-syntax-ns#">
      <rdf:Description rdf:about=""
            xmlns:xmp="http://ns.adobe.com/xap/1.0/"
            xmlns:tiff="http://ns.adobe.com/tiff/1.0/"
            xmlns:dc="http://purl.org/dc/elements/1.1/">
         <xmp:brand-people>yes</xmp:brand-people>
         <xmp:rhcc-file-last-modified>2025-07-07T19:13:50.103Z</xmp:rhcc-file-last-modified>
         <xmp:brand-content-type>Illustration</xmp:brand-content-type>
         <xmp:brand-image-use-case>Full</xmp:brand-image-use-case>
         <xmp:brand-isolated-background>no</xmp:brand-isolated-background>
         <xmp:rhcc-rights-restricted>no</xmp:rhcc-rights-restricted>
         <xmp:brand-colorway>
            <rdf:Bag>
               <rdf:li>colorway:teal</rdf:li>
               <rdf:li>colorway:red</rdf:li>
            </rdf:Bag>
         </xmp:brand-colorway>
         <tiff:ImageWidth>1080</tiff:ImageWidth>
         <tiff:ImageLength>1080</tiff:ImageLength>
         <dc:format>image/svg+xml</dc:format>
         <dc:modified>2025-07-07T19:15:56.643Z</dc:modified>
         <dc:description>
            <rdf:Alt>
               <rdf:li xml:lang="x-default">learning, ascend, ladder, skills, upskilling, building, ladder</rdf:li>
            </rdf:Alt>
         </dc:description>
         <dc:title>
            <rdf:Alt>
               <rdf:li xml:lang="x-default">Learning Path illustration - Teal</rdf:li>
            </rdf:Alt>
         </dc:title>
      </rdf:Description>
   </rdf:RDF>
</x:xmpmeta>
                                                                                                    
                                                                                                    
                                                                                                    
                                                                                                    
                                                                                                    
                                                                                                    
                                                                                                    
                                                                                                    
                                                                                                    
                                                                                                    
                                                                                                    
                                                                                                    
                                                                                                    
                                                                                                    
                                                                                                    
                                                                                                    
                                                                                                    
                                                                                                    
                      
<?xpacket end="w"?></metadata>
<defs>
    <style>
      .cls-1, .cls-2, .cls-3, .cls-4, .cls-5, .cls-6, .cls-7, .cls-8, .cls-9, .cls-10 {
        fill: none;
      }

      .cls-2 {
        stroke: #4d4d4d;
      }

      .cls-2, .cls-3, .cls-4, .cls-11, .cls-5, .cls-12, .cls-6, .cls-7, .cls-10 {
        stroke-width: .63px;
      }

      .cls-2, .cls-3, .cls-4, .cls-5, .cls-12, .cls-6, .cls-7, .cls-13, .cls-8, .cls-14, .cls-10 {
        stroke-linecap: round;
      }

      .cls-2, .cls-3, .cls-4, .cls-5, .cls-12, .cls-7, .cls-13, .cls-8, .cls-14, .cls-10 {
        stroke-linejoin: round;
      }

      .cls-3 {
        stroke: #43adaf;
      }

      .cls-4, .cls-14 {
        stroke: #be0000;
      }

      .cls-11 {
        stroke: #e4f3f4;
      }

      .cls-11, .cls-6, .cls-9 {
        stroke-miterlimit: 10;
      }

      .cls-11, .cls-15 {
        fill: #fff;
      }

      .cls-16 {
        fill: #43adaf;
      }

      .cls-17 {
        fill: #368a8c;
      }

      .cls-18, .cls-13 {
        fill: #8f0000;
      }

      .cls-19 {
        clip-path: url(#clippath-17);
      }

      .cls-20 {
        clip-path: url(#clippath-19);
      }

      .cls-21 {
        clip-path: url(#clippath-11);
      }

      .cls-22 {
        clip-path: url(#clippath-16);
      }

      .cls-23 {
        clip-path: url(#clippath-18);
      }

      .cls-24 {
        clip-path: url(#clippath-10);
      }

      .cls-25 {
        clip-path: url(#clippath-15);
      }

      .cls-26 {
        clip-path: url(#clippath-13);
      }

      .cls-27 {
        clip-path: url(#clippath-14);
      }

      .cls-28 {
        clip-path: url(#clippath-12);
      }

      .cls-29 {
        clip-path: url(#clippath-20);
      }

      .cls-30 {
        clip-path: url(#clippath-21);
      }

      .cls-31 {
        clip-path: url(#clippath-22);
      }

      .cls-32 {
        fill: #1b4546;
      }

      .cls-33 {
        clip-path: url(#clippath-1);
      }

      .cls-34 {
        clip-path: url(#clippath-3);
      }

      .cls-35 {
        clip-path: url(#clippath-4);
      }

      .cls-36 {
        clip-path: url(#clippath-2);
      }

      .cls-37 {
        clip-path: url(#clippath-7);
      }

      .cls-38 {
        clip-path: url(#clippath-6);
      }

      .cls-39 {
        clip-path: url(#clippath-9);
      }

      .cls-40 {
        clip-path: url(#clippath-8);
      }

      .cls-41 {
        clip-path: url(#clippath-5);
      }

      .cls-5 {
        stroke: #fff;
      }

      .cls-12, .cls-7, .cls-8 {
        stroke: #000;
      }

      .cls-6 {
        stroke: #ce8873;
      }

      .cls-42 {
        fill: #e8a997;
      }

      .cls-43 {
        fill: #e4f3f4;
      }

      .cls-13 {
        stroke: #8f0000;
      }

      .cls-13, .cls-14 {
        stroke-width: .59px;
      }

      .cls-8 {
        stroke-width: .78px;
      }

      .cls-44 {
        opacity: .5;
      }

      .cls-9 {
        stroke: #79c4c6;
        stroke-width: .31px;
      }

      .cls-45 {
        fill: #5f0000;
      }

      .cls-14, .cls-46 {
        fill: #be0000;
      }

      .cls-47 {
        fill: #ce8873;
      }

      .cls-48 {
        fill: #2e2e2e;
      }

      .cls-10 {
        stroke: #aedcdd;
      }

      .cls-49 {
        clip-path: url(#clippath);
      }

      .cls-50 {
        fill: #79c4c6;
      }

      .cls-51 {
        fill: #e00;
      }

      .cls-52 {
        fill: #4d4d4d;
      }

      .cls-53 {
        fill: #aedcdd;
      }
    </style>
    <clipPath id="clippath">
      <path class="cls-1" d="M270.29,374.96c43.96-16.93,88.18-33.23,129.91-56.41,68.39-37.99,124.99-85.28,183.39-135.22,50.82-43.45,131.16-55.78,195-33.89,88.21,30.24,143.85,114.67,143.85,201.83,0,6.45-.3,12.83-.86,19.13,0,0,.07,50.18.07,50.18-4.25,94.35,22.57,191.69,79.03,266.96,62.14,82.84,42.46,205.36-42.48,267.55-87.32,63.94-226.4,57.11-322.99,19.07-59.56-23.45-118.35-59.86-185.31-55.04-66.75,4.8-123.53,24.81-191.21,9.52-122.35-27.65-206.24-136.17-214.97-252.2-8.07-107.13,49.53-222.76,153.97-271.4,23.81-11.09,48.17-20.69,72.61-30.1Z"/>
    </clipPath>
    <clipPath id="clippath-1">
      <rect class="cls-1" x="619.46" y="643.24" width="186.43" height="131.44"/>
    </clipPath>
    <clipPath id="clippath-2">
      <rect class="cls-1" x="365.35" y="269.21" width="136.85" height="225.4"/>
    </clipPath>
    <clipPath id="clippath-3">
      <rect class="cls-1" x="42.97" y="337.55" width="186.43" height="131.44"/>
    </clipPath>
    <clipPath id="clippath-4">
      <circle class="cls-51" cx="832.8" cy="438.9" r="37.87"/>
    </clipPath>
    <clipPath id="clippath-5">
      <path class="cls-1" d="M974.66,460.94v117.62h-136.85v-117.62c0-37.79,30.63-68.42,68.42-68.42s68.42,30.63,68.42,68.42Z"/>
    </clipPath>
    <clipPath id="clippath-6">
      <rect class="cls-1" x="787.84" y="839.35" width="136.85" height="225.4"/>
    </clipPath>
    <clipPath id="clippath-7">
      <rect class="cls-1" x="260.37" y="865.9" width="136.85" height="225.4"/>
    </clipPath>
    <clipPath id="clippath-8">
      <path class="cls-1" d="M169.33,643.88v117.62H32.48v-117.62c0-37.79,30.63-68.42,68.42-68.42s68.42,30.63,68.42,68.42Z"/>
    </clipPath>
    <clipPath id="clippath-9">
      <rect class="cls-1" x="260.37" y="602.76" width="186.43" height="131.44"/>
    </clipPath>
    <clipPath id="clippath-10">
      <circle class="cls-1" cx="372.81" cy="280.98" r="48.47"/>
    </clipPath>
    <clipPath id="clippath-11">
      <circle class="cls-1" cx="405.66" cy="317.74" r="23.23"/>
    </clipPath>
    <clipPath id="clippath-12">
      <path class="cls-1" d="M779.16,238.06v163.73h-136.85v-163.73c0-37.79,30.63-68.42,68.42-68.42s68.42,30.63,68.42,68.42Z"/>
    </clipPath>
    <clipPath id="clippath-13">
      <path class="cls-1" d="M270.29,374.96c43.96-16.93,88.18-33.23,129.91-56.41,68.39-37.99,124.99-85.28,183.39-135.22,50.82-43.45,131.16-55.78,195-33.89,88.21,30.24,143.85,114.67,143.85,201.83,0,6.45-.3,12.83-.86,19.13,0,0,.07,50.18.07,50.18-4.25,94.35,22.57,191.69,79.03,266.96,62.14,82.84,42.46,205.36-42.48,267.55-87.32,63.94-226.4,57.11-322.99,19.07-59.56-23.45-118.35-59.86-185.31-55.04-66.75,4.8-123.53,24.81-191.21,9.52-122.35-27.65-206.24-136.17-214.97-252.2-8.07-107.13,49.53-222.76,153.97-271.4,23.81-11.09,48.17-20.69,72.61-30.1Z"/>
    </clipPath>
    <clipPath id="clippath-14">
      <rect class="cls-1" x="619.46" y="643.24" width="186.43" height="131.44"/>
    </clipPath>
    <clipPath id="clippath-15">
      <rect class="cls-1" x="787.84" y="839.35" width="136.85" height="225.4"/>
    </clipPath>
    <clipPath id="clippath-16">
      <path class="cls-1" d="M270.29,374.96c43.96-16.93,88.18-33.23,129.91-56.41,68.39-37.99,124.99-85.28,183.39-135.22,50.82-43.45,131.16-55.78,195-33.89,88.21,30.24,143.85,114.67,143.85,201.83,0,6.45-.3,12.83-.86,19.13,0,0,.07,50.18.07,50.18-4.25,94.35,22.57,191.69,79.03,266.96,62.14,82.84,42.46,205.36-42.48,267.55-87.32,63.94-226.4,57.11-322.99,19.07-59.56-23.45-118.35-59.86-185.31-55.04-66.75,4.8-123.53,24.81-191.21,9.52-122.35-27.65-206.24-136.17-214.97-252.2-8.07-107.13,49.53-222.76,153.97-271.4,23.81-11.09,48.17-20.69,72.61-30.1Z"/>
    </clipPath>
    <clipPath id="clippath-17">
      <path class="cls-1" d="M648.11,598.4l-55.79,50s-49.61,43.41-51.65,65.8c-1.53,16.73,17.31,33.42,29.88,46.3,10,10.24,37.52,40.27,50.5,57.53,6.56-4.39,17.42-10.75,24.86-10.32l-.42-.83s-15.78-32.87-29.58-53.68c-8.26-12.45-20.98-23.57-29.88-30.5h0c0-2.35,1.32-4.49,3.41-5.55,28.76-14.61,69.99-39.61,69.99-39.61,25.85-15.34,23.96-35.21,23.96-35.21l-2.96-54.69-32.33,10.76Z"/>
    </clipPath>
    <clipPath id="clippath-18">
      <path class="cls-1" d="M661.87,608.25s14.11,13.2,14.79,25.61c.68,12.4,1.38,36.26,14.79,37.21,4.34.31,6.93.3,8.4.21.95-.05,1.62-.93,1.43-1.86-1.38-6.69-6.12-32.28-1.51-49.57,5.34-20.03-.35-44.84-2.63-49.62l-35.28,38.01Z"/>
    </clipPath>
    <clipPath id="clippath-19">
      <path class="cls-1" d="M639.24,451.12c1.63.18,3.26-.38,4.42-1.54l1.68-1.68c-.04.27-.66,4.89,2.33,5.24,1.82.21,3.51-1.13,5.39-2.57h0c.08,0,.17,0,.25,0,.12,0,.24,0,.36,0,.15,0,.29,0,.44-.01,1.44.05,2.85.39,4.14.86-3.53,5.95-9.57,16.25-11.41,20.11-.83,1.73-2.55,4.84-4.6,8.41-9.94-1.64-21.34-5.64-24.21-11.01,1.34-5.31,7.68-15.5,7.92-20,3.73.87,8.12,1.62,13.28,2.21Z"/>
    </clipPath>
    <clipPath id="clippath-20">
      <polygon class="cls-1" points="546.5 674.43 572.74 657.55 602.22 803.06 571.5 816.56 530.36 712.81 546.5 674.43"/>
    </clipPath>
    <clipPath id="clippath-21">
      <path class="cls-1" d="M625.35,415.72s3.34,6.89,5.68,7.5c0,0-5.78-1.32-6.89-2.23l1.22-5.27Z"/>
    </clipPath>
    <clipPath id="clippath-22">
      <path class="cls-1" d="M562.56,556.74c-9.93,8.15-23.77,19.62-24.55,34.8,1.04,12.2,3.81,21.95,3.24,37.19-.05,1.25,1.37,2,2.37,1.25,5.03-3.79,16.91-12.04,29.61-15.93,3.79-17.11,4.78-52.06,5.03-69.8-5.21,4.16-10.52,8.22-15.71,12.48Z"/>
    </clipPath>
  </defs>
  <path class="cls-43" d="M270.29,374.96c43.96-16.93,88.18-33.23,129.91-56.41,68.39-37.99,124.99-85.28,183.39-135.22,50.82-43.45,131.16-55.78,195-33.89,88.21,30.24,143.85,114.67,143.85,201.83,0,6.45-.3,12.83-.86,19.13,0,0,.07,50.18.07,50.18-4.25,94.35,22.57,191.69,79.03,266.96,62.14,82.84,42.46,205.36-42.48,267.55-87.32,63.94-226.4,57.11-322.99,19.07-59.56-23.45-118.35-59.86-185.31-55.04-66.75,4.8-123.53,24.81-191.21,9.52-122.35-27.65-206.24-136.17-214.97-252.2-8.07-107.13,49.53-222.76,153.97-271.4,23.81-11.09,48.17-20.69,72.61-30.1Z"/>
  <g class="cls-49">
    <g>
      <g>
        <rect class="cls-53" x="619.77" y="643.55" width="185.8" height="130.81"/>
        <path class="cls-50" d="M805.26,643.87v130.18h-185.18v-130.18h185.18M805.89,643.24h-186.43v131.44h186.43v-131.44h0Z"/>
        <path class="cls-15" d="M805.89,643.24v131.44h-186.43v-131.44h186.43M806.52,642.61h-187.69v132.69h187.69v-132.69h0Z"/>
      </g>
      <g class="cls-44">
        <g class="cls-33">
          <g>
            <path class="cls-9" d="M672.36,648.88c39.34,64.63,48.38,146.87,24.04,218.51"/>
            <path class="cls-9" d="M649.04,695.61c39.34,47.51,48.38,107.97,24.04,160.63"/>
            <path class="cls-9" d="M706.8,573.92c8.67,31.78,4.67,65.55,8.66,98.25,1.76,14.4,5.07,28.57,7.13,42.93,2.03,14.15,2.84,28.45,3.51,42.73,1.88,40.41,2.6,80.88,2.15,121.34"/>
            <path class="cls-9" d="M737.24,567.01c1.7,16.97,2.72,34.02,3.06,51.07.32,16.1.03,32.25,1.81,48.26,1.24,11.19,3.48,22.25,4.79,33.44,1.96,16.8,1.79,33.78,1.44,50.69-.86,41.06-2.82,82.21.4,123.15"/>
            <path class="cls-9" d="M774.87,577.11c.03,35.23.44,70.64,6.2,105.37.3,1.83,2.84,2.03,3.44.28,2-5.79.89-12.89,1.3-19.29.49-7.7,3.43-15,5.74-22.37,5.66-18.09,7.62-37.09,9.55-55.94"/>
            <path class="cls-9" d="M784.1,850.7c-.03-35.23-.44-70.64-6.2-105.37-.3-1.83-2.84-2.03-3.44-.28-2,5.79-.89,12.89-1.3,19.29-.49,7.7-3.43,15-5.74,22.37-5.66,18.09-7.62,37.09-9.55,55.94"/>
            <path class="cls-9" d="M812.78,655.31c-22.07,60.1-24.81,127.13-7.74,188.84"/>
          </g>
        </g>
      </g>
      <g>
        <path class="cls-32" d="M777.4,711.16l-6.28,12.39c-.17.34.07.74.45.74h13.51c.38,0,.63-.4.45-.74l-6.28-12.39h-1.84Z"/>
        <circle class="cls-32" cx="778.32" cy="708.96" r="6.07" transform="translate(-6 1411.27) rotate(-84.17)"/>
      </g>
    </g>
    <path class="cls-15" d="M723.32,809.84c0,25.9,20.99,46.9,46.89,46.9h148.55c20.22,0,36.61-16.39,36.61-36.61s-16.39-36.61-36.61-36.61c-6.6,0-12.79,1.75-18.14,4.8-3.85-33.46-32.28-59.45-66.78-59.45-25.18,0-47.13,13.85-58.64,34.34-1.64-.17-3.31-.27-5-.27-25.9,0-46.89,21-46.89,46.89Z"/>
    <g>
      <g>
        <rect class="cls-53" x="365.66" y="269.52" width="136.22" height="224.77"/>
        <path class="cls-50" d="M501.57,269.83v224.14h-135.59v-224.14h135.59M502.2,269.21h-136.85v225.4h136.85v-225.4h0Z"/>
        <path class="cls-15" d="M502.2,269.21v225.4h-136.85v-225.4h136.85M502.82,268.58h-138.1v226.65h138.1v-226.65h0Z"/>
      </g>
      <g class="cls-44">
        <g class="cls-36">
          <g>
            <path class="cls-9" d="M364.74,307.59c39.34,64.63,48.38,146.87,24.04,218.51"/>
            <path class="cls-9" d="M341.42,354.32c39.34,47.51,48.38,107.97,24.04,160.63"/>
            <path class="cls-9" d="M399.18,232.63c8.67,31.78,4.67,65.55,8.66,98.25,1.76,14.4,5.07,28.57,7.13,42.93,2.03,14.15,2.84,28.45,3.51,42.73,1.88,40.41,2.6,80.88,2.15,121.34"/>
            <path class="cls-9" d="M429.62,225.71c1.7,16.97,2.72,34.02,3.06,51.07.32,16.1.03,32.25,1.81,48.26,1.24,11.19,3.48,22.25,4.79,33.44,1.96,16.8,1.79,33.78,1.44,50.69-.86,41.06-2.82,82.21.4,123.15"/>
            <path class="cls-9" d="M467.25,235.82c.03,35.23.44,70.64,6.2,105.37.3,1.83,2.84,2.03,3.44.28,2-5.79.89-12.89,1.3-19.29.49-7.7,3.43-15,5.74-22.37,5.66-18.09,7.62-37.09,9.55-55.94"/>
            <path class="cls-9" d="M476.48,509.41c-.03-35.23-.44-70.64-6.2-105.37-.3-1.83-2.84-2.03-3.44-.28-2,5.79-.89,12.89-1.3,19.29-.49,7.7-3.43,15-5.74,22.37-5.66,18.09-7.62,37.09-9.55,55.94"/>
            <path class="cls-9" d="M505.16,314.01c-22.07,60.1-24.81,127.13-7.74,188.84"/>
          </g>
        </g>
      </g>
      <g>
        <path class="cls-32" d="M473.7,367.4l-6.28,12.39c-.17.34.07.74.45.74h13.51c.38,0,.63-.4.45-.74l-6.28-12.39h-1.84Z"/>
        <circle class="cls-32" cx="474.63" cy="365.2" r="6.07" transform="translate(63.12 800.29) rotate(-84.17)"/>
      </g>
      <g>
        <path d="M474.63,359.13c-1.97,0-3.71.94-4.82,2.39,1.02-.78,2.29-1.25,3.68-1.25,3.35,0,6.07,2.72,6.07,6.07,0,1.38-.47,2.66-1.25,3.68,1.45-1.11,2.39-2.85,2.39-4.82,0-3.35-2.72-6.07-6.07-6.07Z"/>
        <path d="M481.73,379.58l-4.51-8.9c-.46.22-.96.38-1.48.48l4.75,9.36h.66c.49,0,.8-.51.58-.95Z"/>
      </g>
    </g>
    <g>
      <g>
        <rect class="cls-53" x="43.28" y="337.86" width="185.8" height="130.81"/>
        <path class="cls-50" d="M228.77,338.17v130.18H43.59v-130.18h185.18M229.4,337.55H42.97v131.44h186.43v-131.44h0Z"/>
        <path class="cls-15" d="M229.4,337.55v131.44H42.97v-131.44h186.43M230.02,336.92H42.34v132.69h187.69v-132.69h0Z"/>
      </g>
      <g class="cls-44">
        <g class="cls-34">
          <g>
            <path class="cls-9" d="M96.55,320.94c39.34,64.63,48.38,146.87,24.04,218.51"/>
            <path class="cls-9" d="M73.23,367.67c39.34,47.51,48.38,107.97,24.04,160.63"/>
            <path class="cls-9" d="M130.99,245.98c8.67,31.78,4.67,65.55,8.66,98.25,1.76,14.4,5.07,28.57,7.13,42.93,2.03,14.15,2.84,28.45,3.51,42.73,1.88,40.41,2.6,80.88,2.15,121.34"/>
            <path class="cls-9" d="M161.43,239.06c1.7,16.97,2.72,34.02,3.06,51.07.32,16.1.03,32.25,1.81,48.26,1.24,11.19,3.48,22.25,4.79,33.44,1.96,16.8,1.79,33.78,1.44,50.69-.86,41.06-2.82,82.21.4,123.15"/>
            <path class="cls-9" d="M194.99,278.4c.03,35.23.44,70.64,6.2,105.37.3,1.83,2.84,2.03,3.44.28,2-5.79.89-12.89,1.3-19.29.49-7.7,3.43-15,5.74-22.37,5.66-18.09,7.62-37.09,9.55-55.94"/>
            <path class="cls-9" d="M208.29,540.41c-.03-35.23-.44-70.64-6.2-105.37-.3-1.83-2.84-2.03-3.44-.28-2,5.79-.89,12.89-1.3,19.29-.49,7.7-3.43,15-5.74,22.37-5.66,18.09-7.62,37.09-9.55,55.94"/>
            <path class="cls-9" d="M236.97,327.36c-22.07,60.1-24.81,127.13-7.74,188.84"/>
          </g>
        </g>
      </g>
      <g>
        <path class="cls-32" d="M200.9,405.46l-6.28,12.39c-.17.34.07.74.45.74h13.51c.38,0,.63-.4.45-.74l-6.28-12.39h-1.84Z"/>
        <circle class="cls-32" cx="201.83" cy="403.26" r="6.07" transform="translate(-219.85 563.1) rotate(-84.17)"/>
      </g>
      <g>
        <path d="M201.83,397.19c-1.97,0-3.71.94-4.82,2.39,1.02-.78,2.29-1.25,3.68-1.25,3.35,0,6.07,2.72,6.07,6.07,0,1.38-.47,2.66-1.25,3.68,1.45-1.11,2.39-2.85,2.39-4.82,0-3.35-2.72-6.07-6.07-6.07Z"/>
        <path d="M208.93,417.65l-4.51-8.9c-.46.22-.96.38-1.48.48l4.75,9.36h.66c.49,0,.8-.51.58-.95Z"/>
      </g>
    </g>
    <g>
      <circle class="cls-16" cx="832.8" cy="438.9" r="37.87"/>
      <g>
        <circle class="cls-51" cx="832.8" cy="438.9" r="37.87"/>
        <g class="cls-35">
          <path class="cls-46" d="M823.98,583.17c.09-6.59.17-13.18.26-19.77.19-14.35.37-28.69.56-43.04.19-14.87.61-29.75.65-44.62.01-5.81-.1-11.56.69-17.34.77-5.63,2.13-11.17,4.05-16.51,2.06-5.71,4.76-11.2,8.06-16.3.94-1.46,2.22-3.37,3.66-5.22.59-.76.77-1.76.46-2.67-.76-2.26-2.16-6.63-2.67-9.36-.76-4.1-.14-8.38,1.48-12.2,1.5-3.53,2.14-7.36,3.5-10.94,2.4-6.32,6.02-13.18,12.85-15.47,1.29-.43,2.64-.68,4-.78,13.85-.96,25.94,7.85,29.69,20.5,5.2-1.09,10.54-1.61,15.93-1.54,40.13.5,72.11,33.82,72.11,73.95v121.3h-155.29Z"/>
        </g>
      </g>
      <circle cx="816.5" cy="376.75" r="4.9"/>
      <g>
        <path class="cls-53" d="M838.13,578.25v-117.31c0-37.56,30.55-68.11,68.11-68.11s68.11,30.55,68.11,68.11v117.31h-136.22Z"/>
        <path class="cls-50" d="M906.24,393.15c37.38,0,67.8,30.41,67.8,67.8v116.99h-135.59v-116.99c0-37.38,30.41-67.8,67.8-67.8M906.24,392.52c-37.79,0-68.42,30.63-68.42,68.42v117.62h136.85v-117.62c0-37.79-30.63-68.42-68.42-68.42h0Z"/>
        <path class="cls-15" d="M906.24,392.52c37.79,0,68.42,30.63,68.42,68.42v117.62h-136.85v-117.62c0-37.79,30.63-68.42,68.42-68.42M906.24,391.89c-38.07,0-69.05,30.98-69.05,69.05v118.25h138.1v-118.25c0-38.07-30.98-69.05-69.05-69.05h0Z"/>
      </g>
      <g class="cls-44">
        <g class="cls-41">
          <g>
            <path class="cls-9" d="M838.02,413.92c39.34,64.63,48.38,146.87,24.04,218.51"/>
            <path class="cls-9" d="M814.7,460.65c39.34,47.51,48.38,107.97,24.04,160.63"/>
            <path class="cls-9" d="M872.46,338.97c8.67,31.78,4.67,65.55,8.66,98.25,1.76,14.4,5.07,28.57,7.13,42.93,2.03,14.15,2.84,28.45,3.51,42.73,1.88,40.41,2.6,80.88,2.15,121.34"/>
            <path class="cls-9" d="M902.9,332.05c1.7,16.97,2.72,34.02,3.06,51.07.32,16.1.03,32.25,1.81,48.26,1.24,11.19,3.48,22.25,4.79,33.44,1.96,16.8,1.79,33.78,1.44,50.69-.86,41.06-2.82,82.21.4,123.15"/>
            <path class="cls-9" d="M940.53,342.15c.03,35.23.44,70.64,6.2,105.37.3,1.83,2.84,2.03,3.44.28,2-5.79.89-12.89,1.3-19.29.49-7.7,3.43-15,5.74-22.37,5.66-18.09,7.62-37.09,9.55-55.94"/>
            <path class="cls-9" d="M949.76,615.74c-.03-35.23-.44-70.64-6.2-105.37-.3-1.83-2.84-2.03-3.44-.28-2,5.79-.89,12.89-1.3,19.29-.49,7.7-3.43,15-5.74,22.37-5.66,18.09-7.62,37.09-9.55,55.94"/>
            <path class="cls-9" d="M978.44,420.35c-22.07,60.1-24.81,127.13-7.74,188.84"/>
          </g>
        </g>
      </g>
      <g>
        <path class="cls-32" d="M946.17,506.39l-6.28,12.39c-.17.34.07.74.45.74h13.51c.38,0,.63-.4.45-.74l-6.28-12.39h-1.84Z"/>
        <circle class="cls-32" cx="947.09" cy="504.19" r="6.07" transform="translate(349.34 1395.2) rotate(-84.17)"/>
      </g>
    </g>
    <g>
      <g>
        <rect class="cls-53" x="788.15" y="839.67" width="136.22" height="224.77"/>
        <path class="cls-50" d="M924.05,839.98v224.14h-135.59v-224.14h135.59M924.68,839.35h-136.85v225.4h136.85v-225.4h0Z"/>
        <path class="cls-15" d="M924.68,839.35v225.4h-136.85v-225.4h136.85M925.31,838.73h-138.1v226.65h138.1v-226.65h0Z"/>
      </g>
      <g class="cls-44">
        <g class="cls-38">
          <g>
            <path class="cls-9" d="M786.19,850.3c39.34,64.63,48.38,146.87,24.04,218.51"/>
            <path class="cls-9" d="M762.88,897.03c39.34,47.51,48.38,107.97,24.04,160.63"/>
            <path class="cls-9" d="M820.63,775.34c8.67,31.78,4.67,65.55,8.66,98.25,1.76,14.4,5.07,28.57,7.13,42.93,2.03,14.15,2.84,28.45,3.51,42.73,1.88,40.41,2.6,80.88,2.15,121.34"/>
            <path class="cls-9" d="M851.07,768.42c1.7,16.97,2.72,34.02,3.06,51.07.32,16.1.03,32.25,1.81,48.26,1.24,11.19,3.48,22.25,4.79,33.44,1.96,16.8,1.79,33.78,1.44,50.69-.86,41.06-2.82,82.21.4,123.15"/>
            <path class="cls-9" d="M884.63,795.48c.03,35.23.44,70.64,6.2,105.37.3,1.83,2.84,2.03,3.44.28,2-5.79.89-12.89,1.3-19.29.49-7.7,3.43-15,5.74-22.37,5.66-18.09,7.62-37.09,9.55-55.94"/>
            <path class="cls-9" d="M897.93,1069.77c-.03-35.23-.44-70.64-6.2-105.37-.3-1.83-2.84-2.03-3.44-.28-2,5.79-.89,12.89-1.3,19.29-.49,7.7-3.43,15-5.74,22.37-5.66,18.09-7.62,37.09-9.55,55.94"/>
            <path class="cls-9" d="M926.61,856.72c-22.07,60.1-24.81,127.13-7.74,188.84"/>
          </g>
        </g>
      </g>
      <g>
        <path class="cls-32" d="M896.19,937.54l-6.28,12.39c-.17.34.07.74.45.74h13.51c.38,0,.63-.4.45-.74l-6.28-12.39h-1.84Z"/>
        <circle class="cls-32" cx="897.11" cy="935.35" r="6.07" transform="translate(-124.49 1732.85) rotate(-84.17)"/>
      </g>
    </g>
    <g>
      <g>
        <rect class="cls-53" x="260.68" y="866.22" width="136.22" height="224.77"/>
        <path class="cls-50" d="M396.59,866.53v224.14h-135.59v-224.14h135.59M397.22,865.9h-136.85v225.4h136.85v-225.4h0Z"/>
        <path class="cls-15" d="M397.22,865.9v225.4h-136.85v-225.4h136.85M397.84,865.27h-138.1v226.65h138.1v-226.65h0Z"/>
      </g>
      <g class="cls-44">
        <g class="cls-37">
          <g>
            <path class="cls-9" d="M258.3,885.3c39.34,64.63,48.38,146.87,24.04,218.51"/>
            <path class="cls-9" d="M234.99,932.03c39.34,47.51,48.38,107.97,24.04,160.63"/>
            <path class="cls-9" d="M292.74,810.34c8.67,31.78,4.67,65.55,8.66,98.25,1.76,14.4,5.07,28.57,7.13,42.93,2.03,14.15,2.84,28.45,3.51,42.73,1.88,40.41,2.6,80.88,2.15,121.34"/>
            <path class="cls-9" d="M323.19,803.43c1.7,16.97,2.72,34.02,3.06,51.07.32,16.1.03,32.25,1.81,48.26,1.24,11.19,3.48,22.25,4.79,33.44,1.96,16.8,1.79,33.78,1.44,50.69-.86,41.06-2.82,82.21.4,123.15"/>
            <path class="cls-9" d="M356.74,830.49c.03,35.23.44,70.64,6.2,105.37.3,1.83,2.84,2.03,3.44.28,2-5.79.89-12.89,1.3-19.29.49-7.7,3.43-15,5.74-22.37,5.66-18.09,7.62-37.09,9.55-55.94"/>
            <path class="cls-9" d="M370.04,1104.78c-.03-35.23-.44-70.64-6.2-105.37-.3-1.83-2.84-2.03-3.44-.28-2,5.79-.89,12.89-1.3,19.29-.49,7.7-3.43,15-5.74,22.37-5.66,18.09-7.62,37.09-9.55,55.94"/>
            <path class="cls-9" d="M398.72,891.73c-22.07,60.1-24.81,127.13-7.74,188.84"/>
          </g>
        </g>
      </g>
      <g>
        <path class="cls-32" d="M368.72,969.63l-6.28,12.39c-.17.34.07.74.45.74h13.51c.38,0,.63-.4.45-.74l-6.28-12.39h-1.84Z"/>
        <circle class="cls-32" cx="369.64" cy="967.43" r="6.07" transform="translate(-630.31 1236.93) rotate(-84.17)"/>
      </g>
    </g>
    <g>
      <path class="cls-15" d="M153.99,529.18c-4.17,0-8.2.65-11.99,1.84-9.12-17.58-27.17-29.55-47.95-29.55-23.12,0-42.85,14.81-50.68,35.68-14.78.5-27.35,9.9-32.78,23.14-2.07-.54-4.23-.83-6.46-.83-14.35,0-25.99,11.92-25.99,26.62s11.63,26.63,25.99,26.63h149.86c22.51,0,40.76-18.7,40.76-41.77s-18.25-41.77-40.76-41.77"/>
      <g>
        <path class="cls-53" d="M32.8,761.18v-117.31c0-37.56,30.55-68.11,68.11-68.11s68.11,30.55,68.11,68.11v117.31H32.8Z"/>
        <path class="cls-50" d="M100.9,576.08c37.38,0,67.8,30.41,67.8,67.8v116.99H33.11v-116.99c0-37.38,30.41-67.8,67.8-67.8M100.9,575.46c-37.79,0-68.42,30.63-68.42,68.42v117.62h136.85v-117.62c0-37.79-30.63-68.42-68.42-68.42h0Z"/>
        <path class="cls-15" d="M100.9,575.46c37.79,0,68.42,30.63,68.42,68.42v117.62H32.48v-117.62c0-37.79,30.63-68.42,68.42-68.42M100.9,574.83c-38.07,0-69.05,30.98-69.05,69.05v118.25h138.1v-118.25c0-38.07-30.98-69.05-69.05-69.05h0Z"/>
      </g>
      <g class="cls-44">
        <g class="cls-40">
          <g>
            <path class="cls-9" d="M33.49,609.21c39.34,64.63,48.38,146.87,24.04,218.51"/>
            <path class="cls-9" d="M10.18,655.94c39.34,47.51,48.38,107.97,24.04,160.63"/>
            <path class="cls-9" d="M67.93,534.26c8.67,31.78,4.67,65.55,8.66,98.25,1.76,14.4,5.07,28.57,7.13,42.93,2.03,14.15,2.84,28.45,3.51,42.73,1.88,40.41,2.6,80.88,2.15,121.34"/>
            <path class="cls-9" d="M98.38,527.34c1.7,16.97,2.72,34.02,3.06,51.07.32,16.1.03,32.25,1.81,48.26,1.24,11.19,3.48,22.25,4.79,33.44,1.96,16.8,1.79,33.78,1.44,50.69-.86,41.06-2.82,82.21.4,123.15"/>
            <path class="cls-9" d="M131.93,554.4c.03,35.23.44,70.64,6.2,105.37.3,1.83,2.84,2.03,3.44.28,2-5.79.89-12.89,1.3-19.29.49-7.7,3.43-15,5.74-22.37,5.66-18.09,7.62-37.09,9.55-55.94"/>
            <path class="cls-9" d="M145.23,828.69c-.03-35.23-.44-70.64-6.2-105.37-.3-1.83-2.84-2.03-3.44-.28-2,5.79-.89,12.89-1.3,19.29-.49,7.7-3.43,15-5.74,22.37-5.66,18.09-7.62,37.09-9.55,55.94"/>
            <path class="cls-9" d="M173.91,615.64c-22.07,60.1-24.81,127.13-7.74,188.84"/>
          </g>
        </g>
      </g>
      <g>
        <path class="cls-32" d="M140.83,689.33l-6.28,12.39c-.17.34.07.74.45.74h13.51c.38,0,.63-.4.45-.74l-6.28-12.39h-1.84Z"/>
        <circle class="cls-32" cx="141.76" cy="687.13" r="6.07" transform="translate(-556.22 758.39) rotate(-84.17)"/>
      </g>
      <g>
        <path d="M141.76,681.06c-1.97,0-3.71.94-4.82,2.39,1.02-.78,2.29-1.25,3.68-1.25,3.35,0,6.07,2.72,6.07,6.07,0,1.38-.47,2.66-1.25,3.68,1.45-1.11,2.39-2.85,2.39-4.82,0-3.35-2.72-6.07-6.07-6.07Z"/>
        <path d="M148.86,701.51l-4.51-8.9c-.46.22-.96.38-1.48.48l4.75,9.36h.66c.49,0,.8-.51.58-.95Z"/>
      </g>
    </g>
    <g>
      <path d="M778.32,702.89c-1.97,0-3.71.94-4.82,2.39,1.02-.78,2.29-1.25,3.68-1.25,3.35,0,6.07,2.72,6.07,6.07,0,1.38-.47,2.66-1.25,3.68,1.45-1.11,2.39-2.85,2.39-4.82,0-3.35-2.72-6.07-6.07-6.07Z"/>
      <path d="M785.42,723.34l-4.51-8.9c-.46.22-.96.38-1.48.48l4.75,9.36h.66c.49,0,.8-.51.58-.95Z"/>
    </g>
    <g>
      <path d="M897.11,929.28c-1.97,0-3.71.94-4.82,2.39,1.02-.78,2.29-1.25,3.68-1.25,3.35,0,6.07,2.72,6.07,6.07,0,1.38-.47,2.66-1.25,3.68,1.45-1.11,2.39-2.85,2.39-4.82,0-3.35-2.72-6.07-6.07-6.07Z"/>
      <path d="M904.21,949.73l-4.51-8.9c-.46.22-.96.38-1.48.48l4.75,9.36h.66c.49,0,.8-.51.58-.95Z"/>
    </g>
  </g>
  <g>
    <g>
      <rect class="cls-53" x="260.68" y="603.07" width="185.8" height="130.81"/>
      <path class="cls-50" d="M446.17,603.39v130.18h-185.18v-130.18h185.18M446.8,602.76h-186.43v131.44h186.43v-131.44h0Z"/>
      <path class="cls-15" d="M446.8,602.76v131.44h-186.43v-131.44h186.43M447.43,602.13h-187.69v132.69h187.69v-132.69h0Z"/>
    </g>
    <g class="cls-44">
      <g class="cls-39">
        <g>
          <path class="cls-9" d="M303.53,559.7c39.34,64.63,56.34,196.38,32,268.02"/>
          <path class="cls-9" d="M277.06,585.68c39.34,47.51,59.5,178.24,35.16,230.9"/>
          <path class="cls-9" d="M345.93,534.26c8.67,31.78,4.67,65.55,8.66,98.25,1.76,14.4,5.07,28.57,7.13,42.93,2.03,14.15,2.84,28.45,3.51,42.73,1.88,40.41,2.6,80.88,2.15,121.34"/>
          <path class="cls-9" d="M376.37,527.34c1.7,16.97,2.72,34.02,3.06,51.07.32,16.1.03,32.25,1.81,48.26,1.24,11.19,3.48,22.25,4.79,33.44,1.96,16.8,1.79,33.78,1.44,50.69-.86,41.06-2.82,82.21.4,123.15"/>
          <path class="cls-9" d="M414,537.44c.03,35.23.44,70.64,6.2,105.37.3,1.83,2.84,2.03,3.44.28,2-5.79.89-12.89,1.3-19.29.49-7.7,3.43-15,5.74-22.37,5.66-18.09,7.62-37.09,9.55-55.94"/>
          <path class="cls-9" d="M423.23,811.03c-.03-35.23-.44-70.64-6.2-105.37-.3-1.83-2.84-2.03-3.44-.28-2,5.79-.89,12.89-1.3,19.29-.49,7.7-3.43,15-5.74,22.37-5.66,18.09-7.62,37.09-9.55,55.94"/>
          <path class="cls-9" d="M290.62,773.73c7.72-30.84,7.72-67.97-6.2-105.37-.65-1.74-2.84-2.03-3.44-.28-2,5.79-.89,12.89-1.3,19.29-.49,7.7-3.43,15-5.74,22.37-5.66,18.09-7.62,37.09-9.55,55.94"/>
          <path class="cls-9" d="M451.91,615.64c-22.07,60.1-24.81,127.13-7.74,188.84"/>
          <path class="cls-9" d="M250.63,616.49c13.06,7.61,18.99,22.9,28.43,34.8,1.04,1.31,3.15.41,2.95-1.25-.26-2.04-.7-4.08-1.14-6.09-2.58-11.78-5.17-23.62-9.6-34.84s-10.82-21.88-19.96-29.75"/>
        </g>
      </g>
    </g>
    <g>
      <path class="cls-32" d="M418.31,670.68l-6.28,12.39c-.17.34.07.74.45.74h13.51c.38,0,.63-.4.45-.74l-6.28-12.39h-1.84Z"/>
      <circle class="cls-32" cx="419.23" cy="668.48" r="6.07" transform="translate(-288.36 1017.67) rotate(-84.17)"/>
    </g>
    <g>
      <path d="M419.23,662.41c-1.97,0-3.71.94-4.82,2.39,1.02-.78,2.29-1.25,3.68-1.25,3.35,0,6.07,2.72,6.07,6.07,0,1.38-.47,2.66-1.25,3.68,1.45-1.11,2.39-2.85,2.39-4.82,0-3.35-2.72-6.07-6.07-6.07Z"/>
      <path d="M426.33,682.86l-4.51-8.9c-.46.22-.96.38-1.48.48l4.75,9.36h.66c.49,0,.8-.51.58-.95Z"/>
    </g>
  </g>
  <path class="cls-11" d="M1012.26,552.97c0,23.16-18.77,41.93-41.92,41.93h-132.81c-18.08,0-32.73-14.66-32.73-32.73s14.66-32.73,32.73-32.73c5.9,0,11.43,1.56,16.22,4.29,3.44-29.92,28.86-53.15,59.7-53.15,22.51,0,42.14,12.38,52.43,30.7,1.46-.16,2.96-.24,4.47-.24,23.16,0,41.92,18.77,41.92,41.92Z"/>
  <circle class="cls-51" cx="372.81" cy="280.98" r="48.47"/>
  <g class="cls-24">
    <path class="cls-46" d="M458.55,374.68c0,17.5-13.99,31.74-31.18,31.74h-131.88c-24.36,0-44.18-20.21-44.18-45.06s19.82-45.07,44.18-45.07c2.19,0,4.36.17,6.5.49,3.88-5.79,8.72-10.73,14.24-14.63l-5.08-7.65s13.13-13.47,13.19-13.52c-.4.41,1.25,3.4,1.45,3.75,3.1,5.55,9.77,8.04,15.86,7.93,6.07-.1,11.56-.88,17.57.52,5.92,1.38,11.9,3.6,18.07,2.93,4.21-.45,8.13-2.28,11.64-4.58,3.62-2.38,7.02-3.85,11.09-5.41,7.19-2.76,15.11-6.14,17.6-14.15.66-2.1.83-4.33.59-6.52-.14-1.31-.31-5.74-1.98-6.05l30.98,5.83-9.47,11.94c5.34,3.3,9.06,9.01,9.64,15.53.73,8.47-3.77,16.01-10.63,19.72.3,1.75.45,3.53.45,5.32,0,9.52-4.25,18.27-11.23,24.13.22.55.21.53.43,1.1.32,0,.65-.02.98-.02,17.19,0,31.18,14.24,31.18,31.73Z"/>
  </g>
  <circle cx="427.11" cy="294.51" r="12.04"/>
  <circle class="cls-15" cx="405.66" cy="317.74" r="23.23"/>
  <g class="cls-21">
    <path class="cls-43" d="M455.78,374.68c0,15.98-12.74,28.97-28.4,28.97h-131.89c-22.83,0-41.41-18.98-41.41-42.29s18.58-42.3,41.41-42.3c2.64,0,5.26.26,7.84.77,9.76-15.62,26.59-25.15,44.92-25.15s35.18,9.75,44.87,25.1c2.49,3.95,6.34,6.79,10.75,8.31,8.82,3.04,16.36,9.34,21,17.74.84-.08,1.67-.12,2.52-.12,15.66,0,28.4,13,28.4,28.96Z"/>
  </g>
  <circle class="cls-43" cx="442.3" cy="254.5" r="4.9"/>
  <circle cx="299.98" cy="302.59" r="3.14"/>
  <circle class="cls-16" cx="346.09" cy="211.17" r="8.19"/>
  <g>
    <g>
      <path class="cls-15" d="M871.71,189.84c0,37.72-30.57,68.3-68.3,68.3h-216.36c-29.45,0-53.33-23.88-53.33-53.33s23.88-53.32,53.33-53.32c9.61,0,18.63,2.54,26.42,6.99,5.61-48.74,47.02-86.58,97.26-86.58,36.68,0,68.65,20.17,85.41,50.02,2.39-.25,4.82-.39,7.28-.39,37.72,0,68.3,30.58,68.3,68.3Z"/>
      <path class="cls-43" d="M718.66,246.49c-53.45-30.15-79.93-93.92-59.14-142.42,4.47-10.44,10.78-19.32,18.44-26.53-34.54,12.27-60.16,43.37-64.49,80.96-7.79-4.45-16.81-6.99-26.42-6.99-29.45,0-53.33,23.87-53.33,53.32s23.88,53.33,53.33,53.33h159.69c-9.4-2.58-18.84-6.45-28.08-11.66Z"/>
      <path class="cls-10" d="M871.71,189.84c0,37.72-30.57,68.3-68.3,68.3h-216.36c-29.45,0-53.33-23.88-53.33-53.33s23.88-53.32,53.33-53.32c9.61,0,18.63,2.54,26.42,6.99,5.61-48.74,47.02-86.58,97.26-86.58,36.68,0,68.65,20.17,85.41,50.02,2.39-.25,4.82-.39,7.28-.39,37.72,0,68.3,30.58,68.3,68.3Z"/>
      <path class="cls-10" d="M753.12,143.63c12.48-13.58,30.4-22.09,50.3-22.09,37.72,0,68.3,30.58,68.3,68.3"/>
      <path class="cls-10" d="M620.52,207.93c-4.95-11.71-7.69-24.59-7.69-38.11,0-54.07,43.83-97.9,97.9-97.9"/>
    </g>
    <circle class="cls-15" cx="544.77" cy="231.33" r="33.93"/>
    <path class="cls-5" d="M521.02,231.33c0-13.12,10.63-23.75,23.75-23.75"/>
    <circle class="cls-51" cx="836.57" cy="259.55" r="24.24"/>
    <circle class="cls-11" cx="788.69" cy="298.22" r="53.68"/>
    <circle class="cls-51" cx="568.94" cy="261.4" r="13.6"/>
    <circle class="cls-51" cx="535.73" cy="127.47" r="19.43"/>
    <path class="cls-5" d="M522.46,130.47c-.22-.97-.33-1.97-.33-3,0-7.51,6.09-13.6,13.6-13.6"/>
    <circle class="cls-15" cx="619.95" cy="231.51" r="4.9"/>
    <circle class="cls-15" cx="865.71" cy="301.97" r="4.9"/>
    <circle cx="582.54" cy="97.04" r="4.9"/>
    <circle class="cls-16" cx="500.88" cy="183.19" r="3.14"/>
    <g>
      <g>
        <path class="cls-53" d="M642.62,401.47v-163.41c0-37.56,30.55-68.11,68.11-68.11s68.11,30.55,68.11,68.11v163.41h-136.22Z"/>
        <path class="cls-50" d="M710.73,170.27c37.38,0,67.8,30.41,67.8,67.8v163.1h-135.59v-163.1c0-37.38,30.41-67.8,67.8-67.8M710.73,169.64c-37.79,0-68.42,30.63-68.42,68.42v163.73h136.85v-163.73c0-37.79-30.63-68.42-68.42-68.42h0Z"/>
        <path class="cls-15" d="M710.73,169.64c37.79,0,68.42,30.63,68.42,68.42v163.73h-136.85v-163.73c0-37.79,30.63-68.42,68.42-68.42M710.73,169.01c-38.07,0-69.05,30.98-69.05,69.05v164.35h138.1v-164.35c0-38.07-30.98-69.05-69.05-69.05h0Z"/>
      </g>
      <g class="cls-44">
        <g class="cls-28">
          <g>
            <path class="cls-9" d="M644.17,218.03c39.34,64.63,48.38,146.87,24.04,218.51"/>
            <path class="cls-9" d="M620.86,264.76c39.34,47.51,48.38,107.97,24.04,160.63"/>
            <path class="cls-9" d="M678.61,143.07c8.67,31.78,4.67,65.55,8.66,98.25,1.76,14.4,5.07,28.57,7.13,42.93,2.03,14.15,2.84,28.45,3.51,42.73,1.88,40.41,2.6,80.88,2.15,121.34"/>
            <path class="cls-9" d="M709.05,136.16c1.7,16.97,2.72,34.02,3.06,51.07.32,16.1.03,32.25,1.81,48.26,1.24,11.19,3.48,22.25,4.79,33.44,1.96,16.8,1.79,33.78,1.44,50.69-.86,41.06-2.82,82.21.4,123.15"/>
            <path class="cls-9" d="M742.61,163.22c.03,35.23.44,70.64,6.2,105.37.3,1.83,2.84,2.03,3.44.28,2-5.79.89-12.89,1.3-19.29.49-7.7,3.43-15,5.74-22.37,5.66-18.09,7.62-37.09,9.55-55.94"/>
            <path class="cls-9" d="M755.91,437.5c-.03-35.23-.44-70.64-6.2-105.37-.3-1.83-2.84-2.03-3.44-.28-2,5.79-.89,12.89-1.3,19.29-.49,7.7-3.43,15-5.74,22.37-5.66,18.09-7.62,37.09-9.55,55.94"/>
            <path class="cls-9" d="M784.59,224.46c-22.07,60.1-24.81,127.13-7.74,188.84"/>
          </g>
        </g>
      </g>
      <g>
        <path class="cls-32" d="M750.66,290.89l-6.28,12.39c-.17.34.07.74.45.74h13.51c.38,0,.63-.4.45-.74l-6.28-12.39h-1.84Z"/>
        <circle class="cls-32" cx="751.58" cy="288.69" r="6.07" transform="translate(388.07 1007.08) rotate(-84.17)"/>
      </g>
      <g>
        <path d="M751.58,282.62c-1.97,0-3.71.94-4.82,2.39,1.02-.78,2.29-1.25,3.68-1.25,3.35,0,6.07,2.72,6.07,6.07,0,1.38-.47,2.66-1.25,3.68,1.45-1.11,2.39-2.85,2.39-4.82,0-3.35-2.72-6.07-6.07-6.07Z"/>
        <path d="M758.68,303.07l-4.51-8.9c-.46.22-.96.38-1.48.48l4.75,9.36h.66c.49,0,.8-.51.58-.95Z"/>
      </g>
    </g>
  </g>
  <path class="cls-50" d="M851.49,419.89c4.35,4.14,10.23,6.69,16.71,6.69,13.39,0,24.24-10.85,24.24-24.24,0-2.85-.49-5.57-1.4-8.11-16.06,3.64-29.98,12.92-39.55,25.66Z"/>
  <circle class="cls-15" cx="863.59" cy="397.73" r="24.24"/>
  <path class="cls-11" d="M295.48,324.61c3.67,0,7.22.57,10.56,1.62,8.03-15.47,23.91-26.01,42.2-26.01,20.35,0,37.71,13.04,44.6,31.4,13,.44,24.07,8.71,28.85,20.37,1.82-.48,3.73-.73,5.69-.73,12.63,0,22.87,10.49,22.87,23.43s-10.24,23.43-22.87,23.43h-131.89c-19.81,0-35.87-16.46-35.87-36.76s16.06-36.76,35.87-36.76"/>
  <g class="cls-26">
    <g>
      <g>
        <rect class="cls-53" x="619.77" y="643.55" width="185.8" height="130.81"/>
        <path class="cls-50" d="M805.26,643.87v130.18h-185.18v-130.18h185.18M805.89,643.24h-186.43v131.44h186.43v-131.44h0Z"/>
        <path class="cls-15" d="M805.89,643.24v131.44h-186.43v-131.44h186.43M806.52,642.61h-187.69v132.69h187.69v-132.69h0Z"/>
      </g>
      <g class="cls-44">
        <g class="cls-27">
          <g>
            <path class="cls-9" d="M672.36,648.88c39.34,64.63,48.38,146.87,24.04,218.51"/>
            <path class="cls-9" d="M649.04,695.61c39.34,47.51,48.38,107.97,24.04,160.63"/>
            <path class="cls-9" d="M706.8,573.92c8.67,31.78,4.67,65.55,8.66,98.25,1.76,14.4,5.07,28.57,7.13,42.93,2.03,14.15,2.84,28.45,3.51,42.73,1.88,40.41,2.6,80.88,2.15,121.34"/>
            <path class="cls-9" d="M737.24,567.01c1.7,16.97,2.72,34.02,3.06,51.07.32,16.1.03,32.25,1.81,48.26,1.24,11.19,3.48,22.25,4.79,33.44,1.96,16.8,1.79,33.78,1.44,50.69-.86,41.06-2.82,82.21.4,123.15"/>
            <path class="cls-9" d="M774.87,577.11c.03,35.23.44,70.64,6.2,105.37.3,1.83,2.84,2.03,3.44.28,2-5.79.89-12.89,1.3-19.29.49-7.7,3.43-15,5.74-22.37,5.66-18.09,7.62-37.09,9.55-55.94"/>
            <path class="cls-9" d="M784.1,850.7c-.03-35.23-.44-70.64-6.2-105.37-.3-1.83-2.84-2.03-3.44-.28-2,5.79-.89,12.89-1.3,19.29-.49,7.7-3.43,15-5.74,22.37-5.66,18.09-7.62,37.09-9.55,55.94"/>
            <path class="cls-9" d="M812.78,655.31c-22.07,60.1-24.81,127.13-7.74,188.84"/>
          </g>
        </g>
      </g>
      <g>
        <path class="cls-32" d="M777.4,711.16l-6.28,12.39c-.17.34.07.74.45.74h13.51c.38,0,.63-.4.45-.74l-6.28-12.39h-1.84Z"/>
        <circle class="cls-32" cx="778.32" cy="708.96" r="6.07" transform="translate(-6 1411.27) rotate(-84.17)"/>
      </g>
    </g>
    <path class="cls-15" d="M723.32,809.84c0,25.9,20.99,46.9,46.89,46.9h148.55c20.22,0,36.61-16.39,36.61-36.61s-16.39-36.61-36.61-36.61c-6.6,0-12.79,1.75-18.14,4.8-3.85-33.46-32.28-59.45-66.78-59.45-25.18,0-47.13,13.85-58.64,34.34-1.64-.17-3.31-.27-5-.27-25.9,0-46.89,21-46.89,46.89Z"/>
    <g>
      <g>
        <rect class="cls-53" x="788.15" y="839.67" width="136.22" height="224.77"/>
        <path class="cls-50" d="M924.05,839.98v224.14h-135.59v-224.14h135.59M924.68,839.35h-136.85v225.4h136.85v-225.4h0Z"/>
        <path class="cls-15" d="M924.68,839.35v225.4h-136.85v-225.4h136.85M925.31,838.73h-138.1v226.65h138.1v-226.65h0Z"/>
      </g>
      <g class="cls-44">
        <g class="cls-25">
          <g>
            <path class="cls-9" d="M786.19,850.3c39.34,64.63,48.38,146.87,24.04,218.51"/>
            <path class="cls-9" d="M762.88,897.03c39.34,47.51,48.38,107.97,24.04,160.63"/>
            <path class="cls-9" d="M820.63,775.34c8.67,31.78,4.67,65.55,8.66,98.25,1.76,14.4,5.07,28.57,7.13,42.93,2.03,14.15,2.84,28.45,3.51,42.73,1.88,40.41,2.6,80.88,2.15,121.34"/>
            <path class="cls-9" d="M851.07,768.42c1.7,16.97,2.72,34.02,3.06,51.07.32,16.1.03,32.25,1.81,48.26,1.24,11.19,3.48,22.25,4.79,33.44,1.96,16.8,1.79,33.78,1.44,50.69-.86,41.06-2.82,82.21.4,123.15"/>
            <path class="cls-9" d="M884.63,795.48c.03,35.23.44,70.64,6.2,105.37.3,1.83,2.84,2.03,3.44.28,2-5.79.89-12.89,1.3-19.29.49-7.7,3.43-15,5.74-22.37,5.66-18.09,7.62-37.09,9.55-55.94"/>
            <path class="cls-9" d="M897.93,1069.77c-.03-35.23-.44-70.64-6.2-105.37-.3-1.83-2.84-2.03-3.44-.28-2,5.79-.89,12.89-1.3,19.29-.49,7.7-3.43,15-5.74,22.37-5.66,18.09-7.62,37.09-9.55,55.94"/>
            <path class="cls-9" d="M926.61,856.72c-22.07,60.1-24.81,127.13-7.74,188.84"/>
          </g>
        </g>
      </g>
      <g>
        <path class="cls-32" d="M896.19,937.54l-6.28,12.39c-.17.34.07.74.45.74h13.51c.38,0,.63-.4.45-.74l-6.28-12.39h-1.84Z"/>
        <circle class="cls-32" cx="897.11" cy="935.35" r="6.07" transform="translate(-124.49 1732.85) rotate(-84.17)"/>
      </g>
    </g>
    <g>
      <path d="M778.32,702.89c-1.97,0-3.71.94-4.82,2.39,1.02-.78,2.29-1.25,3.68-1.25,3.35,0,6.07,2.72,6.07,6.07,0,1.38-.47,2.66-1.25,3.68,1.45-1.11,2.39-2.85,2.39-4.82,0-3.35-2.72-6.07-6.07-6.07Z"/>
      <path d="M785.42,723.34l-4.51-8.9c-.46.22-.96.38-1.48.48l4.75,9.36h.66c.49,0,.8-.51.58-.95Z"/>
    </g>
    <g>
      <path d="M897.11,929.28c-1.97,0-3.71.94-4.82,2.39,1.02-.78,2.29-1.25,3.68-1.25,3.35,0,6.07,2.72,6.07,6.07,0,1.38-.47,2.66-1.25,3.68,1.45-1.11,2.39-2.85,2.39-4.82,0-3.35-2.72-6.07-6.07-6.07Z"/>
      <path d="M904.21,949.73l-4.51-8.9c-.46.22-.96.38-1.48.48l4.75,9.36h.66c.49,0,.8-.51.58-.95Z"/>
    </g>
  </g>
  <g class="cls-22">
    <g>
      <path class="cls-32" d="M641.88,1016.78l-74.42-344.09-2.81-12.98c-.06-.43-.09-.88-.09-1.33,0-5.26,4.27-9.53,9.53-9.53h11.29-13.57c-7.55,0-15.3,5.16-16.2,12.99-.55,4.75.16,9.36,1.16,13.98.36,1.65.71,3.3,1.07,4.95.51,2.34,1.01,4.69,1.52,7.03.64,2.98,1.29,5.96,1.93,8.94.77,3.56,1.54,7.11,2.31,10.67.88,4.07,1.76,8.14,2.64,12.22.98,4.53,1.96,9.06,2.94,13.59,1.07,4.92,2.13,9.85,3.2,14.77,1.14,5.26,2.28,10.52,3.41,15.78,1.2,5.54,2.4,11.08,3.59,16.61s2.49,11.51,3.73,17.26c1.28,5.91,2.56,11.82,3.84,17.74,1.3,6.01,2.6,12.02,3.9,18.03,1.31,6.05,2.62,12.09,3.92,18.14,1.3,6.02,2.61,12.05,3.91,18.07,1.29,5.94,2.57,11.88,3.86,17.82,1.25,5.8,2.51,11.6,3.76,17.4,1.21,5.6,2.42,11.19,3.63,16.79,1.15,5.34,2.31,10.67,3.46,16.01,1.08,5.01,2.17,10.03,3.25,15.04,1,4.63,2,9.27,3.01,13.9.91,4.19,1.81,8.38,2.72,12.57.8,3.69,1.6,7.38,2.39,11.07.68,3.13,1.35,6.26,2.03,9.39.54,2.51,1.09,5.02,1.63,7.53l1.19,5.48.71,3.26c.06.3.13.6.19.89h11.36Z"/>
      <path class="cls-42" d="M696.89,881.78s1.53,15.29,6.9,21.68l-31.94,8.22-6.22-33.51,31.26,3.61Z"/>
      <path class="cls-53" d="M668.06,898.13c10.65,8.1,25.2,3.66,30.56,3.41l2.52-4.23c.92-1.54,3.21-1.36,3.87.3l.17.66c1.05,10.78,7.3,22,12.92,32.14,0,0,.02.02.02.03h0s1.75,8.98-52.37,13.58c0,0-12.82,1.53-21.44,1.69-7.91.14-15.14.28-19.84-4.91-.76-.84-.98-2.04-.54-3.09l2.13-5.1c.43-1.03,1.26-1.83,2.3-2.22,3.13-1.19,9.99-3.9,13.47-5.99,4.6-2.76,21.52-11.75,22.85-24.37l3.37-1.9Z"/>
      <path class="cls-3" d="M668.06,898.13c10.65,8.1,25.2,3.66,30.56,3.41"/>
      <path class="cls-3" d="M698.63,914.43s-.43-2.56-.49-5.96c-.07-3.92,1-7.78,3.01-11.15h0c.92-1.54,3.21-1.36,3.87.3l.17.66c1.05,10.78,7.3,22,12.92,32.14,0,0,.02.02.02.03h0s1.75,8.98-52.37,13.58c0,0-12.82,1.53-21.44,1.69-7.91.14-15.14.28-19.84-4.91-.76-.84-.98-2.04-.54-3.09l2.13-5.1c.43-1.03,1.26-1.83,2.3-2.22,3.13-1.19,9.99-3.9,13.47-5.99,4.6-2.76,21.52-11.75,22.85-24.37"/>
      <path class="cls-15" d="M718.13,930.45h0s-.02-.04-.02-.04c-.77-1.39-1.55-2.8-2.33-4.23-4.28,3.03-16.31,7.59-50.02,10.46,0,0-12.82,1.53-21.44,1.69-7.41.13-14.24.26-18.93-4h-.04s-1.42,3.37-1.42,3.37c-.44,1.05-.22,2.25.54,3.09,4.69,5.19,11.93,5.05,19.84,4.91,8.61-.15,21.44-1.69,21.44-1.69,54.12-4.6,52.37-13.57,52.37-13.57Z"/>
      <path class="cls-3" d="M718.13,930.45h0s-.02-.04-.02-.04c-.77-1.39-1.55-2.8-2.33-4.23-4.28,3.03-16.31,7.59-50.02,10.46,0,0-12.82,1.53-21.44,1.69-7.41.13-14.24.26-18.93-4h-.04s-1.42,3.37-1.42,3.37c-.44,1.05-.22,2.25.54,3.09,4.69,5.19,11.93,5.05,19.84,4.91,8.61-.15,21.44-1.69,21.44-1.69,54.12-4.6,52.37-13.57,52.37-13.57Z"/>
      <path d="M632.49,659.7l-20.53,32.33,20.53,60.2,15.07,30.42c.65,1.31,5.31,12.96,8.38,24.23,2.59,9.53,4.91,25.48,6.67,41.71,1.06,9.76,3.02,11.95,3.02,29.57,0,0-.16,6.49-.16,6.49,10.9,2.61,27.7,1.94,32.56,1.6.89-.06,1.54-.85,1.45-1.74-.92-8.4.3-43.08.3-61.32,0-11.81-5.1-23.9-9.94-35-9.59-21.99-11.03-46.07-14.75-69.55-1.77-11.21-5.49-22.03-7.17-33.23-1.84-12.29,7.05-20.92,7.05-20.92l-42.49-4.8Z"/>
      <polygon points="641.88 750.83 630.52 763.1 655.87 837.33 675.55 833.41 641.88 750.83"/>
      <path class="cls-42" d="M648.11,806.23c-7.04-2.04-18.82,4.54-26.16,9.36,3.01,3.02,6.48,8.91,9.29,15.9,5.77,1.69,13.06,3.43,19.3-.26l-2.43-25Z"/>
      <path class="cls-48" d="M648.11,598.4l-55.79,50s-49.61,43.41-51.65,65.8c-1.53,16.73,17.31,33.42,29.88,46.3,10,10.24,37.52,40.27,50.5,57.53,6.56-4.39,17.42-10.75,24.86-10.32l-.42-.83s-15.78-32.87-29.58-53.68c-8.26-12.45-20.98-23.57-29.88-30.5h0c0-2.35,1.32-4.49,3.41-5.55,28.76-14.61,69.99-39.61,69.99-39.61,25.85-15.34,23.96-35.21,23.96-35.21l-2.96-54.69-32.33,10.76Z"/>
      <path class="cls-7" d="M575.82,715.29s26.29,17.09,40.1,37.91c13.8,20.82,29.58,53.68,29.58,53.68"/>
      <g class="cls-19">
        <path d="M650.48,616.39s15.64,2.35,16.8,20.41c1.17,18.18,12.81,46.13,30.75,43.98l-1.8-52.1-14.15-36.13-31.61,23.84Z"/>
        <path d="M603.96,655.14s11.97,8.62,20.81,2.14c8.84-6.47,30.38-32.77,45.73-31.3l-21.51-20.75-51.59,33.44,6.55,16.48Z"/>
        <ellipse cx="620.22" cy="642.64" rx="4.55" ry="20.9" transform="translate(-270.81 703.72) rotate(-49.94)"/>
        <path d="M636.21,656.09s26.98-23.45,34.33-22.03l-6.38-13.27-34.56,26.75,6.6,8.56Z"/>
      </g>
      <path class="cls-46" d="M661.87,608.25s14.11,13.2,14.79,25.61c.68,12.4,1.38,36.26,14.79,37.21,4.34.31,6.93.3,8.4.21.95-.05,1.62-.93,1.43-1.86-1.38-6.69-6.12-32.28-1.51-49.57,5.34-20.03-.35-44.84-2.63-49.62l-35.28,38.01Z"/>
      <g class="cls-23">
        <path class="cls-18" d="M661.59,620.41s47.88-29.83,41.83,30.13l8.12-98.35-61.29,39.34,11.35,28.88Z"/>
      </g>
      <path class="cls-42" d="M639.24,451.12c1.63.18,3.26-.38,4.42-1.54l1.68-1.68c-.04.27-.66,4.89,2.33,5.24,1.82.21,3.51-1.13,5.39-2.57h0c.08,0,.17,0,.25,0,.12,0,.24,0,.36,0,.15,0,.29,0,.44-.01,1.44.05,2.85.39,4.14.86-3.53,5.95-9.57,16.25-11.41,20.11-.83,1.73-2.55,4.84-4.6,8.41-9.94-1.64-21.34-5.64-24.21-11.01,1.34-5.31,7.68-15.5,7.92-20,3.73.87,8.12,1.62,13.28,2.21Z"/>
      <g class="cls-20">
        <path class="cls-47" d="M622.4,450.39c12.24,2.54,24.08,11.31,17.22,29.91l8.19,7.43,20.09-32.18v-24.2l-37.38,2.57-8.12,16.47Z"/>
      </g>
      <path class="cls-15" d="M655.27,478.13c-37.53,3.98-33.89-18.25-33.89-18.25l-43.02,73.52s.09,59.37-5.43,81.97c-.64,2.63.35,5.38,2.56,6.96,7.29,5.2,25.26,15.31,53.82,14.47l40-76.42-14.05-82.25Z"/>
      <path class="cls-18" d="M590.57,541.38c4.11-4.63,7.83-9.54,10.72-15,1.4-2.64,2.59-5.38,3.68-8.16.55-1.39,1.12-2.78,1.58-4.2.3-.94.22-2.22.76-3.05-2.87,4.38-8.97,15.33-12.7,19.03-5.17,5.14-10.71,9.76-16.35,14.26-.45.36-.07,4.19-.08,4.86-.03,1.67.06,3.4-.18,5.06,4.28-4.14,8.6-8.33,12.56-12.79Z"/>
      <ellipse class="cls-45" cx="617.77" cy="636.8" rx="3.1" ry="14.25" transform="translate(-267.21 699.77) rotate(-49.94)"/>
      <path class="cls-17" d="M585.38,648.84h-13.57c-7.55,0-15.3,5.16-16.2,12.99-.55,4.75.16,9.36,1.16,13.98.36,1.65.71,3.3,1.07,4.95.51,2.34,1.01,4.69,1.52,7.03.64,2.98,1.29,5.96,1.93,8.94.77,3.56,1.54,7.11,2.31,10.67.88,4.07,1.76,8.14,2.64,12.22.98,4.53,1.96,9.06,2.94,13.59,1.07,4.92,2.13,9.85,3.2,14.77,1.14,5.26,2.28,10.52,3.41,15.78,1.2,5.54,2.4,11.08,3.59,16.61s2.49,11.51,3.73,17.26c1.28,5.91,2.56,11.82,3.84,17.74,1.3,6.01,2.6,12.02,3.9,18.03,1.31,6.05,2.62,12.09,3.92,18.14,1.3,6.02,2.61,12.05,3.91,18.07,1.29,5.94,2.57,11.88,3.86,17.82,1.25,5.8,2.51,11.6,3.76,17.4,1.21,5.6,2.42,11.19,3.63,16.79,1.15,5.34,2.31,10.67,3.46,16.01,1.08,5.01,2.17,10.03,3.25,15.04,1,4.63,2,9.27,3.01,13.9.91,4.19,1.81,8.38,2.72,12.57.8,3.69,1.6,7.38,2.39,11.07.68,3.13,1.35,6.26,2.03,9.39.54,2.51,1.09,5.02,1.63,7.53l1.19,5.48.71,3.26c.06.3.13.6.19.89h-2.85l-74.42-344.09-1.07-6.79c-1.51-9.58,2.02-19.42,9.65-25.42.33-.26.67-.51,1.01-.76,0,0,2.17-1.69,6.71-2.22h11.32l4.52,11.34Z"/>
      <path class="cls-53" d="M651.37,825.82c-12.67,7.91-17.55,5.57-23.6,1.15-9.9,13.56-44.03,22.27-47.26,23.14-1.07.29-1.98,1.01-2.51,1.99l-1.75,3c-.54,1-.44,2.22.24,3.13,4.15,5.63,10.45,6.23,18.33,6.88,8.59.7,21.5.45,21.5.45,54.31.79,53.46-8.31,53.46-8.31h0s-.01-.04-.01-.04c-4.58-10.64-9.69-22.43-9.67-33.26l-.11-.67c-.5-1.73-2.76-2.13-3.82-.69l-2.24,3.03-2.54.2Z"/>
      <path class="cls-3" d="M634.55,830.64c-2.41-.64-4.52-2.01-6.78-3.66-9.9,13.56-44.03,22.27-47.26,23.14-1.07.29-1.98,1.01-2.51,1.99l-.58.99"/>
      <path class="cls-15" d="M669.77,857.25h0s-.01-.04-.01-.04c-.59-1.38-1.2-2.77-1.79-4.19-3.62,2.64-15.14,6.61-51.81,6.08,0,0-12.91.26-21.5-.45-7.22-.59-13.11-1.14-17.24-5.56l-1.17,2.01c-.54,1-.44,2.22.24,3.13,4.15,5.63,10.45,6.23,18.33,6.88,8.59.7,21.5.45,21.5.45,54.31.79,53.46-8.31,53.46-8.31Z"/>
      <path class="cls-3" d="M658.48,856.51c-7.65,1.64-20.56,2.91-42.32,2.59,0,0-12.91.26-21.5-.45-7.22-.59-13.11-1.14-17.24-5.56l-1.17,2.01c-.54,1-.44,2.22.24,3.13,4.15,5.63,10.45,6.23,18.33,6.88,8.59.7,21.5.45,21.5.45,54.31.79,53.46-8.31,53.46-8.31h0s-.01-.04-.01-.04"/>
      <path class="cls-32" d="M685.82,998.46l-85.88-322.76-3.77-12.98c-1.46-5.02-4.05-9.64-7.58-13.5l-2.6-2.85h4.24l2.6,2.85c3.53,3.86,6.12,8.48,7.58,13.5l3.77,12.98,85.88,322.76h-4.24Z"/>
      <path class="cls-17" d="M690.06,998.46l-85.88-322.76-3.77-12.98c-1.46-5.02-4.05-9.64-7.58-13.5l-2.6-2.85,11.59-2.77,2.6,2.85c3.53,3.86,6.12,8.48,7.58,13.5l3.77,12.98,85.88,322.76-11.59,2.77Z"/>
      <path class="cls-42" d="M597.61,646.51c-2.14,4.05-6.95,5.2-6.95,5.2.86,1.14,1.65,2.34,2.36,3.58h0c-4.02.09-5.87-3.93-5.87-3.93-3.49-.26-4.56-2.56-4.56-2.56,0-.1.03-.24.09-.4-3.49-.26-4.77-4.29-4.77-4.29,0-.16.09-.42.24-.74-.79-.98-1.81-2.86-1.09-5.43.7-2.47,4.57-6.72,7.34-9.53,1.51-1.53,3.81-1.99,5.77-1.11,4.14,1.84,11.36,4.05,14.91,5.1,1.31.39,2.73.13,3.82-.69l5.16-3.89,13.58,10.29-9.23,8.6c-1.48,1.38-3.43,2.15-5.45,2.15h-1.67c-5.89.32-11.38-1.45-13.76-2.36l.09.03Z"/>
      <path class="cls-51" d="M708,554.14c-.45-4.67-1.15-9.28-1.86-13.71-4.7-29.33-17.57-54.45-31.02-80.55l-14.22-12.9s-11.39,18.96-14.04,24.53c-2.66,5.57-14.55,25.28-16.95,29.22s-4.43,7.73-4.55,13.17c-.14,6.02,2.1,12.26,2.84,18.21,1.05,8.42-.82,17.25,2.9,25.22,3.87,8.3,7.1,15.65,7.48,24.46-2.72,4.76-5.02,9.75-7.13,14.02-6.09,12.32-15.14,21.97-24.81,31.58l.26.22c1.11-1.3,6.88,1.75,12.89,6.8,6.02,5.06,10.01,10.23,8.91,11.54,10.73-13.95,54.56-45.7,65.6-52.6,6.18-3.86,10.33-7.89,12-13.28,2.54-8.22,2.57-17.17,1.72-25.95Z"/>
      <path class="cls-51" d="M662.27,489.64c-6.01.45-19.08,2.18-19.23,8.7.07.82.18,1.67.34,2.52.23,1.31-.02,2.65-.75,3.75-3.51,5.28-13.92,21.88-14.04,38.39h0c-.05-3.64.04-7.3-.41-10.89-.74-5.95-2.98-12.2-2.84-18.21.13-5.44,2.15-9.24,4.55-13.17,2.4-3.93,14.3-23.65,16.95-29.22,2.66-5.57,14.04-24.53,14.04-24.53l11.61,5.26,2.11,4.58c.82,1.79.71,3.86-.31,5.55-2.27,3.75-4.65,7.72-5.58,12.05-.39,1.82-.53,4.82-1.04,7.68"/>
      <path class="cls-46" d="M578.36,533.41s.08,57.14-5.12,80.64c-12.7,3.89-24.58,12.14-29.61,15.93-1,.75-2.41,0-2.37-1.25.75-20.28-4.4-30.85-3.53-50.38.55-12.34,7.08-33.09,14-52.11l26.63,7.17Z"/>
      <ellipse class="cls-45" cx="529.77" cy="373.49" rx="13.45" ry="7.56" transform="translate(-84.77 579.6) rotate(-53.73)"/>
      <path class="cls-42" d="M532.13,392.08c-6.39-13.15-17.18-20.9-20.53-23.09h0c-2.9-.52-5.04-2.19-6.53-3.94-1.9-2.22-2.87-5.08-2.87-8v-13.16c0-3.29-2.99-8.53-3.29-11.37-.22-2.06.98-4.66,1.65-5.94.18-.34.66-.33.83.01.57,1.16,1.74,3.53,3.42,6.74.59,1.12,1.21,2.16,1.82,3.15-.78-5.2-1.03-11.41-1.2-13.43-.26-3.08-2.47-8.1-3.7-11.18-.89-2.23-.49-5.25-.2-6.75.07-.38.55-.5.8-.21l1.38,1.63c-.03-2.66,1.03-4.71,1.67-5.71.2-.31.66-.26.81.08l7.09,16.68c.74,1.74,1.08,3.62.98,5.51l-.1,10.05c-.01,1.07.38,2.1,1.08,2.91,0,0,0,0,.01.01,1.4,1.6,2.22,4.88,2.22,5.85v10.55s30.64,25.09,30.64,25.09l-16.01,14.52Z"/>
      <path class="cls-51" d="M596.62,412.68c-8.96-7.71-15.54-17.45-24.26-25.31-6.31-5.7-13.69-10.24-20.28-15.62-4.35-3.56-9.27-6.68-14.35-9.11,3.37,2.47,2.53,9.33-1.86,15.32-3.74,5.1-8.85,7.91-12.36,7.12h0s8.62,6.8,17.52,26.4c7.61,16.76,18.14,40.22,30.34,50.84-.71,9.4-2.51,20.36-6.94,31.25-8.28,20.38-25.77,64.23-26.68,84.77-.22,4.85-.06,9.15.28,13.19.78-15.18,14.62-26.64,24.55-34.8,10.81-8.88,22.11-16.86,32.06-26.75,3.91-3.88,7.36-8.03,10.33-12.67,2.83-4.42,2.64-9.59,3.64-14.58.76-3.83,2.4-7.14,4.48-10.41,1.98-3.11,3.4-6.76,4.67-10.22,3.11-8.46,8.29-24.86,8.28-35.12l3.12-16.89c-12.24-2.5-23.16-9.37-32.52-17.42Z"/>
      <path class="cls-51" d="M626.02,446.99c0,10.26-5.16,26.66-8.28,35.12-1.27,3.47-2.69,7.11-4.67,10.23-2.07,3.26-3.72,6.57-4.48,10.4-1,4.99-.81,10.16-3.64,14.58-2.03,3.18-4.29,6.12-6.76,8.91h0c6.93-18.76,3.74-44.04,2.51-51.88-.2-1.28.6-2.53,1.86-2.82.66-.16,1.31-.33,1.93-.53-1.27-12.4-3.07-19.72-4.1-23.11-.39-1.3.35-2.67,1.65-3.05l8.14-2.45,15.85,4.61Z"/>
      <path class="cls-4" d="M610.17,442.38l-8.15,2.45c-1.3.39-2.04,1.75-1.64,3.05,1.02,3.4,2.83,10.7,4.1,23.11"/>
      <path class="cls-42" d="M686.69,417.55c0,18.23-14.78,33.01-33.01,33.01-.2,0-.4,0-.6,0-1.89,1.45-3.58,2.79-5.4,2.58-3-.35-2.37-4.97-2.33-5.24l-1.68,1.68c-1.16,1.16-2.78,1.72-4.42,1.54-31.89-3.63-34.6-13.63-32.36-17.51,1.75-3.02,3.68-9.17,4.5-11.93-.8-1.02-1.33-2.21-1.2-3.52.07-.74.63-1.36,1.36-1.53,2.88-.72,7.17-4.26,10.06-6.91,3.51-14.45,16.54-25.17,32.07-25.17,18.23,0,33.01,14.78,33.01,33.01Z"/>
      <path class="cls-4" d="M672.5,452.25l1.72,3.74c1.06,2.31.54,4.81-.4,7.17-2.29,5.75-6.54,19.79-6.87,24.79-.06.93-.84,1.64-1.77,1.62-9.09-.2-22.01,2.65-22.14,8.78"/>
      <path d="M695.12,438.35c-9.63,1.12-19.85,10.95-24.3,15.63-.8.84-1.82,1.37-2.91,1.57-1.43.26-2.9-.18-4.06-1.05-1.76-1.32-6.23-4.26-10.79-3.93l5.03-10.7c-7.81.35-11.46-2.28-13.09-4.24-.85-1.03-.91-2.5-.2-3.62,1.05-1.65,2.64-4.16,3.3-5.26,1.03-1.71-1.57-3.83-1.57-6.47s2.44-7.26,2.44-7.26c1.76-4.28-7.13-12.88-7.13-12.88,0,0-10.93-6.22-4.71-14.79,6.22-8.57,37.07-8.24,49.55,8.74,5.07,6.89,7.49,13.5,8.59,18.93l-.16,25.34Z"/>
      <path d="M708.88,425.79c2.13,4.46,3.41,9.24,2.17,14.19-.95,3.74-3.38,7.18-6.8,8.99-3.42,1.81-7.82,1.82-11.06-.3-2.09-1.36-3.61-3.49-4.57-5.78-2.45-5.84-1.59-13.34,2.96-17.94-2.47-4.85-2.28-11.15,1.39-15.39,2.78-3.22,7.31-4.83,11.51-4.11,4.2.73,7.92,3.77,9.46,7.75,1.4,3.6.56,7.01-1.95,9.83-.87.98-2.05,1.83-3.12,2.77Z"/>
      <path class="cls-42" d="M645.34,447.9s-.76,4.88,2.33,5.24,5.79-3.75,9.74-5.24c3.95-1.49,6.19-5.8,4.04-8.32-2.15-2.51-5.83-1.52-6.46-.81-.99,1.11-3.32,3.63-4.48,3.9"/>
      <path class="cls-32" d="M591.29,791.59c-19.34,1.55-31.84,32.42-31.84,32.42l-71.51,182.52h-9.28l71.51-182.52s15.78-38.32,33.94-39.75l7.18,7.33Z"/>
      <path class="cls-32" d="M532.88,870.03l60.87,1.84v-8.88l-60.87-1.84c-2.45,0-4.44,1.99-4.44,4.44h0c0,2.45,1.99,4.44,4.44,4.44Z"/>
      <path class="cls-17" d="M546.5,994.9l60.8-176.85c2.32-7.11,5.53-13.91,9.71-20.11,5.56-8.27,13.83-17.16,23.99-17.97l.88,8.98c-7.9,2.73-14.41,10.04-19.04,16.92-4.18,6.2-7.38,13-9.71,20.11l-58.71,176.85-7.93-7.93Z"/>
      <polygon class="cls-17" points="661.86 877.97 593.75 871.87 593.75 862.99 658.23 868.76 661.86 877.97"/>
      <path class="cls-17" d="M685.82,944.29l-1.11,8.85-62.01-1.88-13.58-.41c-1.23,0-2.33-.5-3.14-1.3-.8-.8-1.3-1.91-1.3-3.14,0-2.45,1.99-4.44,4.44-4.44l8.8.27,52.07,1.58,15.83.48Z"/>
      <g class="cls-29">
        <path class="cls-48" d="M648.11,598.4l-55.79,50s-49.61,43.41-51.65,65.8c-1.53,16.73,17.31,33.42,29.88,46.3,10,10.24,37.52,40.27,50.5,57.53,6.56-4.39,17.42-10.75,24.86-10.32l-.42-.83s-15.78-32.87-29.58-53.68c-8.26-12.45-20.98-23.57-29.88-30.5h0c0-2.35,1.32-4.49,3.41-5.55,28.76-14.61,69.99-39.61,69.99-39.61,25.85-15.34,23.96-35.21,23.96-35.21l-2.96-54.69-32.33,10.76Z"/>
      </g>
      <path class="cls-52" d="M691.96,404.14c.36.42.71.84,1.05,1.26-1.42-3.57-3.44-7.4-6.32-11.32-12.48-16.98-43.33-17.32-49.55-8.74-2.34,3.23-2.25,6.12-1.23,8.48,10.14-6.87,42.44-5.53,56.05,10.32Z"/>
      <path class="cls-2" d="M695.04,429.3c-5.65-4.64-7-14.04-2.07-19.74,2.79-3.22,7.31-4.84,11.51-4.11,4.2.73,7.92,3.77,9.46,7.74,1.4,3.6.56,7.02-1.95,9.84-1.87,2.1-5.26,3.67-5.77,6.7"/>
      <path class="cls-2" d="M691.58,424.94c-4.54,4.61-5.42,12.11-2.96,17.95.97,2.3,2.48,4.42,4.57,5.78,3.24,2.11,7.64,2.1,11.06.29,3.42-1.81,5.84-5.24,6.79-8.99,1.25-4.94-.03-9.72-2.16-14.19"/>
      <path class="cls-42" d="M514.27,323.1s-.09,9.33,2.72,16.4h-6.18l3.46-16.4Z"/>
      <path class="cls-6" d="M614.84,424.64c.88.56,2.04.34,2.67-.49l.53-.7"/>
      <path class="cls-6" d="M624.72,406.73s-8.48,8.72-13.19,9.89c-.72.18-1.28.8-1.35,1.53-.13,1.31.4,2.5,1.2,3.52"/>
      <path class="cls-52" d="M696.01,413.51c2.75-3.42,7.22-5.14,11.37-4.37,2.36.44,4.56,1.68,6.31,3.44-1.67-3.67-5.22-6.45-9.2-7.14-4.2-.73-8.72.89-11.51,4.11-4.62,5.34-3.73,13.94,1.07,18.82-1.77-4.91-1.31-10.78,1.97-14.87Z"/>
      <path class="cls-14" d="M609.49,427.52s-1.52.73-.82,2.72c.7,2,8.35,4.85,8.35,4.85l-7.52-7.57Z"/>
      <path class="cls-13" d="M617.01,435.09c-5.17-4.31-7.52-7.57-7.52-7.57,0,0-.46-1.25.7-2.19h0c1.83,2.94,3.8,5.79,5.9,8.54l.93,1.22Z"/>
      <path d="M628.5,410.78c2.42,2.11,5.08,4.28,6.27,7.38.44.97.87,1.94,1.28,2.93.04.09,0,.2-.1.24-.08.04-.18,0-.23-.07-1.16-1.73-2.09-3.69-3.48-5.22-1.37-1.53-3.19-2.7-4.75-4.07-.33-.27-.38-.76-.1-1.09.28-.34.78-.38,1.11-.09h0Z"/>
      <g class="cls-30">
        <circle class="cls-12" cx="627.83" cy="421.44" r="1.31"/>
      </g>
      <path class="cls-8" d="M626.58,418.01c1.19,2.07,3.01,4.83,4.45,5.21,0,0-4.11-.94-6.07-1.78"/>
      <path d="M625.57,400.57c-.1,1.5-.61,2.98-.28,4.47,0,0,.1.67.1.67.15,1-1.37,1.24-1.53.24,0,0-.05-.71-.05-.74-.11-1.21.3-2.45.82-3.51.17-.28.71-1.91.95-1.13h0Z"/>
      <path class="cls-4" d="M612.1,466.79c-2.43,2-5.58,3.81-9.55,4.73-1.27.29-2.07,1.55-1.86,2.83.95,6.03,3.06,22.43.81,38.22"/>
      <g class="cls-31">
        <path class="cls-18" d="M649.74,478.13c-10.45,4.28-18.25,1.29-23.72-3.41v-27.74c0,6.46-2.04,15.34-4.33,23.15-3.99-5.11-5.84-10.25-5.84-10.25l-43.02,73.52s0,6.17-.16,15.28c-3.38,2.65-6.76,5.31-10.1,8.05-9.93,8.15-23.77,19.62-24.55,34.8v28.59c.78-15.18,14.62-26.64,24.55-34.8l6.72-5.51c4.58,13.64-7.57,52.73-9.1,54.47,3.45,14.21,29.1,3.54,63.6,2.52l40-76.42-14.05-82.25Z"/>
      </g>
      <path class="cls-4" d="M579.75,422.88s-7.97,9.26-7.97,19.5c0,2.56.06,5.77.01,9.45"/>
      <path class="cls-4" d="M645.26,483.41s-3.59,7.85-1.88,17.45c.23,1.31-.02,2.65-.75,3.75-2.1,3.15-6.65,10.33-10,19.12"/>
      <path class="cls-4" d="M642.25,575.95c2.78-3.93,5.98-7.38,9.76-9.69"/>
      <path class="cls-4" d="M675.15,526.07s7.18-3.15,14.88-2.12c1.38.18,2.91.49,4.47.97"/>
      <path class="cls-7" d="M575.82,715.29s11.99,7.8,24.03,19.27"/>
      <g>
        <path d="M589.4,725.38s.04.03.06.05h0s-.04-.03-.06-.05Z"/>
        <path d="M587.72,724.03s-.03-.02-.05-.04c.02.01.03.02.05.04Z"/>
        <path d="M586.03,722.7c0-2.35,1.32-4.49,3.41-5.55,1.4-.71,2.82-1.44,4.27-2.2-8.82,4.31-17.91.34-17.91.34l1.66,1.12c1.77,1.22,4.82,3.38,8.56,6.29Z"/>
      </g>
    </g>
    <path class="cls-15" d="M60.23,755.21c4.49,0,8.82.69,12.9,1.98,9.81-18.91,29.22-31.78,51.58-31.78,24.87,0,46.09,15.93,54.51,38.38,15.89.54,29.42,10.65,35.26,24.89,2.22-.58,4.55-.89,6.95-.89,15.44,0,27.95,12.82,27.95,28.64s-12.51,28.64-27.95,28.64H60.23c-24.22,0-43.85-20.11-43.85-44.92s19.63-44.92,43.85-44.92"/>
  </g>
</svg>