<svg width="302" height="62" viewBox="0 0 302 62" fill="none" xmlns="http://www.w3.org/2000/svg">
<g clip-path="url(#clip0_78_8479)">
<path d="M109.271 16.2625C104.1 16.2625 100.186 19.9111 100.186 24.8403C100.186 29.7453 104.1 33.4664 109.271 33.4664C114.442 33.4664 118.356 29.7212 118.356 24.8403C118.356 19.9352 114.442 16.2625 109.271 16.2625ZM109.328 19.5969C112.155 19.5969 114.451 21.8683 114.451 24.8403C114.451 27.8123 112.155 30.1319 109.328 30.1319C106.501 30.1319 104.109 27.8123 104.109 24.8403C104.109 21.8683 106.477 19.5969 109.328 19.5969Z" fill="white"/>
<path d="M128.061 16.3833H120.884V33.2973H124.702V28.4647H128.061C132.362 28.4647 134.826 26.1934 134.826 22.2549C134.826 18.5097 132.362 16.3833 128.061 16.3833ZM127.868 25.2752H124.702V19.5486H127.868C129.994 19.5486 131.202 20.4909 131.202 22.3757C131.202 24.3087 129.994 25.2752 127.868 25.2752Z" fill="white"/>
<path d="M137.26 16.3833V33.2973H150.405V30.132H141.078V26.3867H149.245V23.2214H141.078V19.5486H150.139V16.3833H137.26Z" fill="white"/>
<path d="M153.4 16.3833V33.2973H157.049V22.4482L165.24 33.2973H168.719V16.3833H165.095V27.2566L156.88 16.3833H153.4Z" fill="white"/>
<path d="M185.4 16.3833H178.224V33.2973H185.255C190.595 33.2973 194.292 29.8178 194.292 24.8403C194.292 19.8386 190.643 16.3833 185.4 16.3833ZM185.496 30.0836H182.04V19.597H185.326C188.226 19.597 190.401 21.7474 190.401 24.8644C190.401 27.9573 188.323 30.0836 185.496 30.0836Z" fill="#818284"/>
<path d="M208.838 33.2973H212.922L205.697 16.3833H201.758L194.413 33.2973H198.352L199.68 30.0111H207.509L208.838 33.2973ZM200.937 26.9425L203.619 20.3702L206.277 26.9425H200.937Z" fill="#818284"/>
<path d="M211.291 16.3833V19.6211H216.437V33.2973H220.255V19.6211H225.426V16.3833H211.291Z" fill="#818284"/>
<path d="M238.239 33.2973H242.323L235.098 16.3833H231.16L223.814 33.2973H227.753L229.081 30.0111H236.91L238.239 33.2973ZM230.338 26.9425L233.02 20.3702L235.678 26.9425H230.338Z" fill="#818284"/>
<path d="M249.91 16.3833V33.2973H253.728V26.6283H261.387V33.2973H265.205V16.3833H261.387V23.4389H253.728V16.3833H249.91Z" fill="#818284"/>
<path d="M272.432 26.2176V16.3833H268.615V26.2176C268.615 30.6877 271.611 33.4664 276.298 33.4664C280.962 33.4664 283.886 30.6877 283.886 26.2176V16.3833H280.068V26.2176C280.068 28.658 278.57 30.132 276.298 30.132C274.027 30.132 272.432 28.6581 272.432 26.2176Z" fill="#818284"/>
<path d="M295.067 16.3833H287.287V33.2973H295.333C299.271 33.2973 301.712 31.5093 301.712 28.6097C301.712 26.3867 300.359 24.7436 298.184 24.3329C299.995 23.8738 301.108 22.4481 301.108 20.6118C301.108 18.0022 298.788 16.3833 295.067 16.3833ZM294.874 23.1972H291.105V19.5003H294.874C296.3 19.5003 297.194 20.1527 297.194 21.3125C297.194 22.4965 296.301 23.1972 294.874 23.1972ZM294.874 30.1803H291.105V26.1451H294.874C296.686 26.1451 297.774 26.8942 297.774 28.1264C297.774 29.4311 296.686 30.1803 294.874 30.1803Z" fill="#818284"/>
<path d="M107.668 46.4483H108.721L106.162 40.5934H105.151L102.566 46.4483H103.595L104.156 45.1268H107.109L107.668 46.4483ZM104.523 44.2485L105.628 41.6473L106.733 44.2485H104.523Z" fill="white"/>
<path d="M109.502 40.5934V46.4483H110.489V40.5934H109.502Z" fill="white"/>
<path d="M116.524 40.5934H114.19V46.4483H115.177V44.6834H116.524C117.996 44.6834 118.841 43.9138 118.841 42.5923C118.841 41.321 117.995 40.5934 116.524 40.5934ZM116.486 43.7969H115.18V41.48H116.486C117.388 41.48 117.9 41.8479 117.9 42.6175C117.9 43.4121 117.39 43.7969 116.486 43.7969Z" fill="white"/>
<path d="M119.809 40.2421V46.4483H120.771V40.2421H119.809Z" fill="white"/>
<path d="M125.848 46.4483L125.839 43.5292C125.831 42.5507 125.187 41.9651 124.041 41.9651C123.196 41.9651 122.746 42.1575 122.126 42.5255L122.519 43.1946C122.962 42.8935 123.407 42.7429 123.833 42.7429C124.535 42.7429 124.894 43.0774 124.894 43.6378V43.7714H123.548C122.477 43.7798 121.867 44.2984 121.867 45.1097C121.867 45.8959 122.47 46.4898 123.43 46.4898C124.073 46.4898 124.585 46.2975 124.901 45.9043V46.4479L125.848 46.4483ZM123.631 45.7289C123.097 45.7289 122.771 45.4697 122.771 45.0681C122.771 44.6415 123.062 44.4744 123.69 44.4744H124.895V44.8841C124.838 45.3693 124.318 45.7289 123.631 45.7289Z" fill="white"/>
<path d="M129.41 45.4279C129.151 45.5538 128.943 45.6203 128.74 45.6203C128.439 45.6203 128.263 45.479 128.263 45.0181V42.8852H129.576V42.1659H128.263V40.9448H127.309V42.1659H126.681V42.8852H127.309V45.1937C127.309 46.1055 127.885 46.4903 128.555 46.4903C128.931 46.4903 129.3 46.3738 129.651 46.1641L129.41 45.4279Z" fill="white"/>
<path d="M132.273 41.0367C132.473 41.0367 132.7 41.1112 132.884 41.2457L133.252 40.5097C132.968 40.3007 132.609 40.2004 132.248 40.2004C131.479 40.2004 130.717 40.6937 130.717 41.7311V42.166H130.131V42.8854H130.717V46.4485H131.672V42.8854H132.834V42.166H131.672V41.6391C131.672 41.2209 131.948 41.0367 132.273 41.0367Z" fill="white"/>
<path d="M135.234 41.9651C133.854 41.9651 132.908 42.8769 132.908 44.2235C132.908 45.5618 133.853 46.4818 135.234 46.4818C136.606 46.4818 137.551 45.5618 137.551 44.2235C137.551 42.8767 136.606 41.9651 135.234 41.9651ZM135.234 42.7933C136.028 42.7933 136.589 43.3788 136.589 44.232C136.589 45.0935 136.028 45.6789 135.234 45.6789C134.43 45.6789 133.871 45.0933 133.871 44.232C133.871 43.3788 134.432 42.7933 135.234 42.7933Z" fill="white"/>
<path d="M139.516 42.8852V41.9986H138.554V46.4483H139.516V44.1231C139.592 43.3619 140.159 42.835 141.054 42.8852V41.9652C140.352 41.9652 139.816 42.283 139.516 42.8852Z" fill="white"/>
<path d="M147.659 41.9651C146.848 41.9651 146.254 42.2913 145.97 43.0357C145.76 42.3581 145.218 41.9651 144.422 41.9651C143.685 41.9651 143.116 42.2327 142.807 42.8601V41.9985H141.853V46.4482H142.807V44.2485C142.807 43.4707 143.275 42.8852 144.046 42.86C144.699 42.86 145.092 43.2697 145.092 43.9473V46.4482H146.054V44.2484C146.054 43.4706 146.514 42.8851 147.275 42.8599C147.928 42.8599 148.329 43.2697 148.329 43.9472V46.4481H149.291V43.6796C149.291 42.6174 148.68 41.9651 147.659 41.9651Z" fill="white"/>
<path d="M155.293 41.965C154.599 41.965 154.064 42.2494 153.738 42.768V41.9984H152.776V48.0708H153.738V45.6786C154.064 46.1972 154.599 46.4816 155.311 46.4816C156.582 46.4816 157.418 45.5699 157.418 44.24C157.418 42.8851 156.557 41.965 155.293 41.965ZM155.093 45.662C154.299 45.662 153.738 45.0682 153.738 44.2067C153.738 43.3703 154.299 42.7681 155.093 42.7681C155.887 42.7681 156.448 43.3787 156.448 44.2067C156.448 45.0598 155.887 45.662 155.093 45.662Z" fill="white"/>
<path d="M160.326 41.9651C158.946 41.9651 158.001 42.8769 158.001 44.2235C158.001 45.5618 158.946 46.4818 160.326 46.4818C161.698 46.4818 162.643 45.5618 162.643 44.2235C162.643 42.8767 161.698 41.9651 160.326 41.9651ZM160.326 42.7933C161.12 42.7933 161.681 43.3788 161.681 44.232C161.681 45.0935 161.12 45.6789 160.326 45.6789C159.522 45.6789 158.963 45.0933 158.963 44.232C158.963 43.3788 159.524 42.7933 160.326 42.7933Z" fill="white"/>
<path d="M162.781 41.9986L164.42 46.4483H165.407L166.537 43.1528L167.667 46.4483H168.661L170.283 41.9986H169.304L168.167 45.4948L167.037 41.9986H166.041L164.92 45.4948L163.765 41.9986H162.781Z" fill="white"/>
<path d="M172.617 41.9651C171.296 41.9735 170.367 42.8851 170.367 44.2318C170.367 45.5701 171.27 46.4818 172.642 46.4818C173.411 46.4818 174.047 46.2058 174.482 45.729L173.973 45.1854C173.646 45.52 173.203 45.704 172.719 45.704C172.016 45.704 171.489 45.2774 171.339 44.5917H174.701C174.816 42.9857 174.181 41.9651 172.617 41.9651ZM171.321 43.8889C171.417 43.1779 171.922 42.7345 172.627 42.7345C173.354 42.7345 173.831 43.1695 173.864 43.8889H171.321Z" fill="white"/>
<path d="M176.664 42.8852V41.9986H175.702V46.4483H176.664V44.1231C176.741 43.3619 177.308 42.835 178.203 42.8852V41.9652C177.5 41.9652 176.964 42.283 176.664 42.8852Z" fill="white"/>
<path d="M180.834 41.9651C179.514 41.9735 178.584 42.8851 178.584 44.2318C178.584 45.5701 179.487 46.4818 180.859 46.4818C181.629 46.4818 182.264 46.2058 182.699 45.729L182.19 45.1854C181.863 45.52 181.421 45.704 180.936 45.704C180.233 45.704 179.707 45.2774 179.556 44.5917H182.918C183.033 42.9857 182.398 41.9651 180.834 41.9651ZM179.538 43.8889C179.634 43.1779 180.141 42.7345 180.844 42.7345C181.571 42.7345 182.048 43.1695 182.082 43.8889H179.538Z" fill="white"/>
<path d="M187.199 40.2421V42.7681C186.872 42.2495 186.338 41.9567 185.618 41.9567C184.364 41.9567 183.502 42.8685 183.502 44.2067C183.502 45.5616 184.355 46.4901 185.635 46.4901C186.347 46.4901 186.881 46.2057 187.198 45.6871V46.4483H188.16V40.2421H187.199ZM185.836 45.6871C185.025 45.6871 184.473 45.085 184.463 44.2402C184.472 43.3871 185.032 42.7765 185.836 42.7765C186.639 42.7765 187.199 43.3787 187.199 44.2402C187.199 45.085 186.637 45.6871 185.836 45.6871Z" fill="white"/>
<path d="M194.337 41.9651C193.642 41.9651 193.108 42.2495 192.781 42.7681V40.2421H191.819V46.4483H192.781V45.6787C193.108 46.1973 193.642 46.4817 194.354 46.4817C195.625 46.4817 196.462 45.5699 196.462 44.2401C196.462 42.8852 195.6 41.9651 194.337 41.9651ZM194.136 45.6621C193.342 45.6621 192.781 45.0683 192.781 44.2067C192.781 43.3704 193.342 42.7682 194.136 42.7682C194.93 42.7682 195.491 43.3788 195.491 44.2067C195.491 45.0599 194.93 45.6621 194.136 45.6621Z" fill="white"/>
<path d="M199.047 47.0589L201.071 41.9986H200.109L198.871 45.3693L197.54 41.9986H196.546L198.386 46.3814L198.233 46.716C198.08 47.0505 197.848 47.2094 197.556 47.2094C197.355 47.2094 197.187 47.1425 196.979 46.9919L196.569 47.7363C196.878 47.9955 197.197 48.1127 197.598 48.1127C198.267 48.1127 198.77 47.7614 199.047 47.0589Z" fill="white"/>
<path d="M206.575 40.5683C204.827 40.5683 203.472 41.8396 203.472 43.5208C203.472 45.1936 204.827 46.4901 206.575 46.4901C208.324 46.4901 209.678 45.1936 209.678 43.5208C209.678 41.8479 208.323 40.5683 206.575 40.5683ZM206.584 41.4548C207.729 41.4548 208.666 42.3582 208.666 43.5208C208.666 44.6833 207.729 45.6034 206.584 45.6034C205.439 45.6034 204.476 44.6835 204.476 43.5208C204.476 42.3583 205.43 41.4548 206.584 41.4548Z" fill="white"/>
<path d="M213.238 41.965C212.543 41.965 212.009 42.2494 211.682 42.768V41.9984H210.72V48.0708H211.682V45.6786C212.009 46.1972 212.543 46.4816 213.255 46.4816C214.526 46.4816 215.363 45.5699 215.363 44.24C215.363 42.8851 214.501 41.965 213.238 41.965ZM213.037 45.662C212.243 45.662 211.682 45.0682 211.682 44.2067C211.682 43.3703 212.243 42.7681 213.037 42.7681C213.831 42.7681 214.392 43.3787 214.392 44.2067C214.392 45.0598 213.831 45.662 213.037 45.662Z" fill="white"/>
<path d="M218.195 41.9651C216.874 41.9735 215.945 42.8851 215.945 44.2318C215.945 45.5701 216.848 46.4818 218.22 46.4818C218.989 46.4818 219.625 46.2058 220.06 45.729L219.55 45.1854C219.224 45.52 218.781 45.704 218.296 45.704C217.594 45.704 217.067 45.2774 216.916 44.5917H220.279C220.393 42.9857 219.759 41.9651 218.195 41.9651ZM216.899 43.8889C216.994 43.1779 217.502 42.7345 218.204 42.7345C218.932 42.7345 219.409 43.1695 219.443 43.8889H216.899Z" fill="white"/>
<path d="M223.882 41.965C223.13 41.965 222.561 42.2326 222.242 42.8516V41.9984H221.28V46.4482H222.242V44.0811C222.318 43.3869 222.769 42.8766 223.506 42.8684C224.176 42.8684 224.576 43.2782 224.576 43.9473V46.4482H225.538V43.6797C225.538 42.6175 224.92 41.965 223.882 41.965Z" fill="white"/>
<path d="M232.596 42.0237L233.007 41.1537C232.463 40.7941 231.719 40.5516 230.958 40.5516C229.686 40.5516 228.825 41.1789 228.825 42.1827C228.825 44.2654 231.986 43.5376 231.986 44.8425C231.986 45.2941 231.576 45.5534 230.891 45.5534C230.263 45.5534 229.511 45.2523 228.909 44.7003L228.481 45.5534C229.084 46.1054 229.953 46.4818 230.873 46.4818C232.161 46.4818 233.081 45.8378 233.081 44.7923C233.09 42.6845 229.928 43.3704 229.928 42.0907C229.928 41.6975 230.304 41.4801 230.882 41.4801C231.325 41.4801 231.961 41.6385 232.596 42.0237Z" fill="white"/>
<path d="M236.077 41.9651C234.697 41.9651 233.751 42.8769 233.751 44.2235C233.751 45.5618 234.696 46.4818 236.077 46.4818C237.449 46.4818 238.393 45.5618 238.393 44.2235C238.393 42.8767 237.449 41.9651 236.077 41.9651ZM236.077 42.7933C236.871 42.7933 237.432 43.3788 237.432 44.232C237.432 45.0935 236.871 45.6789 236.077 45.6789C235.273 45.6789 234.714 45.0933 234.714 44.232C234.714 43.3788 235.275 42.7933 236.077 42.7933Z" fill="white"/>
<path d="M242.475 41.9986V44.19C242.475 44.9679 242.023 45.5617 241.254 45.5785C240.611 45.5785 240.217 45.1687 240.217 44.4995V41.9987H239.255V44.7672C239.255 45.8294 239.866 46.4819 240.885 46.4819C241.613 46.4736 242.174 46.1976 242.475 45.5786V46.4483H243.437V41.9986L242.475 41.9986Z" fill="white"/>
<path d="M245.815 42.8852V41.9986H244.853V46.4483H245.815V44.1231C245.892 43.3619 246.458 42.835 247.354 42.8852V41.9652C246.651 41.9652 246.115 42.283 245.815 42.8852Z" fill="white"/>
<path d="M251.29 43.3118L251.817 42.6928C251.406 42.2244 250.78 41.965 249.977 41.965C248.656 41.965 247.735 42.885 247.735 44.2317C247.735 45.57 248.655 46.4816 249.977 46.4816C250.822 46.4816 251.465 46.1805 251.866 45.6537L251.33 45.1183C251.028 45.4697 250.578 45.6537 250.017 45.6537C249.248 45.6537 248.696 45.0765 248.696 44.2318C248.696 43.387 249.248 42.8099 250.017 42.8099C250.551 42.8015 250.981 42.9932 251.29 43.3118Z" fill="white"/>
<path d="M254.526 41.9651C253.206 41.9735 252.276 42.8851 252.276 44.2318C252.276 45.5701 253.179 46.4818 254.552 46.4818C255.321 46.4818 255.956 46.2058 256.391 45.729L255.882 45.1854C255.555 45.52 255.113 45.704 254.628 45.704C253.926 45.704 253.399 45.2774 253.248 44.5917H256.61C256.725 42.9857 256.09 41.9651 254.526 41.9651ZM253.23 43.8889C253.326 43.1779 253.834 42.7345 254.536 42.7345C255.263 42.7345 255.74 43.1695 255.775 43.8889H253.23Z" fill="white"/>
<path d="M49.0382 0.000605273C47.869 0.016279 46.9358 0.980841 46.9567 2.14998V41.9551C46.8513 43.1883 47.8232 44.2478 49.0608 44.2478C50.2985 44.2478 51.3562 43.1883 51.2503 41.9551V32.5754L51.3013 31.8342C51.3013 25.1782 56.6366 19.8203 63.2926 19.8203C69.9485 19.8203 75.3065 25.1782 75.3065 31.8342C75.3077 31.8562 75.3083 31.8783 75.3099 31.9002C75.3067 31.9535 75.3056 32.0068 75.3065 32.0599V45.3333C75.3065 46.5017 76.2536 47.4488 77.422 47.4488C78.5903 47.4488 79.5374 46.5017 79.5374 45.3333V32.0599C79.5374 32.0205 79.536 31.9812 79.5337 31.9426C79.5359 31.9067 79.5372 31.8695 79.5374 31.8336C79.5374 22.8952 72.231 15.6114 63.2926 15.6114C58.4758 15.6114 54.1404 17.7274 51.1655 21.0768V2.14947C51.1864 0.962641 50.2252 -0.0079369 49.0382 0.000605273Z" fill="#A586F3"/>
<path d="M43.256 0.113481C43.2515 0.11354 43.2468 0.113481 43.2421 0.113481C42.0728 0.129155 41.1397 1.09369 41.1606 2.26287V31.8341C41.1606 36.8941 38.0213 41.3991 33.2644 43.1241C28.5075 44.8491 23.1815 43.4106 19.9382 39.5267C16.6949 35.6428 16.2388 30.1663 18.7843 25.7932C21.3298 21.4202 26.3171 19.1216 31.296 20.0238C32.4444 20.2338 33.546 19.4742 33.7581 18.3262C33.9703 17.1782 33.2129 16.0751 32.0653 15.8608C25.3519 14.6442 18.574 17.77 15.1417 23.6665C11.7093 29.563 12.3296 37.0048 16.7028 42.2417C21.076 47.4786 28.2758 49.4094 34.6898 47.0835C40.0917 45.1246 43.9846 40.488 45.079 34.9979C45.079 34.9979 45.318 34.4225 45.3915 33.893C45.4649 33.3636 45.3915 31.8341 45.3915 31.8341V2.26311C45.4128 1.07273 44.4465 0.0999821 43.256 0.113481Z" fill="#5ED3EE"/>
<path fill-rule="evenodd" clip-rule="evenodd" d="M29.1634 26.2318C26.2025 26.2318 23.8022 28.6321 23.8022 31.593C23.8022 34.5538 26.2025 36.9541 29.1634 36.9541C32.1242 36.9541 34.5245 34.5538 34.5245 31.593C34.5245 28.6321 32.1242 26.2318 29.1634 26.2318ZM19.5789 31.593C19.5789 26.2996 23.87 22.0085 29.1634 22.0085C34.4567 22.0085 38.7479 26.2996 38.7479 31.593C38.7479 36.8863 34.4567 41.1775 29.1634 41.1775C23.87 41.1775 19.5789 36.8863 19.5789 31.593Z" fill="#A6D03F"/>
<path fill-rule="evenodd" clip-rule="evenodd" d="M35.3946 13.8106C31.2489 12.358 26.7261 12.3994 22.6078 13.9277C18.4895 15.4561 15.0345 18.3753 12.8402 22.1807C10.646 25.9862 9.85025 30.4387 10.5906 34.7686C11.331 39.0985 13.5609 43.0337 16.8949 45.8939C20.2289 48.7541 24.4574 50.3596 28.8496 50.4328C33.2417 50.5059 37.5214 49.0423 40.9488 46.2947C41.8588 45.5653 43.1878 45.7116 43.9173 46.6216C44.6467 47.5315 44.5004 48.8606 43.5904 49.59C39.3947 52.9534 34.1558 54.7451 28.7792 54.6555C23.4026 54.5659 18.2263 52.6006 14.145 49.0994C10.0637 45.5981 7.33395 40.7809 6.42766 35.4804C5.52137 30.18 6.49543 24.7295 9.18154 20.0711C11.8676 15.4127 16.097 11.8392 21.1384 9.96825C26.1797 8.09734 31.7164 8.04663 36.7912 9.82488C37.8918 10.2105 38.4714 11.4154 38.0857 12.5161C37.7001 13.6167 36.4952 14.1963 35.3946 13.8106Z" fill="#536A1C"/>
<path fill-rule="evenodd" clip-rule="evenodd" d="M24.4712 3.876C24.8022 4.99428 24.164 6.16918 23.0458 6.50022C17.0232 8.28299 11.8424 12.147 8.43594 17.392C5.02967 22.6367 3.62101 28.9179 4.46234 35.1028C5.30368 41.2878 8.34012 46.9724 13.027 51.13C17.7141 55.2877 23.7429 57.6441 30.0261 57.7712C36.3092 57.8983 42.4296 55.7877 47.2831 51.8227C52.1364 47.8579 55.4028 42.3005 56.4964 36.1545C56.7007 35.0063 57.7971 34.2411 58.9453 34.4454C60.0936 34.6497 60.8587 35.7461 60.6544 36.8944C59.3834 44.0379 55.5877 50.4919 49.9551 55.0934C44.3228 59.6946 37.2244 62.141 29.9407 61.9937C22.6569 61.8463 15.6641 59.1148 10.2243 54.2894C4.78427 49.4637 1.25545 42.8612 0.27752 35.672C-0.70043 28.4828 0.937525 21.1835 4.89404 15.0916C8.85037 8.99997 14.8637 4.51776 21.847 2.45056C22.9653 2.11953 24.1402 2.75772 24.4712 3.876Z" fill="#2E3E05"/>
</g>
<defs>
<clipPath id="clip0_78_8479">
<rect width="301.712" height="62" fill="white"/>
</clipPath>
</defs>
</svg>
