<svg width="422" height="87" viewBox="0 0 422 87" fill="none" xmlns="http://www.w3.org/2000/svg">
<path d="M69.1033 0.202715C67.4692 0.224619 66.1651 1.57262 66.1943 3.20653V58.8354C66.047 60.5588 67.4052 62.0395 69.1349 62.0395C70.8646 62.0395 72.3428 60.5588 72.1947 58.8354V45.7269L72.266 44.6911C72.266 35.3892 79.7223 27.9013 89.0242 27.9013C98.3261 27.9013 105.814 35.3892 105.814 44.6911C105.816 44.7218 105.817 44.7527 105.819 44.7834C105.814 44.8579 105.813 44.9323 105.814 45.0065V63.5565C105.814 65.1893 107.138 66.5129 108.77 66.5129C110.403 66.5129 111.727 65.1893 111.727 63.5565V45.0065C111.727 44.9515 111.725 44.8965 111.722 44.8425C111.725 44.7924 111.727 44.7404 111.727 44.6903C111.727 32.1986 101.516 22.0193 89.0242 22.0193C82.2926 22.0193 76.2337 24.9764 72.0763 29.6573V3.20582C72.1054 1.54719 70.7621 0.190777 69.1033 0.202715Z" fill="#A586F3"/>
<path d="M61.0225 0.360301C61.0162 0.360384 61.0096 0.360301 61.003 0.360301C59.369 0.382206 58.0649 1.73018 58.0941 3.36414V44.6908C58.0941 51.7623 53.7068 58.0582 47.0589 60.4689C40.4111 62.8796 32.9678 60.8692 28.4352 55.4414C23.9026 50.0136 23.2651 42.36 26.8226 36.2485C30.38 30.137 37.3499 26.9247 44.308 28.1856C45.913 28.479 47.4525 27.4175 47.7489 25.8131C48.0454 24.2087 46.9869 22.6672 45.3831 22.3677C36.001 20.6675 26.5287 25.0358 21.7319 33.2763C16.9351 41.5168 17.802 51.917 23.9136 59.2357C30.0252 66.5544 40.0872 69.2528 49.0509 66.0022C56.6002 63.2647 62.0407 56.7849 63.5701 49.1123C63.5701 49.1123 63.9042 48.3081 64.0069 47.5682C64.1095 46.8283 64.0069 44.6908 64.0069 44.6908V3.36447C64.0367 1.70088 62.6862 0.341436 61.0225 0.360301Z" fill="#5ED3EE"/>
<path fill-rule="evenodd" clip-rule="evenodd" d="M41.3275 36.862C37.1896 36.862 33.8351 40.2164 33.8351 44.3543C33.8351 48.4922 37.1896 51.8466 41.3275 51.8466C45.4654 51.8466 48.8199 48.4922 48.8199 44.3543C48.8199 40.2164 45.4654 36.862 41.3275 36.862ZM27.9329 44.3543C27.9329 36.9567 33.9299 30.9597 41.3275 30.9597C48.7251 30.9597 54.7221 36.9567 54.7221 44.3543C54.7221 51.752 48.7251 57.7489 41.3275 57.7489C33.9299 57.7489 27.9329 51.752 27.9329 44.3543Z" fill="#A6D03F"/>
<path fill-rule="evenodd" clip-rule="evenodd" d="M50.0358 19.5017C44.2422 17.4716 37.9214 17.5295 32.1659 19.6654C26.4104 21.8013 21.582 25.881 18.5155 31.1992C15.4489 36.5174 14.3369 42.7399 15.3716 48.7911C16.4062 54.8423 19.5226 60.3419 24.1819 64.3391C28.8413 68.3363 34.7508 70.5799 40.889 70.6822C47.0271 70.7845 53.0081 68.739 57.7981 64.8992C59.0698 63.8798 60.9271 64.0843 61.9465 65.356C62.966 66.6277 62.7614 68.485 61.4897 69.5044C55.6262 74.2048 48.3046 76.7089 40.7907 76.5837C33.2767 76.4585 26.0426 73.7119 20.3389 68.8187C14.6352 63.9256 10.8203 57.1934 9.55372 49.7859C8.28715 42.3784 9.64843 34.7612 13.4023 28.2509C17.1563 21.7406 23.0669 16.7465 30.1124 14.1319C37.1578 11.5172 44.8954 11.4464 51.9876 13.9315C53.5258 14.4705 54.3358 16.1544 53.7968 17.6925C53.2578 19.2307 51.574 20.0407 50.0358 19.5017Z" fill="#536A1C"/>
<path fill-rule="evenodd" clip-rule="evenodd" d="M34.7701 5.61815C35.2327 7.18098 34.3408 8.82294 32.778 9.28557C24.3614 11.777 17.121 17.1771 12.3604 24.5071C7.59999 31.8367 5.63134 40.6149 6.80712 49.2585C7.98293 57.9022 12.2264 65.8466 18.7764 71.6569C25.3268 77.4676 33.7523 80.7606 42.5332 80.9382C51.3141 81.1159 59.8675 78.1663 66.6505 72.6251C73.433 67.0841 77.998 59.3175 79.5262 50.7283C79.8118 49.1237 81.344 48.0543 82.9487 48.3398C84.5534 48.6253 85.6227 50.1576 85.3372 51.7623C83.5609 61.7455 78.2563 70.7653 70.3846 77.1959C62.5133 83.6263 52.593 87.0452 42.4138 86.8393C32.2346 86.6334 22.4619 82.816 14.8597 76.0723C7.25703 69.3283 2.32541 60.101 0.958719 50.054C-0.407994 40.0068 1.8811 29.8059 7.41044 21.2923C12.9395 12.779 21.3433 6.51503 31.1027 3.62606C32.6655 3.16343 34.3075 4.05532 34.7701 5.61815Z" fill="#2E3E05"/>
<path d="M153.043 31.5037C145.817 31.5037 140.347 36.6027 140.347 43.4914C140.347 50.3464 145.817 55.5467 153.043 55.5467C160.27 55.5467 165.741 50.3126 165.741 43.4914C165.741 36.6365 160.27 31.5037 153.043 31.5037ZM153.123 36.1637C157.074 36.1637 160.282 39.3379 160.282 43.4914C160.282 47.6449 157.074 50.8867 153.123 50.8867C149.173 50.8867 145.829 47.6449 145.829 43.4914C145.829 39.3379 149.139 36.1637 153.123 36.1637Z" fill="white"/>
<path d="M179.303 31.6716H169.274V55.3094H174.609V48.5558H179.303C185.314 48.5558 188.758 45.3816 188.758 39.8774C188.758 34.6433 185.314 31.6716 179.303 31.6716ZM179.034 44.0984H174.61V36.0953H179.034C182.006 36.0953 183.694 37.4121 183.694 40.0462C183.694 42.7476 182.006 44.0984 179.034 44.0984Z" fill="white"/>
<path d="M192.16 31.6716V55.3094H210.53V50.8858H197.495V45.6517H208.909V41.2281H197.495V36.0953H210.158V31.6716H192.16Z" fill="white"/>
<path d="M214.716 31.6716V55.3094H219.815V40.1475L231.263 55.3094H236.125V31.6716H231.06V46.8674L219.579 31.6716H214.716Z" fill="white"/>
<path d="M259.437 31.6716H249.408V55.3094H259.234C266.697 55.3094 271.864 50.4468 271.864 43.4905C271.864 36.5005 266.765 31.6716 259.437 31.6716ZM259.57 50.8182H254.742V36.1628H259.334C263.386 36.1628 266.425 39.1682 266.425 43.5243C266.425 47.8466 263.521 50.8182 259.57 50.8182Z" fill="#818284"/>
<path d="M292.192 55.3094H297.899L287.802 31.6716H282.298L272.032 55.3094H277.537L279.393 50.7169H290.334L292.192 55.3094ZM281.15 46.4284L284.898 37.2434L288.613 46.4284H281.15Z" fill="#818284"/>
<path d="M295.62 31.6716V36.1966H302.812V55.3094H308.148V36.1966H315.374V31.6716H295.62Z" fill="#818284"/>
<path d="M333.281 55.3094H338.988L328.891 31.6716H323.387L313.122 55.3094H318.626L320.482 50.7169H331.423L333.281 55.3094ZM322.239 46.4284L325.987 37.2434L329.702 46.4284H322.239Z" fill="#818284"/>
<path d="M349.591 31.6716V55.3094H354.926V45.9893H365.631V55.3094H370.966V31.6716H365.631V41.532H354.926V31.6716H349.591Z" fill="#818284"/>
<path d="M381.067 45.4153V31.6716H375.731V45.4153C375.731 51.6625 379.919 55.5458 386.47 55.5458C392.987 55.5458 397.073 51.6625 397.073 45.4153V31.6716H391.738V45.4153C391.738 48.8259 389.644 50.8858 386.47 50.8858C383.296 50.8858 381.067 48.8261 381.067 45.4153Z" fill="#818284"/>
<path d="M412.7 31.6716H401.826V55.3094H413.071C418.575 55.3094 421.986 52.8106 421.986 48.7584C421.986 45.6517 420.095 43.3555 417.056 42.7814C419.587 42.1399 421.142 40.1474 421.142 37.5811C421.142 33.9341 417.9 31.6716 412.7 31.6716ZM412.43 41.1943H407.162V36.0278H412.43C414.423 36.0278 415.672 36.9394 415.672 38.5604C415.672 40.2149 414.424 41.1943 412.43 41.1943ZM412.43 50.9533H407.162V45.314H412.43C414.962 45.314 416.482 46.3609 416.482 48.083C416.482 49.9064 414.962 50.9533 412.43 50.9533Z" fill="#818284"/>
</svg>
