<?xml version="1.0" encoding="utf-8"?>
<!-- Generator: Adobe Illustrator 23.1.1, SVG Export Plug-In . SVG Version: 6.00 Build 0)  -->
<svg version="1.1" id="Layer_1" xmlns="http://www.w3.org/2000/svg" xmlns:xlink="http://www.w3.org/1999/xlink" x="0px" y="0px"
	 viewBox="0 0 500 120" style="enable-background:new 0 0 500 120;" xml:space="preserve">
<style type="text/css">
	.st0{fill:none;}
	.st1{fill:#4D4D4D;}
	.st2{fill:#FECF73;}
	.st3{fill:#6185EE;}
	.st4{fill:#73FEBB;}
	.st5{fill:#FE7373;}
</style>
<g>
	<rect class="st0" width="500" height="120"/>
	<g>
		<g>
			<path class="st1" d="M111.1,80.8c-0.5-0.5-0.7-1.2-0.7-2V38.1c0-0.8,0.2-1.4,0.7-1.9s1.2-0.7,2-0.7h15.4c4.8,0,8.5,1.2,11.2,3.5
				s4,5.6,4,9.9s-1.3,7.6-4,10s-6.4,3.6-11.2,3.6h-12.8v16.3c0,0.8-0.2,1.5-0.7,2s-1.1,0.7-1.9,0.7
				C112.2,81.6,111.6,81.3,111.1,80.8z M128,58.1c7,0,10.4-3.1,10.4-9.1s-3.5-9-10.4-9h-12.3v18.2H128V58.1z"/>
			<path class="st1" d="M176.1,74.5c0.3,0.4,0.5,0.9,0.5,1.5c0,1.1-0.8,2.1-2.3,3c-1.6,0.9-3.2,1.6-4.9,2c-1.7,0.5-3.4,0.7-5.1,0.7
				c-4.9,0-8.7-1.4-11.6-4.3c-2.8-2.9-4.3-6.9-4.3-12c0-3.2,0.6-6.1,1.9-8.6c1.3-2.5,3-4.4,5.3-5.8c2.3-1.4,4.9-2.1,7.8-2.1
				c4.1,0,7.4,1.3,9.8,4c2.4,2.7,3.6,6.3,3.6,10.9c0,0.9-0.2,1.5-0.5,1.9s-0.9,0.6-1.7,0.6h-20.9c0.4,7.4,3.9,11.2,10.6,11.2
				c1.7,0,3.1-0.2,4.3-0.7s2.5-1.1,3.9-1.9c1.1-0.6,1.9-1,2.3-1C175.3,73.9,175.8,74.1,176.1,74.5z M156.9,55.6
				c-1.7,1.7-2.6,4.2-2.9,7.3h18.4c-0.1-3.2-0.9-5.7-2.4-7.4s-3.6-2.6-6.4-2.6C160.8,53,158.5,53.8,156.9,55.6z"/>
			<path class="st1" d="M203,51.2c0,0.7-0.2,1.2-0.6,1.7c-0.4,0.4-1.1,0.7-2,0.7l-1.9,0.2c-2.9,0.3-5.1,1.3-6.5,3.1
				s-2.1,3.9-2.1,6.3V79c0,0.9-0.2,1.5-0.7,1.9s-1.1,0.6-1.9,0.6c-0.8,0-1.4-0.2-1.9-0.7s-0.7-1.1-0.7-1.9V51.6
				c0-0.8,0.3-1.5,0.8-1.9c0.5-0.5,1.1-0.7,1.9-0.7c0.7,0,1.3,0.2,1.8,0.7s0.7,1.1,0.7,1.9v3.6c0.9-1.9,2.2-3.4,3.9-4.3
				c1.7-1,3.6-1.6,5.7-1.8l0.9-0.1C202.1,48.9,203,49.6,203,51.2z"/>
			<path class="st1" d="M212.1,79.7c-2.3-1.3-4-3.2-5.3-5.7c-1.2-2.5-1.9-5.3-1.9-8.6c0-3.2,0.6-6.1,1.9-8.6
				c1.3-2.5,3.1-4.5,5.4-5.8c2.3-1.4,4.9-2.1,7.9-2.1c1.6,0,3.3,0.2,4.9,0.7c1.6,0.5,3,1.1,4.2,2c0.8,0.5,1.3,1,1.7,1.5
				c0.3,0.5,0.5,1,0.5,1.7c0,0.6-0.2,1.1-0.5,1.5s-0.7,0.6-1.3,0.6c-0.3,0-0.6-0.1-1-0.3c-0.3-0.2-0.6-0.3-0.9-0.5
				c-0.2-0.2-0.4-0.3-0.5-0.3c-1.1-0.7-2.2-1.3-3.2-1.8c-1-0.4-2.3-0.6-3.7-0.6c-3.2,0-5.6,1.1-7.4,3.2c-1.8,2.1-2.6,5.1-2.6,8.9
				c0,3.8,0.9,6.7,2.6,8.8c1.8,2.1,4.2,3.1,7.4,3.1c1.5,0,2.7-0.2,3.8-0.6s2.1-1,3.2-1.8c0.5-0.3,0.9-0.6,1.4-0.8
				c0.4-0.2,0.8-0.3,1.1-0.3c0.5,0,0.9,0.2,1.2,0.6s0.5,0.9,0.5,1.5s-0.1,1.1-0.5,1.5c-0.3,0.5-0.9,1-1.7,1.5
				c-1.2,0.8-2.7,1.5-4.4,2s-3.4,0.7-5.2,0.7C217,81.7,214.3,81,212.1,79.7z"/>
			<path class="st1" d="M263.6,74.5c0.3,0.4,0.5,0.9,0.5,1.5c0,1.1-0.8,2.1-2.3,3c-1.6,0.9-3.2,1.6-4.9,2c-1.7,0.5-3.4,0.7-5.1,0.7
				c-4.9,0-8.7-1.4-11.6-4.3c-2.8-2.9-4.3-6.9-4.3-12c0-3.2,0.6-6.1,1.9-8.6c1.3-2.5,3-4.4,5.3-5.8c2.3-1.4,4.9-2.1,7.8-2.1
				c4.1,0,7.4,1.3,9.8,4s3.6,6.3,3.6,10.9c0,0.9-0.2,1.5-0.5,1.9s-0.9,0.6-1.7,0.6h-20.9c0.4,7.4,3.9,11.2,10.6,11.2
				c1.7,0,3.1-0.2,4.3-0.7c1.2-0.5,2.5-1.1,3.9-1.9c1.1-0.6,1.9-1,2.3-1C262.9,73.9,263.3,74.1,263.6,74.5z M244.4,55.6
				c-1.7,1.7-2.6,4.2-2.9,7.3h18.4c-0.1-3.2-0.9-5.7-2.4-7.4s-3.6-2.6-6.4-2.6C248.3,53,246,53.8,244.4,55.6z"/>
			<path class="st1" d="M295.3,51c2.1,1.4,3.8,3.3,4.9,5.8c1.2,2.5,1.8,5.4,1.8,8.7c0,3.3-0.6,6.2-1.8,8.6c-1.2,2.4-2.8,4.3-4.9,5.7
				c-2.1,1.3-4.6,2-7.4,2c-2.5,0-4.6-0.5-6.5-1.6c-1.8-1.1-3.2-2.6-4.2-4.6v15.2c0,0.8-0.2,1.4-0.7,1.8c-0.5,0.5-1.1,0.7-1.9,0.7
				s-1.5-0.2-1.9-0.7c-0.5-0.5-0.7-1.1-0.7-1.8V51.6c0-0.8,0.2-1.4,0.7-1.9s1.1-0.7,1.9-0.7s1.5,0.2,1.9,0.7s0.7,1.1,0.7,1.9v3.5
				c0.9-2,2.3-3.5,4.2-4.6c1.8-1.1,4-1.6,6.5-1.6C290.8,48.9,293.2,49.6,295.3,51z M294.1,74.3c1.7-2.1,2.5-5,2.5-8.8
				c0-3.8-0.8-6.8-2.5-8.9s-4.1-3.2-7.1-3.2c-3.1,0-5.4,1-7.1,3.1s-2.5,5-2.5,8.9s0.8,6.8,2.5,8.9s4,3.1,7.1,3.1
				C290,77.4,292.4,76.3,294.1,74.3z"/>
			<path class="st1" d="M326.7,79.5c0,0.7-0.3,1.3-0.8,1.7c-0.5,0.4-1.4,0.5-2.4,0.4l-1.8-0.1c-3.5-0.3-6-1.3-7.7-3.1
				c-1.6-1.8-2.5-4.6-2.5-8.2V53.8h-4.3c-0.7,0-1.3-0.2-1.7-0.6c-0.4-0.4-0.6-0.9-0.6-1.5s0.2-1.2,0.6-1.6c0.4-0.4,1-0.6,1.7-0.6
				h4.3v-7.3c0-0.8,0.2-1.5,0.7-1.9c0.5-0.5,1.1-0.7,1.9-0.7s1.4,0.2,1.9,0.7s0.7,1.1,0.7,1.9v7.3h7.2c0.7,0,1.2,0.2,1.7,0.6
				c0.4,0.4,0.6,0.9,0.6,1.6c0,0.6-0.2,1.1-0.6,1.5s-1,0.6-1.7,0.6h-7.2v16.5c0,2.4,0.5,4.1,1.5,5.2s2.4,1.7,4.4,1.8l1.8,0.1
				C325.9,77.6,326.7,78.3,326.7,79.5z"/>
			<path class="st1" d="M332,41.3c-0.6-0.6-1-1.4-1-2.4s0.3-1.7,1-2.3c0.6-0.6,1.5-0.9,2.5-0.9s1.9,0.3,2.5,0.9c0.6,0.6,1,1.4,1,2.3
				c0,1-0.3,1.8-1,2.4c-0.6,0.6-1.5,0.9-2.5,0.9S332.6,41.9,332,41.3z M332.6,80.9c-0.5-0.5-0.7-1.1-0.7-1.9V51.6
				c0-0.8,0.2-1.5,0.7-1.9c0.5-0.5,1.1-0.7,1.9-0.7s1.4,0.2,1.9,0.7s0.7,1.1,0.7,1.9V79c0,0.9-0.2,1.5-0.7,1.9s-1.1,0.6-1.9,0.6
				S333.1,81.4,332.6,80.9z"/>
			<path class="st1" d="M348.4,80.6c-0.5-0.5-0.7-1-0.7-1.8V37.9c0-0.8,0.2-1.5,0.7-2s1.1-0.7,1.9-0.7s1.5,0.3,1.9,0.7
				c0.5,0.5,0.7,1.2,0.7,2v38.8h21c0.8,0,1.4,0.2,1.8,0.6s0.6,0.9,0.6,1.7c0,0.7-0.2,1.3-0.6,1.7c-0.4,0.4-1,0.6-1.8,0.6h-23.7
				C349.5,81.3,348.9,81,348.4,80.6z"/>
			<path class="st1" d="M406.7,61.3V79c0,0.8-0.2,1.4-0.7,1.9s-1.1,0.7-1.9,0.7s-1.4-0.2-1.9-0.7s-0.7-1.1-0.7-1.9v-3.1
				c-0.8,1.9-2.1,3.3-3.8,4.3c-1.7,1-3.6,1.5-5.8,1.5c-2,0-3.9-0.4-5.6-1.2c-1.7-0.8-3.1-2-4.1-3.4c-1-1.5-1.5-3.1-1.5-4.9
				c0-2.4,0.6-4.2,1.8-5.5c1.2-1.3,3.2-2.3,6-2.9s6.6-0.9,11.5-0.9h1.4v-2.1c0-2.6-0.5-4.5-1.6-5.7s-2.8-1.8-5.2-1.8
				c-2.9,0-5.9,0.8-9,2.4c-1.2,0.7-2,1.1-2.5,1.1s-0.9-0.2-1.3-0.6c-0.3-0.4-0.5-0.9-0.5-1.5s0.2-1.1,0.6-1.6s1-0.9,1.8-1.4
				c1.5-0.9,3.2-1.6,5.2-2c1.9-0.5,3.8-0.7,5.7-0.7C402.8,48.9,406.7,53,406.7,61.3z M399.1,74.9c1.7-1.8,2.5-4,2.5-6.8v-1.9h-1.2
				c-3.8,0-6.7,0.2-8.7,0.5s-3.4,0.9-4.2,1.6c-0.8,0.8-1.3,1.9-1.3,3.3c0,1.7,0.6,3.1,1.9,4.2c1.2,1.1,2.8,1.7,4.6,1.7
				C395.3,77.6,397.4,76.7,399.1,74.9z"/>
			<path class="st1" d="M439.5,50.9c2.1,1.3,3.8,3.2,4.9,5.7c1.2,2.5,1.8,5.3,1.8,8.6s-0.6,6.2-1.8,8.7c-1.2,2.5-2.8,4.4-4.9,5.8
				s-4.6,2.1-7.3,2.1c-2.5,0-4.6-0.5-6.5-1.6c-1.8-1.1-3.2-2.6-4.2-4.6V79c0,0.8-0.2,1.4-0.7,1.9s-1.1,0.7-1.9,0.7s-1.5-0.2-1.9-0.7
				c-0.5-0.5-0.7-1.1-0.7-1.9V37.7c0-0.7,0.2-1.3,0.7-1.8s1.1-0.7,1.9-0.7s1.5,0.2,1.9,0.7c0.5,0.5,0.7,1.1,0.7,1.8v17.4
				c0.9-2,2.3-3.5,4.2-4.6c1.8-1.1,4-1.6,6.5-1.6C435,48.9,437.4,49.6,439.5,50.9z M438.3,74.2c1.7-2.1,2.5-5.1,2.5-9
				c0-3.8-0.8-6.7-2.5-8.8s-4.1-3.1-7.1-3.1c-3.1,0-5.4,1-7.1,3.1s-2.5,5-2.5,8.9s0.8,6.8,2.5,8.9s4,3.1,7.1,3.1
				C434.2,77.4,436.6,76.3,438.3,74.2z"/>
			<path class="st1" d="M459,81c-1.8-0.5-3.4-1.1-4.8-2c-0.8-0.5-1.3-1-1.7-1.5c-0.3-0.5-0.5-1-0.5-1.7c0-0.6,0.2-1,0.5-1.4
				s0.7-0.6,1.3-0.6c0.5,0,1.3,0.3,2.3,1c1.3,0.8,2.6,1.4,3.9,1.9s2.9,0.7,4.8,0.7c2.3,0,4.2-0.4,5.4-1.2c1.3-0.8,1.9-2,1.9-3.6
				c0-1-0.2-1.7-0.7-2.3c-0.5-0.6-1.3-1.1-2.5-1.6s-2.9-0.9-5.1-1.4c-3.8-0.8-6.5-1.9-8.2-3.3c-1.6-1.4-2.5-3.3-2.5-5.6
				c0-1.9,0.5-3.5,1.6-4.9c1-1.4,2.5-2.6,4.3-3.4c1.8-0.8,3.9-1.2,6.3-1.2c1.7,0,3.3,0.2,4.9,0.7s3,1.1,4.2,1.9
				c1.5,1,2.2,2.1,2.2,3.2c0,0.6-0.2,1-0.5,1.4s-0.8,0.6-1.2,0.6c-0.5,0-1.3-0.4-2.3-1.1c-1.2-0.8-2.4-1.4-3.4-1.8
				c-1.1-0.4-2.4-0.6-4-0.6c-2,0-3.7,0.5-4.9,1.4c-1.2,0.9-1.9,2.1-1.9,3.6c0,0.9,0.2,1.7,0.7,2.3s1.2,1.1,2.3,1.6
				c1.1,0.5,2.6,0.9,4.6,1.3c2.9,0.6,5.2,1.4,6.8,2.1c1.6,0.8,2.8,1.7,3.5,2.9c0.7,1.1,1,2.5,1,4.3c0,2.7-1.1,4.9-3.4,6.6
				s-5.3,2.5-9.1,2.5C462.7,81.7,460.8,81.5,459,81z"/>
		</g>
		<g>
			<g>
				<g>
					<circle class="st2" cx="72" cy="22.9" r="7.8"/>
				</g>
			</g>
			<g>
				<g>
					<path class="st3" d="M35.4,85.6c-2.5,0-4.9-1.2-6.3-3.4c-2.4-3.5-1.5-8.3,2-10.7l38.4-26.1c3.5-2.4,8.3-1.5,10.7,2
						c2.4,3.5,1.5,8.3-2,10.7L39.7,84.3C38.4,85.2,36.9,85.6,35.4,85.6z"/>
				</g>
			</g>
			<g>
				<g>
					<g>
						<path class="st4" d="M30.4,58.9c-2.5,0-4.9-1.2-6.3-3.4c-2.4-3.5-1.5-8.3,2-10.7l19.2-13.1c3.5-2.4,8.3-1.5,10.7,2
							s1.5,8.3-2,10.7L34.7,57.5C33.4,58.4,31.9,58.9,30.4,58.9z"/>
					</g>
				</g>
			</g>
			<g>
				<g>
					<circle class="st5" cx="49.6" cy="97.1" r="7.8"/>
				</g>
			</g>
		</g>
	</g>
</g>
</svg>
