<svg width="64" height="64" viewBox="0 0 64 64" fill="none" xmlns="http://www.w3.org/2000/svg">
  <path d="M29.5468 22.2219C29.5468 20.7733 29.1173 19.3572 28.3124 18.1527C27.5076 16.9482 26.3637 16.0094 25.0253 15.455C23.687 14.9006 22.2143 14.7556 20.7935 15.0382C19.3727 15.3208 18.0676 16.0184 17.0432 17.0427C16.0189 18.0671 15.3213 19.3722 15.0387 20.793C14.7561 22.2138 14.9011 23.6865 15.4555 25.0249C16.0099 26.3632 16.9487 27.5071 18.1532 28.312C19.3577 29.1168 20.7738 29.5464 22.2224 29.5464C24.1635 29.5417 26.0238 28.7685 27.3964 27.3959C28.769 26.0233 29.5421 24.163 29.5468 22.2219ZM22.2224 27.3419C21.2098 27.3419 20.2199 27.0416 19.3779 26.479C18.5359 25.9164 17.8797 25.1168 17.4921 24.1812C17.1046 23.2457 17.0032 22.2162 17.2008 21.223C17.3983 20.2299 17.886 19.3176 18.602 18.6015C19.3181 17.8855 20.2304 17.3978 21.2235 17.2003C22.2167 17.0027 23.2462 17.1041 24.1817 17.4916C25.1173 17.8792 25.9169 18.5354 26.4795 19.3774C27.0421 20.2194 27.3424 21.2093 27.3424 22.2219C27.3424 23.5798 26.803 24.8821 25.8428 25.8423C24.8826 26.8025 23.5803 27.3419 22.2224 27.3419Z" fill="#EE0000"/>
  <path d="M31.1113 34.4531C29.6627 34.4531 28.2466 34.8827 27.0421 35.6875C25.8376 36.4923 24.8988 37.6363 24.3444 38.9746C23.79 40.313 23.645 41.7857 23.9276 43.2065C24.2102 44.6273 24.9078 45.9324 25.9321 46.9567C26.9565 47.9811 28.2616 48.6787 29.6824 48.9613C31.1032 49.2439 32.5759 49.0988 33.9143 48.5445C35.2526 47.9901 36.3965 47.0513 37.2014 45.8468C38.0062 44.6423 38.4358 43.2262 38.4358 41.7776C38.4311 39.8365 37.6579 37.9762 36.2853 36.6036C34.9127 35.231 33.0524 34.4578 31.1113 34.4531ZM31.1113 46.8976C30.0987 46.8976 29.1088 46.5973 28.2668 46.0347C27.4248 45.4721 26.7686 44.6725 26.381 43.7369C25.9935 42.8014 25.8921 41.7719 26.0897 40.7787C26.2872 39.7855 26.7749 38.8732 27.4909 38.1572C28.207 37.4411 29.1193 36.9535 30.1124 36.756C31.1056 36.5584 32.1351 36.6598 33.0707 37.0473C34.0062 37.4348 34.8058 38.0911 35.3684 38.9331C35.931 39.775 36.2313 40.7649 36.2313 41.7776C36.2313 43.1355 35.6919 44.4378 34.7317 45.398C33.7715 46.3581 32.4692 46.8976 31.1113 46.8976Z" fill="#EE0000"/>
  <path d="M56.2133 22.2219C56.2133 20.7733 55.7838 19.3572 54.979 18.1527C54.1741 16.9482 53.0302 16.0094 51.6918 15.455C50.3535 14.9006 48.8808 14.7556 47.46 15.0382C46.0392 15.3208 44.7341 16.0184 43.7097 17.0427C42.6854 18.0671 41.9878 19.3722 41.7052 20.793C41.4226 22.2138 41.5676 23.6865 42.122 25.0249C42.6764 26.3632 43.6152 27.5071 44.8197 28.312C46.0242 29.1168 47.4403 29.5464 48.8889 29.5464C50.83 29.5417 52.6903 28.7685 54.0629 27.3959C55.4355 26.0233 56.2086 24.163 56.2133 22.2219ZM48.8889 27.3419C47.8763 27.3419 46.8864 27.0416 46.0444 26.479C45.2024 25.9164 44.5462 25.1168 44.1586 24.1812C43.7711 23.2457 43.6697 22.2162 43.8673 21.223C44.0648 20.2299 44.5525 19.3176 45.2685 18.6015C45.9846 17.8855 46.8969 17.3978 47.89 17.2003C48.8832 17.0027 49.9127 17.1041 50.8482 17.4916C51.7838 17.8792 52.5834 18.5354 53.146 19.3774C53.7086 20.2194 54.0089 21.2093 54.0089 22.2219C54.0089 23.5798 53.4695 24.8821 52.5093 25.8423C51.5491 26.8025 50.2468 27.3419 48.8889 27.3419Z" fill="#EE0000"/>
  <path d="M8.88899 14.8976C8.74358 14.8952 8.59918 14.9221 8.46436 14.9766C8.32955 15.0312 8.20708 15.1123 8.10425 15.2151C8.00141 15.3179 7.92031 15.4404 7.86577 15.5752C7.81123 15.71 7.78437 15.8544 7.78677 15.9998V28.4443C7.78677 28.7366 7.9029 29.017 8.1096 29.2237C8.31631 29.4304 8.59666 29.5465 8.88899 29.5465C9.18132 29.5465 9.46167 29.4304 9.66838 29.2237C9.87509 29.017 9.99121 28.7366 9.99121 28.4443V15.9998C9.99362 15.8544 9.96675 15.71 9.91221 15.5752C9.85767 15.4404 9.77657 15.3179 9.67374 15.2151C9.5709 15.1123 9.44844 15.0312 9.31362 14.9766C9.17881 14.9221 9.0344 14.8952 8.88899 14.8976Z" fill="#EE0000"/>
  <path d="M8.88899 34.4533C8.74358 34.4509 8.59918 34.4777 8.46436 34.5323C8.32955 34.5868 8.20708 34.6679 8.10425 34.7708C8.00141 34.8736 7.92031 34.9961 7.86577 35.1309C7.81123 35.2657 7.78437 35.4101 7.78677 35.5555V47.9999C7.78677 48.2923 7.9029 48.5726 8.1096 48.7793C8.31631 48.986 8.59666 49.1022 8.88899 49.1022C9.18132 49.1022 9.46167 48.986 9.66838 48.7793C9.87509 48.5726 9.99121 48.2923 9.99121 47.9999V35.5555C9.99362 35.4101 9.96675 35.2657 9.91221 35.1309C9.85767 34.9961 9.77657 34.8736 9.67374 34.7708C9.5709 34.6679 9.44844 34.5868 9.31362 34.5323C9.17881 34.4777 9.0344 34.4509 8.88899 34.4533Z" fill="#EE0000"/>
  <path d="M17.7779 34.4533C17.6325 34.4509 17.4881 34.4777 17.3533 34.5323C17.2185 34.5868 17.096 34.6679 16.9932 34.7708C16.8903 34.8736 16.8092 34.9961 16.7547 35.1309C16.7001 35.2657 16.6733 35.4101 16.6757 35.5555V47.9999C16.6757 48.2923 16.7918 48.5726 16.9985 48.7793C17.2052 48.986 17.4856 49.1022 17.7779 49.1022C18.0702 49.1022 18.3506 48.986 18.5573 48.7793C18.764 48.5726 18.8801 48.2923 18.8801 47.9999V35.5555C18.8825 35.4101 18.8557 35.2657 18.8011 35.1309C18.7466 34.9961 18.6655 34.8736 18.5627 34.7708C18.4598 34.6679 18.3374 34.5868 18.2025 34.5323C18.0677 34.4777 17.9233 34.4509 17.7779 34.4533Z" fill="#EE0000"/>
  <path d="M44.4447 34.4533C44.2992 34.4509 44.1548 34.4777 44.02 34.5323C43.8852 34.5868 43.7627 34.6679 43.6599 34.7708C43.5571 34.8736 43.476 34.9961 43.4214 35.1309C43.3669 35.2657 43.34 35.4101 43.3424 35.5555V47.9999C43.3424 48.2923 43.4586 48.5726 43.6653 48.7793C43.872 48.986 44.1523 49.1022 44.4447 49.1022C44.737 49.1022 45.0173 48.986 45.224 48.7793C45.4308 48.5726 45.5469 48.2923 45.5469 47.9999V35.5555C45.5493 35.4101 45.5224 35.2657 45.4679 35.1309C45.4133 34.9961 45.3322 34.8736 45.2294 34.7708C45.1266 34.6679 45.0041 34.5868 44.8693 34.5323C44.7345 34.4777 44.5901 34.4509 44.4447 34.4533Z" fill="#EE0000"/>
  <path d="M53.3333 34.4533C53.1879 34.4509 53.0435 34.4777 52.9087 34.5323C52.7739 34.5868 52.6514 34.6679 52.5486 34.7708C52.4458 34.8736 52.3647 34.9961 52.3101 35.1309C52.2556 35.2657 52.2287 35.4101 52.2311 35.5555V47.9999C52.2311 48.2923 52.3472 48.5726 52.5539 48.7793C52.7606 48.986 53.041 49.1022 53.3333 49.1022C53.6257 49.1022 53.906 48.986 54.1127 48.7793C54.3194 48.5726 54.4356 48.2923 54.4356 47.9999V35.5555C54.438 35.4101 54.4111 35.2657 54.3565 35.1309C54.302 34.9961 54.2209 34.8736 54.1181 34.7708C54.0152 34.6679 53.8928 34.5868 53.758 34.5323C53.6231 34.4777 53.4787 34.4509 53.3333 34.4533Z" fill="#EE0000"/>
  <path d="M35.5557 29.5464C35.7011 29.5488 35.8456 29.5219 35.9804 29.4673C36.1152 29.4128 36.2376 29.3317 36.3405 29.2289C36.4433 29.126 36.5244 29.0036 36.579 28.8688C36.6335 28.7339 36.6604 28.5895 36.658 28.4441V15.9997C36.658 15.7074 36.5418 15.427 36.3351 15.2203C36.1284 15.0136 35.8481 14.8975 35.5557 14.8975C35.2634 14.8975 34.9831 15.0136 34.7764 15.2203C34.5696 15.427 34.4535 15.7074 34.4535 15.9997V28.4441C34.4511 28.5895 34.478 28.7339 34.5325 28.8688C34.5871 29.0036 34.6682 29.126 34.771 29.2289C34.8738 29.3317 34.9963 29.4128 35.1311 29.4673C35.2659 29.5219 35.4103 29.5488 35.5557 29.5464Z" fill="#EE0000"/>
</svg>
