<svg width="780" height="368" viewBox="0 0 780 368" fill="none" xmlns="http://www.w3.org/2000/svg">
  <mask id="mask0_187_11559" style="mask-type:luminance" maskUnits="userSpaceOnUse" x="0" y="0" width="780" height="368">
    <path d="M780 0.385742L0 0.385742L0 368L780 368V0.385742Z" fill="white"/>
  </mask>
  <g mask="url(#mask0_187_11559)">
    <g opacity="0.8">
      <path d="M430.95 -43.1385L305.136 -60.2205V-60.4545L304.824 -60.2985L148.356 -89.3925H148.2L68.2501 -89.7825L-33.462 -64.3545L-34.476 -64.9785L-33.8519 -64.1205L-101.478 11.8515V12.0075L-59.9819 104.125L-123.006 176.119L-115.44 267.379V267.535L-81.4319 351.619V351.775L-14.04 368.077H-13.8059L71.136 380.557V381.025L71.4481 380.635L115.596 399.355H115.752L197.886 334.459H197.964L197.496 250.219L276.354 210.283L277.368 210.049L276.51 209.815L276.198 156.931L346.398 128.149L384.306 139.069L444.054 80.4915L509.106 72.0675L519.324 16.8435L588.354 -22.8585L431.028 -43.2945L430.95 -43.1385ZM443.508 80.3355L384.228 138.445L360.204 64.1895L431.652 36.9675L443.508 80.3355ZM74.412 282.745L196.326 250.609L71.6041 379.699L74.412 282.745ZM74.022 282.355L9.51605 313.243L-7.48792 274.009L17.316 234.931C28.626 233.995 122.772 240.703 131.976 241.405L73.9441 282.355H74.022ZM-7.95593 273.775L-84.0839 282.823L1.95007 191.407L16.8481 234.697L-7.95593 273.775ZM-59.5139 104.593L-5.22595 111.301L1.79407 190.861L-84.3959 282.433L-59.5919 104.593H-59.5139ZM148.356 -88.6905L274.482 -36.5085L199.836 -20.6745L100.152 -15.6045L148.356 -88.6905ZM245.232 49.2915L247.026 123.469L187.2 57.0135L245.232 49.2915ZM245.466 48.7455L186.966 56.5455L200.07 -20.0505L326.04 36.9675L245.466 48.7455ZM326.898 37.3575L359.034 63.7215L247.416 48.9795L326.898 37.3575ZM18.0181 234.463L70.98 192.733L149.838 175.339L132.522 241.015C127.374 240.625 32.4481 233.839 17.9401 234.463H18.0181ZM2.41803 190.939L-4.60193 111.847L70.5121 192.499L17.316 234.385L2.41803 190.939ZM104.52 23.7855L185.952 56.9355L112.164 85.1715L41.652 44.7675L104.442 23.7855H104.52ZM111.852 85.5615L70.98 191.563L41.418 45.2355L111.852 85.5615ZM150.072 174.793L71.3701 192.187L112.398 85.7175L186.264 57.4035L149.994 174.793H150.072ZM199.602 -20.0505L186.498 56.6235L104.832 23.3955L99.996 -14.9805L199.602 -20.0505ZM41.184 44.4555L-32.6039 -62.9505L103.974 23.5515L41.184 44.5335V44.4555ZM70.434 191.719L-4.60193 111.145L40.9501 45.3915L70.434 191.719ZM150.384 175.339L275.028 210.205L133.068 241.015L150.384 175.339ZM186.732 57.4815L246.87 124.249L150.618 174.559L186.732 57.5595V57.4815ZM247.494 123.859L245.7 49.3695L358.956 64.3455L247.494 123.859ZM431.496 36.5775L360.516 63.6435L430.638 -41.8905L431.496 36.4995V36.5775ZM430.482 -42.5145L359.814 63.7995L327.21 37.0455L305.292 -59.5185L430.56 -42.5145H430.482ZM326.586 36.7335L200.694 -20.2065L275.418 -36.1185L304.668 -59.3625L326.508 36.7335H326.586ZM275.34 -36.6645L150.618 -88.2225L304.278 -59.6745L275.34 -36.6645ZM147.732 -88.6905L99.6841 -15.8385L68.406 -89.0805L147.81 -88.6905H147.732ZM67.782 -89.0805L99.2941 -15.2145L104.052 23.0055L-33.0719 -63.8085L67.704 -89.0025L67.782 -89.0805ZM40.4041 44.2995L-100.932 12.0855L-33.6959 -63.4965L40.4041 44.2995ZM-100.932 12.6315L40.5601 44.9235L-5.14795 110.911L-59.5919 104.203L-100.932 12.7095V12.6315ZM-122.616 176.587L-60.1379 105.217L-84.942 282.901L-115.05 267.457L-122.616 176.587ZM-85.02 283.447V283.603L-81.588 350.293L-114.816 268.159L-85.02 283.447ZM-14.2739 367.765L-81.0419 351.619L-84.4739 283.603L-7.95593 274.555L9.12604 313.867L-14.1959 367.843L-14.2739 367.765ZM-13.728 367.843L9.59406 313.945L73.8661 283.135L71.058 380.245L-13.728 367.765V367.843ZM197.34 334.381L115.596 398.887L71.76 380.323L196.872 250.843L197.34 334.303V334.381ZM197.028 250.063L75.426 282.121L132.834 241.639L274.17 210.985L196.95 250.141L197.028 250.063ZM275.886 209.893L150.93 174.949L247.26 124.639L275.652 157.165L275.964 209.971L275.886 209.893ZM346.008 127.915L275.886 156.619L247.65 124.249L359.424 64.5795L346.008 127.837V127.915ZM359.892 65.1255L383.682 138.601L346.554 127.837L359.892 65.0475V65.1255ZM508.56 71.8335L444.054 80.1795L432.198 36.8115L518.7 17.2335L508.56 71.8335ZM518.934 16.6875L432.12 36.3435L431.262 -42.5145L586.716 -22.3125L518.934 16.6875Z" fill="#D1D3D4"/>
      <path d="M386.178 138.836C386.178 140.006 385.086 140.864 383.916 140.786C382.746 140.786 381.888 139.694 381.966 138.524C382.044 137.354 383.058 136.496 384.228 136.574C385.398 136.652 386.256 137.666 386.178 138.836Z" fill="#0066CC"/>
      <path d="M362.544 64.2671C362.466 65.7491 361.14 66.919 359.58 66.841C358.098 66.763 356.928 65.4371 357.006 63.8771C357.084 62.3951 358.41 61.225 359.97 61.303C361.452 61.381 362.622 62.7071 362.544 64.2671Z" fill="#4CB140"/>
      <path d="M433.914 36.8117C433.914 37.9817 432.822 38.8397 431.652 38.7617C430.482 38.6837 429.624 37.6697 429.702 36.4997C429.702 35.3297 430.794 34.4717 431.964 34.5497C433.134 34.5497 433.992 35.6417 433.914 36.8117Z" fill="#009596"/>
      <path d="M445.614 80.258C445.614 81.428 444.522 82.286 443.352 82.208C442.182 82.13 441.324 81.116 441.402 79.946C441.48 78.776 442.494 77.918 443.664 77.996C444.834 77.996 445.692 79.088 445.614 80.258Z" fill="#F4C145"/>
      <path d="M520.884 17.3898C520.884 18.5598 519.792 19.4178 518.622 19.3398C517.452 19.3398 516.594 18.2478 516.672 17.0778C516.672 15.9078 517.764 15.0498 518.934 15.1278C520.104 15.2058 520.962 16.2198 520.884 17.3898Z" fill="#0066CC"/>
      <path d="M511.524 72.2231C511.446 73.7051 510.12 74.8751 508.56 74.7971C507.078 74.7191 505.908 73.3931 505.986 71.8331C506.064 70.3511 507.39 69.1811 508.95 69.2591C510.432 69.3371 511.602 70.6631 511.524 72.2231Z" fill="#C9190B"/>
      <path d="M329.004 37.1242C329.004 38.2942 327.912 39.1522 326.742 39.0742C325.572 39.0742 324.714 37.9822 324.792 36.8122C324.792 35.6422 325.884 34.7842 327.054 34.8622C328.224 34.9402 329.082 35.9542 329.004 37.1242Z" fill="#C9190B"/>
      <path d="M248.586 49.0571C248.508 50.5391 247.182 51.7091 245.622 51.6311C244.14 51.5531 242.97 50.2271 243.048 48.6671C243.126 47.1851 244.452 46.0151 246.012 46.0931C247.494 46.1711 248.664 47.4971 248.586 49.0571Z" fill="#F4C145"/>
      <path d="M249.366 124.171C249.366 125.341 248.274 126.199 247.104 126.121C245.934 126.043 245.076 125.029 245.154 123.859C245.154 122.689 246.246 121.831 247.416 121.909C248.586 121.909 249.444 123.001 249.366 124.171Z" fill="#009596"/>
      <path d="M277.992 157.01C277.992 158.18 276.9 159.038 275.73 158.96C274.56 158.96 273.702 157.868 273.78 156.698C273.78 155.528 274.872 154.67 276.042 154.748C277.212 154.826 278.07 155.84 277.992 157.01Z" fill="#F4C145"/>
      <path d="M278.538 210.362C278.46 211.844 277.134 213.014 275.574 212.936C274.092 212.858 272.922 211.532 273 209.972C273.078 208.49 274.404 207.32 275.964 207.398C277.446 207.476 278.616 208.802 278.538 210.362Z" fill="#C9190B"/>
      <path d="M152.568 175.028C152.49 176.198 151.476 177.056 150.306 176.978C149.136 176.9 148.278 175.886 148.356 174.716C148.356 173.546 149.448 172.688 150.618 172.766C151.788 172.766 152.646 173.858 152.568 175.028Z" fill="#C9190B"/>
      <path d="M199.056 250.531C199.056 251.701 197.964 252.559 196.794 252.481C195.624 252.403 194.766 251.389 194.844 250.219C194.844 249.049 195.936 248.191 197.106 248.269C198.276 248.347 199.134 249.361 199.056 250.531Z" fill="#0066CC"/>
      <path d="M77.2199 282.59C77.1419 284.072 75.8159 285.242 74.2559 285.164C72.7739 285.086 71.604 283.76 71.682 282.2C71.76 280.718 73.0859 279.548 74.6459 279.626C76.1279 279.704 77.2979 281.03 77.2199 282.59Z" fill="#4CB140"/>
      <path d="M200.304 334.616C200.226 336.098 198.9 337.268 197.34 337.19C195.858 337.112 194.688 335.786 194.766 334.226C194.844 332.666 196.17 331.574 197.73 331.652C199.212 331.73 200.382 333.056 200.304 334.616Z" fill="#C9190B"/>
      <path d="M134.784 241.405C134.706 242.575 133.692 243.433 132.522 243.355C131.352 243.277 130.494 242.263 130.572 241.093C130.572 239.923 131.664 239.065 132.834 239.143C134.004 239.221 134.862 240.235 134.784 241.405Z" fill="#F4C145"/>
      <path d="M188.76 57.092C188.76 58.262 187.668 59.12 186.498 59.042C185.328 59.042 184.47 57.95 184.548 56.78C184.548 55.61 185.64 54.752 186.81 54.83C187.98 54.908 188.838 55.922 188.76 57.092Z" fill="#0066CC"/>
      <path d="M107.172 23.4741C107.094 24.9561 105.768 26.1261 104.208 26.0481C102.726 25.9701 101.556 24.6441 101.634 23.0841C101.712 21.6021 103.038 20.4321 104.598 20.5101C106.08 20.5881 107.25 21.9141 107.172 23.4741Z" fill="#4CB140"/>
      <path d="M43.134 44.8459C43.056 46.0159 42.042 46.8739 40.872 46.7959C39.702 46.7959 38.844 45.7039 38.922 44.5339C39 43.3639 40.014 42.5059 41.184 42.5839C42.354 42.6619 43.212 43.6759 43.134 44.8459Z" fill="#0066CC"/>
      <path d="M114.894 85.562C114.816 87.044 113.49 88.214 111.93 88.136C110.448 88.058 109.278 86.732 109.356 85.172C109.434 83.69 110.76 82.52 112.32 82.598C113.802 82.676 114.972 84.002 114.894 85.562Z" fill="#F4C145"/>
      <path d="M73.7102 192.422C73.6322 193.904 72.3062 195.074 70.7462 194.996C69.2642 194.918 68.0942 193.592 68.1722 192.032C68.2502 190.55 69.5762 189.38 71.1362 189.458C72.6182 189.536 73.7882 190.862 73.7102 192.422Z" fill="#0066CC"/>
      <path d="M4.13399 191.173C4.13399 192.343 3.04199 193.201 1.87199 193.123C0.701988 193.123 -0.156013 192.031 -0.0780125 190.861C-1.23978e-05 189.691 1.01399 188.833 2.18399 188.911C3.35399 188.911 4.21199 190.003 4.13399 191.173Z" fill="#4CB140"/>
      <path d="M19.4221 234.776C19.4221 235.946 18.3301 236.804 17.1601 236.726C15.9901 236.726 15.1321 235.634 15.2101 234.464C15.2101 233.294 16.3021 232.436 17.4721 232.514C18.6421 232.514 19.5001 233.606 19.4221 234.776Z" fill="#009596"/>
      <path d="M11.5442 313.712C11.5442 314.882 10.4521 315.74 9.28214 315.662C8.11214 315.662 7.25414 314.57 7.33214 313.4C7.41014 312.23 8.42415 311.372 9.59415 311.45C10.7642 311.45 11.6222 312.542 11.5442 313.712Z" fill="#F4C145"/>
    </g>
    <g opacity="0.4">
      <path d="M547.638 -31.8279L501.306 -31.4379L400.53 -41.7339L371.046 -19.3479L330.72 -26.1339L260.286 -47.6619L197.028 -64.5099L169.728 -95.3199L103.194 -77.6919L62.8679 -32.2959L11.4659 -26.2119L-41.1841 29.6361L-36.114 86.3421L-101.4 118.01L-110.76 203.732L-55.1461 334.616L-33.6181 383.834L59.9819 374.006L97.7339 383.912L120.12 376.814L285.324 298.658H285.948L285.402 298.424L251.862 195.776L347.802 193.982H347.958L343.746 118.322L452.478 122.378L483.054 118.244H483.288L483.054 118.088L477.594 48.3561L551.772 42.7401L579.306 11.6961L547.872 -31.8279H547.638ZM400.53 -41.4219L500.604 -31.2039L436.8 -12.6399L420.264 38.9181L363.792 44.4561L371.124 -19.0359L400.53 -41.3439V-41.4219ZM251.16 195.62L189.774 247.022L194.688 153.188L245.622 94.4541L251.082 195.542V195.62H251.16ZM-20.28 261.998V178.46L42.588 129.164L60.0599 210.986L25.038 283.526L-20.28 261.998ZM133.536 -41.4999L136.968 13.3341L93.3659 19.2621L62.8679 -32.1399L103.038 -77.3799L133.536 -41.5779V-41.4999ZM192.972 19.2621L137.202 13.3341L133.77 -41.3439L271.596 4.91013L192.894 19.3401L192.972 19.2621ZM93.3659 19.4961L137.124 13.4901L192.894 19.4181L189.618 51.1641L150.618 103.814L34.0079 61.7721L93.4439 19.4961H93.3659ZM60.606 210.908L137.124 172.61L194.454 153.344L189.54 247.178L60.606 210.986V210.908ZM194.61 153.032L137.28 172.298L150.696 104.048L189.696 51.4761L245.622 94.1421L194.532 153.032H194.61ZM150.462 104.126L136.968 172.454L60.294 210.83L42.744 128.93L33.7739 62.0841L150.384 104.126H150.462ZM60.294 211.142L189.228 247.334L111.072 276.896L25.2719 283.448L60.2159 211.064L60.294 211.142ZM189.696 247.49L284.31 298.346L111.774 277.052L189.774 247.49H189.696ZM245.934 94.0641L245.7 93.9081L189.852 51.3201L193.128 19.6521L272.142 5.1441L312.858 89.3841L245.934 94.0641ZM313.092 89.3061L272.376 5.06613L330.72 -25.7439L370.968 -18.9579L363.558 44.6121L313.092 89.3061ZM330.33 -25.8219L272.22 4.91013L134.16 -41.4219L196.95 -64.1199L260.208 -47.2719L330.408 -25.8219H330.33ZM196.638 -64.2759L133.77 -41.5779L103.35 -77.3019L169.572 -94.8519L196.638 -64.2759ZM-41.1841 30.0261L11.3099 -25.7439L62.6339 -31.8279L93.1319 19.5741L33.5399 62.0061L-36.1921 86.5761L-41.262 30.1041L-41.1841 30.0261ZM-36.1921 86.8101L33.5399 62.2401L42.5099 129.008L-20.436 178.382L-101.4 118.4L-36.2701 86.8101H-36.1921ZM-110.838 203.966L-101.478 118.634L-20.514 178.616V262.154L-55.3021 334.46L-110.76 203.888L-110.838 203.966ZM-55.2241 334.85L-20.3581 262.388L24.9599 283.916L59.436 374.006L-33.7741 383.912L-55.1461 334.85H-55.2241ZM59.67 374.006L25.194 283.916L110.916 277.364L97.344 383.834L59.67 374.006ZM119.574 376.736L97.5779 383.834L111.15 277.364L284.31 298.736L119.496 376.736H119.574ZM284.622 298.424L189.852 247.49L251.238 196.088L284.7 298.424H284.622ZM251.394 195.698L245.934 94.6101L347.1 193.904L251.394 195.698ZM347.256 193.67L246.09 94.3761L312.936 89.6961L343.044 118.4L347.256 193.67ZM343.2 118.244L313.092 89.5401L363.558 44.8461L482.118 118.322H481.806L452.01 122.378L343.2 118.244ZM482.352 118.088L363.948 44.7681L420.264 39.2301L476.892 48.5121L482.352 118.088ZM551.226 42.6621L476.97 48.2781L420.42 38.9961L436.878 -12.3279L501.228 -30.9699L547.404 -31.4379L578.682 11.7741L551.226 42.6621Z" fill="#BCBEC0"/>
      <path opacity="0.7" d="M484.224 118.245C484.224 119.181 483.444 119.883 482.586 119.883C481.728 119.883 480.948 119.103 480.948 118.245C480.948 117.387 481.728 116.607 482.586 116.607C483.444 116.607 484.224 117.387 484.224 118.245Z" fill="#C9190B"/>
      <path opacity="0.7" d="M476.97 46.5619C476.065 46.5619 475.332 47.2953 475.332 48.1999C475.332 49.1045 476.065 49.8379 476.97 49.8379C477.875 49.8379 478.608 49.1045 478.608 48.1999C478.608 47.2953 477.875 46.5619 476.97 46.5619Z" fill="#F4C145"/>
      <path opacity="0.7" d="M580.554 11.696C580.554 12.632 579.774 13.334 578.916 13.334C578.058 13.334 577.278 12.554 577.278 11.696C577.278 10.838 578.058 10.058 578.916 10.058C579.774 10.058 580.554 10.838 580.554 11.696Z" fill="#009596"/>
      <path opacity="0.7" d="M420.342 36.9682C419.437 36.9682 418.704 37.7015 418.704 38.6061C418.704 39.5108 419.437 40.2441 420.342 40.2441C421.247 40.2441 421.98 39.5108 421.98 38.6061C421.98 37.7015 421.247 36.9682 420.342 36.9682Z" fill="#0066CC"/>
      <path opacity="0.7" d="M365.274 44.612C365.274 45.548 364.494 46.25 363.636 46.25C362.778 46.25 361.998 45.47 361.998 44.612C361.998 43.754 362.778 42.974 363.636 42.974C364.494 42.974 365.274 43.754 365.274 44.612Z" fill="#F4C145"/>
      <path opacity="0.7" d="M312.936 87.7464C312.031 87.7464 311.298 88.4798 311.298 89.3844C311.298 90.2891 312.031 91.0225 312.936 91.0225C313.841 91.0225 314.574 90.2891 314.574 89.3844C314.574 88.4798 313.841 87.7464 312.936 87.7464Z" fill="#F4C145"/>
      <path opacity="0.7" d="M343.2 116.607C342.295 116.607 341.562 117.34 341.562 118.245C341.562 119.149 342.295 119.883 343.2 119.883C344.105 119.883 344.838 119.149 344.838 118.245C344.838 117.34 344.105 116.607 343.2 116.607Z" fill="#009596"/>
      <path opacity="0.7" d="M348.972 193.826C348.972 194.762 348.192 195.464 347.334 195.464C346.476 195.464 345.696 194.684 345.696 193.826C345.696 192.968 346.476 192.188 347.334 192.188C348.192 192.188 348.972 192.968 348.972 193.826Z" fill="#4CB140"/>
      <path opacity="0.7" d="M251.238 194.138C250.333 194.138 249.6 194.871 249.6 195.776C249.6 196.681 250.333 197.414 251.238 197.414C252.143 197.414 252.876 196.681 252.876 195.776C252.876 194.871 252.143 194.138 251.238 194.138Z" fill="#4CB140"/>
      <path opacity="0.7" d="M284.778 296.864C283.873 296.864 283.14 297.597 283.14 298.502C283.14 299.406 283.873 300.14 284.778 300.14C285.683 300.14 286.416 299.406 286.416 298.502C286.416 297.597 285.683 296.864 284.778 296.864Z" fill="#009596"/>
      <path opacity="0.7" d="M112.788 277.131C112.788 278.067 112.008 278.769 111.15 278.769C110.292 278.769 109.512 277.989 109.512 277.131C109.512 276.273 110.292 275.493 111.15 275.493C112.008 275.493 112.788 276.273 112.788 277.131Z" fill="#009596"/>
      <path opacity="0.7" d="M189.618 245.697C188.713 245.697 187.98 246.43 187.98 247.335C187.98 248.239 188.713 248.973 189.618 248.973C190.523 248.973 191.256 248.239 191.256 247.335C191.256 246.43 190.523 245.697 189.618 245.697Z" fill="#C9190B"/>
      <path opacity="0.7" d="M61.854 210.986C61.854 211.922 61.074 212.624 60.216 212.624C59.358 212.624 58.578 211.844 58.578 210.986C58.578 210.128 59.358 209.348 60.216 209.348C61.074 209.348 61.854 210.128 61.854 210.986Z" fill="#4CB140"/>
      <path opacity="0.7" d="M138.684 172.455C138.684 173.391 137.904 174.093 137.046 174.093C136.188 174.093 135.408 173.313 135.408 172.455C135.408 171.597 136.188 170.817 137.046 170.817C137.904 170.817 138.684 171.597 138.684 172.455Z" fill="#0066CC"/>
      <path opacity="0.7" d="M196.248 153.188C196.248 154.124 195.468 154.826 194.61 154.826C193.752 154.826 192.972 154.046 192.972 153.188C192.972 152.33 193.752 151.55 194.61 151.55C195.468 151.55 196.248 152.33 196.248 153.188Z" fill="#F4C145"/>
      <path opacity="0.7" d="M247.416 94.1423C247.416 95.0783 246.636 95.7803 245.778 95.7803C244.92 95.7803 244.14 95.0003 244.14 94.1423C244.14 93.2843 244.92 92.5043 245.778 92.5043C246.636 92.5043 247.416 93.2843 247.416 94.1423Z" fill="#009596"/>
      <path opacity="0.7" d="M273.78 4.90986C273.78 5.84586 273 6.54785 272.142 6.54785C271.284 6.54785 270.504 5.76786 270.504 4.90986C270.504 4.05186 271.284 3.27187 272.142 3.27187C273 3.27187 273.78 4.05186 273.78 4.90986Z" fill="#4CB140"/>
      <path opacity="0.7" d="M194.61 19.4186C194.61 20.3546 193.83 21.0566 192.972 21.0566C192.114 21.0566 191.334 20.2766 191.334 19.4186C191.334 18.5606 192.114 17.7807 192.972 17.7807C193.83 17.7807 194.61 18.5606 194.61 19.4186Z" fill="#0066CC"/>
      <path opacity="0.7" d="M189.618 49.683C188.713 49.683 187.98 50.4163 187.98 51.321C187.98 52.2256 188.713 52.959 189.618 52.959C190.523 52.959 191.256 52.2256 191.256 51.321C191.256 50.4163 190.523 49.683 189.618 49.683Z" fill="#4CB140"/>
      <path opacity="0.7" d="M152.178 104.048C152.178 104.984 151.398 105.686 150.54 105.686C149.682 105.686 148.902 104.906 148.902 104.048C148.902 103.19 149.682 102.41 150.54 102.41C151.398 102.41 152.178 103.19 152.178 104.048Z" fill="#F4C145"/>
      <path opacity="0.7" d="M35.334 61.9284C35.334 62.8644 34.554 63.5664 33.696 63.5664C32.838 63.5664 32.058 62.7864 32.058 61.9284C32.058 61.0704 32.838 60.2904 33.696 60.2904C34.554 60.2904 35.334 61.0704 35.334 61.9284Z" fill="#C9190B"/>
      <path opacity="0.7" d="M93.288 17.7807C92.3834 17.7807 91.65 18.514 91.65 19.4186C91.65 20.3233 92.3834 21.0566 93.288 21.0566C94.1927 21.0566 94.926 20.3233 94.926 19.4186C94.926 18.514 94.1927 17.7807 93.288 17.7807Z" fill="#009596"/>
      <path opacity="0.7" d="M137.046 11.7738C136.141 11.7738 135.408 12.5072 135.408 13.4118C135.408 14.3165 136.141 15.0498 137.046 15.0498C137.951 15.0498 138.684 14.3165 138.684 13.4118C138.684 12.5072 137.951 11.7738 137.046 11.7738Z" fill="#F4C145"/>
      <path opacity="0.7" d="M44.3042 128.93C44.3042 129.866 43.5242 130.568 42.6662 130.568C41.8082 130.568 41.0282 129.788 41.0282 128.93C41.0282 128.072 41.8082 127.292 42.6662 127.292C43.5242 127.292 44.3042 128.072 44.3042 128.93Z" fill="#009596"/>
      <path opacity="0.7" d="M25.038 281.966C24.1334 281.966 23.4 282.7 23.4 283.604C23.4 284.509 24.1334 285.242 25.038 285.242C25.9427 285.242 26.676 284.509 26.676 283.604C26.676 282.7 25.9427 281.966 25.038 281.966Z" fill="#C9190B"/>
    </g>
  </g>
</svg>
