<?xml version="1.0" encoding="UTF-8" standalone="no"?>
<svg
   xmlns:dc="http://purl.org/dc/elements/1.1/"
   xmlns:cc="http://creativecommons.org/ns#"
   xmlns:rdf="http://www.w3.org/1999/02/22-rdf-syntax-ns#"
   xmlns:svg="http://www.w3.org/2000/svg"
   xmlns="http://www.w3.org/2000/svg"
   xmlns:sodipodi="http://sodipodi.sourceforge.net/DTD/sodipodi-0.dtd"
   xmlns:inkscape="http://www.inkscape.org/namespaces/inkscape"
   inkscape:version="1.0 (4035a4fb49, 2020-05-01)"
   height="156.18295"
   width="125.75559"
   sodipodi:docname="seldon.svg"
   version="1.1"
   viewBox="0 0 125.75559 156.18296"
   data-name="Layer 1"
   id="Layer_1">
  <metadata
     id="metadata37">
    <rdf:RDF>
      <cc:Work
         rdf:about="">
        <dc:format>image/svg+xml</dc:format>
        <dc:type
           rdf:resource="http://purl.org/dc/dcmitype/StillImage" />
      </cc:Work>
    </rdf:RDF>
  </metadata>
  <sodipodi:namedview
     inkscape:current-layer="Layer_1"
     inkscape:window-maximized="0"
     inkscape:window-y="161"
     inkscape:window-x="2131"
     inkscape:cy="78.794274"
     inkscape:cx="356.09973"
     inkscape:zoom="1.8337763"
     showgrid="false"
     id="namedview35"
     inkscape:window-height="876"
     inkscape:window-width="2349"
     inkscape:pageshadow="2"
     inkscape:pageopacity="0"
     guidetolerance="10"
     gridtolerance="10"
     objecttolerance="10"
     borderopacity="1"
     bordercolor="#666666"
     pagecolor="#ffffff" />
  <defs
     id="defs4">
    <style
       id="style2">.cls-1{fill:#00ddcf;}.cls-2{fill:#fe4071;}.cls-3{fill:#5158fe;}.cls-4{fill:#fefefe;}</style>
  </defs>
  <title
     id="title6">seldon</title>
  <path
     id="path8"
     d="m 107.32423,87.379803 c -12.407,-4.39472 -24.82172,-8.76935 -37.27784,-13.02149 a 4.91669,4.91669 0 0 1 -3.41345,-3.47149 c -4.40381,-12.74115 -8.7392,-25.51022 -13.42743,-38.14765 a 27.25,27.25 0 0 0 -31.82208,-16.82489 27.5529,27.5529 0 0 0 -2.52472,52.99854 q 18.72381,6.63053 37.50781,13.09021 a 3.87115,3.87115 0 0 1 2.66907,2.68329 c 4.405,12.74072 8.81708,25.479997 13.37744,38.165707 4.59326,12.777 17.69739,20.07513 31.25879,17.59369 12.64826,-2.31434 22.12207,-13.923 22.08337,-27.05976 A 27.35344,27.35344 0 0 0 107.32423,87.379803 Z M 21.91737,56.034283 a 14.20551,14.20551 0 0 1 -8.79444,-14.558 14.60445,14.60445 0 0 1 12.61078,-13.13152 c 5.84522,-0.97088 12.62207,2.3797 14.88361,8.17725 3.78692,9.708 7.06048,19.61627 10.73913,29.97235 -10.22278,-3.61029 -19.89868,-6.85571 -29.43908,-10.46008 z m 90.79632,58.935787 c -0.69256,6.588 -5.7168,11.69781 -12.63489,12.8501 -5.86267,0.9765 -12.72711,-2.55445 -14.98938,-8.4433 -3.68121,-9.5827 -6.89288,-19.34583 -10.51642,-29.639997 6.30738,2.19953 12.01392,4.18378 17.71619,6.18012 3.76239,1.31714 7.55658,2.55438 11.26923,4.0003 a 14.51939,14.51939 0 0 1 9.15527,15.052777 z"
     class="cls-1" />
  <path
     id="path22"
     d="m 31.04273,114.31547 c -13.99872,-2.89862 -27.1109999,10.60156 -24.1259099,24.64856 1.7409,8.1925 6.6364099,13.82458 14.6223699,16.21911 8.08136,2.423 15.35211,0.40369 21.29785,-5.64142 4.31311,-4.38513 8.43586,-8.95764 12.63953,-13.45031 4.08166,-4.36225 8.15826,-8.72925 12.33832,-13.20252 a 6.0149,6.0149 0 0 0 -1.07,-0.54053 C 54.84913,119.64792 42.98591,116.7886 31.04273,114.31547 Z m 1.25464,27.11786 c -2.45752,2.29248 -6.58118,2.1109 -9.34412,0.13378 a 7.94176,7.94176 0 0 1 -2.90972,-9.11908 c 1.22857,-3.41674 4.3637,-5.853 7.90112,-5.3258 4.92132,0.73358 9.76056,2.01825 15.1615,3.18036 -3.83747,3.98736 -7.16339,7.73022 -10.80878,11.13074 z"
     class="cls-2" />
  <path
     id="path24"
     d="m 82.70753,39.146773 c 5.297,1.10931 10.45861,3.00921 15.96887,2.97186 a 21.01468,21.01468 0 0 0 10.57422,-38.95893 c -7.87549,-4.8208 -18.46881,-4.16967 -24.8833,2.2591 -8.97248,8.99237 -17.51148,18.4173 -26.47107,27.90625 a 10.39716,10.39716 0 0 0 1.22876,0.50244 c 7.85711,1.79041 15.69622,3.66773 23.58252,5.31928 z m 10.21264,-23.94306 a 7.88185,7.88185 0 0 1 9.73542,-0.79309 8.12779,8.12779 0 0 1 3.19171,9.27948 c -1.14771,3.4093 -4.60742,5.92914 -8.153,5.3454 -4.84729,-0.7981 -9.62268,-2.0329 -14.89062,-3.18115 3.62934,-3.8404 6.77891,-7.34034 10.11649,-10.65064 z"
     class="cls-3" />
  <path
     id="path26"
     d="m 25.73371,28.344763 a 14.60445,14.60445 0 0 0 -12.61078,13.13153 14.20551,14.20551 0 0 0 8.79444,14.558 c 9.5404,3.60437 19.2163,6.84979 29.43908,10.46008 -3.67865,-10.35609 -6.95221,-20.26435 -10.73913,-29.97236 -2.26154,-5.79755 -9.03839,-9.14813 -14.88361,-8.17725 z"
     class="cls-4" />
  <path
     id="path28"
     d="m 103.55842,99.917273 c -3.71265,-1.44592 -7.50684,-2.68316 -11.26923,-4.0003 -5.70227,-1.99637 -11.40881,-3.98059 -17.71617,-6.18012 3.62354,10.294187 6.83521,20.057317 10.51642,29.639997 2.26227,5.88885 9.12671,9.4198 14.98938,8.4433 6.91809,-1.15229 11.94233,-6.26209 12.63489,-12.8501 a 14.51939,14.51939 0 0 0 -9.15529,-15.052777 z"
     class="cls-4" />
  <path
     id="path30"
     d="m 20.04353,132.44803 a 7.94176,7.94176 0 0 0 2.90972,9.11908 c 2.76294,1.97712 6.8866,2.1587 9.34412,-0.13378 3.64539,-3.40052 6.97131,-7.14338 10.80878,-11.13074 -5.40094,-1.16211 -10.24018,-2.44678 -15.1615,-3.18036 -3.53742,-0.52722 -6.67255,1.90906 -7.90112,5.3258 z"
     class="cls-4" />
  <path
     id="path32"
     d="m 105.8473,23.690103 a 8.12779,8.12779 0 0 0 -3.19171,-9.27948 7.88185,7.88185 0 0 0 -9.73542,0.79309 c -3.33758,3.3103 -6.48712,6.81024 -10.11651,10.65064 5.26794,1.14825 10.04336,2.38305 14.89062,3.18115 3.5456,0.58374 7.00531,-1.9361 8.15302,-5.3454 z"
     class="cls-4" />
</svg>
