<?xml version="1.0" encoding="UTF-8"?><svg xmlns="http://www.w3.org/2000/svg" viewBox="0 0 32 32"><defs><style>.uuid-a686a288-2178-40ab-9e5a-3ac444781a8a{fill:none;}</style></defs><g id="uuid-de6f6e27-562a-4690-aee2-97fae2d70afb"><path d="M10,29H3V3h7c.5527,0,1-.4473,1-1s-.4473-1-1-1H2.5c-.8271,0-1.5.6729-1.5,1.5v27c0,.8271.6729,1.5,1.5,1.5h7.5c.5527,0,1-.4473,1-1s-.4473-1-1-1Z"/><path d="M29.5,1h-7.5c-.5527,0-1,.4473-1,1s.4473,1,1,1h7v26h-7c-.5527,0-1,.4473-1,1s.4473,1,1,1h7.5c.8271,0,1.5-.6729,1.5-1.5V2.5c0-.8271-.6729-1.5-1.5-1.5Z"/><path d="M23.707,11.293c-.3906-.3906-1.0234-.3906-1.4141,0l-8.293,8.293-4.293-4.293c-.3906-.3906-1.0234-.3906-1.4141,0s-.3906,1.0234,0,1.4141l4.6465,4.6465c.292.293.6768.4385,1.0605.4385s.7686-.1455,1.0605-.4385l8.6465-8.6465c.3906-.3906.3906-1.0234,0-1.4141Z"/></g><g id="uuid-39ef2cd7-bef3-4ce7-b657-25eb4df4cf1e"><rect class="uuid-a686a288-2178-40ab-9e5a-3ac444781a8a" y="0" width="32" height="32"/></g></svg>