<svg width="14" height="14" viewBox="0 0 14 14" fill="none" xmlns="http://www.w3.org/2000/svg">
<g clip-path="url(#clip0_209_23880)">
<path d="M3.5 3.00781H2.625V0.875C2.625 0.633412 2.42931 0.4375 2.1875 0.4375C1.94569 0.4375 1.75 0.633412 1.75 0.875V3.00781H0.875C0.603269 3.00781 0.382812 3.22827 0.382812 3.5C0.382812 3.77173 0.603269 3.99219 0.875 3.99219H1.75V13.125C1.75 13.3666 1.94569 13.5625 2.1875 13.5625C2.42931 13.5625 2.625 13.3666 2.625 13.125V3.99219H3.5C3.77173 3.99219 3.99219 3.77173 3.99219 3.5C3.99219 3.22827 3.77173 3.00781 3.5 3.00781Z" fill="#151515"/>
<path d="M8.3125 10.4453H7.4375V0.875C7.4375 0.633412 7.24181 0.4375 7 0.4375C6.75819 0.4375 6.5625 0.633412 6.5625 0.875V10.4453H5.6875C5.41577 10.4453 5.19531 10.6658 5.19531 10.9375C5.19531 11.2092 5.41577 11.4297 5.6875 11.4297H6.5625V13.125C6.5625 13.3666 6.75819 13.5625 7 13.5625C7.24181 13.5625 7.4375 13.3666 7.4375 13.125V11.4297H8.3125C8.58423 11.4297 8.80469 11.2092 8.80469 10.9375C8.80469 10.6658 8.58423 10.4453 8.3125 10.4453Z" fill="#151515"/>
<path d="M13.125 6.50781H12.25V0.875C12.25 0.633412 12.0543 0.4375 11.8125 0.4375C11.5707 0.4375 11.375 0.633412 11.375 0.875V6.50781H10.5C10.2283 6.50781 10.0078 6.72827 10.0078 7C10.0078 7.27173 10.2283 7.49219 10.5 7.49219H11.375V13.125C11.375 13.3666 11.5707 13.5625 11.8125 13.5625C12.0543 13.5625 12.25 13.3666 12.25 13.125V7.49219H13.125C13.3967 7.49219 13.6172 7.27173 13.6172 7C13.6172 6.72827 13.3967 6.50781 13.125 6.50781Z" fill="#151515"/>
</g>
<defs>
<clipPath id="clip0_209_23880">
<rect width="14" height="14" fill="white"/>
</clipPath>
</defs>
</svg>
