<svg width="48" height="48" viewBox="0 0 48 48" fill="none" xmlns="http://www.w3.org/2000/svg">
<path d="M24 4C35.0457 4 44 12.9543 44 24C44 35.0457 35.0457 44 24 44C12.9543 44 4 35.0457 4 24C4 12.9543 12.9543 4 24 4Z" fill="white" stroke="url(#paint0_radial_347_19597)" stroke-width="8"/>
<g clip-path="url(#clip0_347_19597)">
<path d="M31.0798 24.635L26.3698 23.635L25.3698 18.925C25.3348 18.75 25.1798 18.63 25.0048 18.63C24.8298 18.63 24.6748 18.755 24.6398 18.925L23.6398 23.635L18.9298 24.635C18.7548 24.67 18.6348 24.825 18.6348 25C18.6348 25.175 18.7598 25.33 18.9298 25.365L23.6398 26.365L24.6398 31.075C24.6748 31.25 24.8298 31.37 25.0048 31.37C25.1798 31.37 25.3348 31.245 25.3698 31.075L26.3698 26.365L31.0798 25.365C31.2548 25.33 31.3748 25.175 31.3748 25C31.3748 24.825 31.2498 24.67 31.0798 24.635Z" fill="#1B0D33"/>
<path d="M18.9999 21.875C19.1749 21.875 19.3299 21.75 19.3649 21.58L19.7499 19.755L21.5749 19.37C21.7499 19.335 21.8699 19.18 21.8699 19.005C21.8699 18.83 21.7449 18.675 21.5749 18.64L19.7499 18.255L19.3649 16.43C19.3299 16.255 19.1749 16.135 18.9999 16.135C18.8249 16.135 18.6699 16.26 18.6349 16.43L18.2499 18.255L16.4249 18.64C16.2499 18.675 16.1299 18.83 16.1299 19.005C16.1299 19.18 16.2549 19.335 16.4249 19.37L18.2499 19.755L18.6349 21.58C18.6699 21.755 18.8249 21.875 18.9999 21.875Z" fill="#1B0D33"/>
</g>
<defs>
<radialGradient id="paint0_radial_347_19597" cx="0" cy="0" r="1" gradientUnits="userSpaceOnUse" gradientTransform="translate(24 24) rotate(34.5085) scale(29.1247)">
<stop offset="0.51443" stop-color="#F9A8A8"/>
<stop offset="0.70674" stop-color="#3D2785"/>
<stop offset="0.870204" stop-color="#1B0D33"/>
</radialGradient>
<clipPath id="clip0_347_19597">
<rect width="16" height="16" fill="white" transform="translate(16 16)"/>
</clipPath>
</defs>
</svg>
