<svg preserveAspectRatio="none" overflow="visible" style="display: block;" width="16" height="16" viewBox="0 0 16 16" fill="none" xmlns="http://www.w3.org/2000/svg">
<g id="IconWrapper">
<path id="resource-icon" d="M11.75 0.5C12.1636 0.5 12.5 0.83645 12.5 1.25V14.75C12.5 15.1636 12.1636 15.5 11.75 15.5H1.25C0.83645 15.5 0.5 15.1636 0.5 14.75V4.5C0.5 4.43327 0.513824 4.36806 0.539062 4.30762C0.564385 4.24703 0.600755 4.1922 0.646484 4.14648L4.14648 0.646484C4.1922 0.600755 4.24703 0.564385 4.30762 0.539062C4.36806 0.513774 4.43327 0.5 4.5 0.5H11.75ZM5 1.5V4.25C5 4.66355 4.66355 5 4.25 5H1.5V14.5H11.5V1.5H5ZM9.5 12C9.7761 12 10 12.2239 10 12.5C10 12.7761 9.7761 13 9.5 13H3.5C3.2239 13 3 12.7761 3 12.5C3 12.2239 3.2239 12 3.5 12H9.5ZM9.5 9.5C9.7761 9.5 10 9.7239 10 10C10 10.2761 9.7761 10.5 9.5 10.5H3.5C3.2239 10.5 3 10.2761 3 10C3 9.7239 3.2239 9.5 3.5 9.5H9.5ZM6.5 7C6.7761 7 7 7.2239 7 7.5C7 7.7761 6.7761 8 6.5 8H3.5C3.2239 8 3 7.7761 3 7.5C3 7.2239 3.2239 7 3.5 7H6.5ZM2.20703 4H4V2.20703L2.20703 4Z" fill="white"/>
</g>
</svg>
